<svg width="84" height="84" viewBox="0 0 84 84" fill="none" xmlns="http://www.w3.org/2000/svg">
<path d="M6.25181 0.993164H57.4093C60.1647 0.993164 62.3998 2.75716 62.3998 4.92916V79.0676C62.3998 81.2408 60.1632 83.0036 57.4093 83.0036H6.25181C3.49637 83.0036 1.25977 81.2396 1.25977 79.0664V4.93036C1.25977 2.75716 3.49637 0.994364 6.25029 0.994364L6.25181 0.993164Z" fill="#BED7F4"/>
<path d="M57.41 1.43359H6.25104C3.8024 1.43359 1.81738 2.99916 1.81738 4.93039V79.07C1.81738 81.0012 3.8024 82.5668 6.25104 82.5668H57.41C59.8587 82.5668 61.8437 81.0012 61.8437 79.07V4.93039C61.8437 2.99916 59.8587 1.43359 57.41 1.43359Z" fill="#BED7F4"/>
<path d="M25.2801 78.1151C24.2774 78.1151 23.4619 77.4719 23.4619 76.6811C23.4619 75.8903 24.2774 75.2471 25.2801 75.2471H38.3787C39.3814 75.2471 40.1969 75.8903 40.1969 76.6811C40.1969 77.4719 39.3814 78.1151 38.3787 78.1151H25.2801Z" fill="#333333"/>
<path d="M38.3799 75.6875H25.2813C24.586 75.6875 24.0215 76.1327 24.0215 76.6811C24.0215 77.2295 24.586 77.6747 25.2813 77.6747H38.3799C39.0752 77.6747 39.6397 77.2295 39.6397 76.6811C39.6397 76.1327 39.0752 75.6875 38.3799 75.6875Z" fill="#333333"/>
<path d="M62.3683 8.64062H1.24805V71.2578H62.3683V8.64062Z" fill="white"/>
<path d="M61.8097 9.08008H1.80469V70.8177H61.8097V9.08008Z" fill="white"/>
<path d="M2.68734 72.2508C1.68467 72.2508 0.869141 71.6076 0.869141 70.8168C0.869141 70.026 1.68467 69.3828 2.68734 69.3828H60.973C61.9757 69.3828 62.7912 70.026 62.7912 70.8168C62.7912 71.6076 61.9757 72.2508 60.973 72.2508H2.68734Z" fill="#333333"/>
<path d="M60.9732 69.8242H2.68754C1.99221 69.8242 1.42773 70.2694 1.42773 70.8178C1.42773 71.3662 1.99221 71.8114 2.68754 71.8114H60.9732C61.6686 71.8114 62.233 71.3662 62.233 70.8178C62.233 70.2694 61.6686 69.8242 60.9732 69.8242Z" fill="#333333"/>
<path d="M2.68636 10.5223C1.68369 10.5223 0.868164 9.8791 0.868164 9.0883C0.868164 8.2975 1.68369 7.6543 2.68636 7.6543H60.9721C61.9747 7.6543 62.7903 8.2975 62.7903 9.0883C62.7903 9.8791 61.9747 10.5223 60.9721 10.5223H2.68636Z" fill="#333333"/>
<path d="M60.9732 8.09473H2.68754C1.99221 8.09473 1.42773 8.53993 1.42773 9.08833C1.42773 9.63673 1.99221 10.0819 2.68754 10.0819H60.9732C61.6686 10.0819 62.233 9.63673 62.233 9.08833C62.233 8.53993 61.6686 8.09473 60.9732 8.09473Z" fill="#333333"/>
<path d="M6.25185 84C2.80413 84 0 81.7884 0 79.0692V4.9308C0 2.2116 2.80413 0 6.25185 0H57.4093C60.857 0 63.6612 2.2116 63.6612 4.9308V79.0692C63.6612 81.7884 60.857 84 57.4093 84H6.25185ZM6.25185 2.8668C4.80947 2.8668 3.63487 3.792 3.63487 4.9308V79.0692C3.63487 80.2068 4.80795 81.1332 6.25185 81.1332H57.4093C58.8517 81.1332 60.0263 80.208 60.0263 79.0692V4.9308C60.0263 3.7932 58.8532 2.8668 57.4093 2.8668H6.25185Z" fill="#333333"/>
<path d="M57.4091 0.439453H6.25162C3.11124 0.439453 0.556641 2.45425 0.556641 4.93105V79.0695C0.556641 81.5463 3.11124 83.5611 6.25162 83.5611H57.4091C60.5495 83.5611 63.1041 81.5463 63.1041 79.0695V4.93105C63.1041 2.45425 60.5495 0.440653 57.4091 0.440653V0.439453ZM60.5829 79.0695C60.5829 80.4495 59.1588 81.5727 57.4091 81.5727H6.25162C4.5019 81.5727 3.07777 80.4495 3.07777 79.0695V4.93105C3.07777 3.55105 4.5019 2.42785 6.25162 2.42785H57.4091C59.1588 2.42785 60.5829 3.55105 60.5829 4.93105V79.0695Z" fill="#333333"/>
<path d="M54 21H11V30H54V21Z" fill="#FFE366"/>
<path d="M54.5838 61H10.4162C9.63496 61 9 60.3472 9 59.5439V20.4561C9 19.6528 9.63496 19 10.4162 19H54.5838C55.365 19 56 19.6528 56 20.4561V59.5439C56 60.3472 55.365 61 54.5838 61ZM11.8324 58.0879H53.1676V21.9121H11.8324V58.0879Z" fill="#3E3A39"/>
<path d="M53.8398 38H11.1602C10.5197 38 10 37.552 10 37C10 36.448 10.5197 36 11.1602 36H53.8398C54.4803 36 55 36.448 55 37C55 37.552 54.4803 38 53.8398 38Z" fill="#3E3A39"/>
<path d="M53.8398 31H11.1602C10.5197 31 10 30.552 10 30C10 29.448 10.5197 29 11.1602 29H53.8398C54.4803 29 55 29.448 55 30C55 30.552 54.4803 31 53.8398 31Z" fill="#3E3A39"/>
<path d="M53.8398 46H11.1602C10.5197 46 10 45.328 10 44.5C10 43.672 10.5197 43 11.1602 43H53.8398C54.4803 43 55 43.672 55 44.5C55 45.328 54.4803 46 53.8398 46Z" fill="#3E3A39"/>
<path d="M53.8398 53H11.1602C10.5197 53 10 52.328 10 51.5C10 50.672 10.5197 50 11.1602 50H53.8398C54.4803 50 55 50.672 55 51.5C55 52.328 54.4803 53 53.8398 53Z" fill="#3E3A39"/>
<path d="M25.5 61C24.672 61 24 60.4678 24 59.8119V21.1881C24 20.5322 24.672 20 25.5 20C26.328 20 27 20.5322 27 21.1881V59.8119C27 60.4678 26.328 61 25.5 61Z" fill="#3E3A39"/>
<path d="M56.4935 42.7709L46.8359 37.8486L49.4924 47.9811L56.4935 42.7709Z" fill="white"/>
<path d="M49.4608 49.0733C49.349 49.0686 49.2377 49.0492 49.1306 49.0079C48.7798 48.8829 48.5118 48.5958 48.4175 48.2386L45.7611 38.1066C45.6535 37.6901 45.8003 37.2511 46.1361 36.9856C46.4756 36.7202 46.9432 36.6773 47.3292 36.8774L56.9864 41.7994C57.3285 41.9719 57.5578 42.3053 57.5919 42.6819C57.6297 43.0587 57.4665 43.4198 57.1654 43.6463L50.1646 48.8563C49.9588 49.0095 49.7105 49.0837 49.4571 49.0731L49.4608 49.0733ZM48.5223 39.9329L50.1415 46.1147L54.4137 42.935L48.5224 39.9292L48.5223 39.9329Z" fill="#333333"/>
<path d="M49.4448 48.1742L56.2785 42.7815L81.7477 74.0138L75.0843 79.5866L49.4448 48.1742Z" fill="#FFE366"/>
<path d="M75.0532 80.6808C75.0308 80.6799 75.0085 80.6789 74.9861 80.678C74.6884 80.6471 74.4127 80.4994 74.2252 80.267L48.5866 48.8559C48.2007 48.3833 48.2725 47.6944 48.7458 47.3205L55.5793 41.928C55.8084 41.7462 56.1017 41.6665 56.3919 41.7007C56.6857 41.7351 56.954 41.8826 57.138 42.1074L82.6062 73.3384C82.9849 73.8033 82.9249 74.4743 82.4699 74.8564L75.8104 80.4328C75.6002 80.608 75.3289 80.6997 75.0567 80.6883L75.0532 80.6808ZM51.0043 48.3573L75.2217 78.027L80.2029 73.8561L56.1162 44.317L51.0044 48.3536L51.0043 48.3573Z" fill="#333333"/>
<path d="M51.3074 40.1563C51.3074 40.1563 50.5906 42.3958 48.161 42.3288L46.8076 37.917L51.3076 40.1526L51.3074 40.1563Z" fill="#333333"/>
<path d="M79.4258 76.8536C79.2028 76.8451 78.9827 76.7443 78.8286 76.5537L53.8881 45.7804C53.6123 45.4374 53.665 44.9407 54.0047 44.6656C54.3481 44.3943 54.8486 44.4503 55.1283 44.7897L80.0688 75.5631C80.3446 75.9061 80.2919 76.4028 79.9521 76.6779C79.7957 76.8012 79.6117 76.857 79.4259 76.8499L79.4258 76.8536Z" fill="#333333"/>
<path d="M77.4472 78.4454C77.2243 78.4369 77.0041 78.3361 76.8501 78.1455L51.9096 47.3722C51.6338 47.0292 51.6865 46.5325 52.0262 46.2574C52.3696 45.986 52.8701 46.0421 53.1498 46.3815L78.0903 77.1549C78.3661 77.4979 78.3134 77.9946 77.9736 78.2697C77.8172 78.393 77.6332 78.4488 77.4474 78.4417L77.4472 78.4454Z" fill="#333333"/>
</svg>
