<svg width="270" height="252" viewBox="0 0 270 252" fill="none" xmlns="http://www.w3.org/2000/svg">
<rect width="142.329" height="119.249" transform="translate(53.8164 132.751)" fill="white"/>
<path d="M182.209 146.135H86.1244C83.2538 146.135 80.9268 148.469 80.9268 151.349V211.26C80.9268 214.14 83.2538 216.474 86.1244 216.474H182.209C185.08 216.474 187.407 214.14 187.407 211.26V151.349C187.407 148.469 185.08 146.135 182.209 146.135Z" fill="white"/>
<path d="M187.407 153.944H80.9268V161.762H187.407V153.944Z" fill="#FFE366"/>
<path fill-rule="evenodd" clip-rule="evenodd" d="M86.1167 146.578C83.4948 146.578 81.3694 148.71 81.3694 151.341V211.267C81.3694 213.898 83.4948 216.03 86.1167 216.03H182.217C184.839 216.03 186.964 213.898 186.964 211.267V151.341C186.964 148.71 184.839 146.578 182.217 146.578H86.1167ZM78.3164 151.341C78.3164 147.019 81.8087 143.516 86.1167 143.516H182.217C186.525 143.516 190.017 147.019 190.017 151.341V211.267C190.017 215.589 186.525 219.092 182.217 219.092H86.1167C81.8087 219.092 78.3164 215.589 78.3164 211.267V151.341Z" fill="#333333"/>
<path fill-rule="evenodd" clip-rule="evenodd" d="M86.1246 147.666C84.097 147.666 82.4534 149.315 82.4534 151.349V211.26C82.4534 213.294 84.097 214.943 86.1246 214.943H182.209C184.237 214.943 185.88 213.294 185.88 211.26V151.349C185.88 149.315 184.237 147.666 182.209 147.666H86.1246ZM79.4004 151.349C79.4004 147.624 82.4109 144.604 86.1246 144.604H182.209C185.923 144.604 188.933 147.624 188.933 151.349V211.26C188.933 214.986 185.923 218.006 182.209 218.006H86.1246C82.4109 218.006 79.4004 214.986 79.4004 211.26V151.349Z" fill="#333333"/>
<path d="M166.624 168.277H70.5395C67.6689 168.277 65.3418 170.612 65.3418 173.491V233.403C65.3418 236.283 67.6689 238.617 70.5395 238.617H166.624C169.495 238.617 171.822 236.283 171.822 233.403V173.491C171.822 170.612 169.495 168.277 166.624 168.277Z" fill="white"/>
<path fill-rule="evenodd" clip-rule="evenodd" d="M70.5318 168.721C67.9099 168.721 65.7844 170.853 65.7844 173.483V233.41C65.7844 236.04 67.9099 238.172 70.5318 238.172H166.632C169.254 238.172 171.379 236.04 171.379 233.41V173.483C171.379 170.853 169.254 168.721 166.632 168.721H70.5318ZM62.7314 173.483C62.7314 169.162 66.2238 165.658 70.5318 165.658H166.632C170.94 165.658 174.432 169.162 174.432 173.483V233.41C174.432 237.732 170.94 241.235 166.632 241.235H70.5318C66.2238 241.235 62.7314 237.732 62.7314 233.41V173.483Z" fill="#333333"/>
<path fill-rule="evenodd" clip-rule="evenodd" d="M70.5386 169.808C68.5111 169.808 66.8674 171.457 66.8674 173.49V233.402C66.8674 235.436 68.5111 237.085 70.5386 237.085H166.623C168.651 237.085 170.294 235.436 170.294 233.402V173.49C170.294 171.457 168.651 169.808 166.623 169.808H70.5386ZM63.8145 173.49C63.8145 169.765 66.825 166.745 70.5386 166.745H166.623C170.337 166.745 173.347 169.765 173.347 173.49V233.402C173.347 237.127 170.337 240.147 166.623 240.147H70.5386C66.825 240.147 63.8145 237.127 63.8145 233.402V173.49Z" fill="#333333"/>
<path d="M95.5196 191.17H82.5293C80.3795 191.17 78.6367 192.918 78.6367 195.075V205.503C78.6367 207.659 80.3795 209.408 82.5293 209.408H95.5196C97.6694 209.408 99.4122 207.659 99.4122 205.503V195.075C99.4122 192.918 97.6694 191.17 95.5196 191.17Z" fill="#FFE366"/>
<path fill-rule="evenodd" clip-rule="evenodd" d="M82.5294 192.701C81.2226 192.701 80.1633 193.764 80.1633 195.075V205.503C80.1633 206.814 81.2226 207.876 82.5294 207.876H95.5198C96.8265 207.876 97.8858 206.814 97.8858 205.503V195.075C97.8858 193.764 96.8265 192.701 95.5198 192.701H82.5294ZM77.1104 195.075C77.1104 192.072 79.5365 189.639 82.5294 189.639H95.5198C98.5126 189.639 100.939 192.072 100.939 195.075V205.503C100.939 208.505 98.5126 210.939 95.5198 210.939H82.5294C79.5365 210.939 77.1104 208.505 77.1104 205.503V195.075Z" fill="#333333"/>
<path fill-rule="evenodd" clip-rule="evenodd" d="M77.9121 200.289C77.9121 199.866 78.2538 199.523 78.6754 199.523H99.4508C99.8723 199.523 100.214 199.866 100.214 200.289C100.214 200.712 99.8723 201.055 99.4508 201.055H78.6754C78.2538 201.055 77.9121 200.712 77.9121 200.289Z" fill="#333333"/>
<path fill-rule="evenodd" clip-rule="evenodd" d="M77.9121 195.596C77.9121 195.173 78.2538 194.83 78.6754 194.83H99.4508C99.8723 194.83 100.214 195.173 100.214 195.596C100.214 196.019 99.8723 196.361 99.4508 196.361H78.6754C78.2538 196.361 77.9121 196.019 77.9121 195.596Z" fill="#333333"/>
<path fill-rule="evenodd" clip-rule="evenodd" d="M77.79 204.975C77.79 204.552 78.1318 204.209 78.5533 204.209H99.3287C99.7503 204.209 100.092 204.552 100.092 204.975C100.092 205.397 99.7503 205.74 99.3287 205.74H78.5533C78.1318 205.74 77.79 205.397 77.79 204.975Z" fill="#333333"/>
<path d="M91.6197 206.797C91.6197 208.228 90.452 209.4 89.0247 209.4C87.5974 209.4 86.4297 208.228 86.4297 206.797V193.773C86.4297 192.341 87.5974 191.17 89.0247 191.17C90.452 191.17 91.6197 192.341 91.6197 193.773V206.797Z" fill="#FFE366"/>
<path fill-rule="evenodd" clip-rule="evenodd" d="M89.0243 191.936C88.0185 191.936 87.1925 192.764 87.1925 193.773V206.797C87.1925 207.806 88.0185 208.634 89.0243 208.634C90.03 208.634 90.8561 207.806 90.8561 206.797V193.773C90.8561 192.764 90.03 191.936 89.0243 191.936ZM85.666 193.773C85.666 191.919 87.1755 190.404 89.0243 190.404C90.8731 190.404 92.3826 191.919 92.3826 193.773V206.797C92.3826 208.651 90.8731 210.166 89.0243 210.166C87.1755 210.166 85.666 208.651 85.666 206.797V193.773Z" fill="#333333"/>
<path d="M73.1338 179.999H81.789V174.793L73.1338 179.999Z" fill="#333333"/>
<path fill-rule="evenodd" clip-rule="evenodd" d="M82.5415 173.46C83.02 173.731 83.3157 174.24 83.3157 174.792V179.998C83.3157 180.844 82.6323 181.53 81.7892 181.53H73.134C72.4478 181.53 71.846 181.07 71.6629 180.407C71.4798 179.744 71.7605 179.039 72.349 178.685L81.0042 173.479C81.4758 173.195 82.063 173.188 82.5415 173.46ZM78.6479 178.467H80.2627V177.496L78.6479 178.467Z" fill="#333333"/>
<path d="M80.8199 222.217C80.8199 224.108 79.82 225.708 78.637 225.708C77.4539 225.708 76.4541 224.108 76.4541 222.201C76.4541 220.295 77.4539 218.71 78.6446 218.71C79.8353 218.71 80.8122 220.318 80.8122 222.217H80.8199Z" fill="#333333"/>
<path d="M87.6431 222.217C87.6431 224.108 86.6432 225.708 85.4602 225.708C84.2772 225.708 83.2773 224.108 83.2773 222.201C83.2773 220.295 84.2772 218.71 85.4679 218.71C86.6585 218.71 87.6355 220.318 87.6355 222.217H87.6431Z" fill="#333333"/>
<path d="M94.4585 222.217C94.4585 224.108 93.4587 225.708 92.2756 225.708C91.0926 225.708 90.0928 224.108 90.0928 222.201C90.0928 220.295 91.0926 218.71 92.2833 218.71C93.4739 218.71 94.4509 220.318 94.4509 222.217H94.4585Z" fill="#333333"/>
<path d="M101.275 222.217C101.275 224.108 100.275 225.708 99.0921 225.708C97.909 225.708 96.9092 224.108 96.9092 222.201C96.9092 220.295 97.909 218.71 99.0997 218.71C100.29 218.71 101.267 220.318 101.267 222.217H101.275Z" fill="#333333"/>
<path d="M111.793 222.217C111.793 224.108 110.793 225.708 109.61 225.708C108.427 225.708 107.427 224.108 107.427 222.201C107.427 220.295 108.427 218.71 109.617 218.71C110.808 218.71 111.785 220.318 111.785 222.217H111.793Z" fill="#333333"/>
<path d="M118.608 222.217C118.608 224.108 117.608 225.708 116.425 225.708C115.242 225.708 114.242 224.108 114.242 222.201C114.242 220.295 115.242 218.71 116.433 218.71C117.623 218.71 118.6 220.318 118.6 222.217H118.608Z" fill="#333333"/>
<path d="M125.431 222.217C125.431 224.108 124.431 225.708 123.248 225.708C122.065 225.708 121.065 224.108 121.065 222.201C121.065 220.295 122.065 218.71 123.256 218.71C124.447 218.71 125.424 220.318 125.424 222.217H125.431Z" fill="#333333"/>
<path d="M132.248 222.217C132.248 224.108 131.248 225.708 130.065 225.708C128.882 225.708 127.882 224.108 127.882 222.201C127.882 220.295 128.882 218.71 130.072 218.71C131.263 218.71 132.24 220.318 132.24 222.217H132.248Z" fill="#333333"/>
<path d="M142.764 222.217C142.764 224.108 141.764 225.708 140.581 225.708C139.398 225.708 138.398 224.108 138.398 222.201C138.398 220.295 139.398 218.71 140.589 218.71C141.78 218.71 142.757 220.318 142.757 222.217H142.764Z" fill="#333333"/>
<path d="M149.581 222.217C149.581 224.108 148.581 225.708 147.398 225.708C146.215 225.708 145.215 224.108 145.215 222.201C145.215 220.295 146.215 218.71 147.405 218.71C148.596 218.71 149.573 220.318 149.573 222.217H149.581Z" fill="#333333"/>
<path d="M156.396 222.217C156.396 224.108 155.396 225.708 154.213 225.708C153.03 225.708 152.03 224.108 152.03 222.201C152.03 220.295 153.03 218.71 154.221 218.71C155.411 218.71 156.388 220.318 156.388 222.217H156.396Z" fill="#333333"/>
<path d="M163.219 222.217C163.219 224.108 162.219 225.708 161.036 225.708C159.853 225.708 158.854 224.108 158.854 222.201C158.854 220.295 159.853 218.71 161.044 218.71C162.235 218.71 163.212 220.318 163.212 222.217H163.219Z" fill="#333333"/>
<path d="M72.4287 9.68809C101.729 15.0385 121.144 43.1286 115.794 72.429C110.444 101.729 82.3535 121.145 53.0531 115.794C23.7527 110.444 4.33739 82.3538 9.68782 53.0534C15.0383 23.7529 43.1283 4.33765 72.4287 9.68809Z" fill="#BED7F4"/>
<path d="M90.6531 122.297L90.4391 89.1797L61.7955 106.049L90.6531 122.297Z" fill="#BED7F4"/>
<g clip-path="url(#clip0_431_39)">
<path d="M72.2526 47.6387H53.7334V78.3362H72.2526V47.6387Z" fill="#FF5F00"/>
<path d="M55.6409 62.99C55.6409 57.0034 58.3445 51.3422 62.9877 47.644C54.6364 40.9796 42.5449 42.4545 35.9783 50.9301C29.4116 59.4056 30.8649 71.677 39.2162 78.3414C46.1943 83.9051 56.0096 83.9051 62.9877 78.3414C58.3445 74.6432 55.6356 68.982 55.6409 62.99Z" fill="#EB001B"/>
<path d="M92.273 75.0883V74.4592H92.5401V74.3291H91.9043V74.4592H92.1554V75.0883H92.273ZM93.5072 75.0883V74.3291H93.3149L93.0905 74.8714L92.8661 74.3291H92.6737V75.0883H92.8126V74.5135L93.021 75.0069H93.1653L93.3737 74.5135V75.0883H93.5072Z" fill="#F79E1B"/>
<path d="M94.1109 62.9897C94.1109 73.7699 85.4978 82.5111 74.8757 82.5111C70.5638 82.5111 66.3748 81.0416 62.9873 78.3357C71.3386 71.6713 72.7919 59.3999 66.2252 50.9244C65.2795 49.7043 64.1895 48.598 62.9873 47.6382C71.3386 40.9738 83.43 42.4434 89.9967 50.9189C92.6629 54.3569 94.1109 58.6082 94.1109 62.9843V62.9897Z" fill="#F79E1B"/>
</g>
<path d="M197.306 9.68809C168.005 15.0385 148.59 43.1286 153.94 72.429C159.291 101.729 187.381 121.145 216.681 115.794C245.982 110.444 265.397 82.3538 260.047 53.0534C254.696 23.7529 226.606 4.33765 197.306 9.68809Z" fill="#BED7F4"/>
<path d="M179.081 122.297L179.295 89.1797L207.939 106.049L179.081 122.297Z" fill="#BED7F4"/>
<g clip-path="url(#clip1_431_39)">
<path d="M198.103 51.3937L188.156 74.6472H181.667L176.772 56.0898C176.475 54.9468 176.217 54.5281 175.313 54.0465C173.837 53.2622 171.401 52.5262 169.257 52.0695L169.402 51.3937H179.848C181.18 51.3937 182.377 52.2622 182.679 53.7646L185.264 67.2203L191.653 51.3933H198.103V51.3937ZM223.529 67.0551C223.555 60.9178 214.868 60.5797 214.928 57.8381C214.947 57.0037 215.757 56.1166 217.532 55.8902C218.412 55.7773 220.835 55.6913 223.584 56.9308L224.662 51.9997C223.185 51.4743 221.285 50.9688 218.92 50.9688C212.852 50.9688 208.582 54.1295 208.546 58.6554C208.507 62.0031 211.594 63.8711 213.92 64.9835C216.312 66.1227 217.115 66.8547 217.106 67.8736C217.089 69.4334 215.198 70.1221 213.43 70.1492C210.345 70.1957 208.554 69.3311 207.127 68.6809L206.014 73.7752C207.449 74.42 210.096 74.9826 212.841 75.0109C219.29 75.0109 223.509 71.8893 223.529 67.0551ZM239.552 74.6472H245.23L240.274 51.3937H235.033C233.855 51.3937 232.861 52.066 232.421 53.0997L223.209 74.6472H229.655L230.935 71.174H238.811L239.552 74.6472ZM232.702 66.408L235.934 57.6772L237.793 66.408H232.702ZM206.874 51.3937L201.798 74.6472H195.659L200.737 51.3937H206.874Z" fill="#1434CB"/>
</g>
<defs>
<clipPath id="clip0_431_39">
<rect width="70.2031" height="47.1226" fill="white" transform="translate(27.8887 39.4287)"/>
</clipPath>
<clipPath id="clip1_431_39">
<rect width="75.9732" height="24.0421" fill="white" transform="translate(169.257 50.9688)"/>
</clipPath>
</defs>
</svg>
