<svg width="99" height="83" viewBox="0 0 99 83" fill="none" xmlns="http://www.w3.org/2000/svg">
<path d="M89.306 9.31519H22.4725C20.4758 9.31519 18.8572 10.94 18.8572 12.9443V54.6441C18.8572 56.6484 20.4758 58.2732 22.4725 58.2732H89.306C91.3027 58.2732 92.9214 56.6484 92.9214 54.6441V12.9443C92.9214 10.94 91.3027 9.31519 89.306 9.31519Z" fill="white"/>
<path d="M92.9214 14.7507H18.8572V20.1917H92.9214V14.7507Z" fill="#FFE366"/>
<path fill-rule="evenodd" clip-rule="evenodd" d="M22.4672 9.6243C20.6435 9.6243 19.1651 11.1083 19.1651 12.939V54.6495C19.1651 56.4801 20.6435 57.9641 22.4672 57.9641H89.3113C91.135 57.9641 92.6134 56.4801 92.6134 54.6495V12.939C92.6134 11.1083 91.135 9.6243 89.3113 9.6243H22.4672ZM17.0415 12.939C17.0415 9.93106 19.4707 7.49268 22.4672 7.49268H89.3113C92.3078 7.49268 94.737 9.93106 94.737 12.939V54.6495C94.737 57.6574 92.3078 60.0958 89.3113 60.0958H22.4672C19.4707 60.0958 17.0415 57.6574 17.0415 54.6495V12.939Z" fill="#333333"/>
<path fill-rule="evenodd" clip-rule="evenodd" d="M22.4725 10.3809C21.0622 10.3809 19.919 11.5285 19.919 12.9442V54.644C19.919 56.0597 21.0622 57.2073 22.4725 57.2073H89.306C90.7163 57.2073 91.8596 56.0597 91.8596 54.644V12.9442C91.8596 11.5285 90.7163 10.3809 89.306 10.3809H22.4725ZM17.7954 12.9442C17.7954 10.3512 19.8894 8.24927 22.4725 8.24927H89.306C91.8891 8.24927 93.9831 10.3512 93.9831 12.9442V54.644C93.9831 57.2369 91.8891 59.3389 89.306 59.3389H22.4725C19.8894 59.3389 17.7954 57.2369 17.7954 54.644V12.9442Z" fill="#333333"/>
<path d="M78.4652 24.7268H11.6317C9.635 24.7268 8.01636 26.3516 8.01636 28.3559V70.0557C8.01636 72.06 9.635 73.6848 11.6317 73.6848H78.4652C80.4619 73.6848 82.0805 72.06 82.0805 70.0557V28.3559C82.0805 26.3516 80.4619 24.7268 78.4652 24.7268Z" fill="white"/>
<path fill-rule="evenodd" clip-rule="evenodd" d="M11.6265 25.0359C9.80277 25.0359 8.32436 26.5199 8.32436 28.3506V70.0611C8.32436 71.8917 9.80277 73.3758 11.6265 73.3758H78.4706C80.2943 73.3758 81.7727 71.8917 81.7727 70.0611V28.3506C81.7727 26.5199 80.2943 25.0359 78.4706 25.0359H11.6265ZM6.20081 28.3506C6.20081 25.3427 8.62996 22.9043 11.6265 22.9043H78.4706C81.4671 22.9043 83.8963 25.3427 83.8963 28.3506V70.0611C83.8963 73.069 81.4671 75.5074 78.4706 75.5074H11.6265C8.62996 75.5074 6.20081 73.069 6.20081 70.0611V28.3506Z" fill="#333333"/>
<path fill-rule="evenodd" clip-rule="evenodd" d="M11.6317 25.7925C10.2214 25.7925 9.07814 26.9401 9.07814 28.3558V70.0556C9.07814 71.4713 10.2214 72.6189 11.6317 72.6189H78.4652C79.8755 72.6189 81.0188 71.4713 81.0188 70.0556V28.3558C81.0188 26.9401 79.8755 25.7925 78.4652 25.7925H11.6317ZM6.95459 28.3558C6.95459 25.7629 9.04861 23.6609 11.6317 23.6609H78.4652C81.0483 23.6609 83.1423 25.7629 83.1423 28.3558V70.0556C83.1423 72.6485 81.0483 74.7505 78.4652 74.7505H11.6317C9.04861 74.7505 6.95459 72.6485 6.95459 70.0556V28.3558Z" fill="#333333"/>
<path d="M29.0078 40.6609H19.9721C18.4767 40.6609 17.2645 41.8777 17.2645 43.3787V50.6369C17.2645 52.1379 18.4767 53.3547 19.9721 53.3547H29.0078C30.5031 53.3547 31.7153 52.1379 31.7153 50.6369V43.3787C31.7153 41.8777 30.5031 40.6609 29.0078 40.6609Z" fill="#FFE366"/>
<path fill-rule="evenodd" clip-rule="evenodd" d="M19.9721 41.7266C19.0631 41.7266 18.3263 42.4662 18.3263 43.3786V50.6368C18.3263 51.5491 19.0631 52.2888 19.9721 52.2888H29.0078C29.9167 52.2888 30.6535 51.5491 30.6535 50.6368V43.3786C30.6535 42.4662 29.9167 41.7266 29.0078 41.7266H19.9721ZM16.2028 43.3786C16.2028 41.289 17.8903 39.595 19.9721 39.595H29.0078C31.0895 39.595 32.7771 41.289 32.7771 43.3786V50.6368C32.7771 52.7264 31.0895 54.4204 29.0078 54.4204H19.9721C17.8903 54.4204 16.2028 52.7264 16.2028 50.6368V43.3786Z" fill="#333333"/>
<path fill-rule="evenodd" clip-rule="evenodd" d="M16.7603 47.0075C16.7603 46.7132 16.9979 46.4746 17.2911 46.4746H31.7419C32.0351 46.4746 32.2728 46.7132 32.2728 47.0075C32.2728 47.3018 32.0351 47.5404 31.7419 47.5404H17.2911C16.9979 47.5404 16.7603 47.3018 16.7603 47.0075Z" fill="#333333"/>
<path fill-rule="evenodd" clip-rule="evenodd" d="M16.7603 43.7409C16.7603 43.4466 16.9979 43.208 17.2911 43.208H31.7419C32.0351 43.208 32.2728 43.4466 32.2728 43.7409C32.2728 44.0352 32.0351 44.2738 31.7419 44.2738H17.2911C16.9979 44.2738 16.7603 44.0352 16.7603 43.7409Z" fill="#333333"/>
<path fill-rule="evenodd" clip-rule="evenodd" d="M16.6753 50.269C16.6753 49.9747 16.913 49.7361 17.2062 49.7361H31.657C31.9502 49.7361 32.1878 49.9747 32.1878 50.269C32.1878 50.5633 31.9502 50.8019 31.657 50.8019H17.2062C16.913 50.8019 16.6753 50.5633 16.6753 50.269Z" fill="#333333"/>
<path d="M26.295 51.5375C26.295 52.534 25.4827 53.3494 24.49 53.3494C23.4972 53.3494 22.6849 52.534 22.6849 51.5375V42.4728C22.6849 41.4762 23.4972 40.6609 24.49 40.6609C25.4827 40.6609 26.295 41.4762 26.295 42.4728V51.5375Z" fill="#FFE366"/>
<path fill-rule="evenodd" clip-rule="evenodd" d="M24.49 41.1937C23.7904 41.1937 23.2158 41.7705 23.2158 42.4727V51.5374C23.2158 52.2396 23.7904 52.8164 24.49 52.8164C25.1895 52.8164 25.7641 52.2396 25.7641 51.5374V42.4727C25.7641 41.7705 25.1895 41.1937 24.49 41.1937ZM22.1541 42.4727C22.1541 41.1819 23.204 40.1279 24.49 40.1279C25.7759 40.1279 26.8259 41.1819 26.8259 42.4727V51.5374C26.8259 52.8283 25.7759 53.8822 24.49 53.8822C23.204 53.8822 22.1541 52.8283 22.1541 51.5374V42.4727Z" fill="#333333"/>
<path d="M13.4368 32.8855H19.457V29.2617L13.4368 32.8855Z" fill="#333333"/>
<path fill-rule="evenodd" clip-rule="evenodd" d="M19.9803 28.3345C20.3131 28.5237 20.5188 28.8779 20.5188 29.2619V32.8856C20.5188 33.4742 20.0434 33.9514 19.457 33.9514H13.4367C12.9594 33.9514 12.5408 33.6317 12.4135 33.17C12.2861 32.7082 12.4814 32.2179 12.8907 31.9715L18.911 28.3478C19.239 28.1503 19.6475 28.1452 19.9803 28.3345ZM17.272 31.8198H18.3952V31.1437L17.272 31.8198Z" fill="#333333"/>
<path d="M18.7828 62.2701C18.7828 63.5863 18.0873 64.7001 17.2644 64.7001C16.4416 64.7001 15.7461 63.5863 15.7461 62.2594C15.7461 60.9325 16.4416 59.8293 17.2697 59.8293C18.0979 59.8293 18.7775 60.9484 18.7775 62.2701H18.7828Z" fill="#333333"/>
<path d="M23.5289 62.2701C23.5289 63.5863 22.8334 64.7001 22.0105 64.7001C21.1877 64.7001 20.4922 63.5863 20.4922 62.2594C20.4922 60.9325 21.1877 59.8293 22.0158 59.8293C22.844 59.8293 23.5236 60.9484 23.5236 62.2701H23.5289Z" fill="#333333"/>
<path d="M28.2697 62.2701C28.2697 63.5863 27.5742 64.7001 26.7514 64.7001C25.9285 64.7001 25.233 63.5863 25.233 62.2594C25.233 60.9325 25.9285 59.8293 26.7567 59.8293C27.5849 59.8293 28.2644 60.9484 28.2644 62.2701H28.2697Z" fill="#333333"/>
<path d="M33.0106 62.2701C33.0106 63.5863 32.3151 64.7001 31.4922 64.7001C30.6693 64.7001 29.9739 63.5863 29.9739 62.2594C29.9739 60.9325 30.6693 59.8293 31.4975 59.8293C32.3257 59.8293 33.0052 60.9484 33.0052 62.2701H33.0106Z" fill="#333333"/>
<path d="M40.3262 62.2701C40.3262 63.5863 39.6308 64.7001 38.8079 64.7001C37.985 64.7001 37.2896 63.5863 37.2896 62.2594C37.2896 60.9325 37.985 59.8293 38.8132 59.8293C39.6414 59.8293 40.3209 60.9484 40.3209 62.2701H40.3262Z" fill="#333333"/>
<path d="M45.0671 62.2701C45.0671 63.5863 44.3716 64.7001 43.5487 64.7001C42.7259 64.7001 42.0304 63.5863 42.0304 62.2594C42.0304 60.9325 42.7259 59.8293 43.554 59.8293C44.3822 59.8293 45.0618 60.9484 45.0618 62.2701H45.0671Z" fill="#333333"/>
<path d="M49.8132 62.2701C49.8132 63.5863 49.1177 64.7001 48.2948 64.7001C47.472 64.7001 46.7765 63.5863 46.7765 62.2594C46.7765 60.9325 47.472 59.8293 48.3001 59.8293C49.1283 59.8293 49.8079 60.9484 49.8079 62.2701H49.8132Z" fill="#333333"/>
<path d="M54.554 62.2701C54.554 63.5863 53.8586 64.7001 53.0357 64.7001C52.2128 64.7001 51.5173 63.5863 51.5173 62.2594C51.5173 60.9325 52.2128 59.8293 53.041 59.8293C53.8692 59.8293 54.5487 60.9484 54.5487 62.2701H54.554Z" fill="#333333"/>
<path d="M61.8697 62.2701C61.8697 63.5863 61.1742 64.7001 60.3513 64.7001C59.5285 64.7001 58.833 63.5863 58.833 62.2594C58.833 60.9325 59.5285 59.8293 60.3567 59.8293C61.1848 59.8293 61.8644 60.9484 61.8644 62.2701H61.8697Z" fill="#333333"/>
<path d="M66.6105 62.2701C66.6105 63.5863 65.9151 64.7001 65.0922 64.7001C64.2693 64.7001 63.5739 63.5863 63.5739 62.2594C63.5739 60.9325 64.2693 59.8293 65.0975 59.8293C65.9257 59.8293 66.6052 60.9484 66.6052 62.2701H66.6105Z" fill="#333333"/>
<path d="M71.3513 62.2701C71.3513 63.5863 70.6558 64.7001 69.8329 64.7001C69.01 64.7001 68.3146 63.5863 68.3146 62.2594C68.3146 60.9325 69.01 59.8293 69.8382 59.8293C70.6664 59.8293 71.3459 60.9484 71.3459 62.2701H71.3513Z" fill="#333333"/>
<path d="M76.0975 62.2701C76.0975 63.5863 75.402 64.7001 74.5791 64.7001C73.7563 64.7001 73.0608 63.5863 73.0608 62.2594C73.0608 60.9325 73.7563 59.8293 74.5844 59.8293C75.4126 59.8293 76.0922 60.9484 76.0922 62.2701H76.0975Z" fill="#333333"/>
</svg>
