<svg width="109" height="106" viewBox="0 0 109 106" fill="none" xmlns="http://www.w3.org/2000/svg">
<path d="M43.3206 39.3819C43.3206 36.1393 33.9638 33.5117 22.42 33.5117C10.8773 33.5117 1.52051 36.1393 1.52051 39.3819V76.1454C1.52051 79.388 10.8773 82.0155 22.42 82.0155C33.9638 82.0155 43.3206 79.388 43.3206 76.1454V39.3819Z" fill="#FFE366"/>
<path d="M22.4244 83.5281C11.6249 83.5281 0 81.2195 0 76.1457V39.3823C0 34.3118 11.6249 32 22.4244 32C33.2228 32 44.8477 34.3084 44.8477 39.3823V76.1457C44.8477 81.2163 33.2228 83.5281 22.4244 83.5281ZM22.4244 35.0275C16.9792 35.0275 11.876 35.6189 8.05985 36.6908C3.89727 37.8601 3.04766 39.1135 3.04766 39.3857V76.1491C3.04766 76.4213 3.89727 77.6746 8.05985 78.844C11.876 79.9159 16.9759 80.5072 22.4244 80.5072C27.8729 80.5072 32.9717 79.9159 36.789 78.844C40.9504 77.6746 41.8 76.4213 41.8 76.1491V39.3857C41.8 39.1135 40.9504 37.8601 36.789 36.6908C32.9717 35.6189 27.8729 35.0275 22.4244 35.0275Z" fill="#333333"/>
<path d="M7.68711 55.1571C7.55117 55.1571 7.41304 55.1403 7.27381 55.1C2.44799 53.7525 0 51.8642 0 49.4818C0 48.6451 0.680789 47.9697 1.52383 47.9697C2.36687 47.9697 3.04766 48.6451 3.04766 49.4818C3.04766 49.754 3.90385 51.0173 8.10041 52.1867C8.90947 52.4118 9.38306 53.2485 9.15284 54.0516C8.96318 54.7169 8.35365 55.1537 7.68711 55.1537V55.1571Z" fill="#333333"/>
<path d="M22.4251 56.864C19.668 56.864 16.9865 56.7195 14.4464 56.4306C13.61 56.3365 13.0103 55.5871 13.1057 54.7572C13.2 53.9272 13.952 53.3325 14.7918 53.4266C17.2167 53.7021 19.7831 53.8399 22.4251 53.8399C27.8693 53.8399 32.9725 53.2485 36.7897 52.1767C40.9512 51.0072 41.8008 49.754 41.8008 49.4818C41.8008 48.6451 42.4816 47.9697 43.3246 47.9697C44.1677 47.9697 44.8485 48.6451 44.8485 49.4818C44.8485 54.5522 33.2235 56.864 22.4251 56.864Z" fill="#333333"/>
<path d="M22.4244 47.1376C11.6249 47.1376 0 44.8292 0 39.7553C0 38.9185 0.680789 38.2432 1.52383 38.2432C2.36687 38.2432 3.04766 38.9185 3.04766 39.7553C3.04766 40.0275 3.89727 41.2808 8.05985 42.4501C11.876 43.522 16.9759 44.1134 22.4244 44.1134C27.8729 44.1134 32.9717 43.522 36.789 42.4501C40.9504 41.2808 41.8 40.0275 41.8 39.7553C41.8 38.9185 42.4808 38.2432 43.3239 38.2432C44.1669 38.2432 44.8477 38.9185 44.8477 39.7553C44.8477 44.8258 33.2228 47.1376 22.4244 47.1376Z" fill="#333333"/>
<path d="M22.4244 66.5926C11.6249 66.5926 0 64.2841 0 59.2103C0 58.3736 0.680789 57.6982 1.52383 57.6982C2.36687 57.6982 3.04766 58.3736 3.04766 59.2103C3.04766 59.4825 3.89727 60.7358 8.05985 61.9052C11.876 62.9771 16.9759 63.5684 22.4244 63.5684C27.8729 63.5684 32.9717 62.9771 36.789 61.9052C40.9504 60.7358 41.8 59.4825 41.8 59.2103C41.8 58.3736 42.4808 57.6982 43.3239 57.6982C44.1669 57.6982 44.8477 58.3736 44.8477 59.2103C44.8477 64.2807 33.2228 66.5926 22.4244 66.5926Z" fill="#333333"/>
<path d="M22.4244 76.323C11.6249 76.323 0 74.0146 0 68.9408C0 68.1041 0.680789 67.4287 1.52383 67.4287C2.36687 67.4287 3.04766 68.1041 3.04766 68.9408C3.04766 69.2129 3.89727 70.4662 8.05985 71.6355C11.876 72.7074 16.9759 73.2989 22.4244 73.2989C27.8729 73.2989 32.9717 72.7074 36.789 71.6355C40.9504 70.4662 41.8 69.2129 41.8 68.9408C41.8 68.1041 42.4808 67.4287 43.3239 67.4287C44.1669 67.4287 44.8477 68.1041 44.8477 68.9408C44.8477 74.0112 33.2228 76.323 22.4244 76.323Z" fill="#333333"/>
<path d="M71.912 87.5636C74.5771 76.3584 67.5839 65.1307 56.2911 62.486C44.9994 59.8413 33.6847 66.7811 31.0186 77.9864C28.3535 89.1917 35.3478 100.419 46.6395 103.064C57.9322 105.709 69.247 98.769 71.912 87.5636Z" fill="#FFE366"/>
<path d="M51.4685 105.14C39.0443 105.14 28.9355 95.1097 28.9355 82.7814C28.9355 70.453 39.0443 60.4229 51.4685 60.4229C63.8926 60.4229 74.0003 70.453 74.0003 82.7814C74.0003 95.1097 63.8926 105.14 51.4685 105.14ZM51.4685 63.4437C40.7238 63.4437 31.9832 72.1162 31.9832 82.778C31.9832 93.4398 40.7238 102.112 51.4685 102.112C62.2131 102.112 70.9527 93.4398 70.9527 82.778C70.9527 72.1162 62.2131 63.4437 51.4685 63.4437Z" fill="#333333"/>
<path d="M51.4679 100.278C41.7417 100.278 33.832 92.4283 33.832 82.778C33.832 80.2142 34.3769 77.7445 35.4534 75.436C35.8064 74.6766 36.7131 74.3474 37.475 74.7002C38.2413 75.0496 38.5723 75.9501 38.2172 76.7062C37.327 78.6148 36.8764 80.6577 36.8764 82.778C36.8764 90.7584 43.4223 97.2535 51.4646 97.2535C55.5011 97.2535 59.3918 95.5734 62.1446 92.64C62.7168 92.0285 63.6815 91.9949 64.2976 92.5628C64.9149 93.1307 64.9477 94.0883 64.3755 94.6998C61.0505 98.2448 56.3441 100.278 51.4679 100.278Z" fill="#333333"/>
<path d="M66.8884 88.9344C66.7437 88.9344 66.5946 88.9142 66.4455 88.8705C65.6397 88.6285 65.1859 87.7852 65.4293 86.9854C65.8425 85.628 66.053 84.2167 66.053 82.7819C66.053 74.8015 59.5072 68.3063 51.4648 68.3063C47.6377 68.3063 44.0178 69.768 41.2782 72.4192C40.6763 73.0038 39.7105 72.9904 39.1251 72.3923C38.5353 71.7942 38.5496 70.8365 39.1525 70.2553C42.4633 67.0497 46.8385 65.2822 51.4648 65.2822C61.1899 65.2822 69.1007 73.1316 69.1007 82.7819C69.1007 84.5123 68.8464 86.2193 68.3454 87.8624C68.1447 88.5144 67.5429 88.9378 66.8851 88.9378L66.8884 88.9344Z" fill="#333333"/>
<path d="M52.9148 73.6008L51.6037 75.5867C51.5467 75.674 51.4173 75.674 51.3636 75.5867L50.0832 73.6042C50.0568 73.5639 50.0119 73.537 49.9615 73.537H46.5411C46.426 73.537 46.3591 73.6613 46.4194 73.7554L49.3081 78.2311C49.3695 78.3251 49.3015 78.4495 49.1864 78.4495H45.4042C45.3253 78.4495 45.2617 78.5134 45.2617 78.5906V81.4502C45.2617 81.5274 45.3253 81.5946 45.4042 81.5946H49.7378C49.8157 81.5946 49.8803 81.6585 49.8803 81.7357V83.5201C49.8803 83.5973 49.8157 83.6645 49.7378 83.6645H45.4042C45.3253 83.6645 45.2617 83.7283 45.2617 83.809V86.6684C45.2617 86.7458 45.3253 86.813 45.4042 86.813H49.7378C49.8157 86.813 49.8803 86.8768 49.8803 86.9541V91.8733C49.8803 91.9507 49.945 92.0178 50.0261 92.0178H52.9072C52.985 92.0178 53.053 91.954 53.053 91.8733V86.9541C53.053 86.8768 53.1177 86.813 53.1955 86.813H57.5302C57.608 86.813 57.676 86.7491 57.676 86.6684V83.809C57.676 83.7317 57.6113 83.6645 57.5302 83.6645H53.1955C53.1177 83.6645 53.053 83.6007 53.053 83.5201V81.7357C53.053 81.6585 53.1177 81.5946 53.1955 81.5946H57.5302C57.608 81.5946 57.676 81.5308 57.676 81.4502V78.5906C57.676 78.5134 57.6113 78.4495 57.5302 78.4495H53.7677C53.6526 78.4495 53.5847 78.3219 53.6461 78.2277L56.5983 73.752C56.663 73.6579 56.5918 73.5303 56.4767 73.5303H53.0332C52.985 73.5303 52.9379 73.5538 52.9116 73.5941L52.9148 73.6008Z" fill="#333333"/>
<path d="M82.732 1.23197C68.2246 0.551572 55.9124 11.7606 55.232 26.268C54.5516 40.7755 65.7607 53.0876 80.2681 53.768C94.7755 54.4484 107.088 43.2394 107.768 28.732C108.448 14.2245 97.2395 1.91237 82.732 1.23197Z" fill="#BED7F4"/>
<path d="M61.6917 52.7214L65.4351 37.0128L77.1871 48.1762L61.6917 52.7214Z" fill="#BED7F4"/>
<path d="M77.2238 36.9813C76.6917 36.9333 76.1789 36.7042 75.7842 36.3028L69.6279 29.9878C68.7536 29.0928 68.7984 27.6708 69.7244 26.8067C70.6504 25.9426 72.1056 25.9705 72.9799 26.8655L77.717 31.7251L91.2997 21.4752C92.3114 20.7126 93.756 20.885 94.5289 21.8694C95.2989 22.8487 95.1059 24.262 94.0893 25.0289L78.8545 36.5231C78.3701 36.8875 77.7882 37.0414 77.2229 36.9905L77.2238 36.9813Z" fill="#333333"/>
</svg>
