<svg width="156" height="165" viewBox="0 0 156 165" fill="none" xmlns="http://www.w3.org/2000/svg">
<path d="M66.4461 78.4154L2.96123 78.1355L2.5957 163.092L66.0806 163.372L66.4461 78.4154Z" fill="white"/>
<path d="M2.57375 164.72C1.68917 164.713 0.98005 163.976 0.987361 163.085L1.3602 78.1282C1.3602 77.6935 1.53565 77.281 1.83539 76.979C2.14243 76.677 2.55182 76.5002 2.97583 76.5075L66.4534 76.7875C66.8847 76.7948 67.2868 76.9643 67.5865 77.2663C67.8863 77.5757 68.0544 77.9882 68.0544 78.4228L67.6816 163.379C67.6816 164.278 66.9505 165 66.066 165L2.58106 164.72H2.56644H2.57375ZM4.56222 79.7709L4.20401 161.472L64.4649 161.737L64.8232 80.0361L4.56222 79.7709Z" fill="#3E3A39"/>
<path d="M18.8251 99.1002L16.3834 99.0708V98.2383L18.8397 98.2678C19.0152 98.2678 19.1687 98.2236 19.3003 98.1205C19.505 97.9584 19.622 97.7227 19.622 97.4428C19.622 97.1849 19.5416 96.9713 19.3661 96.7872C19.2272 96.6546 19.0518 96.5809 18.8617 96.5735L17.3411 96.5588L19.4027 93.6491C19.5562 93.4281 19.6366 93.1997 19.6366 92.9566C19.6366 92.6251 19.505 92.3379 19.2418 92.1095C19.0006 91.8959 18.7082 91.7854 18.3719 91.778C17.9771 91.778 17.6481 91.9622 17.4069 92.3379L15.1845 95.7559L13.0498 92.2789C12.8158 91.9032 12.4796 91.7043 12.0775 91.7043C11.8143 91.7043 11.5584 91.778 11.3245 91.9327C10.9882 92.1463 10.8054 92.4705 10.8054 92.8682C10.8054 93.104 10.8786 93.3323 11.0248 93.5533L13.0205 96.5072L11.4999 96.4851C11.361 96.4851 11.2368 96.5146 11.1198 96.5883C10.8639 96.743 10.725 97.0008 10.725 97.3323C10.725 97.5754 10.7981 97.789 10.959 97.9584C11.0906 98.1057 11.2733 98.1868 11.4853 98.1868L13.9271 98.2162V99.0487L11.4707 99.0192C11.3099 99.0192 11.1637 99.0634 11.0467 99.1444C10.8128 99.2991 10.6885 99.5422 10.6885 99.8442C10.6885 100.102 10.7689 100.316 10.937 100.5C11.0759 100.632 11.2514 100.706 11.4415 100.706L13.8832 100.736L13.8613 102.57C13.8613 102.776 13.9051 102.96 14.0002 103.122C14.2195 103.483 14.585 103.667 15.0748 103.675C15.4842 103.675 15.8132 103.557 16.0617 103.306C16.2372 103.115 16.3322 102.879 16.3395 102.607L16.3615 100.772L18.8032 100.802C18.9421 100.802 19.0664 100.772 19.1833 100.699C19.4392 100.544 19.5781 100.286 19.5781 99.9621C19.5781 99.6895 19.4831 99.4612 19.3003 99.2991C19.1687 99.1739 19.0079 99.1149 18.8178 99.1149L18.8251 99.1002Z" fill="#3E3A39"/>
<path d="M59.8665 87.8517L37.35 87.5718L37.2842 93.2365L59.8007 93.5165L59.8665 87.8443V87.8517Z" fill="#FFE366"/>
<path d="M56.6716 112.36L10.1326 111.785L10.0156 121.73L56.5546 122.304L56.6716 112.36Z" fill="#FFE366"/>
<path d="M57.1547 155.247L9.60679 154.665C8.76608 154.658 8.0862 153.958 8.10082 153.103L8.60525 111.771C8.61256 110.916 9.30706 110.238 10.1478 110.246L57.6956 110.835C58.5364 110.842 59.2089 111.542 59.2016 112.397L58.7045 153.73C58.6972 154.577 58.0027 155.262 57.162 155.254L57.1547 155.247ZM11.1639 151.601L55.6633 152.146L56.1239 113.892L11.6245 113.347L11.1639 151.601Z" fill="#3E3A39"/>
<path d="M58.792 98.9014L47.1829 98.7615C46.503 98.7541 45.9547 98.1869 45.962 97.4945C45.9693 96.802 46.5322 96.2495 47.2121 96.2569L58.8213 96.3969C59.5011 96.4042 60.0494 96.9715 60.0421 97.6639C60.0348 98.3563 59.4719 98.9088 58.792 98.9014Z" fill="#3E3A39"/>
<path d="M58.7412 102.813L47.1321 102.673C46.4522 102.666 45.9039 102.099 45.9112 101.406C45.9185 100.714 46.4814 100.161 47.1613 100.169L58.7705 100.308C59.4577 100.316 59.9986 100.883 59.9913 101.576C59.984 102.268 59.4211 102.82 58.7412 102.813Z" fill="#3E3A39"/>
<path d="M38.6223 108.132L11.1858 107.793C10.5059 107.785 9.95761 107.218 9.96492 106.526C9.97223 105.833 10.5351 105.281 11.215 105.288L38.6515 105.627C39.3314 105.627 39.8797 106.202 39.8724 106.894C39.8651 107.586 39.3022 108.139 38.6223 108.132Z" fill="#3E3A39"/>
<path d="M56.5328 123.557L10.9807 122.997C10.3008 122.989 9.75253 122.422 9.75984 121.73C9.76715 121.037 10.3301 120.485 11.0099 120.492L56.562 121.052C57.2419 121.059 57.7902 121.627 57.7829 122.319C57.7756 123.012 57.2127 123.564 56.5328 123.557Z" fill="#3E3A39"/>
<path d="M56.4381 131.35L10.886 130.791C10.2061 130.783 9.6578 130.216 9.66511 129.524C9.67242 128.831 10.2353 128.279 10.9152 128.286L56.4673 128.846C57.1472 128.853 57.6955 129.42 57.6882 130.113C57.6809 130.805 57.1179 131.358 56.4381 131.343V131.35Z" fill="#3E3A39"/>
<path d="M56.3433 139.151L10.7912 138.592C10.1114 138.584 9.56307 138.017 9.57038 137.325C9.5777 136.632 10.1406 136.08 10.8205 136.087L56.3726 136.647C57.0525 136.654 57.6007 137.221 57.5934 137.914C57.5861 138.606 57.0232 139.159 56.3433 139.151Z" fill="#3E3A39"/>
<path d="M56.2476 146.952L10.6955 146.393C10.0157 146.385 9.46737 145.818 9.47468 145.126C9.48199 144.433 10.0449 143.881 10.7248 143.888L56.2769 144.448C56.9568 144.448 57.5051 145.022 57.4977 145.715C57.4904 146.407 56.9275 146.96 56.2476 146.952Z" fill="#3E3A39"/>
<path d="M25.5871 154.569C24.9 154.562 24.359 153.995 24.3663 153.302L24.8561 112.654C24.8634 111.962 25.4263 111.409 26.1062 111.417C26.7861 111.424 27.3344 111.991 27.3271 112.684L26.8373 153.339C26.8299 154.031 26.267 154.584 25.5871 154.577V154.569Z" fill="#3E3A39"/>
<path d="M102.384 1.42918C77.3603 4.89875 59.8661 28.1545 63.3094 53.3697C66.7527 78.5848 89.8321 96.2126 114.856 92.7431C139.88 89.2735 157.374 66.0178 153.931 40.8026C150.488 15.5874 127.408 -2.0404 102.384 1.42918Z" fill="#BED7F4"/>
<path d="M82.7559 96.8828L84.1668 68.6179L107.809 84.0947L82.7559 96.8828Z" fill="#BED7F4"/>
<path d="M126.838 51.4984C126.838 56.979 122.964 59.5793 118.592 59.5793C114.22 59.5793 110.346 56.9716 110.346 51.4984V40.5814C110.346 34.9535 114.22 32.4636 118.592 32.4636C122.964 32.4636 126.838 34.9535 126.838 40.5446V51.4984ZM122.43 40.8098C122.43 37.9737 120.946 36.331 118.592 36.331C116.238 36.331 114.717 37.9811 114.717 40.8098V51.2258C114.717 54.0619 116.201 55.7046 118.592 55.7046C120.983 55.7046 122.43 54.0545 122.43 51.2258V40.8098Z" fill="#333333"/>
<path d="M106.397 53.9514V59.2405H101.148V53.9514H106.397Z" fill="#333333"/>
<path d="M96.5729 55.4026V59.2332H80.7236V56.0951L89.7302 45.4433C91.4409 43.4543 92.3913 41.7306 92.3913 39.889C92.3913 37.4728 90.6075 36.25 88.6629 36.25C86.6086 36.25 85.0515 37.517 84.9345 39.889H80.9064C80.9064 35.4102 84.4813 32.4563 88.8164 32.4563C93.1516 32.4563 96.763 35.5207 96.763 39.9627C96.763 43.2923 94.4821 45.9 92.808 47.9331L86.6086 55.4026H96.5656H96.5729Z" fill="#333333"/>
<path d="M137.665 56.6107H139.522L132.767 68.8095H130.888L137.658 56.6107H137.665ZM141.423 65.3473V66.2681C141.423 67.8592 140.67 68.9716 138.806 68.9716C137.153 68.9716 136.247 67.9845 136.247 66.2681V65.3473C136.247 63.6309 137.197 62.6586 138.806 62.6586C140.414 62.6586 141.423 63.6162 141.423 65.3473ZM138.828 67.6456C139.581 67.6456 139.931 67.1005 139.931 66.246V65.3768C139.931 64.4412 139.544 63.9992 138.828 63.9992C138.111 63.9992 137.76 64.456 137.76 65.3768V66.246C137.76 67.1152 138.038 67.6456 138.828 67.6456ZM134.317 59.1448V60.0656C134.317 61.6567 133.564 62.7691 131.7 62.7691C130.033 62.7691 129.119 61.782 129.119 60.0656V59.1448C129.119 57.4284 130.07 56.4561 131.7 56.4561C133.33 56.4561 134.317 57.4137 134.317 59.1448ZM131.7 61.4431C132.475 61.4431 132.804 60.898 132.804 60.0435V59.1743C132.804 58.2387 132.438 57.7967 131.7 57.7967C131.013 57.7967 130.647 58.2535 130.647 59.1743V60.0435C130.647 60.9127 130.925 61.4431 131.7 61.4431Z" fill="#333333"/>
</svg>
