<?xml version="1.0" encoding="UTF-8"?>
<svg id="_レイヤー_1" data-name="レイヤー 1" xmlns="http://www.w3.org/2000/svg" xmlns:xlink="http://www.w3.org/1999/xlink" viewBox="0 0 225.66 82.48">
  <defs>
    <style>
      .cls-1 {
        mask: url(#mask);
      }

      .cls-2 {
        fill: #333;
        fill-rule: evenodd;
      }

      .cls-2, .cls-3, .cls-4, .cls-5, .cls-6, .cls-7 {
        stroke-width: 0px;
      }

      .cls-3 {
        fill: #3e3a39;
      }

      .cls-4 {
        fill: #2175d6;
      }

      .cls-5 {
        fill: #bed7f4;
      }

      .cls-6 {
        fill: #ffe366;
      }

      .cls-7 {
        fill: #fff;
      }
    </style>
    <mask id="mask" x="-9.09" y="-7.59" width="78.44" height="98.81" maskUnits="userSpaceOnUse">
      <g id="mask0_431_211" data-name="mask0 431 211">
        <path class="cls-7" d="m69.35-6.68L-7.85-7.59l-1.23,97.9,77.21.91,1.23-97.9Z"/>
      </g>
    </mask>
  </defs>
  <g class="cls-1">
    <g>
      <path class="cls-7" d="m58.82,4.03L1.81,3.81l-.36,75.78,57.01.22.36-75.78Z"/>
      <path class="cls-3" d="m1.43,81.04c-.79,0-1.43-.66-1.43-1.46L.36,3.8c0-.39.16-.75.43-1.02.27-.27.64-.42,1.03-.42l57.01.23c.38,0,.75.16,1.02.43.27.27.42.64.42,1.03l-.36,75.78c0,.8-.65,1.45-1.45,1.44l-57.01-.22h-.01ZM3.25,5.27l-.35,72.88,54.12.21.35-72.88-54.12-.21Z"/>
      <path class="cls-3" d="m16.04,22.49l-2.19-.03v-.74s2.2.03,2.2.03c.16,0,.29-.04.41-.13.19-.15.29-.35.29-.61,0-.23-.07-.42-.23-.58-.12-.12-.28-.18-.45-.19l-1.37-.02,1.86-2.59c.14-.19.21-.4.21-.62,0-.3-.12-.55-.35-.76-.22-.19-.48-.29-.78-.29-.35,0-.65.17-.87.5l-2,3.05-1.91-3.1c-.21-.33-.51-.51-.87-.51-.24,0-.47.07-.68.21-.3.19-.46.48-.47.83,0,.21.06.42.2.61l1.79,2.64-1.37-.02c-.12,0-.24.03-.34.09-.23.14-.35.37-.36.66,0,.22.07.4.21.55.12.13.28.2.48.2l2.19.03v.74s-2.2-.03-2.2-.03c-.15,0-.28.04-.38.11-.21.14-.32.36-.32.62,0,.23.07.42.23.58.12.12.28.18.46.19l2.19.03-.02,1.64c0,.18.04.35.13.49.2.32.52.49.97.49.36,0,.66-.11.89-.33.16-.17.24-.38.25-.63l.02-1.64,2.19.03c.12,0,.24-.03.34-.09.23-.14.35-.37.36-.66,0-.24-.08-.45-.25-.59-.12-.11-.26-.16-.43-.17h0Z"/>
      <path class="cls-6" d="m52.89,12.45l-20.22-.24-.06,5.06,20.22.24.06-5.06Z"/>
      <path class="cls-6" d="m50.02,34.31l-41.79-.49-.11,8.87,41.79.49.11-8.87Z"/>
      <path class="cls-3" d="m50.45,72.57l-42.7-.5c-.76,0-1.36-.63-1.35-1.39l.46-36.87c0-.76.63-1.37,1.39-1.36l42.7.51c.76,0,1.36.63,1.35,1.39l-.46,36.87c0,.76-.63,1.37-1.39,1.36h0Zm-41.3-3.23l39.96.47.43-34.12-39.96-.47-.43,34.12Z"/>
      <path class="cls-3" d="m51.93,22.31l-10.42-.12c-.61,0-1.1-.51-1.1-1.13,0-.62.51-1.11,1.12-1.1l10.42.12c.61,0,1.11.51,1.1,1.13,0,.62-.51,1.11-1.12,1.1Z"/>
      <path class="cls-3" d="m51.88,25.8l-10.42-.12c-.61,0-1.1-.51-1.1-1.13,0-.61.51-1.11,1.13-1.1l10.42.12c.61,0,1.11.51,1.1,1.13,0,.61-.51,1.11-1.12,1.1Z"/>
      <path class="cls-3" d="m33.82,30.54l-24.64-.29c-.61,0-1.1-.51-1.1-1.13,0-.62.51-1.11,1.12-1.1l24.64.29c.61,0,1.1.51,1.1,1.13,0,.62-.51,1.11-1.12,1.1Z"/>
      <path class="cls-3" d="m49.9,44.3l-40.9-.48c-.61,0-1.1-.51-1.1-1.13,0-.62.51-1.11,1.12-1.1l40.9.48c.61,0,1.1.51,1.1,1.13,0,.61-.51,1.11-1.12,1.1h0Z"/>
      <path class="cls-3" d="m49.81,51.26l-40.9-.48c-.61,0-1.1-.51-1.1-1.13,0-.62.51-1.11,1.12-1.1l40.9.48c.61,0,1.1.51,1.1,1.13,0,.61-.51,1.11-1.12,1.1h0Z"/>
      <path class="cls-3" d="m49.73,58.21l-40.9-.48c-.61,0-1.1-.51-1.1-1.13,0-.62.51-1.11,1.12-1.1l40.9.48c.61,0,1.1.51,1.1,1.13,0,.61-.51,1.11-1.12,1.1h0Z"/>
      <path class="cls-3" d="m49.64,65.17l-40.9-.48c-.61,0-1.1-.51-1.1-1.13,0-.61.51-1.11,1.12-1.1l40.9.48c.61,0,1.1.51,1.1,1.13,0,.61-.51,1.11-1.12,1.1h0Z"/>
      <path class="cls-3" d="m22.11,71.98c-.61,0-1.11-.51-1.1-1.13l.46-36.27c0-.62.51-1.11,1.13-1.1.61,0,1.11.51,1.1,1.13l-.46,36.27c0,.62-.51,1.11-1.13,1.1Z"/>
    </g>
  </g>
  <path class="cls-4" d="m122.66,41.01l-10-5.77v11.55l10-5.77Zm-47.49,1h38.49v-2h-38.49v2Z"/>
  <rect class="cls-4" x="73.66" y="38.64" width="44.12" height="4.28"/>
  <path class="cls-5" d="m141.8,15.93c0-1.53,1.24-2.76,2.76-2.76h65.4c1.53,0,2.76,1.24,2.76,2.76v36.84c0,1.53-1.24,2.76-2.76,2.76h-65.4c-1.53,0-2.76-1.24-2.76-2.76V15.93Z"/>
  <path class="cls-2" d="m209.96,15.93h-65.4v36.84h65.4V15.93Zm-65.4-2.76c-1.53,0-2.76,1.24-2.76,2.76v36.84c0,1.53,1.24,2.76,2.76,2.76h65.4c1.53,0,2.76-1.24,2.76-2.76V15.93c0-1.53-1.24-2.76-2.76-2.76h-65.4Z"/>
  <path class="cls-2" d="m216.4,10.41h-78.29v47.89h78.29V10.41Zm-78.29-2.76c-1.53,0-2.76,1.24-2.76,2.76v47.89c0,1.53,1.24,2.76,2.76,2.76h78.29c1.53,0,2.76-1.24,2.76-2.76V10.41c0-1.53-1.24-2.76-2.76-2.76h-78.29Z"/>
  <path class="cls-2" d="m217.29,61.99h-80.03l-4.83,12.89h90.02l-5.16-12.89Zm-80.03-2.76c-1.15,0-2.18.71-2.59,1.79l-4.84,12.89c-.68,1.81.66,3.73,2.59,3.73h90.02c1.95,0,3.29-1.97,2.57-3.79l-5.16-12.89c-.42-1.05-1.44-1.74-2.57-1.74h-80.03Z"/>
  <path class="cls-2" d="m188.02,70.27h-20.71l-.94,4.61h22.65l-1.01-4.61Zm-20.71-2.76c-1.31,0-2.44.92-2.71,2.21l-.94,4.61c-.35,1.71.96,3.32,2.71,3.32h22.65c1.76,0,3.08-1.63,2.7-3.35l-1.01-4.61c-.28-1.27-1.4-2.17-2.7-2.17h-20.71Z"/>
</svg>