<svg width="193" height="166" viewBox="0 0 193 166" fill="none" xmlns="http://www.w3.org/2000/svg">
<g clip-path="url(#clip0_476_380)">
<path d="M110.651 10.4502H8.08053C5.22622 10.4502 2.91504 12.7545 2.91504 15.6004V33.2632H115.805V15.6004C115.805 12.7545 113.493 10.4502 110.639 10.4502H110.651Z" fill="#BED7F4"/>
<path d="M115.816 107.302H2.92625C1.72444 107.302 0.742188 106.322 0.742188 105.124V15.5888C0.742188 11.5562 4.03562 8.27246 8.08018 8.27246H110.65C114.695 8.27246 117.988 11.5562 117.988 15.5888V105.124C117.988 106.322 117.006 107.302 115.804 107.302H115.816ZM5.11032 102.947H113.632V15.5888C113.632 13.9527 112.291 12.6162 110.65 12.6162H8.08018C6.43925 12.6162 5.09876 13.9527 5.09876 15.5888V102.947H5.11032Z" fill="#333333"/>
<path d="M115.816 35.4412H2.92625C1.72444 35.4412 0.742188 34.4618 0.742188 33.2635C0.742188 32.0653 1.72444 31.0859 2.92625 31.0859H115.816C117.018 31.0859 118 32.0653 118 33.2635C118 34.4618 117.018 35.4412 115.816 35.4412Z" fill="#333333"/>
<path d="M29.2622 22.018C28.0604 22.018 27.0781 21.0387 27.0781 19.8404V2.17761C27.0781 0.979347 28.0604 0 29.2622 0C30.464 0 31.4463 0.979347 31.4463 2.17761V19.8519C31.4463 21.0502 30.464 22.0296 29.2622 22.0296V22.018Z" fill="#333333"/>
<path d="M49.3345 22.018C48.1326 22.018 47.1504 21.0387 47.1504 19.8404V2.17761C47.1504 0.979347 48.1326 0 49.3345 0C50.5363 0 51.5185 0.979347 51.5185 2.17761V19.8519C51.5185 21.0502 50.5363 22.0296 49.3345 22.0296V22.018Z" fill="#333333"/>
<path d="M69.4077 22.018C68.2059 22.018 67.2236 21.0387 67.2236 19.8404V2.17761C67.2236 0.979347 68.2059 0 69.4077 0C70.6095 0 71.5918 0.979347 71.5918 2.17761V19.8519C71.5918 21.0502 70.6095 22.0296 69.4077 22.0296V22.018Z" fill="#333333"/>
<path d="M89.48 22.018C88.2781 22.018 87.2959 21.0387 87.2959 19.8404V2.17761C87.2959 0.979347 88.2781 0 89.48 0C90.6818 0 91.664 0.979347 91.664 2.17761V19.8519C91.664 21.0502 90.6818 22.0296 89.48 22.0296V22.018Z" fill="#333333"/>
<path d="M17.5443 53.5527H22.0396C22.4033 53.5527 22.6982 53.2587 22.6982 52.896V48.414C22.6982 48.0513 22.4033 47.7573 22.0396 47.7573H17.5443C17.1805 47.7573 16.8856 48.0513 16.8856 48.414V52.896C16.8856 53.2587 17.1805 53.5527 17.5443 53.5527Z" fill="#333333"/>
<path d="M96.3558 88.3604H100.851C101.215 88.3604 101.51 88.0663 101.51 87.7036V83.2217C101.51 82.859 101.215 82.5649 100.851 82.5649H96.3558C95.9921 82.5649 95.6971 82.859 95.6971 83.2217V87.7036C95.6971 88.0663 95.9921 88.3604 96.3558 88.3604Z" fill="#333333"/>
<path d="M18.9949 55.5717C21.8944 55.5717 24.2348 53.2183 24.2348 50.3318C24.2348 47.4322 21.8814 45.0918 18.9949 45.0918C16.0953 45.0918 13.7549 47.4452 13.7549 50.3318C13.7549 53.2313 16.1083 55.5717 18.9949 55.5717Z" fill="#FFE366"/>
<path d="M18.995 57.5223C15.0293 57.5223 11.8047 54.2977 11.8047 50.3319C11.8047 46.3662 15.0293 43.1416 18.995 43.1416C22.9608 43.1416 26.1854 46.3662 26.1854 50.3319C26.1854 54.2977 22.9608 57.5223 18.995 57.5223ZM18.995 47.0293C17.1747 47.0293 15.7054 48.5116 15.7054 50.3189C15.7054 52.1263 17.1877 53.6085 18.995 53.6085C20.8024 53.6085 22.2846 52.1263 22.2846 50.3189C22.2846 48.5116 20.8024 47.0293 18.995 47.0293Z" fill="#333333"/>
<path d="M99.4275 90.0404C102.005 90.0404 104.085 87.955 104.085 85.3972C104.085 82.8278 101.993 80.7539 99.4275 80.7539C96.8506 80.7539 94.7705 82.8393 94.7705 85.3972C94.7705 87.9665 96.8621 90.0404 99.4275 90.0404Z" fill="#FFE366"/>
<path d="M99.748 92.9217C95.7822 92.9217 92.5576 89.6971 92.5576 85.7314C92.5576 81.7656 95.7822 78.541 99.748 78.541C103.714 78.541 106.938 81.7656 106.938 85.7314C106.938 89.6971 103.714 92.9217 99.748 92.9217ZM99.748 82.4287C97.9276 82.4287 96.4583 83.911 96.4583 85.7183C96.4583 87.5257 97.9406 89.008 99.748 89.008C101.555 89.008 103.038 87.5257 103.038 85.7183C103.038 83.911 101.555 82.4287 99.748 82.4287Z" fill="#333333"/>
<rect x="30.6094" y="48.6729" width="74.1157" height="4.42482" fill="#2175D6"/>
<rect x="16.2285" y="66.3721" width="88.4964" height="4.42482" fill="#2175D6"/>
<path d="M90.3447 86.2842L80.3447 80.5107L80.3447 92.0577L90.3447 86.2842ZM18.4414 87.2842L81.3447 87.2842L81.3447 85.2842L18.4414 85.2842L18.4414 87.2842Z" fill="#2175D6"/>
<rect x="16.1562" y="83.9219" width="66.7951" height="4.28173" fill="#2175D6"/>
</g>
<path d="M157.345 89.5688C157.345 85.8049 146.471 82.7549 133.055 82.7549C119.641 82.7549 108.767 85.8049 108.767 89.5688V132.243C108.767 136.007 119.641 139.057 133.055 139.057C146.471 139.057 157.345 136.007 157.345 132.243V89.5688Z" fill="#FFE366"/>
<path d="M133.061 140.812C120.51 140.812 107 138.133 107 132.243V89.5691C107 83.6835 120.51 81 133.061 81C145.61 81 159.12 83.6795 159.12 89.5691V132.243C159.12 138.129 145.61 140.812 133.061 140.812ZM133.061 84.5143C126.733 84.5143 120.802 85.2007 116.367 86.4449C111.529 87.8023 110.542 89.2571 110.542 89.5731V132.247C110.542 132.563 111.529 134.018 116.367 135.375C120.802 136.619 126.729 137.306 133.061 137.306C139.393 137.306 145.318 136.619 149.755 135.375C154.591 134.018 155.578 132.563 155.578 132.247V89.5731C155.578 89.2571 154.591 87.8023 149.755 86.4449C145.318 85.2007 139.393 84.5143 133.061 84.5143Z" fill="#333333"/>
<path d="M115.934 107.88C115.776 107.88 115.615 107.861 115.453 107.814C109.845 106.25 107 104.058 107 101.292C107 100.321 107.791 99.5371 108.771 99.5371C109.751 99.5371 110.542 100.321 110.542 101.292C110.542 101.608 111.537 103.075 116.414 104.432C117.354 104.693 117.905 105.665 117.637 106.597C117.417 107.369 116.708 107.876 115.934 107.876V107.88Z" fill="#333333"/>
<path d="M133.061 109.861C129.857 109.861 126.74 109.694 123.789 109.358C122.816 109.249 122.119 108.379 122.23 107.416C122.34 106.452 123.214 105.762 124.19 105.871C127.008 106.191 129.991 106.351 133.061 106.351C139.388 106.351 145.319 105.665 149.755 104.42C154.591 103.063 155.579 101.608 155.579 101.292C155.579 100.321 156.37 99.5371 157.35 99.5371C158.329 99.5371 159.121 100.321 159.121 101.292C159.121 107.178 145.611 109.861 133.061 109.861Z" fill="#333333"/>
<path d="M133.061 98.5715C120.51 98.5715 107 95.8919 107 90.0024C107 89.031 107.791 88.2471 108.771 88.2471C109.751 88.2471 110.542 89.031 110.542 90.0024C110.542 90.3183 111.529 91.773 116.367 93.1303C120.802 94.3746 126.729 95.061 133.061 95.061C139.393 95.061 145.318 94.3746 149.755 93.1303C154.591 91.773 155.578 90.3183 155.578 90.0024C155.578 89.031 156.37 88.2471 157.349 88.2471C158.329 88.2471 159.12 89.031 159.12 90.0024C159.12 95.888 145.61 98.5715 133.061 98.5715Z" fill="#333333"/>
<path d="M133.061 121.153C120.51 121.153 107 118.474 107 112.584C107 111.613 107.791 110.829 108.771 110.829C109.751 110.829 110.542 111.613 110.542 112.584C110.542 112.9 111.529 114.355 116.367 115.712C120.802 116.957 126.729 117.643 133.061 117.643C139.393 117.643 145.318 116.957 149.755 115.712C154.591 114.355 155.578 112.9 155.578 112.584C155.578 111.613 156.37 110.829 157.349 110.829C158.329 110.829 159.12 111.613 159.12 112.584C159.12 118.47 145.61 121.153 133.061 121.153Z" fill="#333333"/>
<path d="M133.061 132.449C120.51 132.449 107 129.77 107 123.88C107 122.909 107.791 122.125 108.771 122.125C109.751 122.125 110.542 122.909 110.542 123.88C110.542 124.196 111.529 125.651 116.367 127.008C120.802 128.252 126.729 128.939 133.061 128.939C139.393 128.939 145.318 128.252 149.755 127.008C154.591 125.651 155.578 124.196 155.578 123.88C155.578 122.909 156.37 122.125 157.349 122.125C158.329 122.125 159.12 122.909 159.12 123.88C159.12 129.766 145.61 132.449 133.061 132.449Z" fill="#333333"/>
<path d="M190.573 145.497C193.67 132.491 185.543 119.458 172.419 116.388C159.296 113.318 146.146 121.374 143.048 134.38C139.951 147.387 148.079 160.42 161.202 163.49C174.326 166.56 187.475 158.504 190.573 145.497Z" fill="#FFE366"/>
<path d="M166.814 165.899C152.375 165.899 140.627 154.257 140.627 139.946C140.627 125.636 152.375 113.993 166.814 113.993C181.253 113.993 193 125.636 193 139.946C193 154.257 181.253 165.899 166.814 165.899ZM166.814 117.5C154.327 117.5 144.169 127.567 144.169 139.942C144.169 152.318 154.327 162.385 166.814 162.385C179.301 162.385 189.458 152.318 189.458 139.942C189.458 127.567 179.301 117.5 166.814 117.5Z" fill="#333333"/>
<path d="M166.814 160.255C155.511 160.255 146.318 151.144 146.318 139.942C146.318 136.966 146.952 134.099 148.203 131.42C148.613 130.538 149.667 130.156 150.552 130.566C151.443 130.971 151.827 132.017 151.415 132.894C150.38 135.11 149.856 137.481 149.856 139.942C149.856 149.206 157.464 156.745 166.81 156.745C171.501 156.745 176.023 154.795 179.222 151.39C179.887 150.68 181.008 150.641 181.724 151.3C182.442 151.959 182.48 153.071 181.815 153.781C177.951 157.896 172.481 160.255 166.814 160.255Z" fill="#333333"/>
<path d="M184.735 147.088C184.567 147.088 184.394 147.064 184.221 147.013C183.284 146.733 182.757 145.754 183.04 144.825C183.52 143.25 183.764 141.611 183.764 139.946C183.764 130.683 176.157 123.143 166.811 123.143C162.363 123.143 158.156 124.84 154.972 127.917C154.273 128.596 153.15 128.58 152.47 127.886C151.784 127.192 151.801 126.08 152.502 125.405C156.349 121.684 161.434 119.633 166.811 119.633C178.113 119.633 187.306 128.744 187.306 139.946C187.306 141.955 187.011 143.936 186.429 145.843C186.195 146.6 185.496 147.092 184.731 147.092L184.735 147.088Z" fill="#333333"/>
<path d="M168.495 129.29L166.971 131.595C166.905 131.696 166.754 131.696 166.692 131.595L165.204 129.294C165.173 129.247 165.121 129.216 165.062 129.216H161.087C160.954 129.216 160.876 129.36 160.946 129.469L164.303 134.665C164.374 134.774 164.295 134.918 164.162 134.918H159.766C159.674 134.918 159.601 134.992 159.601 135.082V138.401C159.601 138.491 159.674 138.569 159.766 138.569H164.803C164.893 138.569 164.968 138.643 164.968 138.733V140.804C164.968 140.894 164.893 140.972 164.803 140.972H159.766C159.674 140.972 159.601 141.046 159.601 141.139V144.458C159.601 144.548 159.674 144.626 159.766 144.626H164.803C164.893 144.626 164.968 144.7 164.968 144.79V150.5C164.968 150.59 165.043 150.668 165.138 150.668H168.486C168.576 150.668 168.655 150.594 168.655 150.5V144.79C168.655 144.7 168.73 144.626 168.821 144.626H173.859C173.949 144.626 174.028 144.552 174.028 144.458V141.139C174.028 141.05 173.953 140.972 173.859 140.972H168.821C168.73 140.972 168.655 140.897 168.655 140.804V138.733C168.655 138.643 168.73 138.569 168.821 138.569H173.859C173.949 138.569 174.028 138.495 174.028 138.401V135.082C174.028 134.992 173.953 134.918 173.859 134.918H169.486C169.352 134.918 169.273 134.77 169.345 134.661L172.776 129.465C172.851 129.356 172.768 129.208 172.634 129.208H168.632C168.576 129.208 168.522 129.235 168.491 129.282L168.495 129.29Z" fill="#333333"/>
<defs>
<clipPath id="clip0_476_380">
<rect width="117.258" height="107.302" fill="white" transform="translate(0.742188)"/>
</clipPath>
</defs>
</svg>
