<svg width="225" height="308" viewBox="0 0 225 308" fill="none" xmlns="http://www.w3.org/2000/svg">
<g clip-path="url(#clip0_18_21147)">
<path d="M36.1907 132.825C39.3027 137.204 41.8415 141.736 44.3804 146.344C46.1821 148.649 45.9364 151.184 44.8717 153.718C44.3804 154.717 43.7252 155.639 42.9062 156.484C41.514 156.714 39.6303 156.868 38.9752 155.255C39.2208 151.952 40.7769 149.11 43.2338 146.805C42.1691 143.656 39.7941 140.967 38.1562 138.048C34.3889 140.276 30.4579 142.196 26.5268 144.194C26.6906 146.652 28.6561 148.418 29.1475 150.953C30.2122 152.105 29.7208 153.795 30.7855 154.947C29.8846 158.174 29.557 161.707 26.6906 164.011C25.2165 164.626 23.988 163.704 23.5785 162.475C22.9233 159.172 24.9708 155.946 27.8372 154.333L28.9837 154.179C29.1475 152.566 28.001 151.107 27.5096 149.57C25.6259 146.498 24.7251 142.965 23.7423 139.738C27.7553 137.127 31.6044 134.131 36.1907 132.825Z" fill="black"/>
<path d="M36.5183 137.434C32.9967 138.97 29.8846 141.736 26.0355 142.657C24.7251 141.351 25.5441 139.662 27.0182 138.97C29.7208 136.973 32.6691 135.514 35.5355 134.054C35.945 135.13 38.1562 136.589 36.5183 137.434Z" fill="#FDD000"/>
<path d="M43.2337 154.64C42.8243 155.485 41.7596 156.023 40.7768 155.562C39.9579 155.024 40.2855 153.795 40.4492 153.104C41.3501 151.645 41.7596 148.956 43.8889 149.11C44.2984 148.879 44.2165 148.495 44.2165 148.188C45.3631 150.185 44.2984 152.797 43.2337 154.64Z" fill="#FDD000"/>
<path d="M92.5359 156.483C93.0273 156.868 92.9454 157.482 93.3548 157.866C95.8118 156.33 98.3506 155.024 101.217 154.333C107.359 153.795 114.075 153.949 117.596 158.941C116.941 160.017 115.549 159.402 114.648 160.017C112.355 160.939 110.062 162.629 109.243 164.933C113.338 166.93 118.088 167.929 121.2 172C126.687 176.993 128.652 183.291 130.208 189.82C131.437 190.973 133.484 191.126 134.467 192.739C137.252 197.041 136.269 202.571 134.14 206.873C132.338 209.561 130.045 212.711 127.096 214.401C125.458 220.776 121.2 226.844 115.795 231.146C117.105 232.759 118.907 234.526 120.053 236.216L121.691 238.213C122.838 236.984 121.855 234.679 123.984 234.065C125.131 233.604 126.359 233.527 126.933 234.833C128.243 233.45 129.553 231.607 130.7 229.917C129.635 225.385 132.01 221.467 135.941 219.163C136.76 218.472 138.071 218.702 139.053 218.856C139.299 219.086 139.709 218.933 139.872 219.317C142.739 214.631 144.295 209.331 147.079 204.722C147.898 203.34 149.618 204.031 150.683 203.186C151.665 201.726 152.239 198.654 154.778 199.192C156.989 199.576 159.2 200.19 160.51 202.264C160.838 204.415 158.299 206.719 160.838 208.409C161.821 213.095 158.053 216.782 157.071 221.16C155.433 224.924 154.696 229.226 151.338 232.221C149.29 232.145 149.946 234.449 148.881 235.447C146.997 237.752 144.213 240.594 141.019 240.517C139.954 241.516 139.053 239.903 137.907 240.671C135.286 244.127 132.911 247.814 129.553 250.81C129.144 252.193 129.471 254.036 127.752 254.651C127.178 254.728 126.687 254.574 126.277 254.19C125.786 254.881 125.131 255.649 124.148 256.033L122.183 255.573C122.264 258.876 123.329 261.641 123.165 265.251C124.967 265.174 126.441 263.254 128.407 263.1C130.536 262.639 132.993 262.025 135.122 262.486C136.76 263.945 136.105 266.25 136.924 268.016L137.088 272.779L133.321 274.161C136.105 280.921 136.023 289.524 132.174 295.823C130.946 296.821 129.553 295.823 128.243 295.669C124.066 292.904 123.575 288.141 123.329 283.533C121.609 283.148 120.381 284.685 118.743 284.915C116.04 285.607 113.501 286.682 110.553 286.759C109.325 287.296 108.014 287.604 106.622 287.68C101.545 288.602 95.3204 289.294 90.079 287.68C86.885 285.53 87.7039 281.459 85.8203 278.617C84.0186 280.383 80.7427 279.846 78.4496 279.077C78.6953 283.763 78.3677 288.525 80.2513 292.75C80.1694 295.515 83.3634 299.433 80.0875 302.121C76.1565 302.429 72.4711 304.349 68.622 304.119C67.6392 303.734 68.5401 301.891 67.1478 301.968C63.79 304.81 59.2857 306.192 54.8633 306.423C54.3719 306.961 53.2253 306.577 52.8977 307.191C49.2943 307.575 45.4451 306.961 43.3977 304.119C43.0701 303.12 43.152 302.275 43.8891 301.507C47.7382 298.818 51.6693 296.207 56.3374 295.362L56.9926 294.747C52.7339 289.908 50.5227 284.224 49.4581 278.156L48.4753 275.083C46.346 274.699 43.7253 275.006 42.4149 273.393C44.0529 266.71 43.8072 259.951 45.6908 253.422C44.8718 253.345 44.0529 254.113 43.2339 254.497C39.3847 253.806 40.4494 258.338 37.1735 258.952C36.1907 259.413 34.7985 258.952 34.5528 257.877C34.7166 257.339 34.3071 256.955 34.2252 256.494C33.57 257.186 32.9149 258.415 31.6045 258.338C30.1304 257.186 30.3761 255.188 30.1304 253.422C31.9321 250.426 27.8373 250.119 26.5269 248.659C23.4967 246.893 22.5958 243.59 19.4838 241.746C16.6174 243.59 13.2596 241.9 10.4751 240.671C8.50957 238.981 6.62594 236.6 7.19921 233.911C7.11732 233.143 8.75526 232.221 7.6906 231.3C8.50957 229.994 8.01818 228.15 9.32854 226.998C9.00095 225.923 9.08285 224.694 9.98371 223.925C8.01818 223.004 5.56127 221.928 4.7423 219.778C4.41472 218.625 5.23369 217.934 5.88886 217.166C10.9665 216.244 14.9794 219.624 19.1562 221.621C19.32 220.623 19.9751 219.701 20.9579 219.163C22.2683 218.549 23.4967 219.547 24.3976 220.085C26.9364 222.543 25.7079 226.153 26.0355 229.302C29.3114 231.76 32.9968 233.911 35.8632 236.676C36.5183 235.447 36.9278 233.527 38.9752 233.758C40.0399 236.907 41.9235 232.068 43.2339 234.987C43.3158 235.832 43.3158 237.291 43.5615 238.059C45.2813 236.062 47.9839 235.447 49.9494 233.604L49.7856 232.989C38.402 224.847 36.764 211.174 39.139 198.27C41.514 191.433 43.3977 184.443 48.6391 178.759C54.3719 172.153 61.0874 164.779 69.9323 162.629L75.6651 161.4C74.3547 157.866 70.5875 155.178 67.6392 153.104C72.7168 151.26 78.941 150.876 84.6738 151.414C87.704 152.105 91.3074 153.334 92.5359 156.483Z" fill="black"/>
<path d="M91.2255 156.637C91.4712 157.482 92.5358 158.25 91.8806 159.249C90.2427 159.786 90.816 161.399 89.7513 162.321C89.997 162.552 89.9151 163.089 90.4065 163.089C91.635 162.859 91.1436 161.399 92.0444 160.785C96.3031 156.483 102.282 154.87 108.915 155.254C111.454 155.562 113.583 156.944 115.631 158.327C112.027 159.402 107.932 162.398 107.277 166.316C107.113 166.7 107.523 166.853 107.605 167.084C107.932 167.16 108.096 166.93 108.26 166.776C108.178 166.93 108.342 167.007 108.424 167.084C109.243 167.237 109.407 166.162 110.226 166.776C120.545 169.695 127.752 179.988 128.898 189.513C125.54 189.82 122.101 191.203 119.726 193.815C111.864 193.968 106.54 194.736 98.9238 194.89C95.4841 188.438 85.4927 191.126 79.4323 191.357C77.303 191.971 75.0918 193.277 74.8461 195.658L75.0099 195.812L70.4236 196.273C69.6047 194.429 68.4581 191.971 66.0012 191.203C62.6434 189.744 58.3848 190.819 55.027 190.281C52.0787 190.589 47.2468 190.435 45.527 193.968C45.2813 194.276 45.3632 194.813 45.1994 195.197L41.2683 195.505C43.3976 191.357 43.5614 186.517 47.0011 182.907C51.7511 176.839 57.2382 170.31 64.0357 166.316C67.9667 164.318 72.3892 163.243 76.8116 162.475L77.303 162.014C75.7469 158.941 73.6995 155.331 70.096 153.718C70.2598 153.027 71.4064 153.18 72.0616 152.95C78.6952 152.796 87.2125 150.569 91.2255 156.637Z" fill="#FFE3CA"/>
<path d="M29.1476 155.102C29.8028 158.251 28.2468 161.247 26.0356 163.244C25.2166 163.397 24.9709 162.476 24.7252 162.015C24.3157 158.942 26.2812 156.177 29.1476 155.102Z" fill="#FDD000"/>
<path d="M88.7685 178.452C89.9151 179.681 90.5703 181.141 90.7341 182.754C90.2427 182.754 89.9151 183.906 89.4237 183.061C89.5875 181.217 88.6866 179.835 87.2944 178.606C86.3935 178.298 85.5746 178.298 84.6737 178.606C82.9538 180.065 81.8892 181.832 81.0702 183.675C80.6607 183.829 80.6607 183.368 80.415 183.214C81.0702 180.91 82.7082 178.298 85.1651 177.377C86.5573 177.3 87.8677 177.377 88.7685 178.452Z" fill="black"/>
<path d="M66.6565 183.061C66.7384 183.522 66.5746 183.829 66.1651 184.136C65.0185 184.059 65.6737 182.677 65.0185 182.139C64.609 181.064 63.9539 180.065 62.8892 179.22C61.1694 179.066 60.0228 180.526 58.9582 181.678C58.1392 182.446 58.7125 184.674 57.1564 184.29C56.9107 182.062 58.5487 179.988 60.5961 178.606C61.4151 178.298 62.4797 177.914 63.3806 178.298C65.1823 179.374 65.7556 181.371 66.6565 183.061Z" fill="black"/>
<path d="M133.976 194.122C136.023 199.653 134.877 206.028 130.536 210.407C128.325 212.788 125.622 215.169 122.019 214.401C120.872 214.478 119.808 212.25 118.907 213.94C119.398 215.015 120.872 215.246 121.855 215.783C123.247 215.783 124.639 215.86 125.786 215.323C125.377 215.86 125.049 216.782 124.967 217.627C120.545 228.534 108.915 236.907 96.4669 237.598C96.0574 236.293 96.2212 234.603 94.6651 233.911C90.1608 233.22 85.8203 234.756 82.053 236.677C80.6607 237.061 79.1866 239.826 77.9581 237.906C75.1736 237.061 71.6521 236.216 68.7857 237.445C65.8374 235.064 62.4796 232.529 58.3029 232.99C57.1563 233.374 57.2382 235.448 55.846 234.68C47.2468 231.377 41.0226 223.004 39.7942 214.554C39.3847 209.178 39.7123 203.032 40.7769 197.656C41.9235 198.193 43.9709 197.963 45.3631 197.809C46.1002 200.574 46.1002 204.031 49.1304 205.491C53.3072 206.873 58.7943 208.102 63.2167 206.259C65.4279 206.182 67.3115 205.491 68.7857 203.801C70.0141 202.188 70.0141 200.651 70.4236 198.731C71.6521 198.27 73.29 198.577 74.8461 198.27C75.5012 200.805 74.6004 204.262 77.9581 205.337C83.609 208.333 91.6349 207.795 97.122 204.876C99.3333 202.956 99.0057 199.96 99.2514 197.502C105.885 197.425 111.618 195.889 118.415 195.812C118.497 196.657 118.088 198.27 119.398 198.731C120.463 198.577 119.562 196.887 120.053 196.119C121.2 192.97 124.967 191.818 127.915 190.896C130.372 190.896 132.747 192.202 133.976 194.122Z" fill="#FFE3CA"/>
<path d="M67.8029 195.659C68.5399 197.886 69.277 200.575 67.8029 202.725C65.7554 205.568 61.9882 204.799 59.1218 205.798C55.0269 205.337 50.2769 205.952 47.6562 202.265C47.0829 200.037 46.6735 197.886 47.3286 195.505C49.6217 191.818 54.6175 193.662 58.3028 192.74C61.4149 193.431 66.2468 191.818 67.8029 195.659Z" fill="white"/>
<path d="M96.4669 195.044C98.1868 197.195 98.4325 200.114 97.2859 202.572C93.8462 206.412 87.704 206.105 82.872 205.798C80.497 205.183 77.7944 204.338 76.4841 202.264C76.566 200.805 75.5013 198.424 76.9755 197.348C76.7298 196.427 77.2211 195.351 77.9582 194.737C82.872 193.124 88.1953 192.663 93.5186 193.354C94.6652 193.661 95.8937 193.892 96.4669 195.044Z" fill="white"/>
<path d="M62.5615 198.116C62.7252 198.423 62.889 198.731 63.0528 199.038C62.7252 199.115 62.4796 199.422 62.2339 199.652C61.333 199.038 61.4149 197.732 60.2683 197.041C58.7942 196.81 57.8114 197.886 56.9925 198.884C56.7468 199.345 56.9106 200.113 56.1735 200.267C55.2726 199.192 56.5011 198.116 56.9925 197.194C57.8114 196.503 58.6304 195.965 59.777 195.965C61.0054 195.812 61.9063 197.194 62.5615 198.116Z" fill="black"/>
<path d="M88.9324 197.502C89.0962 198.347 89.9152 198.885 89.9152 199.807L89.0962 200.268C88.441 199.115 88.3591 197.349 86.6393 197.041C85.3289 197.656 84.0186 198.654 83.8548 200.114L83.0358 200.268C82.872 199.423 83.1996 198.347 84.0186 197.656C85.247 196.12 87.8677 195.428 88.9324 197.502Z" fill="black"/>
<path d="M129.226 198.27C129.881 202.418 127.26 206.335 123.984 209.024C123.82 209.024 123.575 209.024 123.493 208.87C123.739 207.641 125.458 206.95 126.114 205.798C127.26 203.34 129.963 199.883 127.26 197.502C125.704 197.118 124.967 198.731 123.82 199.345C122.92 200.19 122.92 201.496 122.51 202.572C122.101 202.648 121.773 202.418 121.691 202.111C121.773 199.269 124.066 197.271 126.605 196.427C127.752 196.35 128.816 197.348 129.226 198.27Z" fill="black"/>
<path d="M159.364 202.725C159.2 203.724 159.2 205.567 158.054 205.491C156.252 204.262 154.204 203.801 152.157 203.186C152.894 202.264 152.566 200.728 154.123 200.421C156.17 200.498 158.217 201.266 159.364 202.725Z" fill="#BBBCBC"/>
<path d="M159.855 209.946C159.118 214.324 156.497 218.011 155.597 222.389C154.041 225.155 153.713 228.381 151.502 230.839L150.519 231.146C146.424 231.837 142.329 230.301 139.381 227.766C139.217 225.385 142.329 223.695 141.183 221.007C141.101 218.549 143.148 216.552 143.803 214.247C145.032 211.328 146.506 208.409 148.062 205.644C151.42 203.186 155.269 205.49 158.381 207.18C158.873 208.102 159.855 208.793 159.855 209.946Z" fill="#BBBCBC"/>
<path d="M79.596 209.793C84.0185 210.791 87.7857 213.403 91.3892 216.245C91.1435 216.629 91.3073 217.167 90.734 217.474C88.6047 215.554 86.5573 213.864 84.0185 212.711C82.8719 212.02 81.7253 211.482 80.415 211.175C81.1521 213.633 78.7771 215.554 76.9753 217.013C74.6003 218.012 72.1434 219.471 69.277 218.857C66.9839 217.704 64.0356 216.014 63.2166 213.48L63.0528 211.482C60.5959 212.788 58.139 213.019 56.1735 215.477C55.9278 215.323 55.5183 215.4 55.5183 215.016C55.8459 213.787 57.2381 213.172 58.139 212.404C61.0054 210.791 64.7727 210.253 67.1477 207.488C71.3244 205.875 76.402 206.874 79.596 209.793Z" fill="black"/>
<path d="M79.1048 211.482C79.5143 213.402 78.0401 215.092 76.3203 216.244L70.5875 217.934C68.8677 217.32 67.2297 216.782 65.8375 215.476C65.0185 214.401 63.9539 213.325 64.5271 211.943C65.6737 211.175 65.7556 209.562 67.1478 209.024C70.997 206.643 76.4841 207.948 79.1048 211.482Z" fill="#FFE3CA"/>
<path d="M16.3717 221.16C17.4363 222.005 18.6648 222.466 19.8114 223.157C20.4665 222.236 20.3027 220.546 21.9407 219.931C22.8415 220.315 23.8243 220.853 24.3976 221.775C24.9709 224.463 24.7252 227.229 24.5614 229.763C28.083 232.221 32.014 234.603 35.208 237.906C33.4063 241.593 32.0959 245.433 30.7856 249.274C29.639 249.658 28.3286 247.891 27.0183 247.43C24.4795 245.433 22.5959 242.591 19.8114 240.364C18.2553 240.748 16.8631 241.746 15.0613 241.132C15.0613 239.903 16.6993 238.059 15.3889 236.523C15.307 235.832 16.2898 235.908 16.3717 235.294C17.7639 233.681 15.0613 231.453 18.1734 230.839C19.2381 229.994 18.9105 228.765 18.501 227.766C15.6346 222.85 9.16475 224.156 6.05267 219.778C5.56128 218.933 6.21646 218.472 6.87164 218.088C8.67337 217.55 10.2294 218.702 11.7855 219.163L16.3717 221.16Z" fill="#FFE3CA"/>
<path d="M62.8891 220.085C62.2339 221.007 62.152 222.159 61.7426 223.158H60.9236C61.1693 221.852 61.5788 220.162 62.3977 218.856C63.1348 218.779 63.1348 219.701 62.8891 220.085Z" fill="black"/>
<path d="M64.0357 223.157H63.3805C63.2167 221.698 64.1995 220.315 65.0184 219.009C66.6564 219.931 64.1176 221.698 64.0357 223.157Z" fill="black"/>
<path d="M59.9408 219.931C59.0399 221.16 59.1218 223.003 58.3028 223.925H57.9752C57.7295 222.158 58.2209 220.391 59.4494 219.47L59.9408 219.931Z" fill="black"/>
<path d="M56.9926 221.16C56.4193 222.389 56.9107 224.233 55.3547 224.847C55.109 223.081 55.846 221.314 56.5012 219.778C57.484 219.701 57.0745 220.699 56.9926 221.16Z" fill="black"/>
<path d="M80.5789 220.853C80.497 221.774 81.3978 222.927 81.0703 223.925C79.8418 223.464 80.0875 221.851 79.5961 220.853C78.9409 219.547 80.9065 219.931 80.5789 220.853Z" fill="black"/>
<path d="M139.217 220.392C139.053 221.007 139.463 221.544 140.036 221.775C140.364 223.849 138.808 225.385 137.415 226.537C137.17 228.611 139.708 229.533 141.183 230.685C143.394 231.991 146.342 232.605 148.717 232.529C147.898 235.294 145.441 237.982 142.493 238.981C141.019 239.98 138.971 239.058 137.579 238.981C135.04 242.13 132.747 245.741 129.881 248.506C128.898 244.512 128.57 240.21 127.588 236.216C129.717 234.526 130.29 231.991 132.174 230.071C130.782 227.229 132.501 224.54 133.976 222.236C135.532 220.853 137.17 219.24 139.217 220.392Z" fill="#FFE3CA"/>
<path d="M83.1996 220.546C83.691 221.852 84.3462 223.004 85.0013 224.233C84.7557 224.463 84.3462 224.924 84.0186 224.54C83.5272 223.157 82.3806 221.852 82.5444 220.392L83.1996 220.546Z" fill="black"/>
<path d="M78.9409 224.079C78.6952 224.002 78.6133 224.309 78.4495 224.386C77.7125 223.388 77.7944 222.005 77.303 220.853C77.4668 220.469 78.04 220.469 78.2857 220.699L78.9409 224.079Z" fill="black"/>
<path d="M86.148 221.007C86.148 222.467 87.5403 224.08 86.4756 225.309C85.5748 224.08 85.5748 222.467 85.1653 221.007C85.5748 220.777 85.7386 220.777 86.148 221.007Z" fill="black"/>
<path d="M90.2426 224.233L90.0788 225.308C89.915 225.232 89.8331 225.385 89.7512 225.462C89.096 224.387 88.4409 223.311 88.1133 222.082C89.5874 221.391 89.6693 223.465 90.2426 224.233Z" fill="black"/>
<path d="M17.8458 228.996C18.0915 229.994 16.9449 230.609 16.2078 230.993C14.3242 231.146 12.5225 229.61 11.294 228.074C10.8026 227.229 10.2293 226.23 10.475 225.309C11.2121 223.312 13.1776 225.385 14.4061 225.616C15.7983 226.538 17.1087 227.536 17.8458 228.996Z" fill="#FFE3CA"/>
<path d="M65.8375 225.616C70.0961 227.459 74.2729 226.691 78.941 226.23C80.3333 225.846 82.0531 225.155 83.1996 225.616C80.7427 228.919 79.9238 233.374 75.5013 235.448C69.6866 235.986 66.6565 230.378 64.1996 226.384C64.1996 225.846 63.9539 225.385 64.0358 224.848C64.9366 224.233 65.1004 225.385 65.8375 225.616Z" fill="black"/>
<path d="M81.0702 226.999C79.1865 229.38 78.6133 232.452 75.5012 234.219C71.1606 234.603 68.0485 230.455 66.1649 227.306C68.5399 227.613 71.3244 228.151 73.8632 227.92C76.0745 227.613 78.6952 227.306 81.0702 226.999Z" fill="#B44E26"/>
<path d="M14.7336 231.914C15.3069 232.605 15.7983 233.527 15.5526 234.372C14.7336 235.524 13.2595 235.447 12.1129 235.294C10.1474 234.833 9.32844 232.836 9.00085 231.146L9.81983 228.534C11.1302 229.763 12.85 231.453 14.7336 231.914Z" fill="#FFE3CA"/>
<path d="M122.018 241.132C124.394 240.057 122.182 237.138 123.984 235.601C124.394 235.217 124.721 234.833 125.294 234.987C127.26 240.594 129.144 247.123 127.587 253.115C127.669 253.269 127.506 253.345 127.424 253.422C126.359 253.269 125.786 251.195 124.803 252.654C124.967 253.576 124.557 254.19 123.984 254.805C123.083 254.805 122.264 254.19 122.018 253.422C121.281 250.657 117.187 252.116 115.958 249.121C113.419 244.589 110.717 239.749 111.372 234.372L114.648 232.222C117.596 234.449 120.053 237.983 122.018 241.132Z" fill="white"/>
<path d="M14.5699 237.445C14.6518 238.444 14.488 239.289 14.0785 240.057C13.1776 240.057 12.1949 240.748 11.4578 240.057C9.73795 238.444 7.69053 236.293 8.5095 233.912C9.65606 236.446 12.9319 236.139 14.5699 237.445Z" fill="#FFE3CA"/>
<path d="M67.803 238.52C66.7384 240.978 66.4927 243.897 66.6565 246.662C64.1996 247.584 61.1694 248.736 58.6306 248.045C56.9107 246.509 57.1564 244.204 57.1564 242.054C57.1564 239.519 57.6478 236.83 58.7944 234.526C62.0702 233.835 64.8547 235.985 67.3116 238.059C67.4754 238.29 67.803 238.367 67.803 238.52Z" fill="#B44E26"/>
<path d="M55.1909 235.908C54.9452 236.292 54.6176 236.907 54.0443 237.291C51.4236 241.669 48.2296 246.125 46.346 250.964C44.2986 251.809 42.6606 254.344 39.7942 253.575C38.6477 253.959 39.958 254.728 39.3028 255.265C38.9753 256.725 37.3373 257.646 35.8632 257.877C35.0442 256.648 36.4364 254.881 35.0442 254.036C33.5701 254.728 33.5701 256.725 31.9321 257.109C30.1304 249.197 35.208 242.053 38.1563 234.987C38.402 234.603 38.9753 234.987 38.9753 235.294C38.9753 235.985 38.8934 236.907 39.7942 237.137C40.6132 236.83 41.1865 235.524 42.0873 235.447C41.9235 236.984 42.4968 238.597 41.596 240.056C41.596 240.671 42.4149 241.055 42.9063 240.671C45.0356 238.059 48.4753 236.446 51.2598 234.372C52.5702 234.833 53.9624 235.217 55.1909 235.908Z" fill="white"/>
<path d="M94.829 235.908C95.5661 239.134 95.648 242.668 94.1738 245.587C90.7342 248.275 86.066 247.661 82.0531 246.662C77.4668 246.509 80.5789 242.437 79.4324 240.056C83.0358 237.445 87.1307 235.755 91.5531 234.987C92.6997 235.14 94.1738 234.449 94.829 235.908Z" fill="#B44E26"/>
<path d="M117.105 252.193C118.415 252.577 120.299 252.5 120.708 254.037C120.708 258.338 122.756 262.256 121.527 266.634C118.825 268.708 114.976 268.862 111.7 270.014C98.6781 272.395 84.9194 273.163 71.0788 272.318C70.1779 271.012 69.7684 269.476 68.4581 268.477C66.6563 270.167 66.165 272.395 64.1994 274.008C57.8115 274.776 50.6045 274.622 44.3804 273.547C43.6433 273.24 44.1347 272.779 44.2166 272.318C44.5442 264.637 45.9364 257.34 47.9838 250.35C49.9494 245.818 52.9795 241.209 56.1735 237.138C56.1735 241.286 54.208 247.584 59.1218 249.581C61.0054 249.351 62.8072 249.274 64.6908 248.66C64.1994 253.038 64.1175 257.724 65.346 262.025C66.0012 262.486 66.4106 263.561 67.3115 262.793C70.5874 258.492 72.9624 253.652 76.8116 249.735C76.8935 248.66 78.6952 247.968 78.9409 246.97C84.0185 248.66 90.9797 250.503 95.3203 246.509C96.7944 244.281 96.5487 241.977 96.7944 239.288C97.2858 238.674 98.3505 239.212 98.9237 238.828C102.609 237.906 106.213 237.061 109.57 235.448C110.307 241.439 112.109 247.738 117.105 252.193Z" fill="#608FD8"/>
<path d="M77.6305 239.288C78.04 239.98 76.8935 240.133 77.303 240.824C79.0228 241.285 78.1219 243.974 78.1219 245.126C77.4667 245.51 78.04 246.432 77.6305 246.97C76.3202 248.736 73.9452 248.583 71.8977 248.967C70.5055 248.429 68.4581 248.275 68.1305 246.662C68.1305 243.743 67.8029 240.056 70.2598 238.213C72.9624 238.059 75.5012 238.29 77.6305 239.288Z" fill="#B44E26"/>
<path d="M38.8114 245.894C38.6476 247.431 38.6476 249.581 37.501 250.657C36.4364 248.66 38.0743 246.586 37.9924 244.358C38.4019 243.59 38.4838 242.745 39.139 242.054C40.6131 243.052 38.8933 244.589 38.8114 245.894Z" fill="black"/>
<path d="M124.64 247.123C124.476 247.43 123.984 246.816 123.984 247.43L123.821 247.584C122.838 246.585 123.657 244.742 123.166 243.436C123.329 242.975 123.821 242.975 124.148 243.282L124.64 247.123Z" fill="black"/>
<path d="M67.3116 248.352C69.1952 249.812 71.8978 250.734 74.5185 249.889C71.8978 253.729 69.2771 257.57 66.6564 261.411C65.5099 257.57 65.3461 253.115 66.1651 248.967C66.4107 248.583 67.0659 247.123 67.3116 248.352Z" fill="white"/>
<path d="M69.9322 252.5C69.6046 252.577 69.3589 252.961 68.9495 252.808C68.3762 252.577 68.6219 251.886 68.7857 251.578C69.4408 250.349 70.6693 251.732 69.9322 252.5Z" fill="black"/>
<path d="M69.1133 255.112C69.1133 255.419 69.1952 255.803 68.7857 256.034H67.803C67.4754 255.496 67.6392 254.574 68.2943 254.497C68.54 254.728 69.1133 254.651 69.1133 255.112Z" fill="black"/>
<path d="M135.286 265.405C135.695 267.479 135.859 269.783 135.777 271.857C134.549 272.548 132.993 272.318 131.846 273.24C134.303 278.924 134.958 286.989 132.502 292.904C131.601 293.518 132.01 295.899 130.208 295.054C125.131 293.134 124.639 287.373 124.639 282.764H124.803C125.131 277.541 127.096 271.319 124.967 266.326C126.769 264.483 129.308 264.329 131.519 263.407C133.075 263.254 135.368 263.331 135.286 265.405Z" fill="#231815"/>
<path d="M123.002 281.996C115.303 285.607 106.295 287.297 97.4497 287.373C94.6652 287.373 91.3894 287.757 89.4238 285.223L87.1307 277.388C85.5747 275.928 85.0014 278.694 83.3635 278.463C81.3979 278.617 79.8419 278.002 78.122 277.541C77.8764 277.849 77.3031 278.002 77.4669 278.463L77.6307 278.617L77.1393 279.078C77.1393 283.84 77.6307 288.449 78.6134 292.904C72.9625 295.285 66.247 295.439 59.7771 294.594C57.8116 294.056 56.4193 291.905 55.3547 290.292C52.6521 285.76 51.0141 280.767 50.1133 275.544C55.109 275.775 60.1866 275.851 65.1823 274.93C66.9022 273.777 66.9022 271.857 68.4582 270.628C69.9323 271.319 69.2772 273.24 71.0789 273.854C78.5315 274.469 86.2298 273.393 93.6825 273.547C97.5316 272.856 101.79 273.086 105.476 272.164C111.7 271.396 118.252 270.167 123.493 267.095C125.049 271.396 124.148 277.388 123.002 281.996Z" fill="#175296"/>
<path d="M118.088 277.695L117.76 278.002L117.924 278.156C113.338 279.154 109.243 280.383 104.657 281.382C103.019 281.843 100.807 281.843 99.2514 281.075C98.8419 281.151 98.5143 281.612 98.1048 281.228C99.0057 280.076 96.385 277.925 98.4324 277.695C99.2514 278.54 98.6781 280.153 100.234 280.46C106.622 280.767 112.191 277.925 118.088 277.234V277.695Z" fill="black"/>
<path d="M60.4321 279.846C59.2037 282.764 61.333 285.146 61.0873 288.141C61.7425 288.372 61.1692 289.14 61.5787 289.524C62.152 290.292 62.3977 291.214 62.7252 292.136L62.0701 292.597C61.0873 291.368 60.9235 289.755 60.1045 288.449C60.1045 284.531 57.9752 282.688 59.777 278.924C60.2683 279.001 60.9235 279.308 60.4321 279.846Z" fill="black"/>
<path d="M80.0876 297.667C79.8419 298.896 80.6609 299.971 79.4324 300.893C75.9928 301.2 72.9626 302.659 69.441 302.89C68.4582 301.968 70.0962 300.432 68.622 299.817C63.7901 304.273 57.2383 305.502 50.6047 306.116C48.2297 306.116 45.9366 305.117 44.5443 303.504C44.5443 302.352 45.6909 301.891 46.5098 301.2C49.8676 298.512 54.0444 297.129 57.8116 295.823C57.7297 296.13 57.9754 296.284 58.1392 296.438C58.5487 296.514 59.0401 296.438 59.122 295.977C64.0358 296.591 69.7686 296.207 74.191 295.669C75.5833 295.055 77.385 295.055 78.7773 294.44C79.6781 295.285 79.6781 296.591 80.0876 297.667Z" fill="#231815"/>
<path d="M90.7424 250.818C90.3575 250.818 90.0381 251.118 90.0381 251.479V262.878C90.0381 263.247 90.3247 263.669 90.6769 263.83L98.1377 267.233C98.4899 267.395 99.0549 267.395 99.4071 267.233L106.983 263.823C107.335 263.661 107.621 263.239 107.621 262.87V251.471C107.621 251.11 107.302 250.811 106.917 250.811H90.7506L90.7424 250.818ZM94.2803 263.585C93.0765 263.585 92.1019 262.671 92.1019 261.541C92.1019 260.412 93.0765 259.498 94.2803 259.498C95.4842 259.498 96.4588 260.412 96.4588 261.541C96.4588 262.671 95.4842 263.585 94.2803 263.585ZM103.395 263.585C102.192 263.585 101.217 262.671 101.217 261.541C101.217 260.412 102.192 259.498 103.395 259.498C104.599 259.498 105.574 260.412 105.574 261.541C105.574 262.671 104.599 263.585 103.395 263.585ZM104.919 255.389V258.231H100.365V265.705H97.1713V258.177H92.2493L92.1838 255.15H97.1713V251.986H100.365V255.204H102.413C101.938 254.828 101.635 254.267 101.635 253.637C101.635 252.508 102.609 251.594 103.813 251.594C105.017 251.594 105.992 252.508 105.992 253.637C105.992 254.382 105.566 255.035 104.927 255.389H104.919Z" fill="white"/>
<path d="M103.797 252.761C103.289 252.761 102.871 253.153 102.871 253.63C102.871 254.106 103.281 254.498 103.797 254.498C104.313 254.498 104.722 254.106 104.722 253.63C104.722 253.153 104.305 252.761 103.797 252.761Z" fill="white"/>
<path fill-rule="evenodd" clip-rule="evenodd" d="M112.5 127.657C50.368 127.657 0 99.0798 0 63.8284C0 28.5769 50.368 0 112.5 0C174.632 0 225 28.5769 225 63.8284C225 94.0798 187.907 119.416 138.118 125.994L123.116 144.152L117.267 127.6C115.686 127.638 114.097 127.657 112.5 127.657Z" fill="#FEE880"/>
<path d="M159.662 86.5356L159.248 79.9116L159.176 77.5356H161.606L161.534 79.9116L161.12 86.5356H159.662ZM160.4 91.1256C159.626 91.1256 159.05 90.5856 159.05 89.7756C159.05 88.9476 159.644 88.3896 160.4 88.3896C161.138 88.3896 161.732 88.9476 161.732 89.7756C161.732 90.5856 161.138 91.1256 160.4 91.1256Z" fill="#333333"/>
<path d="M140.708 76.9957C140.582 77.4277 140.42 78.1657 140.348 78.5437C140.096 79.8037 139.682 81.9097 139.196 83.7277C138.548 86.2657 137.342 89.9737 136.37 92.0077L134.39 91.3417C135.47 89.5057 136.784 85.7977 137.45 83.2597C137.9 81.5857 138.35 79.4617 138.476 78.4537C138.548 77.8777 138.584 77.2117 138.53 76.8157L140.708 76.9957ZM136.46 79.8577C138.53 79.8577 141.122 79.5337 143.408 78.9757V80.7577C141.176 81.2617 138.404 81.5677 136.424 81.5677C135.596 81.5677 134.948 81.5317 134.3 81.4957L134.246 79.7317C135.128 79.8397 135.758 79.8577 136.46 79.8577ZM142.13 82.4677C143.102 82.3597 144.326 82.2877 145.496 82.2877C146.54 82.2877 147.62 82.3417 148.628 82.4497L148.592 84.1597C147.674 84.0517 146.594 83.9437 145.532 83.9437C144.344 83.9437 143.246 83.9977 142.13 84.1417V82.4677ZM142.76 86.8957C142.616 87.4537 142.508 88.0297 142.508 88.4617C142.508 89.2897 143.012 90.0097 145.298 90.0097C146.486 90.0097 147.728 89.8837 148.916 89.6497L148.844 91.4677C147.854 91.6117 146.648 91.7377 145.28 91.7377C142.364 91.7377 140.78 90.7837 140.78 88.9837C140.78 88.2277 140.906 87.4717 141.068 86.7337L142.76 86.8957ZM146.684 77.5357C147.152 78.1837 147.8 79.2997 148.142 80.0017L146.972 80.5237C146.612 79.7857 146.018 78.7057 145.532 78.0217L146.684 77.5357ZM148.736 76.7617C149.222 77.4277 149.906 78.5617 150.23 79.2277L149.06 79.7317C148.682 78.9577 148.088 77.9317 147.584 77.2477L148.736 76.7617Z" fill="#333333"/>
<path d="M115.67 86.05H131.69V87.544H115.67V86.05ZM122.78 84.43H124.508V92.494H122.78V84.43ZM122.132 86.662L123.536 87.292C121.898 89.452 119.054 91.324 116.408 92.296C116.138 91.846 115.634 91.198 115.256 90.856C117.866 90.082 120.692 88.462 122.132 86.662ZM125.138 86.716C126.578 88.462 129.404 89.992 132.104 90.73C131.726 91.054 131.204 91.72 130.952 92.152C128.252 91.252 125.39 89.452 123.716 87.382L125.138 86.716ZM121.844 81.766V83.332H125.462V81.766H121.844ZM121.844 78.94V80.506H125.462V78.94H121.844ZM120.26 77.626H127.118V84.664H120.26V77.626ZM122.888 75.79L124.778 76.042C124.436 76.942 124.094 77.824 123.806 78.418L122.312 78.13C122.528 77.446 122.78 76.492 122.888 75.79ZM115.742 77.896L116.912 76.906C118.01 77.662 119.288 78.76 119.864 79.606L118.622 80.704C118.082 79.858 116.84 78.688 115.742 77.896ZM126.938 82.234L127.928 81.1C129.296 81.802 131.15 82.882 132.068 83.656L131.006 84.934C130.142 84.142 128.342 82.99 126.938 82.234ZM130.034 76.708L131.51 77.59C130.556 78.634 129.368 79.732 128.414 80.488L127.136 79.642C128.072 78.886 129.332 77.644 130.034 76.708ZM115.274 83.584C116.372 83.044 117.992 82.144 119.594 81.262L120.062 82.648C118.748 83.44 117.308 84.322 116.138 84.988L115.274 83.584Z" fill="#333333"/>
<path d="M103.43 80.1817C104.456 80.2897 105.446 80.3437 106.526 80.3437C108.704 80.3437 110.936 80.1637 112.772 79.7857V81.5497C110.864 81.8557 108.65 81.9997 106.508 81.9997C105.464 81.9997 104.492 81.9637 103.43 81.8917V80.1817ZM109.964 77.0497C109.91 77.3917 109.874 77.7877 109.856 78.1657C109.82 78.7957 109.802 80.0557 109.802 81.2257C109.802 84.2317 110.072 86.8237 110.072 88.6237C110.072 90.2797 109.28 91.6837 106.778 91.6837C104.33 91.6837 102.908 90.6937 102.908 88.9477C102.908 87.3097 104.348 86.0857 106.742 86.0857C109.928 86.0857 112.07 87.6697 113.546 89.0197L112.556 90.5137C110.594 88.6777 108.776 87.4537 106.598 87.4537C105.392 87.4537 104.564 87.9757 104.564 88.7677C104.564 89.6137 105.374 90.0277 106.526 90.0277C107.858 90.0277 108.272 89.3437 108.272 88.2097C108.272 86.9317 108.038 83.7097 108.038 81.2437C108.038 79.9477 108.02 78.7777 108.02 78.1837C108.02 77.8957 107.984 77.3737 107.93 77.0497H109.964ZM101.126 77.1937C101 77.5177 100.82 78.2557 100.766 78.5797C100.442 80.0557 99.884 83.7817 99.884 85.7077C99.884 86.3557 99.92 86.9857 100.01 87.6337C100.28 86.8957 100.658 86.0137 100.946 85.3297L101.846 86.0497C101.378 87.3997 100.748 89.2357 100.55 90.1537C100.496 90.4057 100.46 90.7837 100.478 90.9817C100.478 91.1617 100.496 91.4497 100.514 91.6657L98.912 91.7917C98.552 90.5137 98.21 88.4977 98.21 86.0677C98.21 83.3857 98.786 79.9657 99.002 78.5257C99.074 78.0577 99.128 77.4997 99.146 77.0317L101.126 77.1937Z" fill="#333333"/>
<path d="M95.492 89.83C94.592 90.712 93.476 91.252 92.144 91.252C90.884 91.252 90.038 90.388 90.038 88.786C90.038 86.806 90.704 83.998 90.704 82.288C90.704 81.316 90.2 80.866 89.354 80.866C87.68 80.866 85.034 83.278 83.45 85.24V83.026C84.566 81.838 87.554 79.192 89.84 79.192C91.64 79.192 92.486 80.236 92.486 81.712C92.486 83.548 91.856 86.446 91.856 88.282C91.856 88.822 92.126 89.254 92.684 89.254C93.458 89.254 94.358 88.75 95.24 87.85L95.492 89.83ZM83.252 81.226C82.568 81.316 80.714 81.55 79.454 81.748L79.256 79.894C79.706 79.912 80.084 79.912 80.606 79.876C81.65 79.822 83.918 79.516 84.746 79.246L85.358 80.002C85.034 80.452 84.53 81.28 84.224 81.766L83.45 84.628C82.64 85.852 81.002 88.264 79.958 89.722L78.824 88.174C79.958 86.77 82.262 83.674 83.054 82.378L83.108 81.658L83.252 81.226ZM83.054 78.04C83.054 77.59 83.072 77.086 82.982 76.582L85.088 76.654C84.8 77.932 84.242 82.9 84.242 86.086C84.242 87.652 84.242 88.93 84.332 90.568C84.35 90.892 84.404 91.432 84.44 91.792H82.478C82.514 91.432 82.532 90.91 82.532 90.622C82.55 88.876 82.568 87.832 82.604 85.744C82.64 84.142 83.054 78.742 83.054 78.04Z" fill="#333333"/>
<path d="M63.6861 78.1839C65.0001 78.3279 66.6561 78.3999 68.5101 78.3999C70.2561 78.3999 72.1821 78.2919 73.5141 78.1479V80.02C72.2721 80.128 70.2021 80.236 68.5101 80.236C66.6741 80.236 65.1261 80.1639 63.6861 80.0379V78.1839ZM64.7481 85.5999C64.5501 86.2839 64.4061 86.8959 64.4061 87.5439C64.4061 88.8219 65.6841 89.722 68.4381 89.722C70.8861 89.722 73.2081 89.4519 74.6661 89.0019L74.6841 90.9819C73.2621 91.3419 71.0301 91.594 68.4921 91.594C64.6401 91.594 62.5341 90.316 62.5341 87.958C62.5341 86.986 62.7501 86.1219 62.8941 85.4199L64.7481 85.5999Z" fill="#333333"/>
<path d="M177.626 47.9779C177.536 48.3739 177.446 48.8419 177.374 49.2379C177.23 49.9579 176.996 51.2719 176.762 52.2979C176.168 54.8359 174.818 59.6059 172.838 62.7739L170.984 62.0359C173.072 59.2459 174.476 54.4579 174.98 52.2259C175.304 50.7139 175.538 49.1299 175.52 47.7619L177.626 47.9779ZM183.818 49.9399C184.934 51.4519 186.482 54.7459 187.058 56.4379L185.276 57.2659C184.772 55.3579 183.422 52.2079 182.144 50.6779L183.818 49.9399ZM170.786 51.8119C171.398 51.8479 171.92 51.8299 172.532 51.8119C173.918 51.7759 177.482 51.3799 178.742 51.3799C180.488 51.3799 181.82 52.0999 181.82 54.6019C181.82 56.7439 181.532 59.6239 180.776 61.1539C180.2 62.3779 179.264 62.7199 178.004 62.7199C177.32 62.7199 176.456 62.5939 175.88 62.4679L175.574 60.5779C176.294 60.7939 177.284 60.9559 177.77 60.9559C178.418 60.9559 178.922 60.7939 179.246 60.0919C179.786 58.9579 180.056 56.6899 180.056 54.8179C180.056 53.2519 179.354 52.9999 178.22 52.9999C177.068 52.9999 173.81 53.3959 172.766 53.5039C172.298 53.5759 171.47 53.6839 170.966 53.7559L170.786 51.8119ZM183.8 47.3839C184.25 48.0319 184.898 49.1479 185.258 49.8499L184.07 50.3719C183.71 49.6339 183.116 48.5539 182.63 47.8699L183.8 47.3839ZM185.852 46.6099C186.32 47.2939 187.004 48.4279 187.328 49.0759L186.158 49.5799C185.78 48.8239 185.186 47.7799 184.682 47.0959L185.852 46.6099Z" fill="#333333"/>
<path d="M152.39 47.672H158.42V49.13H152.39V47.672ZM159.464 56.906H167.042V58.346H159.464V56.906ZM152.174 53.144H158.906V54.638H152.174V53.144ZM155.234 53.756H156.854V61.622C156.854 62.432 156.71 62.9 156.17 63.17C155.648 63.422 154.892 63.458 153.776 63.458C153.722 63.008 153.506 62.306 153.272 61.856C154.01 61.874 154.73 61.874 154.964 61.874C155.162 61.856 155.234 61.802 155.234 61.604V53.756ZM166.484 56.906H168.212C168.212 56.906 168.194 57.356 168.158 57.59C167.834 60.866 167.51 62.234 166.988 62.792C166.646 63.17 166.286 63.278 165.782 63.35C165.35 63.386 164.576 63.386 163.748 63.35C163.73 62.882 163.55 62.216 163.298 61.766C164.018 61.838 164.702 61.856 164.99 61.856C165.26 61.856 165.422 61.838 165.584 61.676C165.944 61.334 166.232 60.128 166.484 57.14V56.906ZM162.578 55.196H164.27C163.946 58.85 163.118 61.91 158.96 63.53C158.78 63.134 158.33 62.522 157.97 62.216C161.714 60.848 162.29 58.238 162.578 55.196ZM152.93 51.002L153.992 49.904C155.486 50.498 157.394 51.506 158.384 52.28L157.232 53.522C156.332 52.73 154.442 51.65 152.93 51.002ZM158.492 53.144H158.708L158.96 53.072L159.986 53.414C159.644 54.98 159.14 56.762 158.618 57.932L157.448 57.374C157.844 56.366 158.24 54.728 158.492 53.414V53.144ZM165.692 49.364L167.456 49.652C166.25 52.946 163.55 54.71 160.094 55.754C159.896 55.376 159.374 54.674 159.032 54.332C162.326 53.576 164.792 52.064 165.692 49.364ZM161.966 46.79L163.55 47.24C162.686 49.166 161.264 51.002 159.896 52.154C159.59 51.884 158.906 51.398 158.51 51.182C159.914 50.138 161.228 48.5 161.966 46.79ZM161.876 49.778C163.154 52.028 165.764 53.702 168.95 54.35C168.572 54.692 168.086 55.358 167.852 55.79C164.558 54.926 161.93 52.982 160.472 50.246L161.876 49.778ZM155.054 53.648L156.17 54.062C155.486 56.456 154.226 59.21 152.768 60.614C152.606 60.128 152.21 59.426 151.94 58.994C153.236 57.806 154.478 55.592 155.054 53.648ZM161.714 48.68H168.518V50.102H161.012L161.714 48.68ZM158.024 47.672H158.384L158.654 47.618L159.752 48.302C158.942 49.58 157.52 50.984 156.26 51.848C155.954 51.578 155.468 51.218 155.126 51.02C156.26 50.246 157.466 48.914 158.024 47.978V47.672Z" fill="#333333"/>
<path d="M134.12 57.878H150.014V59.3H134.12V57.878ZM134.174 49.904H149.942V51.326H134.174V49.904ZM134.912 53.054H149.276V54.422H134.912V53.054ZM135.812 55.502H148.412V56.78H135.812V55.502ZM141.158 53.72H142.85V63.53H141.158V53.72ZM139.538 46.79H141.14V50.588H139.538V46.79ZM142.922 46.79H144.542V50.498H142.922V46.79ZM140.744 58.49L142.094 59.102C140.402 60.974 137.432 62.522 134.714 63.26C134.48 62.846 133.976 62.18 133.616 61.838C136.298 61.262 139.232 59.966 140.744 58.49ZM143.282 58.436C144.776 59.966 147.71 61.244 150.482 61.766C150.086 62.126 149.582 62.828 149.33 63.296C146.54 62.558 143.642 60.956 141.95 58.994L143.282 58.436ZM147.08 46.988L148.844 47.438C148.304 48.428 147.674 49.436 147.188 50.138L145.802 49.688C146.252 48.95 146.81 47.798 147.08 46.988ZM144.686 50.822L146.468 51.254C146 52.082 145.532 52.892 145.154 53.468L143.714 53.054C144.056 52.406 144.488 51.47 144.686 50.822ZM135.56 47.456L137.018 46.952C137.594 47.744 138.224 48.842 138.476 49.562L136.946 50.138C136.712 49.418 136.1 48.284 135.56 47.456ZM137.882 51.416L139.52 51.128C139.88 51.686 140.258 52.442 140.42 52.964L138.71 53.288C138.566 52.784 138.224 51.974 137.882 51.416Z" fill="#333333"/>
<path d="M118.982 49.3099C118.874 49.8319 118.802 50.7679 118.802 51.2539C118.784 52.4059 118.802 53.9179 118.91 55.3219C119.198 58.1479 119.918 60.0559 121.142 60.0559C122.024 60.0559 122.816 58.0759 123.23 56.4379L124.652 58.1119C123.518 61.2079 122.42 62.2699 121.106 62.2699C119.27 62.2699 117.614 60.5419 117.11 55.8079C116.948 54.2059 116.912 52.0459 116.912 50.9839C116.912 50.5339 116.894 49.7599 116.786 49.2739L118.982 49.3099ZM128.18 49.7779C129.836 51.8479 131.168 55.9699 131.402 58.8859L129.566 59.6239C129.26 56.5279 128.234 52.5319 126.398 50.3719L128.18 49.7779Z" fill="#333333"/>
<path d="M106.976 47.294L108.848 47.618C108.038 52.388 106.67 58.256 105.482 62.036L103.862 61.694C105.032 57.896 106.364 51.866 106.976 47.294ZM102.152 61.37C104.564 61.154 108.47 60.704 112.142 60.254L112.214 61.838C108.776 62.342 105.086 62.81 102.53 63.152L102.152 61.37ZM108.938 55.628L110.432 55.088C111.854 57.554 113.33 60.794 113.87 62.864L112.196 63.512C111.746 61.46 110.342 58.148 108.938 55.628ZM97.094 50.39H103.988V51.992H97.094V50.39ZM99.83 46.79H101.504V61.55C101.504 62.504 101.288 62.954 100.73 63.224C100.136 63.494 99.254 63.53 97.886 63.53C97.796 63.098 97.598 62.378 97.364 61.928C98.264 61.964 99.182 61.946 99.452 61.946C99.74 61.928 99.83 61.838 99.83 61.55V46.79ZM96.842 56.132C98.642 55.79 101.45 55.178 104.096 54.584L104.222 56.096C101.774 56.708 99.164 57.356 97.22 57.806L96.842 56.132Z" fill="#333333"/>
<path d="M83.486 55.1416C85.412 58.9396 89.498 61.1896 95.348 61.9276C94.97 62.3236 94.502 63.0796 94.25 63.5656C88.22 62.6656 84.188 60.1456 81.902 55.6996L83.486 55.1416ZM80.12 53.5756H91.766V55.2316H80.12V53.5756ZM79.274 49.3996H94.574V51.0916H79.274V49.3996ZM86.024 46.8076H87.788V54.3316H86.024V46.8076ZM91.226 53.5756H91.604L91.91 53.5036L93.098 54.1876C90.884 59.8756 85.592 62.4496 79.508 63.5116C79.346 63.0796 78.896 62.2696 78.572 61.8916C84.512 61.0276 89.462 58.8136 91.226 53.8816V53.5756Z" fill="#333333"/>
<path d="M60.698 49.7056H76.556V51.3616H60.698V49.7056ZM69.302 51.1636C70.634 55.3216 73.37 59.0836 77.096 60.7216C76.682 61.0816 76.124 61.7476 75.836 62.2336C72.02 60.3076 69.446 56.2576 67.952 51.5596L69.302 51.1636ZM74.378 51.9196L75.872 52.9816C74.666 54.3496 73.064 55.9156 71.84 56.9236L70.616 55.9876C71.822 54.9616 73.442 53.2516 74.378 51.9196ZM70.886 47.8876L71.912 46.8076C73.01 47.3476 74.486 48.1756 75.26 48.7696L74.18 49.9756C73.478 49.3636 72.02 48.4636 70.886 47.8876ZM61.562 53.1076L62.858 52.2256C63.92 53.1616 65.198 54.4936 65.756 55.4296L64.37 56.4376C63.848 55.5016 62.624 54.0976 61.562 53.1076ZM67.682 46.8436H69.428V61.3336C69.428 62.4316 69.176 62.9176 68.51 63.2056C67.844 63.5116 66.728 63.5476 65.126 63.5476C65.036 63.0616 64.784 62.2696 64.514 61.7476C65.702 61.8016 66.854 61.7836 67.214 61.7836C67.556 61.7656 67.682 61.6756 67.682 61.3336V46.8436ZM60.176 60.2536C61.688 59.4976 64.028 58.1836 66.224 56.9236L66.782 58.4536C64.892 59.6416 62.822 60.8836 61.238 61.8016L60.176 60.2536Z" fill="#333333"/>
<path d="M42.6981 52.2976H48.0441V53.6116H42.6981V52.2976ZM42.7701 47.4196H47.9901V48.7336H42.7701V47.4196ZM42.6981 54.7276H48.0441V56.0416H42.6981V54.7276ZM41.8521 49.7956H48.6381V51.1816H41.8521V49.7956ZM43.4541 57.1756H48.062V62.5396H43.4541V61.1536H46.5861V58.5616H43.4541V57.1756ZM42.68 57.1756H44.1381V63.3136H42.68V57.1756ZM49.0521 47.9236H58.16V49.1836H49.0521V47.9236ZM49.5201 50.0836H57.89V51.2716H49.5201V50.0836ZM48.62 52.2436H58.5381V53.5036H48.62V52.2436ZM52.7421 46.8076H54.362V53.3056H52.7421V46.8076ZM49.916 54.4036H56.828V55.6456H51.5V63.4936H49.916V54.4036ZM55.8921 54.4036H57.494V61.8376C57.494 62.6116 57.3321 63.0076 56.8101 63.2416C56.2701 63.4576 55.4781 63.4576 54.3441 63.4576C54.2901 63.0616 54.074 62.4676 53.876 62.0896C54.632 62.1076 55.37 62.1076 55.604 62.0896C55.838 62.0896 55.8921 62.0176 55.8921 61.8196V54.4036ZM50.618 56.7256H56.702V57.8956H50.618V56.7256ZM50.618 58.9936H56.702V60.1456H50.618V58.9936Z" fill="#333333"/>
</g>
<defs>
<clipPath id="clip0_18_21147">
<rect width="225" height="308" fill="white"/>
</clipPath>
</defs>
</svg>
