<svg width="384" height="225" viewBox="0 0 384 225" fill="none" xmlns="http://www.w3.org/2000/svg">
<g clip-path="url(#clip0_474_5870)">
<path d="M8.43634 167.509C8.90766 167.26 10.573 167.447 9.83458 166.379C8.86838 165.328 8.91551 163.7 9.11975 162.375C9.5675 161.121 11.0129 162.087 11.9634 161.978C14.1157 162.765 15.9617 164.33 17.8941 165.826C25.6236 160.794 33.6753 155.902 41.3263 150.41C39.3861 148.298 35.7098 146.32 34.8536 143.173C33.2197 140.36 31.4994 137.47 30.5646 134.323C26.1421 130.584 20.2664 129.524 18.334 123.705C17.9412 119.693 16.2445 114.092 20.6356 111.872C23.4635 110.703 27.0376 111.443 29.3706 113.461C32.1514 105.866 34.9243 98.2002 40.6586 91.9136C44.7355 85.9074 51.0118 79.2936 58.2544 77.6032C58.9614 77.424 59.4405 77.72 59.6919 78.1796C60.3517 79.3949 59.1813 80.4388 59.5976 81.5917C63.6195 76.902 68.804 75.1181 74.1456 72.9447C76.0387 72.7343 78.0968 72.8278 78.9216 74.5027C79.1101 75.9672 77.7119 77.4785 77.5862 78.8807C80.0842 76.9488 82.8256 75.7024 85.7321 74.6117C86.8397 74.7364 88.1044 74.7753 88.6071 75.9205C89.267 77.3694 88.2693 78.7171 88.2144 80.1116C91.0344 78.5535 93.7602 76.3801 97.3265 76.8943C99.4945 78.5302 98.7483 80.9529 98.5597 83.36C98.5833 84.4429 96.5488 85.588 98.1434 86.4683C106.792 92.0071 110.845 100.864 111.741 110.361C112.149 110.89 111.615 111.911 112.251 112.355C114.097 109.667 117.24 108.647 120.413 109.013C122.165 109.737 122.911 111.49 122.872 113.274C123.265 121.08 117.546 127.99 111.065 132.516C110.193 132.539 110.696 133.692 110.146 134.089C109.753 138.125 106.407 141.17 104.82 144.777C104.121 145.494 103.257 145.595 102.637 146.546C111.002 149.701 119.447 152.692 126.611 158.979V159.446C128.669 159.072 130.389 158.013 132.769 158.332C134.16 156.821 134.662 154.172 137.278 154.328C143.61 154.367 148.896 157.919 154.332 160.778C155.612 161.51 154.693 163.014 154.552 164.027C149.737 172.456 144.599 180.814 140.02 189.391C136.524 192.671 133.508 187.966 129.871 188.153C126.674 186.314 122.487 186.75 120.122 183.338C121.018 180.682 122.715 178.384 123.767 175.798C122.33 174.987 122.997 172.798 121.018 172.627C116.87 170.898 112.189 170.267 107.664 169.472C107.648 172.495 106.674 175.385 106.886 178.322C106.093 182.061 106.242 186.003 105.213 189.828C104.53 191.471 104.813 193.559 103.893 195.133C103.304 201.575 99.5416 207.262 97.7663 213.432C98.5676 214.024 99.903 213.447 100.775 213.806C105.362 213.899 109.424 215.247 113.335 216.984C114.372 217.568 114.71 218.721 114.341 219.742C110.704 223.644 105.7 222.943 100.649 223.411C95.5904 223.722 90.8302 222.936 85.7557 222.312C84.8209 223.115 84.703 225.132 82.9592 224.875C79.8642 224.501 76.9421 224.751 73.4543 224.392C72.3939 222.717 72.0325 220.489 72.386 218.386C75.1039 215.901 73.6821 211.998 73.1558 209.077C73.4307 207.129 73.3836 204.738 71.7811 203.546C68.9297 207.425 66.1882 212.692 68.4112 217.428C69.0239 220.349 66.848 222.585 65.2377 224.797L52.8971 225.016C51.3182 225.218 52.5593 223.707 52.3865 223.021C51.7345 221.876 50.8076 223.302 49.8571 223.099C48.6788 223.442 47.0999 223.8 45.7645 224.151C40.0852 224.945 33.4553 225.841 29.4177 221.705C29.2449 220.778 28.9071 220.014 29.5277 219.227C33.7303 215.924 38.7733 214.616 43.9735 213.525L44.5941 213.042C40.7372 205.883 38.6791 197.742 37.3358 189.734C35.8748 183.977 35.6784 178.018 35.8826 172.284C33.204 173.063 30.1404 173.85 27.556 175.167C27.4932 175.868 27.3361 175.946 26.9512 176.577C26.5506 176.358 25.8279 175.603 25.1995 176.164C24.1076 177.052 24.1311 178.283 23.5184 179.311C20.8319 183.338 17.517 188.005 12.961 189.695C11.547 190.201 10.6594 189.15 9.92884 188.238C9.83458 187.545 10.0545 186.766 9.73246 186.229C8.71913 186.953 7.71366 187.989 6.27614 187.413C4.76008 186.914 5.12928 185.2 5.26281 184.039C5.56917 183.642 5.71842 183.097 5.86767 182.629C4.68153 182.668 2.79626 183.338 1.90076 181.819C2.26996 180.417 2.63916 179.085 3.56608 177.901C2.52919 177.465 0.879581 178.057 0.376844 176.608C-0.683616 175.089 0.71462 173.733 1.24092 172.401C3.48753 170.165 5.84411 169.09 8.42063 167.54L8.43634 167.509Z" fill="black"/>
<path d="M5.1765 170.703C7.21101 169.713 9.00201 168.186 11.4528 168.038C12.4662 167.314 11.0287 166.504 10.7773 165.74C10.5181 164.821 9.95249 163.988 10.251 163.123C12.5447 163.053 14.6342 164.619 16.4802 166.34C19.0803 169.744 21.594 173.149 23.33 176.966C21.8296 181.266 18.0356 185.177 14.21 188.082C13.4245 188.495 12.5604 188.674 11.6807 188.316C10.2274 186.891 12.1755 185.278 12.5447 183.798C11.6571 183.05 10.9737 184.538 10.031 184.647C9.01772 185.371 8.09865 186.797 6.73969 186.298C5.67923 184.701 7.15602 183.268 7.76088 181.936C8.22434 181.305 9.16697 180.884 8.9863 180.043C7.08532 180.098 5.55355 182.318 3.32265 181.609C3.43263 179.054 6.01701 177.737 6.84181 175.618C5.09794 175.517 3.087 177.667 1.46881 176.086C1.09962 173.546 3.52689 172.23 5.16079 170.71L5.1765 170.703Z" fill="#FFE3CA"/>
<path d="M9.22217 86.6708C10.7932 86.0788 11.9322 87.5979 13.354 87.7848C14.3281 89.1481 17.6352 88.2756 16.7397 90.7762C14.2574 89.4597 11.7123 88.4548 9.23788 87.2863L9.22217 86.663V86.6708Z" fill="black"/>
<path d="M20.7377 165.584C21.9474 166.784 22.2224 168.716 23.6756 169.986L25.8279 174.722C25.2781 174.972 24.9717 175.603 24.2569 175.392C22.8508 172.416 20.5099 169.853 18.8682 167.041C19.0096 166.184 20.1171 166.075 20.7377 165.592V165.584Z" fill="white"/>
<path d="M20.9733 113.251C23.0863 111.95 25.9457 112.635 27.9409 113.656C29.944 114.832 28.4122 117.59 28.6871 119.358C29.2449 123.596 27.8231 127.67 29.5591 131.713C25.4901 129.976 20.3684 127.117 19.4101 122.428C19.4258 119.179 18.0904 115.502 20.9733 113.243V113.251Z" fill="#FFE3CA"/>
<path d="M22.2933 116.001C24.3356 115.393 26.1031 116.733 27.3992 118.166C27.4856 118.626 27.3363 118.79 26.9436 118.953C25.8124 117.746 24.6891 116.858 23.1102 116.904C21.3899 118.042 23.0866 119.615 23.0317 120.932C22.9845 122.482 25.0583 123.269 24.6891 124.749C22.0576 123.666 21.8377 120.503 21.0757 118.05C20.9814 117.2 21.7591 116.64 22.3011 116.001H22.2933Z" fill="black"/>
<path d="M22.3008 164.611C29.2605 160.373 35.7176 154.99 42.9287 151.445C45.0967 152.925 49.3622 152.801 49.1972 156.361C51.1846 160.864 53.8082 165.584 58.6157 168.459C61.5221 167.516 61.8442 163.793 64.35 162.398C64.8056 165.631 66.1331 168.693 66.4316 171.778C64.5856 178.415 62.4961 184.982 60.171 191.471L60.5088 192.546C52.52 192.632 45.9294 191.206 38.6083 189.188C37.4536 182.878 36.3224 177.495 37.3043 170.96C36.9744 170.43 36.1103 170.687 35.7176 170.85C32.9761 172.175 29.9832 172.962 27.0768 174.052C26.0792 171.684 25.2386 169.152 23.3063 167.197C22.9763 166.356 22.7957 165.358 22.3086 164.595L22.3008 164.611Z" fill="white"/>
<path d="M22.8039 69.3843C25.0427 70.6307 26.433 73.069 28.1376 74.9542C28.0669 75.4995 28.3969 76.2629 27.8548 76.668C26.7001 74.0739 23.8094 72.2199 22.4976 69.7115L22.8118 69.3921L22.8039 69.3843Z" fill="black"/>
<path d="M32.2223 218.643C36.3856 216.968 40.4625 215.223 44.9478 214.234C51.9861 214.101 59.2758 214.802 66.1649 215.137C67.1389 216.501 67.7359 218.495 67.0525 220.217C66.3613 221.323 65.4344 222.351 64.9002 223.535C60.8704 223.582 57.312 224.003 53.5101 223.574C53.4158 222.725 54.3427 221.611 53.298 220.949C52.3475 220.98 51.8133 221.767 50.9414 221.946C44.885 223.753 36.5349 225.483 30.8476 221.938C29.1588 220.676 31.0283 219.149 32.2066 218.643H32.2223Z" fill="#231815"/>
<path d="M31.099 112.947C37.9802 113.048 43.8481 113.64 50.5957 114.676C50.8078 117.535 51.2634 120.308 54.217 121.843C57.0213 123.541 60.6819 124.819 64.0518 123.245C68.2072 121.337 69.1498 116.896 69.3855 112.869C71.098 111.653 74.0908 110.945 76.1725 112.043C77.3036 113.095 76.1489 114.754 76.0939 116.07C77.1936 119.755 79.8016 123.541 83.6978 124.663C87.1698 124.406 90.634 123.292 92.3072 120.067C93.2891 117.87 94.1217 115.681 93.9096 113.056C99.8246 111.949 104.883 111.949 110.484 111.007C111.765 119.716 110.704 130.194 107.224 138.506C105.221 141.349 104.019 144.333 100.893 146.28C94.326 150.121 88.0025 154.569 80.0294 155.27C67.0211 157.755 53.3922 156.314 43.0547 149.583L42.5834 149.599C39.6062 147.137 36.2363 144.761 35.4586 141.147C32.7721 137.205 31.4132 132.679 30.1406 128.153C30.6669 122.949 29.8578 117.636 31.1068 112.954L31.099 112.947Z" fill="#FFE3CA"/>
<path d="M52.473 81.6459C54.3504 80.5085 56.1414 79.2154 58.4351 78.9895C58.0895 81.4745 57.6732 84.5828 55.7408 86.8107C55.7486 87.4339 56.1571 87.9559 56.7148 88.174C57.736 87.6754 57.4689 86.4446 58.0895 85.6578C61.7815 80.1268 67.563 76.4655 73.6901 74.3466C75.0333 74.3076 76.84 73.7857 77.8219 75.1489C77.005 78.0391 74.8448 80.5007 73.8707 83.3208C74.4363 84.1543 74.8134 82.9079 75.4418 82.9624C78.2932 79.3166 82.2759 76.4109 86.6984 75.9669C87.3346 75.9513 87.586 76.7147 87.8295 77.1744C87.4053 79.8931 85.7872 82.0354 83.8469 83.9518C83.6191 84.4192 84.1768 84.7152 84.4989 84.8632C86.227 84.1154 87.2875 81.9887 89.1728 81.0071C91.4429 79.7763 94.098 77.8365 96.8709 78.2961C98.5677 80.2592 97.2794 83.0793 96.5331 85.1203C95.3549 85.5409 95.5434 87.0055 95.1663 87.9481C95.7319 88.6258 95.8655 87.2314 96.431 87.9091L97.0516 87.2704C104.978 92.2171 109.416 100.669 110.303 109.62C105.103 110.477 99.2432 110.345 93.8938 111.669C93.0376 108.21 89.7462 105.99 86.337 105.398C82.378 105.211 79.1023 107.712 77.5863 111.085C75.2611 109.449 71.5456 109.799 69.2047 111.186C68.1285 108.506 65.2299 105.967 62.2842 105.203C58.333 105.32 54.0048 106.691 51.9467 110.469C50.8548 111.202 51.7817 114.263 49.4644 113.024C43.5966 112.425 37.3359 111.762 31.8687 111.241C35.2071 99.9137 42.7482 89.2335 52.4887 81.6693L52.473 81.6459Z" fill="#FFE3CA"/>
<path d="M38.7891 190.731C42.6067 191.853 46.9664 192.414 51.0197 193.302C54.5781 193.427 58.2308 193.855 61.6322 193.754C64.6879 196.371 67.7436 198.755 70.9485 201.053C71.3491 201.349 71.899 201.1 72.3782 201.162C74.4598 198.389 76.6986 195.46 78.7016 192.764C86.5255 192.453 95.5355 191.946 103.815 190.451C102.629 198.459 99.6909 205.898 96.1953 213.128C94.64 214.413 92.5583 213.47 90.8302 213.907C85.5436 214.53 80.6262 213.985 75.4731 213.447C73.8314 210.245 76.1644 204.45 71.9304 202.253C69.2518 202.876 68.8433 205.984 67.61 207.955L66.1411 213.572C59.3463 213.93 52.685 213.128 46.0316 212.637C43.4237 208.843 41.7505 204.177 41.0357 199.939C39.7945 197.033 39.6453 193.715 38.7969 190.716L38.7891 190.731Z" fill="#175296"/>
<path d="M43.9107 56.5151L44.3899 56.6554C45.3954 59.4131 46.4794 62.3967 46.6208 65.4114C44.5941 63.0744 44.5313 59.6701 43.4473 56.8423L43.9186 56.5151H43.9107Z" fill="black"/>
<path d="M50.5877 154.928C55.2851 156.564 60.2889 157.498 65.5127 157.724C63.3603 160.809 61.2001 163.816 58.7336 166.909L58.0973 166.776C54.3975 163.559 52.2609 159.758 50.4463 155.707L50.5877 154.928Z" fill="white"/>
<path d="M55.6857 108.483C58.435 107.392 61.5535 105.367 64.3736 107.603C66.141 108.787 67.4371 110.454 67.9477 112.292C68.1677 115.455 67.6021 118.883 64.9549 121.056C61.6714 123.167 57.5395 122.287 54.4995 120.441C52.3315 118.727 51.8837 116.032 52.3079 113.383C52.8263 111.435 54.4524 109.909 55.6935 108.483H55.6857Z" fill="white"/>
<path d="M58.2466 93.5414C60.2104 92.7857 62.6613 92.552 64.1145 94.1412C65.6463 95.5668 66.7067 97.3897 66.746 99.3216C66.4475 100.179 65.4892 99.7501 65.01 99.532C64.0281 98.0129 63.7532 96.0108 61.915 94.9825C59.6056 94.1256 58.223 96.486 56.7463 97.6156C56.3692 98.5582 56.1571 99.6488 55.3794 100.443C54.7432 100.381 54.0283 100.101 53.9341 99.3995C54.6018 97.0547 55.8979 94.8501 58.2466 93.5414Z" fill="black"/>
<path d="M60.0693 138.226C60.462 137.906 61.0983 138.117 61.6482 138.023C62.7793 139.075 64.4368 139.02 65.945 139.129C71.7265 139.573 76.7774 138.958 82.3861 138.475C83.1794 138.452 84.2556 137.026 84.7584 138.405C83.9021 143.227 80.5794 147.278 76.1254 149.81C74.248 150.721 71.7186 150.947 69.6527 150.472C65.1045 148.594 62.0881 143.889 60.8941 139.433C60.4935 139.137 59.4566 138.935 60.0771 138.218L60.0693 138.226Z" fill="black"/>
<path d="M61.1532 112.962C61.7895 113.173 62.6535 112.994 62.9128 113.835C63.0149 114.918 62.6378 115.775 61.5302 116.047C60.8154 115.993 60.1006 115.705 59.7707 115.019C59.3543 114.1 60.3677 113.297 61.1532 112.962Z" fill="black"/>
<path d="M65.5835 185.434C69.0712 181.842 72.7161 177.94 76.1331 174.738C76.8008 176.654 76.8479 178.976 77.5156 180.884C73.4937 185.574 69.6211 189.874 65.285 194.416C64.0046 193.761 62.4885 192.795 61.9072 191.424C62.0172 189.025 63.6354 186.883 65.5835 185.434Z" fill="#FDD000"/>
<path d="M62.4805 140.009C68.0341 140.773 73.7999 140.516 79.4085 140.118C80.5868 139.698 81.9379 140.196 83.1948 139.542C82.1108 144.606 77.1227 148.703 72.001 149.482C68.2855 149.747 65.8504 146.265 63.9808 143.686C63.7137 142.378 62.5119 141.412 62.4883 140.017L62.4805 140.009Z" fill="#B44E26"/>
<path d="M66.353 176.273C67.4606 176.086 66.1802 175.353 66.8008 174.863C67.7277 173.671 67.4606 172.058 68.144 170.796C70.8463 171.334 72.9436 169.487 75.4102 170.266C76.8084 172.775 74.4597 174.395 72.9986 176.218C69.8172 179.334 66.8636 182.209 63.8394 185.169C64.727 182.045 65.7089 179.537 66.353 176.265V176.273Z" fill="white"/>
<path d="M73.6824 186.89H73.9966C75.552 185.597 76.4632 183.712 78.0185 182.427C80.8621 186.439 75.9447 189.453 74.4208 192.756C72.7084 194.353 71.4123 196.714 69.4641 198.171L66.0942 195.639C68.6551 193.162 71.2709 189.446 73.6746 186.89H73.6824Z" fill="white"/>
<path d="M67.5708 157.662C70.9329 159.571 73.9964 162.733 76.4316 165.6C75.7482 167.166 75.4811 169.729 73.0145 168.958C71.4435 169.55 69.5425 169.293 67.8065 169.425C66.801 166.59 66.2826 164.206 65.5913 161.285C66.0391 160.03 66.3297 158.706 67.5787 157.662H67.5708Z" fill="#FDD000"/>
<path d="M74.4679 194.758C75.9211 192.39 77.6179 190.1 79.236 187.802C80.5164 188.69 78.9532 189.671 78.8197 190.598C76.5888 193.683 74.028 196.472 72.0406 199.783C71.6479 199.947 71.1687 199.58 70.7681 199.354C71.7657 197.625 72.9126 195.888 74.4757 194.751L74.4679 194.758Z" fill="#FDD000"/>
<path d="M74.8369 157.132C75.6696 159.197 79.9036 161.238 77.0286 163.879C74.617 162.095 72.5982 159.68 70.2573 157.428C71.7577 157.304 73.423 157.483 74.8369 157.132Z" fill="white"/>
<path d="M75.8188 214.997C82.7078 215.558 89.3613 215.667 96.3917 215.301L96.6981 214.826C101.694 215.371 107.703 215.262 112.259 217.763C112.817 218.059 113.383 218.581 113.398 219.274C110.995 221.743 107.342 221.237 104.113 221.876C97.1615 222.476 91.3801 221.798 85.1037 220.754C84.4124 221.782 84.1218 223.184 82.9514 223.761C80.1078 223.847 76.9264 223.325 74.0828 223.41C72.441 220.52 74.0435 217.373 75.8188 214.997Z" fill="#231815"/>
<path d="M71.4906 51.0388L71.8127 51.3348C71.7891 54.2016 71.4514 56.9203 71.6556 59.3898C71.1921 59.7949 70.4695 59.2729 70.5402 58.8055L70.7287 52.145L70.2495 51.8489C70.6423 51.6074 70.8622 50.8206 71.4985 51.0388H71.4906Z" fill="black"/>
<path d="M78.7487 163.045C80.0369 164.322 80.7361 167.4 82.9434 167.252C85.5199 165.623 86.4861 162.5 88.5049 160.272C90.3588 157.974 91.6549 155.535 93.2731 153.159L93.2573 152.388C95.4411 150.775 97.9548 150.074 99.9736 148.158C103.501 146.584 106.501 150.051 109.989 150.487C114.694 152.357 119.243 154.538 123.422 157.818C122.031 159.563 121.992 161.728 121.002 163.621C120.256 165.81 118.63 167.641 117.962 169.908C116.697 169.869 115.016 168.911 113.516 169.113C110.971 168.42 108.127 168.506 105.881 167.026C105.244 166.815 104.702 167.29 104.475 167.844C104.569 168.771 105.598 168.584 106.085 169.191C106.336 174.138 105.567 179.116 104.632 183.79C104.899 185.488 104.302 187.202 104.098 188.916C98.2612 189.944 91.7099 190.762 85.6377 191.331C84.051 191.074 81.5294 191.455 79.9427 191.198C82.2757 189.196 79.927 186.555 79.9662 184.234C78.3638 179.326 77.5547 174.169 76.6592 169.012C76.777 166.839 78.2459 165.094 78.7565 163.068L78.7487 163.045Z" fill="white"/>
<path d="M76.895 157.07C82.0245 156.447 86.8162 154.834 91.5294 153.222C89.7148 157.382 86.1407 160.895 83.8469 164.907L82.7629 166.021C80.4142 163.302 79.0081 159.945 76.895 157.062V157.07Z" fill="white"/>
<path d="M82.0952 107.681C84.5304 106.676 87.6096 106.504 89.8562 108.062C92.4249 109.838 93.0376 112.916 92.5427 116.032C91.7179 118.221 91.1367 120.869 88.5444 122.038C86.7299 122.404 85.1745 123.533 83.1793 122.973C82.9279 122.053 81.5847 122.326 80.9405 121.648C79.0867 119.849 76.9029 117.434 77.7906 114.318C78.851 111.809 79.6758 109.542 82.0874 107.688L82.0952 107.681Z" fill="white"/>
<path d="M82.7551 92.8016C84.5618 92.0538 86.6121 91.9136 88.1438 93.2535C90.469 95.0374 91.553 97.7951 91.1288 100.436C90.5868 100.841 90.1076 100.623 89.5499 100.483C88.4895 98.8935 89.0786 96.5487 87.2326 95.2867C86.5021 94.383 85.3866 93.9468 84.3655 94.2895C82.7159 95.0374 81.082 96.4786 81.1212 98.4105C81.1212 98.7221 80.6578 99.0415 80.3436 99.2051C79.7937 99.2986 79.236 99.1584 79.071 98.6209C78.9453 96.1436 80.6421 94.0091 82.7551 92.7783V92.8016Z" fill="black"/>
<path d="M83.6034 112.129C84.4675 111.872 85.1902 112.316 85.5201 113.001C85.5358 113.851 85.6301 114.622 84.9309 115.191C84.0669 115.37 83.1871 115.089 82.8572 114.326C82.1345 113.648 82.5822 112.324 83.6034 112.137V112.129Z" fill="black"/>
<path d="M100.343 54.0302C100.492 53.7186 100.893 53.9368 101.129 53.8511C100.94 56.4919 99.2513 58.938 99.0706 61.8126L98.1201 61.8437C98.3793 59.0471 99.919 56.7568 100.343 54.038V54.0302Z" fill="black"/>
<path d="M112.754 114.178C113.822 112.285 115.456 110.688 117.585 110.314C118.771 110.43 120.971 109.667 121.403 111.591C122.581 119.14 117.907 126.946 111.183 130.942C112.181 125.341 112.707 119.903 112.754 114.178Z" fill="#FFE3CA"/>
<path d="M112.291 74.4092C114.31 72.6487 115.614 70.4363 117.719 68.8237C118.779 70.3428 116.171 70.6466 116.038 71.9709L112.314 75.7959L111.207 75.679C111.034 75.0636 111.985 74.9623 112.291 74.4092Z" fill="black"/>
<path d="M117.499 113.882C118.292 114.092 119.172 114.528 119.423 115.37C119.486 118.618 117.24 121.01 115.794 123.682C115.315 123.542 115.017 124.476 114.687 123.713C114.428 122.638 115.928 122.28 116.061 121.353C116.973 119.389 118.991 117.473 118.159 115.253C117.436 114.575 116.493 115.23 115.786 115.479C115.48 115.954 114.773 116.437 114.373 115.829C114.82 114.575 116.399 114.373 117.499 113.874V113.882Z" fill="black"/>
<path d="M124.231 158.729C124.946 158.862 125.111 159.322 125.676 159.766C124.247 163.372 122.573 166.901 121.78 170.718C121.324 171.583 120.193 170.532 119.4 170.485C121.065 166.566 123.202 162.858 124.231 158.729Z" fill="white"/>
<path d="M129.635 168.163C129.564 168.631 129.729 168.934 130.13 169.23C131.316 169.036 132.345 169.316 133.154 170.064C132.777 171.155 131.693 172.043 131.473 173.211C132.432 173.569 132.895 173.242 133.359 172.378C133.971 171.583 134.985 170.469 134.568 169.402C133.123 168.514 131.685 167.4 129.949 167.836C129.863 167.298 130.641 166.808 131.355 166.862C133.249 166.418 135.259 164.268 137.184 165.6C138.299 165.951 139.336 166.543 140.373 167.049C142.604 167.992 144.851 169.542 147.529 168.849C148.676 166.8 151.653 165.242 150.891 162.71L150.082 161.651C145.841 159.306 141.457 157.343 136.532 156.642C136.147 157.195 135.448 157.678 135.299 158.379C135.063 158.309 134.82 158.161 134.505 158.246C135.118 157.296 135.731 156.12 136.988 155.535C143.39 155.341 148.134 159.22 153.562 161.534C154.371 162.282 153.515 163.24 153.295 164.019C150.389 169.215 147.569 174.489 144.269 179.615C142.832 182.988 140.515 185.995 138.606 189.228C135.841 189.469 133.508 187.599 130.813 187.296C128.095 185.675 124.694 185.777 122.196 183.533C122.188 183.066 122.18 182.606 121.858 182.302C124.372 177.504 126.729 172.713 129.651 168.132L129.635 168.163Z" fill="#D1D1D2"/>
<path d="M126.658 161.285C128.379 160.147 131.049 159.29 133.123 160.007C134.451 159.345 136.202 159.836 137.404 160.498C137.522 162.43 135.731 163.801 134.16 164.619C132.581 164.743 131.018 165.873 129.588 165.53C127.907 168.366 126.218 171.209 124.537 174.045C123.587 173.764 123.398 172.611 123.068 171.77C124.262 168.249 124.742 164.518 126.658 161.292V161.285Z" fill="#FFE3CA"/>
<path d="M126.367 90.2388C128.237 88.9456 130.114 87.6447 131.984 86.3515L132.777 86.3281C133.358 87.7849 130.593 88.0186 129.674 89.3663C127.648 90.823 125.448 91.8202 122.927 92.2019C122.605 92.0539 122.526 91.75 122.597 91.4384C123.767 90.7841 125.11 90.6672 126.367 90.2388Z" fill="black"/>
<path d="M128.331 174.083C129.368 174.52 130.641 175.018 131.992 175.213C132.785 175.423 132.251 176.21 132.18 176.755C131.803 177.62 131.191 178.797 130.327 179.131C128.724 178.095 131.159 177.402 131.222 176.475C130.334 175.571 128.363 175.945 128.017 174.403L128.331 174.083Z" fill="black"/>
<path d="M131.01 181.741C131.89 182.255 132.997 182.38 133.728 183.362C132.95 184.234 132.911 186.096 131.411 186.065C130.68 185.161 132.251 184.413 132.628 183.549C131.748 182.957 130.869 182.676 129.761 182.396C129.667 181.624 130.46 181.523 131.01 181.741Z" fill="black"/>
<path d="M135.692 178.345C135.055 177.978 134.262 177.924 133.767 177.168C134.38 176.07 135.275 177.199 135.982 177.254C137.255 177.605 136.964 178.851 136.344 179.568C135.401 180.058 135.212 182.31 133.846 181.188C134.058 180.019 135.393 179.357 135.692 178.345Z" fill="black"/>
<path d="M135.841 169.83C137.027 169.947 137.993 170.617 139.03 171.279C139.533 172.658 138.048 173.865 137.522 174.886L136.729 174.909C136.462 173.6 138.355 173.079 138.088 171.77C137.436 170.858 136.257 171.131 135.527 170.453L135.833 169.822L135.841 169.83Z" fill="black"/>
<path d="M137.192 158.021C141.489 159.205 145.864 160.467 149.627 163.061C149.666 165.226 147.475 166.146 146.555 167.953C143.068 167.672 140.256 165.437 137.145 164.214C137.836 163.185 138.685 162.001 138.975 160.755C138.645 159.836 137.75 158.706 136.721 158.503L137.184 158.021H137.192Z" fill="white"/>
<path d="M140.004 180.541C139.596 180.012 138.575 180.432 138.559 179.505C139.109 179.1 140.138 179.459 140.782 179.747C141.183 180.043 141.348 180.425 141.277 180.97C139.863 181.554 139.36 184.203 137.687 183.4C138.143 182.458 139.227 181.344 140.004 180.541Z" fill="black"/>
<path d="M140.727 177.114C141.905 176.615 141.952 175.143 142.887 174.263C142.628 173.265 141.136 173.616 141.269 172.455C142.369 171.957 143.107 173.328 143.987 173.764C143.861 175.236 142.691 176.358 142.007 177.69C141.528 177.472 140.821 177.729 140.727 177.106V177.114Z" fill="black"/>
<path d="M81.6789 169.534C81.2704 169.534 80.9326 169.869 80.9326 170.282V183.081C80.9326 183.494 81.239 183.969 81.6082 184.148L89.5341 187.973C89.9033 188.153 90.516 188.153 90.8852 187.973L98.929 184.141C99.2982 183.961 99.6046 183.486 99.6046 183.073V170.274C99.6046 169.861 99.2668 169.526 98.8505 169.526H81.6789V169.534ZM85.4337 183.868C84.1611 183.868 83.1242 182.84 83.1242 181.578C83.1242 180.316 84.1611 179.287 85.4337 179.287C86.7062 179.287 87.7431 180.316 87.7431 181.578C87.7431 182.84 86.7062 183.868 85.4337 183.868ZM95.1114 183.868C93.8388 183.868 92.8019 182.84 92.8019 181.578C92.8019 180.316 93.8388 179.287 95.1114 179.287C96.3839 179.287 97.4208 180.316 97.4208 181.578C97.4208 182.84 96.3839 183.868 95.1114 183.868ZM96.7217 174.66V177.846H91.8907V186.244H88.4972V177.792H83.2735L83.2028 174.395H88.4972V170.843H91.8907V174.45H94.0588C93.556 174.029 93.234 173.398 93.234 172.689C93.234 171.427 94.2708 170.399 95.5434 170.399C96.816 170.399 97.8528 171.427 97.8528 172.689C97.8528 173.523 97.3972 174.255 96.7217 174.652V174.66Z" fill="#2175D6"/>
<path d="M95.5434 171.723C95.0014 171.723 94.5615 172.159 94.5615 172.697C94.5615 173.234 95.0014 173.671 95.5434 173.671C96.0854 173.671 96.5253 173.234 96.5253 172.697C96.5253 172.159 96.0854 171.723 95.5434 171.723Z" fill="#2175D6"/>
<path d="M67.1781 124.539C70.2652 121.913 74.4206 121.539 77.7591 123.347C78.8117 124.172 80.2021 125.216 80.1628 126.782C81.239 130.669 75.2612 135.889 68.4664 133.201C66.4633 132.586 65.3478 130.654 65.2457 128.784C64.8058 127.951 66.2905 125.699 67.1702 124.546L67.1781 124.539Z" fill="black"/>
<path d="M73.3601 123.456C75.049 123.783 77.5391 124.087 78.631 125.848C79.338 127.289 79.2437 128.995 78.1675 130.327C76.9657 131.768 66.8245 133.973 66.5025 129.096C66.2825 125.754 70.218 123.892 73.3601 123.448V123.456Z" fill="#FFE3CA"/>
</g>
<path d="M174.475 136.842L177.945 93.4249L212.965 118.208L174.475 136.842Z" fill="#FEE880"/>
<path d="M384 70.075C384 108.776 330.05 140.15 263.5 140.15C196.95 140.15 143 108.776 143 70.075C143 31.3736 196.95 0 263.5 0C330.05 0 384 31.3736 384 70.075Z" fill="#FEE880"/>
<path d="M193.655 60.832V59.302C197.273 56.062 199.415 53.56 199.415 51.508C199.415 50.158 198.695 49.348 197.417 49.348C196.445 49.348 195.653 49.978 194.969 50.716L193.529 49.276C194.753 47.962 195.941 47.26 197.759 47.26C200.279 47.26 201.953 48.88 201.953 51.364C201.953 53.776 199.955 56.368 197.525 58.744C198.191 58.672 199.073 58.6 199.703 58.6H202.583V60.832H193.655ZM209.151 61.084C206.433 61.084 204.633 58.708 204.633 54.118C204.633 49.51 206.433 47.26 209.151 47.26C211.869 47.26 213.651 49.528 213.651 54.118C213.651 58.708 211.869 61.084 209.151 61.084ZM209.151 59.014C210.303 59.014 211.149 57.862 211.149 54.118C211.149 50.392 210.303 49.312 209.151 49.312C207.999 49.312 207.135 50.392 207.135 54.118C207.135 57.862 207.999 59.014 209.151 59.014ZM215.574 60.832V59.302C219.192 56.062 221.334 53.56 221.334 51.508C221.334 50.158 220.614 49.348 219.336 49.348C218.364 49.348 217.572 49.978 216.888 50.716L215.448 49.276C216.672 47.962 217.86 47.26 219.678 47.26C222.198 47.26 223.872 48.88 223.872 51.364C223.872 53.776 221.874 56.368 219.444 58.744C220.11 58.672 220.992 58.6 221.622 58.6H224.502V60.832H215.574ZM228.712 55.36H231.826V52.642C231.826 51.868 231.88 50.662 231.916 49.87H231.844C231.52 50.59 231.16 51.328 230.782 52.048L228.712 55.36ZM231.826 60.832V57.376H226.138V55.576L231.106 47.494H234.292V55.36H235.858V57.376H234.292V60.832H231.826ZM242.479 56.512H245.593V53.776H242.479V56.512ZM253.963 56.512V58.564H247.807V62.416H245.593V58.564H237.493V56.512H240.337V51.778H245.593V49.636H241.741C241.003 50.914 240.139 52.066 239.293 52.912C238.879 52.552 237.961 51.832 237.439 51.526C239.059 50.158 240.445 47.854 241.219 45.532L243.397 46.09C243.235 46.594 243.037 47.08 242.803 47.566H252.973V49.636H247.807V51.778H252.559V53.776H247.807V56.512H253.963ZM260.011 61.084C257.905 61.084 256.483 60.292 255.547 59.23L256.789 57.556C257.581 58.33 258.553 58.924 259.759 58.924C261.109 58.924 262.027 58.258 262.027 57.052C262.027 55.756 261.253 54.928 258.355 54.928V53.038C260.803 53.038 261.595 52.192 261.595 51.004C261.595 49.96 260.947 49.348 259.813 49.348C258.859 49.348 258.085 49.78 257.293 50.518L255.943 48.898C257.095 47.89 258.373 47.26 259.939 47.26C262.513 47.26 264.259 48.538 264.259 50.806C264.259 52.246 263.449 53.29 262.045 53.848V53.938C263.539 54.352 264.691 55.468 264.691 57.214C264.691 59.662 262.549 61.084 260.011 61.084ZM271.529 54.946H278.873V52.75H271.655C271.637 53.434 271.601 54.19 271.529 54.946ZM278.873 48.52H271.655V50.716H278.873V48.52ZM281.141 46.432V59.662C281.141 60.958 280.835 61.57 280.007 61.93C279.143 62.308 277.883 62.344 276.029 62.344C275.903 61.714 275.471 60.688 275.129 60.094C276.389 60.166 277.901 60.148 278.297 60.148C278.729 60.148 278.873 60.004 278.873 59.626V57.016H271.169C270.701 59.032 269.801 60.994 268.127 62.398C267.803 61.948 266.939 61.156 266.471 60.85C269.189 58.528 269.441 55.09 269.441 52.354V46.432H281.141ZM300.527 54.928H295.703C297.251 56.854 299.645 58.636 301.949 59.626C301.409 60.076 300.707 60.958 300.329 61.534C298.241 60.418 296.153 58.564 294.533 56.494V62.398H292.247V56.638C290.645 58.69 288.557 60.508 286.469 61.642C286.109 61.084 285.407 60.202 284.885 59.752C287.225 58.726 289.619 56.872 291.203 54.928H286.379V52.822H292.247V50.464H285.569V48.322H292.247V45.586H294.533V48.322H301.355V50.464H294.533V52.822H300.527V54.928ZM307.871 58.798C307.871 59.482 308.519 59.896 309.761 59.896C310.715 59.896 311.345 59.626 311.345 58.582C311.345 58.384 311.345 58.132 311.327 57.808C310.841 57.736 310.355 57.682 309.851 57.682C308.573 57.682 307.871 58.186 307.871 58.798ZM313.505 46.27C313.451 46.63 313.415 47.08 313.397 47.548C313.379 47.728 313.379 47.998 313.379 48.286C314.855 48.214 316.349 48.07 317.933 47.8L317.915 49.87C316.727 50.014 315.089 50.176 313.343 50.266C313.343 50.896 313.343 51.562 313.343 52.12C315.161 52.03 316.691 51.886 318.149 51.688L318.131 53.812C316.511 53.992 315.107 54.118 313.379 54.172C313.415 54.856 313.451 55.594 313.505 56.314C315.773 56.962 317.501 58.168 318.545 59.032L317.249 61.048C316.277 60.148 315.053 59.194 313.613 58.546C313.631 58.798 313.631 59.014 313.631 59.212C313.631 60.742 312.461 61.93 310.085 61.93C307.205 61.93 305.693 60.832 305.693 58.924C305.693 57.106 307.367 55.828 310.139 55.828C310.517 55.828 310.895 55.846 311.255 55.882C311.219 55.324 311.201 54.748 311.183 54.208C310.877 54.208 310.571 54.208 310.247 54.208C309.203 54.208 307.151 54.118 305.963 53.974L305.945 51.85C307.115 52.066 309.329 52.192 310.283 52.192C310.571 52.192 310.859 52.192 311.147 52.192C311.147 51.598 311.147 50.95 311.165 50.338C310.931 50.338 310.715 50.338 310.499 50.338C309.365 50.338 307.277 50.176 306.089 50.014L306.035 47.962C307.331 48.178 309.383 48.358 310.481 48.358C310.715 48.358 310.949 48.358 311.183 48.358C311.183 48.016 311.183 47.728 311.183 47.512C311.183 47.17 311.147 46.612 311.075 46.27H313.505ZM322.361 48.484C323.081 48.466 323.783 48.43 324.125 48.394C325.637 48.268 328.607 47.998 331.901 47.728C333.755 47.566 335.717 47.458 336.995 47.404L337.013 49.708C336.041 49.726 334.493 49.726 333.539 49.96C331.361 50.536 329.723 52.858 329.723 55C329.723 57.97 332.495 59.032 335.555 59.194L334.709 61.66C330.929 61.408 327.365 59.392 327.365 55.486C327.365 52.894 328.823 50.842 330.047 49.924C328.355 50.104 324.683 50.5 322.595 50.95L322.361 48.484ZM334.439 51.472C334.889 52.12 335.537 53.218 335.879 53.92L334.511 54.532C334.061 53.542 333.683 52.84 333.107 52.03L334.439 51.472ZM336.455 50.644C336.905 51.274 337.589 52.336 337.967 53.038L336.617 53.686C336.131 52.714 335.717 52.048 335.141 51.256L336.455 50.644ZM189.05 86.946H196.394V84.75H189.176C189.158 85.434 189.122 86.19 189.05 86.946ZM196.394 80.52H189.176V82.716H196.394V80.52ZM198.662 78.432V91.662C198.662 92.958 198.356 93.57 197.528 93.93C196.664 94.308 195.404 94.344 193.55 94.344C193.424 93.714 192.992 92.688 192.65 92.094C193.91 92.166 195.422 92.148 195.818 92.148C196.25 92.148 196.394 92.004 196.394 91.626V89.016H188.69C188.222 91.032 187.322 92.994 185.648 94.398C185.324 93.948 184.46 93.156 183.992 92.85C186.71 90.528 186.962 87.09 186.962 84.354V78.432H198.662ZM216.644 84.03V82.932H213.08V84.03H216.644ZM216.644 86.604V85.506H213.08V86.604H216.644ZM216.644 89.232V88.116H213.08V89.232H216.644ZM211.154 81.33H213.422C213.494 80.934 213.566 80.502 213.638 80.106H210.614V78.288H219.02V80.106H215.906C215.762 80.538 215.618 80.952 215.474 81.33H218.66V90.816H211.154V81.33ZM204.476 80.736V81.978H202.748V79.08H205.628V77.622H207.626V79.08H210.56V81.978H208.778V80.736H204.476ZM207.716 91.698V90.042H205.538V91.698H207.716ZM205.574 88.386H208.616C208.166 88.026 207.626 87.63 207.086 87.216C206.6 87.648 206.096 88.044 205.574 88.386ZM207.734 83.598H205.988C205.862 83.76 205.736 83.904 205.61 84.066L206.852 84.876C207.194 84.48 207.482 84.048 207.734 83.598ZM209.534 89.142V92.868C210.722 92.382 211.982 91.554 212.63 90.888L214.358 91.968C213.422 92.886 211.838 93.84 210.524 94.362C210.29 94.074 209.894 93.678 209.534 93.336H205.538V94.056H203.738V89.394L203.36 89.556C203.126 89.088 202.658 88.368 202.28 88.026C203.468 87.612 204.602 86.964 205.592 86.136L204.404 85.308C204.152 85.524 203.9 85.74 203.63 85.92C203.342 85.578 202.676 84.93 202.28 84.678C203.684 83.796 204.926 82.428 205.574 80.916L207.32 81.348C207.194 81.636 207.068 81.906 206.906 82.176H208.58L208.904 82.086L210.11 82.644C209.696 83.868 209.084 84.948 208.328 85.884C209.3 86.532 210.182 87.18 210.776 87.684L209.57 89.178L209.534 89.142ZM215.15 91.95L216.698 90.978C217.652 91.644 218.966 92.634 219.614 93.318L217.958 94.416C217.382 93.732 216.122 92.67 215.15 91.95ZM226.616 84.876V85.848C227.498 86.514 229.28 88.044 229.766 88.422L228.524 90.258C228.092 89.7 227.336 88.89 226.616 88.152V94.362H224.546V87.918C223.736 89.556 222.782 91.104 221.792 92.148C221.576 91.518 221.054 90.6 220.712 90.06C222.008 88.8 223.322 86.748 224.132 84.876H221.126V82.914H224.546V80.682C223.52 80.88 222.494 81.042 221.522 81.168C221.432 80.7 221.162 79.944 220.91 79.494C223.502 79.116 226.4 78.432 228.146 77.64L229.658 79.296C228.758 79.656 227.714 79.962 226.616 80.232V82.914H229.712V84.876H226.616ZM232.646 79.764V89.826H230.558V79.764H232.646ZM234.806 77.928H236.93V91.788C236.93 93.03 236.678 93.624 235.94 93.966C235.202 94.326 233.996 94.398 232.358 94.38C232.268 93.768 231.944 92.778 231.62 92.166C232.79 92.22 233.942 92.22 234.32 92.22C234.662 92.202 234.806 92.094 234.806 91.77V77.928ZM248.9 87.126H252.698V84.912H248.9V87.126ZM243.302 87.126H246.74V84.912H243.356V85.236C243.356 85.812 243.338 86.46 243.302 87.126ZM246.74 80.826H243.356V82.914H246.74V80.826ZM252.698 82.914V80.826H248.9V82.914H252.698ZM254.822 78.792V91.86C254.822 93.012 254.57 93.588 253.85 93.912C253.112 94.272 252.014 94.308 250.394 94.29C250.322 93.714 249.98 92.796 249.71 92.238C250.718 92.292 251.906 92.274 252.23 92.274C252.572 92.274 252.698 92.166 252.698 91.842V89.142H248.9V94.164H246.74V89.142H243.068C242.744 91.104 242.096 93.084 240.8 94.488C240.458 94.092 239.594 93.354 239.108 93.102C241.07 90.942 241.232 87.738 241.232 85.218V78.792H254.822ZM269.942 80.736L268.844 82.338C268.286 81.636 267.044 80.664 266.054 79.998L267.08 78.558C268.088 79.152 269.366 80.07 269.942 80.736ZM265.226 84.516L266.234 82.986C267.278 83.544 268.61 84.408 269.258 85.056L268.178 86.766C267.584 86.1 266.27 85.146 265.226 84.516ZM263.606 78.576L265.406 78.972C264.938 80.412 264.416 82.122 263.966 83.166L262.616 82.788C262.976 81.654 263.408 79.836 263.606 78.576ZM260.114 82.788L258.512 83.22C258.476 82.104 258.116 80.358 257.702 79.062L259.196 78.666C259.664 79.962 260.024 81.672 260.114 82.788ZM265.028 88.71L263.714 90.366C263.444 89.79 262.94 88.854 262.418 88.026V94.344H260.438V87.99C259.862 89.664 259.142 91.338 258.368 92.418C258.188 91.77 257.72 90.798 257.396 90.204C258.296 89.106 259.214 87.18 259.772 85.542H257.72V83.544H260.438V77.658H262.418V83.544H265.082V85.542H262.418V85.668C262.94 86.19 264.65 88.206 265.028 88.71ZM274.55 89.124L272.39 89.52V94.38H270.374V89.88L265.352 90.78L265.028 88.782L270.374 87.828V77.568H272.39V87.468L274.226 87.126L274.55 89.124ZM283.55 78.738C283.442 79.206 283.316 79.782 283.226 80.232C283.118 80.772 282.974 81.438 282.848 82.086C283.46 82.05 283.982 82.014 284.36 82.014C286.268 82.014 287.618 82.86 287.618 85.452C287.618 87.576 287.366 90.492 286.592 92.058C285.998 93.318 285.008 93.714 283.64 93.714C282.956 93.714 282.092 93.588 281.48 93.462L281.102 91.086C281.786 91.284 282.83 91.464 283.298 91.464C283.91 91.464 284.36 91.284 284.648 90.69C285.134 89.664 285.386 87.486 285.386 85.704C285.386 84.264 284.756 84.066 283.64 84.066C283.352 84.066 282.902 84.102 282.38 84.138C281.696 86.874 280.364 91.14 278.708 93.786L276.368 92.85C278.114 90.492 279.356 86.856 280.022 84.39C279.374 84.462 278.798 84.534 278.474 84.57C277.952 84.66 277.016 84.786 276.458 84.876L276.242 82.428C276.908 82.482 277.502 82.446 278.168 82.428C278.726 82.41 279.572 82.356 280.49 82.266C280.742 80.916 280.904 79.602 280.868 78.468L283.55 78.738ZM291.56 77.244C292.028 77.928 292.694 79.062 293 79.692L291.578 80.304C291.2 79.566 290.624 78.504 290.12 77.82L291.56 77.244ZM289.418 78.054C289.868 78.72 290.516 79.854 290.858 80.52L289.976 80.898C291.056 82.572 292.406 85.578 292.91 87.18L290.624 88.224C290.156 86.226 288.878 83.058 287.6 81.474L289.22 80.772C288.86 80.088 288.41 79.224 287.996 78.648L289.418 78.054ZM306.518 83.652V81.348H305.15V83.652H306.518ZM306.518 87.846V85.56H305.15V87.846H306.518ZM298.958 85.56V87.846H300.254V85.56H298.958ZM303.368 85.56H302.036V87.846H303.368V85.56ZM302.036 83.652H303.368V81.348H302.036V83.652ZM298.958 81.348V83.652H300.254V81.348H298.958ZM297.068 83.652V82.356C296.708 82.698 296.366 83.022 296.006 83.292C295.61 82.914 294.746 82.23 294.26 81.888C295.772 80.898 297.194 79.26 297.986 77.586L300.074 78.198C299.876 78.63 299.642 79.044 299.372 79.458H310.172V81.348H308.48V83.652H310.82V85.56H308.48V87.846H310.568V89.754H294.926V87.846H297.068V85.56H294.656V83.652H297.068ZM296.51 94.416L294.476 93.588C295.268 92.832 296.078 91.446 296.492 90.132L298.562 90.636C298.166 92.004 297.392 93.48 296.51 94.416ZM299.714 90.762L301.694 90.528C301.91 91.626 302.126 93.048 302.144 93.894L300.056 94.2C300.056 93.336 299.912 91.86 299.714 90.762ZM303.278 90.798L305.294 90.456C305.726 91.518 306.176 92.922 306.338 93.804L304.196 94.218C304.088 93.354 303.674 91.896 303.278 90.798ZM306.842 90.708L308.894 90.06C309.704 91.158 310.712 92.67 311.162 93.66L308.966 94.398C308.588 93.444 307.634 91.86 306.842 90.708ZM325.022 80.736L323.924 82.338C323.366 81.636 322.124 80.664 321.134 79.998L322.16 78.558C323.168 79.152 324.446 80.07 325.022 80.736ZM320.306 84.516L321.314 82.986C322.358 83.544 323.69 84.408 324.338 85.056L323.258 86.766C322.664 86.1 321.35 85.146 320.306 84.516ZM318.686 78.576L320.486 78.972C320.018 80.412 319.496 82.122 319.046 83.166L317.696 82.788C318.056 81.654 318.488 79.836 318.686 78.576ZM315.194 82.788L313.592 83.22C313.556 82.104 313.196 80.358 312.782 79.062L314.276 78.666C314.744 79.962 315.104 81.672 315.194 82.788ZM320.108 88.71L318.794 90.366C318.524 89.79 318.02 88.854 317.498 88.026V94.344H315.518V87.99C314.942 89.664 314.222 91.338 313.448 92.418C313.268 91.77 312.8 90.798 312.476 90.204C313.376 89.106 314.294 87.18 314.852 85.542H312.8V83.544H315.518V77.658H317.498V83.544H320.162V85.542H317.498V85.668C318.02 86.19 319.73 88.206 320.108 88.71ZM329.63 89.124L327.47 89.52V94.38H325.454V89.88L320.432 90.78L320.108 88.782L325.454 87.828V77.568H327.47V87.468L329.306 87.126L329.63 89.124ZM338.522 88.206L338.036 82.05L337.946 79.368H340.934L340.844 82.05L340.358 88.206H338.522ZM339.44 92.994C338.522 92.994 337.856 92.346 337.856 91.41C337.856 90.456 338.54 89.808 339.44 89.808C340.34 89.808 341.024 90.456 341.024 91.41C341.024 92.346 340.34 92.994 339.44 92.994Z" fill="#333333"/>
<defs>
<clipPath id="clip0_474_5870">
<rect width="155" height="174" fill="white" transform="translate(0 51)"/>
</clipPath>
</defs>
</svg>
