<svg width="336" height="382" viewBox="0 0 336 382" fill="none" xmlns="http://www.w3.org/2000/svg">
<path d="M262.185 205.261C262.968 210.616 258.189 214.238 255.603 218.333L247.768 226.68H246.671C247.063 220.459 249.57 214.711 252.626 209.356C254.898 206.679 257.562 203.214 261.401 204.159L262.185 205.261Z" fill="black"/>
<path d="M261.245 206.049C262.028 208.018 260.461 209.829 259.678 211.561C256.544 216.443 252.391 220.38 248.082 224.475C249.022 219.357 251.216 214.16 254.036 209.514C255.917 207.703 257.797 205.183 260.618 205.262L261.245 206.049Z" fill="#FFCE00"/>
<path d="M220.188 229.042C222.225 229.908 225.124 230.302 225.829 232.664C225.829 233.845 225.359 235.184 224.262 236.129C231.157 245.972 235.075 259.122 231.471 271.406C230.844 274.634 229.355 277.784 228.963 281.013C226.299 281.17 224.262 283.69 221.598 284.32C219.953 284.871 217.837 284.477 216.27 285.265C212.118 285.501 208.435 284.95 204.361 284.477C204.674 285.816 205.928 287.233 207.181 288.415C211.256 291.564 216.27 292.745 221.441 291.249C221.99 291.171 222.695 291.249 222.852 291.879C221.912 295.501 219.013 298.336 216.584 301.328C220.815 302.037 224.889 303.14 229.277 303.376C231.862 299.045 234.84 294.95 236.955 290.462C235.545 288.73 234.683 286.603 235.075 284.32C235.467 280.383 240.795 279.753 240.403 275.501C241.421 272.351 243.145 269.989 244.007 266.839C247.141 261.563 248.63 255.657 252.156 250.618C254.741 248.728 257.719 250.696 260.148 251.405C264.692 253.846 269.863 255.106 273.468 259.437C274.016 262.744 272.214 265.894 271.274 269.044C269.158 276.524 263.987 282.745 261.558 290.147C260.774 291.643 259.051 291.722 257.797 290.934L256.23 290.147C254.271 292.667 251.921 294.478 248.865 295.029C248.003 295.108 246.123 294.714 246.044 296.289C243.38 304.399 240.168 312.274 234.448 319.124C233.038 320.227 231.079 320.306 229.433 320.227C228.337 322.117 226.064 320.542 224.576 321.014L221.912 321.172C222.147 326.605 224.889 332.038 225.202 337.708C226.143 344.48 228.101 351.882 227.083 358.496C223.87 360.78 219.561 359.913 215.957 361.016V367C219.953 367.237 224.419 368.339 225.986 372.512C226.378 373.536 225.986 374.717 225.673 375.662C219.248 381.568 209.062 380.229 201.227 379.284C199.503 379.048 197.857 378.576 196.369 377.709C194.958 372.434 195.82 367.788 195.585 362.276L195.272 361.961C191.119 361.882 187.201 362.118 183.362 361.803L183.049 362.118C182.187 367.394 182.97 373.615 181.168 378.339C178.034 381.568 173.568 380.072 169.572 381.174C161.972 380.78 154.293 382.828 147.633 378.654C146.301 377.788 146.458 376.135 146.693 374.875C149.749 371.41 154.215 369.284 158.916 368.89L159.23 365.583C158.133 364.008 157.976 362.118 157.036 360.543H152.021C150.924 359.677 152.099 357.63 152.178 356.134C153.431 347.708 153.431 339.598 155.155 331.723C154.685 331.093 153.98 331.881 153.275 331.881C147.477 332.117 140.582 334.007 135.88 329.519C132.903 319.912 138.858 311.25 145.283 304.793C148.339 301.643 151.629 298.887 155.469 297.076C154.215 294.95 152.883 292.745 152.335 290.304C146.928 287.548 143.324 281.8 142.932 275.816C143.559 273.69 144.578 271.485 146.85 270.619C146.615 266.918 145.988 263.138 146.223 259.437L141.052 264.634H139.328C137.212 262.272 135.254 259.909 134 257.232C137.369 255.106 141.13 253.846 144.499 251.72C143.481 250.382 141.6 249.909 140.268 248.728C139.485 247.94 137.839 247.074 138.544 245.736C140.19 243.61 142.227 240.932 144.656 239.436C145.283 239.672 145.675 238.964 146.066 239.751C147.32 242.428 148.574 245.106 150.141 247.625C150.611 246.523 151.081 245.184 151.551 244.003C152.491 241.169 154.215 238.727 155.312 235.971C155.86 231.877 164.714 230.302 160.326 225.892C160.562 225.105 159.151 224.239 160.483 224.002C163.539 223.688 166.203 225.026 168.789 225.42C168.162 224.16 167.535 222.9 167.378 221.483C169.807 220.065 172.628 221.561 175.057 221.955H175.37C175.37 220.853 174.665 219.593 174.273 218.49C177.799 218.018 181.56 218.884 184.616 220.38H184.772C185.086 219.514 183.362 218.097 185.086 217.546C187.201 217.861 188.925 219.278 190.884 220.065C191.197 218.884 190.179 217.309 191.197 216.286C202.245 217.073 213.058 220.302 220.188 229.042Z" fill="black"/>
<path d="M212.666 223.687C214.703 225.42 216.897 226.522 218.464 228.727C215.487 229.121 212.352 230.066 210.315 232.822C205.379 231.011 199.581 233.058 195.428 235.971C190.805 235.184 185.399 236.838 181.795 240.066C178.739 239.2 175.605 240.145 173.019 241.326C171.687 242.428 170.355 243.767 169.572 245.263C167.065 244.869 164.244 242.822 161.423 244.476L158.132 247.31C156.174 246.68 153.745 246.444 151.864 247.468C152.021 245.263 153.275 243.137 154.058 241.011C155.939 238.019 157.114 234.79 159.856 232.192C161.11 231.404 162.207 230.302 162.99 229.042C163.382 227.467 161.737 226.758 161.737 225.42C164.636 225.026 167.378 226.758 170.199 227.467C170.512 227.31 170.277 226.916 170.355 226.68H170.669C170.199 225.341 169.102 223.687 168.788 222.27C171.374 222.349 174.273 222.585 176.624 223.845C176.78 224.081 176.78 224.396 177.094 224.632C178.034 224.869 177.956 223.687 177.721 223.215C177.329 221.955 176.232 220.931 175.997 219.593C179.288 220.065 183.127 220.144 185.869 222.427C186.574 222.506 186.418 221.719 186.653 221.325L185.869 219.12C187.75 219.671 189.709 221.01 191.667 221.955H192.451C192.843 220.459 191.746 219.042 192.137 217.545C199.659 218.018 206.319 220.459 212.666 223.687Z" fill="#352C05"/>
<path d="M246.514 231.089C247.063 233.451 247.063 236.522 245.261 238.176C242.675 239.278 240.403 237.074 238.836 235.499C238.522 233.766 238.601 231.876 239.933 230.617C241.03 229.514 242.597 228.805 244.164 229.357C244.947 229.908 246.044 229.987 246.514 231.089Z" fill="black"/>
<path d="M224.575 232.664C224.732 235.027 222.303 235.657 220.815 236.759C219.247 237.31 217.445 237.389 215.643 237.546C215.016 235.657 213.293 234.869 211.882 233.609C212.117 232.428 213.371 231.877 214.233 231.247C217.915 229.83 221.755 229.593 224.575 232.664Z" fill="white"/>
<path d="M245.574 231.877C245.888 233.53 245.731 235.341 245.104 236.759C243.459 238.176 242.283 236.05 240.716 235.971C239.776 235.263 239.854 234.003 240.089 232.979C240.716 231.798 241.578 230.381 243.067 230.302C244.007 230.617 245.104 230.774 245.574 231.877Z" fill="#FFCE00"/>
<path d="M213.92 237.231C213.606 237.467 213.45 237.861 213.293 238.176L213.45 238.334C210.786 240.617 206.946 240.381 203.577 241.011C201.462 239.515 199.581 237.389 197.152 236.601C200.992 234.239 206.476 232.428 210.786 234.554C211.961 235.263 213.058 236.286 213.92 237.231Z" fill="white"/>
<path d="M225.202 239.594C225.046 239.751 224.262 239.83 224.419 240.381L224.262 240.538C224.105 240.223 224.027 239.83 223.635 239.594C222.852 239.672 221.755 239.357 221.441 240.223C220.736 239.908 220.423 240.696 220.344 241.168V241.641C219.953 241.247 219.718 241.483 219.247 241.641C219.012 243.058 217.994 244.791 218.934 246.208C219.326 246.208 219.718 246.287 219.874 245.893C219.953 245.421 219.718 244.869 220.031 244.476C220.344 244.633 220.658 244.869 221.128 244.791C221.676 244.554 221.363 243.924 221.441 243.531C222.46 243.609 223.557 242.586 224.419 243.846C224.81 243.767 225.281 243.452 225.359 243.058C225.907 244.476 227.866 242.822 227.866 244.791C230.217 250.224 231.706 256.445 231.47 262.587C231.549 261.012 230.844 259.831 229.747 258.807C229.042 258.492 228.18 258.649 227.553 258.964C225.986 257.153 223.557 255.5 220.971 255.972C218.464 257.547 216.897 259.516 217.054 262.587C215.251 264.004 213.293 265.421 213.449 267.941C214.076 269.673 215.095 271.327 216.74 272.508C220.579 273.689 225.046 271.642 228.65 269.673C229.982 268.571 231.157 266.839 231.314 264.949C231.157 269.988 229.355 274.398 228.023 278.965C221.755 284.95 210.942 284.792 202.95 282.745C202.715 282.902 202.402 282.902 202.167 283.217C202.715 286.052 205.066 288.336 207.338 290.304C209.14 292.194 211.961 291.722 213.919 293.139C215.957 293.454 219.247 293.296 221.285 292.667C216.819 304.006 204.596 305.344 194.958 308.415C187.28 308.651 179.053 310.463 172.393 306.21C172.863 304.163 172.863 301.722 172.706 299.281C169.807 299.123 167.613 301.801 165.341 303.376H164.087C161.423 301.722 160.091 297.864 157.036 297.234C155.782 295.344 154.45 293.454 153.901 291.249C155.468 291.879 157.427 291.485 158.603 290.304C159.151 289.753 159.229 289.281 158.916 288.572C158.054 288.178 158.054 289.202 157.662 289.517C154.528 291.564 151.472 288.099 149.044 286.367C146.536 282.666 142.775 278.729 144.969 273.926C145.674 273.138 146.38 272.036 147.476 271.721C148.025 272.508 148.495 271.406 149.044 271.248C151.551 271.012 153.51 272.036 155.155 273.768C155.547 274.004 156.095 273.926 156.409 273.453C154.528 270.855 151.316 269.595 148.103 269.988C147.712 266.76 147.555 262.902 147.633 260.067C148.652 259.437 149.279 260.539 150.297 260.382C156.644 261.169 160.796 256.996 165.341 254.082C166.595 255.263 168.318 254.24 169.729 254.555C173.96 253.767 176.702 249.279 181.638 250.303C186.104 249.358 189.552 244.554 194.645 245.263C197.074 244.397 199.659 243.924 201.853 242.428C206.084 241.798 211.099 242.113 214.546 239.121C217.759 239.121 220.423 238.334 223.322 237.074L225.202 239.594Z" fill="#FFE3CA"/>
<path d="M196.212 237.861C198.328 237.625 199.346 239.987 201.07 240.696C199.111 243.294 194.723 244.003 191.198 244.161C190.884 244.161 190.571 244.161 190.414 243.846C189.787 244.318 188.925 243.294 188.063 243.216C186.496 242.428 185.164 241.011 183.362 240.696C185.399 239.121 187.907 238.097 190.414 237.231C192.138 237.94 194.567 236.444 196.212 237.861Z" fill="white"/>
<path d="M149.357 248.885L147.163 251.562C146.458 251.011 145.361 250.854 144.656 249.988C142.854 249.043 141.052 247.861 139.642 246.365C140.974 244.239 142.854 241.877 145.126 240.696L149.357 248.885Z" fill="white"/>
<path d="M187.123 244.318C187.671 244.554 188.377 244.476 188.847 244.948C185.086 247.625 180.228 250.381 175.213 248.57L170.669 246.208C171.766 243.216 174.665 242.192 177.251 241.169C181.09 240.854 184.302 242.113 187.123 244.318Z" fill="white"/>
<path d="M209.532 244.161C211.099 243.924 211.021 245.972 212.509 245.421C212.509 246.129 213.136 246.602 213.136 247.31C212.588 247.625 212.274 248.728 211.569 248.098C211.413 247.232 210.786 246.523 209.845 246.366C208.827 246.208 207.417 245.893 206.555 246.68L205.928 246.051C205.771 246.917 204.596 246.838 204.831 247.94C204.047 247.862 204.047 248.728 203.264 248.57L202.794 247.783C202.01 248.334 202.637 249.751 201.383 249.83C201.227 250.696 201.227 252.035 200.13 252.035C200.051 252.744 200.286 252.98 199.973 253.61C199.503 253.767 199.346 253.374 199.033 253.137C198.798 251.484 199.425 250.303 199.66 248.885C201.775 249.122 199.895 245.814 202.167 246.208C202.48 245.106 202.715 243.846 204.204 244.161C204.596 243.373 205.693 243.688 206.398 243.373C206.711 244.161 206.946 243.137 207.338 243.216C207.965 243.688 209.14 243.373 209.532 244.161Z" fill="black"/>
<path d="M175.527 249.987V250.302C172.863 251.72 170.199 253.295 166.908 253.295L167.065 253.137C165.028 250.854 162.442 249.2 159.856 247.94C161.267 245.893 163.617 244.869 165.968 245.42C169.259 246.68 172.079 249.2 175.527 249.987Z" fill="white"/>
<path d="M164.558 252.665C160.405 256.523 154.842 260.303 148.887 258.649C147.869 257.783 147.555 255.814 147.947 254.239C148.025 251.641 150.376 249.909 152.335 248.727C156.801 247.231 161.345 249.672 164.558 252.665Z" fill="white"/>
<path d="M228.18 251.72C228.101 252.271 227.788 252.114 227.396 252.35C226.848 251.799 226.534 250.775 225.673 250.618C224.654 251.405 224.419 252.744 224.106 253.767C223.792 253.767 223.479 253.767 223.322 253.452C222.695 251.562 224.419 250.539 225.516 249.515C226.848 249.515 227.553 250.775 228.18 251.72Z" fill="black"/>
<path d="M269.864 257.547C275.662 260.696 269.707 265.972 269.55 270.146C267.435 276.76 263.047 282.351 260.775 288.887C260.305 289.517 259.443 290.776 258.581 289.832C254.585 288.02 250.51 285.422 246.201 284.005C244.869 283.453 245.574 281.721 244.947 280.697C244.791 279.595 243.85 278.807 243.067 278.02C242.283 278.335 241.813 277.784 241.03 277.863C241.97 274.083 244.086 270.854 245.261 267.153C246.828 265.185 247.063 262.429 248.552 260.539C250.197 257.311 251.059 254.161 253.566 251.405C255.682 250.617 257.641 252.113 259.678 252.507C263.125 254.003 266.573 255.657 269.864 257.547Z" fill="#9AB9E7"/>
<path d="M146.38 257.547L145.909 257.705C144.342 259.673 142.462 261.721 140.581 263.532H140.111C138.623 261.563 136.507 259.831 135.724 257.547C136.742 256.681 138.466 256.445 139.171 255.185C141.443 255.027 143.402 253.059 145.753 252.665C147.398 253.767 145.909 255.815 146.38 257.547Z" fill="white"/>
<path d="M269.237 259.752C270.804 261.72 269.08 263.925 268.453 265.736C265.554 265.894 263.36 263.532 260.618 262.902C257.797 261.484 254.976 260.067 252.312 258.334C252.548 256.287 253.488 254.004 255.447 253.295C260.304 254.712 264.536 257.862 269.237 259.752Z" fill="black"/>
<path d="M211.256 256.13C211.569 256.681 212.196 257.705 211.726 258.334C210.002 258.334 210.785 255.027 208.592 255.815C206.868 256.917 207.495 259.122 206.241 260.224C205.222 259.043 206.633 257.075 207.025 255.657C208.278 254.634 210.55 254.319 211.256 256.13Z" fill="black"/>
<path d="M268.61 260.854C269.08 262.114 268.453 263.295 267.826 264.319C266.808 264.555 266.024 264.004 265.005 263.532C261.244 261.563 257.405 259.909 253.723 257.705C253.958 256.602 254.506 255.421 255.446 254.712C260.304 256.051 264.065 258.807 268.61 260.854Z" fill="white"/>
<path d="M226.456 260.067C226.221 260.539 226.77 260.854 227.083 261.012C227.866 260.618 228.572 259.752 229.434 260.224C231.314 262.508 229.982 265.736 228.807 267.941C225.438 270.146 221.755 272.429 217.367 271.248C215.957 270.382 215.722 269.201 215.017 267.941C214.938 266.209 216.192 264.87 217.524 263.846C218.072 264.319 218.699 263.689 218.934 263.216C219.169 262.429 218.151 262.586 218.307 261.799C218.543 259.909 219.796 258.177 221.442 257.232C223.479 257.232 225.438 258.177 226.456 260.067Z" fill="#FFE3CA"/>
<path d="M153.431 262.114C153.51 262.429 153.431 262.744 153.118 262.902C151.864 262.272 150.14 262.823 149.043 261.957L149.357 261.327C150.689 261.563 152.413 261.405 153.431 262.114Z" fill="black"/>
<path d="M253.566 265.736C253.488 267.232 252.704 268.807 251.686 269.673C250.589 268.571 252.391 267.547 252.469 266.366C251.607 265.657 249.805 266.13 249.805 264.634L250.275 264.319C251.294 265.028 252.704 264.791 253.566 265.736Z" fill="black"/>
<path d="M153.901 265.421C153.98 267.469 151.237 265.894 150.14 266.366C150.14 266.13 149.905 265.973 149.984 265.736C151.002 264.949 152.726 265.264 153.901 265.421Z" fill="black"/>
<path d="M259.208 267.784C259.208 269.516 258.738 271.248 257.484 272.193C256.465 271.091 258.973 269.28 257.641 268.099C256.7 267.705 255.525 268.965 255.133 267.626C255.603 266.13 257.719 267.154 258.894 267.311L259.208 267.784Z" fill="black"/>
<path d="M265.162 269.988C265.241 271.563 264.065 273.532 262.655 274.083C262.263 272.902 263.673 272.114 264.065 271.091C263.673 269.437 260.226 271.17 261.245 269.043C262.655 269.122 263.987 269.437 265.162 269.988Z" fill="black"/>
<path d="M250.589 272.98C250.432 274.083 249.727 274.949 249.335 275.973C248.943 276.051 247.925 275.736 248.551 275.185C249.1 274.555 249.492 273.925 249.648 273.138C248.943 272.587 248.081 272.272 247.141 272.193V271.248C248.551 271.248 249.883 271.563 250.589 272.98Z" fill="black"/>
<path d="M257.327 274.083C257.17 275.264 257.17 276.839 256.073 277.39H255.76C255.368 276.524 256.543 275.185 255.917 274.24L254.036 274.083V272.98C255.211 273.138 256.465 273.138 257.327 274.083Z" fill="black"/>
<path d="M262.968 276.13C263.282 277.784 262.028 279.516 260.931 280.54C259.756 279.28 264.144 276.209 260.148 276.76C259.834 276.524 259.364 275.894 259.991 275.658C261.088 275.579 262.028 275.737 262.968 276.13Z" fill="black"/>
<path d="M155.312 277.705V278.02C153.98 277.863 153.118 276.603 151.708 276.603C150.846 276.681 150.141 276.996 149.514 277.548C148.574 279.28 149.827 280.934 150.297 282.43C151.081 283.375 152.021 284.556 153.275 284.635C154.763 285.186 155.704 283.06 156.722 283.69C156.722 284.635 155.625 285.028 154.999 285.422C153.196 286.052 151.473 285.107 150.297 284.162C148.652 282.193 147.32 279.674 148.26 277.075C149.592 276.209 151.238 275.422 152.961 275.973C153.745 276.524 155.077 276.445 155.312 277.705Z" fill="black"/>
<path d="M255.29 280.54C254.741 281.721 254.741 283.769 253.096 284.005C252.469 282.666 255.368 281.328 253.409 280.383C252.782 280.146 252.077 280.225 251.529 279.753C251.607 279.438 251.372 279.044 251.842 278.965C253.096 279.123 254.271 279.674 255.29 280.54Z" fill="black"/>
<path d="M243.694 280.855C244.399 282.509 243.85 283.926 243.067 285.422C243.302 285.973 243.929 285.659 244.321 285.58L244.947 284.792C248.238 286.367 251.607 287.863 254.82 289.674C253.174 293.06 249.492 293.533 246.044 293.612C242.754 301.958 239.854 310.699 233.978 317.865C232.803 319.046 231.001 319.203 229.434 318.967C230.609 313.219 227.945 304.793 232.881 300.069C234.84 297.785 235.623 295.029 237.426 292.667L238.366 290.147C236.955 288.572 235.859 286.761 236.329 284.635C236.72 281.958 239.698 280.068 241.97 279.28C242.989 279.044 243.302 280.225 243.694 280.855Z" fill="white"/>
<path d="M216.897 296.131C215.8 296.368 215.878 298.809 214.546 297.706C214.468 296.761 215.173 295.974 215.957 295.501C216.505 295.344 216.819 295.659 216.897 296.131Z" fill="black"/>
<path d="M212.039 299.753C211.648 300.068 211.648 301.407 210.786 300.698C211.177 299.517 211.177 298.1 212.039 297.233C213.058 297.785 212.118 298.966 212.039 299.753Z" fill="black"/>
<path d="M208.122 302.273C206.476 302.115 207.965 300.383 207.495 299.281C207.887 298.887 207.338 298.1 207.965 297.863L208.749 298.021L208.122 302.273Z" fill="black"/>
<path d="M205.144 302.273C203.656 301.801 204.126 299.675 203.577 298.336C203.812 298.178 204.126 298.178 204.361 298.336C204.831 299.517 205.379 301.171 205.144 302.273Z" fill="black"/>
<path d="M157.036 299.596C157.584 305.501 160.013 310.699 162.207 315.974C160.797 316.447 159.621 318.337 158.759 319.439C156.722 319.124 154.998 319.439 152.961 319.124C150.924 314.793 149.984 309.439 145.439 306.84V306.525C148.495 303.297 151.629 300.226 155.312 298.651C156.252 298.415 156.644 298.887 157.036 299.596Z" fill="white"/>
<path d="M202.01 301.643C201.932 302.352 202.872 302.825 202.324 303.533C200.835 302.903 200.913 300.698 200.286 299.281C200.13 298.887 200.6 298.809 200.913 298.809C202.01 299.439 201.383 300.777 202.01 301.643Z" fill="black"/>
<path d="M165.968 304.635C167.535 303.06 169.494 301.564 171.452 300.541C171.609 302.115 171.217 303.927 171.139 305.58C170.826 305.738 170.434 305.816 170.199 306.21L170.512 307.628C169.807 309.754 170.042 312.195 169.102 314.242C166.986 314.399 165.419 314.478 163.617 315.344C161.345 311.092 160.013 306.446 158.603 301.801L158.446 299.596C160.561 301.486 162.755 305.58 165.968 304.635Z" fill="#BBBCBC"/>
<path d="M228.493 304.635C228.18 304.793 228.18 305.108 228.18 305.423L228.807 306.053C228.336 310.935 228.493 315.108 228.023 319.754C227.004 320.227 225.751 319.518 224.419 319.754C223.008 319.99 220.501 320.305 220.815 318.022C219.404 312.825 217.602 307.785 214.546 303.218L215.173 302.431C219.796 303.139 223.792 304.163 228.493 304.635Z" fill="white"/>
<path d="M219.561 317.864C222.382 328.259 224.889 338.81 225.829 349.992L226.143 350.307C226.143 352.118 226.3 353.85 225.359 355.504C226.456 355.74 225.908 357.157 225.829 357.866C218.464 359.913 210.316 359.913 202.48 360.701C191.981 360.858 182.187 361.331 172.08 359.598C172.393 354.638 176.546 351.33 177.564 346.685C178.034 344.952 178.74 343.062 178.661 341.33C177.173 340.306 175.527 339.598 173.647 339.44C173.49 337.629 172.785 335.66 172.393 333.771C176.546 330.857 177.799 325.818 177.094 321.329C177.094 320.306 175.684 318.888 177.408 318.494L177.878 317.707C177.956 315.03 177.799 312.116 176.937 309.675C178.269 309.833 179.523 310.226 180.855 310.305C181.717 312.746 181.795 315.423 182.265 318.022C181.952 318.416 181.482 319.203 182.109 319.597C191.746 322.274 203.734 320.306 212.98 318.337C214.077 317.786 215.252 317.55 216.27 316.762L216.114 316.605C217.132 316.29 216.114 315.345 216.427 314.557C215.409 310.935 213.606 307.707 212.039 304.321C212.51 303.927 213.136 303.769 213.606 304.321C216.662 308.415 217.759 313.219 219.561 317.864Z" fill="#175296"/>
<path d="M210.786 305.108C212.744 308.494 214.546 311.959 215.33 315.817C209.532 318.652 202.872 318.337 196.525 319.439C192.059 319.518 187.828 319.439 183.676 318.337C183.519 315.581 182.814 313.061 182.422 310.462L191.511 310.305C195.193 312.274 198.719 316.053 203.42 314.085C207.26 312.667 210.08 309.203 210.472 305.108H210.786Z" fill="white"/>
<path d="M203.734 312.51C200.286 314.242 196.839 312.273 194.175 310.305V309.99C198.954 308.415 204.204 307.943 208.748 305.738C208.905 308.573 206.241 311.329 203.734 312.51Z" fill="white"/>
<path d="M167.378 308.258C167.143 309.754 168.632 311.486 166.751 312.195C166.673 310.62 166.281 308.651 166.438 306.998C167.378 306.762 167.143 307.785 167.378 308.258Z" fill="black"/>
<path d="M164.871 312.195C164.479 312.352 164.401 312.825 163.931 312.352C164.009 310.778 163.539 309.596 163.46 307.943C163.852 307.707 164.009 307.707 164.401 307.943C165.027 309.124 164.479 310.856 164.871 312.195Z" fill="black"/>
<path d="M150.297 315.66C150.768 316.605 151.316 317.786 151.238 318.809C150.376 318.652 149.044 318.337 148.417 319.124C148.417 319.518 148.574 319.833 148.887 320.069C152.57 319.912 154.842 320.936 158.446 320.542C158.995 320.699 159.151 321.644 159.856 321.172C160.17 320.621 161.267 320.306 160.64 319.439C163.382 315.896 167.77 315.03 172.079 315.975C174.822 317.55 175.762 320.699 176.154 323.692C176.232 327.471 174.587 331.015 171.296 332.983C168.005 334.086 164.166 334.952 160.483 334.243C158.759 333.219 156.879 331.802 155.625 330.149C149.671 331.251 141.679 333.141 136.821 328.574C135.019 320.306 139.171 313.927 144.186 307.943C147.868 308.888 148.965 313.14 150.297 315.66Z" fill="white"/>
<path d="M175.684 310.305C176.154 312.589 176.702 315.109 176.467 317.55L175.997 318.022C174.9 316.526 173.255 314.479 171.139 314.4C170.904 312.274 171.453 309.99 171.923 307.943C173.098 308.888 175.292 308.494 175.684 310.305Z" fill="white"/>
<path d="M160.483 335.503C160.013 336.684 159.386 337.708 159.073 338.968C156.644 345.267 155.86 352.433 156.722 359.283H152.961C154.058 350.858 154.45 341.172 156.252 332.826C157.663 333.771 158.838 335.188 160.483 335.503Z" fill="#175296"/>
<path d="M171.766 336.29C174.822 347.629 172.236 360.464 165.968 369.835C165.498 368.417 166.36 366.37 165.184 365.425C164.793 365.504 164.323 365.819 164.244 366.213C164.949 367.473 164.244 368.969 164.401 370.307C160.718 367 158.446 362.512 158.133 357.551C159.935 354.795 163.304 353.535 166.281 353.929C166.987 353.771 167.927 354.952 168.789 354.086C168.71 353.85 168.554 353.614 168.632 353.299C164.871 351.724 160.64 353.22 157.819 355.661C157.819 348.732 158.525 341.645 162.05 335.975C165.028 335.896 168.24 335.424 171.139 334.715L171.766 336.29Z" fill="#BBBCBC"/>
<path d="M177.407 341.96C176.702 345.661 175.684 349.361 173.646 352.511C174.195 349.519 173.96 344.637 173.803 340.857C175.057 340.542 176.31 341.251 177.407 341.96Z" fill="#BBBCBC"/>
<path d="M168.005 344.637C168.005 347.078 167.613 349.283 166.438 351.251C165.811 351.33 165.184 350.779 165.654 350.149C167.065 348.889 166.83 346.999 167.065 345.267C165.263 344.322 163.617 345.739 162.05 346.369C161.658 348.338 162.755 349.913 162.364 351.724C161.032 351.724 161.658 350.07 161.267 349.204L161.11 345.582C163.147 344.558 165.733 343.534 168.005 344.637Z" fill="black"/>
<path d="M168.475 356.764C169.259 358.26 169.18 360.622 168.005 361.961C167.3 362.984 165.968 362.906 165.028 362.906C163.696 362.512 163.774 361.016 163.147 360.071C162.99 358.181 164.636 356.606 166.125 355.819C167.143 355.583 168.005 356.055 168.475 356.764Z" fill="black"/>
<path d="M168.005 357.866C168.397 359.205 168.083 360.701 167.065 361.646C166.594 361.882 165.654 362.591 165.341 361.646C164.871 360.937 163.695 360.071 164.401 358.968C165.106 357.787 167.143 355.346 168.005 357.866Z" fill="white"/>
<path d="M166.751 359.283V359.913H165.341C165.263 359.441 165.419 359.126 165.811 358.811C166.203 358.732 166.673 358.811 166.751 359.283Z" fill="black"/>
<path d="M181.638 361.803C181.09 366.843 181.56 372.512 180.071 377.552C178.112 379.678 175.135 379.363 172.393 379.599C165.263 379.599 157.192 381.095 150.767 378.969C149.827 378.103 148.025 378.182 147.79 376.607C147.868 375.347 148.182 375.268 148.73 374.245C152.178 371.331 155.939 370.859 160.17 369.835L160.326 367.63C161.894 369.126 162.912 371.882 165.341 372.355C168.789 368.969 170.042 364.874 172.079 360.858C175.057 361.173 178.348 361.803 181.638 361.803Z" fill="#231815"/>
<path d="M214.703 368.103C215.8 368.811 217.054 368.496 218.464 368.575C221.206 369.048 223.714 370.465 225.046 372.985C225.202 374.166 224.889 375.19 223.792 375.662C221.677 376.922 219.326 377.552 217.054 378.497C210.315 378.891 203.499 379.442 197.466 376.765C196.29 372.355 197.074 367 196.839 362.433C203.107 361.961 208.043 362.04 214.546 361.173L214.703 368.103Z" fill="#231815"/>
<path d="M192.777 326.843C192.237 326.843 191.801 327.281 191.801 327.824V344.72C191.801 345.264 192.199 345.893 192.672 346.131L202.979 351.172C203.462 351.41 204.249 351.41 204.741 351.172L215.209 346.121C215.692 345.883 216.09 345.254 216.09 344.711V327.815C216.09 327.271 215.654 326.833 215.114 326.833H192.777V326.843Z" fill="white"/>
<path d="M197.655 345.759C195.997 345.759 194.652 344.406 194.652 342.738C194.652 341.071 195.997 339.717 197.655 339.717C199.313 339.717 200.667 341.071 200.667 342.738C200.667 344.406 199.322 345.759 197.655 345.759Z" fill="#2175D6"/>
<path d="M210.245 345.759C208.587 345.759 207.242 344.406 207.242 342.738C207.242 341.071 208.587 339.717 210.245 339.717C211.903 339.717 213.248 341.071 213.248 342.738C213.248 344.406 211.903 345.759 210.245 345.759Z" fill="#2175D6"/>
<path d="M212.349 333.608V337.811H206.058V348.894H201.644V337.735H194.842L194.757 333.256H201.644V328.567H206.058V333.332H208.881C208.218 332.779 207.801 331.941 207.801 331.007C207.801 329.339 209.147 327.986 210.804 327.986C212.462 327.986 213.807 329.339 213.807 331.007C213.807 332.112 213.22 333.075 212.339 333.608H212.349Z" fill="#2175D6"/>
<path d="M210.814 329.73C210.103 329.73 209.535 330.302 209.535 331.016C209.535 331.731 210.103 332.303 210.814 332.303C211.524 332.303 212.092 331.722 212.092 331.016C212.092 330.311 211.524 329.73 210.814 329.73Z" fill="white"/>
<path fill-rule="evenodd" clip-rule="evenodd" d="M168 188C260.784 188 336 145.915 336 94C336 42.0852 260.784 0 168 0C75.2162 0 0 42.0852 0 94C0 138.874 56.1984 176.404 131.364 185.758L146.884 204.152L152.849 187.623C157.84 187.873 162.893 188 168 188Z" fill="#FEE880"/>
<path d="M284.71 120.994C284.638 121.21 284.584 121.48 284.53 121.768C284.278 122.992 283.972 125.296 283.972 127.222C283.972 129.49 284.386 131.218 284.854 132.64L283.36 133.072C282.91 131.74 282.478 129.526 282.478 127.438C282.478 125.224 282.784 123.082 282.928 121.768C282.946 121.516 282.964 121.174 282.964 120.958L284.71 120.994ZM281.992 122.794C284.53 122.794 287.158 122.596 289.48 122.092L289.498 123.568C287.428 123.91 284.188 124.18 281.992 124.18C281.29 124.18 280.102 124.126 279.454 124.072L279.418 122.596C279.922 122.668 281.344 122.794 281.992 122.794ZM288.436 124.774C288.346 125.008 288.148 125.62 288.058 125.89C287.158 128.608 285.79 130.534 284.152 131.776C283.144 132.532 281.83 133.072 280.822 133.072C279.706 133.072 278.842 132.532 278.842 131.056C278.842 128.806 280.876 126.736 283.108 125.908C284.116 125.53 285.304 125.314 286.33 125.314C289.354 125.314 291.136 127.042 291.136 129.256C291.136 131.272 289.786 133.288 286.168 133.9L285.304 132.514C288.058 132.226 289.516 130.822 289.516 129.112C289.516 127.726 288.364 126.61 286.258 126.61C284.98 126.61 283.9 126.97 283.18 127.294C281.686 127.96 280.318 129.454 280.318 130.804C280.318 131.308 280.606 131.596 281.11 131.596C281.758 131.596 282.712 131.164 283.612 130.39C284.854 129.328 286.006 127.816 286.654 125.584C286.744 125.332 286.888 124.666 286.906 124.414L288.436 124.774Z" fill="#333333"/>
<path d="M259.348 121.462C260.068 121.552 260.914 121.588 261.634 121.588C263.704 121.588 266.044 121.282 267.97 120.652L268.024 122.326C266.35 122.776 263.884 123.208 261.652 123.19C260.95 123.19 260.194 123.172 259.474 123.136L259.348 121.462ZM266.008 118.636C265.774 119.536 265.36 121.264 264.91 122.65C264.064 125.242 262.426 128.554 260.914 130.624L259.186 129.724C260.788 127.798 262.444 124.63 263.164 122.578C263.578 121.372 263.974 119.752 264.028 118.438L266.008 118.636ZM270.238 124.216C270.184 124.954 270.202 125.602 270.22 126.304C270.256 127.438 270.418 130.138 270.418 131.254C270.418 132.802 269.5 134.026 267.124 134.026C265.036 134.026 263.362 133.144 263.362 131.272C263.362 129.562 264.892 128.392 267.124 128.392C270.202 128.392 272.578 129.922 274.072 131.236L273.118 132.766C271.768 131.542 269.716 129.814 267.034 129.814C265.828 129.814 265.036 130.372 265.036 131.11C265.036 131.866 265.666 132.388 266.89 132.388C268.276 132.388 268.726 131.65 268.726 130.66C268.726 129.418 268.528 126.16 268.456 124.216H270.238ZM273.622 124.9C272.614 124.072 270.616 122.938 269.41 122.38L270.328 120.994C271.624 121.552 273.748 122.74 274.63 123.406L273.622 124.9Z" fill="#333333"/>
<path d="M247.396 118.996C247.27 119.428 247.108 120.166 247.036 120.544C246.784 121.804 246.37 123.91 245.884 125.728C245.236 128.266 244.03 131.974 243.058 134.008L241.078 133.342C242.158 131.506 243.472 127.798 244.138 125.26C244.588 123.586 245.038 121.462 245.164 120.454C245.236 119.878 245.272 119.212 245.218 118.816L247.396 118.996ZM243.148 121.858C245.218 121.858 247.81 121.534 250.096 120.976V122.758C247.864 123.262 245.092 123.568 243.112 123.568C242.284 123.568 241.636 123.532 240.988 123.496L240.934 121.732C241.816 121.84 242.446 121.858 243.148 121.858ZM248.818 124.468C249.79 124.36 251.014 124.288 252.184 124.288C253.228 124.288 254.308 124.342 255.316 124.45L255.28 126.16C254.362 126.052 253.282 125.944 252.22 125.944C251.032 125.944 249.934 125.998 248.818 126.142V124.468ZM249.448 128.896C249.304 129.454 249.196 130.03 249.196 130.462C249.196 131.29 249.7 132.01 251.986 132.01C253.174 132.01 254.416 131.884 255.604 131.65L255.532 133.468C254.542 133.612 253.336 133.738 251.968 133.738C249.052 133.738 247.468 132.784 247.468 130.984C247.468 130.228 247.594 129.472 247.756 128.734L249.448 128.896ZM253.372 119.536C253.84 120.184 254.488 121.3 254.83 122.002L253.66 122.524C253.3 121.786 252.706 120.706 252.22 120.022L253.372 119.536ZM255.424 118.762C255.91 119.428 256.594 120.562 256.918 121.228L255.748 121.732C255.37 120.958 254.776 119.932 254.272 119.248L255.424 118.762Z" fill="#333333"/>
<path d="M222.574 123.208H231.16V124.792H222.574V123.208ZM232.222 119.968H233.878V129.994H232.222V119.968ZM226.192 119.446H227.866V134.494H226.192V119.446ZM236.578 118.15H238.27V132.352C238.27 133.432 238.018 133.918 237.37 134.206C236.704 134.476 235.624 134.53 233.968 134.53C233.878 134.044 233.608 133.27 233.356 132.784C234.598 132.82 235.732 132.82 236.092 132.82C236.434 132.802 236.578 132.694 236.578 132.352V118.15ZM229.792 117.898L231.034 119.212C228.856 120.076 225.652 120.67 222.916 121.03C222.844 120.634 222.61 120.058 222.394 119.698C225.04 119.32 228.082 118.672 229.792 117.898ZM226.156 123.946L227.344 124.45C226.426 127.168 224.752 130.39 223.06 132.136C222.88 131.632 222.448 130.93 222.16 130.48C223.726 128.986 225.4 126.214 226.156 123.946ZM227.632 125.782C228.316 126.25 230.602 128.212 231.16 128.698L230.17 130.156C229.414 129.256 227.578 127.438 226.732 126.682L227.632 125.782Z" fill="#333333"/>
<path d="M209.704 118.798H220.81V120.31H209.704V118.798ZM211 129.04C212.71 131.398 216.454 132.55 221.296 132.82C220.918 133.216 220.486 133.936 220.27 134.404C215.302 133.972 211.576 132.568 209.506 129.544L211 129.04ZM211.666 125.746V127.384H218.614V125.746H211.666ZM211.666 122.92V124.522H218.614V122.92H211.666ZM210.082 121.642H220.27V128.662H210.082V121.642ZM214.402 119.248H216.076V126.538C216.076 129.868 215.122 132.982 209.614 134.566C209.416 134.17 208.93 133.504 208.57 133.162C214.006 131.992 214.402 129.292 214.402 126.52V119.248ZM208.174 117.88L209.776 118.366C208.714 121.408 207.04 124.558 205.222 126.61C205.06 126.196 204.574 125.296 204.268 124.882C205.834 123.172 207.31 120.526 208.174 117.88ZM206.464 122.668L208.066 121.048L208.084 121.066V134.494H206.464V122.668Z" fill="#333333"/>
<path d="M187.06 120.94C187.762 120.922 188.392 120.886 188.734 120.85C190.048 120.724 193.27 120.418 196.564 120.148C198.49 119.986 200.29 119.878 201.532 119.824L201.55 121.642C200.542 121.642 198.976 121.66 198.04 121.912C195.646 122.632 194.044 125.188 194.044 127.33C194.044 130.606 197.104 131.704 200.092 131.83L199.426 133.738C195.898 133.558 192.208 131.686 192.208 127.708C192.208 125.008 193.81 122.812 195.268 121.858C193.45 122.056 189.256 122.47 187.258 122.902L187.06 120.94ZM198.958 123.658C199.39 124.27 200.056 125.386 200.416 126.142L199.3 126.646C198.868 125.728 198.418 124.9 197.86 124.126L198.958 123.658ZM200.938 122.866C201.388 123.478 202.09 124.558 202.486 125.314L201.37 125.854C200.92 124.936 200.434 124.144 199.876 123.37L200.938 122.866Z" fill="#333333"/>
<path d="M178.078 120.706C177.844 122.56 177.484 124.666 176.89 126.664C175.792 130.336 174.316 132.388 172.516 132.388C170.734 132.388 169.114 130.39 169.114 127.384C169.114 123.37 172.642 119.896 177.16 119.896C181.48 119.896 184.216 122.92 184.216 126.7C184.216 130.48 181.804 133.072 177.412 133.684L176.35 132.01C176.98 131.938 177.502 131.848 177.952 131.758C180.256 131.218 182.326 129.526 182.326 126.628C182.326 123.766 180.436 121.552 177.124 121.552C173.218 121.552 170.914 124.738 170.914 127.222C170.914 129.292 171.814 130.246 172.57 130.246C173.38 130.246 174.226 129.058 175.072 126.286C175.594 124.576 175.99 122.524 176.17 120.652L178.078 120.706Z" fill="#333333"/>
<path d="M153.868 119.554C154.318 119.608 154.876 119.626 155.29 119.626C156.244 119.626 160.33 119.518 161.32 119.428C161.95 119.374 162.274 119.32 162.472 119.248L163.444 120.544C163.084 120.796 162.688 121.03 162.328 121.318C161.392 122.002 159.196 123.874 157.9 124.918C158.638 124.702 159.358 124.63 160.06 124.63C163.084 124.63 165.298 126.466 165.298 128.986C165.298 131.866 163.012 133.9 158.962 133.9C156.496 133.9 154.822 132.802 154.822 131.164C154.822 129.832 156.028 128.626 157.792 128.626C160.222 128.626 161.5 130.3 161.59 132.19L159.934 132.442C159.862 131.002 159.07 129.994 157.792 129.994C157.036 129.994 156.496 130.462 156.496 131.02C156.496 131.794 157.378 132.298 158.638 132.298C161.698 132.298 163.462 131.074 163.462 128.968C163.462 127.258 161.806 126.034 159.556 126.034C156.658 126.034 154.966 127.384 152.842 129.652L151.546 128.32C152.95 127.186 155.2 125.296 156.244 124.414C157.252 123.586 159.34 121.858 160.24 121.066C159.304 121.102 156.19 121.228 155.236 121.282C154.804 121.318 154.318 121.354 153.922 121.408L153.868 119.554Z" fill="#333333"/>
<path d="M139.792 118.888C139.702 119.284 139.612 119.752 139.522 120.148C139.378 120.868 139.144 122.182 138.928 123.208C138.334 125.746 136.966 130.516 135.004 133.684L133.15 132.946C135.238 130.156 136.642 125.368 137.128 123.136C137.47 121.624 137.686 120.04 137.686 118.672L139.792 118.888ZM145.984 120.706C147.1 122.2 148.648 125.566 149.224 127.258L147.442 128.104C146.938 126.178 145.588 122.974 144.31 121.444L145.984 120.706ZM132.952 122.722C133.546 122.758 134.086 122.74 134.698 122.722C136.084 122.686 139.63 122.29 140.908 122.29C142.636 122.29 143.968 123.01 143.968 125.512C143.968 127.654 143.698 130.534 142.942 132.064C142.348 133.288 141.412 133.63 140.17 133.63C139.468 133.63 138.622 133.504 138.028 133.378L137.722 131.488C138.46 131.704 139.432 131.866 139.936 131.866C140.566 131.866 141.07 131.704 141.412 131.002C141.952 129.868 142.204 127.6 142.204 125.728C142.204 124.162 141.502 123.91 140.368 123.91C139.216 123.91 135.976 124.288 134.914 124.414C134.464 124.486 133.618 124.594 133.132 124.666L132.952 122.722Z" fill="#333333"/>
<path d="M123.088 131.542C126.184 131.092 128.722 129.724 128.704 126.754C128.704 125.368 127.588 123.766 125.464 123.766C123.16 123.766 121.144 125.062 119.398 126.898V124.882C121.558 122.848 123.844 122.11 125.752 122.11C128.362 122.11 130.558 123.964 130.576 126.79C130.576 130.426 128.092 132.442 123.934 133.252L123.088 131.542ZM119.02 123.244C118.336 123.316 116.482 123.568 115.222 123.748L115.024 121.894C115.474 121.912 115.852 121.912 116.374 121.876C117.418 121.822 119.686 121.516 120.514 121.246L121.126 122.002C120.802 122.452 120.298 123.28 119.992 123.766L119.218 126.628C118.408 127.852 116.77 130.264 115.726 131.722L114.592 130.174C115.726 128.77 118.03 125.656 118.822 124.378L118.876 123.658L119.02 123.244ZM118.822 120.04C118.822 119.59 118.84 119.086 118.75 118.582L120.856 118.654C120.586 119.932 120.01 124.9 120.01 128.086C120.01 129.652 120.01 130.93 120.1 132.568C120.118 132.892 120.172 133.432 120.208 133.792H118.246C118.282 133.486 118.3 132.91 118.3 132.622C118.318 130.876 118.336 129.832 118.372 127.744C118.408 126.142 118.822 120.742 118.822 120.04Z" fill="#333333"/>
<path d="M97.0596 120.94C97.7616 120.922 98.3916 120.886 98.7336 120.85C100.048 120.724 103.27 120.418 106.564 120.148C108.49 119.986 110.29 119.878 111.532 119.824L111.55 121.642C110.542 121.642 108.976 121.66 108.04 121.912C105.646 122.632 104.044 125.188 104.044 127.33C104.044 130.606 107.104 131.704 110.092 131.83L109.426 133.738C105.898 133.558 102.208 131.686 102.208 127.708C102.208 125.008 103.81 122.812 105.268 121.858C103.45 122.056 99.2556 122.47 97.2576 122.902L97.0596 120.94ZM108.958 123.658C109.39 124.27 110.056 125.386 110.416 126.142L109.3 126.646C108.868 125.728 108.418 124.9 107.86 124.126L108.958 123.658ZM110.938 122.866C111.388 123.478 112.09 124.558 112.486 125.314L111.37 125.854C110.92 124.936 110.434 124.144 109.876 123.37L110.938 122.866Z" fill="#333333"/>
<path d="M81.6337 123.082H91.7677V124.702H81.6337V123.082ZM81.6337 127.312H91.7677V128.932H81.6337V127.312ZM81.6337 131.542H91.7677V133.198H81.6337V131.542ZM80.4277 118.87H92.9197V134.386H91.1197V120.544H82.1377V134.386H80.4277V118.87Z" fill="#333333"/>
<path d="M74.5239 122.38C74.056 122.65 73.5519 122.92 72.9579 123.226C71.7879 123.82 69.3939 124.954 67.684 126.07C66.082 127.114 65.0739 128.23 65.0739 129.544C65.0739 130.948 66.4239 131.776 69.1239 131.776C71.0319 131.776 73.4439 131.524 74.9379 131.146L74.9199 133.18C73.48 133.432 71.4819 133.63 69.1959 133.63C65.7219 133.63 63.1479 132.622 63.1479 129.76C63.1479 127.654 64.6239 126.088 66.7479 124.684C68.5299 123.496 70.9419 122.344 72.076 121.696C72.6699 121.354 73.1199 121.084 73.5339 120.742L74.5239 122.38ZM65.4339 118.852C66.2799 121.192 67.3959 123.406 68.2419 124.882L66.6579 125.818C65.7039 124.27 64.6239 121.876 63.6519 119.59L65.4339 118.852Z" fill="#333333"/>
<path d="M55.5927 119.5C55.9527 121.714 56.7087 124.684 59.4087 127.132L58.2387 128.77C56.2587 126.61 54.9447 123.784 53.7927 120.004L55.5927 119.5ZM44.0547 120.436C44.3427 120.454 44.7207 120.454 45.0447 120.436C46.7007 120.364 49.7067 119.95 50.8407 119.536L51.3627 121.12C51.1107 121.21 50.6967 121.336 50.4267 121.48C49.2387 122.362 46.6467 125.35 46.6467 128.932C46.6467 131.29 48.1767 132.136 49.9767 132.136C54.1707 132.136 55.5207 127.564 54.0447 120.598L55.7187 123.478C56.6727 128.482 55.7367 134.026 49.9227 134.026C47.0787 134.026 44.8287 132.442 44.8287 129.328C44.8287 126.16 46.3587 123.748 47.9967 121.804C47.1687 121.912 45.8367 122.074 45.2427 122.146C44.8827 122.2 44.5767 122.236 44.1987 122.308L44.0547 120.436Z" fill="#333333"/>
<path d="M241.132 88.868C241.834 88.85 242.464 88.814 242.824 88.778C244.138 88.652 247.342 88.346 250.654 88.058C252.562 87.896 254.38 87.788 255.604 87.752L255.622 89.57C254.614 89.57 253.048 89.588 252.112 89.822C249.718 90.542 248.134 93.116 248.134 95.24C248.134 98.516 251.194 99.614 254.164 99.758L253.516 101.666C249.988 101.486 246.298 99.596 246.298 95.636C246.298 92.918 247.9 90.74 249.358 89.786C247.522 89.984 243.346 90.398 241.33 90.83L241.132 88.868Z" fill="#333333"/>
<path d="M228.627 86.87C228.537 87.536 228.465 88.292 228.429 88.94C228.357 90.938 228.213 95.096 228.213 97.58C228.213 99.488 229.383 100.136 230.967 100.136C234.117 100.136 235.989 98.354 237.285 96.446L238.581 97.994C237.375 99.722 234.945 102.044 230.931 102.044C228.177 102.044 226.341 100.874 226.341 97.868C226.341 95.312 226.521 90.686 226.521 88.94C226.521 88.202 226.467 87.4641 226.341 86.8521L228.627 86.87Z" fill="#333333"/>
<path d="M219.069 90.3801C218.601 90.6501 218.097 90.92 217.503 91.226C216.333 91.82 213.939 92.954 212.229 94.07C210.627 95.114 209.619 96.23 209.619 97.544C209.619 98.948 210.969 99.776 213.669 99.776C215.577 99.776 217.989 99.524 219.483 99.146L219.465 101.18C218.025 101.432 216.027 101.63 213.741 101.63C210.267 101.63 207.693 100.622 207.693 97.76C207.693 95.654 209.169 94.088 211.293 92.684C213.075 91.496 215.487 90.344 216.621 89.696C217.215 89.354 217.665 89.084 218.079 88.7421L219.069 90.3801ZM209.979 86.8521C210.825 89.1921 211.941 91.406 212.787 92.882L211.203 93.818C210.249 92.2701 209.169 89.8761 208.197 87.59L209.979 86.8521Z" fill="#333333"/>
<path d="M189.423 90.3798H192.987V91.5678H189.423V90.3798ZM190.179 85.8438H191.763V88.4718H190.179V85.8438ZM188.973 96.5538H193.743V101.396H188.973V100.064H192.267V97.8858H188.973V96.5538ZM187.173 87.3918H194.787V90.1278H193.347V88.7418H188.559V90.1278H187.173V87.3918ZM188.181 96.5538H189.621V102.206H188.181V96.5538ZM192.699 90.3798H192.969L193.221 90.3078L194.193 90.7578C193.023 94.1238 190.377 96.4278 187.533 97.6338C187.335 97.2738 186.939 96.6978 186.633 96.4098C189.243 95.4558 191.763 93.2958 192.699 90.6318V90.3798ZM189.999 89.0657L191.403 89.4258C190.611 91.2618 189.225 92.9178 187.803 93.9978C187.569 93.7278 187.011 93.2057 186.687 92.9897C188.091 92.0717 189.333 90.6318 189.999 89.0657ZM188.361 92.8638L189.279 91.8378C191.133 93.0618 193.725 94.8798 195.003 96.0138L194.013 97.2198C192.789 96.0318 190.251 94.1597 188.361 92.8638ZM194.931 86.5998H203.355V88.0578H194.931V86.5998ZM197.091 93.5478V95.0058H201.303V93.5478H197.091ZM197.091 96.2298V97.7238H201.303V96.2298H197.091ZM197.091 90.8658V92.3238H201.303V90.8658H197.091ZM195.561 89.5698H202.923V99.0198H195.561V89.5698ZM198.315 87.3377L200.169 87.5718C199.845 88.6338 199.449 89.7858 199.143 90.5418L197.721 90.2538C197.937 89.4258 198.189 88.2018 198.315 87.3377ZM197.055 99.2538L198.477 100.118C197.541 101.036 195.993 101.972 194.679 102.494C194.409 102.188 193.923 101.702 193.563 101.396C194.877 100.91 196.353 100.01 197.055 99.2538ZM199.647 100.136L200.889 99.3258C201.915 99.9918 203.247 100.982 203.913 101.666L202.581 102.548C201.969 101.882 200.673 100.838 199.647 100.136Z" fill="#333333"/>
<path d="M177.2 87.446C175.706 89.57 172.862 92 169.874 93.602C169.658 93.188 169.19 92.576 168.812 92.216C171.909 90.686 174.86 88.004 176.228 85.772H177.992C179.918 88.436 182.943 90.794 185.787 92C185.373 92.432 184.959 93.008 184.653 93.53C181.881 92.09 178.82 89.624 177.2 87.446ZM172.718 91.262H181.754V92.774H172.718V91.262ZM170.468 94.898H184.004V96.392H170.468V94.898ZM169.604 100.496H184.959V101.972H169.604V100.496ZM176.282 91.856H178.082V101.252H176.282V91.856ZM171.8 97.202L173.168 96.644C173.888 97.598 174.627 98.912 174.879 99.776L173.42 100.424C173.186 99.56 172.484 98.192 171.8 97.202ZM181.106 96.626L182.726 97.256C182.006 98.372 181.196 99.614 180.53 100.424L179.252 99.884C179.882 99.002 180.674 97.634 181.106 96.626Z" fill="#333333"/>
<path d="M154.161 91.2797H164.421V92.9177H154.161V91.2797ZM159.255 95.5997H165.321V97.1837H159.255V95.5997ZM158.355 92.1797H160.137V101.108L158.355 100.892V92.1797ZM154.071 94.2137L155.853 94.4117C155.367 98.0477 154.233 100.856 152.199 102.62C151.911 102.314 151.191 101.72 150.795 101.468C152.775 99.9557 153.711 97.4177 154.071 94.2137ZM155.313 96.5177C156.537 100.028 159.219 100.604 162.675 100.604C163.467 100.604 166.527 100.604 167.553 100.568C167.301 100.982 167.013 101.792 166.941 102.314H162.585C158.355 102.314 155.475 101.468 153.927 97.0037L155.313 96.5177ZM158.337 85.8257H160.137V88.9037H158.337V85.8257ZM151.659 87.7877H166.887V91.9637H165.141V89.3897H153.333V91.9637H151.659V87.7877Z" fill="#333333"/>
<path d="M140.499 93.872H142.263V100.55C142.263 101.504 142.029 101.972 141.291 102.206C140.571 102.458 139.455 102.476 137.889 102.476C137.799 101.99 137.511 101.288 137.259 100.838C138.429 100.874 139.707 100.874 140.067 100.856C140.391 100.838 140.499 100.766 140.499 100.496V93.872ZM134.883 86.798H146.115V88.382H134.883V86.798ZM145.485 86.798H145.935L146.313 86.708L147.537 87.662C146.025 89.174 143.847 90.83 141.957 91.874C141.723 91.532 141.219 91.01 140.913 90.74C142.551 89.858 144.549 88.274 145.485 87.176V86.798ZM133.173 92.594H148.077V94.232H133.173V92.594ZM137.367 90.56L138.249 89.282C140.283 90.056 143.289 91.28 144.837 92.036L143.919 93.494C142.461 92.72 139.491 91.406 137.367 90.56ZM147.501 92.594H147.825L148.149 92.486L149.517 93.098C148.635 94.718 147.501 96.5 146.439 97.634L144.999 96.788C145.845 95.816 146.871 94.232 147.501 92.9V92.594Z" fill="#333333"/>
<path d="M118.575 88.3099C118.467 88.8319 118.395 89.7679 118.395 90.2539C118.377 91.4059 118.395 92.9179 118.503 94.3219C118.791 97.1479 119.511 99.0559 120.735 99.0559C121.617 99.0559 122.409 97.0759 122.823 95.4379L124.245 97.1119C123.111 100.208 122.013 101.27 120.699 101.27C118.863 101.27 117.207 99.5419 116.703 94.8079C116.541 93.2059 116.505 91.0459 116.505 89.9839C116.505 89.5339 116.487 88.7599 116.379 88.2739L118.575 88.3099ZM127.773 88.7779C129.429 90.8479 130.761 94.9699 130.995 97.8859L129.159 98.6239C128.853 95.5279 127.827 91.5319 125.991 89.3719L127.773 88.7779Z" fill="#333333"/>
<path d="M106.929 86.294L108.801 86.618C107.991 91.388 106.623 97.256 105.435 101.036L103.815 100.694C104.985 96.896 106.317 90.866 106.929 86.294ZM102.105 100.37C104.517 100.154 108.423 99.704 112.095 99.254L112.167 100.838C108.729 101.342 105.039 101.81 102.483 102.152L102.105 100.37ZM108.891 94.628L110.385 94.088C111.807 96.554 113.283 99.794 113.823 101.864L112.149 102.512C111.699 100.46 110.295 97.148 108.891 94.628ZM97.0469 89.39H103.941V90.992H97.0469V89.39ZM99.7829 85.79H101.457V100.55C101.457 101.504 101.241 101.954 100.683 102.224C100.089 102.494 99.2069 102.53 97.8389 102.53C97.7489 102.098 97.5509 101.378 97.3169 100.928C98.2169 100.964 99.1349 100.946 99.4049 100.946C99.6929 100.928 99.7829 100.838 99.7829 100.55V85.79ZM96.7949 95.132C98.5949 94.79 101.403 94.178 104.049 93.584L104.175 95.096C101.727 95.708 99.1169 96.356 97.1729 96.806L96.7949 95.132Z" fill="#333333"/>
<path d="M83.7988 94.1416C85.7248 97.9396 89.8108 100.19 95.6608 100.928C95.2828 101.324 94.8148 102.08 94.5628 102.566C88.5328 101.666 84.5008 99.1456 82.2148 94.6996L83.7988 94.1416ZM80.4328 92.5756H92.0788V94.2316H80.4328V92.5756ZM79.5868 88.3996H94.8868V90.0916H79.5868V88.3996ZM86.3368 85.8076H88.1008V93.3316H86.3368V85.8076ZM91.5388 92.5756H91.9168L92.2228 92.5036L93.4108 93.1876C91.1968 98.8756 85.9048 101.45 79.8208 102.512C79.6588 102.08 79.2088 101.27 78.8848 100.892C84.8248 100.028 89.7748 97.8136 91.5388 92.8816V92.5756Z" fill="#333333"/>
<path d="M253.594 70.1158C252.46 68.7298 250.912 67.1818 249.652 66.1198L251.128 64.8418C252.424 65.8858 254.098 67.5778 255.124 68.8018L253.594 70.1158Z" fill="#333333"/>
<path d="M239.042 54.9779C238.952 55.3739 238.862 55.8419 238.79 56.2379C238.646 56.9579 238.412 58.2719 238.178 59.2979C237.584 61.8359 236.234 66.6059 234.254 69.7739L232.4 69.0359C234.488 66.2459 235.892 61.4579 236.396 59.2259C236.72 57.7139 236.954 56.1299 236.936 54.7619L239.042 54.9779ZM245.234 56.9399C246.35 58.4519 247.898 61.7459 248.474 63.4379L246.692 64.2659C246.188 62.3579 244.838 59.2079 243.56 57.6779L245.234 56.9399ZM232.202 58.8119C232.814 58.8479 233.336 58.8299 233.948 58.8119C235.334 58.7759 238.898 58.3799 240.158 58.3799C241.904 58.3799 243.236 59.0999 243.236 61.6019C243.236 63.7439 242.948 66.6239 242.192 68.1539C241.616 69.3779 240.68 69.7199 239.42 69.7199C238.736 69.7199 237.872 69.5939 237.296 69.4679L236.99 67.5779C237.71 67.7939 238.7 67.9559 239.186 67.9559C239.834 67.9559 240.338 67.7939 240.662 67.0919C241.202 65.9579 241.472 63.6899 241.472 61.8179C241.472 60.2519 240.77 59.9999 239.636 59.9999C238.484 59.9999 235.226 60.3959 234.182 60.5039C233.714 60.5759 232.886 60.6839 232.382 60.7559L232.202 58.8119ZM245.216 54.3839C245.666 55.0319 246.314 56.1479 246.674 56.8499L245.486 57.3719C245.126 56.6339 244.532 55.5539 244.046 54.8699L245.216 54.3839ZM247.268 53.6099C247.736 54.2939 248.42 55.4279 248.744 56.0759L247.574 56.5799C247.196 55.8239 246.602 54.7799 246.098 54.0959L247.268 53.6099Z" fill="#333333"/>
<path d="M216.326 58.3797H219.89V59.5677H216.326V58.3797ZM217.082 53.8438H218.666V56.4718H217.082V53.8438ZM215.876 64.5538H220.646V69.3958H215.876V68.0637H219.17V65.8858H215.876V64.5538ZM214.076 55.3918H221.69V58.1278H220.25V56.7418H215.462V58.1278H214.076V55.3918ZM215.084 64.5538H216.524V70.2057H215.084V64.5538ZM219.602 58.3797H219.872L220.124 58.3077L221.096 58.7578C219.926 62.1238 217.28 64.4278 214.436 65.6338C214.238 65.2738 213.842 64.6978 213.536 64.4098C216.146 63.4558 218.666 61.2958 219.602 58.6318V58.3797ZM216.902 57.0657L218.306 57.4258C217.514 59.2618 216.128 60.9177 214.706 61.9977C214.472 61.7278 213.914 61.2058 213.59 60.9898C214.994 60.0718 216.236 58.6318 216.902 57.0657ZM215.264 60.8638L216.182 59.8378C218.036 61.0618 220.628 62.8798 221.906 64.0138L220.916 65.2198C219.692 64.0318 217.154 62.1597 215.264 60.8638ZM221.834 54.5998H230.258V56.0578H221.834V54.5998ZM223.994 61.5478V63.0058H228.206V61.5478H223.994ZM223.994 64.2298V65.7238H228.206V64.2298H223.994ZM223.994 58.8658V60.3238H228.206V58.8658H223.994ZM222.464 57.5698H229.826V67.0198H222.464V57.5698ZM225.218 55.3377L227.072 55.5718C226.748 56.6338 226.352 57.7858 226.046 58.5418L224.624 58.2538C224.84 57.4258 225.092 56.2018 225.218 55.3377ZM223.958 67.2538L225.38 68.1178C224.444 69.0358 222.896 69.9718 221.582 70.4938C221.312 70.1878 220.826 69.7018 220.466 69.3958C221.78 68.9098 223.256 68.0097 223.958 67.2538ZM226.55 68.1357L227.792 67.3258C228.818 67.9918 230.15 68.9818 230.816 69.6658L229.484 70.5478C228.872 69.8818 227.576 68.8377 226.55 68.1357Z" fill="#333333"/>
<path d="M204.104 55.446C202.61 57.57 199.766 60 196.778 61.602C196.562 61.188 196.094 60.576 195.716 60.216C198.812 58.686 201.764 56.004 203.132 53.772H204.896C206.822 56.436 209.846 58.794 212.69 60C212.276 60.432 211.862 61.008 211.556 61.53C208.784 60.09 205.724 57.624 204.104 55.446ZM199.622 59.262H208.658V60.774H199.622V59.262ZM197.372 62.898H210.908V64.392H197.372V62.898ZM196.508 68.496H211.862V69.972H196.508V68.496ZM203.186 59.856H204.986V69.252H203.186V59.856ZM198.704 65.202L200.072 64.644C200.792 65.598 201.53 66.912 201.782 67.776L200.324 68.424C200.09 67.56 199.388 66.192 198.704 65.202ZM208.01 64.626L209.63 65.256C208.91 66.372 208.1 67.614 207.434 68.424L206.156 67.884C206.786 67.002 207.578 65.634 208.01 64.626Z" fill="#333333"/>
<path d="M187.526 56.706C187.292 58.56 186.932 60.666 186.338 62.664C185.24 66.336 183.764 68.388 181.964 68.388C180.182 68.388 178.562 66.39 178.562 63.384C178.562 59.37 182.09 55.896 186.608 55.896C190.928 55.896 193.664 58.92 193.664 62.7C193.664 66.48 191.252 69.072 186.86 69.684L185.798 68.01C186.428 67.938 186.95 67.848 187.4 67.758C189.704 67.218 191.774 65.526 191.774 62.628C191.774 59.766 189.884 57.552 186.572 57.552C182.666 57.552 180.362 60.738 180.362 63.222C180.362 65.292 181.262 66.246 182.018 66.246C182.828 66.246 183.674 65.058 184.52 62.286C185.042 60.576 185.438 58.524 185.618 56.652L187.526 56.706Z" fill="#333333"/>
<path d="M162.398 64.842H174.17V70.548H172.442V65.976H164.054V70.566H162.398V64.842ZM163.262 66.876H173.072V67.92H163.262V66.876ZM163.262 68.874H173.072V70.008H163.262V68.874ZM167.24 53.772H168.95V63.672H167.24V53.772ZM162.002 54.978H174.08V60.09H161.804V59.028H172.388V56.04H162.002V54.978ZM160.13 56.904H176.222V58.128H160.13V56.904ZM161.354 60.936H174.962V62.016H161.354V60.936ZM160.094 62.898H176.222V64.122H160.094V62.898Z" fill="#333333"/>
<path d="M142.274 56.7056H158.132V58.3616H142.274V56.7056ZM150.878 58.1636C152.21 62.3216 154.946 66.0836 158.672 67.7216C158.258 68.0816 157.7 68.7476 157.412 69.2336C153.596 67.3076 151.022 63.2576 149.528 58.5596L150.878 58.1636ZM155.954 58.9196L157.448 59.9816C156.242 61.3496 154.64 62.9156 153.416 63.9236L152.192 62.9876C153.398 61.9616 155.018 60.2516 155.954 58.9196ZM152.462 54.8876L153.488 53.8076C154.586 54.3476 156.062 55.1756 156.836 55.7696L155.756 56.9756C155.054 56.3636 153.596 55.4636 152.462 54.8876ZM143.138 60.1076L144.434 59.2256C145.496 60.1616 146.774 61.4936 147.332 62.4296L145.946 63.4376C145.424 62.5016 144.2 61.0976 143.138 60.1076ZM149.258 53.8436H151.004V68.3336C151.004 69.4316 150.752 69.9176 150.086 70.2056C149.42 70.5116 148.304 70.5476 146.702 70.5476C146.612 70.0616 146.36 69.2696 146.09 68.7476C147.278 68.8016 148.43 68.7836 148.79 68.7836C149.132 68.7656 149.258 68.6756 149.258 68.3336V53.8436ZM141.752 67.2536C143.264 66.4976 145.604 65.1836 147.8 63.9236L148.358 65.4536C146.468 66.6416 144.398 67.8836 142.814 68.8016L141.752 67.2536Z" fill="#333333"/>
<path d="M124.634 59.2976H129.98V60.6116H124.634V59.2976ZM124.706 54.4196H129.926V55.7336H124.706V54.4196ZM124.634 61.7276H129.98V63.0416H124.634V61.7276ZM123.788 56.7956H130.574V58.1816H123.788V56.7956ZM125.39 64.1756H129.998V69.5396H125.39V68.1536H128.522V65.5616H125.39V64.1756ZM124.616 64.1756H126.074V70.3136H124.616V64.1756ZM130.988 54.9236H140.096V56.1836H130.988V54.9236ZM131.456 57.0836H139.826V58.2716H131.456V57.0836ZM130.556 59.2436H140.474V60.5036H130.556V59.2436ZM134.678 53.8076H136.298V60.3056H134.678V53.8076ZM131.852 61.4036H138.764V62.6456H133.436V70.4936H131.852V61.4036ZM137.828 61.4036H139.43V68.8376C139.43 69.6116 139.268 70.0076 138.746 70.2416C138.206 70.4576 137.414 70.4576 136.28 70.4576C136.226 70.0616 136.01 69.4676 135.812 69.0896C136.568 69.1076 137.306 69.1076 137.54 69.0896C137.774 69.0896 137.828 69.0176 137.828 68.8196V61.4036ZM132.554 63.7256H138.638V64.8956H132.554V63.7256ZM132.554 65.9936H138.638V67.1456H132.554V65.9936Z" fill="#333333"/>
<path d="M113.384 54.762C113.258 55.194 113.114 55.932 113.042 56.31C112.772 57.57 112.358 59.676 111.872 61.494C111.224 64.032 110.018 67.722 109.046 69.774L107.066 69.108C108.146 67.272 109.46 63.564 110.126 61.026C110.576 59.352 111.026 57.21 111.152 56.22C111.224 55.644 111.26 54.978 111.206 54.582L113.384 54.762ZM109.136 57.624C111.206 57.624 113.798 57.3 116.084 56.742V58.524C113.852 59.028 111.08 59.334 109.1 59.334C108.272 59.334 107.624 59.298 106.976 59.262L106.922 57.48C107.804 57.588 108.434 57.624 109.136 57.624ZM114.806 60.216C115.778 60.126 117.02 60.054 118.172 60.054C119.216 60.054 120.296 60.108 121.304 60.216L121.268 61.926C120.35 61.818 119.27 61.71 118.208 61.71C117.038 61.71 115.922 61.764 114.806 61.89V60.216ZM115.436 64.662C115.292 65.22 115.184 65.796 115.184 66.228C115.184 67.056 115.688 67.776 117.974 67.776C119.162 67.776 120.404 67.65 121.592 67.416L121.52 69.234C120.53 69.378 119.324 69.486 117.956 69.486C115.04 69.486 113.456 68.55 113.456 66.75C113.456 65.994 113.6 65.238 113.744 64.5L115.436 64.662Z" fill="#333333"/>
<path d="M91.4782 56.3099C91.3702 56.8319 91.2982 57.7679 91.2982 58.2539C91.2802 59.4059 91.2982 60.9179 91.4062 62.3219C91.6942 65.1479 92.4142 67.0559 93.6382 67.0559C94.5202 67.0559 95.3122 65.0759 95.7262 63.4379L97.1482 65.1119C96.0142 68.2079 94.9162 69.2699 93.6022 69.2699C91.7662 69.2699 90.1102 67.5419 89.6062 62.8079C89.4442 61.2059 89.4082 59.0459 89.4082 57.9839C89.4082 57.5339 89.3902 56.7599 89.2822 56.2739L91.4782 56.3099ZM100.676 56.7779C102.332 58.8479 103.664 62.9699 103.898 65.8859L102.062 66.6239C101.756 63.5279 100.73 59.5319 98.8942 57.3719L100.676 56.7779Z" fill="#333333"/>
<path d="M71.6241 54.6719H73.3341V59.9639C73.3341 63.0419 73.0641 67.5779 71.1741 70.5119C70.8501 70.2419 70.0941 69.8099 69.6621 69.6299C71.4801 66.8579 71.6241 62.8259 71.6241 59.9639V54.6719ZM72.6681 54.6719H85.1781V59.7659H72.6681V58.1999H83.4681V56.2379H72.6681V54.6719ZM75.0441 65.0759H84.6021V66.4619H75.0441V65.0759ZM75.0441 68.3879H84.6021V69.8999H75.0441V68.3879ZM78.8961 59.8379H80.5521V69.1799H78.8961V59.8379ZM74.2521 61.7819H85.4121V70.5119H83.7381V63.2759H75.8541V70.5119H74.2521V61.7819Z" fill="#333333"/>
</svg>
