<svg width="116" height="162" viewBox="0 0 116 162" fill="none" xmlns="http://www.w3.org/2000/svg">
<g clip-path="url(#clip0_2_5966)">
<path d="M55.6937 1.00877C56.1105 2.43883 55.1114 3.19999 54.8603 4.37633C57.1152 3.95538 58.9477 1.176 61.6992 1.51621C62.8638 1.42972 64.0341 1.51621 65.0331 2.02365C65.5298 3.11926 65.6154 3.96115 65.5298 5.05676C68.0301 3.45948 70.4506 1.18177 73.6989 1.85643C75.3658 2.53109 75.3658 4.46859 75.0347 5.89864C74.949 6.23309 74.4524 6.57331 74.8691 6.90776C77.3695 5.22398 80.2866 3.20576 83.3693 4.54932C84.2028 5.05676 84.454 6.1466 84.5339 7.07498C84.2827 8.84525 83.7861 10.4425 83.0325 11.9591C88.7868 15.4939 94.0388 21.2198 97.0359 27.1188H97.367C97.5325 29.2235 98.4516 31.0745 99.0339 33.012C100.535 29.9789 103.538 27.4533 106.872 26.6114C109.538 26.5249 111.958 27.1188 113.705 29.3043C116.788 32.4181 116.371 37.5559 114.704 41.4309C111.285 49.1751 104.12 56.0832 96.1967 58.6089C94.6154 61.5555 93.6963 64.7558 91.3614 67.368C93.6963 70.7355 97.1957 72.5058 98.6971 76.2943C103.03 81.4321 104.862 87.9135 107.7 93.8067C111.701 97.8489 112.033 104.33 110.034 109.468C109.115 112.501 106.198 115.194 103.201 116.036C101.951 116.036 100.45 115.615 99.1994 115.027C99.1994 116.457 98.5315 117.466 98.5315 118.902C98.8626 119.069 98.9483 119.409 98.8626 119.744C97.9435 120.753 97.8636 122.437 97.3613 123.786C95.1977 131.363 91.3614 138.352 87.8563 145.514C87.274 146.188 86.6918 147.111 86.355 148.039C85.4359 148.126 86.1894 149.135 85.687 149.556C90.7735 150.565 96.1053 151.153 100.027 154.942C101.026 155.703 101.523 157.133 101.026 158.476C98.9426 161.256 94.9408 160.668 91.6868 160.495C87.4339 159.739 83.3522 158.476 79.1849 157.294C78.9337 157.882 79.0992 158.892 78.1859 158.978C74.1042 159.059 69.3488 159.059 65.1815 157.629C64.5992 155.691 64.1825 153.252 64.8504 151.228L65.5183 150.052C63.6002 149.296 65.0217 147.019 64.3538 145.675C64.605 141.887 64.2681 137.51 62.0189 134.39C61.1055 134.223 60.6888 135.065 60.352 135.74C59.1018 140.704 57.8516 144.833 58.8506 150.392C58.5195 150.98 58.2683 150.559 57.8516 150.899C58.0172 153.258 58.4339 156.539 56.8526 158.644C53.8498 158.984 51.515 159.318 48.5179 159.653C48.2668 159.145 47.5189 159.145 47.5189 158.644C44.1851 159.065 41.1024 161.089 37.5174 161.509C33.4299 162.519 28.2636 161.844 24.3475 160.835C23.2628 160.079 21.9327 159.826 21.5103 158.309C21.1792 156.291 21.927 154.607 22.8461 153.091C25.6776 150.231 30.1817 150.899 33.8467 150.565C28.2636 142.648 23.5939 134.396 20.1744 125.643C19.8433 122.275 18.9242 119.161 18.6731 116.042C17.674 118.821 15.4191 121.681 12.3364 122.61C11.0862 122.696 9.41932 122.61 8.67148 121.433C8.00357 118.821 4.66971 121.768 3.83625 118.908C2.58605 115.627 2.25495 111.163 4.33861 107.963C8.59156 104.682 7.67247 98.5351 9.6705 93.9855C10.6695 90.0298 12.8388 86.4892 14.1746 82.7007C15.5048 78.9987 18.1764 75.8791 20.1744 72.4251C19.7577 72.0041 13.9235 65.5228 12.8388 61.815L12.0053 61.6478C4.2644 56.3312 -1.48994 47.993 0.342545 37.8904C1.09609 35.3647 2.34629 32.2451 5.17778 31.3225C8.34609 30.2269 12.0168 30.3134 14.6827 32.4988C15.5162 33.2542 16.1841 34.0961 16.6864 35.0245C18.0223 34.2691 17.5199 32.4123 18.6845 31.8242C24.7699 19.6975 36.3585 9.50838 47.5246 2.01789C49.6882 1.25673 51.692 0.334111 54.0268 -0.00610352C54.6947 0.0746255 55.3626 0.41484 55.6937 1.00301V1.00877Z" fill="black"/>
<path d="M54.3636 1.51663C54.1981 4.46324 52.2799 7.15613 50.6986 9.76829C50.613 10.1892 50.6986 10.6967 51.201 10.7774C53.6158 6.56796 57.2008 3.9558 61.5394 2.69297C62.5384 2.61224 63.4575 2.77946 64.2053 3.20041C64.9532 5.55885 62.624 6.9889 62.3729 9.09362C64.291 9.09362 64.7876 6.65445 66.5402 5.72607C68.7095 4.71696 70.6276 2.19129 73.2079 3.20041C74.2069 3.70785 74.127 4.88418 73.8758 5.72607C73.7103 7.49634 72.0433 8.58618 71.7065 10.27C73.7902 10.3565 74.4581 8.07874 76.3762 7.23686C78.4599 6.06052 80.5435 4.96491 82.8784 5.88753C84.3797 8.74764 81.5425 11.0254 80.8803 13.6317C83.1353 13.1243 84.9677 15.65 87.0514 16.6648C90.1341 19.4442 93.7191 23.2327 95.5516 27.1077C90.802 28.2841 86.549 30.8097 81.5483 31.4844C80.966 30.308 80.2124 28.8722 79.0479 27.7824C76.3819 26.0121 72.4601 23.9939 69.3774 26.2658C66.4603 28.457 64.0398 31.3172 63.2063 34.6847C61.2026 33.0874 58.04 33.3354 55.8707 34.5175L54.8717 35.3594C54.5406 32.58 52.0402 29.4662 49.203 28.6243C45.2868 27.2749 41.1994 28.5378 38.3679 31.3172C37.3689 33.0009 35.702 34.5175 35.3652 36.5357C33.6126 36.3685 31.9457 34.6847 30.1988 34.5175C28.6975 34.431 27.1961 34.0965 25.5292 33.5084C23.611 33.2547 21.8642 32.4993 20.026 31.8246C26.1914 19.8709 37.112 10.9446 47.7016 3.36186C49.7853 2.43348 51.7833 1.25715 54.3693 1.51086L54.3636 1.51663Z" fill="#FFE3CA"/>
<path d="M74.7035 19.7035C75.0346 20.4589 75.4513 21.3873 75.0346 22.2292C74.7035 22.6501 74.1155 22.5636 73.5332 22.5636C72.1175 21.0471 71.284 17.4258 68.5324 17.8468C65.9464 18.6886 66.4488 21.5488 65.033 23.0653C64.1996 23.2325 63.6972 22.6444 63.0293 22.3906C63.0293 19.6978 64.9474 17.0856 67.3622 15.99C69.1147 15.4826 70.7817 16.0765 72.1974 16.8319L74.6978 19.692L74.7035 19.7035Z" fill="black"/>
<path d="M50.5274 20.3782C50.9441 21.2201 51.0297 22.2292 51.1953 23.2441C50.2762 24.0052 49.4427 23.4978 48.5293 23.0769C48.5293 21.7275 47.4447 20.6377 46.36 19.8765C45.9433 19.5421 45.361 19.79 44.8587 19.7093C43.0262 20.8856 42.6894 22.9096 42.1927 24.7606C41.6904 25.5218 40.777 25.1816 40.0234 25.2681C39.0244 23.7515 40.4402 21.987 40.6913 20.384C42.3583 18.3657 44.362 16.7627 47.028 17.6911C48.4437 18.3658 49.614 18.9539 50.5274 20.384V20.3782Z" fill="black"/>
<path d="M79.3676 30.6483C80.7034 31.8246 78.7853 33.0932 80.3666 34.1831C80.7034 38.9807 78.5855 43.2074 73.8644 45.4621C70.8616 45.6293 67.4479 45.0411 65.8609 41.7601C64.4451 39.2344 63.526 35.2787 65.3585 32.6665C67.4422 29.7199 70.1081 26.0121 74.1955 27.1078C76.1136 27.7824 78.1174 28.705 79.3618 30.6425L79.3676 30.6483Z" fill="white"/>
<path d="M114.716 33.514C115.8 42.4403 109.047 49.6828 102.214 54.3939C100.381 55.3223 98.7142 56.5852 96.7104 57.0868C98.7941 50.0115 101.38 42.1001 99.3764 34.3501C101.129 31.49 102.961 28.8778 106.381 27.9494C110.468 27.3613 113.049 30.3079 114.716 33.5082V33.514Z" fill="#FFE3CA"/>
<path d="M96.2081 28.6299C99.7931 37.7235 98.9596 48.9217 95.0435 57.7616C94.5411 60.0335 93.211 62.3112 92.0407 64.4967C89.1236 69.2136 84.2884 73.5902 79.3732 75.7814C72.9567 79.5699 65.7866 81.5939 57.863 81.8419C50.6929 82.9375 43.4429 80.9135 36.8551 78.976C31.8543 76.1159 26.2713 74.8473 21.5159 71.399C20.5968 71.8199 17.7882 67.0281 16.538 65.9325C11.0348 55.3224 13.5124 42.9363 19.1811 33.5083C24.3474 35.1056 29.8506 35.9474 34.6858 38.2252C34.6858 40.2434 35.2681 42.6883 35.5193 44.6258C36.5183 45.1333 37.1006 46.4768 38.0197 47.1515C40.1033 48.0799 42.1128 49.9136 44.5218 49.1755C48.6892 48.3336 53.2732 45.4677 54.3579 40.9238C55.277 39.1535 54.4435 36.2934 57.0238 35.5323C58.9419 34.9441 61.4423 35.0248 62.8581 36.7086C62.8581 40.4106 65.0274 43.363 67.6933 45.8021C69.6114 46.3096 71.2783 47.8204 73.5276 46.9785C80.7148 44.6431 82.4445 39.1478 81.8622 33.1681C86.6974 32.2397 91.1159 29.4661 96.1966 28.6184L96.2081 28.6299Z" fill="#FFE3CA"/>
<path d="M52.6909 33.6812C53.9411 36.8815 54.0267 41.3447 51.5263 43.9511C49.1059 46.4767 43.3001 48.9505 39.3555 46.1423C38.2708 44.7929 36.6039 43.9511 36.8551 42.2673C36.0216 40.8372 36.3527 38.9862 36.524 37.2159C37.3574 34.0156 40.4401 30.4808 43.8596 29.8062C47.359 29.639 51.1153 30.2271 52.6966 33.6812H52.6909Z" fill="white"/>
<path d="M16.0128 36.0397C15.5105 37.389 15.0937 38.8191 14.3459 40.0819C12.679 46.3096 11.2632 53.1311 12.3479 60.12C6.67917 55.997 1.67839 50.6055 1.17603 43.6167C1.67839 39.4072 0.924844 33.7677 6.01126 32.3319C9.9274 31.1556 14.0947 32.4991 16.0128 36.0339V36.0397Z" fill="#FFE3CA"/>
<path d="M108.876 33.3411C111.21 37.3833 108.459 41.339 106.044 44.4586C105.713 44.6259 105.296 44.7124 105.045 45.1333V44.1242C107.38 41.685 109.378 38.5654 108.71 34.8634C108.459 34.0215 107.625 34.108 107.043 33.6871C105.211 33.9408 103.875 35.7111 102.71 37.0546L101.877 36.8874C102.625 35.0364 104.628 33.1854 106.547 32.678C107.546 32.4243 108.128 33.0124 108.881 33.3526L108.876 33.3411Z" fill="black"/>
<path d="M73.3677 35.6995C73.7844 36.7086 73.5332 37.7177 72.3687 38.0579C71.4496 38.5653 70.285 37.9772 69.8683 37.0488C69.7027 36.1204 71.0328 35.8724 71.0328 35.0306C71.9519 35.0306 72.7854 34.9441 73.3677 35.7052V35.6995Z" fill="black"/>
<path d="M13.0158 38.3981C12.1823 39.3265 11.5144 37.637 10.6809 37.5563C9.84746 37.1353 8.92837 37.5563 8.18054 37.8907C6.59924 39.8282 6.84471 42.2674 7.84372 44.4586L10.013 48.1606C7.84372 48.1606 7.26144 44.9603 6.1768 43.2765C5.34333 41.0853 6.1768 38.5596 7.51262 37.0431C8.92837 35.8667 10.7609 36.2877 12.1823 37.2103C12.4335 37.7984 13.3526 37.6312 13.0158 38.3866V38.3981Z" fill="black"/>
<path d="M47.5246 39.5745C47.3591 40.5836 46.8567 41.5985 45.8577 42.1001C44.9386 42.1866 44.6932 41.3447 44.1908 40.7508C44.1052 39.9089 44.2707 39.1535 44.8587 38.5596C45.8577 38.1386 47.1079 38.4731 47.5246 39.5687V39.5745Z" fill="black"/>
<path d="M62.8638 58.6034C60.2092 59.3703 57.7773 61.2963 54.6947 60.4544C53.3645 59.8663 51.5264 59.1051 51.1952 57.5885C50.5273 56.5794 49.9336 53.258 51.5264 52.0298C52.4454 50.4267 54.2779 49.6713 55.6937 48.8294C57.863 47.7338 60.6945 47.3994 63.0293 47.8203C68.4012 51.1014 66.4488 57.5597 62.8638 58.5977V58.6034Z" fill="black"/>
<path d="M64.3652 50.8593C64.8676 52.0357 65.5298 53.385 65.0331 54.7343C63.9485 57.3465 61.0314 58.3556 58.6965 59.284C56.6129 59.1975 53.7814 59.7856 52.3599 57.433C51.6121 55.8357 51.6121 53.4773 52.8623 52.0472C55.7794 49.7753 61.3625 46.4077 64.3652 50.8709V50.8593Z" fill="#FFE3CA"/>
<path d="M72.6998 64.6696C72.8654 64.9233 72.4487 65.425 72.3687 65.8459C66.1178 70.8165 57.0296 72.581 49.1916 70.2226C47.439 69.7209 45.8577 68.6253 44.1908 67.8641C44.1908 67.5239 44.1908 67.1895 44.5219 67.0223C49.3571 68.5388 53.1077 71.0645 58.5252 70.0554C63.7772 70.0554 68.2756 67.1088 72.6941 64.6638L72.6998 64.6696Z" fill="black"/>
<path d="M90.7049 68.8792C97.207 74.1843 101.374 81.9285 104.377 89.4247C100.958 90.6876 98.1261 93.1325 95.0377 95.3179C93.622 92.6251 92.5373 89.4247 91.2015 86.5589C90.7848 86.3051 90.2025 86.7261 90.037 87.2335C91.036 90.6011 93.1196 93.6342 93.7076 97.1689C94.5411 98.1781 95.2889 99.5274 96.208 100.704C94.21 103.65 92.623 106.51 92.7086 109.964C93.2053 110.974 93.6277 111.983 94.3755 112.825C95.7114 113.753 97.4582 110.887 98.0462 113.332C97.6295 115.102 98.2974 117.795 96.8816 119.225C86.1265 120.067 75.0403 122.426 64.7019 121.751C65.1186 118.891 70.9529 117.374 68.0358 113.666C66.3688 109.964 65.8665 105.669 65.2043 101.54C64.7019 98.674 64.2852 95.8139 63.5374 93.121C63.7029 91.9446 64.2852 90.6818 65.0387 90.0879C65.7866 89.3325 65.3698 88.825 65.7066 87.8966C66.2033 86.6338 66.7057 85.2845 67.208 84.0217C69.4572 87.0548 71.461 90.5895 75.2116 92.1061C78.7966 87.4757 80.5435 82.0842 81.3769 76.2774C84.7108 74.3399 87.9647 71.7278 90.7163 68.8677L90.7049 68.8792Z" fill="white"/>
<path d="M25.6833 75.4471L25.8488 75.2799C28.7659 77.3846 32.4366 77.5518 35.1882 79.9967C35.7705 84.7943 36.4384 90.0994 38.5221 94.4818C40.9425 93.9744 43.1061 91.195 44.3563 89.0903C46.8567 87.32 48.0213 84.5464 50.6929 83.3643C51.3608 86.8183 52.611 89.5112 53.6957 92.7923C53.9469 93.3804 54.6148 93.8014 55.0315 94.3088C52.9478 102.814 50.4474 111.152 48.8661 119.906C50.0307 120.915 51.1154 121.757 52.0345 122.599C41.6961 123.44 30.5299 121.924 20.6939 120.073C20.3628 118.977 19.9461 117.294 20.3628 115.863C21.5274 115.529 22.2809 114.514 22.8632 113.505C23.6967 109.296 16.361 108.367 20.0317 104.411C21.4474 98.772 24.6158 93.9686 26.1971 88.4099L25.6947 87.9082C25.1124 88.2426 24.7756 88.9173 24.6957 89.592C23.1943 93.7207 21.0307 97.5092 19.6949 101.719C18.028 101.465 16.2754 100.369 14.5285 99.6946L10.0244 98.1781C10.9435 92.6193 13.2784 87.4872 15.5276 82.6839C16.8634 79.3163 18.7815 75.7815 21.5274 73.4231C22.8632 74.1785 24.3646 74.6859 25.6947 75.4471H25.6833Z" fill="white"/>
<path d="M75.5313 90.2666H74.5323C72.1975 87.8275 68.9492 85.1288 68.0302 81.8478C72.1118 80.8386 76.0337 79.3221 79.6987 77.2981C79.5331 81.7613 77.7006 86.2244 75.5313 90.2666Z" fill="white"/>
<path d="M48.1925 83.0239L39.521 92.7922C38.6876 91.9503 38.6019 90.6009 38.1852 89.4246C37.4374 86.5645 36.935 83.3642 36.6838 80.4983C40.4344 81.5939 44.2707 82.4358 48.1868 83.0239H48.1925Z" fill="white"/>
<path d="M64.5308 87.5679C63.5317 87.3142 62.5327 86.2186 61.528 85.5497C60.529 84.9615 59.6099 84.1196 58.6908 83.3585C61.1113 82.9375 63.6916 82.8568 66.0264 82.1821C66.2776 84.1196 65.0274 85.8034 64.525 87.5737L64.5308 87.5679Z" fill="white"/>
<path d="M63.6972 89.2575C63.1149 90.4338 63.1149 92.4578 61.1968 92.1176C59.6155 92.3713 57.4462 92.2848 55.6936 92.7923C54.1923 91.6159 54.3578 89.7592 53.6956 88.2484C53.0277 86.7318 52.3598 85.2153 52.0287 83.5315C54.6946 83.6987 56.7783 82.9433 58.6964 85.2153L63.6972 89.2575Z" fill="#FDD000"/>
<path d="M106.712 94.6432L97.875 100.202C96.6248 99.781 95.9569 98.2644 95.5402 97.0016C98.3717 94.5624 101.54 91.783 105.211 90.7739L106.712 94.6489V94.6432Z" fill="white"/>
<path d="M62.6982 95.1507C59.6954 97.9301 57.3606 101.298 54.0267 104.077C54.609 100.963 55.3626 97.169 56.6927 93.9744C57.8572 93.64 59.6954 93.8072 61.0256 93.2997C62.6925 92.5444 62.1901 94.3954 62.6925 95.1507H62.6982Z" fill="white"/>
<path d="M110.211 104.244C109.88 108.119 108.796 112.242 104.708 114.347C103.624 114.681 102.122 115.189 101.043 114.514C100.461 113.926 99.3763 113.586 99.2108 112.663C99.1309 111.902 99.462 110.979 98.8797 110.472C97.5439 110.639 96.6305 111.821 95.0435 111.481C94.3756 110.553 94.3756 109.376 93.7076 108.448C94.0387 107.773 94.3756 106.851 94.8722 106.089C95.5401 101.125 101.123 100.704 103.875 97.6705L104.04 97.8377C104.874 96.6614 106.461 96.5749 107.54 95.6465C109.372 98.1721 110.457 100.865 110.206 104.233L110.211 104.244Z" fill="#FFE3CA"/>
<path d="M64.1939 104.244C60.1122 109.382 55.7736 115.022 51.024 119.738L50.3561 119.064C50.9384 115.61 51.1039 112.582 52.5254 109.463C52.1086 107.525 53.7756 106.603 54.8602 105.086C57.9429 102.647 59.9466 99.3601 62.8638 96.8345C63.7829 99.1929 63.7829 101.551 64.1996 104.244H64.1939Z" fill="#FDD000"/>
<path d="M19.0155 103.229C18.9356 104.158 18.6844 105.588 17.851 106.43C14.8482 105.08 11.6 104.158 8.68286 102.895C9.17951 101.632 9.01396 100.79 9.51633 99.5273C12.7646 100.536 16.1041 101.465 19.0212 103.229H19.0155Z" fill="white"/>
<path d="M21.6815 113.505C21.2648 114.093 20.6825 114.26 20.1801 114.681C20.2657 114.347 20.0945 113.672 19.6777 113.338C19.1754 113.17 19.0098 113.591 18.6787 113.845C18.8443 114.773 17.3429 114.266 17.1774 115.362C16.675 116.959 16.4295 118.816 15.0081 120.079C13.5067 120.92 11.8398 122.27 10.0073 121.255C9.25944 120.58 9.50491 119.485 8.5059 118.896C7.17007 118.896 5.58877 120.073 4.83523 118.222C3.33385 114.935 3.67066 110.979 5.50314 107.946C7.00452 106.937 7.83798 103.402 10.5039 105.253C14.7569 107.023 20.6768 108.119 21.6758 113.505H21.6815Z" fill="#FFE3CA"/>
<path d="M64.6963 106.095C64.114 108.621 67.4479 111.233 64.3652 113.171C61.8648 116.959 58.6965 120.327 56.1961 124.115C55.0315 123.354 53.6101 122.01 52.5311 120.915C53.279 119.398 54.6148 118.222 55.865 116.705C58.6965 112.663 61.6193 109.803 64.3652 106.095H64.6963Z" fill="white"/>
<path d="M63.5317 121.249C61.7849 123.44 61.1969 126.133 59.3644 128.325C58.5309 127.736 57.6975 126.22 56.864 125.124C59.7811 123.187 59.7811 119.652 62.6983 117.714C63.8628 116.031 65.0331 114.347 66.1977 112.663C69.5315 116.031 64.8676 118.476 63.5317 121.249Z" fill="#FDD000"/>
<path d="M97.0416 120.58C94.3756 130.516 90.1227 139.777 84.5396 148.536C79.7044 149.21 74.6236 148.201 68.8693 148.536C68.0358 149.545 66.9512 148.115 65.701 148.536C65.5355 143.565 65.2843 138.514 63.2006 133.883C62.5327 133.041 61.4538 132.874 60.5347 133.209C58.1998 136.322 58.1998 140.365 57.3664 144.153C57.452 146.177 57.2008 147.774 57.5319 149.712C50.8642 150.387 43.4429 150.219 37.3575 151.229C34.6916 150.721 33.2758 147.273 31.5232 145.168C27.4358 137.505 21.9384 130.516 20.8538 121.589C24.3532 121.255 27.9382 122.766 30.8553 122.766C38.3565 123.942 45.7778 124.784 53.6957 123.942C55.6937 125.793 57.4463 127.984 59.0333 130.176C59.9524 129.668 60.7858 128.405 61.3681 127.483C62.3671 126.053 62.704 124.282 63.8685 122.939C67.3679 123.36 71.2898 122.852 75.0404 122.772C81.7081 122.183 88.8782 121.422 96.0483 120.58H97.0473H97.0416Z" fill="#175296"/>
<path d="M83.3693 150.046C85.5386 151.396 88.4557 150.888 90.8705 151.73C94.2044 152.572 97.3727 154.089 99.8731 156.614C100.29 157.964 99.0396 159.053 98.0406 159.307C91.1217 160.483 84.9506 157.537 78.6996 155.94C77.9518 155.94 77.8662 156.781 77.7006 157.289C77.7863 157.37 77.9518 157.456 77.8662 157.623L77.5351 157.958C73.7845 157.704 70.1138 157.871 66.3632 157.116C65.3642 154.844 65.3642 152.065 66.8656 150.041C71.952 149.539 78.3685 149.96 83.3693 150.041V150.046Z" fill="#231815"/>
<path d="M56.6927 152.405C56.5272 154.342 57.1094 156.026 56.1903 157.623L48.6892 158.298C48.1069 157.877 48.5236 156.954 47.6901 156.781C40.189 160.149 31.4376 162.594 23.3484 159.14C22.3494 158.384 22.515 157.035 22.6805 155.94C23.0972 154.342 24.2618 152.906 25.8488 152.405C29.1027 151.903 33.1844 151.142 36.1872 152.405C43.0205 152.324 49.2772 151.309 56.1903 151.055L56.6927 152.405Z" fill="#231815"/>
<path d="M71.2841 93.9282C70.8331 93.9282 70.4678 94.2973 70.4678 94.7528V108.967C70.4678 109.422 70.7989 109.959 71.2042 110.155L79.8414 114.399C80.2467 114.601 80.9089 114.601 81.3085 114.399L90.0827 110.149C90.488 109.953 90.8191 109.422 90.8191 108.967V94.7528C90.8191 94.2973 90.4538 93.9282 90.0028 93.9282H71.2841ZM75.3772 109.843C73.9843 109.843 72.8597 108.702 72.8597 107.3C72.8597 105.899 73.99 104.757 75.3772 104.757C76.7644 104.757 77.8947 105.899 77.8947 107.3C77.8947 108.702 76.7644 109.843 75.3772 109.843ZM85.9268 109.843C84.5339 109.843 83.4093 108.702 83.4093 107.3C83.4093 105.899 84.5339 104.757 85.9268 104.757C87.3197 104.757 88.4443 105.899 88.4443 107.3C88.4443 108.702 87.314 109.843 85.9268 109.843ZM87.6851 99.6196V103.16H82.416V112.484H78.7168V103.097H73.0195L72.9453 99.3255H78.7168V95.3813H82.416V99.389H84.7794C84.2256 98.9219 83.8774 98.2242 83.8774 97.4342C83.8774 96.0272 85.002 94.8912 86.3949 94.8912C87.7878 94.8912 88.9125 96.0329 88.9125 97.4342C88.9125 98.3626 88.4158 99.1756 87.6794 99.6196H87.6851Z" fill="#2175D6"/>
<path d="M86.4006 96.3557C85.8069 96.3557 85.3274 96.8401 85.3274 97.4398C85.3274 98.0395 85.8069 98.5239 86.4006 98.5239C86.9943 98.5239 87.4738 98.0395 87.4738 97.4398C87.4738 96.8401 86.9943 96.3557 86.4006 96.3557Z" fill="#2175D6"/>
</g>
<defs>
<clipPath id="clip0_2_5966">
<rect width="116" height="162" fill="white"/>
</clipPath>
</defs>
</svg>
