<svg width="260" height="119" viewBox="0 0 260 119" fill="none" xmlns="http://www.w3.org/2000/svg">
<path d="M177.77 4C179.82 6.88466 181.493 9.87053 183.166 12.907C184.353 14.4253 184.191 16.0953 183.489 17.7654C183.166 18.4233 182.734 19.0306 182.194 19.5873C181.277 19.7391 180.036 19.8403 179.604 18.7775C179.766 16.6014 180.792 14.7289 182.41 13.2107C181.709 11.1357 180.144 9.36445 179.065 7.44135C176.583 8.90898 173.993 10.1742 171.403 11.49C171.511 13.1094 172.806 14.2734 173.13 15.9435C173.831 16.7026 173.507 17.816 174.209 18.5751C173.615 20.7006 173.399 23.0286 171.511 24.5469C170.54 24.9517 169.73 24.3444 169.46 23.5347C169.029 21.3586 170.378 19.233 172.266 18.1702L173.022 18.069C173.13 17.0063 172.374 16.0447 172.05 15.0325C170.809 13.0082 170.216 10.6803 169.568 8.55472C172.212 6.83405 174.748 4.86034 177.77 4Z" fill="black"/>
<path d="M177.986 7.03681C175.665 8.04897 173.615 9.87086 171.079 10.4782C170.216 9.61782 170.755 8.50445 171.727 8.04897C173.507 6.73316 175.45 5.77161 177.338 4.81006C177.608 5.51857 179.065 6.48012 177.986 7.03681Z" fill="#FDD000"/>
<path d="M182.41 18.3731C182.141 18.9298 181.439 19.2841 180.792 18.9804C180.252 18.6262 180.468 17.8165 180.576 17.361C181.169 16.3994 181.439 14.6282 182.842 14.7294C183.112 14.5775 183.058 14.3245 183.058 14.1221C183.813 15.4379 183.112 17.1586 182.41 18.3731Z" fill="#FDD000"/>
<path d="M214.893 19.5869C215.216 19.8399 215.163 20.2448 215.432 20.4978C217.051 19.4857 218.724 18.6253 220.612 18.1699C224.659 17.8156 229.084 17.9168 231.404 21.2064C230.972 21.9149 230.055 21.51 229.461 21.9149C227.95 22.5222 226.44 23.6355 225.9 25.1538C228.598 26.4696 231.727 27.1275 233.778 29.8097C237.393 33.0992 238.688 37.2491 239.713 41.5508C240.523 42.3099 241.871 42.4111 242.519 43.4739C244.353 46.3079 243.706 49.9517 242.303 52.7858C241.116 54.5571 239.605 56.632 237.663 57.7454C236.584 61.9458 233.778 65.9439 230.217 68.7779C231.08 69.8407 232.267 71.0047 233.022 72.118L234.102 73.4338C234.857 72.6241 234.209 71.1059 235.612 70.701C236.368 70.3974 237.177 70.3468 237.555 71.2071C238.418 70.2961 239.281 69.0816 240.037 67.9682C239.335 64.9823 240.9 62.4013 243.49 60.8831C244.03 60.4276 244.893 60.5794 245.541 60.6806C245.702 60.8324 245.972 60.7312 246.08 60.9843C247.969 57.8972 248.994 54.4052 250.828 51.3687C251.368 50.4578 252.501 50.9133 253.202 50.3566C253.85 49.395 254.228 47.3707 255.9 47.725C257.357 47.978 258.814 48.3829 259.677 49.7493C259.893 51.1663 258.221 52.6846 259.893 53.7979C260.541 56.885 258.059 59.3142 257.411 62.1989C256.332 64.6787 255.846 67.5127 253.634 69.4864C252.285 69.4358 252.717 70.9541 252.015 71.612C250.774 73.1302 248.94 75.0027 246.836 74.9521C246.134 75.61 245.541 74.5472 244.785 75.0533C243.059 77.3307 241.494 79.7598 239.281 81.7336C239.012 82.6445 239.228 83.8591 238.094 84.264C237.717 84.3146 237.393 84.2134 237.123 83.9603C236.799 84.4158 236.368 84.9219 235.72 85.1749L234.425 84.8713C234.479 87.0474 235.181 88.8693 235.073 91.2479C236.26 91.1973 237.231 89.9321 238.526 89.8308C239.929 89.5272 241.548 89.1223 242.951 89.426C244.03 90.3875 243.598 91.9058 244.138 93.0698L244.246 96.2075L241.764 97.1184C243.598 101.572 243.544 107.24 241.008 111.39C240.199 112.048 239.281 111.39 238.418 111.289C235.666 109.467 235.343 106.329 235.181 103.293C234.048 103.04 233.238 104.052 232.159 104.204C230.379 104.659 228.706 105.368 226.763 105.418C225.954 105.772 225.091 105.975 224.173 106.025C220.828 106.633 216.727 107.088 213.274 106.025C211.17 104.608 211.709 101.926 210.468 100.054C209.281 101.218 207.123 100.863 205.612 100.357C205.774 103.444 205.558 106.582 206.799 109.366C206.745 111.187 208.849 113.768 206.691 115.54C204.101 115.742 201.673 117.007 199.137 116.856C198.49 116.602 199.083 115.388 198.166 115.439C195.954 117.311 192.986 118.222 190.072 118.374C189.749 118.728 188.993 118.475 188.777 118.88C186.403 119.133 183.867 118.728 182.518 116.856C182.302 116.198 182.356 115.641 182.842 115.135C185.378 113.364 187.968 111.643 191.044 111.086L191.475 110.681C188.669 107.493 187.213 103.748 186.511 99.75L185.864 97.7257C184.461 97.4727 182.734 97.6751 181.871 96.6123C182.95 92.2094 182.788 87.7559 184.029 83.4542C183.489 83.4036 182.95 83.9097 182.41 84.1627C179.874 83.7073 180.576 86.6931 178.417 87.098C177.77 87.4017 176.853 87.098 176.691 86.3895C176.799 86.0352 176.529 85.7822 176.475 85.4786C176.043 85.934 175.612 86.7438 174.748 86.6931C173.777 85.934 173.939 84.6182 173.777 83.4542C174.964 81.4805 172.266 81.2781 171.403 80.3165C169.407 79.1526 168.813 76.9764 166.763 75.7618C164.874 76.9764 162.662 75.863 160.827 75.0533C159.532 73.9399 158.291 72.3711 158.669 70.5998C158.615 70.0937 159.694 69.4864 158.993 68.8791C159.532 68.0188 159.209 66.8042 160.072 66.0451C159.856 65.3366 159.91 64.5268 160.504 64.0208C159.209 63.4135 157.59 62.7049 157.05 61.2879C156.835 60.5288 157.374 60.0733 157.806 59.5672C161.151 58.9599 163.795 61.1867 166.547 62.5025C166.655 61.8446 167.086 61.2373 167.734 60.8831C168.597 60.4782 169.407 61.1361 170 61.4903C171.673 63.1098 170.863 65.4884 171.079 67.5633C173.238 69.1828 175.666 70.5998 177.554 72.4217C177.986 71.612 178.256 70.3468 179.605 70.4986C180.306 72.5735 181.547 69.3852 182.41 71.3083C182.464 71.865 182.464 72.8265 182.626 73.3326C183.759 72.0168 185.54 71.612 186.835 70.3974L186.727 69.9925C179.227 64.628 178.148 55.6198 179.712 47.1177C181.277 42.6136 182.518 38.0082 185.972 34.2632C189.749 29.9109 194.173 25.0526 200 23.6355L203.777 22.8258C202.914 20.4978 200.432 18.7266 198.49 17.3601C201.835 16.1456 205.936 15.8925 209.713 16.2468C211.709 16.7022 214.083 17.512 214.893 19.5869Z" fill="black"/>
<path d="M214.029 19.6882C214.191 20.2449 214.893 20.7509 214.461 21.4088C213.382 21.7631 213.759 22.8259 213.058 23.4332C213.22 23.585 213.166 23.9392 213.49 23.9392C214.299 23.7874 213.975 22.8259 214.569 22.421C217.375 19.5869 221.314 18.5242 225.684 18.7772C227.357 18.9797 228.76 19.8906 230.109 20.8015C227.734 21.5101 225.037 23.4838 224.605 26.0648C224.497 26.3178 224.767 26.419 224.821 26.5709C225.037 26.6215 225.145 26.4696 225.252 26.3684C225.198 26.4696 225.306 26.5202 225.36 26.5709C225.9 26.6721 226.008 25.9636 226.547 26.3684C233.346 28.2915 238.094 35.073 238.85 41.3484C236.637 41.5508 234.371 42.4618 232.806 44.1825C227.627 44.2837 224.119 44.7897 219.101 44.891C216.835 40.6399 210.252 42.4112 206.259 42.563C204.857 42.9679 203.4 43.8282 203.238 45.397L203.346 45.4983L200.324 45.8019C199.785 44.5873 199.029 42.9679 197.41 42.4618C195.198 41.5002 192.392 42.2087 190.18 41.8545C188.238 42.0569 185.054 41.9557 183.921 44.2837C183.759 44.4861 183.813 44.8404 183.705 45.0934L181.115 45.2958C182.518 42.563 182.626 39.3747 184.892 36.9961C188.022 32.9981 191.637 28.6964 196.115 26.0648C198.705 24.749 201.619 24.0405 204.533 23.5344L204.857 23.2307C203.831 21.2064 202.482 18.8278 200.108 17.7651C200.216 17.3096 200.972 17.4108 201.403 17.259C205.774 17.1578 211.385 15.6901 214.029 19.6882Z" fill="#FFE3CA"/>
<path d="M173.13 18.6763C173.561 20.7512 172.536 22.7249 171.079 24.0407C170.54 24.1419 170.378 23.5346 170.216 23.231C169.946 21.2067 171.241 19.3848 173.13 18.6763Z" fill="#FDD000"/>
<path d="M212.41 34.0607C213.166 34.8704 213.597 35.832 213.705 36.8948C213.382 36.8948 213.166 37.6539 212.842 37.0972C212.95 35.8826 212.356 34.9716 211.439 34.1619C210.846 33.9595 210.306 33.9595 209.713 34.1619C208.579 35.1235 207.878 36.2875 207.338 37.502C207.069 37.6033 207.069 37.2996 206.907 37.1984C207.338 35.6802 208.418 33.9595 210.036 33.3522C210.954 33.3016 211.817 33.3522 212.41 34.0607Z" fill="black"/>
<path d="M197.842 37.0973C197.896 37.401 197.788 37.6034 197.518 37.8059C196.763 37.7552 197.195 36.8443 196.763 36.49C196.493 35.7815 196.061 35.1236 195.36 34.5669C194.227 34.4657 193.472 35.4273 192.77 36.1864C192.231 36.6925 192.608 38.1601 191.583 37.9071C191.421 36.4394 192.5 35.073 193.849 34.1621C194.389 33.9596 195.09 33.7066 195.684 33.9596C196.871 34.6682 197.249 35.984 197.842 37.0973Z" fill="black"/>
<path d="M242.195 44.3848C243.544 48.0286 242.789 52.2291 239.929 55.1137C238.472 56.6826 236.692 58.2514 234.317 57.7453C233.562 57.7959 232.861 56.3283 232.267 57.4417C232.591 58.1502 233.562 58.302 234.209 58.6563C235.127 58.6563 236.044 58.7069 236.799 58.3526C236.53 58.7069 236.314 59.3142 236.26 59.8709C233.346 67.0572 225.684 72.5735 217.483 73.029C217.213 72.1686 217.321 71.0553 216.296 70.5998C213.328 70.1443 210.468 71.1565 207.986 72.4217C207.069 72.6747 206.098 74.4966 205.288 73.2314C203.454 72.6747 201.134 72.118 199.245 72.9277C197.303 71.3589 195.09 69.6888 192.339 69.9925C191.583 70.2455 191.637 71.6119 190.72 71.1059C185.054 68.9297 180.954 63.4134 180.144 57.8466C179.874 54.304 180.09 50.2553 180.792 46.7128C181.547 47.067 182.896 46.9152 183.813 46.814C184.299 48.6359 184.299 50.9133 186.295 51.8748C189.047 52.7857 192.662 53.5955 195.576 52.3809C197.033 52.3303 198.274 51.8748 199.245 50.7614C200.054 49.6987 200.054 48.6865 200.324 47.4213C201.134 47.1177 202.213 47.3201 203.238 47.1176C203.67 48.7877 203.076 51.0651 205.288 51.7736C209.011 53.7473 214.299 53.393 217.914 51.4699C219.371 50.2047 219.155 48.231 219.317 46.6116C223.688 46.561 227.465 45.5488 231.943 45.4982C231.997 46.0549 231.727 47.1177 232.591 47.4213C233.292 47.3201 232.699 46.2067 233.022 45.7006C233.778 43.6257 236.26 42.8666 238.202 42.2593C239.821 42.2593 241.386 43.1196 242.195 44.3848Z" fill="#FFE3CA"/>
<path d="M198.597 45.3972C199.083 46.8649 199.569 48.6361 198.597 50.0532C197.249 51.9257 194.767 51.4196 192.878 52.0775C190.18 51.7738 187.051 52.1787 185.324 49.7495C184.946 48.2819 184.676 46.8649 185.108 45.296C186.619 42.8668 189.91 44.0814 192.338 43.4741C194.389 43.9296 197.572 42.8668 198.597 45.3972Z" fill="white"/>
<path d="M217.482 44.9922C218.616 46.4092 218.777 48.3323 218.022 49.9518C215.756 52.4822 211.709 52.2797 208.526 52.0773C206.961 51.6724 205.18 51.1157 204.317 49.7493C204.371 48.7878 203.669 47.2189 204.641 46.5104C204.479 45.9031 204.802 45.1946 205.288 44.7897C208.526 43.727 212.033 43.4233 215.54 43.8788C216.295 44.0812 217.105 44.233 217.482 44.9922Z" fill="white"/>
<path d="M195.144 47.0166C195.252 47.219 195.36 47.4215 195.468 47.6239C195.252 47.6745 195.09 47.8769 194.928 48.0287C194.335 47.6239 194.389 46.7635 193.633 46.3081C192.662 46.1563 192.015 46.8648 191.475 47.5227C191.313 47.8263 191.421 48.3324 190.936 48.4336C190.342 47.7251 191.151 47.0166 191.475 46.4093C192.015 45.9538 192.554 45.5996 193.31 45.5996C194.119 45.4983 194.713 46.4093 195.144 47.0166Z" fill="black"/>
<path d="M212.518 46.6121C212.626 47.1688 213.166 47.5231 213.166 48.1304L212.626 48.434C212.195 47.6749 212.141 46.5109 211.008 46.3085C210.144 46.7133 209.281 47.3712 209.173 48.3328L208.633 48.434C208.526 47.8773 208.741 47.1688 209.281 46.7133C210.09 45.7012 211.817 45.2457 212.518 46.6121Z" fill="black"/>
<path d="M239.066 47.1177C239.497 49.8506 237.771 52.4316 235.612 54.2029C235.504 54.2029 235.343 54.2029 235.289 54.1016C235.45 53.2919 236.584 52.8364 237.015 52.0773C237.771 50.4579 239.551 48.1805 237.771 46.6116C236.745 46.3586 236.26 47.4214 235.504 47.8262C234.911 48.3829 234.911 49.2433 234.641 49.9518C234.371 50.0024 234.156 49.8506 234.102 49.6481C234.156 47.7756 235.666 46.4598 237.339 45.9031C238.094 45.8525 238.796 46.5104 239.066 47.1177Z" fill="black"/>
<path d="M258.922 50.0539C258.814 50.7118 258.814 51.9264 258.059 51.8758C256.872 51.066 255.523 50.7624 254.174 50.3575C254.659 49.7502 254.444 48.7381 255.469 48.5356C256.818 48.5863 258.167 49.0923 258.922 50.0539Z" fill="#BBBCBC"/>
<path d="M259.246 54.8102C258.76 57.6949 257.034 60.124 256.44 63.0087C255.415 64.8306 255.199 66.9561 253.742 68.5756L253.095 68.778C250.397 69.2335 247.699 68.2213 245.757 66.5513C245.649 64.9824 247.699 63.869 246.944 62.0978C246.89 60.4783 248.239 59.1625 248.67 57.6443C249.48 55.7211 250.451 53.798 251.476 51.9762C253.688 50.3567 256.224 51.8749 258.275 52.9883C258.598 53.5956 259.246 54.0511 259.246 54.8102Z" fill="#BBBCBC"/>
<path d="M206.367 54.7094C209.281 55.3673 211.763 57.088 214.137 58.9605C213.975 59.2136 214.083 59.5678 213.706 59.7702C212.303 58.505 210.954 57.3917 209.281 56.6325C208.526 56.1771 207.77 55.8228 206.907 55.6204C207.393 57.2398 205.828 58.505 204.641 59.4666C203.076 60.1245 201.457 61.086 199.569 60.6812C198.058 59.9221 196.115 58.8087 195.576 57.1386L195.468 55.8228C193.849 56.6832 192.231 56.835 190.936 58.4544C190.774 58.3532 190.504 58.4038 190.504 58.1508C190.72 57.3411 191.637 56.9362 192.231 56.4301C194.119 55.3673 196.601 55.0131 198.166 53.1912C200.918 52.1284 204.263 52.7863 206.367 54.7094Z" fill="black"/>
<path d="M206.044 55.8225C206.314 57.0877 205.342 58.2011 204.209 58.9602L200.432 60.0736C199.299 59.6688 198.22 59.3145 197.303 58.4542C196.763 57.7456 196.062 57.0371 196.439 56.1262C197.195 55.6201 197.249 54.5573 198.166 54.2031C200.702 52.6342 204.317 53.4946 206.044 55.8225Z" fill="#FFE3CA"/>
<path d="M164.712 62.1991C165.414 62.7558 166.223 63.0594 166.979 63.5149C167.41 62.9076 167.302 61.7942 168.382 61.3894C168.975 61.6424 169.623 61.9967 170 62.604C170.378 64.3752 170.216 66.1971 170.108 67.8672C172.428 69.4866 175.018 71.0555 177.123 73.2316C175.936 75.6608 175.072 78.1912 174.209 80.7216C173.454 80.9747 172.59 79.8107 171.727 79.507C170.054 78.1912 168.813 76.3187 166.979 74.8511C165.953 75.1041 165.036 75.762 163.849 75.3572C163.849 74.5474 164.928 73.3329 164.065 72.3207C164.011 71.8652 164.658 71.9158 164.712 71.511C165.63 70.4482 163.849 68.9806 165.9 68.5757C166.601 68.019 166.385 67.2093 166.115 66.5514C164.227 63.3125 159.964 64.1728 157.914 61.2881C157.59 60.7315 158.022 60.4278 158.453 60.1748C159.64 59.8205 160.666 60.5796 161.691 60.8833L164.712 62.1991Z" fill="#FFE3CA"/>
<path d="M195.36 61.4909C194.928 62.0982 194.874 62.8573 194.604 63.5153H194.065C194.227 62.6549 194.496 61.5415 195.036 60.6812C195.522 60.6306 195.522 61.2379 195.36 61.4909Z" fill="black"/>
<path d="M196.116 63.5146H195.684C195.576 62.553 196.224 61.6421 196.763 60.7817C197.842 61.389 196.17 62.553 196.116 63.5146Z" fill="black"/>
<path d="M193.418 61.3886C192.824 62.1983 192.878 63.4129 192.339 64.0202H192.123C191.961 62.8562 192.285 61.6923 193.094 61.085L193.418 61.3886Z" fill="black"/>
<path d="M191.475 62.1989C191.098 63.0086 191.421 64.2232 190.396 64.6281C190.234 63.4641 190.72 62.3001 191.152 61.2879C191.799 61.2373 191.529 61.8952 191.475 62.1989Z" fill="black"/>
<path d="M207.015 61.9968C206.961 62.6041 207.555 63.3632 207.339 64.0211C206.53 63.7174 206.692 62.6547 206.368 61.9968C205.936 61.1364 207.231 61.3895 207.015 61.9968Z" fill="black"/>
<path d="M245.648 61.6936C245.54 62.0985 245.81 62.4527 246.188 62.6045C246.404 63.971 245.378 64.9831 244.461 65.7422C244.299 67.1087 245.972 67.716 246.943 68.4751C248.4 69.3354 250.343 69.7403 251.907 69.6897C251.368 71.5116 249.749 73.2828 247.807 73.9407C246.835 74.5986 245.486 73.9913 244.569 73.9407C242.896 76.0157 241.386 78.3943 239.497 80.2161C238.85 77.5845 238.634 74.7505 237.986 72.1189C239.389 71.0055 239.767 69.3354 241.008 68.0702C240.091 66.1977 241.224 64.4264 242.195 62.9082C243.22 61.9972 244.299 60.9345 245.648 61.6936Z" fill="#FFE3CA"/>
<path d="M208.741 61.7941C209.065 62.6544 209.497 63.4135 209.928 64.2233C209.767 64.3751 209.497 64.6787 209.281 64.4257C208.957 63.5148 208.202 62.6544 208.31 61.6929L208.741 61.7941Z" fill="black"/>
<path d="M205.936 64.1219C205.774 64.0713 205.72 64.2737 205.612 64.3243C205.126 63.6664 205.18 62.7555 204.857 61.9963C204.965 61.7433 205.342 61.7433 205.504 61.8951L205.936 64.1219Z" fill="black"/>
<path d="M210.684 62.0982C210.684 63.0598 211.602 64.1226 210.9 64.9323C210.307 64.1226 210.307 63.0598 210.037 62.0982C210.307 61.9464 210.415 61.9464 210.684 62.0982Z" fill="black"/>
<path d="M213.382 64.2234L213.274 64.9319C213.166 64.8813 213.112 64.9825 213.058 65.0331C212.626 64.3246 212.195 63.6161 211.979 62.8064C212.95 62.3509 213.004 63.7173 213.382 64.2234Z" fill="black"/>
<path d="M165.683 67.3618C165.845 68.0197 165.09 68.4246 164.604 68.6776C163.363 68.7788 162.176 67.7667 161.367 66.7545C161.043 66.1978 160.665 65.5399 160.827 64.9326C161.313 63.6168 162.608 64.9832 163.417 65.135C164.335 65.7423 165.198 66.4002 165.683 67.3618Z" fill="#FFE3CA"/>
<path d="M197.303 65.1348C200.108 66.3494 202.86 65.8433 205.936 65.5397C206.853 65.2866 207.986 64.8312 208.742 65.1348C207.123 67.311 206.583 70.2462 203.67 71.6126C199.839 71.9669 197.842 68.2725 196.223 65.6409C196.223 65.2866 196.062 64.983 196.116 64.6287C196.709 64.2239 196.817 64.983 197.303 65.1348Z" fill="black"/>
<path d="M207.339 66.0454C206.098 67.6143 205.72 69.6386 203.669 70.8026C200.81 71.0556 198.759 68.3228 197.518 66.2478C199.083 66.4503 200.918 66.8045 202.59 66.6527C204.047 66.4503 205.774 66.2478 207.339 66.0454Z" fill="#B44E26"/>
<path d="M163.633 69.2844C164.011 69.7398 164.335 70.3471 164.173 70.9038C163.633 71.6629 162.662 71.6123 161.907 71.5111C160.612 71.2075 160.072 69.8917 159.856 68.7783L160.396 67.0576C161.259 67.8673 162.392 68.9807 163.633 69.2844Z" fill="#FFE3CA"/>
<path d="M234.317 75.3574C235.882 74.6488 234.425 72.7257 235.612 71.7136C235.882 71.4605 236.098 71.2075 236.476 71.3087C237.771 75.0031 239.012 79.3048 237.986 83.2522C238.04 83.3534 237.932 83.404 237.878 83.4546C237.177 83.3534 236.799 81.987 236.152 82.9486C236.26 83.5559 235.99 83.9607 235.612 84.3656C235.019 84.3656 234.479 83.9607 234.317 83.4546C233.832 81.6327 231.134 82.5943 230.324 80.6206C228.652 77.6347 226.871 74.4464 227.303 70.9038L229.461 69.4868C231.404 70.9544 233.022 73.2824 234.317 75.3574Z" fill="white"/>
<path d="M163.525 72.9281C163.579 73.586 163.471 74.1427 163.201 74.6487C162.608 74.6487 161.96 75.1042 161.475 74.6487C160.342 73.586 158.993 72.1689 159.532 70.6001C160.288 72.2702 162.446 72.0677 163.525 72.9281Z" fill="#FFE3CA"/>
<path d="M198.597 73.6365C197.896 75.256 197.734 77.1791 197.842 79.001C196.223 79.6083 194.227 80.3674 192.554 79.9119C191.421 78.8997 191.583 77.3815 191.583 75.9645C191.583 74.2944 191.907 72.5231 192.662 71.0049C194.82 70.5494 196.655 71.9664 198.274 73.3329C198.382 73.4847 198.597 73.5353 198.597 73.6365Z" fill="#B44E26"/>
<path d="M190.288 71.9155C190.126 72.1685 189.911 72.5734 189.533 72.8264C187.806 75.7111 185.702 78.6464 184.461 81.8347C183.112 82.3913 182.033 84.0614 180.144 83.5553C179.389 83.8084 180.252 84.3144 179.821 84.6687C179.605 85.6303 178.526 86.2376 177.554 86.3894C177.015 85.5797 177.932 84.4157 177.015 83.859C176.044 84.3145 176.044 85.6303 174.964 85.8833C173.777 80.6707 177.123 75.9641 179.065 71.3082C179.227 71.0551 179.605 71.3082 179.605 71.5106C179.605 71.9661 179.551 72.5734 180.144 72.7252C180.684 72.5228 181.062 71.6624 181.655 71.6118C181.547 72.624 181.925 73.6868 181.331 74.6483C181.331 75.0532 181.871 75.3062 182.195 75.0532C183.598 73.3325 185.864 72.2697 187.698 70.9033C188.562 71.207 189.479 71.46 190.288 71.9155Z" fill="white"/>
<path d="M216.404 71.9156C216.889 74.0411 216.943 76.3691 215.972 78.2922C213.706 80.0635 210.63 79.6586 207.986 79.0007C204.965 78.8995 207.015 76.2173 206.26 74.6484C208.634 72.9278 211.332 71.8144 214.245 71.3083C215.001 71.4095 215.972 70.9541 216.404 71.9156Z" fill="#B44E26"/>
<path d="M231.08 82.6448C231.943 82.8979 233.184 82.8473 233.454 83.8594C233.454 86.6935 234.803 89.2745 233.994 92.1592C232.213 93.5256 229.677 93.6268 227.519 94.3859C218.939 95.9548 209.875 96.4608 200.756 95.9042C200.162 95.0438 199.892 94.0317 199.029 93.3738C197.842 94.4871 197.518 95.9548 196.223 97.0175C192.015 97.5236 187.266 97.4224 183.166 96.7139C182.68 96.5114 183.004 96.2078 183.058 95.9042C183.274 90.8434 184.191 86.0356 185.54 81.4303C186.835 78.4444 188.831 75.4079 190.936 72.7257C190.936 75.4585 189.641 79.6084 192.878 80.9242C194.119 80.7724 195.306 80.7217 196.547 80.3169C196.223 83.2015 196.169 86.2886 196.979 89.1227C197.41 89.4263 197.68 90.1348 198.274 89.6288C200.432 86.7947 201.997 83.6064 204.533 81.0254C204.587 80.3169 205.774 79.8614 205.936 79.2035C209.281 80.3169 213.867 81.5315 216.727 78.8999C217.698 77.4322 217.537 75.914 217.698 74.1427C218.022 73.7378 218.724 74.0921 219.101 73.8391C221.529 73.2318 223.903 72.6751 226.116 71.6123C226.601 75.5597 227.788 79.7096 231.08 82.6448Z" fill="#608FD8"/>
<path d="M205.072 74.1424C205.342 74.5979 204.587 74.6991 204.857 75.1545C205.99 75.4582 205.396 77.2295 205.396 77.9886C204.964 78.2416 205.342 78.8489 205.072 79.2032C204.209 80.3672 202.644 80.266 201.295 80.519C200.378 80.1647 199.029 80.0635 198.813 79.0008C198.813 77.0776 198.597 74.6485 200.216 73.4339C201.997 73.3327 203.669 73.4845 205.072 74.1424Z" fill="#B44E26"/>
<path d="M179.497 78.4948C179.389 79.5069 179.389 80.9239 178.634 81.6325C177.932 80.3166 179.011 78.9502 178.957 77.4826C179.227 76.9765 179.281 76.4198 179.713 75.9644C180.684 76.6223 179.551 77.6344 179.497 78.4948Z" fill="black"/>
<path d="M236.044 79.3048C235.936 79.5072 235.613 79.1024 235.613 79.5072L235.505 79.6084C234.857 78.9505 235.397 77.7359 235.073 76.8756C235.181 76.572 235.505 76.572 235.72 76.7744L236.044 79.3048Z" fill="black"/>
<path d="M198.274 80.1145C199.515 81.076 201.295 81.6833 203.022 81.1267C201.295 83.6571 199.569 86.1875 197.842 88.7179C197.087 86.1875 196.979 83.2522 197.518 80.5194C197.68 80.2663 198.112 79.3048 198.274 80.1145Z" fill="white"/>
<path d="M200.001 82.8474C199.785 82.8981 199.623 83.1512 199.353 83.05C198.975 82.8981 199.137 82.4424 199.245 82.2399C199.677 81.4298 200.486 82.3411 200.001 82.8474Z" fill="black"/>
<path d="M199.461 84.5681C199.461 84.7707 199.515 85.0238 199.245 85.1757H198.597C198.382 84.8213 198.49 84.2137 198.921 84.1631C199.083 84.315 199.461 84.2643 199.461 84.5681Z" fill="black"/>
<path d="M243.058 91.3496C243.328 92.716 243.436 94.2342 243.382 95.6006C242.573 96.0561 241.548 95.9043 240.792 96.5116C242.411 100.257 242.843 105.57 241.224 109.467C240.63 109.872 240.9 111.441 239.713 110.884C236.368 109.619 236.044 105.823 236.044 102.787H236.152C236.368 99.3456 237.663 95.2464 236.26 91.9569C237.447 90.7423 239.12 90.6411 240.576 90.0338C241.602 89.9325 243.112 89.9832 243.058 91.3496Z" fill="#231815"/>
<path d="M234.965 102.281C229.893 104.659 223.958 105.773 218.13 105.823C216.296 105.823 214.137 106.076 212.842 104.406L211.332 99.2444C210.306 98.2828 209.929 100.105 208.85 99.9529C207.555 100.054 206.529 99.6492 205.396 99.3456C205.234 99.548 204.857 99.6492 204.965 99.9529L205.073 100.054L204.749 100.358C204.749 103.495 205.073 106.532 205.72 109.467C201.997 111.036 197.572 111.137 193.31 110.581C192.015 110.226 191.098 108.809 190.396 107.747C188.616 104.761 187.536 101.471 186.943 98.0298C190.234 98.1816 193.58 98.2322 196.871 97.6249C198.004 96.8658 198.004 95.6006 199.029 94.7909C200.001 95.2463 199.569 96.5115 200.756 96.9164C205.666 97.3213 210.738 96.6127 215.648 96.714C218.184 96.2585 220.99 96.4103 223.418 95.803C227.519 95.2969 231.835 94.4872 235.289 92.4629C236.314 95.2969 235.72 99.2444 234.965 102.281Z" fill="#175296"/>
<path d="M231.727 99.4467L231.511 99.6491L231.619 99.7504C228.598 100.408 225.9 101.218 222.878 101.876C221.799 102.18 220.342 102.18 219.317 101.673C219.047 101.724 218.831 102.028 218.562 101.775C219.155 101.016 217.428 99.5985 218.777 99.4467C219.317 100.003 218.939 101.066 219.964 101.269C224.173 101.471 227.842 99.5985 231.727 99.1431V99.4467Z" fill="black"/>
<path d="M193.741 100.864C192.932 102.787 194.335 104.356 194.173 106.33C194.604 106.482 194.227 106.988 194.496 107.241C194.874 107.747 195.036 108.354 195.252 108.961L194.82 109.265C194.173 108.455 194.065 107.393 193.525 106.532C193.525 103.951 192.122 102.737 193.309 100.257C193.633 100.307 194.065 100.51 193.741 100.864Z" fill="black"/>
<path d="M206.691 112.605C206.53 113.414 207.069 114.123 206.26 114.73C203.994 114.933 201.997 115.894 199.677 116.046C199.029 115.439 200.109 114.426 199.137 114.022C195.954 116.957 191.637 117.767 187.267 118.171C185.702 118.171 184.191 117.514 183.274 116.451C183.274 115.692 184.029 115.388 184.569 114.933C186.781 113.161 189.533 112.25 192.015 111.39C191.961 111.592 192.123 111.694 192.231 111.795C192.501 111.845 192.824 111.795 192.878 111.491C196.116 111.896 199.893 111.643 202.807 111.289C203.724 110.884 204.911 110.884 205.828 110.479C206.422 111.036 206.422 111.896 206.691 112.605Z" fill="#231815"/>
<path d="M213.711 81.7394C213.457 81.7394 213.247 81.9368 213.247 82.1747V89.6849C213.247 89.9278 213.436 90.2062 213.668 90.3124L218.583 92.5544C218.815 92.6606 219.188 92.6606 219.42 92.5544L224.411 90.3074C224.643 90.2011 224.831 89.9228 224.831 89.6798V82.1696C224.831 81.9317 224.621 81.7344 224.367 81.7344H213.716L213.711 81.7394ZM216.042 90.1505C215.249 90.1505 214.607 89.5483 214.607 88.8043C214.607 88.0604 215.249 87.4581 216.042 87.4581C216.835 87.4581 217.477 88.0604 217.477 88.8043C217.477 89.5483 216.835 90.1505 216.042 90.1505ZM222.047 90.1505C221.254 90.1505 220.612 89.5483 220.612 88.8043C220.612 88.0604 221.254 87.4581 222.047 87.4581C222.84 87.4581 223.483 88.0604 223.483 88.8043C223.483 89.5483 222.84 90.1505 222.047 90.1505ZM223.051 84.7506V86.6231H220.051V91.5473H217.947V86.5877H214.704L214.661 84.5937H217.947V82.5087H220.051V84.6292H221.4C221.087 84.3812 220.887 84.0117 220.887 83.5967C220.887 82.8528 221.529 82.2506 222.322 82.2506C223.116 82.2506 223.758 82.8528 223.758 83.5967C223.758 84.0876 223.477 84.5178 223.056 84.7506H223.051Z" fill="white"/>
<path d="M222.312 83.019C221.977 83.019 221.702 83.2773 221.702 83.5912C221.702 83.9051 221.972 84.1633 222.312 84.1633C222.652 84.1633 222.922 83.9051 222.922 83.5912C222.922 83.2773 222.646 83.019 222.312 83.019Z" fill="white"/>
<path fill-rule="evenodd" clip-rule="evenodd" d="M73.1054 89.0002C33.0219 89.0002 0.527874 69.0768 0.527874 44.5001C0.527874 19.9234 33.0219 0 73.1054 0C111.591 0 143.08 18.3666 145.53 41.5841L151.323 44.9039L145.436 48.1954C142.373 71.0433 111.159 89.0002 73.1054 89.0002Z" fill="#FEE880"/>
<path d="M107.521 62.0833L107.212 57.1431L107.159 55.3711H108.971L108.917 57.1431L108.609 62.0833H107.521ZM108.072 65.5066C107.494 65.5066 107.065 65.1039 107.065 64.4997C107.065 63.8822 107.508 63.4661 108.072 63.4661C108.622 63.4661 109.065 63.8822 109.065 64.4997C109.065 65.1039 108.622 65.5066 108.072 65.5066Z" fill="#333333"/>
<path d="M93.3856 54.9675C93.2916 55.2897 93.1708 55.8401 93.1171 56.122C92.9291 57.0617 92.6204 58.6324 92.2579 59.9882C91.7746 61.8811 90.8752 64.6465 90.1503 66.1635L88.6736 65.6668C89.479 64.2975 90.459 61.5321 90.9557 59.6392C91.2913 58.3907 91.6269 56.8066 91.7209 56.0549C91.7746 55.6253 91.8015 55.1286 91.7612 54.8332L93.3856 54.9675ZM90.2174 57.102C91.7612 57.102 93.6943 56.8603 95.3992 56.4442V57.7732C93.7346 58.1491 91.6672 58.3773 90.1905 58.3773C89.573 58.3773 89.0897 58.3505 88.6064 58.3236L88.5662 57.008C89.224 57.0886 89.6938 57.102 90.2174 57.102ZM94.4461 59.0485C95.171 58.968 96.0839 58.9143 96.9565 58.9143C97.7351 58.9143 98.5406 58.9546 99.2923 59.0351L99.2655 60.3104C98.5808 60.2299 97.7754 60.1493 96.9833 60.1493C96.0973 60.1493 95.2784 60.1896 94.4461 60.297V59.0485ZM94.9159 62.351C94.8086 62.7671 94.728 63.1967 94.728 63.5189C94.728 64.1364 95.1039 64.6734 96.8088 64.6734C97.6948 64.6734 98.6211 64.5794 99.5071 64.4049L99.4534 65.7608C98.7151 65.8682 97.8156 65.9621 96.7954 65.9621C94.6206 65.9621 93.4393 65.2506 93.4393 63.9082C93.4393 63.3444 93.5332 62.7805 93.654 62.2301L94.9159 62.351ZM97.8425 55.3702C98.1915 55.8535 98.6748 56.6858 98.9299 57.2094L98.0573 57.5987C97.7888 57.0483 97.3458 56.2428 96.9833 55.7327L97.8425 55.3702ZM99.3729 54.793C99.7353 55.2897 100.245 56.1354 100.487 56.6321L99.6145 57.008C99.3326 56.4308 98.8896 55.6656 98.5137 55.1554L99.3729 54.793Z" fill="#333333"/>
<path d="M74.7123 61.7198H86.6601V62.8341H74.7123V61.7198ZM80.015 60.5116H81.3038V66.5258H80.015V60.5116ZM79.5317 62.1763L80.5788 62.6461C79.3572 64.2571 77.2361 65.6532 75.2627 66.3781C75.0614 66.0425 74.6855 65.5592 74.4036 65.3042C76.3501 64.7269 78.4578 63.5187 79.5317 62.1763ZM81.7736 62.2165C82.8476 63.5187 84.9552 64.6598 86.9689 65.2102C86.687 65.4518 86.2977 65.9485 86.1097 66.2707C84.0961 65.5995 81.9616 64.2571 80.7131 62.7132L81.7736 62.2165ZM79.3169 58.5248V59.6927H82.0153V58.5248H79.3169ZM79.3169 56.4172V57.5851H82.0153V56.4172H79.3169ZM78.1356 55.4372H83.2503V60.6861H78.1356V55.4372ZM80.0956 54.0679L81.5051 54.2558C81.2501 54.927 80.995 55.5848 80.7802 56.0278L79.666 55.8131C79.8271 55.3029 80.015 54.5914 80.0956 54.0679ZM74.766 55.6385L75.6386 54.9002C76.4575 55.464 77.4107 56.2829 77.8402 56.9139L76.9139 57.7328C76.5112 57.1018 75.5849 56.2292 74.766 55.6385ZM83.1161 58.8738L83.8544 58.0281C84.8747 58.5516 86.2574 59.3571 86.942 59.9344L86.15 60.8875C85.5056 60.2968 84.1632 59.4377 83.1161 58.8738ZM85.4251 54.7525L86.5259 55.4103C85.8144 56.1889 84.9284 57.0078 84.2169 57.5717L83.2637 56.9407C83.9618 56.3769 84.9015 55.4506 85.4251 54.7525ZM74.417 59.8807C75.2359 59.4779 76.4441 58.8067 77.6389 58.1489L77.9879 59.1826C77.0079 59.7733 75.934 60.4311 75.0614 60.9278L74.417 59.8807Z" fill="#333333"/>
<path d="M65.5835 57.3439C66.3487 57.4245 67.0871 57.4647 67.8925 57.4647C69.5169 57.4647 71.1815 57.3305 72.5508 57.0486V58.3642C71.1279 58.5924 69.4766 58.6998 67.8791 58.6998C67.1005 58.6998 66.3756 58.6729 65.5835 58.6192V57.3439ZM70.4566 55.0081C70.4163 55.2631 70.3895 55.5585 70.3761 55.8404C70.3492 56.3102 70.3358 57.2499 70.3358 58.1225C70.3358 60.3644 70.5372 62.2976 70.5372 63.64C70.5372 64.8751 69.9465 65.9222 68.0805 65.9222C66.2548 65.9222 65.1942 65.1838 65.1942 63.8816C65.1942 62.66 66.2682 61.7471 68.0536 61.7471C70.4298 61.7471 72.0273 62.9285 73.1281 63.9353L72.3897 65.0496C70.9265 63.6803 69.5706 62.7674 67.9462 62.7674C67.0468 62.7674 66.4293 63.1567 66.4293 63.7474C66.4293 64.3784 67.0334 64.6871 67.8925 64.6871C68.886 64.6871 69.1947 64.177 69.1947 63.3312C69.1947 62.3781 69.0202 59.9751 69.0202 58.136C69.0202 57.1694 69.0068 56.2968 69.0068 55.8538C69.0068 55.639 68.9799 55.2497 68.9397 55.0081H70.4566ZM63.8652 55.1155C63.7712 55.3571 63.637 55.9075 63.5967 56.1491C63.3551 57.2499 62.9389 60.0288 62.9389 61.4652C62.9389 61.9485 62.9658 62.4184 63.0329 62.9017C63.2342 62.3513 63.5162 61.6935 63.731 61.1833L64.4022 61.7203C64.0531 62.7271 63.5833 64.0964 63.4356 64.7811C63.3953 64.969 63.3685 65.2509 63.3819 65.3986C63.3819 65.5329 63.3953 65.7476 63.4088 65.9087L62.214 66.0027C61.9455 65.0496 61.6904 63.546 61.6904 61.7337C61.6904 59.7335 62.12 57.1828 62.2811 56.1089C62.3348 55.7598 62.3751 55.3437 62.3885 54.9946L63.8652 55.1155Z" fill="#333333"/>
<path d="M59.6633 64.5396C58.992 65.1974 58.1597 65.6001 57.1663 65.6001C56.2266 65.6001 55.5956 64.9558 55.5956 63.761C55.5956 62.2843 56.0923 60.1901 56.0923 58.9147C56.0923 58.1898 55.7165 57.8542 55.0855 57.8542C53.837 57.8542 51.8636 59.6531 50.6823 61.1164V59.4651C51.5146 58.5791 53.7431 56.6057 55.448 56.6057C56.7904 56.6057 57.4214 57.3843 57.4214 58.4852C57.4214 59.8545 56.9515 62.0158 56.9515 63.3851C56.9515 63.7878 57.1529 64.11 57.569 64.11C58.1463 64.11 58.8175 63.7341 59.4753 63.0629L59.6633 64.5396ZM50.5346 58.1227C50.0245 58.1898 48.6418 58.3643 47.702 58.512L47.5544 57.1293C47.89 57.1427 48.1719 57.1427 48.5612 57.1159C49.3398 57.0756 51.0313 56.8474 51.6488 56.646L52.1053 57.2098C51.8636 57.5454 51.4877 58.163 51.2595 58.5254L50.6823 60.6599C50.0782 61.5728 48.8565 63.3717 48.0779 64.4591L47.2322 63.3046C48.0779 62.2574 49.7963 59.9484 50.3869 58.9819L50.4272 58.4449L50.5346 58.1227ZM50.3869 55.7466C50.3869 55.411 50.4004 55.0351 50.3332 54.6592L51.9039 54.7129C51.6891 55.666 51.273 59.3712 51.273 61.7473C51.273 62.9152 51.273 63.8684 51.3401 65.09C51.3535 65.3316 51.3938 65.7344 51.4206 66.0029H49.9574C49.9842 65.7344 49.9976 65.3451 49.9976 65.1303C50.011 63.8281 50.0245 63.0495 50.0513 61.4922C50.0782 60.2975 50.3869 56.2701 50.3869 55.7466Z" fill="#333333"/>
<path d="M35.9422 55.8535C36.9222 55.9609 38.1572 56.0146 39.5399 56.0146C40.8421 56.0146 42.2785 55.9341 43.272 55.8267V57.2228C42.3457 57.3034 40.8018 57.3839 39.5399 57.3839C38.1706 57.3839 37.0161 57.3302 35.9422 57.2362V55.8535ZM36.7342 61.3844C36.5866 61.8945 36.4792 62.351 36.4792 62.8342C36.4792 63.7874 37.4323 64.4586 39.4862 64.4586C41.312 64.4586 43.0437 64.2572 44.1311 63.9216L44.1445 65.3983C43.084 65.6668 41.4194 65.8548 39.5265 65.8548C36.6537 65.8548 35.083 64.9016 35.083 63.143C35.083 62.4181 35.2441 61.7737 35.3515 61.2502L36.7342 61.3844Z" fill="#333333"/>
<path d="M120.919 31.8342C120.852 32.1296 120.785 32.4786 120.731 32.7739C120.624 33.3109 120.449 34.2909 120.275 35.0561C119.832 36.949 118.825 40.5064 117.348 42.8692L115.966 42.3188C117.523 40.238 118.57 36.667 118.946 35.0024C119.187 33.8747 119.362 32.6934 119.349 31.6731L120.919 31.8342ZM125.537 33.2975C126.37 34.4252 127.524 36.8818 127.954 38.1437L126.625 38.7613C126.249 37.3383 125.242 34.989 124.289 33.8479L125.537 33.2975ZM115.818 34.6936C116.274 34.7205 116.664 34.7071 117.12 34.6936C118.154 34.6668 120.812 34.3715 121.751 34.3715C123.054 34.3715 124.047 34.9084 124.047 36.7744C124.047 38.372 123.832 40.5199 123.268 41.661C122.839 42.5738 122.141 42.8289 121.201 42.8289C120.691 42.8289 120.047 42.7349 119.617 42.6409L119.389 41.2314C119.926 41.3925 120.664 41.5133 121.027 41.5133C121.51 41.5133 121.886 41.3925 122.127 40.8689C122.53 40.0232 122.731 38.3317 122.731 36.9355C122.731 35.7676 122.208 35.5797 121.362 35.5797C120.503 35.5797 118.073 35.875 117.295 35.9555C116.946 36.0092 116.328 36.0898 115.952 36.1435L115.818 34.6936ZM125.524 31.3912C125.859 31.8745 126.343 32.7068 126.611 33.2304L125.725 33.6197C125.457 33.0693 125.014 32.2638 124.651 31.7537L125.524 31.3912ZM127.054 30.814C127.403 31.3241 127.913 32.1698 128.155 32.6531L127.282 33.029C127 32.4652 126.557 31.6866 126.182 31.1764L127.054 30.814Z" fill="#333333"/>
<path d="M102.098 31.606H106.595V32.6934H102.098V31.606ZM107.374 38.4928H113.025V39.5668H107.374V38.4928ZM101.937 35.6871H106.957V36.8013H101.937V35.6871ZM104.219 36.1435H105.427V42.01C105.427 42.6141 105.32 42.9632 104.917 43.1645C104.528 43.3525 103.964 43.3793 103.132 43.3793C103.091 43.0437 102.93 42.5202 102.756 42.1845C103.306 42.198 103.843 42.198 104.018 42.198C104.165 42.1845 104.219 42.1443 104.219 41.9966V36.1435ZM112.609 38.4928H113.898C113.898 38.4928 113.885 38.8284 113.858 39.0029C113.616 41.4462 113.374 42.4665 112.985 42.8826C112.73 43.1645 112.462 43.2451 112.086 43.2988C111.763 43.3256 111.186 43.3256 110.569 43.2988C110.555 42.9497 110.421 42.453 110.233 42.1174C110.77 42.1711 111.28 42.1845 111.495 42.1845C111.696 42.1845 111.817 42.1711 111.938 42.0503C112.206 41.7952 112.421 40.8958 112.609 38.6673V38.4928ZM109.696 37.2175H110.958C110.716 39.9427 110.099 42.2248 106.998 43.433C106.864 43.1377 106.528 42.6812 106.259 42.453C109.052 41.4328 109.481 39.4862 109.696 37.2175ZM102.501 34.0896L103.293 33.2707C104.407 33.7137 105.83 34.4655 106.568 35.0427L105.709 35.969C105.038 35.3783 103.628 34.5729 102.501 34.0896ZM106.649 35.6871H106.81L106.998 35.6334L107.763 35.8885C107.508 37.0564 107.132 38.3854 106.743 39.258L105.87 38.8418C106.165 38.0901 106.461 36.8684 106.649 35.8885V35.6871ZM112.019 32.8679L113.334 33.0827C112.435 35.5394 110.421 36.855 107.844 37.6336C107.696 37.3517 107.307 36.8282 107.051 36.5731C109.508 36.0093 111.347 34.8816 112.019 32.8679ZM109.24 30.9482L110.421 31.2839C109.777 32.7203 108.716 34.0896 107.696 34.9487C107.468 34.7474 106.957 34.3849 106.662 34.2238C107.709 33.4452 108.689 32.2236 109.24 30.9482ZM109.173 33.1767C110.126 34.8548 112.072 36.1032 114.448 36.5865C114.166 36.8416 113.804 37.3383 113.629 37.6605C111.173 37.0161 109.213 35.5663 108.125 33.5257L109.173 33.1767ZM104.085 36.063L104.917 36.3717C104.407 38.1572 103.467 40.2111 102.38 41.2583C102.259 40.8958 101.964 40.3722 101.762 40.05C102.729 39.164 103.655 37.5128 104.085 36.063ZM109.052 32.3578H114.126V33.4183H108.528L109.052 32.3578ZM106.3 31.606H106.568L106.77 31.5658L107.588 32.0759C106.984 33.029 105.924 34.0761 104.984 34.7205C104.756 34.5192 104.393 34.2507 104.138 34.103C104.984 33.5257 105.884 32.5323 106.3 31.8343V31.606Z" fill="#333333"/>
<path d="M88.4721 39.2177H100.326V40.2783H88.4721V39.2177ZM88.5124 33.2707H100.272V34.3312H88.5124V33.2707ZM89.0628 35.62H99.7755V36.6402H89.0628V35.62ZM89.734 37.4457H99.1311V38.3988H89.734V37.4457ZM93.7211 36.1167H94.983V43.433H93.7211V36.1167ZM92.5129 30.9482H93.7076V33.7808H92.5129V30.9482ZM95.0367 30.9482H96.2449V33.7137H95.0367V30.9482ZM93.4123 39.6742L94.4191 40.1306C93.1572 41.5267 90.9422 42.6812 88.9151 43.2317C88.7406 42.9229 88.3647 42.4262 88.0962 42.1711C90.0964 41.7415 92.2846 40.775 93.4123 39.6742ZM95.3051 39.6339C96.4194 40.775 98.6076 41.7281 100.675 42.1174C100.38 42.3859 100.004 42.9095 99.8158 43.2585C97.735 42.7081 95.5736 41.5133 94.3117 40.05L95.3051 39.6339ZM98.1377 31.0959L99.4533 31.4315C99.0506 32.1699 98.5807 32.9216 98.2183 33.4452L97.1846 33.1096C97.5202 32.5592 97.9363 31.7 98.1377 31.0959ZM96.3523 33.9553L97.6813 34.2775C97.3322 34.895 96.9832 35.4991 96.7013 35.9287L95.6273 35.62C95.8824 35.1367 96.2046 34.4386 96.3523 33.9553ZM89.546 31.4449L90.6334 31.0691C91.063 31.6597 91.5329 32.4786 91.7208 33.0156L90.5797 33.4452C90.4052 32.9082 89.9488 32.0625 89.546 31.4449ZM91.2778 34.3983L92.4994 34.1835C92.7679 34.5997 93.0498 35.1635 93.1706 35.5528L91.8953 35.7945C91.7879 35.4186 91.5329 34.8145 91.2778 34.3983Z" fill="#333333"/>
<path d="M77.1822 32.8276C77.1017 33.2169 77.048 33.915 77.048 34.2775C77.0346 35.1366 77.048 36.2643 77.1285 37.3114C77.3433 39.4191 77.8803 40.8421 78.7932 40.8421C79.451 40.8421 80.0416 39.3654 80.3504 38.1437L81.4109 39.3922C80.5652 41.7012 79.7463 42.4933 78.7663 42.4933C77.397 42.4933 76.162 41.2045 75.7861 37.6739C75.6653 36.4791 75.6384 34.8682 75.6384 34.0761C75.6384 33.7405 75.625 33.1632 75.5444 32.8008L77.1822 32.8276ZM84.0421 33.1767C85.2772 34.7205 86.2706 37.7947 86.4451 39.9695L85.0758 40.5199C84.8476 38.2109 84.0824 35.2306 82.7131 33.6197L84.0421 33.1767Z" fill="#333333"/>
<path d="M68.2279 31.3241L69.6241 31.5658C69.02 35.1233 67.9997 39.4996 67.1137 42.3188L65.9055 42.0637C66.7781 39.2312 67.7715 34.7339 68.2279 31.3241ZM64.6301 41.8221C66.429 41.661 69.3421 41.3254 72.0807 40.9898L72.1344 42.1711C69.5704 42.547 66.8183 42.896 64.9121 43.1511L64.6301 41.8221ZM69.6912 37.5397L70.8054 37.1369C71.8659 38.9761 72.9668 41.3925 73.3695 42.9363L72.121 43.4196C71.7854 41.8892 70.7383 39.4191 69.6912 37.5397ZM60.8579 33.6331H65.9994V34.8279H60.8579V33.6331ZM62.8984 30.9482H64.1469V41.9563C64.1469 42.6678 63.9858 43.0034 63.5696 43.2048C63.1266 43.4062 62.4688 43.433 61.4485 43.433C61.3814 43.1108 61.2338 42.5739 61.0592 42.2382C61.7305 42.2651 62.4151 42.2517 62.6165 42.2517C62.8313 42.2382 62.8984 42.1711 62.8984 41.9563V30.9482ZM60.6699 37.9156C62.0124 37.6605 64.1066 37.2041 66.08 36.761L66.174 37.8887C64.3482 38.3451 62.4017 38.8284 60.9518 39.164L60.6699 37.9156Z" fill="#333333"/>
<path d="M50.7088 37.1775C52.1453 40.01 55.1926 41.6881 59.5556 42.2385C59.2737 42.5338 58.9246 43.0977 58.7367 43.4601C54.2395 42.7889 51.2324 40.9095 49.5275 37.5936L50.7088 37.1775ZM48.1985 36.0095H56.8841V37.2446H48.1985V36.0095ZM47.5675 32.895H58.9783V34.1569H47.5675V32.895ZM52.6017 30.9619H53.9173V36.5734H52.6017V30.9619ZM56.4814 36.0095H56.7633L56.9915 35.9558L57.8775 36.466C56.2263 40.7081 52.2795 42.6278 47.742 43.4198C47.6212 43.0977 47.2856 42.4936 47.0439 42.2116C51.474 41.5673 55.1658 39.9161 56.4814 36.2377V36.0095Z" fill="#333333"/>
<path d="M33.7135 33.1233H45.5405V34.3583H33.7135V33.1233ZM40.1304 34.2106C41.1238 37.3117 43.1644 40.1174 45.9432 41.339C45.6345 41.6075 45.2183 42.1042 45.0035 42.4667C42.1575 41.0303 40.2378 38.0098 39.1236 34.506L40.1304 34.2106ZM43.9161 34.7745L45.0304 35.5665C44.1309 36.5868 42.9362 37.7547 42.0233 38.5065L41.1104 37.8084C42.0099 37.0432 43.2181 35.7679 43.9161 34.7745ZM41.3118 31.7674L42.077 30.9619C42.8959 31.3646 43.9967 31.9822 44.5739 32.4252L43.7685 33.3246C43.2449 32.8682 42.1575 32.197 41.3118 31.7674ZM34.3579 35.6605L35.3245 35.0027C36.1165 35.7008 37.0697 36.6942 37.4858 37.3922L36.4521 38.144C36.0628 37.4459 35.1499 36.3988 34.3579 35.6605ZM38.9222 30.9888H40.2244V41.7955C40.2244 42.6144 40.0365 42.9768 39.5398 43.1916C39.0431 43.4198 38.2107 43.4467 37.016 43.4467C36.9488 43.0842 36.7609 42.4936 36.5595 42.1042C37.4455 42.1445 38.3047 42.1311 38.5732 42.1311C38.8283 42.1177 38.9222 42.0505 38.9222 41.7955V30.9888ZM33.3242 40.99C34.4519 40.4262 36.1971 39.4462 37.8348 38.5065L38.251 39.6476C36.8414 40.5336 35.2976 41.4599 34.1163 42.1445L33.3242 40.99Z" fill="#333333"/>
<path d="M20.2892 35.0564H24.2762V36.0364H20.2892V35.0564ZM20.3429 31.4183H24.236V32.3983H20.3429V31.4183ZM20.2892 36.8687H24.2762V37.8487H20.2892V36.8687ZM19.6582 33.1904H24.7192V34.2241H19.6582V33.1904ZM20.853 38.6944H24.2897V42.6949H20.853V41.6612H23.1888V39.7281H20.853V38.6944ZM20.2757 38.6944H21.3631V43.2722H20.2757V38.6944ZM25.028 31.7942H31.8208V32.7339H25.028V31.7942ZM25.377 33.4052H31.6194V34.2912H25.377V33.4052ZM24.7058 35.0161H32.1027V35.9558H24.7058V35.0161ZM27.78 30.9619H28.9882V35.8082H27.78V30.9619ZM25.6724 36.627H30.8274V37.5533H26.8537V43.4064H25.6724V36.627ZM30.1293 36.627H31.3241V42.1714C31.3241 42.7486 31.2033 43.044 30.814 43.2185C30.4112 43.3796 29.8205 43.3796 28.9748 43.3796C28.9345 43.0842 28.7734 42.6412 28.6258 42.3593C29.1896 42.3727 29.74 42.3727 29.9145 42.3593C30.089 42.3593 30.1293 42.3056 30.1293 42.1579V36.627ZM26.1959 38.3588H30.7334V39.2314H26.1959V38.3588ZM26.1959 40.0503H30.7334V40.9095H26.1959V40.0503Z" fill="#333333"/>
</svg>
