<svg width="276" height="128" viewBox="0 0 276 128" fill="none" xmlns="http://www.w3.org/2000/svg">
<path d="M28.8253 67.3982C24.6863 64.2266 22.4149 58.6589 22.3758 53.4722C21.9067 45.5696 24.0566 39.3667 27.214 32.5767C28.0739 31.6918 28.3258 30.5616 29.2379 29.7293C28.1695 28.1611 26.1804 26.8863 27.0663 24.5558C28.5777 23.5439 30.5625 24.4419 32.0913 24.3937C31.5267 23.4475 30.8014 22.5101 31.1619 21.3229C33.2987 18.6858 36.8297 20.4994 39.353 20.9506C39.062 19.9956 38.1717 19.0625 37.8807 18.0024C37.8112 17.2534 37.9111 16.5568 38.1717 15.9611C40.4822 13.854 43.7352 15.3522 46.0457 16.3509C45.9241 15.6062 45.303 14.5023 45.6679 13.6875C46.2498 12.5442 47.7786 12.6581 48.8166 12.623C50.0283 13.2276 51.3964 13.1838 52.6603 13.6744C57.7287 15.8647 62.632 17.0737 66.7232 20.6615C67.8698 20.7097 69.568 22.3655 69.3465 23.7279C70.5756 25.2918 71.8047 26.6454 73.0338 28.1041C74.5669 28.2136 76.1174 29.449 76.5821 30.8771C76.8297 32.476 77.2422 34.2238 76.2303 35.595C78.0153 40.6195 78.1586 45.5346 78.1456 50.9402C77.5984 53.9015 76.8948 57.2396 76.0175 60.1001C79.2053 58.0719 81.9328 54.9354 85.29 53.17C85.4985 49.5779 87.5571 45.6616 91.1402 44.2072C93.5506 41.4037 96.391 38.3153 99.6353 36.4448C100.013 36.274 100.617 36.2521 100.951 36.6157C101.216 39.1214 99.5571 41.154 98.011 43.1296C98.8318 43.318 99.2357 44.3211 98.923 45.1316C98.771 45.885 100.191 45.7317 100.152 46.6954C100.161 47.0678 100 47.3438 100.061 47.7687C100.665 47.8037 100.673 48.4433 100.956 48.8113C101.034 50.0904 100.565 51.3914 100.148 52.583C97.6983 56.1926 94.758 59.7102 90.0023 59.5438C84.4952 66.2987 78.6538 72.6944 72.4388 79.366C72.1434 84.0839 72.4909 88.3507 72.0349 93.2876C72.3085 93.384 72.2607 93.6556 72.265 93.9228C71.5137 94.7507 71.5354 95.8722 71.4442 96.9454C70.7667 101.729 69.3812 106.692 67.8785 111.397C67.7135 111.349 67.6614 111.564 67.5571 111.62L67.8915 111.931C72.2173 112.383 77.8373 111.984 79.5615 116.689C79.1402 117.613 78.1109 118.073 77.0729 118.051C73.1988 118.336 68.821 118.104 64.6125 117.92C63.8438 117.679 62.9665 117.6 62.1977 117.355C61.8763 117.74 61.9936 118.27 61.6766 118.656C58.6711 118.7 55.8915 118.949 52.821 118.516C51.5441 117.434 51.075 115.681 51.4268 113.96C51.5745 113.154 52.9295 112.413 51.9306 111.59C52.4865 109.005 51.7743 106.031 50.6928 103.499L50.3584 103.188C48.8123 105.378 48.2086 108.125 47.6527 110.762C47.2097 113.399 48.239 116.146 47.796 118.783C45.9502 119.484 43.2661 118.984 41.2509 119.527C40.3128 119.129 40.3563 118.327 39.796 117.648C36.0957 118.568 32.5083 119.541 28.6646 118.542C26.758 118.765 25.0989 117.749 23.3964 117.215C23.227 116.794 22.5104 116.601 22.6103 116.062C22.784 113.544 25.6201 113.399 27.3573 112.593C28.4996 112.396 29.5289 111.936 30.8448 112.054C30.5929 110.135 29.5202 108.3 29.429 106.215C28.4692 101.541 27.3964 96.5994 27.0881 91.6361C26.0978 91.347 24.9556 91.439 23.9133 91.312C22.3758 90.9352 20.0305 91.1718 19.1793 89.4327C17.6462 86.1122 18.8275 82.0075 20.4084 78.9104C22.1326 74.5736 25.6158 70.7713 28.834 67.407L28.8253 67.3982Z" fill="black"/>
<path d="M29.5983 67.9072C31.9349 70.1326 36.9338 68.7395 37.2291 72.9011C37.8676 75.0213 39.5961 76.8349 40.0695 78.9069C39.696 79.345 39.4875 79.8882 39.4398 80.427C36.5559 81.2155 33.3942 81.4258 30.3974 81.8945C30.9229 80.703 31.1705 79.196 32.4126 78.4075C32.4039 77.9257 32.126 77.7198 31.7394 77.4657L31.4137 77.584C30.3497 79.2749 29.6721 81.0622 28.7774 82.8057L29.1119 83.1167L36.0869 82.1442C36.4083 84.9127 36.1824 87.3308 36.0087 90.0643C33.2335 90.6338 30.1759 90.7346 27.379 90.3403C25.0902 90.7871 22.5712 90.3885 20.4821 89.7051C18.1325 86.7307 19.9262 83.0378 20.8513 79.9583C22.8491 75.6127 25.7199 71.2978 29.594 67.9072H29.5983Z" fill="white"/>
<path d="M23.8914 114.946C25.3463 113.881 27.1487 113.662 28.773 112.97C30.0282 112.821 31.4484 112.94 32.608 113.487C36.2692 113.531 40.2084 113.829 43.9739 113.549L46.5971 113.57L47.1183 118.262C45.3159 118.372 43.2356 118.227 41.3333 118.661C40.5038 118.205 41.2334 116.151 39.7654 116.676C34.6058 118.393 28.1607 118.604 23.3659 116.243C23.1357 115.66 23.6786 115.375 23.887 114.942L23.8914 114.946Z" fill="#231815"/>
<path d="M23.227 47.7864C23.948 42.2537 25.8763 37.1634 28.4127 32.3228L29.7981 30.3516C30.1282 30.3954 30.3454 30.2815 30.5582 30.0055C29.4898 28.4372 27.227 27.1187 28.0609 24.9503C30.0804 24.8845 32.543 25.0203 34.315 26.3521C34.5321 26.3433 34.8101 26.3915 34.9664 26.1155C34.5104 25.0072 32.695 24.4772 32.5126 23.3075C32.1782 22.8914 31.948 22.3088 32.0479 21.8269C33.872 19.895 37.0598 21.0778 39.1488 21.7042C39.974 22.0503 40.695 22.6723 41.5723 22.8038C41.8807 21.7787 40.3953 21.1829 40.1087 20.39C39.7048 19.1722 38.1022 18.2611 38.8405 16.6884C40.4431 14.6558 43.3095 16.1146 45.1771 16.6972C46.5017 17.3499 47.67 18.4889 49.0424 19.0321C49.5289 18.7473 49.0294 18.3881 49.0251 18.0683C47.8568 17.0345 46.1412 15.6984 46.6537 13.8673C48.8687 12.3516 50.8752 14.5332 53.1163 14.6208C57.1944 16.522 61.5332 17.88 65.2466 20.7536C64.1043 20.9508 63.2444 21.8356 62.771 22.8651C62.354 23.9471 62.2194 25.7169 62.9491 26.7113C65.0815 26.8033 63.3443 24.3457 64.3128 23.4565C64.417 23.1323 64.7341 22.5847 65.1684 22.3613C65.6592 22.2912 66.632 21.9452 67.0793 22.3613C68.239 23.0184 67.6917 26.0235 69.4811 25.2175C70.0457 26.1637 71.2574 26.8733 71.6049 27.9291C70.1803 27.8152 68.9903 28.2795 68.0218 29.3265C67.227 30.6889 66.2672 32.003 66.2411 33.6633C65.0381 33.5406 63.5614 33.4837 62.645 34.316C61.0772 32.1739 58.1803 32.1082 55.6222 32.831C54.0457 33.3085 52.4909 34.8592 52.1912 36.4713L52.1217 38.6134C47.5484 39.6165 43.2618 41.1454 38.7449 42.2537C37.3334 39.84 34.6407 38.9113 32.2216 38.079C30.7927 37.7504 29.7808 39.069 28.8687 40.0064C26.3714 43.9928 27.1792 49.4203 29.759 53.03C31.366 54.3135 32.6516 55.9299 34.7406 56.5082C35.7525 55.137 33.6288 55.4218 33.1771 54.7384C31.9002 53.6038 30.467 52.8986 29.9458 51.3128C27.9653 47.6331 27.6136 43.2568 30.3931 39.8531C31.9436 37.93 33.7286 40.0108 35.3182 40.335C36.2607 41.0534 37.6939 41.8638 37.6592 42.9327C38.3758 43.178 38.4409 43.8701 39.1054 44.2775C39.4833 44.0497 39.4746 43.5722 39.3052 43.3094C43.5441 41.9952 47.8872 40.5715 52.2476 39.7918C52.6689 41.8112 54.4409 43.1999 56.3649 43.8307C59.0489 44.2775 62.1021 43.8614 63.6439 41.5615C64.7645 40.0283 64.6689 37.8906 63.9827 36.204C63.7004 35.8405 63.5962 35.8098 63.1966 35.1615C64.0088 34.7059 65.151 34.5613 66.1412 34.7453C67.1488 36.1559 68.2824 38.206 70.3584 38.2454C72.3823 38.2892 74.2368 38.1753 75.683 36.6815C75.4746 37.1678 76.239 37.1984 76.1391 37.6277C78.3627 45.6881 77.5853 54.1076 74.2715 61.4364C70.9404 67.5867 64.1999 69.6237 57.7156 70.5305C57.5245 69.0937 58.0413 67.3108 57.1988 66.163C53.5202 65.265 49.3204 65.668 45.6114 65.8958C44.5213 66.1455 43.4398 66.715 42.9143 67.8014L42.5234 70.2764C36.1174 69.6281 30.6277 68.384 26.2715 63.3332C23.4615 58.9307 23.0272 52.662 23.2096 47.7908L23.227 47.7864Z" fill="#FFE3CA"/>
<path d="M28.0565 91.4921C32.3736 91.514 36.5256 91.5403 40.2693 89.9195C40.6993 89.5296 40.6341 88.9995 40.7905 88.5133C41.2248 88.4476 41.8198 87.9438 42.0978 88.2592C42.1108 89.0609 42.0196 89.8669 42.6841 90.3794C44.0522 90.6028 45.7981 90.2787 47.2661 90.0158C47.3964 91.1329 46.7058 92.228 46.6711 93.459C46.5234 94.3176 46.1542 95.0798 45.8415 95.8377C43.7221 96.4948 41.7416 95.8114 39.5006 95.7194C35.5657 95.5792 31.835 94.9484 28.3214 93.8313C28.0913 93.1436 27.8003 92.136 28.0609 91.4877L28.0565 91.4921Z" fill="white"/>
<path d="M28.2128 94.7019C33.7633 96.5023 39.7785 96.6294 45.8458 96.809C49.0945 98.1494 51.6569 100.953 53.9457 103.608L54.3757 103.275L54.4886 103.38C56.139 101.08 57.4028 98.4167 59.3833 96.1606C63.2096 96.1431 67.1314 95.4291 70.6102 94.623C69.9544 100.581 68.6341 106.24 66.3279 111.558C61.7937 111.545 57.051 112.233 52.7774 111.567C52.3735 110.402 52.5689 109.219 52.4951 108.045C51.7524 106.144 52.2476 103.292 50.202 102.022C48.139 102.784 47.8567 105.255 47.3442 107.143C46.9359 108.812 46.4235 110.49 46.4539 112.308C41.164 112.798 37.1162 112.557 32.0261 112.237C29.5201 106.7 28.8686 100.787 28 94.9297L28.2128 94.7107V94.7019Z" fill="#175296"/>
<path d="M32.5386 43.0989C33.2465 42.8624 34.0153 43.1603 34.5147 43.6772C35.0185 44.4087 35.9045 45.1315 35.8698 45.9858C35.1054 46.1172 34.9751 44.8906 34.4192 44.4263C33.9718 43.905 33.3073 43.4976 32.6602 43.8436C31.9045 44.4044 31.9219 45.3111 31.8263 46.1172C32.1868 47.9264 33.5853 49.7531 35.2921 50.4978C35.3486 50.6555 35.4615 50.8132 35.4094 51.0278C34.3149 50.9577 33.1553 50.1911 32.4257 49.1967C31.3008 47.5234 30.0457 44.4044 32.5343 43.0946L32.5386 43.0989Z" fill="black"/>
<path d="M37.2812 81.78C37.9891 81.6486 38.7535 81.7318 39.3485 81.3945L39.6872 82.0253C39.7263 84.2682 40.2649 86.8747 39.8175 89.1876C39.0054 89.6958 37.7589 90.1076 36.9858 89.8141C37.3724 87.0192 36.6167 84.4215 37.2768 81.78H37.2812Z" fill="white"/>
<path d="M42.4496 71.3451C42.6928 72.782 42.7189 74.2232 42.7493 75.8265C41.8807 76.1244 41.4029 76.8866 40.8123 77.6007C39.4095 75.5593 38.4366 73.1324 37.4116 70.8633C38.9404 70.8633 40.8557 71.021 42.4496 71.3408V71.3451Z" fill="white"/>
<path d="M42.658 77.0049C43.0532 77.7408 42.5798 78.6651 43.3573 79.3354C44.7036 78.3278 46.8448 78.7966 48.4821 78.744C49.0902 79.0988 50.0196 79.1207 50.2541 79.9706C50.936 81.3373 48.3822 82.1696 49.8763 83.1903C49.7286 84.0489 48.6472 84.6753 48.9338 85.5734C47.9219 86.8875 46.4626 87.8995 44.8209 87.7374C43.3486 87.9433 42.2758 85.8931 40.8773 87.33C41.1466 84.1672 38.8882 79.9574 42.1238 77.662C42.063 77.2371 42.4973 77.2239 42.658 77.0049Z" fill="#FFE3CA"/>
<path d="M43.0835 88.4388C45.1725 89.0653 47.1834 88.5221 48.634 87.0852C50.1454 86.1259 49.6807 84.4832 50.7534 83.3792C50.4103 82.5338 50.4494 81.7847 51.0401 81.0181C51.457 79.8266 50.8359 78.7226 49.7849 78.1707C47.9651 77.3209 45.7893 77.7633 43.7741 78.0437C44.0477 74.986 42.9402 71.1179 44.0303 67.9814C44.7773 66.9388 46.2496 66.7329 47.5048 66.7986C50.3408 66.3868 53.6763 66.7066 56.6861 66.93C56.9814 68.2048 57.0205 73.2863 56.7122 74.3114C56.4646 78.7577 56.8251 83.6684 55.4266 87.8343L54.6709 88.395C50.6883 88.7367 46.9879 89.5515 43.2138 89.407C42.9923 89.1485 43.1486 88.7674 43.0878 88.4476L43.0835 88.4388Z" fill="#BBBCBC"/>
<path d="M48.5777 90.081C51.0272 89.5202 53.3812 89.7656 55.7656 88.6704C56.6212 87.5183 56.8687 86.1209 57.0034 84.6709C57.3421 85.2491 57.303 86.1603 57.4811 86.9006C54.2672 90.5891 51.6005 94.0454 47.935 96.9454C46.2889 96.5686 47.3052 95.3596 47.4529 94.3915C47.974 93.0379 48.0566 91.4302 48.5777 90.0766V90.081Z" fill="#FDD000"/>
<path d="M57.6113 88.0791C58.076 89.5072 58.6493 91.2025 58.4625 92.8671C56.2606 95.0793 54.2931 98.0844 52.0304 99.9199C51.0836 99.0394 50.0282 98.0581 48.925 97.4536C52.152 94.6237 54.5494 91.2288 57.6069 88.0791H57.6113Z" fill="white"/>
<path d="M52.925 112.94C54.4581 113.159 55.8696 112.576 57.2985 113.014C58.0629 112.883 58.875 112.694 59.5916 112.835C65.1074 112.817 71.2181 112.248 76.3387 114.219C77.2203 114.78 78.3278 115.494 78.3452 116.506C77.9239 117.377 76.6644 117.15 75.735 117.233C70.6448 116.86 66.0759 117.92 61.4027 116.304C61.1421 116.9 61.0336 117.119 61.103 117.811C58.2105 118.065 55.7002 118.201 52.9033 117.649C52.1128 116.282 51.6959 114.263 52.9293 112.94H52.925Z" fill="#231815"/>
<path d="M52.43 24.9155C53.2335 23.978 54.4278 23.6758 55.5787 23.851C57.3898 24.3285 58.4018 25.8442 59.0315 27.4825C58.7666 27.8636 58.6059 28.1396 58.1716 28.2579C57.0076 27.3336 56.5342 25.2616 54.6189 25.2703C53.6938 25.4061 53.0511 26.2297 52.6819 27.0445C52.2693 28.3937 52.6689 29.3969 52.4213 30.6891C52.2649 31.0703 51.822 30.8162 51.5527 31.0396C50.7275 30.6935 51.3095 29.7123 50.9707 29.134C51.3268 27.6797 50.9142 25.9274 52.4256 24.9155H52.43Z" fill="black"/>
<path d="M54.5276 98.6634C55.6003 97.4499 56.6079 95.816 57.9543 94.8084L58.0672 94.9136L58.71 94.1426C59.6698 95.8247 57.6633 96.6921 57.2507 98.0413C56.4603 99.6183 55.0618 100.998 54.1628 102.527C53.7675 101.896 53.1552 101.222 52.8164 100.643L54.5276 98.6634Z" fill="#FDD000"/>
<path d="M54.7884 34.3605C56.6298 33.3398 59.2487 33.2522 61.125 34.1546C62.2846 34.9212 62.9056 35.9901 63.2531 37.0809C64.0435 38.5002 63.3095 40.1824 62.6754 41.4878C61.0641 42.9859 58.7797 43.5379 56.5821 43.0736C54.6537 42.2807 53.3682 40.5547 53.1119 38.5834C53.0815 36.9801 53.2162 35.3155 54.784 34.3561L54.7884 34.3605Z" fill="white"/>
<path d="M57.2768 81.5607C57.6069 81.6046 57.8153 81.2234 57.9239 81.0044C57.9152 80.6321 58.3452 80.0801 58.0064 79.6114C58.5406 78.8973 58.6318 77.9336 59.166 77.2196C60.1041 77.8328 60.8338 78.8754 61.9326 79.055L62.7838 77.8504C63.8262 75.0336 64.3169 71.9716 66.0194 69.4002C71.6829 68.1999 74.3539 61.8568 79.0575 59.0313C79.9695 58.1464 81.0987 57.095 82.1801 56.5781C83.8566 58.6107 84.938 60.9281 86.1237 63.1885C81.1508 69.0716 76.2127 74.2057 71.2312 79.7165C71.8045 84.3512 71.4527 88.964 71.0444 93.6293C68.5993 94.2952 66.5319 94.7902 63.9695 95.1406C62.28 95.3027 61.5156 95.4341 59.8175 95.2764C59.3615 91.1718 58.7925 86.8569 57.52 82.9406C56.647 82.9144 57.3419 82.0382 57.2768 81.5564V81.5607Z" fill="white"/>
<path d="M57.6113 75.7744C57.8372 76.195 58.3887 76.4446 58.1803 77.0404L57.5462 78.2363C57.5896 77.5398 57.4072 76.5279 57.6113 75.7744Z" fill="#FDD000"/>
<path d="M57.7546 71.5994C59.874 70.8372 62.2193 70.6532 64.3909 69.9961C63.7264 72.4799 62.9055 75.393 61.8024 77.9951L61.5852 78.0038C59.696 76.2998 56.3387 74.9111 57.7546 71.5994Z" fill="white"/>
<path d="M59.7437 36.6598C60.3952 36.5327 61.1118 36.6685 61.2855 37.3607C61.2377 37.7374 61.0814 38.1711 60.6471 38.3419C59.9435 38.7931 59.6047 38.1097 59.2138 37.7462C59.0966 37.2687 59.3615 36.8306 59.7394 36.6598H59.7437Z" fill="black"/>
<path d="M65.0033 43.4456C66.215 40.9442 68.7036 39.5819 71.2747 39.8184C72.152 40.0594 73.3073 40.3397 73.7069 41.3429C75.4311 43.5157 73.1205 48.4482 68.1564 48.584C66.7362 48.7374 65.5201 47.813 64.9512 46.6522C64.4517 46.2404 64.7687 44.4137 65.0033 43.4412V43.4456Z" fill="black"/>
<path d="M63.5786 55.3654C67.2703 54.1213 71.2529 53.5694 74.6579 51.585C74.5319 53.784 73.0379 55.7553 72.2562 57.8668C70.7621 59.8424 68.8425 62.4708 65.9891 61.8137C63.4614 61.0909 62.3191 58.4012 62.0585 56.0576C61.9282 55.0456 63.1443 55.7553 63.5743 55.3654H63.5786Z" fill="black"/>
<path d="M65.2291 55.8466C68.0565 55.0625 71.1054 54.5324 73.481 52.9072C72.4474 56.1489 70.8187 59.7848 67.4007 61.2348C66.2498 60.95 64.8252 60.8361 64.2042 59.6271C63.6396 58.6283 63.1271 57.52 63.1618 56.4511C63.9262 56.3723 64.5777 56.0832 65.2248 55.851L65.2291 55.8466Z" fill="#B44E26"/>
<path d="M68.569 41.0845C69.7112 40.8348 71.3442 40.3529 72.5038 41.1721C73.3377 41.8949 73.7373 43.0032 73.4333 44.1378C73.0728 45.3775 67.3486 49.5259 65.8285 46.5208C64.7818 44.4619 66.7362 42.2147 68.5733 41.0845H68.569Z" fill="#FFE3CA"/>
<path d="M69.8849 29.1646C71.5223 28.9499 73.3203 28.6258 74.5929 29.7604C76.1433 30.8862 76.0738 33.0283 75.7742 34.7499C75.253 36.1035 74.0109 36.9971 72.6515 37.4177C70.8491 37.3695 68.7731 37.5973 67.9218 35.6435C66.5277 34.1366 67.5353 32.288 68.1607 30.7153C68.5863 30.0582 69.2335 29.5589 69.8806 29.1646H69.8849Z" fill="white"/>
<path d="M72.9859 31.5262C73.798 31.2327 74.0847 31.8635 74.532 32.3322C74.4886 32.8666 74.2801 33.515 73.6808 33.642C73.1379 33.8216 72.6905 33.1908 72.5733 32.8228C72.5646 32.341 72.4994 31.8065 72.9859 31.5262Z" fill="black"/>
<path d="M85.0119 74.1448C87.861 71.5909 90.4842 68.6208 91.2964 65.1689L91.6221 65.1602C92.0043 68.0382 89.3072 70.154 87.8219 72.5546C86.3756 74.101 84.7035 75.3319 82.8664 76.4577C82.532 76.0942 82.1498 75.9978 82.5233 75.5072L85.0119 74.1448Z" fill="black"/>
<path d="M85.1249 80.5582C88.4734 78.2584 91.6396 75.1043 93.0511 71.5297L93.4897 71.5166C93.2986 73.0192 92.2867 74.4428 91.4919 75.8622C89.7286 77.9517 87.7872 79.6207 85.7981 81.1802C84.8773 81.5307 83.7351 81.995 82.7449 81.6008C83.0576 80.7904 84.3171 80.9086 85.1292 80.5626L85.1249 80.5582Z" fill="black"/>
<path d="M85.5245 54.2305C86.8144 56.009 87.9914 57.7875 88.7949 59.7938L86.8709 62.1024C85.5767 60.0041 84.4996 57.8445 83.0403 55.8075L85.5245 54.2305Z" fill="white"/>
<path d="M91.1532 45.1667C91.6396 44.8294 92.4605 44.8557 93.0077 44.8907C93.3986 45.412 93.7938 46.0954 93.3682 46.6999C92.3519 47.8564 91.3269 48.6931 90.0327 49.4816C90.0327 49.6962 89.9849 49.9635 90.2629 50.1168C90.8665 50.3665 91.1271 49.6086 91.4529 49.4378C91.5701 49.9678 92.0739 50.6468 92.682 51.0017C93.9284 50.4804 93.6288 52.0924 94.4583 52.4429C94.3063 53.1964 94.2715 54.1601 94.936 54.6726C95.4876 55.0844 96.3128 55.1632 97.0164 54.9267C96.8166 56.0569 95.2531 57.0688 94.2238 57.6909C92.7601 58.326 91.0142 58.383 89.4333 58.7028C88.6733 56.0525 85.3595 54.125 86.454 51.098C87.1706 48.5091 88.556 46.3757 91.1575 45.1711L91.1532 45.1667Z" fill="#FFE3CA"/>
<path d="M93.3855 47.6637C93.8719 47.3789 93.9153 46.6298 94.5711 46.6649L97.3638 44.0059L98.3496 44.295C98.4322 45.8983 97.1379 46.6868 96.2302 47.8915C95.2096 48.9428 94.1933 50.1519 92.7731 50.0336C92.2736 49.5692 92.7557 49.0173 92.8556 48.531C93.0163 48.2594 93.5592 48.0798 93.3855 47.6593V47.6637Z" fill="#FFE3CA"/>
<path d="M100.408 37.168C100.378 38.4515 99.796 39.4897 99.1576 40.5235C97.8807 42.3853 96.4909 44.085 94.5495 45.4867C94.1022 44.9655 93.6462 43.9623 92.7732 43.9404C94.8579 41.3076 97.3204 38.4997 100.408 37.168Z" fill="#FFE3CA"/>
<path d="M94.5319 50.6208C95.9825 49.1839 97.5981 47.9004 98.4971 46.2139C98.3972 46.7527 99.2138 46.6169 99.2702 46.6169C99.4048 48.0055 98.8316 49.4687 97.698 50.4105C96.8294 50.8661 95.8696 52.0751 94.875 51.3567C94.6014 51.2603 94.4841 50.9405 94.5319 50.6208Z" fill="#FFE3CA"/>
<path d="M97.0684 51.8259C98.3105 50.9849 99.6048 50.0343 99.8523 48.5273C100.695 49.6751 99.8436 51.1995 99.3746 52.3954C98.519 53.4906 97.2291 54.4981 95.8002 54.2221C95.4701 54.0206 95.3007 53.7052 95.2399 53.3854C94.9967 52.1107 96.5385 52.5926 97.0684 51.8303V51.8259Z" fill="#FFE3CA"/>
<path d="M60.6601 81.3906C60.443 81.3906 60.2649 81.6228 60.2649 81.9032V90.7432C60.2649 91.028 60.4256 91.3609 60.6167 91.4836L64.773 94.1251C64.9685 94.2477 65.2855 94.2477 65.481 94.1251L69.7025 91.4792C69.8979 91.3565 70.0586 91.028 70.0586 90.7432V81.9032C70.0586 81.6184 69.8805 81.3906 69.6634 81.3906H60.6601ZM62.6319 91.2864C61.9631 91.2864 61.4202 90.5768 61.4202 89.705C61.4202 88.8333 61.9631 88.1236 62.6319 88.1236C63.3007 88.1236 63.8436 88.8333 63.8436 89.705C63.8436 90.5768 63.3007 91.2864 62.6319 91.2864ZM67.709 91.2864C67.0401 91.2864 66.4973 90.5768 66.4973 89.705C66.4973 88.8333 67.0401 88.1236 67.709 88.1236C68.3778 88.1236 68.9207 88.8333 68.9207 89.705C68.9207 90.5768 68.3778 91.2864 67.709 91.2864ZM68.5559 84.9302V87.1336H66.0195V92.9292H64.2388V87.0898H61.4983L61.4636 84.7462H64.2388V82.293H66.0195V84.7856H67.1574C66.8925 84.4965 66.7231 84.0584 66.7231 83.5722C66.7231 82.696 67.266 81.9908 67.9348 81.9908C68.6037 81.9908 69.1465 82.7004 69.1465 83.5722C69.1465 84.1504 68.9077 84.6542 68.5559 84.9302Z" fill="#2A6DB6"/>
<path d="M67.9304 82.8975C67.6481 82.8975 67.4136 83.1997 67.4136 83.5721C67.4136 83.9444 67.6438 84.2423 67.9304 84.2423C68.217 84.2423 68.4472 83.94 68.4472 83.5721C68.4472 83.2041 68.217 82.8975 67.9304 82.8975Z" fill="#2A6DB6"/>
<path d="M276 47.0949C276 73.1047 239.516 94.1898 194.51 94.1898C149.504 94.1898 113.02 73.1047 113.02 47.0949C113.02 21.0851 149.504 0 194.51 0C239.516 0 276 21.0851 276 47.0949Z" fill="#FEE880"/>
<path d="M250.928 58.8255L250.57 53.1011L250.508 51.0479H252.608L252.546 53.1011L252.188 58.8255H250.928ZM251.566 62.7921C250.897 62.7921 250.399 62.3254 250.399 61.6254C250.399 60.9099 250.912 60.4277 251.566 60.4277C252.204 60.4277 252.717 60.9099 252.717 61.6254C252.717 62.3254 252.204 62.7921 251.566 62.7921Z" fill="#333333"/>
<path d="M237.846 50.2686C237.815 50.4863 237.768 51.1863 237.753 51.4041C237.722 52.4152 237.753 55.4951 237.768 56.7395L236.244 56.1173C236.244 55.3085 236.244 52.2596 236.182 51.4196C236.15 50.9063 236.088 50.4241 236.057 50.2686H237.846ZM229.353 52.3374C231.546 52.3218 235.528 52.1974 237.737 52.1974C239.495 52.1974 241.61 52.1818 242.404 52.1974L242.388 53.644C241.47 53.5974 239.993 53.5663 237.706 53.5663C234.968 53.5663 231.733 53.6752 229.384 53.8307L229.353 52.3374ZM237.628 56.8951C237.628 59.1817 236.679 60.3172 235.093 60.3172C233.833 60.3172 232.479 59.3839 232.479 57.5951C232.479 55.9618 233.817 54.8107 235.388 54.8107C237.302 54.8107 238.281 56.2262 238.281 58.0773C238.281 60.1461 237.193 62.5883 233.49 63.6616L232.184 62.3705C234.937 61.7483 236.773 60.5039 236.773 57.8751C236.773 56.6462 236.15 56.1018 235.373 56.1018C234.642 56.1018 233.957 56.6462 233.957 57.5795C233.957 58.4351 234.61 58.9484 235.373 58.9484C236.244 58.9484 236.866 58.2173 236.508 56.4751L237.628 56.8951Z" fill="#333333"/>
<path d="M221.124 50.2373C221.077 50.5329 221.046 50.8751 221.031 51.3106C221 52.0106 221 54.1417 221 55.4483C221 57.3616 221.233 60.1304 221.233 61.2504C221.233 62.4326 220.393 63.5059 218.355 63.5059C216.006 63.5059 214.746 62.6504 214.746 61.0793C214.746 59.6016 216.146 58.5749 218.448 58.5749C221.793 58.5749 224.344 60.3171 225.588 61.3437L224.702 62.7282C223.255 61.3904 220.984 59.8504 218.262 59.8504C216.94 59.8504 216.224 60.3638 216.224 61.0015C216.224 61.6704 216.815 62.1215 218.153 62.1215C219.008 62.1215 219.677 61.8726 219.677 60.8615C219.677 59.7882 219.522 56.8949 219.522 55.4483C219.522 54.0172 219.537 52.2284 219.537 51.2328C219.537 50.9528 219.506 50.4862 219.46 50.2373H221.124ZM214.949 51.8239C216.006 52.0106 217.873 52.1662 218.868 52.1662C220.906 52.1662 222.975 52.0417 225.106 51.6995L225.091 53.115C223.411 53.3172 221.077 53.5195 218.884 53.5195C217.842 53.5195 215.975 53.3795 214.98 53.255L214.949 51.8239ZM214.871 55.1528C215.944 55.3394 217.78 55.4483 218.713 55.4483C221.233 55.4483 223.286 55.2772 225.262 54.9972L225.246 56.4594C223.115 56.7238 221.311 56.8172 218.697 56.8172C217.702 56.8172 215.96 56.7394 214.886 56.615L214.871 55.1528Z" fill="#333333"/>
<path d="M201.68 50.4706C201.602 51.0462 201.54 51.6995 201.509 52.2595C201.446 53.9861 201.322 57.5794 201.322 59.726C201.322 61.3749 202.333 61.9348 203.702 61.9348C206.424 61.9348 208.042 60.3949 209.162 58.746L210.282 60.0838C209.239 61.5771 207.14 63.5837 203.671 63.5837C201.291 63.5837 199.704 62.5726 199.704 59.9749C199.704 57.766 199.86 53.7683 199.86 52.2595C199.86 51.6217 199.813 50.984 199.704 50.4551L201.68 50.4706Z" fill="#333333"/>
<path d="M190.931 50.5794C190.807 50.9838 190.698 51.6216 190.62 51.9482C190.014 54.6082 188.956 57.8437 187.603 59.6325C186.311 61.3436 185.238 62.3547 183.807 62.3547C182.578 62.3547 181.505 61.3281 181.505 59.4303C181.505 57.4237 182.703 55.2771 184.429 54.1415C186.016 53.0993 187.571 52.6949 189.189 52.6949C192.316 52.6949 194.556 54.7949 194.556 57.9215C194.556 61.1103 192.285 62.9925 188.987 63.4747L188.069 62.0591C191.382 61.7792 192.985 60.0525 192.985 57.8437C192.985 55.6348 191.429 54.0482 189.034 54.0482C187.478 54.0482 186.171 54.5926 185.005 55.4482C183.729 56.3659 182.936 57.9681 182.936 59.3059C182.936 60.2236 183.34 60.7836 183.978 60.7836C184.896 60.7836 185.891 59.6014 186.685 58.357C187.789 56.6926 188.769 53.846 189.127 51.7305C189.189 51.3571 189.236 50.7816 189.236 50.4238L190.931 50.5794ZM184.476 51.2016C184.554 51.6682 184.678 52.1816 184.803 52.6327C185.238 54.2349 186.094 56.6304 186.778 57.7348C187.307 58.6059 188.023 59.617 188.769 60.317L187.525 61.3125C186.903 60.6281 186.374 59.9436 185.829 59.0259C184.989 57.7348 184.071 55.3082 183.418 53.2082C183.263 52.6949 183.092 52.1816 182.858 51.7149L184.476 51.2016Z" fill="#333333"/>
<path d="M174.38 50.2686C174.349 50.4863 174.303 51.1863 174.287 51.4041C174.256 52.4152 174.287 55.4951 174.303 56.7395L172.778 56.1173C172.778 55.3085 172.778 52.2596 172.716 51.4196C172.685 50.9063 172.623 50.4241 172.592 50.2686H174.38ZM165.887 52.3374C168.08 52.3218 172.063 52.1974 174.271 52.1974C176.029 52.1974 178.145 52.1818 178.938 52.1974L178.922 53.644C178.005 53.5974 176.527 53.5663 174.24 53.5663C171.503 53.5663 168.267 53.6752 165.918 53.8307L165.887 52.3374ZM174.163 56.8951C174.163 59.1817 173.214 60.3172 171.627 60.3172C170.367 60.3172 169.014 59.3839 169.014 57.5951C169.014 55.9618 170.352 54.8107 171.923 54.8107C173.836 54.8107 174.816 56.2262 174.816 58.0773C174.816 60.1461 173.727 62.5883 170.025 63.6616L168.718 62.3705C171.472 61.7483 173.307 60.5039 173.307 57.8751C173.307 56.6462 172.685 56.1018 171.907 56.1018C171.176 56.1018 170.492 56.6462 170.492 57.5795C170.492 58.4351 171.145 58.9484 171.907 58.9484C172.778 58.9484 173.4 58.2173 173.043 56.4751L174.163 56.8951Z" fill="#333333"/>
<path d="M158.514 50.2686C158.483 50.4863 158.436 51.1863 158.421 51.4041C158.39 52.4152 158.421 55.4951 158.436 56.7395L156.912 56.1173C156.912 55.3085 156.912 52.2596 156.85 51.4196C156.819 50.9063 156.756 50.4241 156.725 50.2686H158.514ZM150.021 52.3374C152.214 52.3218 156.196 52.1974 158.405 52.1974C160.163 52.1974 162.279 52.1818 163.072 52.1974L163.056 53.644C162.139 53.5974 160.661 53.5663 158.374 53.5663C155.636 53.5663 152.401 53.6752 150.052 53.8307L150.021 52.3374ZM158.296 56.8951C158.296 59.1817 157.348 60.3172 155.761 60.3172C154.501 60.3172 153.148 59.3839 153.148 57.5951C153.148 55.9618 154.485 54.8107 156.056 54.8107C157.97 54.8107 158.95 56.2262 158.95 58.0773C158.95 60.1461 157.861 62.5883 154.159 63.6616L152.852 62.3705C155.605 61.7483 157.441 60.5039 157.441 57.8751C157.441 56.6462 156.819 56.1018 156.041 56.1018C155.31 56.1018 154.625 56.6462 154.625 57.5795C154.625 58.4351 155.279 58.9484 156.041 58.9484C156.912 58.9484 157.534 58.2173 157.176 56.4751L158.296 56.8951Z" fill="#333333"/>
<path d="M139.273 50.1748C139.226 50.4548 139.179 50.9837 139.164 51.3726C139.101 52.4148 139.039 54.4992 139.039 56.0391C139.039 57.688 139.117 60.239 139.117 61.1724C139.117 62.8212 138.526 63.3034 137.593 63.3034C136.255 63.3034 134.186 62.0746 134.186 60.5657C134.186 59.1346 136.068 57.6413 138.106 56.8947C139.49 56.3658 141.046 56.1014 142.259 56.1014C144.592 56.1014 146.335 57.3302 146.335 59.3213C146.335 61.1879 145.246 62.4634 142.959 63.0234C142.259 63.179 141.575 63.2101 140.984 63.2412L140.424 61.6701C141.061 61.6701 141.73 61.6701 142.29 61.5612C143.613 61.3124 144.748 60.6279 144.748 59.3213C144.748 58.108 143.659 57.4391 142.244 57.4391C140.89 57.4391 139.568 57.7346 138.293 58.248C136.83 58.808 135.71 59.7568 135.71 60.5035C135.71 61.1101 136.644 61.639 137.157 61.639C137.484 61.639 137.702 61.4524 137.702 60.9235C137.702 60.0679 137.608 57.9058 137.608 56.1014C137.608 54.3281 137.655 52.057 137.655 51.3881C137.655 51.077 137.608 50.4392 137.562 50.1748H139.273ZM143.939 51.8859C145.075 52.4614 146.817 53.5036 147.61 54.1103L146.848 55.3703C146.086 54.6858 144.219 53.5658 143.239 53.0681L143.939 51.8859ZM134.513 52.8503C135.399 52.9592 136.006 52.9747 136.566 52.9747C138.137 52.9747 140.579 52.6636 142.15 52.197L142.197 53.7214C140.517 54.1103 137.997 54.4214 136.613 54.4214C135.664 54.4214 135.073 54.4058 134.544 54.3436L134.513 52.8503Z" fill="#333333"/>
<path d="M219.117 26.2241C218.993 26.7063 218.946 27.0641 218.884 27.4374C218.682 28.993 217.966 33.9395 217.966 35.5728C217.966 36.9883 218.791 37.8128 220.455 37.8128C222.742 37.8128 224.111 36.7861 224.111 35.3239C224.111 34.2817 223.535 33.1929 222.446 32.2284L224.173 31.8551C225.231 33.0995 225.728 34.1884 225.728 35.5106C225.728 37.8439 223.644 39.3683 220.424 39.3683C218.168 39.3683 216.457 38.3883 216.457 35.8217C216.457 34.1884 217.189 29.5063 217.36 27.3441C217.406 26.7219 217.406 26.4263 217.375 26.1152L219.117 26.2241ZM213.891 28.2307C215.213 28.6663 217.111 28.8685 218.573 28.8685C219.771 28.8685 220.86 28.7907 221.715 28.6507L221.668 30.1285C220.704 30.2218 219.817 30.2685 218.542 30.2685C217.08 30.2685 215.197 30.0352 213.797 29.6463L213.891 28.2307ZM213.517 32.0884C215.104 32.6329 216.909 32.7729 218.402 32.7729C219.428 32.7729 220.533 32.7262 221.591 32.5862L221.56 34.064C220.595 34.1573 219.662 34.204 218.635 34.204C216.784 34.204 214.855 34.0017 213.44 33.5817L213.517 32.0884Z" fill="#333333"/>
<path d="M197.822 37.595H210.173V39.0572H197.822V37.595ZM196.967 30.2529H211.013V31.6996H196.967V30.2529ZM203.142 25.4619H204.713V38.6528H203.142V25.4619Z" fill="#333333"/>
<path d="M187.976 30.2374V31.9484H193.28V30.2374H187.976ZM187.976 27.3752V29.0552H193.28V27.3752H187.976ZM186.638 26.1152H194.696V33.2084H186.638V26.1152ZM186.483 34.8262H194.882V36.1639H186.483V34.8262ZM185.331 38.015H195.411V39.3527H185.331V38.015ZM180.96 26.3952H185.954V27.7796H180.96V26.3952ZM181.116 30.8907H185.705V32.2596H181.116V30.8907ZM180.789 36.8328C182.08 36.475 184.009 35.8684 185.829 35.2617L186.094 36.6772C184.383 37.2528 182.563 37.8594 181.132 38.3261L180.789 36.8328ZM182.796 26.9397H184.211V36.5528L182.796 36.8017V26.9397ZM190.014 26.6752H191.274V32.6018H191.398V38.6372H189.889V32.6018H190.014V26.6752Z" fill="#333333"/>
<path d="M171.472 25.975L172.701 25.4461C173.276 26.255 173.883 27.3438 174.101 28.0749L172.809 28.666C172.607 27.9505 172.032 26.8149 171.472 25.975ZM177.227 25.3994L178.72 25.9283C178.192 26.8772 177.6 27.9038 177.103 28.5882L175.858 28.106C176.34 27.3749 176.916 26.2394 177.227 25.3994ZM172.856 33.457H174.318C174.069 36.2414 173.432 38.6058 170.569 39.8813C170.398 39.5236 169.994 39.0103 169.683 38.7303C172.203 37.6881 172.669 35.7281 172.856 33.457ZM175.392 33.2704H176.823V37.8436C176.823 38.2792 176.869 38.3414 177.134 38.3414C177.258 38.3414 177.803 38.3414 177.943 38.3414C178.238 38.3414 178.3 38.0925 178.332 36.4281C178.612 36.6614 179.218 36.9103 179.592 37.0036C179.467 39.1036 179.109 39.6636 178.114 39.6636C177.865 39.6636 177.134 39.6636 176.9 39.6636C175.672 39.6636 175.392 39.228 175.392 37.8592V33.2704ZM172.794 29.8482V32.477H177.243V29.8482H172.794ZM171.394 28.5416H178.705V33.7681H171.394V28.5416ZM167.567 26.7838H168.998V39.8347H167.567V26.7838ZM165.156 29.8015H170.818V31.1704H165.156V29.8015ZM167.645 30.346L168.532 30.7193C167.925 32.9282 166.743 35.6814 165.545 37.1592C165.405 36.7392 165.078 36.1325 164.83 35.7748C165.934 34.5303 167.116 32.1815 167.645 30.346ZM169.916 25.6172L170.927 26.7527C169.434 27.3438 167.256 27.7638 165.452 28.0127C165.374 27.686 165.187 27.2038 165.016 26.8927C166.758 26.5972 168.75 26.1461 169.916 25.6172ZM168.952 31.8704C169.341 32.1971 170.756 33.6592 171.067 34.017L170.212 35.1837C169.838 34.4992 168.765 33.037 168.283 32.4615L168.952 31.8704Z" fill="#333333"/>
<path d="M107.331 62.0224L124.042 44.025L131.544 66.1308L107.331 62.0224Z" fill="#FEE880"/>
</svg>
