<svg width="236" height="340" viewBox="0 0 236 340" fill="none" xmlns="http://www.w3.org/2000/svg">
<path d="M64.0359 148.896C66.5249 151.812 67.7512 156.024 66.3862 159.745C65.9628 162.338 62.6344 164.924 65.1088 167.517C65.2986 168.733 63.7804 169.458 62.9118 170.272C61.3716 169.949 60.7658 168.008 60.087 166.711C57.233 162.016 63.8607 159.02 60.6125 154.566C60.0286 153.841 59.9264 152.866 58.9483 152.464C56.671 151.738 54.8461 153.108 53.1819 154.244C52.0068 155.863 52.2111 157.723 52.9849 159.591C54.4812 161.613 57.7585 163.723 56.2038 166.228C55.0067 166.953 53.4082 167.605 52.0214 166.873C47.9265 164.279 46.6053 159.261 47.3864 154.888C47.7878 151.328 50.8827 148.896 53.9994 147.761C57.1235 146.706 61.4665 146.061 64.0286 148.896H64.0359Z" fill="black"/>
<path d="M65.2552 152.625C68.0216 157.079 64.2333 160.8 62.9487 164.609C62.0144 166.067 65.7881 168.66 62.3939 168.66C61.4669 166.88 60.6129 164.69 61.1239 162.668C61.7151 160.316 63.3647 158.214 62.4085 155.379C61.4888 153.841 60.7078 151.489 58.5983 151.167C55.5254 151.006 52.4889 152.302 51.2626 155.057C50.0437 158.053 52.7006 161.371 55.175 163.803C55.5984 164.529 55.2115 165.503 54.5765 165.906C53.3794 166.389 52.1531 165.906 51.3283 164.931C48.832 161.613 47.4962 156.185 49.5911 152.625C51.613 149.226 55.3867 148.493 59.0071 147.929C61.8319 147.929 64.299 150.112 65.2479 152.625H65.2552Z" fill="#FDD000"/>
<path d="M135.861 163.635C136.861 165.012 136.423 167.034 137.262 168.492C141.59 167.114 146.298 168.572 150.072 171.246C159.043 178.857 157.218 190.922 157.539 201.207C157.364 204.042 156.714 207.36 156.138 210.437C155.875 216.59 152.182 220.883 152.481 226.955C153.269 229.71 156.255 229.71 158.525 230.032L159.948 228.735C160.612 229.71 159.605 231.168 158.897 232.134C154.196 238.127 146.386 239.013 139.189 238.127C145.291 243.796 148.839 250.756 149.503 258.535C151.503 264.769 151.488 271.245 152.532 277.969C152.079 282.746 153.568 287.844 150.422 291.411C148.495 291.734 146.058 291.17 144.255 289.954C144.123 294.73 144.875 299.425 145.225 304.202C144.824 304.202 144.751 304.773 144.59 304.854C140.028 306.472 135.554 308.253 130.649 309.066C131.284 312.303 130.649 315.871 129.583 318.779C129.744 322.098 130.452 324.852 129.306 327.848C127.167 329.547 124.481 328.58 121.919 329.306C115.408 330.441 107.729 329.789 100.81 330.441C99.5177 330.361 98.2842 329.467 97.5324 328.339C96.8316 325.987 94.2988 328.016 92.6784 327.855C89.6054 327.694 86.6857 327.042 83.9193 325.914C82.8901 323.24 83.4595 320.002 84.3719 317.49C85.9412 315.549 88.2478 314.091 90.2331 312.633L89.7441 312.311C85.7806 311.747 82.3062 311.498 78.4084 310.692C78.1238 308.831 77.5106 306.729 77.4595 304.539C76.5617 303.975 75.1165 304.297 74.8391 302.92C74.9413 296.847 75.2844 290.774 75.8829 285.104C72.4888 284.863 69.6713 285.265 66.956 282.841C64.8757 280.006 62.9487 277.01 62.2261 273.611C62.6932 272.717 62.5837 271.67 62.8027 270.695C64.8757 266 67.9998 261.465 71.5399 257.737C68.7078 253.847 70.3866 249.554 70.934 245.269C71.9924 242.192 73.372 238.954 76.3938 237.006C73.2114 231.827 71.6202 225.915 70.8318 219.681C69.5326 219.359 67.9268 219.762 66.9341 218.707C65.9414 217.733 65.9852 216.194 66.2041 214.986C66.81 213.206 68.3939 212.07 70.1603 211.748C70.5764 208.752 70.9924 205.836 71.4085 202.84C70.4304 202.437 69.3793 202.357 68.4815 201.705C68.2187 200.731 69.4304 200.811 69.9194 201.06C70.3355 201.463 70.8975 201.624 71.5472 201.544C73.5034 195.471 74.8975 189.237 78.8902 184.051C77.1749 183.076 74.4815 181.699 73.9413 179.355C73.9121 178.058 72.4231 176.601 73.372 175.634C77.8172 176.037 79.9632 171.099 82.8974 168.836C89.9266 162.28 98.3937 158.551 107.291 156.038C117.021 154.419 129.89 152.881 135.868 163.649L135.861 163.635Z" fill="black"/>
<path d="M134.751 164.448C135.517 166.148 135.488 168.419 135.532 170.279C136.597 171.173 136.481 169.554 137.612 169.635C143.7 167.854 149.349 171.334 152.933 176.271C157.152 184.124 156.393 193.435 156.283 202.504C155.386 209.14 154.51 216.59 151.422 222.744C150.984 224.765 150.962 227.439 152.371 229.058C153.787 230.999 156.203 230.677 157.904 231.16C153.751 236.669 146.765 237.878 139.794 236.669C134.831 234.728 133.568 229.219 133.218 224.362L133.138 220.963C137.079 220.48 139.897 216.671 141.028 213.191C141.663 209.301 142.437 204.364 139.94 201.046C138.291 199.427 135.911 197.808 133.437 198.943C130.962 200.159 129.327 202.753 127.926 205.097C126.955 197.969 126.816 191.816 124.408 185.34C122.904 183.157 121.546 180.242 118.634 179.831C111.598 186.307 100.036 184.93 92.0357 180.967C96.0211 178.784 101.86 176.594 102.627 171.253C101.802 170.44 100.357 170.77 99.3933 170.931C93.3131 173.114 87.8314 176.762 82.1745 180C81.3132 181.216 80.1307 182.271 78.6781 182.432C76.4081 181.868 75.0504 179.194 74.5249 177.084C79.7584 176.52 81.1526 170.689 85.4591 168.338C92.5612 161.54 101.948 159.189 111.006 156.515C115.028 155.87 119.714 156.354 123.919 156.515C125.466 157.079 127.24 157.24 128.641 158.295C130.94 160.075 133.561 161.774 134.751 164.448Z" fill="#444444"/>
<path d="M68.5836 171.246C70.3865 172.381 70.2843 174.967 69.8391 176.755C68.4814 177.238 67.0581 178.535 65.5033 177.568C64.518 176.923 63.5326 175.949 63.3428 174.813C63.569 174 63.4596 172.792 63.9194 171.898C65.2771 171.173 67.0362 170.521 68.5836 171.253V171.246Z" fill="black"/>
<path d="M68.7878 173.187C68.89 174.162 69.4958 175.861 68.379 176.425C67.4739 175.78 66.7805 176.989 65.963 176.586C64.817 175.773 64.7002 174.315 64.7586 173.187C65.0652 172.462 65.7805 172.132 66.5104 172.052C67.5542 171.73 68.4593 172.455 68.7951 173.187H68.7878Z" fill="#FDD000"/>
<path d="M136.539 200.071C133.7 199.339 131.904 202.093 130.174 203.961C130.014 204.393 128.773 206.767 128.583 207.353C128.554 207.433 128.532 207.565 128.51 207.712C128.496 207.778 128.488 207.844 128.481 207.917C128.466 208.063 128.459 208.224 128.452 208.393C128.415 208.789 128.298 209.104 127.707 208.979C127.218 208.657 127.204 208.166 127.196 207.682C127.028 207.36 126.671 205.902 126.671 205.902C125.809 200.152 125.335 193.515 123.992 187.604C122.729 185.171 121.291 182.263 118.685 181.45C116.153 183.472 113.357 184.769 110.218 185.34C103.569 187.523 97.9338 184.366 91.9265 182.747C91.0214 182.022 89.4083 181.853 88.9776 180.806C89.3645 180.161 90.1674 179.831 91.0579 179.992C94.817 178.454 98.7951 175.942 100.89 172.381L100.24 172.22C96.3936 173.436 92.9776 175.7 89.3864 177.399C87.2331 178.535 85.3426 180.476 83.0215 181.289C79.4668 184.688 77.3208 189.545 75.4084 194.079C73.6055 199.91 71.4084 206.063 72.277 212.378C70.9267 213.272 68.4158 213.023 67.6639 215.132C67.6055 216.107 67.007 218.048 68.7004 218.048C69.7442 217.806 70.8099 218.612 71.1092 217.403C71.5909 217.242 71.8391 217.645 72.0873 217.887C72.3281 221.366 72.715 224.201 73.5982 227.439C74.8756 230.193 75.0288 233.512 77.3427 235.863C78.6273 235.46 79.6565 234.728 80.8536 234.244C82.5543 234.486 84.4813 234.083 85.7222 235.541C86.4959 237.563 84.9923 239.02 84.3864 240.72C85.1966 240.881 85.8536 241.533 86.5178 242.178C87.0798 245.496 90.8754 245.577 93.3937 246.551C99.9337 246.873 106.043 249.305 112.795 248.17C120.255 246.47 127.211 243.635 133.401 239.101C134.598 238.449 135.459 237.16 136.079 236.185C132.933 232.545 131.86 228.01 131.583 223.227C132.561 220.311 128.795 221.286 128.423 219.176C128.736 218.934 128.89 218.531 129.379 218.692C130.62 220.15 132.065 219.828 133.758 219.667C138.094 218.612 139.999 213.675 140.466 209.624C140.627 206.064 140.444 201.69 136.532 200.071H136.539ZM134.948 215.132C134.547 215.052 133.744 215.455 133.481 214.649L135.685 212.217C136.62 210.678 136.89 208.496 136.204 206.708C136.021 205.895 135.036 205.17 134.247 205.734C133.05 206.459 132.766 207.836 132.547 209.133C132.393 209.455 132.087 210.027 131.598 209.777C130.861 209.294 131.079 208.32 131.225 207.675C132.255 206.774 133.466 203.851 135.335 204.115C136.554 204.357 137.313 205.734 137.817 206.708C138.371 209.704 137.561 213.023 134.948 215.132Z" fill="#FFE3CA"/>
<path d="M84.7656 236.508C84.897 238.61 82.9846 239.826 82.4664 241.687C83.6853 242.09 85.3787 242.009 85.897 243.628C86.7437 245.489 85.9846 247.511 84.8897 248.968C83.3861 250.104 85.8313 251.239 84.8094 252.367C83.9408 256.821 78.7073 257.305 76.9482 261.436C75.846 262.652 74.5029 263.949 73.1599 264.996C71.8241 263.216 72.8241 260.865 72.6927 258.843C72.846 258.36 73.0723 257.869 72.9774 257.224C69.846 254.228 71.7511 249.613 72.0723 245.884C73.2548 241.269 76.7219 237.548 81.0284 235.519C82.3204 235.68 83.8459 235.277 84.7656 236.493V236.508Z" fill="#FFE3CA"/>
<path d="M148.189 257.891C149.941 267.363 152.422 277.164 151.284 287.2C151.065 288.335 150.605 289.39 149.904 290.276C147.583 290.928 145.444 289.383 144.036 287.844C144.189 287.441 143.7 287.361 143.539 287.192H142.729C137.079 283.632 131.948 277.962 126.291 274.073C123.831 269.055 129.977 265.978 130.357 261.275C131.357 259.092 132.269 256.741 131.809 254.148C131.561 253.986 131.393 253.496 130.992 253.664C130.043 254.477 130.868 255.364 130.408 256.418C129.218 260.711 128.109 265.084 125.036 268.564C115.671 271.882 104.693 271.641 94.2769 271.318C94.8827 269.619 96.1528 268.725 96.9265 267.106C102.175 260.381 108.824 254.558 115.554 248.969C123.087 246.698 130.444 243.951 136.444 238.12C143.335 242.896 147.371 250.023 148.196 257.876L148.189 257.891Z" fill="#30568E"/>
<path d="M91.4812 247.686C92.7002 251.488 93.7586 255.378 95.1308 259.187L95.795 260C92.9702 263.319 90.8827 267.289 88.6272 271.01C86.0506 271.171 82.9119 271.582 80.547 270.527C81.3207 269.15 80.7952 267.208 82.0579 265.992C81.7733 264.212 83.7878 263.971 82.9411 262.271C82.7732 261.949 82.4448 261.868 82.1236 261.949C79.5032 267.208 78.5908 273.369 77.1893 278.951C76.6565 280.409 76.4521 282.108 76.0069 283.647C72.4595 283.888 68.3427 283.808 66.4011 279.918C65.5544 278.299 64.6347 276.761 64.1895 275.061C69.4449 271.904 72.1602 267.289 77.3134 263.238C79.2112 261.539 80.4375 258.623 82.8316 257.729C85.0433 255.539 86.9922 252.631 86.0287 249.466C86.8973 248.653 87.3571 247.445 87.5688 246.229L91.4739 247.686H91.4812Z" fill="#30568E"/>
<path d="M95.0432 248.331C96.0724 250.924 96.3789 253.84 98.1234 256.103H98.6052C98.3862 257.239 97.4446 258.367 96.4081 258.858C95.0432 255.62 94.2403 252.14 93.1089 248.822L93.2549 248.009C93.8242 248.089 94.3133 248.492 95.0359 248.331H95.0432Z" fill="#9AB9E7"/>
<path d="M99.6636 252.543C99.9118 252.946 100.313 252.865 100.642 252.865C102.802 252.052 104.087 248.331 106.868 249.95C106.408 250.924 105.123 251.327 104.167 251.891C102.335 252.865 101.087 254.887 99.0943 255.781C98.1527 253.51 97.5323 251.085 96.8315 248.653C99.16 248.17 98.2695 251.408 99.6636 252.543Z" fill="white"/>
<path d="M102.495 249.466L100.444 251.408C99.7072 250.924 99.7583 249.708 99.7437 248.976C100.714 249.056 101.525 249.378 102.495 249.459V249.466Z" fill="#FFE3CA"/>
<path d="M112.503 249.789C105.065 256.023 97.8826 262.989 92.8242 271.003C92.2549 270.922 90.8096 271.164 90.4009 270.842C94.2622 263.311 100.05 255.539 107.7 251.408C108.955 249.95 110.802 249.547 112.503 249.789Z" fill="#9AB9E7"/>
<path d="M71.2697 259.993C71.0726 262.015 70.9631 264.366 72.2113 265.985C69.1967 268.337 67.1821 271.897 63.9997 273.758C63.8172 269.384 66.8026 265.905 69.2332 262.586C69.6201 261.773 70.642 260.565 71.2697 259.993Z" fill="#1D3457"/>
<path d="M124.167 272.79C122.868 272.629 121.006 272.219 119.985 273.274C118.955 274.168 118.663 275.545 119.101 276.834C120.758 278.775 117.882 279.991 117.276 281.852C116.824 283.229 116.211 284.687 116.729 286.225C117.247 287.522 118.393 288.408 119.539 289.141L121.955 288.818C123.62 291.17 126.459 291.734 129.116 291.412C130.795 290.76 132.634 290.115 133.897 288.818C131.97 292.708 131.671 297.323 129.495 301.125C124.079 304.202 116.371 302.341 110.35 303.557C104.393 304.202 97.5394 304.37 91.1599 304.041C86.0724 303.879 81.0505 303.147 76.2841 302.744C75.4593 298.371 76.7075 293.192 76.5907 288.005C77.3133 284.203 78.1965 280.555 79.0797 276.834C79.2038 275.215 79.6564 273.757 80.1016 272.3C83.5031 272.783 87.0505 272.783 90.7512 272.3C97.6489 273.999 105.036 272.461 111.744 272.783C116.182 272.703 119.933 270.922 124.109 270.19L124.167 272.783V272.79Z" fill="#FDD000"/>
<path d="M126.824 276.028C130.262 278.211 132.736 280.724 135.875 283.639C134.167 286.635 131.583 290.034 127.802 290.276C124.444 291.573 123.758 286.474 120.642 287.683C119.846 288.086 119.014 287.112 118.517 286.547C116.912 283.471 119.517 280.958 121.079 278.614C121.934 277.156 119.496 276.431 120.51 274.893C120.897 274.241 121.547 274.241 122.101 273.918C124.269 273.435 125.116 275.296 126.831 276.021L126.824 276.028Z" fill="#FFE3CA"/>
<path d="M142.992 291.412C143.43 293.031 143.006 295.382 143.612 297.243C143.262 299.433 144.517 301.535 143.926 303.887C132.729 308.26 120.255 309.476 107.78 310.853C101.569 311.014 95.5178 310.934 89.2331 311.176C86.2259 310.121 82.6054 310.604 79.5106 309.557C78.7515 308.099 79.1091 306.238 78.7515 304.7C83.6638 304.458 88.8609 305.755 93.6127 305.513C103.233 306.407 113.342 303.975 123.437 304.217C126.094 303.814 129.16 303.975 130.795 301.462C133.109 296.847 134.284 291.749 135.62 286.723L136.86 284.621C139.006 286.643 143.547 287.537 142.985 291.426L142.992 291.412Z" fill="#30568E"/>
<path d="M129.204 309.388C130.335 313.109 129.788 317.322 127.518 320.237C124.992 322.589 120.934 321.614 117.897 322.991C115.89 323.555 114.875 321.453 113.175 321.05C108.875 320.156 105.671 317.49 100.854 318.457C104.08 314.897 107.875 311.652 112.642 311.652C117.065 311.168 121.576 310.677 125.999 310.194C127.043 309.952 127.999 309.381 129.211 309.381L129.204 309.388Z" fill="white"/>
<path d="M106.028 312.143C103.006 314.084 100.561 316.596 97.9627 319.109C95.5029 317.49 92.8971 316.355 90.138 315.549C89.5759 315.549 89.0869 315.468 88.3643 315.71C89.5467 314.413 91.138 313.439 92.6489 312.633C97.4737 311.989 101.277 312.553 106.028 312.15V312.143Z" fill="white"/>
<path d="M97.0137 320.076C96.2765 322.991 92.5247 321.292 90.4298 321.534C88.4079 321.292 85.6561 320.97 85.043 318.779C85.2546 317.483 86.9846 319.102 86.6269 317.322C90.6269 315.783 93.8312 318.457 97.0137 320.076Z" fill="white"/>
<path d="M114.518 323.314C110.284 325.094 104.138 324.61 99.7075 324.933C98.9703 324.61 97.9995 324.361 97.5762 323.475C98.4448 322.662 97.1236 321.373 98.3207 320.882C103.416 317.886 109.547 321.365 114.51 323.314H114.518Z" fill="white"/>
<path d="M128.32 327.035C123.831 328.332 118.51 328.573 113.839 328.654C110.058 329.387 105.364 328.493 101.43 329.299C100.379 329.218 99.1601 328.976 98.6565 327.841C98.9557 326.947 98.0652 326.625 98.1309 325.9C107.846 327.438 115.678 324.039 124.693 323.145C126.05 322.413 127.737 322.252 128.678 320.882C129.05 322.904 128.941 325.175 128.335 327.035H128.32Z" fill="#B57800"/>
<path d="M95.9556 322.992C97.1892 324.046 95.6782 324.933 96.6709 326.068C93.2184 326.801 88.0579 326.962 84.7075 324.933L84.7805 321.043C87.817 323.394 92.3206 322.581 95.9556 322.984V322.992Z" fill="#B57800"/>
<path d="M92.3789 188.578C94.2767 190.519 94.503 193.193 94.6417 195.867L94.4738 195.705L93.6855 196.519L93.357 196.196C93.6125 193.281 93.0578 190.043 90.4373 188.424C89.2184 188.021 88.503 188.424 87.379 188.746C85.3206 190.285 84.0797 192.636 83.817 195.222C83.3352 195.383 83.1673 194.98 82.8389 194.739C83.2549 191.662 84.7805 187.941 88.1527 187.289C89.7658 187.208 91.3789 187.208 92.3789 188.585V188.578Z" fill="black"/>
<path d="M89.6857 204.606C89.7294 206.467 90.671 208.818 88.8462 210.276C87.9119 211.814 85.8901 211.411 84.3499 211.25C82.2332 210.525 81.7003 208.335 81.4959 206.393C81.2989 204.694 82.7222 203.478 83.9923 202.672C85.9922 202.027 88.6638 202.43 89.6857 204.613V204.606Z" fill="black"/>
<path d="M88.5614 205.096C88.7585 206.554 89.2986 209.147 87.5468 210.114C86.3497 210.759 85.2768 209.55 84.1527 209.953C83.2549 209.389 83.1527 208.576 82.9702 207.69C83.5469 208.093 84.3571 208.334 85.0724 208.012C85.5541 207.851 85.7804 207.367 86.1819 207.038C86.3205 206.144 85.8242 205.499 85.1673 204.935L83.5468 204.774C84.0943 204.129 84.649 203.558 85.4519 203.478C86.5103 203.961 88.0359 203.639 88.5541 205.096H88.5614Z" fill="white"/>
<path d="M88.0066 223.066C88.8679 225.417 89.3277 227.922 88.4956 230.354C87.7219 231.732 86.335 231.248 85.2767 230.677C84.0942 228.333 83.4591 225.329 84.1234 222.582C84.5102 221.857 85.2986 221.044 86.1964 221.608C86.9263 221.769 87.4299 222.582 88.0066 223.066Z" fill="black"/>
<path d="M87.7878 227.439C87.5689 228.333 87.9338 230.355 86.5543 229.871C84.8171 227.93 84.8317 225.095 85.5835 222.744C87.693 223.147 87.1893 225.82 87.7878 227.439Z" fill="#B44E26"/>
<path d="M82.8314 278.497C82.335 278.497 81.9263 278.907 81.9263 279.413V295.104C81.9263 295.602 82.2912 296.195 82.7438 296.415L92.3422 301.103C92.7948 301.323 93.5247 301.323 93.9773 301.103L103.722 296.408C104.174 296.188 104.539 295.602 104.539 295.104V279.413C104.539 278.915 104.13 278.497 103.634 278.497H82.8387H82.8314ZM87.3788 296.063C85.8313 296.063 84.5832 294.803 84.5832 293.258C84.5832 291.712 85.8386 290.452 87.3788 290.452C88.9189 290.452 90.1744 291.712 90.1744 293.258C90.1744 294.803 88.9189 296.063 87.3788 296.063ZM99.1013 296.063C97.5539 296.063 96.3057 294.803 96.3057 293.258C96.3057 291.712 97.5612 290.452 99.1013 290.452C100.641 290.452 101.897 291.712 101.897 293.258C101.897 294.803 100.641 296.063 99.1013 296.063ZM101.057 284.782V288.694H95.2035V298.986H91.0941V288.621H84.7657L84.6854 284.453H91.0941V280.101H95.2035V284.526H97.8312C97.2181 284.013 96.824 283.237 96.824 282.372C96.824 280.819 98.0794 279.567 99.6196 279.567C101.16 279.567 102.415 280.827 102.415 282.372C102.415 283.398 101.868 284.291 101.05 284.782H101.057Z" fill="#2A6DB6"/>
<path d="M99.6268 281.178C98.9699 281.178 98.437 281.713 98.437 282.372C98.437 283.032 98.9699 283.566 99.6268 283.566C100.284 283.566 100.817 283.032 100.817 282.372C100.817 281.713 100.284 281.178 99.6268 281.178Z" fill="#2A6DB6"/>
<path fill-rule="evenodd" clip-rule="evenodd" d="M118 122C52.8304 122 0 94.6894 0 61C0 27.3106 52.8304 0 118 0C183.17 0 236 27.3106 236 61C236 89.0289 199.431 112.642 149.612 119.786L134.116 138.152L128.206 121.775C124.842 121.924 121.438 122 118 122Z" fill="#FEE880"/>
<path d="M195.701 62.0942C196.421 62.0942 196.997 62.6702 196.997 63.3902C196.997 64.1282 196.421 64.7042 195.701 64.7042C194.963 64.7042 194.387 64.1282 194.387 63.3902C194.387 62.6702 194.963 62.0942 195.701 62.0942ZM201.695 62.0942C202.415 62.0942 202.991 62.6702 202.991 63.3902C202.991 64.1282 202.415 64.7042 201.695 64.7042C200.957 64.7042 200.381 64.1282 200.381 63.3902C200.381 62.6702 200.957 62.0942 201.695 62.0942ZM207.689 62.0942C208.409 62.0942 208.985 62.6702 208.985 63.3902C208.985 64.1282 208.409 64.7042 207.689 64.7042C206.951 64.7042 206.375 64.1282 206.375 63.3902C206.375 62.6702 206.951 62.0942 207.689 62.0942Z" fill="#333333"/>
<path d="M180.347 55.9565C181.967 56.4785 185.837 57.1985 187.421 57.3605L186.989 59.0885C185.225 58.8545 181.283 58.0445 179.897 57.6845L180.347 55.9565ZM180.167 59.3945C179.933 60.5105 179.609 62.9765 179.447 64.0745C181.139 62.7065 183.029 62.0945 185.081 62.0945C187.997 62.0945 189.833 63.8765 189.833 66.0185C189.833 69.2585 187.097 71.5805 180.059 70.9865L179.519 69.1325C185.081 69.8525 187.889 68.3585 187.889 65.9645C187.889 64.6505 186.647 63.6965 184.937 63.6965C182.705 63.6965 180.815 64.5245 179.609 65.9825C179.321 66.3245 179.141 66.6125 179.015 66.9365L177.359 66.5225C177.719 64.8305 178.151 61.1585 178.259 59.1245L180.167 59.3945Z" fill="#333333"/>
<path d="M162.329 56.1005C162.239 56.7665 162.167 57.5225 162.131 58.1705C162.059 60.1685 161.915 64.3265 161.915 66.8105C161.915 68.7185 163.085 69.3665 164.669 69.3665C167.819 69.3665 169.691 67.5845 170.987 65.6765L172.283 67.2245C171.077 68.9525 168.647 71.2745 164.633 71.2745C161.879 71.2745 160.043 70.1045 160.043 67.0985C160.043 64.5425 160.223 59.9165 160.223 58.1705C160.223 57.4325 160.169 56.6945 160.043 56.0825L162.329 56.1005Z" fill="#333333"/>
<path d="M145.679 56.1183C145.589 56.5143 145.499 56.9823 145.409 57.3783C145.265 58.0983 145.031 59.4123 144.815 60.4383C144.221 62.9763 142.853 67.7463 140.891 70.9143L139.037 70.1763C141.125 67.3863 142.529 62.5983 143.015 60.3663C143.357 58.8543 143.573 57.2703 143.573 55.9023L145.679 56.1183ZM151.871 57.9363C152.987 59.4303 154.535 62.7963 155.111 64.4883L153.329 65.3343C152.825 63.4083 151.475 60.2043 150.197 58.6743L151.871 57.9363ZM138.839 59.9523C139.433 59.9883 139.973 59.9703 140.585 59.9523C141.971 59.9163 145.517 59.5203 146.795 59.5203C148.523 59.5203 149.855 60.2403 149.855 62.7423C149.855 64.8843 149.585 67.7643 148.829 69.2943C148.235 70.5183 147.299 70.8603 146.057 70.8603C145.355 70.8603 144.509 70.7343 143.915 70.6083L143.609 68.7183C144.347 68.9343 145.319 69.0963 145.823 69.0963C146.453 69.0963 146.957 68.9343 147.299 68.2323C147.839 67.0983 148.091 64.8303 148.091 62.9583C148.091 61.3923 147.389 61.1403 146.255 61.1403C145.103 61.1403 141.863 61.5183 140.801 61.6443C140.351 61.7163 139.505 61.8243 139.019 61.8963L138.839 59.9523Z" fill="#333333"/>
<path d="M123.395 56.7845C123.845 56.8385 124.403 56.8565 124.817 56.8565C125.771 56.8565 129.857 56.7485 130.847 56.6585C131.477 56.6045 131.801 56.5505 131.999 56.4785L132.971 57.7745C132.611 58.0265 132.215 58.2605 131.855 58.5485C130.919 59.2325 128.723 61.1045 127.427 62.1485C128.165 61.9325 128.885 61.8605 129.587 61.8605C132.611 61.8605 134.825 63.6965 134.825 66.2165C134.825 69.0965 132.539 71.1305 128.489 71.1305C126.023 71.1305 124.349 70.0325 124.349 68.3945C124.349 67.0625 125.555 65.8565 127.319 65.8565C129.749 65.8565 131.027 67.5305 131.117 69.4205L129.461 69.6725C129.389 68.2325 128.597 67.2245 127.319 67.2245C126.563 67.2245 126.023 67.6925 126.023 68.2505C126.023 69.0245 126.905 69.5285 128.165 69.5285C131.225 69.5285 132.989 68.3045 132.989 66.1985C132.989 64.4885 131.333 63.2645 129.083 63.2645C126.185 63.2645 124.493 64.6145 122.369 66.8825L121.073 65.5505C122.477 64.4165 124.727 62.5265 125.771 61.6445C126.779 60.8165 128.867 59.0885 129.767 58.2965C128.831 58.3325 125.717 58.4585 124.763 58.5125C124.331 58.5485 123.845 58.5845 123.449 58.6385L123.395 56.7845Z" fill="#333333"/>
<path d="M107.056 55.8662C109.036 56.2802 112.474 56.6762 114.256 56.7842L114.022 58.4582C112.186 58.2962 108.946 57.9002 106.768 57.5222L107.056 55.8662ZM114.742 61.2662C114.346 61.5362 113.932 61.8962 113.662 62.1122C112.924 62.7782 111.052 64.5242 110.476 65.1182C110.656 65.1002 110.98 65.1362 111.178 65.1902C111.79 65.2982 112.168 65.7482 112.42 66.4502C112.582 66.9542 112.816 67.7642 112.978 68.3042C113.176 68.9342 113.59 69.2222 114.418 69.2222C115.678 69.2222 116.992 69.0782 117.874 68.8802L117.748 70.7522C117.01 70.8962 115.264 71.0222 114.31 71.0222C112.744 71.0222 111.844 70.6622 111.43 69.4922C111.25 68.9522 111.016 67.9802 110.854 67.4942C110.656 66.8642 110.26 66.5762 109.828 66.5762C109.378 66.5762 108.982 66.8462 108.55 67.2602C107.902 67.8902 106.21 69.7082 105.094 71.1302L103.402 69.9422C103.672 69.7082 104.032 69.3842 104.446 68.9882C105.256 68.1782 109.63 63.8042 111.34 62.0582C109.99 62.1122 107.344 62.3462 106.282 62.4362C105.67 62.4902 105.166 62.5622 104.788 62.6162L104.626 60.6542C105.04 60.6902 105.616 60.7082 106.228 60.6902C107.182 60.6722 111.322 60.4382 112.744 60.2582C113.068 60.2222 113.5 60.1322 113.68 60.0602L114.742 61.2662Z" fill="#333333"/>
<path d="M88.9302 56.9464H100.45V58.4944H88.9302V56.9464ZM90.9642 61.4464V63.7504H98.2722V61.4464H90.9642ZM89.3982 60.0424H99.9102V65.1724H89.3982V60.0424ZM90.7662 65.4604C92.4222 68.1784 95.9862 69.7624 100.666 70.2304C100.306 70.6084 99.8742 71.2924 99.6582 71.7604C94.8342 71.0944 91.3062 69.2404 89.3622 65.8924L90.7662 65.4604ZM93.7362 55.1284H95.4102V63.2104C95.4102 66.7744 94.6722 70.1764 89.2722 71.7784C89.0742 71.4004 88.5882 70.7344 88.2282 70.3744C93.3582 69.1324 93.7362 66.1984 93.7362 63.1924V55.1284ZM87.9042 55.0024L89.4882 55.5064C88.2642 58.5484 86.3202 61.6624 84.3042 63.6784C84.1422 63.2824 83.6742 62.3644 83.3862 61.9684C85.1502 60.2944 86.8782 57.6664 87.9042 55.0024ZM86.0682 59.8444L87.6702 58.2244L87.6882 58.2424V71.8144H86.0682V59.8444Z" fill="#333333"/>
<path d="M72.8923 55.9746C72.7483 56.5326 72.6943 56.9466 72.6223 57.3786C72.3883 59.1786 71.5603 64.9026 71.5603 66.7926C71.5603 68.4306 72.5143 69.3846 74.4403 69.3846C77.0863 69.3846 78.6703 68.1966 78.6703 66.5046C78.6703 65.2986 78.0043 64.0386 76.7443 62.9226L78.7423 62.4906C79.9663 63.9306 80.5423 65.1906 80.5423 66.7206C80.5423 69.4206 78.1303 71.1846 74.4043 71.1846C71.7943 71.1846 69.8143 70.0506 69.8143 67.0806C69.8143 65.1906 70.6603 59.7726 70.8583 57.2706C70.9123 56.5506 70.9123 56.2086 70.8763 55.8486L72.8923 55.9746ZM66.8443 58.2966C68.3743 58.8006 70.5703 59.0346 72.2623 59.0346C73.6483 59.0346 74.9083 58.9446 75.8983 58.7826L75.8443 60.4926C74.7283 60.6006 73.7023 60.6546 72.2263 60.6546C70.5343 60.6546 68.3563 60.3846 66.7363 59.9346L66.8443 58.2966ZM66.4123 62.7606C68.2483 63.3906 70.3363 63.5526 72.0643 63.5526C73.2523 63.5526 74.5303 63.4986 75.7543 63.3366L75.7183 65.0466C74.6023 65.1546 73.5223 65.2086 72.3343 65.2086C70.1923 65.2086 67.9603 64.9746 66.3223 64.4886L66.4123 62.7606Z" fill="#333333"/>
<path d="M54.4961 57.9003C56.5661 58.2243 60.1841 58.1343 62.0381 57.8823V59.7183C59.9861 59.9343 56.6021 59.9343 54.4961 59.7183V57.9003ZM55.5221 65.3883C55.3601 66.0183 55.2701 66.4863 55.2701 66.9723C55.2701 67.7823 55.9001 68.4483 58.0961 68.4483C59.6981 68.4483 61.0661 68.3043 62.5781 67.9803L62.6141 69.8883C61.4621 70.1043 59.9861 70.2483 58.0421 70.2483C55.0001 70.2483 53.5781 69.2043 53.5781 67.4403C53.5781 66.7923 53.6861 66.1263 53.8841 65.2263L55.5221 65.3883ZM51.3461 56.5863C51.2381 56.9283 51.0401 57.6483 50.9681 57.9723C50.6801 59.4303 50.0861 62.8143 50.0861 64.7403C50.0861 65.3883 50.1221 66.0183 50.2121 66.6663C50.5001 65.9463 50.8601 65.0643 51.1481 64.3803L52.0661 65.1003C51.5801 66.4683 50.9501 68.3943 50.7701 69.2943C50.7161 69.5643 50.6801 69.9243 50.6801 70.1223C50.6981 70.3203 50.7161 70.5903 50.7341 70.8063L49.0961 70.9143C48.7361 69.6543 48.4121 67.5303 48.4121 65.0823C48.4121 62.4183 48.9881 59.3583 49.2041 57.9003C49.2581 57.4503 49.3301 56.8923 49.3481 56.4243L51.3461 56.5863Z" fill="#333333"/>
<path d="M32.1761 56.6585H33.8501V71.7065H32.1761V56.6585ZM28.8461 60.2945H36.8381V61.9145H28.8461V60.2945ZM32.2121 60.9605L33.2921 61.4645C32.4461 64.0565 30.8441 67.2965 29.3141 69.0425C29.1341 68.5565 28.7201 67.8365 28.4321 67.4045C29.8901 65.9285 31.4921 63.1205 32.2121 60.9605ZM35.5061 55.1465L36.7301 56.4065C34.7141 57.2345 31.7981 57.8285 29.2781 58.1705C29.2061 57.7925 28.9721 57.2165 28.7741 56.8565C31.1861 56.4785 33.9401 55.8665 35.5061 55.1465ZM33.7601 62.6705C34.3541 63.1205 36.3701 65.0825 36.8381 65.5685L35.8121 66.8645C35.2001 65.9825 33.5981 64.1645 32.8781 63.4445L33.7601 62.6705ZM39.2681 55.4165L41.1941 55.7405C40.4741 60.4565 39.2141 66.2705 38.1161 70.0145L36.4781 69.6545C37.5581 65.8925 38.7281 59.9345 39.2681 55.4165ZM34.9481 69.2585C37.1441 69.0605 40.6721 68.7005 44.0201 68.3225L44.0741 69.8885C40.9781 70.3205 37.7021 70.7705 35.3441 71.0405L34.9481 69.2585ZM41.1401 64.3265L42.7601 63.8405C43.9481 66.1985 45.1001 69.2225 45.4421 71.1845L43.6601 71.7425C43.3541 69.8345 42.2921 66.7205 41.1401 64.3265Z" fill="#333333"/>
</svg>
