<svg width="177" height="243" viewBox="0 0 177 243" fill="none" xmlns="http://www.w3.org/2000/svg">
<path d="M143.822 131.795C144.316 135.171 141.302 137.455 139.672 140.037L134.732 145.3H134.04C134.287 141.377 135.868 137.753 137.795 134.377C139.227 132.689 140.907 130.504 143.328 131.1L143.822 131.795Z" fill="black"/>
<path d="M143.229 132.291C143.723 133.532 142.735 134.674 142.241 135.766C140.265 138.844 137.647 141.327 134.929 143.908C135.522 140.681 136.906 137.404 138.684 134.475C139.87 133.333 141.055 131.744 142.834 131.794L143.229 132.291Z" fill="#FFCE00"/>
<path d="M117.342 146.788C118.627 147.334 120.455 147.583 120.899 149.072C120.899 149.817 120.603 150.661 119.911 151.257C124.259 157.463 126.729 165.754 124.456 173.499C124.061 175.535 123.122 177.521 122.875 179.556C121.196 179.655 119.911 181.244 118.232 181.641C117.194 181.989 115.86 181.741 114.872 182.237C112.254 182.386 109.932 182.039 107.363 181.741C107.561 182.585 108.351 183.478 109.142 184.223C111.711 186.209 114.872 186.954 118.133 186.01C118.479 185.961 118.923 186.011 119.022 186.408C118.429 188.692 116.601 190.479 115.07 192.366C117.738 192.812 120.306 193.507 123.073 193.656C124.703 190.926 126.581 188.344 127.914 185.514C127.025 184.422 126.482 183.081 126.729 181.641C126.976 179.159 130.335 178.762 130.088 176.081C130.73 174.095 131.817 172.605 132.361 170.619C134.337 167.293 135.275 163.569 137.498 160.392C139.129 159.2 141.006 160.442 142.537 160.888C145.403 162.427 148.663 163.222 150.936 165.953C151.282 168.038 150.145 170.024 149.553 172.01C148.219 176.726 144.958 180.648 143.427 185.315C142.933 186.259 141.846 186.308 141.055 185.812L140.067 185.315C138.832 186.904 137.35 188.046 135.424 188.394C134.88 188.443 133.694 188.195 133.645 189.188C131.965 194.302 129.94 199.267 126.334 203.586C125.444 204.281 124.209 204.331 123.172 204.281C122.48 205.473 121.048 204.48 120.109 204.778L118.429 204.877C118.577 208.303 120.306 211.728 120.504 215.303C121.097 219.573 122.332 224.24 121.69 228.41C119.664 229.85 116.947 229.304 114.675 229.999V233.772C117.194 233.921 120.01 234.616 120.998 237.248C121.245 237.893 120.998 238.638 120.801 239.234C116.75 242.957 110.327 242.113 105.387 241.518C104.3 241.369 103.263 241.071 102.324 240.525C101.435 237.198 101.978 234.269 101.83 230.793L101.632 230.595C99.0142 230.545 96.5441 230.694 94.1233 230.496L93.9257 230.694C93.3823 234.021 93.8763 237.943 92.7401 240.922C90.764 242.957 87.9481 242.014 85.4286 242.709C80.6366 242.461 75.7952 243.752 71.596 241.12C70.7561 240.574 70.8549 239.532 71.0031 238.737C72.9298 236.553 75.7458 235.212 78.7099 234.964L78.9075 232.879C78.2159 231.886 78.1171 230.694 77.5242 229.701H74.3625C73.6709 229.155 74.4119 227.864 74.4613 226.921C75.2517 221.608 75.2517 216.495 76.3386 211.53C76.0422 211.133 75.5975 211.629 75.1529 211.629C71.4972 211.778 67.1498 212.97 64.1857 210.14C62.3084 204.083 66.0629 198.621 70.1139 194.55C72.0406 192.564 74.1155 190.826 76.5362 189.684C75.7458 188.344 74.9059 186.954 74.5601 185.415C71.1514 183.677 68.8789 180.053 68.6318 176.279C69.0271 174.939 69.6693 173.549 71.102 173.003C70.9537 170.669 70.5585 168.286 70.7067 165.953L67.4462 169.229H66.3593C65.0255 167.74 63.7904 166.25 63 164.562C65.1243 163.222 67.4956 162.427 69.6199 161.087C68.9777 160.243 67.792 159.945 66.9522 159.2C66.4581 158.704 65.4207 158.158 65.8653 157.314C66.9028 155.973 68.1872 154.285 69.7187 153.342C70.1139 153.491 70.3609 153.044 70.6079 153.54C71.3984 155.228 72.1888 156.916 73.1768 158.505C73.4733 157.81 73.7697 156.966 74.0661 156.221C74.6589 154.434 75.7458 152.895 76.4374 151.157C76.7832 148.576 82.3656 147.583 79.5991 144.802C79.7473 144.306 78.8581 143.76 79.6979 143.611C81.6246 143.412 83.3043 144.256 84.9346 144.504C84.5393 143.71 84.1441 142.916 84.0453 142.022C85.5768 141.128 87.3553 142.072 88.8867 142.32H89.0843C89.0843 141.625 88.6397 140.83 88.3927 140.135C90.6158 139.837 92.9871 140.384 94.9138 141.327H95.0126C95.2102 140.781 94.1233 139.887 95.2102 139.539C96.5441 139.738 97.6309 140.632 98.866 141.128C99.0636 140.384 98.4213 139.391 99.0636 138.745C106.029 139.242 112.847 141.277 117.342 146.788Z" fill="black"/>
<path d="M112.6 143.414C113.884 144.506 115.268 145.201 116.256 146.591C114.378 146.839 112.402 147.435 111.118 149.173C108.006 148.031 104.35 149.322 101.732 151.159C98.8168 150.662 95.408 151.705 93.1355 153.74C91.2089 153.194 89.2328 153.79 87.6025 154.535C86.7627 155.23 85.9228 156.074 85.4288 157.017C83.8479 156.769 82.0695 155.478 80.291 156.521L78.2161 158.308C76.981 157.911 75.4496 157.762 74.2639 158.407C74.3627 157.017 75.1532 155.677 75.6472 154.336C76.8328 152.45 77.5739 150.414 79.3029 148.776C80.0934 148.279 80.785 147.584 81.279 146.79C81.526 145.797 80.4886 145.35 80.4886 144.506C82.3165 144.258 84.0455 145.35 85.824 145.797C86.0216 145.697 85.8734 145.449 85.9228 145.3H86.1204C85.824 144.456 85.1324 143.414 84.9348 142.52C86.565 142.57 88.3929 142.719 89.875 143.513C89.9738 143.662 89.9738 143.86 90.1714 144.009C90.7642 144.158 90.7148 143.414 90.5666 143.116C90.3196 142.321 89.628 141.676 89.4798 140.832C91.5547 141.13 93.9754 141.179 95.7044 142.619C96.1491 142.669 96.0503 142.172 96.1985 141.924L95.7044 140.534C96.8901 140.882 98.1252 141.726 99.3602 142.321H99.8542C100.101 141.378 99.4096 140.484 99.6566 139.541C104.399 139.839 108.598 141.378 112.6 143.414Z" fill="#352C05"/>
<path d="M133.941 148.08C134.287 149.569 134.287 151.506 133.151 152.548C131.521 153.243 130.088 151.853 129.1 150.86C128.902 149.768 128.952 148.576 129.792 147.782C130.483 147.087 131.471 146.64 132.459 146.988C132.953 147.335 133.645 147.385 133.941 148.08Z" fill="black"/>
<path d="M120.109 149.074C120.208 150.563 118.676 150.96 117.738 151.655C116.75 152.003 115.613 152.053 114.477 152.152C114.082 150.96 112.995 150.464 112.106 149.67C112.254 148.925 113.044 148.577 113.588 148.18C115.91 147.286 118.33 147.137 120.109 149.074Z" fill="white"/>
<path d="M133.349 148.577C133.546 149.62 133.448 150.761 133.052 151.655C132.015 152.549 131.274 151.208 130.286 151.159C129.693 150.712 129.742 149.917 129.891 149.272C130.286 148.527 130.829 147.634 131.768 147.584C132.361 147.783 133.052 147.882 133.349 148.577Z" fill="#FFCE00"/>
<path d="M113.39 151.952C113.193 152.101 113.094 152.349 112.995 152.547L113.094 152.647C111.414 154.086 108.993 153.938 106.869 154.335C105.535 153.391 104.35 152.051 102.818 151.554C105.239 150.065 108.697 148.923 111.414 150.264C112.155 150.71 112.847 151.356 113.39 151.952Z" fill="white"/>
<path d="M120.504 153.442C120.405 153.542 119.911 153.591 120.01 153.939L119.911 154.038C119.812 153.839 119.763 153.591 119.516 153.442C119.022 153.492 118.33 153.293 118.133 153.839C117.688 153.641 117.491 154.137 117.441 154.435V154.733C117.194 154.485 117.046 154.634 116.75 154.733C116.601 155.627 115.959 156.719 116.552 157.613C116.799 157.613 117.046 157.662 117.145 157.414C117.194 157.116 117.046 156.769 117.244 156.52C117.441 156.62 117.639 156.769 117.935 156.719C118.281 156.57 118.083 156.173 118.133 155.925C118.775 155.974 119.467 155.329 120.01 156.123C120.257 156.074 120.554 155.875 120.603 155.627C120.949 156.52 122.184 155.478 122.184 156.719C123.666 160.145 124.605 164.067 124.456 167.94C124.506 166.947 124.061 166.202 123.369 165.557C122.925 165.358 122.381 165.457 121.986 165.656C120.998 164.514 119.467 163.471 117.836 163.769C116.256 164.762 115.268 166.003 115.366 167.94C114.23 168.833 112.995 169.727 113.094 171.316C113.489 172.408 114.131 173.451 115.169 174.195C117.589 174.94 120.405 173.649 122.678 172.408C123.518 171.713 124.259 170.621 124.357 169.429C124.259 172.607 123.122 175.387 122.283 178.267C118.33 182.04 111.513 181.941 106.474 180.65C106.326 180.749 106.128 180.749 105.98 180.948C106.326 182.735 107.808 184.175 109.24 185.416C110.377 186.607 112.155 186.31 113.39 187.203C114.675 187.402 116.75 187.303 118.034 186.905C115.218 194.055 107.511 194.899 101.435 196.835C96.5935 196.984 91.4063 198.126 87.2071 195.445C87.5035 194.154 87.5035 192.615 87.4047 191.076C85.5768 190.977 84.1936 192.665 82.7609 193.658H81.9705C80.2908 192.615 79.451 190.182 77.5243 189.785C76.7338 188.593 75.894 187.402 75.5482 186.012C76.5362 186.409 77.7713 186.161 78.5123 185.416C78.8581 185.068 78.9075 184.77 78.7099 184.324C78.1665 184.075 78.1665 184.721 77.9195 184.919C75.9434 186.21 74.0167 184.026 72.4853 182.933C70.9044 180.6 68.5331 178.118 69.9163 175.089C70.361 174.593 70.8056 173.897 71.4972 173.699C71.843 174.195 72.1394 173.5 72.4853 173.401C74.0661 173.252 75.3012 173.897 76.3386 174.99C76.5856 175.139 76.9314 175.089 77.1291 174.791C75.9434 173.153 73.9179 172.358 71.8924 172.607C71.6454 170.571 71.5466 168.138 71.596 166.351C72.2382 165.954 72.6335 166.649 73.2757 166.549C77.2773 167.046 79.8956 164.415 82.7609 162.578C83.5513 163.322 84.6382 162.677 85.5274 162.875C88.1951 162.379 89.9242 159.549 93.0365 160.194C95.8525 159.599 98.0262 156.57 101.237 157.017C102.769 156.471 104.399 156.173 105.782 155.23C108.45 154.832 111.612 155.031 113.785 153.144C115.811 153.144 117.491 152.648 119.318 151.854L120.504 153.442Z" fill="#FFE3CA"/>
<path d="M102.225 152.35C103.559 152.201 104.202 153.69 105.288 154.137C104.053 155.776 101.287 156.222 99.0637 156.322C98.8661 156.322 98.6685 156.322 98.5697 156.123C98.1745 156.421 97.6311 155.776 97.0877 155.726C96.0996 155.229 95.2598 154.336 94.1235 154.137C95.408 153.144 96.9889 152.499 98.5697 151.953C99.6566 152.4 101.188 151.456 102.225 152.35Z" fill="white"/>
<path d="M72.6828 159.301L71.2995 160.989C70.8549 160.642 70.1632 160.542 69.7186 159.996C68.5824 159.4 67.4461 158.656 66.5569 157.712C67.3967 156.372 68.5824 154.882 70.015 154.138L72.6828 159.301Z" fill="white"/>
<path d="M96.4943 156.421C96.8401 156.57 97.2848 156.521 97.5812 156.819C95.2099 158.507 92.1469 160.244 88.9852 159.102L86.1199 157.613C86.8115 155.726 88.6394 155.081 90.2697 154.435C92.6904 154.237 94.7158 155.031 96.4943 156.421Z" fill="white"/>
<path d="M110.624 156.321C111.612 156.172 111.562 157.463 112.501 157.116C112.501 157.562 112.896 157.86 112.896 158.307C112.55 158.506 112.353 159.201 111.908 158.804C111.809 158.257 111.414 157.811 110.821 157.711C110.179 157.612 109.29 157.413 108.746 157.91L108.351 157.513C108.252 158.059 107.511 158.009 107.66 158.704C107.166 158.655 107.166 159.201 106.672 159.102L106.375 158.605C105.881 158.953 106.276 159.846 105.486 159.896C105.387 160.442 105.387 161.286 104.696 161.286C104.646 161.733 104.794 161.882 104.597 162.279C104.3 162.378 104.201 162.13 104.004 161.981C103.856 160.939 104.251 160.194 104.399 159.3C105.733 159.449 104.547 157.364 105.98 157.612C106.178 156.917 106.326 156.123 107.264 156.321C107.511 155.825 108.203 156.023 108.648 155.825C108.845 156.321 108.994 155.676 109.241 155.725C109.636 156.023 110.377 155.825 110.624 156.321Z" fill="black"/>
<path d="M89.1834 159.996V160.195C87.5037 161.088 85.8241 162.081 83.7492 162.081L83.848 161.982C82.5635 160.542 80.9332 159.5 79.303 158.705C80.1922 157.415 81.6743 156.769 83.1563 157.117C85.2312 157.911 87.0097 159.5 89.1834 159.996Z" fill="white"/>
<path d="M82.2671 161.684C79.6488 164.117 76.1412 166.5 72.3867 165.457C71.7444 164.911 71.5468 163.67 71.7938 162.677C71.8432 161.039 73.3253 159.946 74.5604 159.202C77.3763 158.258 80.2416 159.797 82.2671 161.684Z" fill="white"/>
<path d="M122.381 161.088C122.332 161.436 122.134 161.337 121.887 161.486C121.542 161.138 121.344 160.493 120.801 160.393C120.158 160.89 120.01 161.734 119.813 162.379C119.615 162.379 119.417 162.379 119.319 162.181C118.923 160.989 120.01 160.344 120.702 159.698C121.542 159.698 121.986 160.493 122.381 161.088Z" fill="black"/>
<path d="M148.663 164.763C152.319 166.749 148.565 170.075 148.466 172.707C147.132 176.877 144.365 180.402 142.933 184.523C142.636 184.92 142.093 185.715 141.549 185.119C139.03 183.977 136.461 182.338 133.744 181.445C132.904 181.097 133.349 180.005 132.954 179.36C132.855 178.664 132.262 178.168 131.768 177.671C131.274 177.87 130.977 177.523 130.483 177.572C131.076 175.189 132.41 173.153 133.151 170.82C134.139 169.579 134.287 167.841 135.226 166.649C136.263 164.614 136.807 162.628 138.388 160.89C139.722 160.394 140.957 161.337 142.241 161.585C144.415 162.529 146.588 163.571 148.663 164.763Z" fill="#9AB9E7"/>
<path d="M70.8056 164.763L70.5092 164.862C69.5211 166.103 68.3355 167.394 67.1498 168.536H66.8534C65.9148 167.295 64.5809 166.203 64.0869 164.763C64.7291 164.217 65.816 164.068 66.2606 163.273C67.6933 163.174 68.9283 161.933 70.4104 161.685C71.4478 162.38 70.5092 163.671 70.8056 164.763Z" fill="white"/>
<path d="M148.268 166.152C149.256 167.393 148.169 168.784 147.774 169.926C145.946 170.025 144.563 168.535 142.834 168.138C141.055 167.244 139.277 166.351 137.597 165.259C137.745 163.968 138.338 162.528 139.573 162.081C142.636 162.975 145.304 164.961 148.268 166.152Z" fill="black"/>
<path d="M111.71 163.869C111.908 164.216 112.303 164.862 112.007 165.259C110.92 165.259 111.414 163.173 110.031 163.67C108.944 164.365 109.339 165.755 108.549 166.45C107.906 165.706 108.796 164.464 109.043 163.571C109.833 162.925 111.266 162.727 111.71 163.869Z" fill="black"/>
<path d="M147.873 166.847C148.169 167.642 147.774 168.386 147.379 169.032C146.737 169.181 146.243 168.833 145.6 168.535C143.229 167.294 140.808 166.251 138.487 164.861C138.635 164.166 138.981 163.421 139.573 162.975C142.636 163.819 145.008 165.556 147.873 166.847Z" fill="white"/>
<path d="M121.295 166.352C121.146 166.65 121.492 166.848 121.69 166.948C122.184 166.699 122.628 166.153 123.172 166.451C124.357 167.891 123.518 169.926 122.777 171.317C120.652 172.707 118.33 174.147 115.564 173.402C114.675 172.856 114.526 172.111 114.082 171.317C114.032 170.224 114.823 169.38 115.663 168.735C116.008 169.033 116.404 168.636 116.552 168.338C116.7 167.841 116.058 167.941 116.157 167.444C116.305 166.253 117.095 165.16 118.133 164.564C119.417 164.564 120.652 165.16 121.295 166.352Z" fill="#FFE3CA"/>
<path d="M75.2516 167.641C75.301 167.84 75.2516 168.038 75.054 168.138C74.2636 167.74 73.1767 168.088 72.4851 167.542L72.6827 167.145C73.5226 167.293 74.6094 167.194 75.2516 167.641Z" fill="black"/>
<path d="M138.388 169.926C138.338 170.869 137.844 171.862 137.202 172.408C136.51 171.713 137.647 171.068 137.696 170.323C137.153 169.876 136.016 170.174 136.016 169.231L136.313 169.032C136.955 169.479 137.844 169.33 138.388 169.926Z" fill="black"/>
<path d="M75.5481 169.726C75.5975 171.017 73.8684 170.024 73.1768 170.321C73.1768 170.173 73.0286 170.073 73.078 169.924C73.7202 169.428 74.807 169.626 75.5481 169.726Z" fill="black"/>
<path d="M141.945 171.216C141.945 172.308 141.648 173.4 140.858 173.996C140.216 173.301 141.796 172.159 140.957 171.414C140.364 171.166 139.623 171.961 139.376 171.117C139.672 170.173 141.006 170.819 141.747 170.918L141.945 171.216Z" fill="black"/>
<path d="M145.699 172.606C145.749 173.599 145.007 174.84 144.118 175.187C143.871 174.443 144.76 173.946 145.007 173.301C144.76 172.258 142.587 173.35 143.229 172.01C144.118 172.059 144.958 172.258 145.699 172.606Z" fill="black"/>
<path d="M136.51 174.493C136.412 175.188 135.967 175.734 135.72 176.379C135.473 176.429 134.831 176.23 135.226 175.883C135.572 175.486 135.819 175.088 135.918 174.592C135.473 174.244 134.929 174.046 134.337 173.996V173.4C135.226 173.4 136.066 173.599 136.51 174.493Z" fill="black"/>
<path d="M140.759 175.187C140.66 175.932 140.66 176.925 139.969 177.273H139.771C139.524 176.726 140.265 175.882 139.87 175.287L138.684 175.187V174.492C139.425 174.591 140.216 174.591 140.759 175.187Z" fill="black"/>
<path d="M144.316 176.479C144.513 177.522 143.723 178.614 143.031 179.26C142.29 178.465 145.057 176.529 142.537 176.876C142.34 176.727 142.043 176.33 142.438 176.181C143.13 176.132 143.723 176.231 144.316 176.479Z" fill="black"/>
<path d="M76.4373 177.471V177.67C75.5975 177.571 75.0541 176.776 74.1648 176.776C73.6214 176.826 73.1768 177.025 72.7816 177.372C72.1888 178.464 72.9792 179.507 73.2756 180.45C73.7696 181.046 74.3625 181.791 75.1529 181.841C76.0915 182.188 76.6843 180.848 77.3266 181.245C77.3266 181.841 76.6349 182.089 76.2397 182.337C75.1035 182.734 74.0166 182.138 73.2756 181.543C72.2382 180.301 71.3983 178.713 71.9911 177.074C72.831 176.528 73.8684 176.032 74.9553 176.379C75.4493 176.727 76.2891 176.677 76.4373 177.471Z" fill="black"/>
<path d="M139.474 179.259C139.129 180.003 139.129 181.294 138.091 181.443C137.696 180.599 139.524 179.755 138.289 179.159C137.893 179.01 137.449 179.06 137.103 178.762C137.152 178.564 137.004 178.315 137.301 178.266C138.091 178.365 138.832 178.712 139.474 179.259Z" fill="black"/>
<path d="M132.163 179.458C132.607 180.5 132.261 181.394 131.767 182.337C131.916 182.685 132.311 182.486 132.558 182.437L132.953 181.94C135.028 182.933 137.152 183.876 139.178 185.018C138.14 187.153 135.818 187.451 133.645 187.501C131.57 192.763 129.742 198.274 126.037 202.792C125.296 203.537 124.159 203.637 123.171 203.488C123.912 199.863 122.233 194.551 125.345 191.572C126.58 190.132 127.074 188.394 128.21 186.905L128.803 185.316C127.914 184.323 127.222 183.181 127.519 181.841C127.766 180.153 129.643 178.961 131.076 178.465C131.718 178.316 131.916 179.061 132.163 179.458Z" fill="white"/>
<path d="M115.268 189.09C114.576 189.239 114.625 190.778 113.786 190.083C113.736 189.487 114.181 188.991 114.675 188.693C115.021 188.594 115.218 188.792 115.268 189.09Z" fill="black"/>
<path d="M112.205 191.372C111.958 191.571 111.958 192.415 111.414 191.968C111.661 191.223 111.661 190.329 112.205 189.783C112.847 190.131 112.254 190.875 112.205 191.372Z" fill="black"/>
<path d="M109.735 192.963C108.697 192.864 109.636 191.771 109.339 191.076C109.586 190.828 109.241 190.332 109.636 190.183L110.13 190.282L109.735 192.963Z" fill="black"/>
<path d="M107.857 192.963C106.919 192.665 107.215 191.325 106.869 190.481C107.017 190.381 107.215 190.381 107.363 190.481C107.66 191.225 108.005 192.268 107.857 192.963Z" fill="black"/>
<path d="M77.5242 191.274C77.87 194.998 79.4014 198.275 80.7847 201.601C79.8955 201.899 79.1544 203.091 78.611 203.786C77.3266 203.587 76.2397 203.786 74.9553 203.587C73.6708 200.856 73.078 197.48 70.2126 195.842V195.643C72.1393 193.608 74.1154 191.671 76.4373 190.678C77.0301 190.529 77.2772 190.827 77.5242 191.274Z" fill="white"/>
<path d="M105.881 192.565C105.832 193.012 106.425 193.309 106.079 193.756C105.14 193.359 105.19 191.969 104.794 191.075C104.695 190.827 104.992 190.777 105.189 190.777C105.881 191.175 105.486 192.019 105.881 192.565Z" fill="black"/>
<path d="M83.1562 194.452C84.1442 193.459 85.3793 192.516 86.6143 191.87C86.7131 192.863 86.4661 194.005 86.4167 195.048C86.2191 195.147 85.9721 195.197 85.8239 195.445L86.0215 196.339C85.5769 197.679 85.7251 199.218 85.1323 200.509C83.7984 200.608 82.8104 200.658 81.6741 201.204C80.2415 198.523 79.4016 195.594 78.5124 192.665L78.4136 191.274C79.7474 192.466 81.1307 195.048 83.1562 194.452Z" fill="#BBBCBC"/>
<path d="M122.579 194.452C122.381 194.551 122.381 194.75 122.381 194.948L122.777 195.345C122.48 198.424 122.579 201.055 122.283 203.984C121.64 204.282 120.85 203.835 120.01 203.984C119.121 204.133 117.54 204.332 117.738 202.892C116.848 199.615 115.712 196.438 113.785 193.558L114.181 193.062C117.095 193.508 119.615 194.154 122.579 194.452Z" fill="white"/>
<path d="M116.947 202.793C118.726 209.346 120.307 215.999 120.899 223.049L121.097 223.248C121.097 224.39 121.196 225.482 120.603 226.525C121.295 226.674 120.949 227.567 120.899 228.014C116.256 229.305 111.118 229.305 106.178 229.802C99.5577 229.901 93.3824 230.199 87.0095 229.107C87.2071 225.979 89.8254 223.893 90.4677 220.964C90.7641 219.872 91.2087 218.68 91.1593 217.588C90.2207 216.943 89.1832 216.496 87.9976 216.396C87.8988 215.255 87.4541 214.013 87.2071 212.822C89.8254 210.985 90.6159 207.807 90.1713 204.977C90.1713 204.332 89.282 203.438 90.3689 203.19L90.6653 202.694C90.7147 201.005 90.6159 199.168 90.0725 197.629C90.9123 197.729 91.7027 197.977 92.5426 198.027C93.086 199.566 93.1354 201.254 93.4318 202.892C93.2342 203.14 92.9378 203.637 93.333 203.885C99.4095 205.573 106.968 204.332 112.797 203.091C113.489 202.743 114.23 202.594 114.872 202.098L114.774 201.998C115.416 201.8 114.774 201.204 114.971 200.708C114.329 198.424 113.193 196.388 112.205 194.253C112.501 194.005 112.896 193.906 113.193 194.253C115.119 196.835 115.811 199.864 116.947 202.793Z" fill="#175296"/>
<path d="M111.414 194.75C112.649 196.885 113.785 199.069 114.279 201.502C110.624 203.29 106.424 203.091 102.423 203.786C99.607 203.836 96.9393 203.786 94.321 203.091C94.2221 201.353 93.7775 199.765 93.5305 198.126L99.2612 198.027C101.583 199.268 103.806 201.651 106.77 200.41C109.191 199.516 110.969 197.332 111.216 194.75H111.414Z" fill="white"/>
<path d="M106.968 199.416C104.794 200.509 102.62 199.267 100.941 198.026V197.828C103.954 196.835 107.264 196.537 110.129 195.146C110.228 196.934 108.549 198.672 106.968 199.416Z" fill="white"/>
<path d="M84.0454 196.735C83.8972 197.679 84.8358 198.771 83.6502 199.218C83.6008 198.225 83.3537 196.984 83.4525 195.941C84.0454 195.792 83.8972 196.437 84.0454 196.735Z" fill="black"/>
<path d="M82.4644 199.219C82.2174 199.318 82.168 199.616 81.8716 199.318C81.921 198.325 81.6246 197.58 81.5752 196.537C81.8222 196.389 81.921 196.389 82.168 196.537C82.5632 197.282 82.2174 198.374 82.4644 199.219Z" fill="black"/>
<path d="M73.2755 201.402C73.5719 201.997 73.9177 202.742 73.8683 203.388C73.3249 203.288 72.4851 203.09 72.0898 203.586C72.0898 203.834 72.1886 204.033 72.3863 204.182C74.7082 204.083 76.1408 204.728 78.4133 204.48C78.7591 204.579 78.8579 205.175 79.3026 204.877C79.5002 204.53 80.1918 204.331 79.7966 203.785C81.5256 201.551 84.2922 201.005 87.0093 201.6C88.7384 202.593 89.3312 204.579 89.5782 206.466C89.6276 208.849 88.5902 211.083 86.5153 212.324C84.4404 213.019 82.0197 213.566 79.6978 213.119C78.6109 212.473 77.4253 211.58 76.6348 210.537C72.8803 211.232 67.8413 212.424 64.7783 209.544C63.6421 204.331 66.2604 200.309 69.4221 196.536C71.744 197.132 72.4357 199.813 73.2755 201.402Z" fill="white"/>
<path d="M89.2821 198.026C89.5785 199.465 89.9244 201.054 89.7761 202.593L89.4797 202.891C88.7881 201.948 87.7507 200.657 86.4168 200.607C86.2686 199.267 86.6144 197.827 86.9108 196.536C87.6519 197.132 89.0351 196.884 89.2821 198.026Z" fill="white"/>
<path d="M79.6982 213.914C79.4018 214.658 79.0065 215.304 78.8089 216.098C77.2775 220.07 76.7834 224.588 77.3269 228.907H74.9556C75.6472 223.595 75.8942 217.488 77.0305 212.226C77.9197 212.821 78.6607 213.715 79.6982 213.914Z" fill="#175296"/>
<path d="M86.8116 214.411C88.7383 221.56 87.1081 229.653 83.1559 235.561C82.8595 234.668 83.4029 233.377 82.6619 232.781C82.4149 232.831 82.1184 233.029 82.069 233.277C82.5137 234.072 82.069 235.015 82.1678 235.859C79.8459 233.774 78.4133 230.944 78.2157 227.816C79.3519 226.078 81.4762 225.284 83.3535 225.532C83.7981 225.433 84.3909 226.178 84.9344 225.632C84.885 225.483 84.7862 225.334 84.8356 225.135C82.4643 224.142 79.7965 225.085 78.0181 226.624C78.0181 222.255 78.4627 217.787 80.6858 214.212C82.5631 214.163 84.5886 213.865 86.4164 213.418L86.8116 214.411Z" fill="#BBBCBC"/>
<path d="M90.3689 217.985C89.9242 220.318 89.282 222.652 87.9976 224.638C88.3434 222.751 88.1952 219.673 88.0964 217.29C88.8868 217.091 89.6772 217.538 90.3689 217.985Z" fill="#BBBCBC"/>
<path d="M84.4404 219.674C84.4404 221.213 84.1934 222.603 83.4524 223.844C83.0571 223.894 82.6619 223.547 82.9583 223.149C83.8476 222.355 83.6994 221.163 83.8476 220.071C82.7113 219.475 81.6739 220.369 80.6858 220.766C80.4388 222.007 81.1305 223 80.8835 224.142C80.0436 224.142 80.4388 223.1 80.1918 222.554L80.093 220.27C81.3775 219.624 83.0077 218.979 84.4404 219.674Z" fill="black"/>
<path d="M84.737 227.319C85.231 228.262 85.1816 229.752 84.4406 230.596C83.996 231.241 83.1561 231.192 82.5633 231.192C81.7235 230.943 81.7729 230 81.3776 229.404C81.2788 228.213 82.3163 227.22 83.2549 226.723C83.8972 226.574 84.4406 226.872 84.737 227.319Z" fill="black"/>
<path d="M84.4402 228.014C84.6872 228.858 84.4896 229.802 83.8474 230.397C83.551 230.546 82.9581 230.993 82.7605 230.397C82.4641 229.95 81.7231 229.404 82.1677 228.709C82.6123 227.965 83.8968 226.425 84.4402 228.014Z" fill="white"/>
<path d="M83.6501 228.906V229.304H82.7609C82.7115 229.006 82.8103 228.807 83.0573 228.609C83.3043 228.559 83.6007 228.609 83.6501 228.906Z" fill="black"/>
<path d="M93.0365 230.497C92.6907 233.675 92.9871 237.249 92.0485 240.427C90.8135 241.767 88.9362 241.569 87.2071 241.718C82.7115 241.718 77.6231 242.661 73.5721 241.321C72.9793 240.774 71.843 240.824 71.6948 239.831C71.7442 239.037 71.9418 238.987 72.2876 238.342C74.4613 236.505 76.8326 236.207 79.5004 235.561L79.5992 234.171C80.5872 235.114 81.2294 236.852 82.7609 237.15C84.9346 235.015 85.725 232.433 87.0095 229.901C88.8868 230.1 90.9617 230.497 93.0365 230.497Z" fill="#231815"/>
<path d="M113.884 234.469C114.576 234.916 115.366 234.717 116.255 234.767C117.984 235.064 119.565 235.958 120.405 237.547C120.504 238.292 120.306 238.937 119.615 239.235C118.281 240.029 116.799 240.426 115.366 241.022C111.118 241.271 106.82 241.618 103.016 239.93C102.275 237.15 102.769 233.774 102.62 230.894C106.573 230.596 109.685 230.646 113.785 230.1L113.884 234.469Z" fill="#231815"/>
<path d="M100.059 208.454C99.7184 208.454 99.4436 208.731 99.4436 209.073V219.726C99.4436 220.069 99.6945 220.465 99.9931 220.616L106.492 223.794C106.796 223.944 107.292 223.944 107.603 223.794L114.203 220.61C114.507 220.459 114.758 220.063 114.758 219.72V209.067C114.758 208.725 114.484 208.448 114.143 208.448H100.059V208.454Z" fill="white"/>
<path d="M103.135 220.382C102.089 220.382 101.241 219.529 101.241 218.477C101.241 217.425 102.089 216.572 103.135 216.572C104.18 216.572 105.034 217.425 105.034 218.477C105.034 219.529 104.186 220.382 103.135 220.382Z" fill="#2175D6"/>
<path d="M111.073 220.382C110.028 220.382 109.179 219.529 109.179 218.477C109.179 217.425 110.028 216.572 111.073 216.572C112.118 216.572 112.966 217.425 112.966 218.477C112.966 219.529 112.118 220.382 111.073 220.382Z" fill="#2175D6"/>
<path d="M112.399 212.721V215.371H108.433V222.359H105.649V215.323H101.361L101.307 212.499H105.649V209.542H108.433V212.547H110.213C109.794 212.198 109.532 211.669 109.532 211.081C109.532 210.029 110.38 209.176 111.425 209.176C112.47 209.176 113.319 210.029 113.319 211.081C113.319 211.778 112.948 212.384 112.393 212.721H112.399Z" fill="#2175D6"/>
<path d="M111.431 210.275C110.983 210.275 110.625 210.636 110.625 211.087C110.625 211.537 110.983 211.898 111.431 211.898C111.879 211.898 112.238 211.531 112.238 211.087C112.238 210.642 111.879 210.275 111.431 210.275Z" fill="white"/>
<path fill-rule="evenodd" clip-rule="evenodd" d="M88.704 119.934C137.469 119.934 177 93.1041 177 60.0076C177 26.9111 137.469 0.0810547 88.704 0.0810547C39.9394 0.0810547 0.407959 26.9111 0.407959 60.0076C0.407959 89.0957 30.9436 113.343 71.4458 118.79L80.0236 128.956L83.3191 119.825C85.1003 119.897 86.8958 119.934 88.704 119.934Z" fill="#FEE880"/>
<path d="M116.09 94.5388C116.042 94.6837 116.006 94.8648 115.97 95.0579C115.801 95.8789 115.595 97.4242 115.595 98.716C115.595 100.237 115.873 101.396 116.187 102.35L115.185 102.64C114.883 101.746 114.593 100.261 114.593 98.8609C114.593 97.3759 114.798 95.9392 114.895 95.0579C114.907 94.8889 114.919 94.6595 114.919 94.5146L116.09 94.5388ZM114.267 95.7461C115.97 95.7461 117.732 95.6133 119.29 95.2752L119.302 96.2652C117.913 96.4946 115.74 96.6757 114.267 96.6757C113.796 96.6757 113 96.6395 112.565 96.6032L112.541 95.6133C112.879 95.6616 113.833 95.7461 114.267 95.7461ZM118.589 97.0741C118.529 97.231 118.396 97.6415 118.336 97.8226C117.732 99.6456 116.815 100.937 115.716 101.77C115.04 102.277 114.159 102.64 113.483 102.64C112.734 102.64 112.155 102.277 112.155 101.287C112.155 99.7784 113.519 98.39 115.016 97.8347C115.692 97.5811 116.489 97.4363 117.177 97.4363C119.205 97.4363 120.4 98.5953 120.4 100.08C120.4 101.432 119.495 102.785 117.068 103.195L116.489 102.265C118.336 102.072 119.314 101.131 119.314 99.9836C119.314 99.054 118.541 98.3055 117.129 98.3055C116.271 98.3055 115.547 98.547 115.064 98.7643C114.062 99.211 113.145 100.213 113.145 101.118C113.145 101.457 113.338 101.65 113.676 101.65C114.11 101.65 114.75 101.36 115.354 100.841C116.187 100.129 116.96 99.1144 117.394 97.6174C117.455 97.4483 117.551 97.0016 117.563 96.8326L118.589 97.0741Z" fill="#333333"/>
<path d="M99.0794 94.8534C99.5623 94.9138 100.13 94.9379 100.613 94.9379C102.001 94.9379 103.57 94.7327 104.862 94.3101L104.898 95.4329C103.776 95.7347 102.122 96.0245 100.625 96.0124C100.154 96.0124 99.6468 96.0003 99.1639 95.9762L99.0794 94.8534ZM103.546 92.958C103.389 93.5616 103.112 94.7206 102.81 95.6502C102.242 97.3887 101.144 99.6101 100.13 100.998L98.9707 100.395C100.045 99.1031 101.156 96.9782 101.639 95.6019C101.916 94.7931 102.182 93.7065 102.218 92.8252L103.546 92.958ZM106.383 96.7006C106.347 97.1955 106.359 97.6302 106.371 98.101C106.395 98.8616 106.504 100.673 106.504 101.421C106.504 102.459 105.888 103.28 104.295 103.28C102.894 103.28 101.772 102.689 101.772 101.433C101.772 100.286 102.798 99.5015 104.295 99.5015C106.359 99.5015 107.953 100.528 108.955 101.409L108.315 102.435C107.41 101.614 106.033 100.455 104.234 100.455C103.426 100.455 102.894 100.829 102.894 101.324C102.894 101.832 103.317 102.182 104.138 102.182C105.067 102.182 105.369 101.687 105.369 101.023C105.369 100.19 105.236 98.0044 105.188 96.7006H106.383ZM108.653 97.1593C107.977 96.604 106.637 95.8434 105.828 95.4691L106.444 94.5395C107.313 94.9138 108.738 95.7106 109.329 96.1573L108.653 97.1593Z" fill="#333333"/>
<path d="M91.0634 93.1989C90.9789 93.4887 90.8702 93.9837 90.8219 94.2372C90.6529 95.0823 90.3752 96.4948 90.0493 97.7142C89.6146 99.4164 88.8058 101.903 88.1538 103.268L86.8258 102.821C87.5502 101.59 88.4315 99.1025 88.8782 97.4003C89.18 96.2775 89.4818 94.8529 89.5664 94.1768C89.6146 93.7905 89.6388 93.3438 89.6026 93.0782L91.0634 93.1989ZM88.2142 95.1185C89.6026 95.1185 91.3411 94.9012 92.8743 94.5269V95.7222C91.3773 96.0602 89.5181 96.2654 88.1901 96.2654C87.6347 96.2654 87.2001 96.2413 86.7655 96.2171L86.7292 95.034C87.3208 95.1064 87.7434 95.1185 88.2142 95.1185ZM92.0171 96.8691C92.6691 96.7966 93.49 96.7483 94.2748 96.7483C94.975 96.7483 95.6993 96.7846 96.3754 96.857L96.3513 98.0039C95.7356 97.9315 95.0112 97.859 94.2989 97.859C93.5021 97.859 92.7656 97.8953 92.0171 97.9918V96.8691ZM92.4397 99.839C92.3431 100.213 92.2707 100.6 92.2707 100.889C92.2707 101.445 92.6087 101.928 94.142 101.928C94.9388 101.928 95.7718 101.843 96.5686 101.686L96.5203 102.905C95.8563 103.002 95.0474 103.087 94.1299 103.087C92.1741 103.087 91.1117 102.447 91.1117 101.239C91.1117 100.732 91.1962 100.225 91.3048 99.7303L92.4397 99.839ZM95.0716 93.5611C95.3854 93.9957 95.8201 94.7443 96.0495 95.2151L95.2647 95.5652C95.0233 95.0702 94.6249 94.3459 94.2989 93.8871L95.0716 93.5611ZM96.4479 93.042C96.7738 93.4887 97.2326 94.2493 97.4499 94.696L96.6652 95.034C96.4116 94.5149 96.0132 93.8267 95.6752 93.368L96.4479 93.042Z" fill="#333333"/>
<path d="M74.4146 96.0244H80.1734V97.0868H74.4146V96.0244ZM80.8857 93.8513H81.9964V100.576H80.8857V93.8513ZM76.8413 93.5011H77.964V103.594H76.8413V93.5011ZM83.8073 92.6319H84.9421V102.157C84.9421 102.882 84.7731 103.208 84.3385 103.401C83.8918 103.582 83.1674 103.618 82.0567 103.618C81.9964 103.292 81.8153 102.773 81.6462 102.447C82.4793 102.471 83.2399 102.471 83.4813 102.471C83.7107 102.459 83.8073 102.387 83.8073 102.157V92.6319ZM79.2558 92.4629L80.0889 93.3442C78.628 93.9237 76.4791 94.3221 74.644 94.5636C74.5957 94.298 74.4388 93.9116 74.2939 93.6702C76.0686 93.4166 78.1089 92.982 79.2558 92.4629ZM76.8171 96.5194L77.6139 96.8574C76.9982 98.6804 75.8754 100.841 74.7406 102.012C74.6199 101.674 74.3301 101.204 74.137 100.902C75.1873 99.8997 76.3101 98.0405 76.8171 96.5194ZM77.8071 97.7508C78.2659 98.0647 79.7991 99.3806 80.1734 99.7066L79.5094 100.684C79.0023 100.081 77.7709 98.8615 77.2035 98.3544L77.8071 97.7508Z" fill="#333333"/>
<path d="M65.783 93.0659H73.2319V94.08H65.783V93.0659ZM66.6522 99.9353C67.7991 101.517 70.3103 102.29 73.5578 102.471C73.3043 102.736 73.0146 103.219 72.8697 103.533C69.5376 103.243 67.0385 102.302 65.6501 100.273L66.6522 99.9353ZM67.0989 97.726V98.8246H71.759V97.726H67.0989ZM67.0989 95.8306V96.9051H71.759V95.8306H67.0989ZM66.0365 94.9734H72.8697V99.6818H66.0365V94.9734ZM68.934 93.3677H70.0567V98.2572C70.0567 100.491 69.4169 102.579 65.7226 103.642C65.5898 103.376 65.2638 102.929 65.0224 102.7C68.6683 101.915 68.934 100.104 68.934 98.2451V93.3677ZM64.7568 92.4502L65.8312 92.7762C65.1189 94.8165 63.9962 96.9292 62.7768 98.3055C62.6682 98.0278 62.3422 97.4242 62.137 97.1465C63.1873 95.9996 64.1773 94.2249 64.7568 92.4502ZM63.6098 95.6616L64.6843 94.575L64.6964 94.5871V103.593H63.6098V95.6616Z" fill="#333333"/>
<path d="M134.922 73.0405C135.393 73.0284 135.815 73.0043 136.045 72.9801C136.926 72.8956 139.087 72.6904 141.296 72.5093C142.588 72.4007 143.795 72.3282 144.628 72.292L144.64 73.5113C143.964 73.5113 142.914 73.5234 142.286 73.6924C140.681 74.1754 139.606 75.8897 139.606 77.3264C139.606 79.5236 141.658 80.26 143.663 80.3446L143.216 81.6243C140.85 81.5035 138.375 80.248 138.375 77.5799C138.375 75.769 139.449 74.2961 140.427 73.6562C139.208 73.789 136.395 74.0667 135.055 74.3564L134.922 73.0405ZM142.902 74.8635C143.192 75.274 143.638 76.0225 143.88 76.5295L143.131 76.8676C142.842 76.2519 142.54 75.6965 142.166 75.1774L142.902 74.8635ZM144.23 74.3323C144.532 74.7428 145.003 75.4671 145.268 75.9742L144.52 76.3364C144.218 75.7207 143.892 75.1895 143.518 74.6703L144.23 74.3323Z" fill="#333333"/>
<path d="M128.898 72.8812C128.741 74.1247 128.499 75.5372 128.101 76.8773C127.365 79.3401 126.375 80.7164 125.167 80.7164C123.972 80.7164 122.885 79.3763 122.885 77.3602C122.885 74.6679 125.252 72.3379 128.282 72.3379C131.18 72.3379 133.015 74.3661 133.015 76.9014C133.015 79.4367 131.397 81.1752 128.451 81.5857L127.739 80.4629C128.161 80.4146 128.511 80.3542 128.813 80.2939C130.359 79.9317 131.747 78.7968 131.747 76.8531C131.747 74.9335 130.479 73.4486 128.258 73.4486C125.638 73.4486 124.093 75.5855 124.093 77.2515C124.093 78.6399 124.696 79.2798 125.203 79.2798C125.747 79.2798 126.314 78.483 126.882 76.6237C127.232 75.4768 127.497 74.1005 127.618 72.845L128.898 72.8812Z" fill="#333333"/>
<path d="M112.66 72.1105C112.962 72.1467 113.336 72.1588 113.614 72.1588C114.254 72.1588 116.994 72.0864 117.658 72.026C118.081 71.9898 118.298 71.9536 118.431 71.9053L119.083 72.7745C118.841 72.9435 118.576 73.1005 118.334 73.2936C117.706 73.7524 116.233 75.008 115.364 75.7082C115.859 75.5633 116.342 75.515 116.813 75.515C118.841 75.515 120.326 76.7465 120.326 78.4367C120.326 80.3683 118.793 81.7325 116.077 81.7325C114.423 81.7325 113.3 80.9961 113.3 79.8975C113.3 79.0041 114.109 78.1952 115.292 78.1952C116.922 78.1952 117.779 79.318 117.839 80.5856L116.728 80.7546C116.68 79.7888 116.149 79.1127 115.292 79.1127C114.785 79.1127 114.423 79.4266 114.423 79.8009C114.423 80.32 115.014 80.6581 115.859 80.6581C117.912 80.6581 119.095 79.8371 119.095 78.4246C119.095 77.2777 117.984 76.4567 116.475 76.4567C114.531 76.4567 113.396 77.3622 111.972 78.8834L111.103 77.99C112.044 77.2294 113.553 75.9617 114.254 75.3702C114.93 74.8148 116.33 73.6558 116.934 73.1246C116.306 73.1488 114.217 73.2333 113.577 73.2695C113.288 73.2936 112.962 73.3178 112.696 73.354L112.66 72.1105Z" fill="#333333"/>
<path d="M103.219 71.6634C103.158 71.929 103.098 72.2429 103.037 72.5085C102.941 72.9914 102.784 73.8728 102.639 74.5609C102.241 76.2632 101.323 79.4625 100.007 81.5873L98.7637 81.0923C100.164 79.221 101.106 76.0096 101.432 74.5126C101.661 73.4985 101.806 72.4361 101.806 71.5186L103.219 71.6634ZM107.372 72.8828C108.12 73.8848 109.158 76.1424 109.545 77.2773L108.349 77.8447C108.011 76.5529 107.106 74.404 106.249 73.3778L107.372 72.8828ZM98.6309 74.2349C99.0293 74.2591 99.3914 74.247 99.8019 74.2349C100.732 74.2108 103.11 73.9452 103.967 73.9452C105.126 73.9452 106.019 74.4281 106.019 76.1062C106.019 77.5429 105.838 79.4745 105.331 80.5007C104.933 81.3217 104.305 81.5511 103.472 81.5511C103.001 81.5511 102.434 81.4665 102.035 81.382L101.83 80.1144C102.325 80.2593 102.977 80.3679 103.315 80.3679C103.738 80.3679 104.076 80.2593 104.305 79.7884C104.667 79.0278 104.836 77.5067 104.836 76.2511C104.836 75.2008 104.365 75.0317 103.605 75.0317C102.832 75.0317 100.659 75.2853 99.9468 75.3698C99.645 75.4181 99.0776 75.4905 98.7516 75.5388L98.6309 74.2349Z" fill="#333333"/>
<path d="M92.015 80.1514C94.0915 79.8496 95.7938 78.932 95.7817 76.94C95.7817 76.0104 95.0332 74.936 93.6086 74.936C92.0633 74.936 90.7112 75.8052 89.5401 77.0366V75.6845C90.9888 74.3202 92.5221 73.8253 93.8018 73.8253C95.5523 73.8253 97.0252 75.0688 97.0373 76.9642C97.0373 79.4029 95.3713 80.755 92.5824 81.2983L92.015 80.1514ZM89.2866 74.5858C88.8278 74.6341 87.5843 74.8032 86.7392 74.9239L86.6064 73.6804C86.9082 73.6925 87.1618 73.6925 87.5119 73.6683C88.2121 73.6321 89.7333 73.4269 90.2886 73.2458L90.6991 73.7528C90.4818 74.0546 90.1437 74.61 89.9385 74.936L89.4194 76.8555C88.8761 77.6765 87.7775 79.2942 87.0772 80.2721L86.3167 79.2339C87.0772 78.2922 88.6226 76.2036 89.1538 75.3464L89.19 74.8635L89.2866 74.5858ZM89.1538 72.4369C89.1538 72.1351 89.1658 71.797 89.1055 71.459L90.518 71.5073C90.3369 72.3644 89.9506 75.6965 89.9506 77.8334C89.9506 78.8838 89.9506 79.7409 90.0109 80.8396C90.023 81.0569 90.0592 81.419 90.0834 81.6605H88.7674C88.7916 81.4553 88.8036 81.0689 88.8036 80.8758C88.8157 79.7047 88.8278 79.0045 88.8519 77.604C88.8761 76.5296 89.1538 72.9077 89.1538 72.4369Z" fill="#333333"/>
<path d="M74.5581 73.0405C75.0289 73.0284 75.4515 73.0043 75.6809 72.9801C76.5622 72.8956 78.7232 72.6904 80.9325 72.5093C82.2243 72.4007 83.4316 72.3282 84.2646 72.292L84.2767 73.5113C83.6006 73.5113 82.5503 73.5234 81.9225 73.6924C80.3168 74.1754 79.2424 75.8897 79.2424 77.3264C79.2424 79.5236 81.2947 80.26 83.2988 80.3446L82.8521 81.6243C80.4859 81.5035 78.0109 80.248 78.0109 77.5799C78.0109 75.769 79.0854 74.2961 80.0633 73.6562C78.844 73.789 76.031 74.0667 74.6909 74.3564L74.5581 73.0405ZM82.5382 74.8635C82.828 75.274 83.2747 76.0225 83.5161 76.5295L82.7676 76.8676C82.4779 76.2519 82.176 75.6965 81.8018 75.1774L82.5382 74.8635ZM83.8662 74.3323C84.1681 74.7428 84.6389 75.4671 84.9045 75.9742L84.156 76.3364C83.8542 75.7207 83.5282 75.1895 83.1539 74.6703L83.8662 74.3323Z" fill="#333333"/>
<path d="M64.2112 74.4764H71.0082V75.563H64.2112V74.4764ZM64.2112 77.3135H71.0082V78.4001H64.2112V77.3135ZM64.2112 80.1506H71.0082V81.2613H64.2112V80.1506ZM63.4023 71.6514H71.7809V82.0581H70.5736V72.7741H64.5493V82.0581H63.4023V71.6514Z" fill="#333333"/>
<path d="M59.4425 74.0059C59.1286 74.187 58.7906 74.3681 58.3922 74.5733C57.6074 74.9717 56.0018 75.7323 54.8548 76.4808C53.7804 77.1811 53.1043 77.9296 53.1043 78.8109C53.1043 79.7526 54.0097 80.3079 55.8207 80.3079C57.1004 80.3079 58.7181 80.1389 59.7202 79.8854L59.7081 81.2496C58.7423 81.4186 57.4022 81.5514 55.869 81.5514C53.5389 81.5514 51.8125 80.8753 51.8125 78.9558C51.8125 77.5433 52.8025 76.4929 54.2271 75.5512C55.4223 74.7544 57.04 73.9818 57.8006 73.5472C58.199 73.3178 58.5008 73.1367 58.7785 72.9073L59.4425 74.0059ZM53.3457 71.6396C53.9132 73.2091 54.6617 74.6941 55.2291 75.684L54.1667 76.3118C53.5268 75.2736 52.8025 73.6679 52.1505 72.1346L53.3457 71.6396Z" fill="#333333"/>
<path d="M46.7457 72.0732C46.9872 73.5582 47.4943 75.5502 49.3052 77.1921L48.5205 78.2907C47.1924 76.842 46.3111 74.9466 45.5385 72.4113L46.7457 72.0732ZM39.0071 72.701C39.2002 72.7131 39.4538 72.7131 39.6711 72.701C40.7818 72.6527 42.7979 72.3751 43.5585 72.0974L43.9086 73.1598C43.7396 73.2202 43.4619 73.3047 43.2809 73.4012C42.484 73.9928 40.7456 75.9969 40.7456 78.3994C40.7456 79.9809 41.7718 80.5484 42.979 80.5484C45.792 80.5484 46.6975 77.4819 45.7075 72.8097L46.8303 74.7413C47.4701 78.0976 46.8423 81.816 42.9428 81.816C41.0353 81.816 39.5262 80.7536 39.5262 78.665C39.5262 76.5402 40.5524 74.9224 41.651 73.6186C41.0957 73.691 40.2023 73.7997 39.8039 73.8479C39.5624 73.8842 39.3572 73.9083 39.1037 73.9566L39.0071 72.701Z" fill="#333333"/>
<path d="M141.007 51.5298C141.477 51.5177 141.9 51.4935 142.141 51.4694C143.023 51.3849 145.172 51.1797 147.393 50.9865C148.673 50.8778 149.892 50.8054 150.713 50.7812L150.725 52.0006C150.049 52.0006 148.999 52.0127 148.371 52.1696C146.765 52.6525 145.703 54.3789 145.703 55.8035C145.703 58.0008 147.755 58.7372 149.747 58.8338L149.313 60.1135C146.946 59.9928 144.471 58.7252 144.471 56.0691C144.471 54.2461 145.546 52.7853 146.524 52.1455C145.292 52.2783 142.492 52.556 141.139 52.8457L141.007 51.5298Z" fill="#333333"/>
<path d="M132.619 50.1888C132.559 50.6355 132.511 51.1426 132.486 51.5772C132.438 52.9173 132.342 55.7061 132.342 57.3721C132.342 58.6519 133.126 59.0865 134.189 59.0865C136.301 59.0865 137.557 57.8913 138.426 56.6116L139.295 57.6498C138.487 58.8088 136.857 60.3662 134.165 60.3662C132.317 60.3662 131.086 59.5815 131.086 57.5653C131.086 55.851 131.207 52.7483 131.207 51.5772C131.207 51.0822 131.17 50.5872 131.086 50.1768L132.619 50.1888Z" fill="#333333"/>
<path d="M126.208 52.543C125.894 52.7241 125.556 52.9052 125.158 53.1104C124.373 53.5089 122.768 54.2694 121.621 55.018C120.546 55.7182 119.87 56.4667 119.87 57.348C119.87 58.2897 120.776 58.845 122.587 58.845C123.866 58.845 125.484 58.676 126.486 58.4225L126.474 59.7867C125.508 59.9557 124.168 60.0885 122.635 60.0885C120.305 60.0885 118.578 59.4125 118.578 57.4929C118.578 56.0804 119.568 55.03 120.993 54.0883C122.188 53.2915 123.806 52.5189 124.566 52.0843C124.965 51.8549 125.267 51.6738 125.544 51.4444L126.208 52.543ZM120.112 50.1768C120.679 51.7462 121.428 53.2312 121.995 54.2211L120.933 54.8489C120.293 53.8107 119.568 52.205 118.916 50.6717L120.112 50.1768Z" fill="#333333"/>
<path d="M106.325 52.5433H108.715V53.3401H106.325V52.5433ZM106.832 49.501H107.894V51.2636H106.832V49.501ZM106.023 56.6843H109.222V59.9319H106.023V59.0385H108.232V57.5777H106.023V56.6843ZM104.816 50.5392H109.923V52.3743H108.957V51.4447H105.745V52.3743H104.816V50.5392ZM105.492 56.6843H106.458V60.4752H105.492V56.6843ZM108.522 52.5433H108.703L108.872 52.495L109.524 52.7969C108.739 55.0545 106.965 56.5998 105.057 57.4087C104.924 57.1672 104.659 56.7809 104.454 56.5877C106.204 55.9479 107.894 54.4991 108.522 52.7123V52.5433ZM106.711 51.662L107.653 51.9035C107.122 53.1349 106.192 54.2456 105.238 54.97C105.081 54.7889 104.707 54.4388 104.49 54.2939C105.432 53.6782 106.265 52.7123 106.711 51.662ZM105.613 54.2094L106.228 53.5212C107.472 54.3422 109.21 55.5615 110.067 56.3221L109.403 57.131C108.583 56.3342 106.88 55.0786 105.613 54.2094ZM110.019 50.008H115.669V50.9859H110.019V50.008ZM111.468 54.6681V55.646H114.293V54.6681H111.468ZM111.468 56.467V57.469H114.293V56.467H111.468ZM111.468 52.8693V53.8472H114.293V52.8693H111.468ZM110.442 52H115.379V58.3383H110.442V52ZM112.289 50.503L113.532 50.66C113.315 51.3723 113.049 52.1449 112.844 52.652L111.89 52.4588C112.035 51.9035 112.204 51.0825 112.289 50.503ZM111.444 58.4952L112.398 59.0747C111.77 59.6904 110.731 60.3182 109.85 60.6683C109.669 60.4631 109.343 60.1371 109.102 59.9319C109.983 59.6059 110.973 59.0023 111.444 58.4952ZM113.182 59.0868L114.015 58.5435C114.703 58.9902 115.597 59.6542 116.044 60.113L115.15 60.7045C114.74 60.2578 113.87 59.5576 113.182 59.0868Z" fill="#333333"/>
<path d="M98.1276 50.5759C97.1256 52.0005 95.2181 53.6303 93.214 54.7048C93.0691 54.4271 92.7552 54.0166 92.5017 53.7752C94.5782 52.749 96.5582 50.9502 97.4757 49.4531H98.6588C99.9506 51.2399 101.979 52.8214 103.886 53.6303C103.609 53.9201 103.331 54.3064 103.126 54.6565C101.267 53.6907 99.2142 52.0367 98.1276 50.5759ZM95.1215 53.1353H101.182V54.1494H95.1215V53.1353ZM93.6124 55.574H102.691V56.5761H93.6124V55.574ZM93.0329 59.3287H103.331V60.3187H93.0329V59.3287ZM97.5119 53.5337H98.7192V59.8357H97.5119V53.5337ZM94.5058 57.1194L95.4233 56.7451C95.9062 57.385 96.4012 58.2663 96.5702 58.8458L95.5923 59.2804C95.4354 58.7009 94.9646 57.7834 94.5058 57.1194ZM100.747 56.733L101.834 57.1556C101.351 57.9041 100.808 58.7371 100.361 59.2804L99.5039 58.9182C99.9265 58.3266 100.458 57.4091 100.747 56.733Z" fill="#333333"/>
<path d="M82.6741 53.1454H89.5556V54.244H82.6741V53.1454ZM86.0907 56.0428H90.1593V57.1052H86.0907V56.0428ZM85.4871 53.749H86.6823V59.7371L85.4871 59.5922V53.749ZM82.6138 55.1132L83.809 55.246C83.483 57.6847 82.7224 59.5681 81.3582 60.7512C81.165 60.546 80.6821 60.1476 80.4165 59.9786C81.7445 58.9645 82.3723 57.2622 82.6138 55.1132ZM83.4468 56.6586C84.2677 59.0127 86.0666 59.3991 88.3846 59.3991C88.9158 59.3991 90.9681 59.3991 91.6563 59.3749C91.4873 59.6526 91.2941 60.1959 91.2458 60.546H88.3242C85.4871 60.546 83.5554 59.9786 82.5172 56.9845L83.4468 56.6586ZM85.475 49.4873H86.6823V51.5518H85.475V49.4873ZM80.996 50.8032H91.2096V53.6041H90.0385V51.8777H82.1188V53.6041H80.996V50.8032Z" fill="#333333"/>
<path d="M73.511 54.8841H74.6942V59.3631C74.6942 60.0029 74.5372 60.3168 74.0422 60.4738C73.5593 60.6428 72.8108 60.6549 71.7605 60.6549C71.7001 60.3289 71.507 59.8581 71.3379 59.5563C72.1227 59.5804 72.9798 59.5804 73.2213 59.5683C73.4386 59.5563 73.511 59.508 73.511 59.3269V54.8841ZM69.7443 50.1395H77.2778V51.2019H69.7443V50.1395ZM76.8552 50.1395H77.157L77.4106 50.0791L78.2315 50.719C77.2174 51.7331 75.7566 52.8438 74.4889 53.544C74.332 53.3146 73.994 52.9645 73.7887 52.7834C74.8873 52.1918 76.2274 51.1294 76.8552 50.393V50.1395ZM68.5974 54.0269H78.5937V55.1255H68.5974V54.0269ZM71.4104 52.6627L72.0019 51.8055C73.3662 52.3246 75.3823 53.1456 76.4206 53.6527L75.8049 54.6305C74.827 54.1114 72.835 53.2301 71.4104 52.6627ZM78.2074 54.0269H78.4247L78.642 53.9545L79.5595 54.3649C78.968 55.4515 78.2074 56.6467 77.4951 57.4073L76.5292 56.8399C77.0967 56.1879 77.7848 55.1255 78.2074 54.2321V54.0269Z" fill="#333333"/>
<path d="M58.8061 51.156C58.7337 51.5061 58.6854 52.1339 58.6854 52.4598C58.6733 53.2325 58.6854 54.2466 58.7578 55.1883C58.951 57.0837 59.4339 58.3634 60.2549 58.3634C60.8464 58.3634 61.3776 57.0354 61.6553 55.9368L62.6091 57.0596C61.8485 59.1361 61.112 59.8484 60.2307 59.8484C58.9993 59.8484 57.8886 58.6894 57.5506 55.5143C57.4419 54.4398 57.4178 52.991 57.4178 52.2788C57.4178 51.9769 57.4057 51.4578 57.3333 51.1318L58.8061 51.156ZM64.9753 51.4699C66.086 52.8582 66.9794 55.6229 67.1364 57.5787L65.9049 58.0737C65.6997 55.9972 65.0116 53.317 63.7801 51.8683L64.9753 51.4699Z" fill="#333333"/>
<path d="M50.9952 49.8029L52.2508 50.0202C51.7075 53.2195 50.79 57.1552 49.9932 59.6905L48.9066 59.4611C49.6914 56.9138 50.5848 52.8694 50.9952 49.8029ZM47.7597 59.2438C49.3775 59.0989 51.9973 58.7971 54.4601 58.4953L54.5084 59.5577C52.2025 59.8957 49.7276 60.2096 48.0132 60.439L47.7597 59.2438ZM52.3112 55.3926L53.3132 55.0304C54.267 56.6844 55.2569 58.8575 55.6191 60.2459L54.4963 60.6805C54.1945 59.3042 53.2528 57.0828 52.3112 55.3926ZM44.3673 51.8794H48.9911V52.9539H44.3673V51.8794ZM46.2023 49.4648H47.3251V59.3645C47.3251 60.0044 47.1802 60.3062 46.806 60.4873C46.4076 60.6684 45.816 60.6926 44.8985 60.6926C44.8381 60.4028 44.7053 59.9199 44.5484 59.6181C45.152 59.6422 45.7677 59.6301 45.9488 59.6301C46.142 59.6181 46.2023 59.5577 46.2023 59.3645V49.4648ZM44.1982 55.7306C45.4055 55.5012 47.2889 55.0908 49.0636 54.6924L49.1481 55.7065C47.5062 56.117 45.7556 56.5516 44.4518 56.8534L44.1982 55.7306Z" fill="#333333"/>
<path d="M35.4814 55.0653C36.7732 57.6127 39.5137 59.1218 43.4374 59.6167C43.1839 59.8823 42.87 60.3894 42.701 60.7154C38.6566 60.1117 35.9523 58.4215 34.419 55.4396L35.4814 55.0653ZM33.2238 54.015H41.0349V55.1257H33.2238V54.015ZM32.6564 51.2141H42.9183V52.3489H32.6564V51.2141ZM37.1837 49.4756H38.3668V54.522H37.1837V49.4756ZM40.6727 54.015H40.9263L41.1315 53.9667L41.9283 54.4254C40.4433 58.2404 36.8939 59.9669 32.8133 60.6792C32.7047 60.3894 32.4029 59.8461 32.1855 59.5926C36.1696 59.0131 39.4896 57.5281 40.6727 54.2202V54.015Z" fill="#333333"/>
<path d="M149.365 38.9514C148.605 38.0218 147.567 36.9835 146.721 36.2712L147.711 35.4141C148.581 36.1143 149.703 37.2491 150.392 38.0701L149.365 38.9514Z" fill="#333333"/>
<path d="M139.605 28.7984C139.545 29.064 139.484 29.3779 139.436 29.6435C139.339 30.1264 139.182 31.0077 139.026 31.6959C138.627 33.3981 137.722 36.5974 136.394 38.7222L135.15 38.2273C136.551 36.356 137.492 33.1446 137.83 31.6476C138.048 30.6335 138.205 29.5711 138.192 28.6535L139.605 28.7984ZM143.758 30.1143C144.507 31.1284 145.545 33.3378 145.931 34.4726L144.736 35.028C144.398 33.7482 143.492 31.6355 142.635 30.6093L143.758 30.1143ZM135.017 31.3699C135.428 31.394 135.778 31.382 136.188 31.3699C137.118 31.3458 139.508 31.0802 140.354 31.0802C141.525 31.0802 142.418 31.5631 142.418 33.2412C142.418 34.6778 142.225 36.6095 141.718 37.6357C141.331 38.4566 140.704 38.686 139.859 38.686C139.4 38.686 138.82 38.6015 138.434 38.517L138.229 37.2494C138.712 37.3942 139.376 37.5029 139.702 37.5029C140.136 37.5029 140.474 37.3942 140.692 36.9234C141.054 36.1628 141.235 34.6416 141.235 33.3861C141.235 32.3357 140.764 32.1667 140.003 32.1667C139.231 32.1667 137.046 32.4323 136.345 32.5047C136.031 32.553 135.476 32.6255 135.138 32.6738L135.017 31.3699ZM143.746 28.4C144.048 28.8346 144.482 29.5831 144.724 30.054L143.927 30.4041C143.686 29.9091 143.287 29.1847 142.961 28.726L143.746 28.4ZM145.122 27.8809C145.436 28.3396 145.895 29.1002 146.112 29.5348L145.328 29.8729C145.074 29.3658 144.676 28.6656 144.338 28.2068L145.122 27.8809Z" fill="#333333"/>
<path d="M124.369 31.0795H126.76V31.8763H124.369V31.0795ZM124.876 28.0371H125.939V29.7997H124.876V28.0371ZM124.068 35.2204H127.267V38.468H124.068V37.5746H126.277V36.1138H124.068V35.2204ZM122.86 29.0754H127.967V30.9104H127.001V29.9808H123.79V30.9104H122.86V29.0754ZM123.536 35.2204H124.502V39.0113H123.536V35.2204ZM126.567 31.0795H126.748L126.917 31.0312L127.569 31.333C126.784 33.5906 125.009 35.1359 123.102 35.9448C122.969 35.7033 122.703 35.317 122.498 35.1238C124.249 34.484 125.939 33.0353 126.567 31.2485V31.0795ZM124.756 30.1981L125.697 30.4396C125.166 31.671 124.237 32.7817 123.283 33.5061C123.126 33.325 122.752 32.9749 122.534 32.83C123.476 32.2143 124.309 31.2485 124.756 30.1981ZM123.657 32.7455L124.273 32.0574C125.516 32.8783 127.255 34.0977 128.112 34.8582L127.448 35.6671C126.627 34.8703 124.925 33.6147 123.657 32.7455ZM128.064 28.5442H133.714V29.5221H128.064V28.5442ZM129.512 33.2043V34.1822H132.337V33.2043H129.512ZM129.512 35.0031V36.0052H132.337V35.0031H129.512ZM129.512 31.4054V32.3833H132.337V31.4054H129.512ZM128.486 30.5362H133.424V36.8744H128.486V30.5362ZM130.333 29.0392L131.577 29.1961C131.359 29.9084 131.094 30.6811 130.889 31.1881L129.935 30.9949C130.08 30.4396 130.249 29.6186 130.333 29.0392ZM129.488 37.0314L130.442 37.6108C129.814 38.2266 128.776 38.8543 127.895 39.2045C127.714 38.9992 127.388 38.6733 127.146 38.468C128.027 38.142 129.017 37.5384 129.488 37.0314ZM131.227 37.6229L132.06 37.0796C132.748 37.5263 133.641 38.1903 134.088 38.6491L133.195 39.2407C132.784 38.794 131.915 38.0938 131.227 37.6229Z" fill="#333333"/>
<path d="M116.172 29.1111C115.17 30.5356 113.262 32.1655 111.258 33.24C111.113 32.9623 110.799 32.5518 110.546 32.3103C112.622 31.2842 114.602 29.4853 115.52 27.9883H116.703C117.995 29.7751 120.023 31.3566 121.931 32.1655C121.653 32.4552 121.375 32.8415 121.17 33.1917C119.311 32.2258 117.258 30.5719 116.172 29.1111ZM113.166 31.6705H119.226V32.6846H113.166V31.6705ZM111.657 34.1092H120.735V35.1112H111.657V34.1092ZM111.077 37.8638H121.375V38.8538H111.077V37.8638ZM115.556 32.0689H116.763V38.3709H115.556V32.0689ZM112.55 35.6545L113.468 35.2803C113.95 35.9201 114.445 36.8014 114.614 37.3809L113.637 37.8155C113.48 37.2361 113.009 36.3185 112.55 35.6545ZM118.792 35.2682L119.878 35.6907C119.395 36.4392 118.852 37.2723 118.405 37.8155L117.548 37.4534C117.971 36.8618 118.502 35.9443 118.792 35.2682Z" fill="#333333"/>
<path d="M105.053 29.9583C104.896 31.2018 104.654 32.6143 104.256 33.9544C103.519 36.4173 102.529 37.7936 101.322 37.7936C100.127 37.7936 99.0403 36.4535 99.0403 34.4373C99.0403 31.7451 101.407 29.415 104.437 29.415C107.334 29.415 109.169 31.4433 109.169 33.9786C109.169 36.5138 107.552 38.2523 104.606 38.6628L103.894 37.54C104.316 37.4917 104.666 37.4314 104.968 37.371C106.513 37.0088 107.902 35.874 107.902 33.9303C107.902 32.0107 106.634 30.5257 104.413 30.5257C101.793 30.5257 100.248 32.6626 100.248 34.3287C100.248 35.717 100.851 36.3569 101.358 36.3569C101.902 36.3569 102.469 35.5601 103.036 33.7009C103.386 32.554 103.652 31.1777 103.773 29.9221L105.053 29.9583Z" fill="#333333"/>
<path d="M88.1991 35.4131H96.0947V39.2401H94.9358V36.1736H89.3098V39.2522H88.1991V35.4131ZM88.7786 36.7773H95.3583V37.4775H88.7786V36.7773ZM88.7786 38.1174H95.3583V38.878H88.7786V38.1174ZM91.4467 27.9883H92.5936V34.6283H91.4467V27.9883ZM87.9335 28.7972H96.0344V32.2258H87.8007V31.5135H94.8995V29.5095H87.9335V28.7972ZM86.678 30.0889H97.471V30.9099H86.678V30.0889ZM87.4989 32.7933H96.6259V33.5176H87.4989V32.7933ZM86.6538 34.1092H97.471V34.9301H86.6538V34.1092Z" fill="#333333"/>
<path d="M74.7017 29.9574H85.3378V31.0681H74.7017V29.9574ZM80.4725 30.9353C81.3659 33.7241 83.2009 36.2473 85.7 37.346C85.4223 37.5874 85.0481 38.0341 84.8549 38.3601C82.2955 37.0683 80.5691 34.3519 79.567 31.2009L80.4725 30.9353ZM83.877 31.4423L84.8791 32.1546C84.0702 33.0722 82.9957 34.1225 82.1747 34.7986L81.3538 34.1708C82.1627 33.4827 83.2492 32.3357 83.877 31.4423ZM81.5349 28.738L82.223 28.0137C82.9595 28.3759 83.9494 28.9312 84.4686 29.3296L83.7442 30.1385C83.2734 29.728 82.2955 29.1244 81.5349 28.738ZM75.2812 32.2392L76.1504 31.6476C76.8627 32.2754 77.7199 33.1688 78.0941 33.7965L77.1645 34.4726C76.8144 33.8448 75.9935 32.9032 75.2812 32.2392ZM79.3859 28.0378H80.557V37.7564C80.557 38.4929 80.388 38.8188 79.9413 39.012C79.4946 39.2172 78.7461 39.2414 77.6716 39.2414C77.6112 38.9154 77.4422 38.3842 77.2611 38.0341C78.0579 38.0703 78.8306 38.0582 79.072 38.0582C79.3014 38.0462 79.3859 37.9858 79.3859 37.7564V28.0378ZM74.3516 37.0321C75.3657 36.525 76.9351 35.6437 78.408 34.7986L78.7823 35.8248C77.5146 36.6216 76.1263 37.4546 75.0639 38.0703L74.3516 37.0321Z" fill="#333333"/>
<path d="M62.8702 31.6959H66.4558V32.5772H62.8702V31.6959ZM62.9184 28.4241H66.4196V29.3055H62.9184V28.4241ZM62.8702 33.3257H66.4558V34.207H62.8702V33.3257ZM62.3027 30.0178H66.8542V30.9474H62.3027V30.0178ZM63.3772 34.9676H66.4679V38.5653H63.3772V37.6357H65.4779V35.8972H63.3772V34.9676ZM62.8581 34.9676H63.836V39.0844H62.8581V34.9676ZM67.1319 28.7622H73.2407V29.6073H67.1319V28.7622ZM67.4457 30.2109H73.0596V31.0077H67.4457V30.2109ZM66.8421 31.6597H73.4942V32.5048H66.8421V31.6597ZM69.6068 28.0137H70.6933V32.372H69.6068V28.0137ZM67.7114 33.1084H72.3473V33.9414H68.7738V39.2052H67.7114V33.1084ZM71.7195 33.1084H72.794V38.0945C72.794 38.6136 72.6853 38.8792 72.3352 39.0361C71.9731 39.181 71.4419 39.181 70.6813 39.181C70.645 38.9154 70.5002 38.517 70.3674 38.2635C70.8744 38.2756 71.3694 38.2756 71.5264 38.2635C71.6833 38.2635 71.7195 38.2152 71.7195 38.0824V33.1084ZM68.1822 34.6658H72.2628V35.4505H68.1822V34.6658ZM68.1822 36.187H72.2628V36.9596H68.1822V36.187Z" fill="#333333"/>
<path d="M55.3249 28.653C55.2404 28.9427 55.1438 29.4377 55.0955 29.6912C54.9144 30.5363 54.6367 31.9488 54.3107 33.1682C53.8761 34.8705 53.0672 37.3454 52.4153 38.7217L51.0873 38.275C51.8117 37.0436 52.693 34.5566 53.1397 32.8543C53.4415 31.7315 53.7433 30.2949 53.8278 29.6309C53.8761 29.2445 53.9003 28.7978 53.8641 28.5322L55.3249 28.653ZM52.4757 30.5725C53.8641 30.5725 55.6025 30.3552 57.1358 29.981V31.1762C55.6388 31.5142 53.7795 31.7194 52.4515 31.7194C51.8962 31.7194 51.4616 31.6953 51.0269 31.6712L50.9907 30.4759C51.5823 30.5484 52.0048 30.5725 52.4757 30.5725ZM56.2786 32.311C56.9305 32.2507 57.7636 32.2024 58.5362 32.2024C59.2365 32.2024 59.9608 32.2386 60.6369 32.311L60.6128 33.4579C59.997 33.3855 59.2727 33.3131 58.5604 33.3131C57.7756 33.3131 57.0271 33.3493 56.2786 33.4338V32.311ZM56.7012 35.293C56.6046 35.6673 56.5321 36.0536 56.5321 36.3433C56.5321 36.8987 56.8702 37.3816 58.4034 37.3816C59.2002 37.3816 60.0333 37.2971 60.8301 37.1401L60.7818 38.3595C60.1178 38.4561 59.3089 38.5285 58.3914 38.5285C56.4356 38.5285 55.3732 37.9007 55.3732 36.6934C55.3732 36.1864 55.4697 35.6793 55.5663 35.1843L56.7012 35.293Z" fill="#333333"/>
<path d="M40.6318 29.6902C40.5594 30.0403 40.5111 30.6681 40.5111 30.994C40.499 31.7667 40.5111 32.7808 40.5835 33.7225C40.7767 35.6179 41.2596 36.8976 42.0806 36.8976C42.6721 36.8976 43.2033 35.5696 43.481 34.471L44.4348 35.5938C43.6742 37.6703 42.9377 38.3826 42.0564 38.3826C40.825 38.3826 39.7143 37.2236 39.3762 34.0484C39.2676 32.974 39.2434 31.5252 39.2434 30.8129C39.2434 30.5111 39.2314 29.992 39.1589 29.666L40.6318 29.6902ZM46.801 30.0041C47.9117 31.3924 48.8051 34.1571 48.9621 36.1129L47.7306 36.6079C47.5254 34.5314 46.8372 31.8512 45.6058 30.4025L46.801 30.0041Z" fill="#333333"/>
<path d="M27.3159 28.5938H28.4629V32.1432C28.4629 34.2076 28.2818 37.25 27.0141 39.2178C26.7968 39.0367 26.2897 38.747 26 38.6263C27.2194 36.767 27.3159 34.0627 27.3159 32.1432V28.5938ZM28.0162 28.5938H36.4068V32.0104H28.0162V30.96H35.2598V29.6441H28.0162V28.5938ZM29.6098 35.5718H36.0204V36.5014H29.6098V35.5718ZM29.6098 37.7932H36.0204V38.8073H29.6098V37.7932ZM32.1933 32.0586H33.304V38.3244H32.1933V32.0586ZM29.0786 33.3625H36.5637V39.2178H35.4409V34.3646H30.153V39.2178H29.0786V33.3625Z" fill="#333333"/>
</svg>
