<svg width="155" height="174" viewBox="0 0 155 174" fill="none" xmlns="http://www.w3.org/2000/svg">
<g clip-path="url(#clip0_2_5602)">
<path d="M8.43658 116.509C8.9079 116.26 10.5732 116.447 9.83482 115.379C8.86862 114.328 8.91576 112.7 9.11999 111.375C9.56774 110.121 11.0131 111.087 11.9636 110.978C14.1159 111.765 15.9619 113.33 17.8943 114.826C25.6239 109.794 33.6755 104.902 41.3266 99.4096C39.3863 97.2984 35.71 95.3198 34.8538 92.1726C33.2199 89.3603 31.4996 86.4702 30.5648 83.323C26.1423 79.5837 20.2666 78.5243 18.3342 72.7051C17.9414 68.6931 16.2447 63.092 20.6358 60.8719C23.4637 59.7033 27.0378 60.4434 29.3708 62.4611C32.1516 54.8657 34.9245 47.2002 40.6589 40.9136C44.7357 34.9074 51.0121 28.2936 58.2546 26.6032C58.9616 26.424 59.4408 26.72 59.6921 27.1796C60.352 28.3949 59.1816 29.4388 59.5979 30.5917C63.6198 25.902 68.8042 24.1181 74.1458 21.9447C76.0389 21.7343 78.097 21.8278 78.9218 23.5027C79.1104 24.9672 77.7121 26.4785 77.5864 27.8807C80.0844 25.9488 82.8259 24.7024 85.7323 23.6117C86.8399 23.7364 88.1046 23.7753 88.6074 24.9205C89.2672 26.3694 88.2696 27.7171 88.2146 29.1116C91.0346 27.5535 93.7604 25.3801 97.3267 25.8943C99.4947 27.5302 98.7485 29.9529 98.56 32.36C98.5835 33.4429 96.549 34.588 98.1436 35.4683C106.792 41.0071 110.846 49.8644 111.741 59.3606C112.15 59.8903 111.615 60.9108 112.252 61.3549C114.098 58.6673 117.24 57.6468 120.413 58.0129C122.165 58.7374 122.911 60.4902 122.872 62.2741C123.265 70.0798 117.546 76.9896 111.066 81.5157C110.194 81.539 110.696 82.692 110.146 83.0893C109.754 87.1246 106.407 90.1705 104.821 93.7773C104.121 94.494 103.257 94.5953 102.637 95.5457C111.003 98.7007 119.447 101.692 126.611 107.979V108.446C128.669 108.072 130.389 107.013 132.77 107.332C134.16 105.821 134.663 103.172 137.279 103.328C143.61 103.367 148.896 106.919 154.332 109.778C155.613 110.51 154.694 112.014 154.552 113.027C149.737 121.456 144.6 129.814 140.02 138.391C136.524 141.671 133.508 136.966 129.871 137.153C126.674 135.314 122.487 135.75 120.123 132.338C121.018 129.682 122.715 127.384 123.767 124.798C122.33 123.987 122.998 121.798 121.018 121.627C116.871 119.898 112.189 119.267 107.664 118.472C107.649 121.495 106.674 124.385 106.887 127.322C106.093 131.061 106.242 135.003 105.213 138.828C104.53 140.471 104.813 142.559 103.894 144.133C103.305 150.575 99.5419 156.262 97.7666 162.432C98.5678 163.024 99.9032 162.447 100.775 162.806C105.363 162.899 109.424 164.247 113.336 165.984C114.373 166.568 114.71 167.721 114.341 168.742C110.704 172.644 105.7 171.943 100.649 172.411C95.5907 172.722 90.8304 171.936 85.7559 171.312C84.8211 172.115 84.7033 174.132 82.9594 173.875C79.8645 173.501 76.9423 173.751 73.4546 173.392C72.3941 171.717 72.0328 169.489 72.3862 167.386C75.1042 164.901 73.6824 160.998 73.1561 158.077C73.431 156.129 73.3839 153.738 71.7814 152.546C68.9299 156.425 66.1884 161.692 68.4115 166.428C69.0242 169.349 66.8483 171.585 65.238 173.797L52.8973 174.015C51.3184 174.218 52.5596 172.707 52.3868 172.021C51.7348 170.876 50.8079 172.302 49.8574 172.099C48.6791 172.442 47.1002 172.8 45.7648 173.151C40.0854 173.945 33.4556 174.841 29.418 170.705C29.2452 169.778 28.9074 169.014 29.528 168.227C33.7305 164.924 38.7736 163.616 43.9738 162.525L44.5943 162.042C40.7374 154.883 38.6793 146.742 37.3361 138.734C35.875 132.977 35.6786 127.018 35.8829 121.284C33.2042 122.063 30.1407 122.85 27.5563 124.167C27.4934 124.868 27.3363 124.946 26.9514 125.577C26.5508 125.358 25.8281 124.603 25.1997 125.164C24.1078 126.052 24.1314 127.283 23.5187 128.311C20.8322 132.338 17.5173 137.005 12.9612 138.695C11.5473 139.201 10.6596 138.15 9.92908 137.238C9.83482 136.545 10.0548 135.766 9.7327 135.229C8.71937 135.953 7.7139 136.989 6.27639 136.413C4.76032 135.914 5.12952 134.2 5.26306 133.039C5.56941 132.642 5.71866 132.097 5.86791 131.629C4.68177 131.668 2.79651 132.338 1.90101 130.819C2.27021 129.417 2.6394 128.085 3.56632 126.901C2.52943 126.465 0.879825 127.057 0.377088 125.608C-0.683372 124.089 0.714864 122.733 1.24117 121.401C3.48777 119.165 5.84435 118.09 8.42087 116.54L8.43658 116.509Z" fill="black"/>
<path d="M5.17662 119.703C7.21113 118.713 9.00213 117.186 11.453 117.038C12.4663 116.314 11.0288 115.504 10.7774 114.74C10.5182 113.821 9.95262 112.988 10.2511 112.123C12.5449 112.053 14.6343 113.619 16.4803 115.34C19.0804 118.744 21.5941 122.149 23.3301 125.966C21.8298 130.266 18.0357 134.177 14.2102 137.082C13.4246 137.495 12.5606 137.674 11.6808 137.316C10.2275 135.891 12.1757 134.278 12.5449 132.798C11.6572 132.05 10.9738 133.538 10.0312 133.647C9.01784 134.371 8.09877 135.797 6.73981 135.298C5.67935 133.701 7.15614 132.268 7.761 130.936C8.22446 130.305 9.16709 129.884 8.98642 129.043C7.08545 129.098 5.55367 131.318 3.32278 130.609C3.43275 128.054 6.01713 126.737 6.84193 124.618C5.09807 124.517 3.08712 126.667 1.46894 125.086C1.09974 122.546 3.52701 121.23 5.16091 119.71L5.17662 119.703Z" fill="#FFE3CA"/>
<path d="M9.22205 35.6708C10.7931 35.0788 11.9321 36.5979 13.3539 36.7848C14.328 38.1481 17.635 37.2756 16.7395 39.7762C14.2573 38.4597 11.7122 37.4548 9.23776 36.2863L9.22205 35.663V35.6708Z" fill="black"/>
<path d="M20.738 114.584C21.9477 115.784 22.2226 117.716 23.6758 118.986L25.8282 123.722C25.2783 123.972 24.9719 124.603 24.2571 124.392C22.851 121.416 20.5102 118.853 18.8684 116.041C19.0098 115.184 20.1174 115.075 20.738 114.592V114.584Z" fill="white"/>
<path d="M20.9735 62.2508C23.0866 60.9498 25.9459 61.6353 27.9411 62.6558C29.9442 63.8322 28.4125 66.5899 28.6874 68.3582C29.2451 72.596 27.8233 76.6703 29.5593 80.7133C25.4903 78.9761 20.3687 76.1172 19.4103 71.4275C19.426 68.179 18.0906 64.5021 20.9735 62.243V62.2508Z" fill="#FFE3CA"/>
<path d="M22.2933 65.0007C24.3356 64.3931 26.1031 65.733 27.3992 67.1664C27.4856 67.626 27.3363 67.7896 26.9436 67.9532C25.8124 66.7457 24.6891 65.8576 23.1102 65.9044C21.3899 67.0417 23.0866 68.6153 23.0317 69.9319C22.9845 71.4821 25.0583 72.2689 24.6891 73.749C22.0576 72.6662 21.8377 69.5034 21.0757 67.0495C20.9814 66.2004 21.7591 65.6395 22.3011 65.0007H22.2933Z" fill="black"/>
<path d="M22.3011 113.611C29.2609 109.373 35.7179 103.99 42.9291 100.445C45.0971 101.925 49.3625 101.801 49.1976 105.361C51.1849 109.864 53.8086 114.584 58.616 117.459C61.5225 116.516 61.8445 112.793 64.3504 111.398C64.806 114.631 66.1335 117.693 66.432 120.778C64.586 127.415 62.4965 133.982 60.1714 140.471L60.5091 141.546C52.5203 141.632 45.9298 140.206 38.6087 138.188C37.4539 131.878 36.3228 126.495 37.3047 119.96C36.9748 119.43 36.1107 119.687 35.7179 119.85C32.9764 121.175 29.9836 121.962 27.0771 123.052C26.0795 120.684 25.239 118.152 23.3066 116.197C22.9767 115.356 22.796 114.358 22.309 113.595L22.3011 113.611Z" fill="white"/>
<path d="M22.8038 18.3843C25.0425 19.6307 26.4329 22.069 28.1375 23.9542C28.0668 24.4995 28.3967 25.263 27.8547 25.668C26.7 23.0739 23.8093 21.2199 22.4974 18.7115L22.8116 18.3921L22.8038 18.3843Z" fill="black"/>
<path d="M32.2223 167.643C36.3856 165.968 40.4625 164.223 44.9478 163.234C51.9861 163.101 59.2758 163.802 66.1649 164.137C67.1389 165.501 67.7359 167.495 67.0525 169.217C66.3613 170.323 65.4344 171.351 64.9002 172.535C60.8704 172.582 57.312 173.003 53.5101 172.574C53.4158 171.725 54.3427 170.611 53.298 169.949C52.3475 169.98 51.8133 170.767 50.9414 170.946C44.885 172.753 36.5349 174.483 30.8476 170.938C29.1588 169.676 31.0283 168.149 32.2066 167.643H32.2223Z" fill="#231815"/>
<path d="M31.099 61.9466C37.9802 62.0478 43.8481 62.6399 50.5957 63.676C50.8078 66.535 51.2634 69.3082 54.217 70.8429C57.0213 72.5411 60.6819 73.8187 64.0518 72.2451C68.2072 70.3365 69.1499 65.8962 69.3855 61.8687C71.098 60.6534 74.0908 59.9445 76.1725 61.0429C77.3036 62.0946 76.1489 63.7539 76.0939 65.0704C77.1936 68.7551 79.8016 72.5411 83.6978 73.6629C87.1698 73.4058 90.634 72.2919 92.3072 69.0667C93.2891 66.8699 94.1217 64.6809 93.9096 62.0556C99.8246 60.9494 104.883 60.9494 110.484 60.0068C111.765 68.7162 110.704 79.1939 107.224 87.5059C105.221 90.3493 104.019 93.3329 100.893 95.2805C94.326 99.121 88.0025 103.569 80.0294 104.27C67.0211 106.755 53.3922 105.314 43.0547 98.5835L42.5834 98.5991C39.6062 96.1374 36.2363 93.7614 35.4586 90.1468C32.7721 86.205 31.4132 81.6789 30.1406 77.1529C30.6669 71.9491 29.8578 66.6362 31.1068 61.9544L31.099 61.9466Z" fill="#FFE3CA"/>
<path d="M52.4731 30.6459C54.3505 29.5085 56.1415 28.2154 58.4353 27.9895C58.0896 30.4745 57.6733 33.5828 55.7409 35.8107C55.7488 36.4339 56.1572 36.9559 56.715 37.174C57.7361 36.6754 57.4691 35.4446 58.0896 34.6578C61.7816 29.1268 67.5631 25.4655 73.6902 23.3466C75.0334 23.3076 76.8401 22.7857 77.822 24.1489C77.0051 27.0391 74.8449 29.5007 73.8708 32.3208C74.4364 33.1543 74.8135 31.9079 75.4419 31.9624C78.2934 28.3166 82.276 25.4109 86.6985 24.9669C87.3348 24.9513 87.5861 25.7147 87.8296 26.1744C87.4055 28.8931 85.7873 31.0354 83.847 32.9518C83.6192 33.4192 84.1769 33.7152 84.499 33.8632C86.2272 33.1154 87.2876 30.9887 89.1729 30.0071C91.4431 28.7763 94.0981 26.8365 96.871 27.2961C98.5678 29.2592 97.2795 32.0793 96.5333 34.1203C95.355 34.5409 95.5435 36.0055 95.1665 36.9481C95.732 37.6258 95.8656 36.2314 96.4312 36.9091L97.0517 36.2704C104.978 41.2171 109.416 49.6694 110.304 58.6202C105.103 59.4771 99.2433 59.3447 93.8939 60.669C93.0377 57.2102 89.7463 54.99 86.3371 54.398C82.3781 54.211 79.1024 56.7116 77.5864 60.0847C75.2612 58.4488 71.5457 58.7994 69.2048 60.186C68.1286 57.5062 65.2301 54.9666 62.2843 54.2032C58.3331 54.3201 54.0049 55.6911 51.9468 59.4693C50.8549 60.2016 51.7819 63.2631 49.4646 62.0245C43.5967 61.4246 37.336 60.7625 31.8688 60.2405C35.2073 48.9137 42.7483 38.2335 52.4888 30.6693L52.4731 30.6459Z" fill="#FFE3CA"/>
<path d="M38.7893 139.731C42.607 140.853 46.9666 141.414 51.0199 142.302C54.5784 142.427 58.2311 142.855 61.6324 142.754C64.6881 145.371 67.7438 147.755 70.9487 150.053C71.3494 150.349 71.8992 150.1 72.3784 150.162C74.46 147.389 76.6988 144.46 78.7019 141.764C86.5257 141.453 95.5357 140.946 103.815 139.451C102.629 147.459 99.6912 154.898 96.1956 162.128C94.6402 163.413 92.5586 162.47 90.8304 162.907C85.5438 163.53 80.6264 162.985 75.4734 162.447C73.8316 159.245 76.1646 153.45 71.9307 151.253C69.252 151.876 68.8435 154.984 67.6103 156.955L66.1413 162.572C59.3465 162.93 52.6853 162.128 46.0319 161.637C43.4239 157.843 41.7507 153.177 41.0359 148.939C39.7948 146.033 39.6455 142.715 38.7972 139.716L38.7893 139.731Z" fill="#175296"/>
<path d="M43.911 5.51514L44.3901 5.65536C45.3956 8.41306 46.4796 11.3967 46.621 14.4114C44.5944 12.0744 44.5315 8.67013 43.4475 5.84232L43.9188 5.51514H43.911Z" fill="black"/>
<path d="M50.5879 103.928C55.2854 105.564 60.2892 106.498 65.5129 106.724C63.3606 109.809 61.2004 112.816 58.7338 115.909L58.0976 115.776C54.3977 112.559 52.2611 108.758 50.4465 104.707L50.5879 103.928Z" fill="white"/>
<path d="M55.6859 57.483C58.4352 56.3924 61.5538 54.367 64.3738 56.6028C66.1413 57.7869 67.4374 59.4539 67.948 61.2924C68.1679 64.4552 67.6023 67.8828 64.9551 70.0563C61.6716 72.1674 57.5397 71.2871 54.4998 69.4409C52.3317 67.727 51.884 65.0317 52.3081 62.383C52.8266 60.4355 54.4526 58.9086 55.6938 57.483H55.6859Z" fill="white"/>
<path d="M58.2467 42.5414C60.2106 41.7857 62.6614 41.552 64.1146 43.1412C65.6464 44.5668 66.7069 46.3897 66.7461 48.3216C66.4476 49.1785 65.4893 48.7501 65.0101 48.532C64.0282 47.0129 63.7533 45.0108 61.9151 43.9825C59.6057 43.1256 58.2232 45.486 56.7464 46.6156C56.3693 47.5582 56.1572 48.6488 55.3796 49.4434C54.7433 49.3811 54.0285 49.1006 53.9342 48.3995C54.6019 46.0547 55.898 43.8501 58.2467 42.5414Z" fill="black"/>
<path d="M60.0691 87.2256C60.4619 86.9063 61.0982 87.1166 61.6481 87.0231C62.7792 88.0748 64.4367 88.0202 65.9449 88.1293C71.7264 88.5733 76.7773 87.9579 82.3859 87.4749C83.1793 87.4516 84.2555 86.026 84.7582 87.4048C83.902 92.2269 80.5792 96.2778 76.1253 98.8095C74.2479 99.721 71.7185 99.9469 69.6526 99.4717C65.1044 97.5943 62.0879 92.8891 60.8939 88.4331C60.4933 88.1371 59.4564 87.9345 60.077 87.2179L60.0691 87.2256Z" fill="black"/>
<path d="M61.1532 61.9624C61.7895 62.1727 62.6535 61.9936 62.9128 62.8349C63.0149 63.9177 62.6378 64.7746 61.5302 65.0473C60.8154 64.9928 60.1006 64.7045 59.7707 64.019C59.3543 63.0998 60.3677 62.2974 61.1532 61.9624Z" fill="black"/>
<path d="M65.5836 134.434C69.0713 130.842 72.7162 126.94 76.1332 123.738C76.8009 125.654 76.8481 127.976 77.5158 129.884C73.4939 134.574 69.6212 138.874 65.2851 143.416C64.0047 142.761 62.4886 141.795 61.9073 140.424C62.0173 138.025 63.6355 135.883 65.5836 134.434Z" fill="#FDD000"/>
<path d="M62.4807 89.0094C68.0344 89.7728 73.8001 89.5158 79.4088 89.1185C80.5871 88.6978 81.9382 89.1964 83.195 88.542C82.111 93.6056 77.1229 97.7032 72.0013 98.4822C68.2858 98.747 65.8506 95.2649 63.9811 92.6863C63.714 91.3776 62.5121 90.4116 62.4886 89.0172L62.4807 89.0094Z" fill="#B44E26"/>
<path d="M66.3534 125.273C67.461 125.086 66.1806 124.353 66.8012 123.863C67.7281 122.671 67.461 121.058 68.1444 119.796C70.8466 120.334 72.944 118.487 75.4105 119.266C76.8088 121.775 74.46 123.395 72.999 125.218C69.8176 128.334 66.864 131.209 63.8397 134.169C64.7274 131.045 65.7093 128.537 66.3534 125.265V125.273Z" fill="white"/>
<path d="M73.6823 135.89H73.9965C75.5518 134.597 76.4631 132.712 78.0184 131.427C80.862 135.439 75.9446 138.453 74.4207 141.756C72.7082 143.353 71.4121 145.714 69.464 147.171L66.0941 144.639C68.6549 142.162 71.2707 138.446 73.6744 135.89H73.6823Z" fill="white"/>
<path d="M67.571 106.662C70.933 108.571 73.9966 111.733 76.4317 114.6C75.7483 116.166 75.4812 118.729 73.0146 117.958C71.4436 118.55 69.5426 118.293 67.8066 118.425C66.8011 115.59 66.2827 113.206 65.5914 110.285C66.0392 109.03 66.3298 107.706 67.5788 106.662H67.571Z" fill="#FDD000"/>
<path d="M74.4679 143.758C75.9211 141.39 77.6179 139.1 79.236 136.802C80.5164 137.69 78.9532 138.671 78.8197 139.598C76.5888 142.683 74.028 145.472 72.0406 148.783C71.6479 148.947 71.1687 148.58 70.7681 148.354C71.7657 146.625 72.9126 144.888 74.4757 143.751L74.4679 143.758Z" fill="#FDD000"/>
<path d="M74.8371 106.132C75.6697 108.197 79.9037 110.238 77.0287 112.879C74.6171 111.095 72.5983 108.68 70.2574 106.428C71.7578 106.304 73.4231 106.483 74.8371 106.132Z" fill="white"/>
<path d="M75.819 163.997C82.7081 164.558 89.3615 164.667 96.392 164.301L96.6983 163.826C101.694 164.371 107.704 164.262 112.26 166.763C112.817 167.059 113.383 167.581 113.399 168.274C110.995 170.743 107.342 170.237 104.114 170.876C97.1618 171.476 91.3803 170.798 85.1039 169.754C84.4127 170.782 84.122 172.184 82.9516 172.761C80.108 172.847 76.9266 172.325 74.083 172.41C72.4413 169.52 74.0437 166.373 75.819 163.997Z" fill="#231815"/>
<path d="M71.4908 0.0387675L71.8128 0.334792C71.7893 3.20155 71.4515 5.92031 71.6557 8.38977C71.1923 8.79486 70.4696 8.27292 70.5403 7.80551L70.7288 1.14496L70.2496 0.84894C70.6424 0.607446 70.8623 -0.179356 71.4986 0.0387675H71.4908Z" fill="black"/>
<path d="M78.749 112.045C80.0373 113.322 80.7364 116.4 82.9438 116.252C85.5203 114.623 86.4865 111.5 88.5053 109.272C90.3591 106.974 91.6552 104.535 93.2734 102.159L93.2577 101.388C95.4415 99.7754 97.9552 99.0743 99.974 97.158C103.501 95.5844 106.502 99.051 109.989 99.4872C114.695 101.357 119.243 103.538 123.422 106.818C122.032 108.563 121.992 110.728 121.002 112.621C120.256 114.81 118.63 116.641 117.963 118.908C116.698 118.869 115.017 117.911 113.516 118.113C110.971 117.42 108.128 117.506 105.881 116.026C105.245 115.815 104.703 116.29 104.475 116.844C104.569 117.771 105.598 117.584 106.085 118.191C106.337 123.138 105.567 128.116 104.632 132.79C104.899 134.488 104.302 136.202 104.098 137.916C98.2615 138.944 91.7102 139.762 85.6381 140.331C84.0513 140.074 81.5298 140.455 79.943 140.198C82.2761 138.196 79.9273 135.555 79.9666 133.234C78.3641 128.326 77.555 123.169 76.6595 118.012C76.7774 115.839 78.2463 114.094 78.7569 112.068L78.749 112.045Z" fill="white"/>
<path d="M76.8951 106.07C82.0246 105.447 86.8163 103.834 91.5295 102.222C89.7149 106.382 86.1408 109.895 83.847 113.907L82.763 115.021C80.4143 112.302 79.0082 108.945 76.8951 106.062V106.07Z" fill="white"/>
<path d="M82.0954 56.6806C84.5305 55.6756 87.6098 55.5043 89.8564 57.0623C92.425 58.8384 93.0377 61.9155 92.5429 65.0316C91.7181 67.2206 91.1368 69.8692 88.5445 71.0377C86.73 71.4039 85.1746 72.5334 83.1794 71.9726C82.928 71.0533 81.5848 71.326 80.9406 70.6482C79.0868 68.8487 76.903 66.4338 77.7907 63.3177C78.8511 60.8093 79.6759 58.5424 82.0875 56.6884L82.0954 56.6806Z" fill="white"/>
<path d="M82.7552 41.8016C84.562 41.0538 86.6122 40.9136 88.144 42.2535C90.4691 44.0374 91.5531 46.7951 91.129 49.4359C90.5869 49.841 90.1078 49.6229 89.55 49.4827C88.4896 47.8935 89.0787 45.5487 87.2327 44.2867C86.5022 43.383 85.3868 42.9468 84.3656 43.2895C82.716 44.0374 81.0821 45.4786 81.1214 47.4105C81.1214 47.7221 80.6579 48.0415 80.3437 48.2051C79.7938 48.2986 79.2361 48.1584 79.0711 47.6209C78.9455 45.1436 80.6422 43.0091 82.7552 41.7783V41.8016Z" fill="black"/>
<path d="M83.6035 61.129C84.4676 60.8719 85.1903 61.316 85.5202 62.0015C85.5359 62.8506 85.6302 63.6218 84.9311 64.1905C84.067 64.3697 83.1872 64.0892 82.8573 63.3258C82.1346 62.6481 82.5823 61.3237 83.6035 61.1368V61.129Z" fill="black"/>
<path d="M100.343 3.03025C100.492 2.71864 100.893 2.93677 101.129 2.85107C100.94 5.49192 99.2513 7.93802 99.0706 10.8126L98.1201 10.8437C98.3793 8.04708 99.919 5.75679 100.343 3.03804V3.03025Z" fill="black"/>
<path d="M112.754 63.1775C113.823 61.2845 115.457 59.6875 117.585 59.3136C118.772 59.4305 120.971 58.667 121.403 60.5912C122.581 68.1398 117.907 75.9455 111.183 79.9418C112.181 74.3407 112.707 68.9032 112.754 63.1775Z" fill="#FFE3CA"/>
<path d="M112.291 23.4092C114.31 21.6487 115.614 19.4363 117.719 17.8237C118.779 19.3428 116.172 19.6466 116.038 20.9709L112.315 24.7959L111.207 24.679C111.034 24.0636 111.985 23.9623 112.291 23.4092Z" fill="black"/>
<path d="M117.499 62.8818C118.292 63.0921 119.172 63.5284 119.423 64.3697C119.486 67.6182 117.24 70.0098 115.794 72.6818C115.315 72.5416 115.017 73.4764 114.687 72.7129C114.428 71.6379 115.928 71.2796 116.061 70.3525C116.973 68.3894 118.991 66.4731 118.159 64.2529C117.436 63.5751 116.493 64.2295 115.786 64.4788C115.48 64.954 114.773 65.437 114.373 64.8293C114.82 63.5751 116.399 63.3726 117.499 62.874V62.8818Z" fill="black"/>
<path d="M124.231 107.729C124.946 107.862 125.111 108.322 125.676 108.766C124.247 112.372 122.574 115.901 121.78 119.718C121.325 120.583 120.193 119.532 119.4 119.485C121.065 115.566 123.202 111.858 124.231 107.729Z" fill="white"/>
<path d="M129.635 117.163C129.565 117.631 129.73 117.934 130.13 118.23C131.316 118.036 132.345 118.316 133.155 119.064C132.777 120.155 131.693 121.043 131.473 122.211C132.432 122.569 132.895 122.242 133.359 121.378C133.971 120.583 134.985 119.469 134.568 118.402C133.123 117.514 131.686 116.4 129.95 116.836C129.863 116.298 130.641 115.808 131.356 115.862C133.249 115.418 135.26 113.268 137.184 114.6C138.3 114.951 139.337 115.543 140.373 116.049C142.604 116.992 144.851 118.542 147.53 117.849C148.676 115.8 151.654 114.242 150.892 111.71L150.083 110.651C145.841 108.306 141.458 106.343 136.532 105.642C136.147 106.195 135.448 106.678 135.299 107.379C135.063 107.309 134.82 107.161 134.506 107.246C135.118 106.296 135.731 105.12 136.988 104.535C143.39 104.341 148.134 108.22 153.562 110.534C154.372 111.282 153.515 112.24 153.295 113.019C150.389 118.215 147.569 123.489 144.27 128.615C142.832 131.988 140.515 134.995 138.606 138.228C135.841 138.469 133.508 136.599 130.814 136.296C128.096 134.675 124.694 134.777 122.196 132.533C122.189 132.066 122.181 131.606 121.859 131.302C124.372 126.504 126.729 121.713 129.651 117.132L129.635 117.163Z" fill="#D1D1D2"/>
<path d="M126.658 110.285C128.379 109.147 131.049 108.29 133.123 109.007C134.451 108.345 136.202 108.836 137.404 109.498C137.522 111.43 135.731 112.801 134.16 113.619C132.581 113.743 131.018 114.873 129.588 114.53C127.907 117.366 126.218 120.209 124.537 123.045C123.587 122.764 123.398 121.611 123.068 120.77C124.262 117.249 124.742 113.518 126.658 110.292V110.285Z" fill="#FFE3CA"/>
<path d="M126.368 39.2388C128.237 37.9456 130.115 36.6447 131.984 35.3515L132.778 35.3281C133.359 36.7849 130.594 37.0186 129.675 38.3663C127.648 39.823 125.449 40.8202 122.927 41.2019C122.605 41.0539 122.526 40.75 122.597 40.4384C123.768 39.7841 125.111 39.6672 126.368 39.2388Z" fill="black"/>
<path d="M128.331 123.083C129.368 123.52 130.641 124.018 131.992 124.213C132.785 124.423 132.251 125.21 132.181 125.755C131.803 126.62 131.191 127.797 130.327 128.131C128.724 127.095 131.159 126.402 131.222 125.475C130.335 124.571 128.363 124.945 128.017 123.403L128.331 123.083Z" fill="black"/>
<path d="M131.01 130.741C131.89 131.255 132.997 131.38 133.728 132.362C132.95 133.234 132.911 135.096 131.411 135.065C130.68 134.161 132.251 133.413 132.628 132.549C131.748 131.957 130.869 131.676 129.761 131.396C129.667 130.624 130.46 130.523 131.01 130.741Z" fill="black"/>
<path d="M135.692 127.345C135.055 126.978 134.262 126.924 133.767 126.168C134.38 125.07 135.275 126.199 135.982 126.254C137.255 126.605 136.964 127.851 136.344 128.568C135.401 129.058 135.213 131.31 133.846 130.188C134.058 129.019 135.393 128.357 135.692 127.345Z" fill="black"/>
<path d="M135.841 118.83C137.027 118.947 137.993 119.617 139.03 120.279C139.533 121.658 138.048 122.865 137.522 123.886L136.729 123.909C136.462 122.6 138.355 122.079 138.088 120.77C137.436 119.858 136.257 120.131 135.527 119.453L135.833 118.822L135.841 118.83Z" fill="black"/>
<path d="M137.192 107.021C141.489 108.205 145.864 109.467 149.627 112.061C149.666 114.226 147.475 115.146 146.556 116.953C143.068 116.672 140.256 114.437 137.145 113.214C137.836 112.185 138.685 111.001 138.975 109.755C138.645 108.836 137.75 107.706 136.721 107.503L137.184 107.021H137.192Z" fill="white"/>
<path d="M140.004 129.541C139.596 129.012 138.575 129.432 138.559 128.505C139.109 128.1 140.138 128.459 140.782 128.747C141.183 129.043 141.348 129.425 141.277 129.97C139.863 130.554 139.36 133.203 137.687 132.4C138.143 131.458 139.227 130.344 140.004 129.541Z" fill="black"/>
<path d="M140.727 126.114C141.905 125.615 141.952 124.143 142.887 123.263C142.628 122.265 141.135 122.616 141.269 121.455C142.369 120.957 143.107 122.328 143.987 122.764C143.861 124.236 142.691 125.358 142.007 126.69C141.528 126.472 140.821 126.729 140.727 126.106V126.114Z" fill="black"/>
<path d="M81.679 118.534C81.2705 118.534 80.9327 118.869 80.9327 119.282V132.081C80.9327 132.494 81.2391 132.969 81.6083 133.148L89.5343 136.973C89.9034 137.153 90.5162 137.153 90.8854 136.973L98.9291 133.141C99.2983 132.961 99.6047 132.486 99.6047 132.073V119.274C99.6047 118.861 99.2669 118.526 98.8506 118.526H81.679V118.534ZM85.4338 132.868C84.1613 132.868 83.1244 131.84 83.1244 130.578C83.1244 129.316 84.1613 128.287 85.4338 128.287C86.7064 128.287 87.7432 129.316 87.7432 130.578C87.7432 131.84 86.7064 132.868 85.4338 132.868ZM95.1115 132.868C93.8389 132.868 92.802 131.84 92.802 130.578C92.802 129.316 93.8389 128.287 95.1115 128.287C96.384 128.287 97.4209 129.316 97.4209 130.578C97.4209 131.84 96.384 132.868 95.1115 132.868ZM96.7218 123.66V126.846H91.8908V135.244H88.4974V126.792H83.2736L83.2029 123.395H88.4974V119.843H91.8908V123.45H94.0589C93.5561 123.029 93.2341 122.398 93.2341 121.689C93.2341 120.427 94.271 119.399 95.5435 119.399C96.8161 119.399 97.853 120.427 97.853 121.689C97.853 122.523 97.3974 123.255 96.7218 123.652V123.66Z" fill="#2175D6"/>
<path d="M95.5436 120.723C95.0015 120.723 94.5616 121.159 94.5616 121.697C94.5616 122.234 95.0015 122.671 95.5436 122.671C96.0856 122.671 96.5255 122.234 96.5255 121.697C96.5255 121.159 96.0856 120.723 95.5436 120.723Z" fill="#2175D6"/>
<path d="M67.1782 73.5386C70.2653 70.9133 74.4208 70.5394 77.7593 72.3467C78.8119 73.1724 80.2022 74.2163 80.163 75.7821C81.2391 79.6694 75.2613 84.8888 68.4665 82.2012C66.4634 81.5858 65.3479 79.6538 65.2458 77.7842C64.8059 76.9506 66.2906 74.6993 67.1704 73.5464L67.1782 73.5386Z" fill="black"/>
<path d="M73.3602 72.456C75.0491 72.7832 77.5392 73.087 78.6311 74.8476C79.3381 76.2888 79.2438 77.9948 78.1677 79.3269C76.9658 80.7681 66.8247 82.9727 66.5026 78.0961C66.2827 74.7541 70.2181 72.8923 73.3602 72.4482V72.456Z" fill="#FFE3CA"/>
</g>
<defs>
<clipPath id="clip0_2_5602">
<rect width="155" height="174" fill="white"/>
</clipPath>
</defs>
</svg>
