<svg width="136" height="208" viewBox="0 0 136 208" fill="none" xmlns="http://www.w3.org/2000/svg">
<path d="M44.4092 97.1054C45.8637 98.806 46.5803 101.263 45.7827 103.434C45.5353 104.946 43.5902 106.454 45.0362 107.967C45.1471 108.676 44.2599 109.099 43.7523 109.574C42.8522 109.386 42.4982 108.253 42.1015 107.497C40.4337 104.758 44.3068 103.01 42.4086 100.413C42.0674 99.9896 42.0077 99.4213 41.4361 99.1863C40.1052 98.7632 39.0388 99.5623 38.0663 100.225C37.3795 101.169 37.499 102.254 37.9511 103.344C38.8256 104.523 40.7408 105.754 39.8322 107.215C39.1327 107.638 38.1985 108.018 37.3881 107.591C34.9951 106.078 34.223 103.151 34.6795 100.601C34.9141 98.524 36.7227 97.1054 38.544 96.4431C40.3697 95.8278 42.9077 95.4517 44.4049 97.1054H44.4092Z" fill="black"/>
<path d="M45.1214 99.2809C46.738 101.879 44.5242 104.049 43.7734 106.271C43.2275 107.122 45.4327 108.634 43.4493 108.634C42.9075 107.596 42.4085 106.318 42.7071 105.139C43.0526 103.767 44.0166 102.541 43.4578 100.888C42.9203 99.9902 42.4639 98.6186 41.2312 98.4306C39.4354 98.3366 37.6609 99.0929 36.9443 100.7C36.2319 102.447 37.7846 104.383 39.2306 105.801C39.478 106.224 39.252 106.793 38.8809 107.028C38.1813 107.31 37.4647 107.028 36.9827 106.459C35.5239 104.524 34.7433 101.358 35.9675 99.2809C37.149 97.2983 39.3543 96.871 41.47 96.542C43.1208 96.542 44.5626 97.8153 45.1171 99.2809H45.1214Z" fill="#FDD000"/>
<path d="M86.3822 105.702C86.9666 106.506 86.7106 107.685 87.2012 108.535C89.7306 107.732 92.4819 108.582 94.6872 110.142C99.9296 114.582 98.8632 121.619 99.0509 127.618C98.9485 129.272 98.5689 131.207 98.2319 133.002C98.0783 136.591 95.92 139.095 96.0948 142.637C96.5555 144.244 98.3001 144.244 99.6267 144.432L100.459 143.676C100.847 144.244 100.258 145.094 99.8443 145.658C97.0972 149.153 92.5331 149.67 88.3273 149.153C91.8933 152.461 93.9663 156.52 94.3545 161.058C95.5233 164.694 95.5147 168.471 96.1247 172.394C95.8602 175.18 96.7304 178.154 94.892 180.234C93.7659 180.422 92.3412 180.093 91.2876 179.384C91.2108 182.17 91.6501 184.909 91.8549 187.695C91.6203 187.695 91.5776 188.028 91.4838 188.075C88.8178 189.02 86.203 190.058 83.3366 190.532C83.7077 192.421 83.3366 194.502 82.7138 196.198C82.8077 198.134 83.2214 199.74 82.5517 201.488C81.3019 202.479 79.7322 201.915 78.235 202.338C74.4301 203 69.9428 202.62 65.899 203C65.144 202.953 64.4231 202.432 63.9838 201.774C63.5743 200.403 62.0941 201.586 61.1472 201.492C59.3514 201.398 57.6452 201.018 56.0285 200.36C55.4271 198.8 55.7598 196.912 56.293 195.446C57.2101 194.314 58.558 193.463 59.7182 192.613L59.4324 192.425C57.1162 192.096 55.0858 191.951 52.808 191.481C52.6417 190.395 52.2834 189.169 52.2535 187.891C51.7289 187.562 50.8843 187.75 50.7222 186.947C50.7819 183.405 50.9824 179.863 51.3322 176.556C49.3487 176.415 47.7022 176.65 46.1154 175.235C44.8997 173.582 43.7736 171.834 43.3513 169.851C43.6243 169.33 43.5603 168.719 43.6883 168.151C44.8997 165.412 46.7254 162.767 48.7942 160.592C47.1391 158.323 48.1202 155.819 48.4401 153.32C49.0586 151.525 49.8648 149.636 51.6308 148.5C49.771 145.479 48.8411 142.031 48.3804 138.394C47.6211 138.206 46.6827 138.441 46.1026 137.826C45.5225 137.258 45.5481 136.36 45.676 135.655C46.0301 134.617 46.9557 133.955 47.988 133.767C48.2311 132.019 48.4742 130.319 48.7174 128.571C48.1458 128.336 47.5316 128.289 47.0069 127.909C46.8533 127.34 47.5614 127.387 47.8472 127.533C48.0903 127.768 48.4188 127.862 48.7984 127.815C49.9416 124.272 50.7563 120.636 53.0896 117.611C52.0872 117.043 50.5132 116.239 50.1975 114.872C50.1805 114.116 49.3103 113.265 49.8648 112.701C52.4625 112.936 53.7166 110.057 55.4314 108.736C59.5391 104.912 64.4871 102.737 69.6868 101.271C75.3728 100.327 82.893 99.4298 86.3864 105.711L86.3822 105.702Z" fill="black"/>
<path d="M85.7336 106.177C86.1815 107.168 86.1644 108.493 86.19 109.578C86.8128 110.099 86.7446 109.155 87.4057 109.202C90.9632 108.164 94.2647 110.193 96.3591 113.073C98.8246 117.654 98.381 123.085 98.317 128.375C97.7923 132.246 97.2805 136.591 95.4761 140.181C95.2202 141.36 95.2074 142.92 96.0307 143.864C96.8582 144.996 98.2701 144.808 99.2639 145.09C96.8368 148.303 92.7547 149.008 88.6811 148.303C85.7805 147.171 85.0426 143.958 84.8379 141.125L84.7909 139.142C87.0943 138.86 88.7408 136.638 89.402 134.609C89.7731 132.34 90.2252 129.46 88.7664 127.524C87.8024 126.58 86.4118 125.636 84.9658 126.298C83.5198 127.007 82.5643 128.52 81.7453 129.887C81.178 125.73 81.097 122.14 79.6893 118.363C78.8106 117.09 78.0172 115.389 76.3153 115.15C72.2033 118.927 65.4467 118.124 60.7716 115.812C63.1006 114.539 66.5131 113.261 66.9609 110.146C66.4789 109.672 65.6344 109.864 65.0713 109.958C61.5181 111.232 58.3147 113.36 55.0089 115.248C54.5055 115.958 53.8145 116.573 52.9657 116.667C51.6391 116.338 50.8457 114.778 50.5386 113.548C53.597 113.219 54.4117 109.817 56.9284 108.446C61.0787 104.481 66.5642 103.109 71.8578 101.549C74.2081 101.173 76.9466 101.455 79.4035 101.549C80.3078 101.878 81.3444 101.972 82.1634 102.588C83.507 103.626 85.0383 104.617 85.7336 106.177Z" fill="#444444"/>
<path d="M47.0666 110.142C48.1202 110.804 48.0604 112.313 47.8002 113.355C47.0069 113.637 46.1751 114.394 45.2665 113.83C44.6907 113.454 44.1148 112.885 44.0039 112.223C44.1361 111.749 44.0722 111.044 44.3409 110.522C45.1343 110.099 46.1623 109.719 47.0666 110.146V110.142Z" fill="black"/>
<path d="M47.1861 111.275C47.2458 111.843 47.5998 112.834 46.9472 113.163C46.4183 112.787 46.013 113.492 45.5353 113.257C44.8656 112.783 44.7974 111.933 44.8315 111.275C45.0106 110.852 45.4287 110.659 45.8552 110.612C46.4652 110.424 46.9941 110.847 47.1903 111.275H47.1861Z" fill="#FDD000"/>
<path d="M86.7789 126.956C85.1196 126.529 84.0703 128.136 83.0593 129.225C82.9655 129.477 82.2404 130.862 82.1295 131.204C82.1124 131.251 82.0996 131.328 82.0868 131.413C82.0783 131.452 82.074 131.49 82.0697 131.533C82.0612 131.618 82.0569 131.712 82.0527 131.81C82.0313 132.041 81.9631 132.225 81.6176 132.152C81.3318 131.964 81.3233 131.678 81.319 131.396C81.2209 131.208 81.0119 130.358 81.0119 130.358C80.5085 127.003 80.2313 123.132 79.4464 119.684C78.7085 118.265 77.8682 116.569 76.3454 116.095C74.8652 117.274 73.2315 118.03 71.3973 118.364C67.5114 119.637 64.2184 117.795 60.7079 116.851C60.1789 116.428 59.2362 116.33 58.9846 115.719C59.2107 115.343 59.6799 115.15 60.2003 115.244C62.397 114.347 64.7217 112.882 65.946 110.805L65.5663 110.711C63.3184 111.42 61.3221 112.741 59.2235 113.732C57.9651 114.394 56.8603 115.526 55.5039 116.001C53.4266 117.983 52.1725 120.816 51.0549 123.461C50.0013 126.862 48.7174 130.452 49.225 134.135C48.4359 134.656 46.9685 134.511 46.5292 135.742C46.4951 136.31 46.1453 137.442 47.1349 137.442C47.7449 137.301 48.3676 137.771 48.5425 137.066C48.824 136.972 48.9691 137.207 49.1141 137.348C49.2549 139.378 49.4809 141.031 49.9971 142.92C50.7435 144.527 50.8331 146.462 52.1853 147.834C52.936 147.599 53.5375 147.172 54.237 146.89C55.2309 147.031 56.357 146.796 57.0821 147.646C57.5343 148.825 56.6556 149.675 56.3015 150.667C56.775 150.761 57.1589 151.141 57.5471 151.517C57.8755 153.453 60.0936 153.5 61.5652 154.068C65.3872 154.256 68.9574 155.675 72.9031 155.012C77.2625 154.021 81.3275 152.367 84.9447 149.722C85.6443 149.342 86.1476 148.59 86.5102 148.022C84.6717 145.898 84.0447 143.253 83.8826 140.463C84.4542 138.762 82.2532 139.331 82.0356 138.1C82.219 137.959 82.3086 137.724 82.5944 137.818C83.3195 138.668 84.1641 138.48 85.1537 138.386C87.6875 137.771 88.8008 134.891 89.0738 132.528C89.1676 130.452 89.061 127.901 86.7746 126.956H86.7789ZM85.849 135.742C85.6144 135.695 85.1452 135.93 84.9916 135.46L86.2798 134.041C86.8258 133.144 86.9837 131.87 86.5827 130.828C86.4761 130.353 85.9002 129.93 85.4395 130.259C84.74 130.682 84.5736 131.486 84.4456 132.242C84.3561 132.43 84.1769 132.763 83.8911 132.618C83.4603 132.336 83.5883 131.768 83.6736 131.392C84.275 130.866 84.9831 129.161 86.0751 129.315C86.7874 129.456 87.2311 130.259 87.5254 130.828C87.8496 132.575 87.3761 134.511 85.849 135.742Z" fill="#FFE3CA"/>
<path d="M56.5232 148.21C56.6 149.436 55.4824 150.145 55.1796 151.231C55.8919 151.466 56.8815 151.419 57.1844 152.363C57.6792 153.448 57.2355 154.628 56.5957 155.478C55.717 156.14 57.146 156.802 56.5488 157.46C56.0412 160.058 52.9828 160.34 51.9548 162.75C51.3107 163.46 50.5258 164.216 49.741 164.827C48.9604 163.789 49.5448 162.417 49.468 161.238C49.5576 160.956 49.6898 160.669 49.6343 160.293C47.8044 158.546 48.9177 155.854 49.1054 153.679C49.7964 150.987 51.8226 148.816 54.3392 147.633C55.0942 147.727 55.9857 147.492 56.5232 148.201V148.21Z" fill="#FFE3CA"/>
<path d="M93.5866 160.682C94.6104 166.207 96.0607 171.924 95.3952 177.778C95.2673 178.44 94.9985 179.055 94.589 179.572C93.2326 179.953 91.9828 179.051 91.1595 178.154C91.2491 177.919 90.9633 177.872 90.8695 177.774H90.396C87.0945 175.697 84.0958 172.39 80.79 170.121C79.3525 167.194 82.9441 165.399 83.1659 162.656C83.7503 161.383 84.2835 160.011 84.0148 158.498C83.8697 158.404 83.7716 158.118 83.537 158.216C82.9825 158.691 83.4645 159.208 83.1958 159.823C82.5005 162.327 81.8521 164.878 80.0563 166.908C74.5836 168.843 68.1682 168.702 62.0813 168.514C62.4353 167.523 63.1775 167.002 63.6297 166.057C66.6966 162.135 70.5825 158.738 74.5154 155.478C78.9174 154.153 83.2171 152.551 86.7234 149.149C90.7501 151.935 93.1089 156.093 93.5909 160.673L93.5866 160.682Z" fill="#30568E"/>
<path d="M60.4477 154.73C61.16 156.948 61.7785 159.217 62.5804 161.439L62.9686 161.913C61.3178 163.849 60.0979 166.164 58.7798 168.335C57.2741 168.429 55.4399 168.668 54.0579 168.053C54.51 167.25 54.2029 166.117 54.9408 165.408C54.7745 164.37 55.9518 164.229 55.457 163.238C55.3589 163.05 55.1669 163.003 54.9792 163.05C53.4479 166.117 52.9147 169.711 52.0957 172.967C51.7843 173.817 51.6649 174.809 51.4047 175.706C49.3316 175.847 46.9259 175.8 45.7912 173.531C45.2964 172.587 44.759 171.689 44.4988 170.698C47.57 168.856 49.1568 166.164 52.1682 163.802C53.2773 162.81 53.9939 161.11 55.393 160.588C56.6855 159.311 57.8244 157.614 57.2613 155.768C57.7689 155.294 58.0376 154.589 58.1613 153.88L60.4434 154.73H60.4477Z" fill="#30568E"/>
<path d="M62.529 155.106C63.1305 156.619 63.3096 158.319 64.3291 159.64H64.6106C64.4827 160.302 63.9324 160.96 63.3267 161.246C62.5291 159.358 62.0598 157.328 61.3987 155.392L61.484 154.918C61.8167 154.965 62.1025 155.2 62.5248 155.106H62.529Z" fill="#9AB9E7"/>
<path d="M65.2293 157.563C65.3743 157.798 65.6089 157.751 65.8008 157.751C67.0634 157.277 67.8142 155.106 69.4393 156.05C69.1706 156.619 68.4199 156.854 67.8611 157.183C66.7904 157.751 66.061 158.93 64.8965 159.452C64.3463 158.127 63.9837 156.713 63.5742 155.294C64.9349 155.012 64.4145 156.901 65.2293 157.563Z" fill="white"/>
<path d="M66.8842 155.768L65.6856 156.9C65.2548 156.618 65.2847 155.909 65.2761 155.481C65.8434 155.528 66.3169 155.716 66.8842 155.763V155.768Z" fill="#FFE3CA"/>
<path d="M72.7322 155.956C68.3857 159.592 64.1884 163.656 61.2323 168.33C60.8996 168.283 60.055 168.424 59.8162 168.236C62.0726 163.844 65.4552 159.31 69.9255 156.9C70.6592 156.05 71.7384 155.815 72.7322 155.956Z" fill="#9AB9E7"/>
<path d="M48.6362 161.908C48.521 163.088 48.4571 164.459 49.1865 165.403C47.4248 166.775 46.2475 168.852 44.3877 169.937C44.2811 167.386 46.0257 165.356 47.4461 163.421C47.6722 162.947 48.2694 162.241 48.6362 161.908Z" fill="#1D3457"/>
<path d="M79.5486 169.373C78.7894 169.279 77.7017 169.04 77.1045 169.655C76.503 170.177 76.3324 170.98 76.5884 171.732C77.5566 172.864 75.876 173.574 75.522 174.659C75.2575 175.462 74.8992 176.312 75.202 177.21C75.5049 177.966 76.1746 178.483 76.8443 178.91L78.2562 178.722C79.2287 180.094 80.888 180.423 82.4407 180.235C83.4218 179.855 84.4967 179.479 85.2346 178.722C84.1085 180.991 83.9336 183.683 82.6625 185.901C79.4975 187.695 74.993 186.61 71.474 187.319C67.9933 187.695 63.9879 187.794 60.2598 187.601C57.2867 187.507 54.352 187.08 51.5666 186.845C51.0846 184.294 51.814 181.273 51.7458 178.248C52.1681 176.03 52.6842 173.903 53.2003 171.732C53.2729 170.788 53.5373 169.937 53.7975 169.087C55.7853 169.369 57.8583 169.369 60.021 169.087C64.0519 170.078 68.3686 169.181 72.2887 169.369C74.8821 169.322 77.0746 168.284 79.5145 167.856L79.5486 169.369V169.373Z" fill="#FDD000"/>
<path d="M81.1013 171.262C83.1104 172.535 84.5564 174.001 86.3906 175.702C85.3924 177.449 83.8824 179.432 81.6729 179.573C79.7107 180.329 79.3098 177.355 77.4884 178.06C77.0234 178.295 76.5371 177.727 76.2471 177.398C75.3087 175.603 76.8315 174.138 77.7443 172.77C78.2434 171.92 76.8187 171.497 77.4116 170.6C77.6377 170.22 78.0173 170.22 78.3415 170.032C79.6083 169.749 80.1032 170.835 81.1056 171.258L81.1013 171.262Z" fill="#FFE3CA"/>
<path d="M90.5497 180.234C90.8056 181.179 90.5582 182.55 90.9122 183.636C90.7075 184.913 91.4411 186.14 91.0956 187.511C84.5523 190.062 77.2625 190.771 69.9726 191.575C66.3427 191.669 62.8065 191.622 59.1339 191.763C57.3765 191.147 55.2608 191.429 53.4522 190.818C53.0085 189.968 53.2176 188.883 53.0085 187.985C55.8793 187.844 58.9163 188.601 61.6932 188.46C67.3152 188.981 73.223 187.562 79.1222 187.703C80.6749 187.468 82.4664 187.562 83.4219 186.097C84.7741 183.405 85.4608 180.431 86.2414 177.5L86.9666 176.273C88.2207 177.453 90.8738 177.974 90.5454 180.243L90.5497 180.234Z" fill="#30568E"/>
<path d="M82.492 190.72C83.1531 192.891 82.8332 195.348 81.5066 197.048C80.0307 198.42 77.6591 197.852 75.8846 198.655C74.7116 198.984 74.1187 197.758 73.1248 197.523C70.6124 197.001 68.7398 195.446 65.9246 196.01C67.8099 193.933 70.028 192.04 72.8134 192.04C75.3983 191.758 78.0345 191.472 80.6194 191.19C81.2293 191.049 81.7881 190.716 82.4962 190.716L82.492 190.72Z" fill="white"/>
<path d="M68.9489 192.327C67.1829 193.459 65.754 194.925 64.2354 196.391C62.7979 195.446 61.2751 194.784 59.6627 194.314C59.3343 194.314 59.0485 194.267 58.6262 194.408C59.3172 193.652 60.2471 193.083 61.1301 192.613C63.9496 192.237 66.172 192.566 68.9489 192.331V192.327Z" fill="white"/>
<path d="M63.6808 196.954C63.25 198.655 61.0575 197.664 59.8333 197.805C58.6517 197.664 57.0436 197.476 56.6853 196.198C56.809 195.442 57.8199 196.386 57.6109 195.348C59.9484 194.451 61.821 196.01 63.6808 196.954Z" fill="white"/>
<path d="M73.9096 198.843C71.4356 199.881 67.844 199.599 65.2548 199.787C64.824 199.599 64.2567 199.454 64.0093 198.937C64.5169 198.463 63.7448 197.711 64.4444 197.424C67.4217 195.677 71.0048 197.706 73.9054 198.843H73.9096Z" fill="white"/>
<path d="M81.9759 201.014C79.3526 201.77 76.243 201.911 73.513 201.958C71.3035 202.386 68.5607 201.864 66.2616 202.334C65.6474 202.287 64.935 202.146 64.6407 201.484C64.8156 200.963 64.2952 200.775 64.3336 200.352C70.011 201.249 74.588 199.266 79.8559 198.745C80.6493 198.318 81.6346 198.224 82.1849 197.425C82.4024 198.604 82.3385 199.929 81.9844 201.014H81.9759Z" fill="#B57800"/>
<path d="M63.0625 198.655C63.7833 199.27 62.9004 199.787 63.4805 200.45C61.4629 200.877 58.4471 200.971 56.4893 199.787L56.5319 197.519C58.3064 198.89 60.9382 198.416 63.0625 198.651V198.655Z" fill="#B57800"/>
<path d="M60.9723 120.252C62.0813 121.384 62.2136 122.944 62.2946 124.503L62.1965 124.409L61.7358 124.884L61.5439 124.696C61.6932 122.995 61.369 121.107 59.8377 120.162C59.1253 119.927 58.7073 120.162 58.0504 120.35C56.8475 121.248 56.1224 122.619 55.9688 124.127C55.6873 124.221 55.5892 123.986 55.3972 123.845C55.6404 122.051 56.5319 119.88 58.5025 119.5C59.4452 119.453 60.3879 119.453 60.9723 120.256V120.252Z" fill="black"/>
<path d="M59.3983 129.601C59.4239 130.687 59.9741 132.058 58.9077 132.909C58.3617 133.806 57.1802 133.571 56.2801 133.477C55.0431 133.054 54.7317 131.776 54.6123 130.644C54.4971 129.653 55.3289 128.943 56.0711 128.473C57.2399 128.097 58.8011 128.332 59.3983 129.606V129.601Z" fill="black"/>
<path d="M58.7413 129.888C58.8565 130.738 59.1721 132.251 58.1484 132.815C57.4488 133.191 56.8218 132.486 56.1649 132.721C55.6402 132.392 55.5805 131.917 55.4739 131.4C55.8109 131.635 56.2843 131.776 56.7024 131.588C56.9839 131.494 57.1161 131.212 57.3507 131.02C57.4318 130.499 57.1417 130.123 56.7578 129.794L55.8109 129.7C56.1308 129.324 56.455 128.99 56.9242 128.943C57.5427 129.225 58.4342 129.037 58.737 129.888H58.7413Z" fill="white"/>
<path d="M58.4171 140.368C58.9205 141.74 59.1892 143.201 58.7029 144.62C58.2508 145.423 57.4403 145.141 56.8218 144.808C56.1308 143.441 55.7597 141.689 56.1479 140.086C56.3739 139.663 56.8346 139.189 57.3593 139.518C57.7858 139.612 58.0801 140.086 58.4171 140.368Z" fill="black"/>
<path d="M58.2892 142.92C58.1612 143.441 58.3745 144.62 57.5683 144.338C56.5531 143.206 56.5616 141.552 57.001 140.181C58.2337 140.416 57.9394 141.975 58.2892 142.92Z" fill="#B44E26"/>
<path d="M55.3929 172.701C55.1029 172.701 54.864 172.94 54.864 173.235V182.388C54.864 182.678 55.0773 183.024 55.3418 183.153L60.951 185.887C61.2154 186.015 61.642 186.015 61.9064 185.887L67.6009 183.148C67.8654 183.02 68.0787 182.678 68.0787 182.388V173.235C68.0787 172.945 67.8398 172.701 67.5498 172.701H55.3972H55.3929ZM58.0504 182.948C57.1461 182.948 56.4167 182.213 56.4167 181.311C56.4167 180.409 57.1503 179.675 58.0504 179.675C58.9504 179.675 59.6841 180.409 59.6841 181.311C59.6841 182.213 58.9504 182.948 58.0504 182.948ZM64.9009 182.948C63.9966 182.948 63.2671 182.213 63.2671 181.311C63.2671 180.409 64.0008 179.675 64.9009 179.675C65.8009 179.675 66.5346 180.409 66.5346 181.311C66.5346 182.213 65.8009 182.948 64.9009 182.948ZM66.044 176.367V178.649H62.623V184.652H60.2215V178.606H56.5233L56.4764 176.175H60.2215V173.637H62.623V176.218H64.1586C63.8003 175.919 63.57 175.466 63.57 174.962C63.57 174.056 64.3037 173.325 65.2037 173.325C66.1037 173.325 66.8374 174.06 66.8374 174.962C66.8374 175.56 66.5175 176.081 66.0398 176.367H66.044Z" fill="#2A6DB6"/>
<path d="M65.208 174.265C64.8241 174.265 64.5127 174.577 64.5127 174.961C64.5127 175.346 64.8241 175.658 65.208 175.658C65.5919 175.658 65.9033 175.346 65.9033 174.961C65.9033 174.577 65.5919 174.265 65.208 174.265Z" fill="#2A6DB6"/>
<path fill-rule="evenodd" clip-rule="evenodd" d="M67.539 83.7633C30.2383 83.7633 6.65188e-05 65.0123 6.65188e-05 41.8817C6.65188e-05 18.7511 30.2383 0 67.539 0C104.84 0 135.078 18.7511 135.078 41.8817C135.078 60.0482 116.426 75.5133 90.3494 81.3145L83.7056 90.9995L79.9111 83.0622C75.9002 83.5227 71.7649 83.7633 67.539 83.7633Z" fill="#FEE880"/>
<path d="M107.506 50.6582C108.074 50.6582 108.529 51.1129 108.529 51.6813C108.529 52.2639 108.074 52.7186 107.506 52.7186C106.923 52.7186 106.469 52.2639 106.469 51.6813C106.469 51.1129 106.923 50.6582 107.506 50.6582ZM112.238 50.6582C112.806 50.6582 113.261 51.1129 113.261 51.6813C113.261 52.2639 112.806 52.7186 112.238 52.7186C111.655 52.7186 111.2 52.2639 111.2 51.6813C111.2 51.1129 111.655 50.6582 112.238 50.6582ZM116.969 50.6582C117.538 50.6582 117.993 51.1129 117.993 51.6813C117.993 52.2639 117.538 52.7186 116.969 52.7186C116.387 52.7186 115.932 52.2639 115.932 51.6813C115.932 51.1129 116.387 50.6582 116.969 50.6582Z" fill="#333333"/>
<path d="M95.3851 45.8115C96.664 46.2236 99.719 46.792 100.969 46.9199L100.628 48.284C99.2359 48.0992 96.124 47.4598 95.0299 47.1756L95.3851 45.8115ZM95.243 48.5255C95.0583 49.4065 94.8025 51.3532 94.6747 52.2199C96.0103 51.14 97.5023 50.6569 99.1222 50.6569C101.424 50.6569 102.873 52.0636 102.873 53.7546C102.873 56.3122 100.714 58.1452 95.1578 57.6763L94.7315 56.2128C99.1222 56.7811 101.339 55.6018 101.339 53.7119C101.339 52.6746 100.358 51.9215 99.0085 51.9215C97.2465 51.9215 95.7546 52.5752 94.8025 53.7261C94.5752 53.9961 94.4331 54.2235 94.3336 54.4792L93.0264 54.1524C93.3106 52.8167 93.6516 49.918 93.7368 48.3124L95.243 48.5255Z" fill="#333333"/>
<path d="M81.1615 45.9253C81.0905 46.4511 81.0336 47.0479 81.0052 47.5594C80.9484 49.1367 80.8347 52.419 80.8347 54.3799C80.8347 55.8861 81.7583 56.3976 83.0087 56.3976C85.4954 56.3976 86.9731 54.9909 87.9962 53.4847L89.0193 54.7067C88.0673 56.0708 86.149 57.9038 82.9803 57.9038C80.8063 57.9038 79.3569 56.9802 79.3569 54.6073C79.3569 52.5895 79.499 48.9377 79.499 47.5594C79.499 46.9768 79.4564 46.3943 79.3569 45.9111L81.1615 45.9253Z" fill="#333333"/>
<path d="M68.018 45.94C67.9469 46.2526 67.8759 46.6221 67.8048 46.9347C67.6911 47.5031 67.5064 48.5404 67.3359 49.3503C66.867 51.3538 65.7871 55.1193 64.2383 57.6201L62.7747 57.0376C64.423 54.8351 65.5313 51.0554 65.915 49.2935C66.185 48.0999 66.3555 46.8494 66.3555 45.7695L68.018 45.94ZM72.906 47.3752C73.787 48.5546 75.009 51.2117 75.4637 52.5474L74.0569 53.2152C73.6591 51.6948 72.5934 49.1656 71.5845 47.9578L72.906 47.3752ZM62.6184 48.9666C63.0873 48.9951 63.5136 48.9808 63.9967 48.9666C65.0908 48.9382 67.8901 48.6256 68.8989 48.6256C70.263 48.6256 71.3145 49.194 71.3145 51.1691C71.3145 52.86 71.1014 55.1335 70.5046 56.3413C70.0357 57.3075 69.2968 57.5775 68.3164 57.5775C67.7622 57.5775 67.0944 57.478 66.6255 57.3786L66.3839 55.8866C66.9665 56.0571 67.7338 56.185 68.1316 56.185C68.629 56.185 69.0268 56.0571 69.2968 55.5029C69.7231 54.6078 69.922 52.8174 69.922 51.3396C69.922 50.1034 69.3679 49.9045 68.4727 49.9045C67.5633 49.9045 65.0056 50.2028 64.1672 50.3023C63.812 50.3592 63.1442 50.4444 62.7605 50.5012L62.6184 48.9666Z" fill="#333333"/>
<path d="M50.4265 46.4652C50.7817 46.5078 51.2222 46.522 51.5491 46.522C52.3021 46.522 55.5277 46.4368 56.3092 46.3657C56.8065 46.3231 57.0623 46.2805 57.2186 46.2236L57.9859 47.2467C57.7017 47.4456 57.3891 47.6304 57.1049 47.8577C56.366 48.3977 54.6325 49.8754 53.6094 50.6996C54.192 50.5291 54.7604 50.4722 55.3145 50.4722C57.7017 50.4722 59.4495 51.9216 59.4495 53.9109C59.4495 56.1844 57.6449 57.7901 54.4478 57.7901C52.5011 57.7901 51.1796 56.9233 51.1796 55.6302C51.1796 54.5787 52.1316 53.6267 53.5242 53.6267C55.4424 53.6267 56.4513 54.9482 56.5223 56.4402L55.2151 56.6391C55.1582 55.5023 54.533 54.7066 53.5242 54.7066C52.9274 54.7066 52.5011 55.0761 52.5011 55.5166C52.5011 56.1276 53.1973 56.5254 54.192 56.5254C56.6076 56.5254 58.0001 55.5592 58.0001 53.8967C58.0001 52.5468 56.6928 51.5806 54.9167 51.5806C52.629 51.5806 51.2933 52.6463 49.6166 54.4366L48.5935 53.3851C49.7018 52.49 51.478 50.998 52.3021 50.3017C53.0979 49.6481 54.7462 48.284 55.4566 47.6588C54.7177 47.6872 52.2595 47.7867 51.5064 47.8293C51.1654 47.8577 50.7817 47.8861 50.4691 47.9288L50.4265 46.4652Z" fill="#333333"/>
<path d="M37.5285 45.7412C39.0916 46.068 41.8056 46.3806 43.2123 46.4659L43.0276 47.7874C41.5782 47.6595 39.0205 47.3469 37.3012 47.0485L37.5285 45.7412ZM43.5959 50.004C43.2833 50.2172 42.9565 50.5013 42.7434 50.6719C42.1608 51.1976 40.683 52.5759 40.2283 53.0448C40.3704 53.0306 40.6262 53.059 40.7825 53.1017C41.2656 53.1869 41.564 53.5421 41.7629 54.0963C41.8908 54.4942 42.0755 55.1336 42.2034 55.5599C42.3597 56.0572 42.6865 56.2846 43.3402 56.2846C44.3348 56.2846 45.3721 56.1709 46.0684 56.0146L45.9689 57.4924C45.3863 57.606 44.008 57.7055 43.2549 57.7055C42.0187 57.7055 41.3082 57.4213 40.9814 56.4977C40.8393 56.0714 40.6546 55.3041 40.5267 54.9205C40.3704 54.4231 40.0578 54.1958 39.7168 54.1958C39.3616 54.1958 39.0489 54.4089 38.7079 54.7357C38.1964 55.2331 36.8607 56.6682 35.9797 57.7907L34.644 56.8529C34.8572 56.6682 35.1414 56.4124 35.4682 56.0998C36.1076 55.4604 39.5605 52.0075 40.9104 50.6292C39.8447 50.6719 37.7559 50.8566 36.9175 50.9276C36.4344 50.9703 36.0366 51.0271 35.7382 51.0697L35.6103 49.5209C35.9371 49.5493 36.3918 49.5635 36.8749 49.5493C37.628 49.5351 40.8962 49.3504 42.0187 49.2083C42.2745 49.1799 42.6155 49.1088 42.7576 49.052L43.5959 50.004Z" fill="#333333"/>
<path d="M23.2197 46.5932H32.3137V47.8152H23.2197V46.5932ZM24.8254 50.1455V51.9643H30.5944V50.1455H24.8254ZM23.5892 49.0372H31.8875V53.0869H23.5892V49.0372ZM24.6691 53.3142C25.9764 55.4598 28.7898 56.7103 32.4842 57.0797C32.2001 57.3781 31.859 57.9181 31.6885 58.2875C27.8804 57.7618 25.0954 56.2982 23.5608 53.6553L24.6691 53.3142ZM27.0136 45.1581H28.3351V51.5381C28.3351 54.3515 27.7525 57.0371 23.4897 58.3017C23.3334 58.0033 22.9498 57.4776 22.6656 57.1934C26.7152 56.2129 27.0136 53.8968 27.0136 51.5239V45.1581ZM22.4098 45.0586L23.6602 45.4565C22.694 47.8578 21.1594 50.3161 19.5679 51.9075C19.4401 51.5949 19.0706 50.8702 18.8433 50.5576C20.2358 49.2361 21.5999 47.1616 22.4098 45.0586ZM20.9605 48.8809L22.2251 47.6021L22.2393 47.6163V58.3301H20.9605V48.8809Z" fill="#333333"/>
<path d="M82.8119 24.2147C82.6982 24.6552 82.6556 24.982 82.5988 25.323C82.414 26.744 81.7604 31.2625 81.7604 32.7545C81.7604 34.0476 82.5135 34.8007 84.0339 34.8007C86.1227 34.8007 87.3731 33.8629 87.3731 32.5272C87.3731 31.5751 86.8474 30.5805 85.8527 29.6995L87.4299 29.3585C88.3962 30.4952 88.8509 31.4899 88.8509 32.6977C88.8509 34.8291 86.9468 36.2216 84.0055 36.2216C81.9451 36.2216 80.3821 35.3264 80.3821 32.9819C80.3821 31.4899 81.0499 27.2129 81.2062 25.2378C81.2489 24.6694 81.2489 24.3994 81.2205 24.1152L82.8119 24.2147ZM78.0376 26.0477C79.2454 26.4456 80.9789 26.6303 82.3146 26.6303C83.4087 26.6303 84.4034 26.5592 85.1849 26.4314L85.1422 27.7812C84.2613 27.8665 83.4513 27.9091 82.2862 27.9091C80.9505 27.9091 79.2311 27.696 77.9523 27.3408L78.0376 26.0477ZM77.6965 29.5716C79.1459 30.069 80.7942 30.1968 82.1583 30.1968C83.0961 30.1968 84.105 30.1542 85.0712 30.0263L85.0428 31.3762C84.1618 31.4615 83.3092 31.5041 82.3714 31.5041C80.6805 31.5041 78.9185 31.3194 77.6255 30.9357L77.6965 29.5716Z" fill="#333333"/>
<path d="M68.2901 25.7355C69.9241 25.9912 72.7802 25.9202 74.2438 25.7213V27.1706C72.6239 27.3411 69.9526 27.3411 68.2901 27.1706V25.7355ZM69.1 31.6466C68.9721 32.1439 68.9011 32.5133 68.9011 32.897C68.9011 33.5364 69.3984 34.0622 71.1319 34.0622C72.3966 34.0622 73.4765 33.9485 74.6701 33.6927L74.6985 35.1989C73.7891 35.3694 72.6239 35.4831 71.0893 35.4831C68.6879 35.4831 67.5654 34.659 67.5654 33.2664C67.5654 32.7549 67.6506 32.2292 67.8069 31.5187L69.1 31.6466ZM65.8034 24.6982C65.7182 24.9682 65.5619 25.5365 65.505 25.7923C65.2777 26.9433 64.8088 29.6146 64.8088 31.135C64.8088 31.6466 64.8372 32.1439 64.9082 32.6554C65.1356 32.0871 65.4198 31.3908 65.6471 30.8508L66.3718 31.4192C65.9882 32.4991 65.4908 34.0195 65.3487 34.73C65.3061 34.9431 65.2777 35.2273 65.2777 35.3836C65.2919 35.5399 65.3061 35.7531 65.3203 35.9236L64.0273 36.0088C63.7431 35.0142 63.4873 33.3375 63.4873 31.405C63.4873 29.302 63.942 26.8864 64.1125 25.7355C64.1551 25.3802 64.212 24.9398 64.2262 24.5703L65.8034 24.6982Z" fill="#333333"/>
<path d="M50.6701 24.7551H51.9916V36.6341H50.6701V24.7551ZM48.0414 27.6254H54.3504V28.9042H48.0414V27.6254ZM50.6986 28.1511L51.5511 28.549C50.8833 30.5952 49.6187 33.1528 48.4109 34.5311C48.2688 34.1475 47.9419 33.5791 47.7146 33.2381C48.8656 32.0729 50.1302 29.8563 50.6986 28.1511ZM53.2989 23.5615L54.2651 24.5562C52.6737 25.2098 50.3718 25.6787 48.3824 25.9487C48.3256 25.6503 48.1409 25.1956 47.9846 24.9114C49.8886 24.613 52.0627 24.1299 53.2989 23.5615ZM51.9206 29.501C52.3895 29.8563 53.9809 31.4051 54.3504 31.7887L53.5404 32.8118C53.0573 32.1156 51.7927 30.6804 51.2243 30.112L51.9206 29.501ZM56.2686 23.7747L57.789 24.0304C57.2207 27.7533 56.226 32.3429 55.3592 35.2985L54.0662 35.0143C54.9187 32.0445 55.8424 27.3412 56.2686 23.7747ZM52.8584 34.7017C54.5919 34.5454 57.377 34.2612 60.0199 33.9628L60.0625 35.199C57.6185 35.54 55.0324 35.8952 53.171 36.1084L52.8584 34.7017ZM57.7464 30.8083L59.0253 30.4246C59.9631 32.2861 60.8725 34.6732 61.1424 36.2221L59.7357 36.6626C59.4942 35.1564 58.6558 32.6981 57.7464 30.8083Z" fill="#333333"/>
</svg>
