<svg width="41" height="41" viewBox="0 0 41 41" fill="none" xmlns="http://www.w3.org/2000/svg">
<path d="M1.62111 0C0.729071 0 0 0.727881 0 1.61847V29.4892C0 30.3798 0.654735 31.4273 1.45814 31.8155L18.5927 40.1362C19.3933 40.5244 20.7085 40.5301 21.5119 40.1448L38.9095 31.807C39.7129 31.4216 40.3705 30.3798 40.3705 29.4892V1.61847C40.3705 0.727881 39.6415 0 38.7494 0H1.62111ZM9.74096 31.2018C6.98193 31.2018 4.74325 28.9668 4.74325 26.2123C4.74325 23.4578 6.98193 21.2227 9.74096 21.2227C12.5 21.2227 14.7387 23.4578 14.7387 26.2123C14.7387 28.9668 12.5 31.2018 9.74096 31.2018ZM30.6667 31.2018C27.9077 31.2018 25.669 28.9668 25.669 26.2123C25.669 23.4578 27.9077 21.2227 30.6667 21.2227C33.4258 21.2227 35.6645 23.4578 35.6645 26.2123C35.6645 28.9668 33.4258 31.2018 30.6667 31.2018ZM34.1577 11.1608V18.1028H23.7048V36.3769H16.3712V17.9744H5.07205L4.92338 10.5785H16.3712V2.84873H23.7048V10.707H28.3995C27.3044 9.79357 26.6068 8.41773 26.6068 6.87919C26.6068 4.12466 28.8455 1.88964 31.6045 1.88964C34.3636 1.88964 36.6022 4.12466 36.6022 6.87919C36.6022 8.70032 35.6216 10.2902 34.1606 11.1608H34.1577Z" fill="#2175D6"/>
</svg>
