<svg width="252" height="195" viewBox="0 0 252 195" fill="none" xmlns="http://www.w3.org/2000/svg">
<g clip-path="url(#clip0_2_5377)">
<path d="M219.227 83.146H137.896V192.31H219.227V83.146Z" fill="white"/>
<path d="M137.878 194.4C136.75 194.391 135.833 193.457 135.833 192.31V83.1462C135.833 82.5935 136.048 82.0594 136.438 81.6692C136.823 81.2744 137.351 81.0562 137.896 81.0562H219.227C219.777 81.0654 220.3 81.2744 220.685 81.6692C221.07 82.0594 221.29 82.5935 221.29 83.1462V192.31C221.29 193.462 220.364 194.4 219.227 194.4H137.896C137.896 194.4 137.887 194.4 137.878 194.4ZM139.96 85.2362V190.22H217.164V85.2362H139.96Z" fill="#3E3A39"/>
<path d="M158.342 110.154H155.211V109.085H158.342C158.562 109.085 158.76 109.02 158.929 108.89C159.191 108.677 159.333 108.375 159.333 108.008C159.333 107.678 159.223 107.399 158.998 107.172C158.819 107 158.595 106.912 158.347 106.912H156.394L158.993 103.145C159.186 102.862 159.287 102.56 159.287 102.249C159.287 101.821 159.113 101.454 158.769 101.167C158.452 100.893 158.076 100.758 157.65 100.758C157.15 100.758 156.724 101.009 156.421 101.487L153.629 105.918L150.841 101.487C150.533 101.013 150.098 100.762 149.584 100.762C149.245 100.762 148.919 100.869 148.621 101.074C148.195 101.352 147.97 101.77 147.97 102.277C147.97 102.578 148.067 102.871 148.264 103.159L150.864 106.926H148.91C148.731 106.926 148.571 106.972 148.424 107.06C148.099 107.265 147.924 107.599 147.924 108.022C147.924 108.333 148.025 108.602 148.227 108.816C148.401 109.002 148.635 109.099 148.91 109.099H152.042V110.168H148.91C148.704 110.168 148.516 110.228 148.369 110.339C148.076 110.544 147.92 110.86 147.92 111.24C147.92 111.57 148.03 111.849 148.255 112.076C148.433 112.248 148.658 112.337 148.906 112.337H152.037V114.696C152.037 114.961 152.102 115.198 152.225 115.402C152.514 115.862 152.977 116.094 153.615 116.094C154.133 116.094 154.555 115.931 154.871 115.602C155.096 115.355 155.211 115.054 155.211 114.696V112.337H158.342C158.521 112.337 158.682 112.29 158.828 112.202C159.154 111.997 159.328 111.668 159.328 111.25C159.328 110.901 159.2 110.609 158.957 110.4C158.783 110.246 158.576 110.168 158.342 110.168V110.154Z" fill="#3E3A39"/>
<path d="M210.749 95.0498H181.897V102.332H210.749V95.0498Z" fill="#FFE366"/>
<path d="M206.837 126.577H147.209V139.354H206.837V126.577Z" fill="#FFE366"/>
<path d="M207.975 181.674H147.053C145.976 181.674 145.1 180.787 145.1 179.696V126.582C145.1 125.49 145.976 124.603 147.053 124.603H207.975C209.052 124.603 209.928 125.49 209.928 126.582V179.696C209.928 180.787 209.052 181.674 207.975 181.674ZM149.007 177.717H206.021V128.56H149.007V177.717Z" fill="#3E3A39"/>
<path d="M209.543 109.267H194.668C193.792 109.267 193.081 108.547 193.081 107.66C193.081 106.773 193.792 106.053 194.668 106.053H209.543C210.418 106.053 211.129 106.773 211.129 107.66C211.129 108.547 210.418 109.267 209.543 109.267Z" fill="#3E3A39"/>
<path d="M209.543 114.292H194.668C193.792 114.292 193.081 113.572 193.081 112.685C193.081 111.798 193.792 111.078 194.668 111.078H209.543C210.418 111.078 211.129 111.798 211.129 112.685C211.129 113.572 210.418 114.292 209.543 114.292Z" fill="#3E3A39"/>
<path d="M183.851 121.444H148.699C147.824 121.444 147.113 120.725 147.113 119.837C147.113 118.95 147.824 118.23 148.699 118.23H183.855C184.731 118.23 185.442 118.95 185.442 119.837C185.442 120.725 184.731 121.444 183.855 121.444H183.851Z" fill="#3E3A39"/>
<path d="M206.792 140.965H148.429C147.553 140.965 146.842 140.246 146.842 139.358C146.842 138.471 147.553 137.751 148.429 137.751H206.792C207.667 137.751 208.378 138.471 208.378 139.358C208.378 140.246 207.667 140.965 206.792 140.965Z" fill="#3E3A39"/>
<path d="M206.636 150.988H148.273C147.397 150.988 146.686 150.268 146.686 149.381C146.686 148.494 147.397 147.774 148.273 147.774H206.636C207.511 147.774 208.222 148.494 208.222 149.381C208.222 150.268 207.511 150.988 206.636 150.988Z" fill="#3E3A39"/>
<path d="M206.636 161.011H148.273C147.397 161.011 146.686 160.291 146.686 159.404C146.686 158.517 147.397 157.797 148.273 157.797H206.636C207.511 157.797 208.222 158.517 208.222 159.404C208.222 160.291 207.511 161.011 206.636 161.011Z" fill="#3E3A39"/>
<path d="M206.636 171.029H148.273C147.397 171.029 146.686 170.309 146.686 169.422C146.686 168.535 147.397 167.815 148.273 167.815H206.636C207.511 167.815 208.222 168.535 208.222 169.422C208.222 170.309 207.511 171.029 206.636 171.029Z" fill="#3E3A39"/>
<path d="M167.522 181.224C166.647 181.224 165.936 180.504 165.936 179.617V127.376C165.936 126.488 166.647 125.769 167.522 125.769C168.398 125.769 169.109 126.488 169.109 127.376V179.617C169.109 180.504 168.398 181.224 167.522 181.224Z" fill="#3E3A39"/>
</g>
<path d="M227.825 57.4915C215.71 56.4061 204.825 65.5321 203.512 77.8764C202.72 85.3166 205.603 92.2143 210.662 96.7667L207.798 103.837L215.495 100.039C217.804 101.177 220.342 101.942 223.069 102.187C235.184 103.272 246.068 94.146 247.382 81.8017C248.695 69.4573 239.94 58.5719 227.825 57.4866L227.825 57.4915Z" fill="#FFE366"/>
<path d="M207.589 105.782C207.178 105.745 206.781 105.57 206.466 105.273C205.893 104.728 205.72 103.876 206.024 103.126L208.385 97.2959C203.349 92.2024 200.828 84.9782 201.602 77.7006C203.028 64.3049 214.885 54.364 228.032 55.5418C241.179 56.7196 250.715 68.5771 249.29 81.9728C247.864 95.3685 236.008 105.309 222.861 104.132C220.319 103.904 217.841 103.253 215.479 102.2L208.607 105.589C208.282 105.749 207.933 105.813 207.589 105.782ZM227.617 59.4347C216.577 58.4457 206.615 66.793 205.418 78.0425C204.727 84.5405 207.17 90.9856 211.952 95.2893C212.554 95.8314 212.75 96.7056 212.438 97.4747L211.464 99.8729L214.689 98.284C215.22 98.0227 215.841 98.0186 216.366 98.2798C218.567 99.3686 220.893 100.025 223.28 100.239C234.321 101.228 244.277 92.8804 245.475 81.626C246.672 70.3716 238.663 60.4193 227.623 59.4302L227.617 59.4347Z" fill="#333333"/>
<path d="M220.808 88.9906C220.262 88.9397 219.736 88.6968 219.331 88.2712L213.015 81.5753C212.118 80.6263 212.164 79.1186 213.114 78.2024C214.064 77.2862 215.557 77.3157 216.454 78.2647L221.314 83.4174L235.249 72.5493C236.287 71.7407 237.769 71.9235 238.562 72.9673C239.352 74.0057 239.154 75.5042 238.111 76.3173L222.481 88.5048C221.984 88.8912 221.387 89.0544 220.807 89.0004L220.808 88.9906Z" fill="#333333"/>
<path d="M57.1367 125.407C88.6924 131.027 118.83 110.002 124.45 78.4464C130.07 46.8907 109.046 16.7535 77.4898 11.1331C45.9341 5.51275 15.7969 26.5375 10.1766 58.0932C4.5562 89.649 25.581 119.786 57.1367 125.407Z" fill="#BED7F4"/>
<path d="M122.217 118.377L90.5137 109.818L113.914 86.6053L122.217 118.377Z" fill="#BED7F4"/>
<path d="M98.0032 42.4927H68.6738V105.082H98.0032V42.4927Z" fill="white"/>
<path d="M98.0032 106.393H68.6738C67.9499 106.393 67.3636 105.807 67.3636 105.083V42.4933C67.3636 41.7693 67.9499 41.1831 68.6738 41.1831H98.0032C98.7272 41.1831 99.3134 41.7693 99.3134 42.4933V105.083C99.3134 105.807 98.7272 106.393 98.0032 106.393ZM69.984 103.769H96.693V43.8035H69.984V103.769Z" fill="#333333"/>
<path d="M92.3916 51.7771H88.2809C87.5569 51.7771 86.9707 51.1909 86.9707 50.4669C86.9707 49.743 87.5569 49.1567 88.2809 49.1567H92.3916C93.1156 49.1567 93.7018 49.743 93.7018 50.4669C93.7018 51.1909 93.1156 51.7771 92.3916 51.7771Z" fill="#333333"/>
<path d="M83.4921 51.7771H74.5891C73.8652 51.7771 73.2789 51.1909 73.2789 50.4669C73.2789 49.743 73.8652 49.1567 74.5891 49.1567H83.4921C84.2161 49.1567 84.8023 49.743 84.8023 50.4669C84.8023 51.1909 84.2161 51.7771 83.4921 51.7771Z" fill="#333333"/>
<path d="M92.3916 56.93H88.2809C87.5569 56.93 86.9707 56.3437 86.9707 55.6198C86.9707 54.8958 87.5569 54.3096 88.2809 54.3096H92.3916C93.1156 54.3096 93.7018 54.8958 93.7018 55.6198C93.7018 56.3437 93.1156 56.93 92.3916 56.93Z" fill="#333333"/>
<path d="M83.4921 56.93H74.5891C73.8652 56.93 73.2789 56.3437 73.2789 55.6198C73.2789 54.8958 73.8652 54.3096 74.5891 54.3096H83.4921C84.2161 54.3096 84.8023 54.8958 84.8023 55.6198C84.8023 56.3437 84.2161 56.93 83.4921 56.93Z" fill="#333333"/>
<path d="M92.3916 62.0794H88.2809C87.5569 62.0794 86.9707 61.4931 86.9707 60.7692C86.9707 60.0452 87.5569 59.459 88.2809 59.459H92.3916C93.1156 59.459 93.7018 60.0452 93.7018 60.7692C93.7018 61.4931 93.1156 62.0794 92.3916 62.0794Z" fill="#333333"/>
<path d="M83.4921 62.0794H74.5891C73.8652 62.0794 73.2789 61.4931 73.2789 60.7692C73.2789 60.0452 73.8652 59.459 74.5891 59.459H83.4921C84.2161 59.459 84.8023 60.0452 84.8023 60.7692C84.8023 61.4931 84.2161 62.0794 83.4921 62.0794Z" fill="#333333"/>
<path d="M92.3916 67.2278H88.2809C87.5569 67.2278 86.9707 66.6416 86.9707 65.9176C86.9707 65.1937 87.5569 64.6074 88.2809 64.6074H92.3916C93.1156 64.6074 93.7018 65.1937 93.7018 65.9176C93.7018 66.6416 93.1156 67.2278 92.3916 67.2278Z" fill="#333333"/>
<path d="M83.4921 67.2278H74.5891C73.8652 67.2278 73.2789 66.6416 73.2789 65.9176C73.2789 65.1937 73.8652 64.6074 74.5891 64.6074H83.4921C84.2161 64.6074 84.8023 65.1937 84.8023 65.9176C84.8023 66.6416 84.2161 67.2278 83.4921 67.2278Z" fill="#333333"/>
<path d="M92.3916 72.3807H88.2809C87.5569 72.3807 86.9707 71.7944 86.9707 71.0705C86.9707 70.3465 87.5569 69.7603 88.2809 69.7603H92.3916C93.1156 69.7603 93.7018 70.3465 93.7018 71.0705C93.7018 71.7944 93.1156 72.3807 92.3916 72.3807Z" fill="#333333"/>
<path d="M83.4921 72.3807H74.5891C73.8652 72.3807 73.2789 71.7944 73.2789 71.0705C73.2789 70.3465 73.8652 69.7603 74.5891 69.7603H83.4921C84.2161 69.7603 84.8023 70.3465 84.8023 71.0705C84.8023 71.7944 84.2161 72.3807 83.4921 72.3807Z" fill="#333333"/>
<path d="M92.3916 77.5296H88.2809C87.5569 77.5296 86.9707 76.9433 86.9707 76.2194C86.9707 75.4954 87.5569 74.9092 88.2809 74.9092H92.3916C93.1156 74.9092 93.7018 75.4954 93.7018 76.2194C93.7018 76.9433 93.1156 77.5296 92.3916 77.5296Z" fill="#333333"/>
<path d="M83.4921 77.5296H74.5891C73.8652 77.5296 73.2789 76.9433 73.2789 76.2194C73.2789 75.4954 73.8652 74.9092 74.5891 74.9092H83.4921C84.2161 74.9092 84.8023 75.4954 84.8023 76.2194C84.8023 76.9433 84.2161 77.5296 83.4921 77.5296Z" fill="#333333"/>
<path d="M92.7306 82.6819H74.5856C73.8616 82.6819 73.2754 82.0957 73.2754 81.3717C73.2754 80.6478 73.8616 80.0615 74.5856 80.0615H92.7306C93.4546 80.0615 94.0408 80.6478 94.0408 81.3717C94.0408 82.0957 93.4546 82.6819 92.7306 82.6819Z" fill="#333333"/>
<path d="M74.2501 100.718C73.5262 100.718 72.9399 100.131 72.9399 99.4074V91.525C72.9399 90.8011 73.5262 90.2148 74.2501 90.2148C74.9741 90.2148 75.5603 90.8011 75.5603 91.525V99.4074C75.5603 100.131 74.9741 100.718 74.2501 100.718Z" fill="#333333"/>
<path d="M78.8694 100.718C78.1454 100.718 77.5592 100.131 77.5592 99.4074V91.525C77.5592 90.8011 78.1454 90.2148 78.8694 90.2148C79.5934 90.2148 80.1796 90.8011 80.1796 91.525V99.4074C80.1796 100.131 79.5934 100.718 78.8694 100.718Z" fill="#333333"/>
<path d="M83.4922 100.718C82.7682 100.718 82.182 100.131 82.182 99.4074V91.525C82.182 90.8011 82.7682 90.2148 83.4922 90.2148C84.2162 90.2148 84.8024 90.8011 84.8024 91.525V99.4074C84.8024 100.131 84.2162 100.718 83.4922 100.718Z" fill="#333333"/>
<path d="M88.1113 100.718C87.3874 100.718 86.8011 100.131 86.8011 99.4074V91.525C86.8011 90.8011 87.3874 90.2148 88.1113 90.2148C88.8353 90.2148 89.4215 90.8011 89.4215 91.525V99.4074C89.4215 100.131 88.8353 100.718 88.1113 100.718Z" fill="#333333"/>
<path d="M92.7306 100.718C92.0066 100.718 91.4204 100.131 91.4204 99.4074V91.525C91.4204 90.8011 92.0066 90.2148 92.7306 90.2148C93.4546 90.2148 94.0408 90.8011 94.0408 91.525V99.4074C94.0408 100.131 93.4546 100.718 92.7306 100.718Z" fill="#333333"/>
<path d="M92.3916 87.5872H84.1666C83.4427 87.5872 82.8564 87.001 82.8564 86.277C82.8564 85.553 83.4427 84.9668 84.1666 84.9668H92.3916C93.1155 84.9668 93.7018 85.553 93.7018 86.277C93.7018 87.001 93.1155 87.5872 92.3916 87.5872Z" fill="#333333"/>
<path d="M71.4525 31.0088L46.7071 31.0088C40.5906 31.0088 35.6322 35.9672 35.6322 42.0837L35.6322 81.538C35.6322 87.6545 40.5906 92.6129 46.7071 92.6129H71.4525C77.569 92.6129 82.5274 87.6545 82.5274 81.538V42.0837C82.5274 35.9672 77.569 31.0088 71.4525 31.0088Z" fill="#FFE366"/>
<path d="M75.8069 39.5156H42.3527V48.521H75.8069V39.5156Z" fill="white"/>
<path d="M74.0058 93.8345H44.1573C38.7823 93.8345 34.4103 89.4625 34.4103 84.0875L34.4103 39.5337C34.4103 34.1587 38.7823 29.7866 44.1573 29.7866L74.0058 29.7866C79.3808 29.7866 83.7528 34.1587 83.7528 39.5337V84.0875C83.7528 89.4625 79.3808 93.8345 74.0058 93.8345ZM44.1573 32.2304C40.1314 32.2304 36.8576 35.5042 36.8576 39.5301L36.8576 84.0839C36.8576 88.1099 40.1314 91.3836 44.1573 91.3836H74.0058C78.0318 91.3836 81.3055 88.1099 81.3055 84.0839V39.5301C81.3055 35.5042 78.0318 32.2304 74.0058 32.2304H44.1573Z" fill="#333333"/>
<path d="M75.8104 49.7471H42.3562C41.6817 49.7471 41.1343 49.1997 41.1343 48.5252V39.5198C41.1343 38.8452 41.6817 38.2979 42.3562 38.2979H75.8104C76.4849 38.2979 77.0323 38.8452 77.0323 39.5198V48.5252C77.0323 49.1997 76.4849 49.7471 75.8104 49.7471ZM43.5781 47.2997H74.585V40.7381H43.5781V47.2997Z" fill="#333333"/>
<path d="M49.4934 55.0161H43.225V61.2846H49.4934V55.0161Z" fill="white"/>
<path d="M49.4934 62.5062H43.225C42.5504 62.5062 42.0031 61.9588 42.0031 61.2843V55.0159C42.0031 54.3413 42.5504 53.7939 43.225 53.7939H49.4934C50.168 53.7939 50.7153 54.3413 50.7153 55.0159V61.2843C50.7153 61.9588 50.168 62.5062 49.4934 62.5062ZM44.4504 60.0589H48.2715V56.2378H44.4504V60.0589Z" fill="#333333"/>
<path d="M62.2176 55.0161H55.9491V61.2846H62.2176V55.0161Z" fill="white"/>
<path d="M62.214 62.5062H55.9455C55.271 62.5062 54.7236 61.9588 54.7236 61.2843V55.0159C54.7236 54.3413 55.271 53.7939 55.9455 53.7939H62.214C62.8885 53.7939 63.4359 54.3413 63.4359 55.0159V61.2843C63.4359 61.9588 62.8885 62.5062 62.214 62.5062ZM57.171 60.0589H60.9921V56.2378H57.171V60.0589Z" fill="#333333"/>
<path d="M74.9381 55.0161H68.6697V61.2846H74.9381V55.0161Z" fill="white"/>
<path d="M74.9381 62.5062H68.6697C67.9951 62.5062 67.4478 61.9588 67.4478 61.2843V55.0159C67.4478 54.3413 67.9951 53.7939 68.6697 53.7939H74.9381C75.6127 53.7939 76.16 54.3413 76.16 55.0159V61.2843C76.16 61.9588 75.6127 62.5062 74.9381 62.5062ZM69.8951 60.0589H73.7162V56.2378H69.8951V60.0589Z" fill="#333333"/>
<path d="M49.4934 65.6704H43.225V71.9389H49.4934V65.6704Z" fill="white"/>
<path d="M49.4934 73.161H43.225C42.5504 73.161 42.0031 72.6136 42.0031 71.9391V65.6706C42.0031 64.9961 42.5504 64.4487 43.225 64.4487H49.4934C50.168 64.4487 50.7153 64.9961 50.7153 65.6706V71.9391C50.7153 72.6136 50.168 73.161 49.4934 73.161ZM44.4504 70.7137H48.2715V66.8926H44.4504V70.7137Z" fill="#333333"/>
<path d="M62.2176 65.6704H55.9491V71.9389H62.2176V65.6704Z" fill="white"/>
<path d="M62.214 73.161H55.9455C55.271 73.161 54.7236 72.6136 54.7236 71.9391V65.6706C54.7236 64.9961 55.271 64.4487 55.9455 64.4487H62.214C62.8885 64.4487 63.4359 64.9961 63.4359 65.6706V71.9391C63.4359 72.6136 62.8885 73.161 62.214 73.161ZM57.171 70.7137H60.9921V66.8926H57.171V70.7137Z" fill="#333333"/>
<path d="M74.9381 65.6704H68.6697V71.9389H74.9381V65.6704Z" fill="white"/>
<path d="M74.9381 73.161H68.6697C67.9951 73.161 67.4478 72.6136 67.4478 71.9391V65.6706C67.4478 64.9961 67.9951 64.4487 68.6697 64.4487H74.9381C75.6127 64.4487 76.16 64.9961 76.16 65.6706V71.9391C76.16 72.6136 75.6127 73.161 74.9381 73.161ZM69.8951 70.7137H73.7162V66.8926H69.8951V70.7137Z" fill="#333333"/>
<path d="M49.4934 76.3252H43.225V82.5937H49.4934V76.3252Z" fill="white"/>
<path d="M49.4934 83.8153H43.225C42.5504 83.8153 42.0031 83.2679 42.0031 82.5934V76.3249C42.0031 75.6504 42.5504 75.103 43.225 75.103H49.4934C50.168 75.103 50.7153 75.6504 50.7153 76.3249V82.5934C50.7153 83.2679 50.168 83.8153 49.4934 83.8153ZM44.4504 81.368H48.2715V77.5468H44.4504V81.368Z" fill="#333333"/>
<path d="M62.2176 76.3252H55.9491V82.5937H62.2176V76.3252Z" fill="white"/>
<path d="M62.214 83.8153H55.9455C55.271 83.8153 54.7236 83.2679 54.7236 82.5934V76.3249C54.7236 75.6504 55.271 75.103 55.9455 75.103H62.214C62.8885 75.103 63.4359 75.6504 63.4359 76.3249V82.5934C63.4359 83.2679 62.8885 83.8153 62.214 83.8153ZM57.171 81.368H60.9921V77.5468H57.171V81.368Z" fill="#333333"/>
<path d="M74.9381 76.3252H68.6697V82.5937H74.9381V76.3252Z" fill="white"/>
<path d="M74.9381 83.8153H68.6697C67.9951 83.8153 67.4478 83.2679 67.4478 82.5934V76.3249C67.4478 75.6504 67.9951 75.103 68.6697 75.103H74.9381C75.6127 75.103 76.16 75.6504 76.16 76.3249V82.5934C76.16 83.2679 75.6127 83.8153 74.9381 83.8153ZM69.8951 81.368H73.7162V77.5468H69.8951V81.368Z" fill="#333333"/>
<defs>
<clipPath id="clip0_2_5377">
<rect width="85.4577" height="113.344" fill="white" transform="translate(135.833 81.0562)"/>
</clipPath>
</defs>
</svg>
