<svg width="311" height="135" viewBox="0 0 311 135" fill="none" xmlns="http://www.w3.org/2000/svg">
<g clip-path="url(#clip0_18_18462)">
<path d="M87.3276 2.18408H2.31641V116.268H87.3276V2.18408Z" fill="white"/>
<path d="M2.29729 118.452C1.11824 118.443 0.159668 117.467 0.159668 116.268V2.18422C0.159668 1.60661 0.384933 1.04842 0.792327 0.640703C1.19493 0.228129 1.74611 0 2.31646 0H87.3277C87.9028 0.00970762 88.4492 0.228129 88.8518 0.640703C89.2544 1.04842 89.4845 1.60661 89.4845 2.18422V116.268C89.4845 117.472 88.5163 118.452 87.3277 118.452H2.31646C2.31646 118.452 2.30688 118.452 2.29729 118.452ZM4.47325 4.36843V114.084H85.1709V4.36843H4.47325Z" fill="#3E3A39"/>
<path d="M23.6879 30.4091H20.4144V29.2927H23.6879C23.918 29.2927 24.1241 29.2248 24.3014 29.0889C24.5746 28.8656 24.7232 28.5501 24.7232 28.1666C24.7232 27.822 24.6081 27.5308 24.3733 27.293C24.1864 27.1134 23.9515 27.0211 23.6927 27.0211H21.6509L24.3685 23.0847C24.5698 22.7886 24.6752 22.4731 24.6752 22.1479C24.6752 21.7014 24.4931 21.3179 24.1336 21.017C23.8029 20.7306 23.4099 20.5898 22.9642 20.5898C22.4418 20.5898 21.996 20.852 21.6797 21.3519L18.7608 25.9824L15.8468 21.3519C15.5256 20.8568 15.0703 20.5947 14.5335 20.5947C14.1788 20.5947 13.8385 20.7063 13.527 20.9199C13.0813 21.2111 12.8464 21.648 12.8464 22.177C12.8464 22.4925 12.9471 22.7983 13.1532 23.0993L15.8707 27.0357H13.829C13.642 27.0357 13.4743 27.0842 13.3209 27.1765C12.9806 27.39 12.7985 27.7395 12.7985 28.1812C12.7985 28.5064 12.9039 28.7879 13.1148 29.0112C13.297 29.2054 13.5414 29.3073 13.829 29.3073H17.1025V30.4237H13.829C13.6133 30.4237 13.4168 30.4868 13.2634 30.6033C12.9567 30.8168 12.7937 31.1469 12.7937 31.5449C12.7937 31.8895 12.9087 32.1808 13.1436 32.4186C13.3305 32.5982 13.5654 32.6904 13.8242 32.6904H17.0977V35.1561C17.0977 35.4328 17.1648 35.6803 17.2942 35.8939C17.5962 36.3744 18.0802 36.6171 18.7464 36.6171C19.288 36.6171 19.729 36.4473 20.0597 36.1026C20.2945 35.8454 20.4144 35.5299 20.4144 35.1561V32.6904H23.6879C23.8748 32.6904 24.0426 32.6419 24.1959 32.5496C24.5362 32.3361 24.7184 31.9915 24.7184 31.5546C24.7184 31.1906 24.5842 30.8848 24.3301 30.6664C24.148 30.5062 23.9323 30.4237 23.6879 30.4237V30.4091Z" fill="#3E3A39"/>
<path d="M78.4656 14.6245H48.3088V22.2353H78.4656V14.6245Z" fill="#FFE366"/>
<path d="M74.3773 47.5723H12.0508V60.9251H74.3773V47.5723Z" fill="#FFE366"/>
<path d="M75.566 105.153H11.8878C10.7615 105.153 9.84607 104.226 9.84607 103.085V47.577C9.84607 46.4364 10.7615 45.5093 11.8878 45.5093H75.566C76.6923 45.5093 77.6077 46.4364 77.6077 47.577V103.085C77.6077 104.226 76.6923 105.153 75.566 105.153ZM13.9296 101.017H73.5242V49.6447H13.9296V101.017Z" fill="#3E3A39"/>
<path d="M77.2051 29.4819H61.657C60.7416 29.4819 59.9987 28.7295 59.9987 27.8025C59.9987 26.8754 60.7416 26.123 61.657 26.123H77.2051C78.1205 26.123 78.8634 26.8754 78.8634 27.8025C78.8634 28.7295 78.1205 29.4819 77.2051 29.4819Z" fill="#3E3A39"/>
<path d="M77.2051 34.7338H61.657C60.7416 34.7338 59.9987 33.9815 59.9987 33.0544C59.9987 32.1273 60.7416 31.375 61.657 31.375H77.2051C78.1205 31.375 78.8634 32.1273 78.8634 33.0544C78.8634 33.9815 78.1205 34.7338 77.2051 34.7338Z" fill="#3E3A39"/>
<path d="M50.3507 42.2089H13.6085C12.6931 42.2089 11.9502 41.4566 11.9502 40.5295C11.9502 39.6024 12.6931 38.8501 13.6085 38.8501H50.3555C51.2709 38.8501 52.0138 39.6024 52.0138 40.5295C52.0138 41.4566 51.2709 42.2089 50.3555 42.2089H50.3507Z" fill="#3E3A39"/>
<path d="M74.3294 62.6093H13.3257C12.4103 62.6093 11.6674 61.857 11.6674 60.9299C11.6674 60.0028 12.4103 59.2505 13.3257 59.2505H74.3294C75.2448 59.2505 75.9877 60.0028 75.9877 60.9299C75.9877 61.857 75.2448 62.6093 74.3294 62.6093Z" fill="#3E3A39"/>
<path d="M74.1664 73.0839H13.1627C12.2473 73.0839 11.5044 72.3316 11.5044 71.4045C11.5044 70.4774 12.2473 69.7251 13.1627 69.7251H74.1664C75.0819 69.7251 75.8248 70.4774 75.8248 71.4045C75.8248 72.3316 75.0819 73.0839 74.1664 73.0839Z" fill="#3E3A39"/>
<path d="M74.1664 83.5585H13.1627C12.2473 83.5585 11.5044 82.8062 11.5044 81.8791C11.5044 80.9521 12.2473 80.1997 13.1627 80.1997H74.1664C75.0819 80.1997 75.8248 80.9521 75.8248 81.8791C75.8248 82.8062 75.0819 83.5585 74.1664 83.5585Z" fill="#3E3A39"/>
<path d="M74.1664 94.0283H13.1627C12.2473 94.0283 11.5044 93.2759 11.5044 92.3488C11.5044 91.4218 12.2473 90.6694 13.1627 90.6694H74.1664C75.0819 90.6694 75.8248 91.4218 75.8248 92.3488C75.8248 93.2759 75.0819 94.0283 74.1664 94.0283Z" fill="#3E3A39"/>
<path d="M33.2832 104.682C32.3678 104.682 31.6249 103.93 31.6249 103.003V48.407C31.6249 47.4799 32.3678 46.7275 33.2832 46.7275C34.1987 46.7275 34.9415 47.4799 34.9415 48.407V103.003C34.9415 103.93 34.1987 104.682 33.2832 104.682Z" fill="#3E3A39"/>
</g>
<path d="M77.7026 79.4741L63.9042 72.4414L67.6997 86.9184L77.7026 79.4741Z" fill="white"/>
<path d="M67.6556 88.4775C67.4959 88.4708 67.3367 88.4432 67.1838 88.3842C66.6825 88.2055 66.2997 87.7953 66.1649 87.285L62.3696 72.8087C62.2159 72.2136 62.4255 71.5864 62.9053 71.2071C63.3905 70.828 64.0585 70.7666 64.61 71.0525L78.4079 78.0849C78.8966 78.3314 79.2243 78.8076 79.273 79.3458C79.327 79.8841 79.0939 80.4 78.6636 80.7236L68.6611 88.1675C68.3671 88.3865 68.0123 88.4925 67.6503 88.4773L67.6556 88.4775ZM66.3146 75.418L68.6282 84.2504L74.7321 79.7074L66.3148 75.4128L66.3146 75.418Z" fill="#333333"/>
<path d="M67.6328 87.1927L77.3966 79.4878L113.786 124.111L104.266 132.074L67.6328 87.1927Z" fill="#FFE366"/>
<path d="M104.222 133.638C104.19 133.637 104.158 133.636 104.126 133.634C103.7 133.59 103.307 133.379 103.039 133.047L66.4072 88.1679C65.8558 87.4928 65.9583 86.5085 66.6347 85.9742L76.398 78.2696C76.7253 78.0099 77.1445 77.896 77.559 77.9449C77.9789 77.994 78.3622 78.2047 78.625 78.5259L115.013 123.148C115.554 123.812 115.468 124.771 114.818 125.317L105.304 133.284C105.003 133.534 104.616 133.665 104.227 133.649L104.222 133.638ZM69.8615 87.4555L104.462 129.847L111.579 123.887L77.1652 81.6829L69.8616 87.4503L69.8615 87.4555Z" fill="#333333"/>
<path d="M70.2938 75.7381C70.2938 75.7381 69.2696 78.9377 65.7983 78.842L63.8646 72.5386L70.294 75.7328L70.2938 75.7381Z" fill="#333333"/>
<path d="M110.468 128.17C110.149 128.158 109.835 128.014 109.615 127.741L73.9804 83.7735C73.5863 83.2835 73.6616 82.5739 74.147 82.1808C74.6376 81.7931 75.3528 81.8732 75.7523 82.3582L111.386 126.326C111.78 126.816 111.705 127.526 111.22 127.919C110.996 128.095 110.733 128.175 110.468 128.165L110.468 128.17Z" fill="#333333"/>
<path d="M107.641 130.444C107.322 130.432 107.008 130.288 106.788 130.016L71.1537 86.0479C70.7597 85.5579 70.835 84.8483 71.3204 84.4552C71.8109 84.0675 72.5261 84.1476 72.9256 84.6326L108.56 128.601C108.954 129.091 108.879 129.8 108.393 130.193C108.17 130.369 107.907 130.449 107.641 130.439L107.641 130.444Z" fill="#333333"/>
<path fill-rule="evenodd" clip-rule="evenodd" d="M125.45 7.76709C122.137 7.76709 119.45 10.4534 119.45 13.7671V39.4038L105.99 47.0648L119.45 54.7258V81.3826C119.45 84.6963 122.137 87.3826 125.45 87.3826H305C308.314 87.3826 311 84.6963 311 81.3826V13.7671C311 10.4534 308.314 7.76709 305 7.76709H125.45Z" fill="#BED7F4"/>
<path d="M261.189 40.2919V38.9964H263.385V32.0145H261.585V31.019C262.526 30.8417 263.194 30.6099 263.767 30.2417H264.953V38.9964H266.917V40.2919H261.189Z" fill="black"/>
<path d="M255.853 40.4687C253.889 40.4687 252.608 38.7232 252.608 35.2322C252.608 31.7549 253.889 30.064 255.853 30.064C257.817 30.064 259.099 31.7685 259.099 35.2322C259.099 38.7232 257.817 40.4687 255.853 40.4687ZM255.853 39.2278C256.876 39.2278 257.599 38.1368 257.599 35.2322C257.599 32.3549 256.876 31.3049 255.853 31.3049C254.83 31.3049 254.108 32.3549 254.108 35.2322C254.108 38.1368 254.83 39.2278 255.853 39.2278Z" fill="black"/>
<path d="M247.803 40.4687C245.839 40.4687 244.558 38.7232 244.558 35.2322C244.558 31.7549 245.839 30.064 247.803 30.064C249.767 30.064 251.049 31.7685 251.049 35.2322C251.049 38.7232 249.767 40.4687 247.803 40.4687ZM247.803 39.2278C248.826 39.2278 249.549 38.1368 249.549 35.2322C249.549 32.3549 248.826 31.3049 247.803 31.3049C246.78 31.3049 246.058 32.3549 246.058 35.2322C246.058 38.1368 246.78 39.2278 247.803 39.2278Z" fill="black"/>
<path d="M239.753 40.4687C237.79 40.4687 236.508 38.7232 236.508 35.2322C236.508 31.7549 237.79 30.064 239.753 30.064C241.717 30.064 242.999 31.7685 242.999 35.2322C242.999 38.7232 241.717 40.4687 239.753 40.4687ZM239.753 39.2278C240.776 39.2278 241.499 38.1368 241.499 35.2322C241.499 32.3549 240.776 31.3049 239.753 31.3049C238.731 31.3049 238.008 32.3549 238.008 35.2322C238.008 38.1368 238.731 39.2278 239.753 39.2278Z" fill="black"/>
<path d="M231.704 40.4687C229.74 40.4687 228.458 38.7232 228.458 35.2322C228.458 31.7549 229.74 30.064 231.704 30.064C233.667 30.064 234.949 31.7685 234.949 35.2322C234.949 38.7232 233.667 40.4687 231.704 40.4687ZM231.704 39.2278C232.726 39.2278 233.449 38.1368 233.449 35.2322C233.449 32.3549 232.726 31.3049 231.704 31.3049C230.681 31.3049 229.958 32.3549 229.958 35.2322C229.958 38.1368 230.681 39.2278 231.704 39.2278Z" fill="black"/>
<path d="M223.654 40.4687C221.69 40.4687 220.408 38.7232 220.408 35.2322C220.408 31.7549 221.69 30.064 223.654 30.064C225.617 30.064 226.899 31.7685 226.899 35.2322C226.899 38.7232 225.617 40.4687 223.654 40.4687ZM223.654 39.2278C224.676 39.2278 225.399 38.1368 225.399 35.2322C225.399 32.3549 224.676 31.3049 223.654 31.3049C222.631 31.3049 221.908 32.3549 221.908 35.2322C221.908 38.1368 222.631 39.2278 223.654 39.2278Z" fill="black"/>
<path d="M215.604 40.4687C213.64 40.4687 212.358 38.7232 212.358 35.2322C212.358 31.7549 213.64 30.064 215.604 30.064C217.567 30.064 218.849 31.7685 218.849 35.2322C218.849 38.7232 217.567 40.4687 215.604 40.4687ZM215.604 39.2278C216.627 39.2278 217.349 38.1368 217.349 35.2322C217.349 32.3549 216.627 31.3049 215.604 31.3049C214.581 31.3049 213.858 32.3549 213.858 35.2322C213.858 38.1368 214.581 39.2278 215.604 39.2278Z" fill="black"/>
<path d="M209.415 35.1095C208.828 35.1095 208.365 34.6459 208.365 34.0186C208.365 33.3777 208.828 32.9004 209.415 32.9004C210.001 32.9004 210.465 33.3777 210.465 34.0186C210.465 34.6459 210.001 35.1095 209.415 35.1095ZM209.415 40.4687C208.828 40.4687 208.365 40.0187 208.365 39.3778C208.365 38.7232 208.828 38.2596 209.415 38.2596C210.001 38.2596 210.465 38.7232 210.465 39.3778C210.465 40.0187 210.001 40.4687 209.415 40.4687Z" fill="black"/>
<path d="M203.401 32.3551V30.4869H197.251V32.3551H203.401ZM204.71 29.3687V33.4596H196.01V29.3687H204.71ZM206.346 35.5188H198.383C198.274 35.8597 198.165 36.2006 198.042 36.5415H204.737C204.737 36.5415 204.71 36.9233 204.669 37.1006C204.356 39.4052 204.028 40.4688 203.524 40.9188C203.169 41.2325 202.787 41.3279 202.228 41.3552C201.751 41.3825 200.851 41.3688 199.91 41.3279C199.896 40.9598 199.719 40.4552 199.46 40.1143C200.401 40.1961 201.396 40.2097 201.778 40.2097C202.092 40.2097 202.269 40.1961 202.446 40.087C202.76 39.8416 203.019 39.1188 203.237 37.7006H197.633C197.524 38.0006 197.415 38.287 197.319 38.5324L195.942 38.3279C196.269 37.5915 196.651 36.5142 196.978 35.5188H194.196V34.3733H206.346V35.5188Z" fill="black"/>
<path d="M182.755 36.1051H190.051C188.905 35.5187 187.814 34.7415 186.969 33.896V35.8733H185.714V33.9505C184.896 34.7551 183.846 35.5051 182.755 36.1051ZM186.955 39.9506H189.546V38.9279H186.955V39.9506ZM183.355 38.9279V39.9506H185.755V38.9279H183.355ZM185.755 38.0551V37.1006H183.355V38.0551H185.755ZM189.546 38.0551V37.1006H186.955V38.0551H189.546ZM185.714 32.5732V30.6096C184.978 30.6641 184.228 30.705 183.492 30.7459C183.887 31.2505 184.283 31.8914 184.446 32.3551L183.887 32.5732H185.714ZM192.383 33.6369H188.21C189.424 34.5778 191.155 35.396 192.764 35.8324C192.492 36.0778 192.11 36.5688 191.933 36.896C191.564 36.7733 191.183 36.6369 190.814 36.4733V41.3279H189.546V40.9325H183.355V41.3825H182.128V36.4324C181.705 36.6369 181.269 36.8142 180.86 36.9642C180.696 36.6779 180.328 36.2278 180.055 35.9824C181.582 35.5051 183.273 34.6324 184.46 33.6369H180.41V32.5732H183.205C183.014 32.1096 182.646 31.4959 182.305 31.0323L183.028 30.7596C182.496 30.7868 181.964 30.8005 181.446 30.8141C181.419 30.5278 181.296 30.0914 181.187 29.8323C184.419 29.7368 188.251 29.4368 190.419 28.9868L191.237 29.9005C190.037 30.1596 188.551 30.3505 186.969 30.5005V32.5732H188.673L188.237 32.4369C188.592 31.8641 189.028 31.005 189.26 30.3914L190.637 30.7596C190.242 31.4005 189.819 32.0823 189.464 32.5732H192.383V33.6369Z" fill="black"/>
<path d="M175.678 37.9456H169.391V38.6274H175.678V37.9456ZM169.391 40.1411H175.678V39.4183H169.391V40.1411ZM168.15 41.3957V37.1274H176.96V41.382H175.678V40.9866H169.391V41.3957H168.15ZM173.06 32.0819V32.7501H175.637V32.0819H173.06ZM173.06 30.5137V31.1682H175.637V30.5137H173.06ZM173.06 35.6546H178.514V36.5683H166.432V35.6546H171.778V35.0001H167.373V34.1819H171.778V33.5546H167.7V32.7501H171.778V32.0819H166.446V31.1682H171.778V30.5137H167.864V29.7364H171.778V28.8091H173.06V29.7364H176.892V31.1682H178.501V32.0819H176.892V33.5546H173.06V34.1819H177.56V35.0001H173.06V35.6546Z" fill="black"/>
<path d="M156.791 36.432L157.2 37.5775C155.796 38.4639 154.228 39.3912 153.041 40.073L152.25 38.9275C153.409 38.3548 155.155 37.373 156.791 36.432ZM156.437 35.3002L155.414 36.0639C155.018 35.3547 154.105 34.3047 153.3 33.5684L154.255 32.9002C155.059 33.5956 156.028 34.6047 156.437 35.3002ZM162.9 32.6683L164.019 33.4593C163.173 34.4138 162.096 35.4775 161.223 36.2275C162.232 37.5502 163.473 38.6275 164.919 39.2684C164.632 39.5412 164.21 40.0321 164.005 40.4003C161.919 39.3503 160.323 37.4411 159.178 35.1229V39.7321C159.178 40.5367 158.987 40.9185 158.496 41.1367C158.005 41.3412 157.159 41.3821 155.973 41.3821C155.905 41.0139 155.7 40.4276 155.523 40.0457C156.396 40.073 157.269 40.073 157.541 40.0594C157.787 40.0594 157.882 39.9776 157.882 39.7321V32.2456H152.659V31.0183H157.882V28.8774H159.178V31.0183H162.519C161.946 30.5819 161.019 30.0365 160.282 29.6547L161.046 28.8501C161.864 29.2456 162.982 29.8728 163.555 30.3228L162.928 31.0183H164.523V32.2456H159.178V32.3956C159.532 33.4047 159.996 34.3866 160.569 35.2866C161.387 34.5229 162.328 33.5002 162.9 32.6683Z" fill="black"/>
<path d="M142.977 29.3001V30.2956H139.064V29.3001H142.977ZM143.468 31.1001V32.1092H138.382V31.1001H143.468ZM143.005 32.9547V33.9365H139.009V32.9547H143.005ZM139.009 35.7638V34.7684H143.005V35.7638H139.009ZM141.927 37.6321H140.086V39.5957H141.927V37.6321ZM143.018 36.6093V40.6185H140.086V41.1912H138.995V36.6093H143.018ZM145.596 37.9593H148.909V37.1411H145.596V37.9593ZM148.909 35.4638H145.596V36.282H148.909V35.4638ZM150.096 34.5366V40.1003C150.096 40.673 149.973 40.973 149.591 41.1503C149.182 41.3139 148.582 41.3139 147.723 41.3139C147.682 41.0139 147.546 40.5776 147.396 40.2912C147.955 40.3185 148.514 40.3048 148.677 40.3048C148.855 40.2912 148.909 40.2503 148.909 40.0866V38.8321H145.596V41.3412H144.423V34.5366H150.096ZM147.737 32.9274H150.873V33.8547H143.441V32.9274H146.537V32.1774H144.123V31.291H146.537V30.6092H143.768V29.6819H146.537V28.8501H147.737V29.6819H150.6V30.6092H147.737V31.291H150.382V32.1774H147.737V32.9274Z" fill="black"/>
<path d="M290.789 66.3447C288.825 66.3447 287.543 64.5992 287.543 61.1082C287.543 57.6309 288.825 55.9399 290.789 55.9399C292.752 55.9399 294.034 57.6445 294.034 61.1082C294.034 64.5992 292.752 66.3447 290.789 66.3447ZM290.789 65.1037C291.811 65.1037 292.534 64.0128 292.534 61.1082C292.534 58.2309 291.811 57.1809 290.789 57.1809C289.766 57.1809 289.043 58.2309 289.043 61.1082C289.043 64.0128 289.766 65.1037 290.789 65.1037Z" fill="black"/>
<path d="M282.739 66.3447C280.775 66.3447 279.493 64.5992 279.493 61.1082C279.493 57.6309 280.775 55.9399 282.739 55.9399C284.703 55.9399 285.984 57.6445 285.984 61.1082C285.984 64.5992 284.703 66.3447 282.739 66.3447ZM282.739 65.1037C283.762 65.1037 284.484 64.0128 284.484 61.1082C284.484 58.2309 283.762 57.1809 282.739 57.1809C281.716 57.1809 280.993 58.2309 280.993 61.1082C280.993 64.0128 281.716 65.1037 282.739 65.1037Z" fill="black"/>
<path d="M272.848 59.24C272.848 60.5218 273.421 61.2582 274.471 61.2582C275.098 61.2582 275.807 60.89 276.38 60.0309C276.23 58.0536 275.48 57.1536 274.389 57.1536C273.53 57.1536 272.848 57.9309 272.848 59.24ZM274.116 66.3447C272.957 66.3447 272.139 65.881 271.553 65.281L272.412 64.3128C272.807 64.7628 273.421 65.0628 274.048 65.0628C275.262 65.0628 276.312 64.081 276.407 61.2173C275.821 61.94 274.962 62.39 274.198 62.39C272.521 62.39 271.389 61.34 271.389 59.24C271.389 57.2491 272.753 55.9399 274.375 55.9399C276.298 55.9399 277.853 57.4809 277.853 60.8082C277.853 64.7628 276.053 66.3447 274.116 66.3447Z" fill="black"/>
<path d="M266.653 66.3442C264.771 66.3442 263.38 65.226 263.38 63.6715C263.38 62.3487 264.253 61.4623 265.18 60.9714V60.9032C264.43 60.3714 263.83 59.6214 263.83 58.5577C263.83 56.9895 265.057 55.9668 266.694 55.9668C268.439 55.9668 269.53 57.0577 269.53 58.6259C269.53 59.6487 268.835 60.5214 268.207 60.9851V61.0532C269.108 61.5578 269.898 62.3487 269.898 63.7124C269.898 65.1988 268.589 66.3442 266.653 66.3442ZM267.307 60.5896C267.907 60.0305 268.207 59.3896 268.207 58.7214C268.207 57.7941 267.648 57.0986 266.667 57.0986C265.848 57.0986 265.235 57.6577 265.235 58.5577C265.235 59.6487 266.189 60.1532 267.307 60.5896ZM266.68 65.2124C267.717 65.2124 268.412 64.6124 268.412 63.6715C268.412 62.4442 267.307 61.9805 265.944 61.4214C265.248 61.8987 264.771 62.6487 264.771 63.5215C264.771 64.5169 265.603 65.2124 266.68 65.2124Z" fill="black"/>
<path d="M257.335 66.1669C257.512 62.4986 258.153 60.1531 260.089 57.4531H255.371V56.1167H261.835V57.0849C259.476 60.0168 259.108 62.2395 258.944 66.1669H257.335Z" fill="black"/>
<path d="M250.73 61.04C250.158 61.04 249.462 61.3537 248.862 62.2128C249.026 64.2037 249.748 65.1446 250.826 65.1446C251.699 65.1446 252.394 64.3537 252.394 63.0446C252.394 61.7628 251.808 61.04 250.73 61.04ZM250.839 66.3447C248.93 66.3447 247.376 64.7492 247.376 61.34C247.376 57.4809 249.189 55.9399 251.167 55.9399C252.285 55.9399 253.103 56.4172 253.676 57.0172L252.817 57.9718C252.449 57.5354 251.835 57.2218 251.249 57.2218C249.967 57.2218 248.903 58.19 248.835 61.0537C249.421 60.3309 250.294 59.8946 251.017 59.8946C252.708 59.8946 253.839 60.9309 253.839 63.0446C253.839 65.0355 252.476 66.3447 250.839 66.3447Z" fill="black"/>
<path d="M242.258 66.3441C240.676 66.3441 239.681 65.7032 238.971 65.0078L239.721 63.985C240.294 64.5577 241.017 65.0623 242.067 65.0623C243.199 65.0623 244.058 64.2577 244.058 62.9214C244.058 61.585 243.294 60.8213 242.149 60.8213C241.508 60.8213 241.126 61.0122 240.54 61.3941L239.776 60.8895L240.076 56.1167H245.162V57.4531H241.44L241.208 60.0304C241.644 59.8122 242.04 59.6758 242.585 59.6758C244.262 59.6758 245.64 60.6713 245.64 62.8668C245.64 65.0896 244.017 66.3441 242.258 66.3441Z" fill="black"/>
<path d="M232.408 62.2532H235.176V59.6213C235.176 59.0758 235.217 58.2304 235.244 57.6713H235.19C234.944 58.1895 234.672 58.7077 234.385 59.2258L232.408 62.2532ZM235.176 66.1669V63.4668H230.826V62.4168L234.822 56.1167H236.649V62.2532H237.917V63.4668H236.649V66.1669H235.176Z" fill="black"/>
<path d="M226.158 66.3447C224.576 66.3447 223.554 65.7174 222.885 64.9674L223.649 63.9583C224.235 64.5583 224.985 65.0628 226.022 65.0628C227.154 65.0628 227.931 64.4355 227.931 63.3855C227.931 62.281 227.222 61.5582 224.958 61.5582V60.3991C226.935 60.3991 227.59 59.6491 227.59 58.64C227.59 57.7536 227.004 57.2081 226.049 57.1945C225.272 57.2081 224.617 57.5763 224.044 58.1354L223.226 57.1536C224.017 56.4445 224.945 55.9399 226.104 55.9399C227.904 55.9399 229.172 56.8809 229.172 58.5309C229.172 59.69 228.504 60.4946 227.44 60.89V60.9582C228.599 61.2446 229.513 62.1173 229.513 63.4673C229.513 65.281 227.999 66.3447 226.158 66.3447Z" fill="black"/>
<path d="M215.054 66.1674V65.2537C218.013 62.6355 219.54 60.6855 219.54 59.0354C219.54 57.9445 218.967 57.1945 217.836 57.1945C217.045 57.1945 216.39 57.6991 215.858 58.3127L214.972 57.44C215.831 56.499 216.717 55.9399 218.027 55.9399C219.867 55.9399 221.054 57.14 221.054 58.9536C221.054 60.89 219.513 62.8946 217.386 64.9265C217.904 64.8719 218.531 64.831 219.022 64.831H221.531V66.1674H215.054Z" fill="black"/>
<path d="M207.577 66.1669V64.8714H209.772V57.8895H207.972V56.894C208.913 56.7167 209.581 56.4849 210.154 56.1167H211.34V64.8714H213.304V66.1669H207.577Z" fill="black"/>
<path d="M201.176 66.1669V57.4531H198.231V56.1167H205.717V57.4531H202.758V66.1669H201.176Z" fill="black"/>
<path d="M195.505 60.985C194.919 60.985 194.455 60.5214 194.455 59.8941C194.455 59.2532 194.919 58.7759 195.505 58.7759C196.092 58.7759 196.555 59.2532 196.555 59.8941C196.555 60.5214 196.092 60.985 195.505 60.985ZM195.505 66.3442C194.919 66.3442 194.455 65.8942 194.455 65.2533C194.455 64.5987 194.919 64.1351 195.505 64.1351C196.092 64.1351 196.555 64.5987 196.555 65.2533C196.555 65.8942 196.092 66.3442 195.505 66.3442Z" fill="black"/>
<path d="M189.492 58.2306V56.3623H183.342V58.2306H189.492ZM190.801 55.2441V59.3351H182.101V55.2441H190.801ZM192.437 61.3942H184.473C184.364 61.7352 184.255 62.0761 184.133 62.417H190.828C190.828 62.417 190.801 62.7988 190.76 62.9761C190.446 65.2807 190.119 66.3443 189.614 66.7943C189.26 67.108 188.878 67.2034 188.319 67.2307C187.842 67.258 186.942 67.2443 186.001 67.2034C185.987 66.8352 185.81 66.3307 185.551 65.9898C186.492 66.0716 187.487 66.0852 187.869 66.0852C188.183 66.0852 188.36 66.0716 188.537 65.9625C188.851 65.717 189.11 64.9943 189.328 63.5761H183.723C183.614 63.8761 183.505 64.1625 183.41 64.4079L182.032 64.2034C182.36 63.467 182.742 62.3897 183.069 61.3942H180.287V60.2488H192.437V61.3942Z" fill="black"/>
<path d="M168.846 61.9806H176.141C174.996 61.3942 173.905 60.6169 173.06 59.7715V61.7488H171.805V59.826C170.987 60.6306 169.937 61.3806 168.846 61.9806ZM173.046 65.8261H175.637V64.8034H173.046V65.8261ZM169.446 64.8034V65.8261H171.846V64.8034H169.446ZM171.846 63.9306V62.9761H169.446V63.9306H171.846ZM175.637 63.9306V62.9761H173.046V63.9306H175.637ZM171.805 58.4487V56.4851C171.069 56.5396 170.319 56.5805 169.582 56.6214C169.978 57.126 170.373 57.7669 170.537 58.2305L169.978 58.4487H171.805ZM178.473 59.5124H174.301C175.514 60.4533 177.246 61.2715 178.855 61.7079C178.582 61.9533 178.201 62.4442 178.023 62.7715C177.655 62.6488 177.273 62.5124 176.905 62.3488V67.2034H175.637V66.808H169.446V67.258H168.219V62.3079C167.796 62.5124 167.36 62.6897 166.95 62.8397C166.787 62.5533 166.419 62.1033 166.146 61.8579C167.673 61.3806 169.364 60.5079 170.55 59.5124H166.5V58.4487H169.296C169.105 57.9851 168.737 57.3714 168.396 56.9078L169.119 56.6351C168.587 56.6623 168.055 56.676 167.537 56.6896C167.51 56.4032 167.387 55.9669 167.278 55.7078C170.51 55.6123 174.341 55.3123 176.51 54.8623L177.328 55.776C176.128 56.0351 174.641 56.226 173.06 56.376V58.4487H174.764L174.328 58.3124C174.682 57.7396 175.119 56.8805 175.351 56.2669L176.728 56.6351C176.332 57.276 175.91 57.9578 175.555 58.4487H178.473V59.5124Z" fill="black"/>
<path d="M153.668 58.0666H157.009C156.628 57.4802 155.891 56.5665 155.209 55.912C154.827 56.5665 154.323 57.3302 153.668 58.0666ZM159.968 63.5212L160.35 64.4757C159.518 65.1167 158.618 65.7712 157.828 66.3167L157.5 65.7439L157.514 65.853C155.809 66.2212 154.023 66.6031 152.659 66.8758L152.4 65.7167C153 65.6212 153.737 65.4849 154.541 65.3349V61.4893H152.55V60.3848H154.541V59.1438H153.232V58.5438C153.096 58.6666 152.959 58.8029 152.809 58.9393C152.646 58.6802 152.264 58.2984 152.032 58.1347C153.218 57.1256 154.064 55.7892 154.5 54.7256H155.577C156.382 55.4211 157.378 56.4302 157.855 57.112L157.037 58.0666H157.146V59.1438H155.646V60.3848H157.487V61.4893H155.646V65.1303L157.418 64.7894L157.446 65.1576C158.128 64.7348 159.041 64.1348 159.968 63.5212ZM152.782 62.3212L153.614 62.103C153.873 62.9075 154.091 63.903 154.146 64.5712L153.246 64.803C153.218 64.1348 153.014 63.0985 152.782 62.3212ZM156.791 64.5576L155.987 64.3394C156.191 63.6985 156.423 62.6757 156.518 61.9939L157.473 62.2393C157.241 63.0303 156.996 63.9439 156.791 64.5576ZM157.759 61.4621L158.605 60.9166C159.164 61.4348 159.791 62.1712 160.064 62.6757L159.15 63.2894C158.905 62.7712 158.305 62.0075 157.759 61.4621ZM163.078 63.1121L162.437 62.6757C163.009 63.7803 163.855 64.8167 165.055 65.4303C164.809 65.6621 164.414 66.153 164.237 66.4667C163.05 65.7303 162.219 64.5303 161.659 63.3575V65.9758C161.659 66.5485 161.578 66.8621 161.209 67.0531C160.855 67.2303 160.323 67.244 159.587 67.244C159.559 66.9303 159.409 66.4531 159.273 66.1394C159.723 66.153 160.159 66.153 160.296 66.153C160.446 66.1394 160.487 66.0985 160.487 65.9485V60.3166H157.555V59.2257H162.546V58.2575H158.523V57.262H162.546V56.2938H158.25V55.2301H163.719V59.2257H164.782V60.3166H161.659V60.6575C161.823 61.2439 162.041 61.8848 162.341 62.4984C162.832 62.0075 163.432 61.2439 163.773 60.6984L164.769 61.3257C164.223 61.9666 163.582 62.6484 163.078 63.1121Z" fill="black"/>
<path d="M146.496 64.0395H142.841C143.182 64.5713 143.495 65.2395 143.618 65.7304L143.073 65.8804H146.073L145.65 65.7713C145.936 65.3077 146.277 64.5849 146.496 64.0395ZM142.077 61.4894V63.0167H147.177V61.4894H142.077ZM147.164 64.0395L147.764 64.1895C147.464 64.8031 147.136 65.4168 146.864 65.8804H150.532V66.9441H138.832V65.8804H142.336C142.2 65.3895 141.914 64.7349 141.627 64.244L142.377 64.0395H140.85V60.4531H148.473V64.0395H147.164ZM149.687 56.4166L150.627 57.0848C150.055 57.603 149.346 58.1621 148.718 58.5985C149.441 59.1712 150.218 59.6349 151.05 59.9485C150.764 60.194 150.382 60.6712 150.205 60.9985C149.073 60.4803 148.05 59.744 147.15 58.8303V59.4985H142.159V58.9394C141.205 59.894 140.086 60.644 138.968 61.1622C138.818 60.9031 138.464 60.4667 138.218 60.2485C139.077 59.894 139.964 59.3212 140.755 58.6394C140.345 58.2167 139.691 57.7121 139.132 57.3576L139.814 56.6621C140.414 57.003 141.109 57.5076 141.505 57.9167C141.982 57.4121 142.405 56.853 142.732 56.2803H139.623V55.2302H143.345L143.564 55.1757L144.382 55.5984C143.986 56.6485 143.386 57.5894 142.664 58.4076H146.755C145.896 57.4394 145.186 56.3212 144.655 55.0939L145.732 54.7666C145.964 55.2984 146.25 55.8166 146.591 56.3075C147.164 55.8439 147.791 55.2848 148.173 54.8484L149.127 55.5303C148.527 56.0621 147.805 56.6485 147.177 57.0848C147.423 57.3848 147.696 57.6712 147.982 57.9439C148.596 57.4803 149.264 56.8939 149.687 56.4166Z" fill="black"/>
<defs>
<clipPath id="clip0_18_18462">
<rect width="89.3248" height="118.452" fill="white" transform="translate(0.159668)"/>
</clipPath>
</defs>
</svg>
