<svg width="289" height="249" viewBox="0 0 289 249" fill="none" xmlns="http://www.w3.org/2000/svg">
<path d="M6.953 1.39893H63.8474C66.9119 1.39893 69.3976 3.88252 69.3976 6.94054V111.322C69.3976 114.382 66.9102 116.864 63.8474 116.864H6.953C3.88855 116.864 1.40112 114.38 1.40112 111.321V6.94223C1.40112 3.88252 3.88855 1.40062 6.9513 1.40062L6.953 1.39893Z" fill="#BED7F4"/>
<path d="M63.8491 2.01904H6.95296C4.22972 2.01904 2.02209 4.22326 2.02209 6.9423V111.326C2.02209 114.045 4.22972 116.249 6.95296 116.249H63.8491C66.5723 116.249 68.7799 114.045 68.7799 111.326V6.9423C68.7799 4.22326 66.5723 2.01904 63.8491 2.01904Z" fill="#BED7F4"/>
<path d="M28.1147 109.983C26.9996 109.983 26.0927 109.077 26.0927 107.964C26.0927 106.85 26.9996 105.945 28.1147 105.945H42.6823C43.7974 105.945 44.7044 106.85 44.7044 107.964C44.7044 109.077 43.7974 109.983 42.6823 109.983H28.1147Z" fill="#333333"/>
<path d="M42.6839 106.565H28.1164C27.3431 106.565 26.7153 107.192 26.7153 107.964C26.7153 108.736 27.3431 109.363 28.1164 109.363H42.6839C43.4572 109.363 44.085 108.736 44.085 107.964C44.085 107.192 43.4572 106.565 42.6839 106.565Z" fill="#333333"/>
<path d="M69.3621 12.1646H1.38757V100.325H69.3621V12.1646Z" fill="white"/>
<path d="M68.741 12.7847H2.00684V99.707H68.741V12.7847Z" fill="white"/>
<path d="M2.98828 101.726C1.87317 101.726 0.966187 100.82 0.966187 99.707C0.966187 98.5936 1.87317 97.688 2.98828 97.688H67.8103C68.9254 97.688 69.8324 98.5936 69.8324 99.707C69.8324 100.82 68.9254 101.726 67.8103 101.726H2.98828Z" fill="#333333"/>
<path d="M67.8103 98.3081H2.98824C2.21494 98.3081 1.58716 98.9349 1.58716 99.707C1.58716 100.479 2.21494 101.106 2.98824 101.106H67.8103C68.5836 101.106 69.2114 100.479 69.2114 99.707C69.2114 98.9349 68.5836 98.3081 67.8103 98.3081Z" fill="#333333"/>
<path d="M2.98828 14.8153C1.87317 14.8153 0.966187 13.9097 0.966187 12.7963C0.966187 11.6829 1.87317 10.7773 2.98828 10.7773H67.8103C68.9254 10.7773 69.8324 11.6829 69.8324 12.7963C69.8324 13.9097 68.9254 14.8153 67.8103 14.8153H2.98828Z" fill="#333333"/>
<path d="M67.8103 11.397H2.98824C2.21494 11.397 1.58716 12.0238 1.58716 12.7959C1.58716 13.568 2.21494 14.1948 2.98824 14.1948H67.8103C68.5836 14.1948 69.2114 13.568 69.2114 12.7959C69.2114 12.0238 68.5836 11.397 67.8103 11.397Z" fill="#333333"/>
<path d="M6.95295 118.266C3.11859 118.266 0 115.152 0 111.324V6.94223C0 3.11378 3.11859 0 6.95295 0H63.8474C67.6817 0 70.8003 3.11378 70.8003 6.94223V111.324C70.8003 115.152 67.6817 118.266 63.8474 118.266H6.95295ZM6.95295 4.03626C5.34882 4.03626 4.04249 5.33888 4.04249 6.94223V111.324C4.04249 112.926 5.34713 114.23 6.95295 114.23H63.8474C65.4515 114.23 66.7578 112.927 66.7578 111.324V6.94223C66.7578 5.34056 65.4532 4.03626 63.8474 4.03626H6.95295Z" fill="#333333"/>
<path d="M63.8474 0.618164H6.95302C3.46047 0.618164 0.619385 3.45486 0.619385 6.94203V111.324C0.619385 114.811 3.46047 117.648 6.95302 117.648H63.8474C67.34 117.648 70.1811 114.811 70.1811 111.324V6.94203C70.1811 3.45486 67.34 0.619854 63.8474 0.619854V0.618164ZM67.3772 111.324C67.3772 113.267 65.7934 114.848 63.8474 114.848H6.95302C5.00707 114.848 3.42324 113.267 3.42324 111.324V6.94203C3.42324 4.99908 5.00707 3.41769 6.95302 3.41769H63.8474C65.7934 3.41769 67.3772 4.99908 67.3772 6.94203V111.324Z" fill="#333333"/>
<path d="M59.1534 88.0743L59.1534 25.4727L11.7756 25.4727L11.7756 88.0743H59.1534Z" fill="white"/>
<path d="M59.0891 88.0101L59.0891 25.5352L11.8381 25.5352L11.8381 88.0101H59.0891Z" fill="white"/>
<path d="M59.0891 88.0101L59.0891 25.5352L11.8381 25.5352L11.8381 88.0101H59.0891Z" fill="white"/>
<path d="M59.0249 25.5996H11.9025V87.9479H59.0249V25.5996Z" fill="white"/>
<path d="M11.9025 89.2695C11.1732 89.2644 10.5792 88.6714 10.5792 87.9483V25.6C10.5792 25.252 10.7197 24.9124 10.9667 24.6657C11.2138 24.419 11.5488 24.2788 11.9025 24.2788H59.0249C59.3853 24.2856 59.7169 24.4224 59.9606 24.6657C60.2043 24.909 60.3481 25.2469 60.3481 25.6V87.9483C60.3481 88.6765 59.7542 89.2695 59.0249 89.2695H11.9025ZM57.7016 86.6271V26.9212H13.224V86.6271H57.7016Z" fill="#333333"/>
<path d="M11.9024 89.2045C11.2035 89.1995 10.6434 88.6352 10.6434 87.9475V25.5993C10.6434 25.2681 10.7771 24.9438 11.0123 24.7106C11.2509 24.4724 11.5656 24.3423 11.9024 24.3423H59.0248C59.3683 24.349 59.683 24.4791 59.9148 24.7106C60.1466 24.9421 60.2837 25.2648 60.2837 25.5993V87.9475C60.2837 88.6402 59.7185 89.2045 59.0248 89.2045H11.9024ZM57.7658 86.6905V26.8563H13.1613V86.6889H57.7658V86.6905Z" fill="#333333"/>
<path d="M11.9024 89.2045C11.2035 89.1995 10.6434 88.6352 10.6434 87.9475V25.5993C10.6434 25.2631 10.7737 24.9471 11.0123 24.7106C11.2509 24.4724 11.5656 24.3423 11.9024 24.3423H59.0248C59.3683 24.349 59.683 24.4791 59.9148 24.7106C60.1466 24.9421 60.2837 25.2681 60.2837 25.5993V87.9475C60.2837 88.6402 59.7185 89.2045 59.0248 89.2045H11.9024ZM57.7658 86.6905V26.8563H13.1613V86.6889H57.7658V86.6905Z" fill="#333333"/>
<path d="M11.8922 89.1408C11.2357 89.1358 10.7061 88.6036 10.7061 87.9463V25.5998C10.7061 25.2838 10.8313 24.9797 11.0563 24.755C11.2814 24.5303 11.5843 24.4053 11.9024 24.4053H59.0248C59.3429 24.4103 59.6458 24.5303 59.8708 24.755C60.0959 24.9797 60.2211 25.2821 60.2211 25.5998V87.948C60.2211 88.6069 59.6864 89.1425 59.0248 89.1425H11.9024C11.9024 89.1425 11.8956 89.1425 11.8922 89.1425V89.1408ZM13.097 26.7926V86.7535H57.8284V26.7943H13.097V26.7926Z" fill="#333333"/>
<path d="M20.9756 44.4243C20.561 44.4209 20.2548 44.2655 20.0669 43.9614C19.9823 43.8228 19.94 43.664 19.94 43.49L19.9502 42.2685L18.2631 42.255C18.0855 42.255 17.9247 42.1891 17.7995 42.0674C17.6455 41.9103 17.5677 41.7194 17.5694 41.4964C17.5711 41.2328 17.681 41.0199 17.8875 40.878C17.9907 40.802 18.1227 40.7597 18.2682 40.7597L19.9603 40.7732L19.9637 40.4184L18.2784 40.4049C18.0838 40.4049 17.9146 40.3323 17.791 40.2005C17.6523 40.0535 17.5829 39.871 17.5846 39.6582C17.5863 39.3709 17.7098 39.1445 17.9382 39.0043C18.0449 38.9418 18.1599 38.9114 18.2834 38.9114L19.1752 38.9182L17.8249 36.9566C17.698 36.7708 17.6354 36.5782 17.637 36.3788C17.6404 36.0443 17.7927 35.7706 18.0804 35.5881C18.2716 35.4614 18.4814 35.3955 18.7014 35.3955C19.0483 35.3989 19.3376 35.5645 19.539 35.8736L21.0298 38.2491L22.5594 35.9007C22.7591 35.5932 23.0417 35.431 23.3734 35.431C23.6576 35.4327 23.9047 35.5239 24.1094 35.7013C24.3362 35.8939 24.4496 36.1355 24.4479 36.4194C24.4479 36.6238 24.3802 36.8215 24.2516 37.0039L22.8691 38.9452L23.7558 38.9519C23.9335 38.9519 24.0942 39.0178 24.2194 39.1395C24.3734 39.2966 24.4512 39.4875 24.4496 39.7105C24.4479 39.9572 24.348 40.165 24.1636 40.3103C24.0434 40.4015 23.9047 40.4455 23.7507 40.4455L22.0586 40.432L22.0552 40.7868L23.7406 40.8003C23.9098 40.8003 24.057 40.8594 24.1805 40.9692C24.348 41.1145 24.436 41.3156 24.4343 41.5521C24.4326 41.8359 24.3091 42.0607 24.0807 42.2009C23.9758 42.2634 23.8607 42.2938 23.7355 42.2938L22.0434 42.2803L22.0332 43.5018C22.0315 43.7383 21.952 43.9411 21.798 44.1033C21.5899 44.3128 21.3174 44.4192 20.9858 44.4192H20.9739L20.9756 44.4243Z" fill="#333333"/>
<path d="M20.9757 44.3604C20.5848 44.357 20.2971 44.2117 20.1211 43.9279C20.0416 43.7995 20.0027 43.6525 20.0044 43.4903L20.0145 42.2046L18.2649 42.191C18.1041 42.191 17.9586 42.1319 17.8452 42.0221C17.7031 41.8785 17.6337 41.7028 17.6354 41.4983C17.6371 41.2567 17.7386 41.0608 17.9265 40.9323C18.0195 40.8631 18.1397 40.8259 18.27 40.8259L20.0264 40.8394L20.0298 40.3579L18.2801 40.3444C18.1024 40.3444 17.9501 40.2802 17.8402 40.1602C17.7132 40.0251 17.6489 39.8578 17.6506 39.6618C17.6523 39.3966 17.764 39.1905 17.9738 39.0621C18.0686 39.0063 18.1735 38.9776 18.2869 38.9776L19.3005 38.986L17.8808 36.9248C17.7623 36.7508 17.7031 36.5683 17.7048 36.3842C17.7082 36.0716 17.8503 35.8165 18.1177 35.6458C18.2987 35.5259 18.4967 35.4634 18.7048 35.4634C19.0314 35.4651 19.3005 35.6222 19.4883 35.9128L21.0315 38.3727L22.617 35.9398C22.8049 35.6509 23.0671 35.4989 23.3785 35.4989C23.6492 35.5005 23.8811 35.5867 24.074 35.754C24.2855 35.9348 24.3921 36.1595 24.3904 36.4247C24.3904 36.6173 24.3261 36.8015 24.2059 36.9721L22.7524 39.0131L23.7609 39.0215C23.9217 39.0215 24.0672 39.0806 24.1806 39.1905C24.321 39.3341 24.3921 39.5098 24.3904 39.7159C24.3887 39.944 24.299 40.1332 24.1298 40.2667C24.0215 40.3478 23.8963 40.3883 23.7558 40.3883L21.9994 40.3748L21.996 40.8563L23.7457 40.8698C23.898 40.8698 24.0333 40.9222 24.1433 41.0219C24.2973 41.1554 24.3768 41.3412 24.3752 41.5575C24.3735 41.8193 24.2618 42.0238 24.052 42.1522C23.9572 42.2079 23.8523 42.2367 23.7406 42.2367L21.9842 42.2231L21.974 43.5089C21.9723 43.7285 21.8996 43.9177 21.7557 44.0681C21.5611 44.2641 21.3039 44.3638 20.9892 44.3638H20.9774L20.9757 44.3604Z" fill="#333333"/>
<path d="M20.9757 44.3604C20.5848 44.357 20.2971 44.2117 20.1211 43.9279C20.0416 43.7995 20.0027 43.6525 20.0044 43.4903L20.0145 42.2046L18.2649 42.191C18.1041 42.191 17.9586 42.1319 17.8452 42.0221C17.7031 41.8785 17.6337 41.7028 17.6354 41.4983C17.6371 41.2567 17.7386 41.0608 17.9265 40.9323C18.0195 40.8631 18.1397 40.8259 18.2716 40.8259L20.0264 40.8394L20.0298 40.3579L18.2801 40.3444C18.1041 40.3444 17.9501 40.2785 17.8402 40.1602C17.7132 40.0251 17.6489 39.8578 17.6506 39.6618C17.6523 39.3966 17.764 39.1905 17.9738 39.0621C18.0686 39.0063 18.1735 38.9776 18.2869 38.9776L19.3005 38.986L17.8808 36.9248C17.7623 36.7508 17.7031 36.5683 17.7048 36.3842C17.7082 36.0716 17.8503 35.8165 18.1177 35.6458C18.3004 35.5259 18.4967 35.4634 18.7031 35.4634C19.0314 35.4651 19.2988 35.6222 19.4883 35.9128L21.0315 38.3727L22.617 35.9398C22.8049 35.6526 23.0671 35.4989 23.3785 35.4989C23.6492 35.5005 23.8811 35.5867 24.074 35.754C24.2855 35.9348 24.3921 36.1595 24.3904 36.4247C24.3904 36.6173 24.3261 36.8015 24.2059 36.9721L22.7524 39.0131L23.7609 39.0215C23.9217 39.0215 24.0672 39.0806 24.1806 39.1905C24.321 39.3341 24.3921 39.5098 24.3904 39.7142C24.3887 39.9423 24.299 40.1315 24.1298 40.265C24.0215 40.3461 23.8963 40.3866 23.7558 40.3866L21.9994 40.3731L21.996 40.8546L23.7457 40.8681C23.898 40.8681 24.0316 40.9205 24.1433 41.0202C24.2973 41.1537 24.3768 41.3395 24.3752 41.5558C24.3735 41.8177 24.2618 42.0221 24.052 42.1505C23.9572 42.2062 23.8523 42.235 23.7406 42.235L21.9842 42.2214L21.974 43.5072C21.9723 43.7268 21.8996 43.916 21.7557 44.0664C21.5611 44.2624 21.3039 44.3621 20.9892 44.3621H20.9774L20.9757 44.3604Z" fill="#333333"/>
<path d="M23.7423 40.9306L21.9283 40.9171L21.9334 40.3072L23.7473 40.3207C23.8759 40.3207 23.9893 40.2852 24.0875 40.2126C24.2414 40.0926 24.3227 39.9186 24.3244 39.7108C24.3244 39.5232 24.2634 39.3627 24.1348 39.2326C24.0333 39.1347 23.903 39.0823 23.7575 39.0806L22.6255 39.0721L24.1501 36.9332C24.2634 36.7727 24.321 36.6004 24.3227 36.4213C24.3244 36.1763 24.2245 35.9668 24.0282 35.7995C23.8472 35.6424 23.6289 35.5613 23.3818 35.5596C23.0908 35.5579 22.8437 35.6999 22.6678 35.9702L21.0281 38.4876L19.4324 35.9432C19.2564 35.6694 19.006 35.5242 18.7099 35.5225C18.5136 35.5225 18.3241 35.5799 18.1498 35.6948C17.901 35.8536 17.769 36.0901 17.7657 36.379C17.7657 36.5514 17.8198 36.7203 17.9315 36.8825L19.4206 39.0451L18.2885 39.0367C18.1853 39.0367 18.0922 39.0603 18.0043 39.111C17.8147 39.2276 17.7132 39.4151 17.7115 39.6567C17.7115 39.8358 17.7691 39.9895 17.8841 40.1112C17.984 40.2176 18.1193 40.2734 18.2784 40.2751L20.0923 40.2886L20.0873 40.8985L18.2733 40.885C18.1532 40.885 18.0449 40.9171 17.9603 40.9813C17.7894 41.0979 17.698 41.2753 17.6963 41.4949C17.6963 41.6824 17.7572 41.8429 17.8858 41.973C17.9873 42.071 18.1176 42.1234 18.2632 42.1251L20.0771 42.1386L20.067 43.4868C20.067 43.6372 20.1008 43.7724 20.1736 43.8906C20.3377 44.1542 20.6067 44.2894 20.9756 44.2927C21.2768 44.2944 21.5222 44.2032 21.7066 44.0174C21.8386 43.8788 21.9063 43.7048 21.908 43.5021L21.9181 42.1538L23.7321 42.1673C23.8353 42.1673 23.9284 42.1437 24.0147 42.093C24.2042 41.9764 24.3057 41.7906 24.3074 41.5523C24.3074 41.3547 24.2347 41.1857 24.0959 41.0641C23.9961 40.9745 23.8759 40.9289 23.7406 40.9272L23.7423 40.9306Z" fill="#333333"/>
<path d="M54.2626 36.8301L54.2974 32.4155L37.3275 32.2824L37.2928 36.697L54.2626 36.8301Z" fill="#FFE366"/>
<path d="M54.2005 36.7669L54.2343 32.479L37.393 32.3469L37.3593 36.6348L54.2005 36.7669Z" fill="#FFE366"/>
<path d="M54.2005 36.7669L54.2343 32.479L37.393 32.3469L37.3593 36.6348L54.2005 36.7669Z" fill="#FFE366"/>
<path d="M54.1703 32.5446L37.4559 32.4136L37.4232 36.5747L54.1375 36.7058L54.1703 32.5446Z" fill="#FFE366"/>
<path d="M51.9461 57.966L52.0055 50.4141L17.2029 50.1411L17.1435 57.693L51.9461 57.966Z" fill="#FFE366"/>
<path d="M51.8823 57.9023L51.9407 50.4771L17.265 50.2051L17.2066 57.6303L51.8823 57.9023Z" fill="#FFE366"/>
<path d="M51.8823 57.9023L51.9407 50.4771L17.265 50.2051L17.2066 57.6303L51.8823 57.9023Z" fill="#FFE366"/>
<path d="M51.8751 50.5419L17.3263 50.271L17.2689 57.5678L51.8177 57.8387L51.8751 50.5419Z" fill="#FFE366"/>
<path d="M17.0804 81.8625C16.3866 81.8574 15.8265 81.288 15.8316 80.5953L16.0702 50.26C16.0752 49.5724 16.6404 49.0132 17.3291 49.0132L52.6354 49.2886C52.9721 49.292 53.2868 49.4237 53.522 49.6636C53.7572 49.9036 53.8859 50.2195 53.8842 50.5557L53.6456 80.891C53.6405 81.5786 53.0753 82.1379 52.3866 82.1379L17.0804 81.8625ZM51.1378 79.6154L51.3561 51.7941L18.5779 51.5373L18.3596 79.3586L51.1378 79.6154Z" fill="#333333"/>
<path d="M17.0804 81.7997C16.4221 81.7947 15.8891 81.2557 15.8942 80.5968L16.1328 50.2615C16.1379 49.6093 16.6743 49.0771 17.3274 49.0771L52.6337 49.3525C52.9535 49.3542 53.2513 49.4809 53.4764 49.709C53.6997 49.9354 53.8216 50.2362 53.8199 50.5555L53.5813 80.8908C53.5762 81.5429 53.0398 82.0751 52.3866 82.0751L17.0804 81.7997ZM51.2005 79.6794L51.4204 51.7314L18.5136 51.4746L18.2936 79.4226L51.2005 79.6794Z" fill="#333333"/>
<path d="M17.0804 81.7997C16.4221 81.7947 15.8891 81.2557 15.8942 80.5968L16.1328 50.2615C16.1379 49.6093 16.6743 49.0771 17.3274 49.0771L52.6337 49.3525C52.9535 49.3542 53.2513 49.4809 53.4764 49.709C53.6997 49.9354 53.8216 50.2362 53.8199 50.5555L53.5813 80.8908C53.5762 81.5429 53.0398 82.0751 52.3866 82.0751L17.0804 81.7997ZM51.2005 79.6794L51.4204 51.7314L18.5136 51.4746L18.2936 79.4226L51.2005 79.6794Z" fill="#333333"/>
<path d="M52.3781 82.0127L17.082 81.7373C16.4576 81.7322 15.955 81.222 15.9601 80.5985L16.1987 50.2633C16.2038 49.6398 16.7148 49.138 17.3392 49.1431L52.6353 49.4185C53.2597 49.4236 53.7623 49.9338 53.7572 50.5572L53.5186 80.8925C53.5135 81.516 53.0025 82.0177 52.3781 82.0127ZM18.231 79.4851L51.2647 79.7436L51.4847 51.6672L18.4509 51.4087L18.231 79.4851Z" fill="#333333"/>
<path d="M44.7907 40.7176C44.5115 40.7159 44.2492 40.6044 44.0529 40.405C43.8566 40.2057 43.75 39.9421 43.7517 39.6633C43.7568 39.0923 44.2255 38.626 44.7975 38.626L53.4239 38.6936C53.7031 38.6952 53.9654 38.8068 54.1617 39.0061C54.358 39.2055 54.4646 39.469 54.4629 39.7478C54.4578 40.3189 53.9891 40.7852 53.4172 40.7852L44.7907 40.7176Z" fill="#333333"/>
<path d="M44.7923 40.6534C44.53 40.6517 44.2847 40.547 44.1002 40.3611C43.9158 40.1736 43.816 39.9269 43.8176 39.6651C43.8227 39.1278 44.2627 38.6919 44.8008 38.6919L53.4272 38.7595C53.6895 38.7612 53.9349 38.8659 54.1193 39.0518C54.3038 39.2393 54.4036 39.486 54.4019 39.7478C54.3968 40.2851 53.9569 40.721 53.4188 40.721L44.7923 40.6534Z" fill="#333333"/>
<path d="M44.7923 40.6534C44.53 40.6517 44.2847 40.547 44.1002 40.3611C43.9158 40.1736 43.816 39.9269 43.8176 39.6651C43.8227 39.1278 44.2627 38.6919 44.8008 38.6919L53.4272 38.7595C53.6895 38.7612 53.9349 38.8659 54.1193 39.0518C54.3038 39.2393 54.4036 39.486 54.4019 39.7478C54.3968 40.2851 53.9569 40.721 53.4188 40.721L44.7923 40.6534Z" fill="#333333"/>
<path d="M53.4103 40.6568L44.7923 40.5892C44.2847 40.5859 43.8769 40.1719 43.8803 39.6651C43.8837 39.1582 44.2982 38.751 44.8059 38.7544L53.4239 38.822C53.9315 38.8254 54.3393 39.2393 54.3359 39.7462C54.3325 40.253 53.918 40.6602 53.4103 40.6568Z" fill="#333333"/>
<path d="M44.7686 43.5863C44.4894 43.5846 44.2271 43.4731 44.0308 43.2737C43.8345 43.0743 43.7279 42.8108 43.7296 42.532C43.7347 41.9609 44.2034 41.4946 44.7754 41.4946L53.4018 41.5622C53.9789 41.5673 54.4442 42.0387 54.4408 42.6148C54.4357 43.1858 53.967 43.6521 53.3951 43.6521L44.7686 43.5846V43.5863Z" fill="#333333"/>
<path d="M44.7686 43.5221C44.5064 43.5204 44.261 43.4156 44.0766 43.2298C43.8921 43.0423 43.7923 42.7956 43.794 42.5337C43.799 41.9964 44.239 41.5605 44.7771 41.5605L53.4036 41.6281C53.945 41.6332 54.3833 42.0758 54.3782 42.6165C54.3731 43.1538 53.9332 43.5897 53.3951 43.5897L44.7686 43.5221Z" fill="#333333"/>
<path d="M44.7686 43.5221C44.5064 43.5204 44.261 43.4156 44.0766 43.2298C43.8921 43.0423 43.7923 42.7956 43.794 42.5337C43.799 41.9964 44.239 41.5605 44.7771 41.5605L53.4036 41.6281C53.6658 41.6298 53.9129 41.7346 54.0956 41.9204C54.2801 42.1079 54.3799 42.3546 54.3782 42.6165C54.3732 43.1538 53.9332 43.5897 53.3951 43.5897L44.7686 43.5221Z" fill="#333333"/>
<path d="M53.3884 43.5255L44.7704 43.4579C44.2627 43.4545 43.8549 43.0406 43.8583 42.5337C43.8617 42.0269 44.2763 41.6197 44.7839 41.6231L53.4019 41.6906C53.9095 41.694 54.3173 42.108 54.314 42.6148C54.3106 43.1217 53.896 43.5288 53.3884 43.5255Z" fill="#333333"/>
<path d="M18.1008 47.462C17.5237 47.4569 17.0584 46.9856 17.0618 46.4094C17.0669 45.8384 17.5356 45.3721 18.1075 45.3721L38.4841 45.5309C38.7633 45.5326 39.0256 45.6441 39.2219 45.8434C39.4182 46.0428 39.5248 46.3064 39.5231 46.5851C39.518 47.1562 39.0493 47.6208 38.4774 47.6208L18.1008 47.462Z" fill="#333333"/>
<path d="M18.1024 47.3976C17.5609 47.3925 17.1227 46.9498 17.1277 46.4092C17.1328 45.8719 17.5728 45.436 18.1109 45.436L38.4858 45.5949C38.7481 45.5965 38.9934 45.7013 39.1779 45.8871C39.3623 46.073 39.4621 46.3213 39.4604 46.5832C39.4554 47.1205 39.0154 47.5564 38.4773 47.5564L18.1024 47.3976Z" fill="#333333"/>
<path d="M18.1024 47.3976C17.5609 47.3925 17.1227 46.9498 17.1277 46.4092C17.1328 45.8719 17.5728 45.436 18.1109 45.436L38.4858 45.5949C38.7481 45.5965 38.9934 45.7013 39.1779 45.8871C39.3623 46.0747 39.4621 46.3213 39.4604 46.5832C39.4554 47.1205 39.0154 47.5564 38.4773 47.5564L18.1024 47.3976Z" fill="#333333"/>
<path d="M38.4688 47.4941L18.1007 47.3353C17.593 47.3319 17.1852 46.918 17.1886 46.4112C17.192 45.9043 17.6066 45.4971 18.1142 45.5005L38.4824 45.6593C38.99 45.6627 39.3978 46.0766 39.3944 46.5835C39.391 47.0903 38.9765 47.4975 38.4688 47.4941Z" fill="#333333"/>
<path d="M17.9958 58.618C17.7166 58.6163 17.4543 58.5048 17.258 58.3054C17.0617 58.1061 16.9551 57.8425 16.9568 57.5637C16.9619 56.9927 17.4306 56.5264 18.0025 56.5264L51.8265 56.7916C52.1057 56.7933 52.368 56.9048 52.5643 57.1042C52.7605 57.3035 52.8672 57.5671 52.8655 57.8459C52.8604 58.4169 52.3917 58.8832 51.8197 58.8832L17.9958 58.618Z" fill="#333333"/>
<path d="M17.9975 58.5538C17.4561 58.5487 17.0178 58.1061 17.0229 57.5654C17.0279 57.0282 17.4679 56.5923 18.006 56.5923L51.8283 56.8575C52.3697 56.8626 52.808 57.3053 52.8029 57.8459C52.7978 58.3832 52.3579 58.8191 51.8198 58.8191L17.9975 58.5538Z" fill="#333333"/>
<path d="M17.9975 58.5538C17.4561 58.5487 17.0178 58.1061 17.0229 57.5654C17.0279 57.0282 17.4679 56.5923 18.006 56.5923L51.8283 56.8575C52.3697 56.8626 52.808 57.3053 52.8029 57.8459C52.7978 58.3832 52.3579 58.8191 51.8198 58.8191L17.9975 58.5538Z" fill="#333333"/>
<path d="M51.813 58.7549L17.9975 58.4896C17.4899 58.4862 17.0821 58.0723 17.0855 57.5655C17.0889 57.0586 17.5034 56.6514 18.0111 56.6548L51.8266 56.9201C52.3342 56.9234 52.742 57.3374 52.7386 57.8442C52.7352 58.3511 52.3207 58.7583 51.813 58.7549Z" fill="#333333"/>
<path d="M17.9518 64.3424C17.6726 64.3407 17.4103 64.2292 17.2141 64.0298C17.0178 63.8305 16.9112 63.5686 16.9129 63.2898C16.9179 62.7188 17.3867 62.2524 17.9586 62.2524L51.7825 62.5177C52.3596 62.5228 52.8249 62.9941 52.8215 63.5703C52.8164 64.1413 52.3477 64.6076 51.7758 64.6076L17.9518 64.3424Z" fill="#333333"/>
<path d="M17.9518 64.2775C17.4103 64.2724 16.972 63.8297 16.9771 63.2891C16.9822 62.7518 17.4221 62.3159 17.9602 62.3159L51.7825 62.5812C52.324 62.5862 52.7622 63.0289 52.7571 63.5695C52.7521 64.1068 52.3121 64.5427 51.774 64.5427L17.9518 64.2775Z" fill="#333333"/>
<path d="M17.9518 64.2775C17.4103 64.2724 16.972 63.8297 16.9771 63.2891C16.9822 62.7518 17.4221 62.3159 17.9602 62.3159L51.7825 62.5812C52.324 62.5862 52.7622 63.0289 52.7571 63.5695C52.7521 64.1068 52.3121 64.5427 51.774 64.5427L17.9518 64.2775Z" fill="#333333"/>
<path d="M51.7674 64.479L17.9519 64.2137C17.4442 64.2104 17.0364 63.7964 17.0398 63.2896C17.0432 62.7827 17.4578 62.3755 17.9654 62.3789L51.7809 62.6442C52.2885 62.6476 52.6963 63.0615 52.693 63.5683C52.6896 64.0752 52.275 64.4824 51.7674 64.479Z" fill="#333333"/>
<path d="M17.9062 70.0662C17.627 70.0645 17.3647 69.953 17.1684 69.7537C16.9721 69.5543 16.8655 69.2907 16.8672 69.012C16.8723 68.4409 17.341 67.9746 17.9129 67.9746L51.7369 68.2399C52.0161 68.2416 52.2784 68.3531 52.4747 68.5524C52.6709 68.7518 52.7776 69.0154 52.7759 69.2941C52.7708 69.8652 52.3021 70.3315 51.7301 70.3315L17.9062 70.0662Z" fill="#333333"/>
<path d="M17.9078 70.0016C17.6455 69.9999 17.3985 69.8951 17.2157 69.7093C17.0313 69.5217 16.9314 69.2751 16.9331 69.0132C16.9382 68.4759 17.3782 68.04 17.9163 68.04L51.7385 68.3053C52.28 68.3104 52.7183 68.753 52.7132 69.2937C52.7081 69.8309 52.2681 70.2668 51.73 70.2668L17.9078 70.0016Z" fill="#333333"/>
<path d="M17.9078 70.0016C17.6455 69.9999 17.3985 69.8951 17.2157 69.7093C17.033 69.5234 16.9314 69.2751 16.9331 69.0132C16.9382 68.4759 17.3782 68.04 17.9163 68.04L51.7385 68.3053C52.28 68.3104 52.7183 68.753 52.7132 69.2937C52.7081 69.8309 52.2681 70.2668 51.73 70.2668L17.9078 70.0016Z" fill="#333333"/>
<path d="M51.7233 70.2031L17.9078 69.9379C17.4002 69.9345 16.9924 69.5206 16.9957 69.0137C16.9991 68.5068 17.4137 68.0997 17.9213 68.103L51.7368 68.3683C52.2445 68.3717 52.6523 68.7856 52.6489 69.2925C52.6455 69.7993 52.2309 70.2065 51.7233 70.2031Z" fill="#333333"/>
<path d="M17.8621 75.7889C17.5829 75.7872 17.3206 75.6757 17.1243 75.4763C16.9281 75.277 16.8214 75.0134 16.8231 74.7346C16.8282 74.1636 17.2969 73.6973 17.8689 73.6973L51.6928 73.9625C51.972 73.9642 52.2343 74.0757 52.4306 74.2751C52.6269 74.4744 52.7335 74.738 52.7318 75.0168C52.7267 75.5878 52.258 76.0541 51.6861 76.0541L17.8621 75.7889Z" fill="#333333"/>
<path d="M17.8622 75.7262C17.3207 75.7211 16.8824 75.2785 16.8875 74.7378C16.8926 74.2005 17.3325 73.7646 17.8706 73.7646L51.6929 74.0299C52.2344 74.035 52.6726 74.4776 52.6675 75.0183C52.6625 75.5555 52.2225 75.9914 51.6844 75.9914L17.8622 75.7262Z" fill="#333333"/>
<path d="M17.8622 75.7262C17.3207 75.7211 16.8824 75.2785 16.8875 74.7378C16.8926 74.2005 17.3325 73.7646 17.8706 73.7646L51.6929 74.0299C52.2344 74.035 52.6726 74.4776 52.6675 75.0183C52.6625 75.5555 52.2225 75.9914 51.6844 75.9914L17.8622 75.7262Z" fill="#333333"/>
<path d="M51.6776 75.9253L17.8622 75.66C17.3545 75.6567 16.9467 75.2427 16.9501 74.7359C16.9535 74.229 17.3681 73.8218 17.8757 73.8252L51.6912 74.0905C52.1988 74.0939 52.6066 74.5078 52.6032 75.0146C52.5998 75.5215 52.1853 75.9287 51.6776 75.9253Z" fill="#333333"/>
<path d="M28.9422 81.744C28.3652 81.7389 27.8998 81.2675 27.9032 80.6914L28.1367 50.8562C28.1418 50.2852 28.6105 49.8188 29.1825 49.8188C29.4651 49.8205 29.729 49.932 29.927 50.1314C30.1233 50.3308 30.2316 50.5926 30.2299 50.8731L29.9964 80.7083C29.9913 81.2794 29.5226 81.7457 28.9506 81.7457H28.9422V81.744Z" fill="#333333"/>
<path d="M28.9421 81.68C28.4006 81.675 27.9624 81.2323 27.9675 80.6917L28.201 50.8565C28.206 50.3192 28.646 49.8833 29.1841 49.8833C29.734 49.8884 30.1706 50.331 30.1672 50.8717L29.9337 80.7069C29.9286 81.2441 29.4887 81.68 28.9506 81.68H28.9421Z" fill="#333333"/>
<path d="M28.9421 81.68C28.6798 81.6783 28.4328 81.5736 28.25 81.3877C28.0656 81.2002 27.9657 80.9535 27.9674 80.6917L28.2009 50.8565C28.206 50.3192 28.646 49.8833 29.1841 49.8833C29.734 49.8884 30.1706 50.331 30.1672 50.8717L29.9337 80.7069C29.9286 81.2441 29.4887 81.68 28.9506 81.68H28.9421Z" fill="#333333"/>
<path d="M28.9421 81.6163C28.4345 81.6129 28.0267 81.199 28.0301 80.6922L28.2636 50.857C28.2669 50.3501 28.6815 49.9429 29.1892 49.9463C29.6968 49.9497 30.1046 50.3636 30.1012 50.8705L29.8677 80.7057C29.8643 81.2125 29.4497 81.6197 28.9421 81.6163Z" fill="#333333"/>
<path d="M267.251 39.6161C269.415 30.4638 263.738 21.2933 254.571 19.1332C245.405 16.9731 236.22 22.6413 234.057 31.7936C231.893 40.9459 237.57 50.1164 246.737 52.2765C255.903 54.4366 265.088 48.7684 267.251 39.6161Z" fill="white"/>
<path d="M262.386 47.4146C268.862 40.9492 268.862 30.4668 262.386 24.0014C255.911 17.5361 245.412 17.5361 238.937 24.0014C232.462 30.4668 232.462 40.9492 238.937 47.4146C245.412 53.8799 255.911 53.8799 262.386 47.4146Z" fill="white"/>
<path d="M250.662 54.0289C240.543 54.0289 232.311 45.8094 232.311 35.7061C232.311 25.6028 240.543 17.3833 250.662 17.3833C260.781 17.3833 269.013 25.6028 269.013 35.7061C269.013 45.8094 260.781 54.0289 250.662 54.0289ZM250.662 20.9178C242.494 20.9178 235.851 27.5525 235.851 35.7061C235.851 43.8597 242.496 50.4945 250.662 50.4945C258.828 50.4945 265.473 43.8597 265.473 35.7061C265.473 27.5525 258.828 20.9178 250.662 20.9178Z" fill="#333333"/>
<path d="M280.6 72.0547V98.6173C280.6 102.061 277.802 104.855 274.353 104.855H227.097C223.649 104.855 220.85 102.061 220.85 98.6173V72.0547C220.85 64.0193 227.383 57.4961 235.431 57.4961H266.021C274.069 57.4961 280.602 64.0193 280.602 72.0547H280.6Z" fill="white"/>
<path d="M236.969 57.9697H264.483C273.118 57.9697 280.128 64.9694 280.128 73.591V104.384H221.322V73.591C221.322 64.9694 228.332 57.9697 236.967 57.9697H236.969Z" fill="white"/>
<path d="M280.13 106.151H221.324C220.345 106.151 219.554 105.36 219.554 104.384V76.5169C219.554 65.3154 228.681 56.2021 239.9 56.2021H261.552C272.771 56.2021 281.898 65.3154 281.898 76.5169V104.384C281.898 105.36 281.106 106.151 280.128 106.151H280.13ZM223.092 102.618H278.36V76.5169C278.36 67.2634 270.82 59.7349 261.552 59.7349H239.9C230.632 59.7349 223.092 67.2634 223.092 76.5169V102.618Z" fill="#333333"/>
<path d="M231.688 106.151C230.71 106.151 229.918 105.36 229.918 104.383V76.7565C229.918 75.78 230.71 74.9893 231.688 74.9893C232.666 74.9893 233.458 75.78 233.458 76.7565V104.383C233.458 105.36 232.666 106.151 231.688 106.151Z" fill="#333333"/>
<path d="M268.795 106.151C267.816 106.151 267.025 105.36 267.025 104.383V76.7565C267.025 75.78 267.816 74.9893 268.795 74.9893C269.773 74.9893 270.564 75.78 270.564 76.7565V104.383C270.564 105.36 269.773 106.151 268.795 106.151Z" fill="#333333"/>
<circle cx="90.9522" cy="187.755" r="61.1666" fill="#BED7F4"/>
<path d="M134.228 126.995L127.242 163.901L98.7204 139.244L134.228 126.995Z" fill="#BED7F4"/>
<path d="M124.534 161.301H66.3649C64.6271 161.301 63.2183 162.717 63.2183 164.464V200.806C63.2183 202.553 64.6271 203.969 66.3649 203.969H124.534C126.272 203.969 127.68 202.553 127.68 200.806V164.464C127.68 162.717 126.272 161.301 124.534 161.301Z" fill="white"/>
<path d="M127.68 166.038H63.2183V170.78H127.68V166.038Z" fill="#FFE366"/>
<path fill-rule="evenodd" clip-rule="evenodd" d="M66.3602 161.57C64.7729 161.57 63.4862 162.864 63.4862 164.459V200.811C63.4862 202.406 64.7729 203.699 66.3602 203.699H124.538C126.126 203.699 127.412 202.406 127.412 200.811V164.459C127.412 162.864 126.126 161.57 124.538 161.57H66.3602ZM61.6379 164.459C61.6379 161.838 63.7522 159.712 66.3602 159.712H124.538C127.146 159.712 129.261 161.838 129.261 164.459V200.811C129.261 203.432 127.146 205.557 124.538 205.557H66.3602C63.7522 205.557 61.6379 203.432 61.6379 200.811V164.459Z" fill="#333333"/>
<path fill-rule="evenodd" clip-rule="evenodd" d="M66.3648 162.23C65.1374 162.23 64.1423 163.23 64.1423 164.464V200.806C64.1423 202.04 65.1374 203.04 66.3648 203.04H124.534C125.761 203.04 126.756 202.04 126.756 200.806V164.464C126.756 163.23 125.761 162.23 124.534 162.23H66.3648ZM62.2941 164.464C62.2941 162.204 64.1166 160.372 66.3648 160.372H124.534C126.782 160.372 128.604 162.204 128.604 164.464V200.806C128.604 203.066 126.782 204.898 124.534 204.898H66.3648C64.1166 204.898 62.2941 203.066 62.2941 200.806V164.464Z" fill="#333333"/>
<path d="M115.098 174.732H56.9296C55.1918 174.732 53.783 176.148 53.783 177.895V214.237C53.783 215.984 55.1918 217.4 56.9296 217.4H115.098C116.836 217.4 118.245 215.984 118.245 214.237V177.895C118.245 176.148 116.836 174.732 115.098 174.732Z" fill="white"/>
<path fill-rule="evenodd" clip-rule="evenodd" d="M56.9249 175.002C55.3376 175.002 54.0509 176.295 54.0509 177.891V214.242C54.0509 215.838 55.3376 217.131 56.9249 217.131H115.103C116.69 217.131 117.977 215.838 117.977 214.242V177.891C117.977 176.295 116.69 175.002 115.103 175.002H56.9249ZM52.2026 177.891C52.2026 175.269 54.3169 173.144 56.9249 173.144H115.103C117.711 173.144 119.825 175.269 119.825 177.891V214.242C119.825 216.864 117.711 218.989 115.103 218.989H56.9249C54.3169 218.989 52.2026 216.864 52.2026 214.242V177.891Z" fill="#333333"/>
<path fill-rule="evenodd" clip-rule="evenodd" d="M56.9295 175.661C55.7021 175.661 54.707 176.662 54.707 177.895V214.238C54.707 215.471 55.7021 216.472 56.9295 216.472H115.098C116.326 216.472 117.321 215.471 117.321 214.238V177.895C117.321 176.662 116.326 175.661 115.098 175.661H56.9295ZM52.8588 177.895C52.8588 175.636 54.6813 173.804 56.9295 173.804H115.098C117.347 173.804 119.169 175.636 119.169 177.895V214.238C119.169 216.497 117.347 218.329 115.098 218.329H56.9295C54.6813 218.329 52.8588 216.497 52.8588 214.238V177.895Z" fill="#333333"/>
<path d="M72.0527 188.619H64.1884C62.887 188.619 61.8319 189.68 61.8319 190.988V197.313C61.8319 198.622 62.887 199.682 64.1884 199.682H72.0527C73.3542 199.682 74.4092 198.622 74.4092 197.313V190.988C74.4092 189.68 73.3542 188.619 72.0527 188.619Z" fill="#FFE366"/>
<path fill-rule="evenodd" clip-rule="evenodd" d="M64.1885 189.548C63.3974 189.548 62.7561 190.193 62.7561 190.988V197.314C62.7561 198.109 63.3974 198.753 64.1885 198.753H72.0528C72.8438 198.753 73.4851 198.109 73.4851 197.314V190.988C73.4851 190.193 72.8438 189.548 72.0528 189.548H64.1885ZM60.9078 190.988C60.9078 189.167 62.3766 187.69 64.1885 187.69H72.0528C73.8646 187.69 75.3334 189.167 75.3334 190.988V197.314C75.3334 199.135 73.8646 200.611 72.0528 200.611H64.1885C62.3766 200.611 60.9078 199.135 60.9078 197.314V190.988Z" fill="#333333"/>
<path fill-rule="evenodd" clip-rule="evenodd" d="M61.3931 194.151C61.3931 193.894 61.5999 193.687 61.8551 193.687H74.4324C74.6876 193.687 74.8945 193.894 74.8945 194.151C74.8945 194.407 74.6876 194.615 74.4324 194.615H61.8551C61.5999 194.615 61.3931 194.407 61.3931 194.151Z" fill="#333333"/>
<path fill-rule="evenodd" clip-rule="evenodd" d="M61.3927 191.304C61.3927 191.047 61.5996 190.839 61.8548 190.839H74.4321C74.6873 190.839 74.8941 191.047 74.8941 191.304C74.8941 191.56 74.6873 191.768 74.4321 191.768H61.8548C61.5996 191.768 61.3927 191.56 61.3927 191.304Z" fill="#333333"/>
<path fill-rule="evenodd" clip-rule="evenodd" d="M61.3191 196.993C61.3191 196.737 61.526 196.529 61.7812 196.529H74.3585C74.6136 196.529 74.8205 196.737 74.8205 196.993C74.8205 197.25 74.6136 197.458 74.3585 197.458H61.7812C61.526 197.458 61.3191 197.25 61.3191 196.993Z" fill="#333333"/>
<path d="M69.6916 198.098C69.6916 198.967 68.9846 199.677 68.1206 199.677C67.2565 199.677 66.5496 198.967 66.5496 198.098V190.198C66.5496 189.33 67.2565 188.619 68.1206 188.619C68.9846 188.619 69.6916 189.33 69.6916 190.198V198.098Z" fill="#FFE366"/>
<path fill-rule="evenodd" clip-rule="evenodd" d="M68.1206 189.084C67.5117 189.084 67.0116 189.586 67.0116 190.198V198.098C67.0116 198.71 67.5117 199.213 68.1206 199.213C68.7295 199.213 69.2295 198.71 69.2295 198.098V190.198C69.2295 189.586 68.7295 189.084 68.1206 189.084ZM66.0875 190.198C66.0875 189.073 67.0014 188.155 68.1206 188.155C69.2398 188.155 70.1537 189.073 70.1537 190.198V198.098C70.1537 199.223 69.2398 200.142 68.1206 200.142C67.0014 200.142 66.0875 199.223 66.0875 198.098V190.198Z" fill="#333333"/>
<path d="M58.5006 181.843H63.7404V178.685L58.5006 181.843Z" fill="#333333"/>
<path fill-rule="evenodd" clip-rule="evenodd" d="M64.1957 177.876C64.4854 178.041 64.6644 178.35 64.6644 178.685V181.843C64.6644 182.356 64.2507 182.772 63.7403 182.772H58.5005C58.0851 182.772 57.7207 182.493 57.6099 182.091C57.499 181.688 57.669 181.261 58.0252 181.046L63.265 177.888C63.5505 177.716 63.906 177.712 64.1957 177.876ZM61.8386 180.914H62.8161V180.325L61.8386 180.914Z" fill="#333333"/>
<path d="M63.1535 207.452C63.1535 208.599 62.5482 209.57 61.832 209.57C61.1158 209.57 60.5105 208.599 60.5105 207.443C60.5105 206.287 61.1158 205.325 61.8366 205.325C62.5574 205.325 63.1489 206.301 63.1489 207.452H63.1535Z" fill="#333333"/>
<path d="M67.2843 207.452C67.2843 208.599 66.679 209.57 65.9629 209.57C65.2467 209.57 64.6414 208.599 64.6414 207.443C64.6414 206.287 65.2467 205.325 65.9675 205.325C66.6883 205.325 67.2797 206.301 67.2797 207.452H67.2843Z" fill="#333333"/>
<path d="M71.4106 207.452C71.4106 208.599 70.8053 209.57 70.0891 209.57C69.3729 209.57 68.7676 208.599 68.7676 207.443C68.7676 206.287 69.3729 205.325 70.0937 205.325C70.8145 205.325 71.4059 206.301 71.4059 207.452H71.4106Z" fill="#333333"/>
<path d="M75.5367 207.452C75.5367 208.599 74.9314 209.57 74.2152 209.57C73.499 209.57 72.8937 208.599 72.8937 207.443C72.8937 206.287 73.499 205.325 74.2198 205.325C74.9406 205.325 75.532 206.301 75.532 207.452H75.5367Z" fill="#333333"/>
<path d="M81.904 207.452C81.904 208.599 81.2987 209.57 80.5825 209.57C79.8663 209.57 79.261 208.599 79.261 207.443C79.261 206.287 79.8663 205.325 80.5871 205.325C81.3079 205.325 81.8994 206.301 81.8994 207.452H81.904Z" fill="#333333"/>
<path d="M86.0301 207.452C86.0301 208.599 85.4248 209.57 84.7086 209.57C83.9924 209.57 83.3871 208.599 83.3871 207.443C83.3871 206.287 83.9924 205.325 84.7132 205.325C85.434 205.325 86.0255 206.301 86.0255 207.452H86.0301Z" fill="#333333"/>
<path d="M90.1609 207.452C90.1609 208.599 89.5556 209.57 88.8394 209.57C88.1232 209.57 87.5179 208.599 87.5179 207.443C87.5179 206.287 88.1232 205.325 88.8441 205.325C89.5649 205.325 90.1563 206.301 90.1563 207.452H90.1609Z" fill="#333333"/>
<path d="M94.2872 207.452C94.2872 208.599 93.6819 209.57 92.9657 209.57C92.2495 209.57 91.6442 208.599 91.6442 207.443C91.6442 206.287 92.2495 205.325 92.9703 205.325C93.6911 205.325 94.2825 206.301 94.2825 207.452H94.2872Z" fill="#333333"/>
<path d="M100.654 207.452C100.654 208.599 100.049 209.57 99.3328 209.57C98.6167 209.57 98.0114 208.599 98.0114 207.443C98.0114 206.287 98.6167 205.325 99.3375 205.325C100.058 205.325 100.65 206.301 100.65 207.452H100.654Z" fill="#333333"/>
<path d="M104.781 207.452C104.781 208.599 104.175 209.57 103.459 209.57C102.743 209.57 102.138 208.599 102.138 207.443C102.138 206.287 102.743 205.325 103.464 205.325C104.185 205.325 104.776 206.301 104.776 207.452H104.781Z" fill="#333333"/>
<path d="M108.907 207.452C108.907 208.599 108.301 209.57 107.585 209.57C106.869 209.57 106.264 208.599 106.264 207.443C106.264 206.287 106.869 205.325 107.59 205.325C108.311 205.325 108.902 206.301 108.902 207.452H108.907Z" fill="#333333"/>
<path d="M113.038 207.452C113.038 208.599 112.432 209.57 111.716 209.57C111 209.57 110.395 208.599 110.395 207.443C110.395 206.287 111 205.325 111.721 205.325C112.442 205.325 113.033 206.301 113.033 207.452H113.038Z" fill="#333333"/>
<circle cx="227.182" cy="187.834" r="61.1666" fill="#BED7F4"/>
<path d="M173.84 131.395L210.175 140.914L183.608 167.664L173.84 131.395Z" fill="#BED7F4"/>
<path d="M261.26 173.473V183.493H253.648V190.451H261.26V200.471H268.189V190.451H275.583V183.493H268.189V173.473H261.26Z" fill="black"/>
<path d="M190.728 190.037H197.823V192.413H192.213L197.823 198.787V200.464H196.128L190.728 194.334V200.464H188.345V194.374L182.986 200.464H181.291V198.78L186.902 192.405H181.291V190.03H188.345V186.581H185.104V176.086H187.038L188.386 173.473H191.069L189.72 176.086H194.017V186.581H190.735V190.03L190.728 190.037ZM187.487 180.153H191.627V178.476H187.487V180.153ZM191.627 182.529H187.487V184.212H191.627V182.529ZM182.442 177.675L179.896 176.086L178.636 178.102L181.19 179.691L182.449 177.675H182.442ZM181.19 182.284L177.717 184.952L179.174 186.832L182.646 184.165L181.19 182.284ZM200.444 178.109L199.185 176.093L196.632 177.681L197.891 179.697L200.444 178.109ZM196.428 184.171L199.9 186.84L201.357 184.959L197.884 182.291L196.428 184.171ZM221.266 194.157H218.883V197.83H224.064V195.454H221.272V194.157H221.266ZM220.074 178.164H215.75V176.08H213.367V178.164H211.019V180.54H213.367V200.471H215.75V180.54H220.074V178.164ZM220.074 188.332H224.057V185.957H220.074V188.332ZM241.596 178.164H243.946V180.54H241.596V196.309L240.684 200.471H238.24L239.207 196.058V192.738C239.009 192.779 238.805 192.799 238.601 192.799H238.369C236.729 192.799 235.401 191.476 235.401 189.84V187.654C235.401 186.018 236.729 184.694 238.369 184.694H238.601C238.805 184.694 239.009 184.715 239.207 184.755V180.54H234.026V178.164H239.207V176.08H241.59V178.164H241.596ZM239.194 187.654C239.194 187.335 238.935 187.077 238.607 187.077H238.376C238.056 187.077 237.797 187.335 237.791 187.654V189.84C237.791 190.159 238.05 190.424 238.376 190.424H238.607C238.928 190.424 239.194 190.165 239.194 189.84V187.654Z" fill="black"/>
<path d="M266.041 175.583V185.649H273.474V188.295H266.041V198.362H263.402V188.295H255.757V185.649H263.402V175.583H266.041Z" fill="#FFFE3B"/>
<path fill-rule="evenodd" clip-rule="evenodd" d="M192.542 61.6986H78.7188V53.1885H192.542V61.6986Z" fill="#2175D6"/>
<path d="M192.542 74.4639L220.44 57.4436L192.542 40.4233V74.4639Z" fill="#2175D6"/>
<path d="M149.177 33.2545C149.177 30.2951 140.642 27.897 130.112 27.897C119.583 27.897 111.048 30.2951 111.048 33.2545V66.8071C111.048 69.7665 119.583 72.1646 130.112 72.1646C140.642 72.1646 149.177 69.7665 149.177 66.8071V33.2545Z" fill="#FFE366"/>
<path d="M130.116 73.5448C120.265 73.5448 109.661 71.4379 109.661 66.8072V33.2546C109.661 28.627 120.265 26.5171 130.116 26.5171C139.966 26.5171 150.57 28.6239 150.57 33.2546V66.8072C150.57 71.4349 139.966 73.5448 130.116 73.5448ZM130.116 29.2802C125.149 29.2802 120.494 29.8199 117.013 30.7982C113.216 31.8654 112.441 33.0093 112.441 33.2577V66.8103C112.441 67.0587 113.216 68.2026 117.013 69.2698C120.494 70.2481 125.146 70.7878 130.116 70.7878C135.086 70.7878 139.737 70.2481 143.219 69.2698C147.015 68.2026 147.79 67.0587 147.79 66.8103V33.2577C147.79 33.0093 147.015 31.8654 143.219 30.7982C139.737 29.8199 135.086 29.2802 130.116 29.2802Z" fill="#333333"/>
<path d="M116.673 47.6529C116.549 47.6529 116.423 47.6376 116.296 47.6008C111.894 46.371 109.661 44.6476 109.661 42.4733C109.661 41.7097 110.282 41.0933 111.051 41.0933C111.82 41.0933 112.441 41.7097 112.441 42.4733C112.441 42.7217 113.222 43.8747 117.05 44.942C117.788 45.1474 118.22 45.911 118.01 46.644C117.837 47.2512 117.281 47.6498 116.673 47.6498V47.6529Z" fill="#333333"/>
<path d="M130.116 49.2108C127.601 49.2108 125.155 49.0789 122.838 48.8152C122.075 48.7293 121.528 48.0454 121.615 47.288C121.701 46.5305 122.387 45.9877 123.153 46.0736C125.365 46.325 127.706 46.4508 130.116 46.4508C135.082 46.4508 139.737 45.911 143.219 44.9328C147.015 43.8655 147.79 42.7217 147.79 42.4733C147.79 41.7097 148.411 41.0933 149.18 41.0933C149.949 41.0933 150.57 41.7097 150.57 42.4733C150.57 47.1009 139.966 49.2108 130.116 49.2108Z" fill="#333333"/>
<path d="M130.116 40.3324C120.265 40.3324 109.661 38.2256 109.661 33.5949C109.661 32.8312 110.282 32.2148 111.051 32.2148C111.82 32.2148 112.441 32.8312 112.441 33.5949C112.441 33.8433 113.216 34.9871 117.013 36.0543C120.494 37.0326 125.146 37.5723 130.116 37.5723C135.086 37.5723 139.737 37.0326 143.219 36.0543C147.015 34.9871 147.79 33.8433 147.79 33.5949C147.79 32.8312 148.411 32.2148 149.18 32.2148C149.949 32.2148 150.57 32.8312 150.57 33.5949C150.57 38.2225 139.966 40.3324 130.116 40.3324Z" fill="#333333"/>
<path d="M130.116 58.0887C120.265 58.0887 109.661 55.9819 109.661 51.3512C109.661 50.5876 110.282 49.9712 111.051 49.9712C111.82 49.9712 112.441 50.5876 112.441 51.3512C112.441 51.5996 113.216 52.7435 117.013 53.8107C120.494 54.789 125.146 55.3287 130.116 55.3287C135.086 55.3287 139.737 54.789 143.219 53.8107C147.015 52.7435 147.79 51.5996 147.79 51.3512C147.79 50.5876 148.411 49.9712 149.18 49.9712C149.949 49.9712 150.57 50.5876 150.57 51.3512C150.57 55.9788 139.966 58.0887 130.116 58.0887Z" fill="#333333"/>
<path d="M130.116 66.9696C120.265 66.9696 109.661 64.8628 109.661 60.2321C109.661 59.4685 110.282 58.8521 111.051 58.8521C111.82 58.8521 112.441 59.4685 112.441 60.2321C112.441 60.4805 113.216 61.6243 117.013 62.6915C120.494 63.6698 125.146 64.2096 130.116 64.2096C135.086 64.2096 139.737 63.6698 143.219 62.6915C147.015 61.6243 147.79 60.4805 147.79 60.2321C147.79 59.4685 148.411 58.8521 149.18 58.8521C149.949 58.8521 150.57 59.4685 150.57 60.2321C150.57 64.8597 139.966 66.9696 130.116 66.9696Z" fill="#333333"/>
<path d="M175.257 77.2287C177.688 67.0021 171.309 56.755 161.008 54.3413C150.708 51.9276 140.387 58.2613 137.955 68.4879C135.524 78.7146 141.904 88.9616 152.204 91.3753C162.505 93.789 172.826 87.4554 175.257 77.2287Z" fill="#FFE366"/>
<path d="M156.609 93.2695C145.276 93.2695 136.055 84.1154 136.055 72.8638C136.055 61.6121 145.276 52.458 156.609 52.458C167.942 52.458 177.162 61.6121 177.162 72.8638C177.162 84.1154 167.942 93.2695 156.609 93.2695ZM156.609 55.215C146.808 55.215 138.835 63.1301 138.835 72.8607C138.835 82.5913 146.808 90.5064 156.609 90.5064C166.41 90.5064 174.382 82.5913 174.382 72.8607C174.382 63.1301 166.41 55.215 156.609 55.215Z" fill="#333333"/>
<path d="M156.609 88.8322C147.737 88.8322 140.522 81.6684 140.522 72.8609C140.522 70.521 141.019 68.267 142.001 66.1602C142.323 65.4671 143.15 65.1666 143.845 65.4886C144.544 65.8075 144.846 66.6294 144.522 67.3194C143.71 69.0613 143.299 70.9258 143.299 72.8609C143.299 80.1443 149.27 86.0722 156.606 86.0722C160.288 86.0722 163.837 84.5388 166.348 81.8616C166.87 81.3035 167.75 81.2728 168.312 81.7911C168.875 82.3094 168.905 83.1834 168.383 83.7415C165.35 86.9769 161.057 88.8322 156.609 88.8322Z" fill="#333333"/>
<path d="M170.675 78.479C170.543 78.479 170.407 78.4606 170.271 78.4207C169.536 78.1999 169.122 77.4302 169.344 76.7003C169.721 75.4614 169.913 74.1734 169.913 72.8639C169.913 65.5805 163.942 59.6526 156.606 59.6526C153.115 59.6526 149.813 60.9866 147.314 63.4062C146.765 63.9398 145.884 63.9276 145.35 63.3817C144.812 62.8358 144.825 61.9618 145.375 61.4313C148.395 58.5057 152.386 56.8926 156.606 56.8926C165.477 56.8926 172.693 64.0564 172.693 72.8639C172.693 74.4432 172.461 76.0011 172.004 77.5007C171.821 78.0957 171.272 78.4821 170.672 78.4821L170.675 78.479Z" fill="#333333"/>
<path d="M157.928 64.4858L156.732 66.2982C156.68 66.3779 156.562 66.3779 156.513 66.2982L155.345 64.4889C155.321 64.4521 155.28 64.4275 155.234 64.4275H152.114C152.009 64.4275 151.948 64.541 152.003 64.6269L154.638 68.7117C154.694 68.7975 154.632 68.911 154.527 68.911H151.077C151.005 68.911 150.947 68.9693 150.947 69.0398V71.6496C150.947 71.7201 151.005 71.7814 151.077 71.7814H155.03C155.101 71.7814 155.16 71.8397 155.16 71.9102V73.5387C155.16 73.6092 155.101 73.6705 155.03 73.6705H151.077C151.005 73.6705 150.947 73.7288 150.947 73.8024V76.4121C150.947 76.4827 151.005 76.544 151.077 76.544H155.03C155.101 76.544 155.16 76.6023 155.16 76.6728V81.1624C155.16 81.233 155.219 81.2943 155.293 81.2943H157.921C157.992 81.2943 158.054 81.236 158.054 81.1624V76.6728C158.054 76.6023 158.113 76.544 158.184 76.544H162.138C162.209 76.544 162.271 76.4857 162.271 76.4121V73.8024C162.271 73.7319 162.212 73.6705 162.138 73.6705H158.184C158.113 73.6705 158.054 73.6123 158.054 73.5387V71.9102C158.054 71.8397 158.113 71.7814 158.184 71.7814H162.138C162.209 71.7814 162.271 71.7232 162.271 71.6496V69.0398C162.271 68.9693 162.212 68.911 162.138 68.911H158.706C158.601 68.911 158.539 68.7945 158.595 68.7086L161.288 64.6238C161.347 64.5379 161.282 64.4214 161.177 64.4214H158.036C157.992 64.4214 157.949 64.4429 157.925 64.4797L157.928 64.4858Z" fill="#333333"/>
</svg>
