<svg width="164" height="196" viewBox="0 0 164 196" fill="none" xmlns="http://www.w3.org/2000/svg">
<g clip-path="url(#clip0_18_21215)">
<path d="M130.597 11.7396C130.023 11.7396 129.547 11.2636 129.547 10.6896C129.547 10.1156 130.023 9.63965 130.597 9.63965C131.171 9.63965 131.647 10.1156 131.647 10.6896C131.647 11.2636 131.171 11.7396 130.597 11.7396ZM130.597 14.2736L135.217 9.65365L135.623 10.0596L131.003 14.6796L135.623 19.2996L135.217 19.7056L130.597 15.0856L125.963 19.7196L125.557 19.3136L130.191 14.6796L125.571 10.0596L125.977 9.65365L130.597 14.2736ZM127.657 14.6796C127.657 15.2536 127.181 15.7296 126.607 15.7296C126.033 15.7296 125.557 15.2536 125.557 14.6796C125.557 14.1056 126.033 13.6296 126.607 13.6296C127.181 13.6296 127.657 14.1056 127.657 14.6796ZM133.537 14.6796C133.537 14.1056 134.013 13.6296 134.587 13.6296C135.161 13.6296 135.637 14.1056 135.637 14.6796C135.637 15.2536 135.161 15.7296 134.587 15.7296C134.013 15.7296 133.537 15.2536 133.537 14.6796ZM130.597 17.6196C131.171 17.6196 131.647 18.0956 131.647 18.6696C131.647 19.2436 131.171 19.7196 130.597 19.7196C130.023 19.7196 129.547 19.2436 129.547 18.6696C129.547 18.0956 130.023 17.6196 130.597 17.6196Z" fill="#FDD933"/>
<path d="M100.773 3.5357C101.733 3.5117 102.669 3.4637 103.125 3.4157C105.141 3.2477 109.101 2.8877 113.493 2.5277C115.965 2.3117 118.581 2.1677 120.285 2.0957L120.309 5.1677C119.013 5.1917 116.949 5.1917 115.677 5.5037C112.773 6.2717 110.589 9.3677 110.589 12.2237C110.589 16.1837 114.285 17.5997 118.365 17.8157L117.237 21.1037C112.197 20.7677 107.445 18.0797 107.445 12.8717C107.445 9.4157 109.389 6.6797 111.021 5.4557C108.765 5.6957 103.869 6.2237 101.085 6.8237L100.773 3.5357ZM116.877 7.5197C117.477 8.3837 118.341 9.8477 118.797 10.7837L116.973 11.5997C116.373 10.2797 115.869 9.3437 115.101 8.2637L116.877 7.5197ZM119.565 6.4157C120.165 7.2557 121.077 8.6717 121.581 9.6077L119.781 10.4717C119.133 9.1757 118.581 8.2877 117.813 7.2317L119.565 6.4157Z" fill="#FDD933"/>
<path d="M88.7728 0.775879C88.7008 1.11188 88.5568 2.26388 88.5568 2.86388V4.78388H94.1248C94.8208 4.78388 95.8528 4.71188 96.5008 4.61588V7.75988C95.7568 7.71188 94.8208 7.68788 94.1488 7.68788H88.5568V18.8479C88.5568 20.2399 87.7408 21.1039 86.0368 21.1039C84.7648 21.1039 83.3488 21.0559 82.1488 20.8879L81.8368 17.9119C82.8688 18.1039 83.9248 18.1999 84.5248 18.1999C85.1488 18.1999 85.3648 17.9599 85.3888 17.3359C85.4128 16.4479 85.4128 8.83988 85.4128 7.71188V7.68788H79.3168C78.5968 7.68788 77.6848 7.71188 77.0128 7.78388V4.61588C77.7328 4.68788 78.5728 4.78388 79.3168 4.78388H85.4128V2.86388C85.4128 2.23988 85.2928 1.18388 85.2208 0.775879H88.7728ZM83.1328 11.0959C82.0288 13.2319 79.7968 16.3759 78.5008 17.7919L75.8848 16.0159C77.4928 14.5039 79.4128 11.8639 80.3968 9.82388L83.1328 11.0959ZM93.4288 9.75188C94.6528 11.2879 96.5728 14.3119 97.5328 16.0639L94.7248 17.5999C93.6928 15.5599 91.9888 12.6559 90.8128 11.1679L93.4288 9.75188Z" fill="#FDD933"/>
<path d="M73.0287 4.88011C72.6927 5.26411 72.4046 5.57611 72.2127 5.88811C70.4846 8.69611 67.4127 12.5361 64.0287 15.2721C65.3967 16.6401 66.8127 18.2001 67.7487 19.3281L64.9406 21.5601C63.9326 20.2161 61.9167 17.9601 60.3567 16.3761C58.9647 14.9601 56.5166 12.8001 55.0766 11.7681L57.6207 9.72811C58.5807 10.4481 60.1647 11.7441 61.6767 13.0641C64.3887 10.9041 66.6446 8.12011 67.7726 6.15211H55.0766C54.1166 6.15211 52.8207 6.27211 52.3167 6.32011V2.96011C52.9407 3.05611 54.2606 3.17611 55.0766 3.17611H68.3966C69.3086 3.17611 70.1247 3.08011 70.6287 2.91211L73.0287 4.88011Z" fill="#FDD933"/>
<path d="M46.4193 3.72767C46.2273 3.99167 45.7953 4.73567 45.5793 5.21567C44.7633 7.08767 43.4193 9.65567 41.8113 11.8157C44.1873 13.8797 47.0913 16.9517 48.5073 18.6797L45.7713 21.0557C44.2113 18.8957 41.9793 16.4477 39.7233 14.2637C37.1793 16.9517 33.9873 19.4477 30.6993 21.0077L28.2273 18.4157C32.0913 16.9757 35.8113 14.0477 38.0673 11.5277C39.6513 9.72767 41.1153 7.35167 41.6433 5.64767H33.5073C32.4993 5.64767 31.1793 5.79167 30.6753 5.81567V2.40767C31.3233 2.50367 32.7873 2.57567 33.5073 2.57567H41.9793C43.0113 2.57567 43.9713 2.43167 44.4513 2.26367L46.4193 3.72767Z" fill="#FDD933"/>
<path d="M82 196C127.287 196 164 159.287 164 114C164 68.7127 127.287 32 82 32C36.7127 32 0 68.7127 0 114C0 159.287 36.7127 196 82 196Z" fill="#FDD933"/>
<path d="M87.2402 165.14L89.5602 165.86C89.0402 167.26 88.3802 168.68 87.6402 170.02V183.72H85.2402V173.72C84.8202 174.22 84.4002 174.72 84.0002 175.16C83.7802 174.58 83.1002 173.22 82.6802 172.62C84.5002 170.82 86.2402 167.98 87.2402 165.14ZM101.58 170.58H95.9002V172.68H101.08V174.84H95.9002V177.1H101.34V179.3H95.9002V183.74H93.4602V170.58H92.7002C91.9002 172.06 90.9802 173.42 90.0802 174.46C89.7002 174.02 88.7602 173.18 88.2602 172.8C90.0202 171 91.6002 168.12 92.5002 165.26L94.8002 165.84C94.5202 166.68 94.2002 167.5 93.8202 168.32H101.58V170.58Z" fill="#2175D6"/>
<path d="M76.5401 168.78V167.46H72.9001V168.78H76.5401ZM78.7001 165.8V170.44H70.8801V165.8H78.7001ZM68.6001 175.54L66.7801 176.2V181.1C66.7801 182.14 66.6201 182.72 66.0401 183.08C65.4801 183.44 64.7201 183.52 63.5801 183.52C63.5401 182.92 63.2801 182 63.0001 181.4C63.5601 181.42 64.1001 181.42 64.2801 181.42C64.5001 181.42 64.5601 181.34 64.5601 181.12V176.96C63.9801 177.16 63.4201 177.34 62.9001 177.52L62.3401 175.24C62.9801 175.08 63.7201 174.86 64.5601 174.62V171.04H62.6201V168.84H64.5601V165.08H66.7801V168.84H68.4401V171.04H66.7801V173.92L68.2201 173.44L68.6001 175.54ZM72.5001 174.22V172.74H70.8401V174.22H72.5001ZM76.9601 172.74V174.22H78.7001V172.74H76.9601ZM80.9401 178.98H76.9201C78.0401 180.04 79.7001 180.98 81.3201 181.5C80.8401 181.9 80.1601 182.74 79.8201 183.3C78.4201 182.7 77.0001 181.7 75.9001 180.52V183.78H73.6401V180.58C72.2801 181.86 70.5801 182.86 68.8001 183.46C68.4601 182.92 67.8201 182.06 67.3401 181.62C69.2801 181.12 71.2001 180.14 72.5001 178.98H68.8201V177.06H73.6401V175.84H69.0801V171.14H74.3601V175.76H75.1401V171.14H80.6001V175.84H75.9001V177.06H80.9401V178.98Z" fill="#2175D6"/>
<path d="M114.14 143.14C113.94 143.42 113.72 143.76 113.5 144.08C112.52 145.52 111.12 148.08 110.12 149.84C110.86 149.42 111.66 149.24 112.42 149.24C113.92 149.24 114.82 150.18 114.9 151.84C114.94 152.74 114.88 154.34 114.98 155.18C115.06 155.96 115.62 156.26 116.28 156.26C118.02 156.26 119.08 154.02 119.66 151.54L121.82 153.3C120.78 156.72 118.92 159 115.86 159C113.64 159 112.6 157.68 112.52 156.22C112.44 155.16 112.46 153.52 112.4 152.7C112.34 152 111.94 151.58 111.22 151.58C109.86 151.58 108.74 152.98 108.02 154.6C107.5 155.76 106.8 158 106.5 159.06L103.68 158.1C105.16 154.1 109.26 145.94 110.32 144.04C110.58 143.5 110.96 142.84 111.3 142L114.14 143.14Z" fill="#2175D6"/>
<path d="M93.94 153.12C93.78 153.68 93.66 154.34 93.66 154.78C93.66 155.66 94.26 156.32 96.4 156.32C97.74 156.32 99.12 156.16 100.56 155.9L100.46 158.46C99.34 158.6 97.98 158.74 96.38 158.74C93.02 158.74 91.2 157.58 91.2 155.56C91.2 154.64 91.4 153.68 91.56 152.88L93.94 153.12ZM91.68 142.04C91.52 142.58 91.34 143.48 91.26 143.92C91.22 144.14 91.16 144.4 91.1 144.68C92.22 144.52 93.34 144.3 94.44 144.04V146.54C93.24 146.82 91.88 147.04 90.54 147.2C90.36 148.06 90.16 148.94 89.94 149.76C89.22 152.56 87.88 156.64 86.76 159.02L83.98 158.08C85.18 156.08 86.7 151.88 87.44 149.08C87.58 148.54 87.74 147.98 87.86 147.4C87.4 147.42 86.96 147.44 86.54 147.44C85.58 147.44 84.82 147.4 84.12 147.36L84.06 144.86C85.08 144.98 85.76 145.02 86.58 145.02C87.16 145.02 87.76 145 88.38 144.96C88.46 144.52 88.52 144.14 88.56 143.82C88.64 143.08 88.68 142.26 88.62 141.8L91.68 142.04ZM92.86 148.08C93.98 147.98 95.42 147.88 96.7 147.88C97.84 147.88 99.04 147.94 100.22 148.06L100.16 150.46C99.16 150.34 97.94 150.22 96.72 150.22C95.36 150.22 94.12 150.28 92.86 150.42V148.08Z" fill="#2175D6"/>
<path d="M73.3399 143.14C73.1399 143.42 72.9199 143.76 72.6999 144.08C71.7199 145.52 70.3199 148.08 69.3199 149.84C70.0599 149.42 70.8599 149.24 71.6199 149.24C73.1199 149.24 74.0199 150.18 74.0999 151.84C74.1399 152.74 74.0799 154.34 74.1799 155.18C74.2599 155.96 74.8199 156.26 75.4799 156.26C77.2199 156.26 78.2799 154.02 78.8599 151.54L81.0199 153.3C79.9799 156.72 78.1199 159 75.0599 159C72.8399 159 71.7999 157.68 71.7199 156.22C71.6399 155.16 71.6599 153.52 71.5999 152.7C71.5399 152 71.1399 151.58 70.4199 151.58C69.0599 151.58 67.9399 152.98 67.2199 154.6C66.6999 155.76 65.9999 158 65.6999 159.06L62.8799 158.1C64.3599 154.1 68.4599 145.94 69.5199 144.04C69.7799 143.5 70.1599 142.84 70.4999 142L73.3399 143.14Z" fill="#2175D6"/>
<path d="M50.64 142.2C50.52 142.72 50.38 143.36 50.28 143.86C50.14 144.46 50 145.2 49.86 145.92C50.52 145.88 51.12 145.84 51.54 145.84C53.66 145.84 55.16 146.78 55.16 149.66C55.16 152.02 54.88 155.26 54.02 157C53.36 158.4 52.24 158.84 50.74 158.84C49.96 158.84 49.02 158.7 48.34 158.56L47.9 155.92C48.68 156.14 49.82 156.34 50.36 156.34C51.02 156.34 51.54 156.14 51.86 155.48C52.4 154.34 52.66 151.92 52.66 149.94C52.66 148.34 51.98 148.12 50.72 148.12C50.4 148.12 49.9 148.16 49.34 148.2C48.58 151.24 47.1 155.98 45.26 158.92L42.66 157.88C44.6 155.26 45.98 151.22 46.7 148.48C45.98 148.56 45.36 148.64 44.98 148.68C44.42 148.78 43.36 148.92 42.76 149.02L42.52 146.3C43.24 146.36 43.92 146.32 44.66 146.3C45.28 146.28 46.22 146.22 47.24 146.14C47.52 144.62 47.68 143.16 47.66 141.9L50.64 142.2ZM57.52 144.08C58.76 145.8 60.44 149.62 61.04 151.52L58.5 152.7C57.98 150.48 56.56 146.86 55.14 145.1L57.52 144.08Z" fill="#2175D6"/>
<path d="M61.3918 48.0054H102.283C104.485 48.0054 106.272 49.7904 106.272 51.9882V127.009C106.272 129.208 104.484 130.992 102.283 130.992H61.3918C59.1894 130.992 57.4016 129.207 57.4016 127.008V51.9894C57.4016 49.7904 59.1894 48.0066 61.3906 48.0066L61.3918 48.0054Z" fill="#BED7F4"/>
<path d="M102.284 48.4512H61.3918C59.4346 48.4512 57.8479 50.0354 57.8479 51.9896V127.012C57.8479 128.966 59.4346 130.55 61.3918 130.55H102.284C104.241 130.55 105.828 128.966 105.828 127.012V51.9896C105.828 50.0354 104.241 48.4512 102.284 48.4512Z" fill="#BED7F4"/>
<path d="M76.601 126.046C75.7996 126.046 75.1477 125.395 75.1477 124.595C75.1477 123.795 75.7996 123.144 76.601 123.144H87.071C87.8724 123.144 88.5243 123.795 88.5243 124.595C88.5243 125.395 87.8724 126.046 87.071 126.046H76.601Z" fill="#333333"/>
<path d="M87.0721 123.59H76.6022C76.0464 123.59 75.5952 124.04 75.5952 124.595C75.5952 125.15 76.0464 125.601 76.6022 125.601H87.0721C87.6279 125.601 88.0791 125.15 88.0791 124.595C88.0791 124.04 87.6279 123.59 87.0721 123.59Z" fill="#333333"/>
<path d="M106.246 55.7427H57.3918V119.105H106.246V55.7427Z" fill="white"/>
<path d="M105.8 56.1885H57.8369V118.661H105.8V56.1885Z" fill="white"/>
<path d="M58.5422 120.112C57.7407 120.112 57.0889 119.461 57.0889 118.661C57.0889 117.86 57.7407 117.209 58.5422 117.209H105.131C105.932 117.209 106.584 117.86 106.584 118.661C106.584 119.461 105.932 120.112 105.131 120.112H58.5422Z" fill="#333333"/>
<path d="M105.131 117.655H58.5424C57.9866 117.655 57.5354 118.106 57.5354 118.661C57.5354 119.216 57.9866 119.666 58.5424 119.666H105.131C105.687 119.666 106.138 119.216 106.138 118.661C106.138 118.106 105.687 117.655 105.131 117.655Z" fill="#333333"/>
<path d="M58.5422 57.6477C57.7407 57.6477 57.0889 56.9969 57.0889 56.1967C57.0889 55.3965 57.7407 54.7456 58.5422 54.7456H105.131C105.932 54.7456 106.584 55.3965 106.584 56.1967C106.584 56.9969 105.932 57.6477 105.131 57.6477H58.5422Z" fill="#333333"/>
<path d="M105.131 55.1909H58.5424C57.9866 55.1909 57.5354 55.6414 57.5354 56.1963C57.5354 56.7513 57.9866 57.2018 58.5424 57.2018H105.131C105.687 57.2018 106.138 56.7513 106.138 56.1963C106.138 55.6414 105.687 55.1909 105.131 55.1909Z" fill="#333333"/>
<path d="M61.3917 132C58.6359 132 56.3945 129.762 56.3945 127.01V51.9895C56.3945 49.2379 58.6359 47 61.3917 47H102.283C105.039 47 107.28 49.2379 107.28 51.9895V127.01C107.28 129.762 105.039 132 102.283 132H61.3917ZM61.3917 49.9009C60.2388 49.9009 59.2999 50.8371 59.2999 51.9895V127.01C59.2999 128.162 60.2376 129.099 61.3917 129.099H102.283C103.436 129.099 104.375 128.163 104.375 127.01V51.9895C104.375 50.8384 103.437 49.9009 102.283 49.9009H61.3917Z" fill="#333333"/>
<path d="M102.283 47.4443H61.3917C58.8816 47.4443 56.8396 49.4831 56.8396 51.9894V127.01C56.8396 129.517 58.8816 131.555 61.3917 131.555H102.283C104.793 131.555 106.835 129.517 106.835 127.01V51.9894C106.835 49.4831 104.793 47.4456 102.283 47.4456V47.4443ZM104.82 127.01C104.82 128.407 103.681 129.543 102.283 129.543H61.3917C59.9931 129.543 58.8548 128.407 58.8548 127.01V51.9894C58.8548 50.593 59.9931 49.4564 61.3917 49.4564H102.283C103.681 49.4564 104.82 50.593 104.82 51.9894V127.01Z" fill="#333333"/>
</g>
<defs>
<clipPath id="clip0_18_21215">
<rect width="164" height="196" fill="white"/>
</clipPath>
</defs>
</svg>
