<?xml version="1.0" encoding="UTF-8"?>
<svg id="_レイヤー_1" data-name="レイヤー 1" xmlns="http://www.w3.org/2000/svg" viewBox="0 0 752.8 227.04">
  <defs>
    <style>
      .cls-1 {
        stroke: #fff;
        stroke-linecap: round;
        stroke-linejoin: round;
        stroke-width: 10px;
      }

      .cls-1, .cls-2 {
        fill: #fff;
      }

      .cls-3 {
        fill: #2175d6;
      }

      .cls-3, .cls-2, .cls-4 {
        stroke-width: 0px;
      }

      .cls-4 {
        fill: #fdd000;
      }
    </style>
  </defs>
  <rect class="cls-3" x="348.61" y="109.63" width="331" height="109"/>
  <g>
    <path class="cls-4" d="m431.19,187.84h-17.61v-2.48h17.61v2.48Zm0,6.22v1.77c0,1.13,0,1.63-1.41,1.63-1.27,0-2.48-.28-3.11-.5-.21,0-1.7-.5-2.76-.5-1.91,0-3.25,1.7-3.25,3.39,0,1.98,1.49,2.76,1.98,3.04,1.41.71,4.88,1.41,7.99,1.41,8.06,0,8.28-4.67,8.28-5.45v-23.48c0-2.62-3.33-5.02-5.02-5.02h-23.98c-1.41,0-4.53,1.98-4.53,5.52v22.85c0,3.61,0,5.66,4.31,5.66,3.89,0,3.89-2.48,3.89-5.66v-4.67h17.61Zm-1.63-16.98c1.63,0,1.63.71,1.63,2.48h-17.61c0-1.56,0-2.48,1.63-2.48h14.36Zm-45.2,2.55c-2.26,0-4.88,2.55-4.88,5.16v12.94c0,2.33,2.4,5.09,4.88,5.09h11.6c2.26,0,4.88-2.55,4.88-5.09v-12.94c0-2.41-2.4-5.16-4.88-5.16h-11.6Zm2.76,8.7c0-.99.14-1.34,1.2-1.34h4.1c1.2,0,1.2.64,1.2,1.34v5.59c0,.78,0,1.34-1.2,1.34h-4.1c-1.2,0-1.2-.57-1.2-1.34v-5.59Zm39.12-37.49h9.48c2.33,0,3.32,0,4.1-.5.42-.35,1.56-1.2,1.56-2.97,0-.92-.28-1.77-.99-2.55-.99-.99-1.77-.99-4.67-.99h-9.48c-.07-2.48-1.06-4.17-4.39-4.17-4.1,0-4.31,2.76-4.39,4.17h-8.42c-2.9,0-3.68,0-4.6.92-.64.64-1.06,1.42-1.06,2.62,0,.71.14,1.63.92,2.41.99,1.06,1.77,1.06,4.74,1.06h8.42v1.84h-6.01c-2.33,0-3.32,0-4.1.5-.64.5-1.56,1.41-1.56,2.83,0,.92.35,1.98,1.63,2.83.71.5,1.7.5,4.03.5h6.01v1.98h-9.27c-2.33,0-3.32,0-4.1.5-.64.5-1.56,1.42-1.56,2.83,0,.85.28,1.98,1.63,2.83.71.5,1.7.5,4.03.5h28.43c2.33,0,3.32,0,4.1-.5.64-.5,1.56-1.41,1.56-2.83,0-.78-.28-1.98-1.63-2.83-.71-.5-1.7-.5-4.03-.5h-10.4v-1.98h7.29c2.33,0,3.32,0,4.1-.5.64-.5,1.56-1.42,1.56-2.83,0-.92-.35-1.98-1.63-2.83-.71-.5-1.7-.5-4.03-.5h-7.29v-1.84Zm-40.46-9.41c-2.05,0-2.97,0-3.54.21-.85.21-2.12,1.34-2.12,3.04,0,1.13.57,2.05,1.56,2.76.78.5,1.7.5,4.03.5h9.41c2.33,0,3.32,0,4.1-.5.99-.64,1.56-1.49,1.56-2.69,0-3.32-2.83-3.32-5.52-3.32h-9.48Zm-2.9,9.05c-3.11,0-5.66,0-5.66,3.89,0,1.41.5,2.12.99,2.62.99.99,1.7.99,4.67.99h14.71c3.11,0,5.66,0,5.66-3.89,0-1.41-.5-2.12-.99-2.62-.99-.99-1.7-.99-4.67-.99h-14.71Zm2.12,10.19c-2.33,0-3.32,0-4.03.5-.64.42-1.56,1.34-1.56,2.76,0,.85.28,1.98,1.56,2.83.78.5,1.7.5,4.03.5h10.19c2.33,0,3.32,0,4.1-.5.64-.42,1.56-1.34,1.56-2.76,0-.85-.35-1.98-1.56-2.83-.78-.5-1.77-.5-4.1-.5h-10.19Zm0,9.2c-2.26,0-3.32,0-4.03.5-.71.5-1.56,1.41-1.56,2.83,0,.85.28,1.98,1.56,2.83.78.5,1.7.5,4.03.5h10.19c2.33,0,3.32,0,4.1-.5.71-.5,1.56-1.41,1.56-2.83,0-.78-.28-1.98-1.56-2.83-.78-.5-1.77-.5-4.1-.5h-10.19Z"/>
    <path class="cls-4" d="m496.08,150c-.5-.57-3.18-3.25-3.47-3.61-1.2-1.49-1.56-1.84-1.56-3.11,0-1.98,1.49-3.82,3.47-3.82s3.33,1.27,4.88,2.76c1.98,1.84,5.02,4.88,5.02,6.79,0,.42-.07.71-.14.99h2.26c2.76,0,5.66,0,5.66,3.96s-2.97,3.96-5.66,3.96h-21.86v40.95c0,1.06-.78,2.55-1.7,3.54-.85.85-2.33,1.91-6.65,1.91s-8.98-1.13-11.03-2.83c-.78-.64-1.56-1.7-1.56-3.61,0-3.54,3.04-3.68,4.1-3.68.78,0,1.7.21,2.48.5,2.19.64,3.89.85,4.6.85,1.27,0,1.27-.92,1.27-1.84v-35.79h-22.21c-2.76,0-5.66,0-5.66-3.96s2.97-3.96,5.66-3.96h22.21v-4.38c0-3.11,0-5.66,3.89-5.66,4.6,0,4.6,2.05,4.6,5.66v4.38h11.39Zm4.1,17.97c5.52-4.88,5.66-5.09,7.36-5.09,2.33,0,4.24,2.05,4.24,4.24,0,1.13-.5,2.19-1.63,3.32-3.11,3.04-6.79,5.66-10.54,7.92,1.98,3.61,4.67,6.51,7.21,8.7,5.59,4.81,6.01,6.01,6.01,7.5,0,1.98-2.12,4.1-4.1,4.1-3.68,0-8.56-5.52-11.74-9.41-3.32-3.96-10.89-16.06-10.89-20.23,0-2.62,2.76-3.89,4.24-3.89,1.2,0,2.05.5,2.69,1.2.14.21,1.84,3.33,2.76,5.02.71-.57,4.24-3.25,4.39-3.4Zm-33.6,8.98c-.5,0-1.41-.21-1.91-.5-9.69-5.87-10.75-6.58-11.25-7-.92-.92-1.06-1.77-1.06-2.4,0-1.84,1.34-4.31,3.96-4.31,1.91,0,3.18.64,7,2.97,6.37,3.82,7.5,4.53,7,7.64-.5,2.9-2.76,3.61-3.75,3.61Zm-7.36,6.08c1.34-.57,1.98-.99,7.92-4.74,1.56-.99,2.26-1.34,3.11-1.34,1.91,0,3.61,1.49,3.61,4.1s-.85,3.96-10.47,9.12c-7.92,4.24-9.62,4.95-11.53,4.95s-3.96-1.98-3.96-4.53c0-1.42.71-2.76,1.91-3.25l9.41-4.31Z"/>
    <path class="cls-4" d="m565.63,172.28c.5,0,.78.14.78.5,0,.21-.07.42-.14.5-2.97,5.52-7.99,9.12-13.65,12.52-3.25-2.55-8.28-6.86-11.74-13.51h24.76Zm-43.43,23.55c-1.06.21-2.97,1.13-2.97,3.82,0,1.7.57,4.74,3.89,4.74,5.02,0,18.04-2.9,29-8.49,8.7,5.16,22.35,8.13,27.51,8.13,2.05,0,3.68-.92,3.68-4.24,0-2.76-1.56-3.47-3.04-3.68-7-1.06-11.81-1.77-19.52-5.37,14.92-10.54,15.7-19.38,15.7-20.72,0-.85,0-5.94-5.87-5.94h-14.71v-8.21h21.5c3.39,0,5.66,0,5.66-4.24,0-3.75-2.69-3.75-5.66-3.75h-21.5v-2.69c0-3.96,0-5.66-5.02-5.66-4.03,0-4.03,2.4-4.03,5.66v2.69h-22c-3.39,0-5.66,0-5.66,4.24,0,3.75,2.76,3.75,5.66,3.75h22v8.21h-16.69c-3.47,0-5.66,0-5.66,4.38,0,3.82,2.69,3.82,5.66,3.82h1.41c1.84,6.01,6.22,12.31,12.52,17.89-1.91.85-6.93,3.11-11.25,3.82l-10.61,1.84Z"/>
    <path class="cls-4" d="m610.42,152.26c2.55,0,5.23-.07,5.23,3.89,0,3.32-1.49,4.1-5.23,4.1h-3.18v9.41c1.77-.35,4.81-.92,5.3-.92,3.54,0,3.68,3.54,3.68,4.31,0,1.56-.42,2.83-1.7,3.4-.64.21-6.15,1.41-7.29,1.7v18.6c0,7.36-5.45,7.36-7.29,7.36-2.26,0-5.73-.21-7.57-1.56-1.34-.92-1.98-2.33-1.98-3.75,0-2.19,1.56-4.17,3.11-4.17.64,0,3.54.92,4.1.92,1.06,0,1.27-.21,1.27-2.76v-12.8c-1.27.28-4.24.85-5.45.85-1.84,0-4.1-1.27-4.1-4.6,0-3.54,2.76-3.82,4.39-4.03,1.77-.21,4.03-.64,5.16-.85v-11.1h-3.32c-3.04,0-5.73,0-5.73-3.75,0-4.24,2.26-4.24,5.73-4.24h3.32v-6.51c0-3.04,0-5.66,3.89-5.66,4.46,0,4.46,2.12,4.46,5.66v6.51h3.18Zm32.4,36.21c-.5-2.12-2.55-11.81-2.97-13.79-.28-1.06-1.63-5.94-1.91-6.93-.21-.92-.42-1.91-.42-2.76,0-2.19,1.06-3.82,4.31-3.82s3.82,2.41,4.17,3.4c.92,3.04,7.99,30.13,7.99,34.52s-3.25,4.53-4.39,4.53c-1.06,0-2.69-.64-3.32-1.84-.14-.28-1.49-5.09-1.7-5.87-2.33.5-12.73,2.62-14.85,3.11-.57.14-12.1,2.9-16.48,2.9-2.62,0-3.96-2.48-3.96-4.67,0-3.32,2.48-3.82,8.13-4.74,4.17-20.79,4.6-23.13,6.79-37.49.42-2.69.85-7.07,1.27-9.83.42-2.26.85-4.88,4.38-4.88,4.24,0,4.24,4.03,4.24,5.02,0,7.57-7.29,44-7.64,45.76,4.17-.5,7-.92,16.34-2.62Z"/>
  </g>
  <g>
    <path class="cls-4" d="m431.06,187.85h-17.61v-2.48h17.61v2.48Zm0,6.22v1.77c0,1.13,0,1.63-1.42,1.63-1.27,0-2.48-.28-3.11-.5-.21,0-1.7-.5-2.76-.5-1.91,0-3.25,1.7-3.25,3.39,0,1.98,1.49,2.76,1.98,3.04,1.41.71,4.88,1.41,7.99,1.41,8.06,0,8.28-4.67,8.28-5.45v-23.48c0-2.62-3.33-5.02-5.02-5.02h-23.98c-1.41,0-4.53,1.98-4.53,5.52v22.85c0,3.61,0,5.66,4.31,5.66,3.89,0,3.89-2.48,3.89-5.66v-4.67h17.61Zm-1.63-16.98c1.63,0,1.63.71,1.63,2.48h-17.61c0-1.56,0-2.48,1.63-2.48h14.36Zm-45.2,2.55c-2.26,0-4.88,2.55-4.88,5.16v12.94c0,2.33,2.4,5.09,4.88,5.09h11.6c2.26,0,4.88-2.55,4.88-5.09v-12.94c0-2.41-2.4-5.16-4.88-5.16h-11.6Zm2.76,8.7c0-.99.14-1.34,1.2-1.34h4.1c1.2,0,1.2.64,1.2,1.34v5.59c0,.78,0,1.34-1.2,1.34h-4.1c-1.2,0-1.2-.57-1.2-1.34v-5.59Zm39.12-37.49h9.48c2.33,0,3.32,0,4.1-.5.42-.35,1.56-1.2,1.56-2.97,0-.92-.28-1.77-.99-2.55-.99-.99-1.77-.99-4.67-.99h-9.48c-.07-2.48-1.06-4.17-4.39-4.17-4.1,0-4.31,2.76-4.39,4.17h-8.42c-2.9,0-3.68,0-4.6.92-.64.64-1.06,1.41-1.06,2.62,0,.71.14,1.63.92,2.41.99,1.06,1.77,1.06,4.74,1.06h8.42v1.84h-6.01c-2.33,0-3.32,0-4.1.5-.64.5-1.56,1.41-1.56,2.83,0,.92.35,1.98,1.63,2.83.71.5,1.7.5,4.03.5h6.01v1.98h-9.27c-2.33,0-3.32,0-4.1.5-.64.5-1.56,1.41-1.56,2.83,0,.85.28,1.98,1.63,2.83.71.5,1.7.5,4.03.5h28.43c2.33,0,3.32,0,4.1-.5.64-.5,1.56-1.41,1.56-2.83,0-.78-.28-1.98-1.63-2.83-.71-.5-1.7-.5-4.03-.5h-10.4v-1.98h7.29c2.33,0,3.32,0,4.1-.5.64-.5,1.56-1.42,1.56-2.83,0-.92-.35-1.98-1.63-2.83-.71-.5-1.7-.5-4.03-.5h-7.29v-1.84Zm-40.46-9.41c-2.05,0-2.97,0-3.54.21-.85.21-2.12,1.34-2.12,3.04,0,1.13.57,2.05,1.56,2.76.78.5,1.7.5,4.03.5h9.41c2.33,0,3.32,0,4.1-.5.99-.64,1.56-1.49,1.56-2.69,0-3.32-2.83-3.32-5.52-3.32h-9.48Zm-2.9,9.05c-3.11,0-5.66,0-5.66,3.89,0,1.41.5,2.12.99,2.62.99.99,1.7.99,4.67.99h14.71c3.11,0,5.66,0,5.66-3.89,0-1.41-.5-2.12-.99-2.62-.99-.99-1.7-.99-4.67-.99h-14.71Zm2.12,10.19c-2.33,0-3.32,0-4.03.5-.64.42-1.56,1.34-1.56,2.76,0,.85.28,1.98,1.56,2.83.78.5,1.7.5,4.03.5h10.19c2.33,0,3.32,0,4.1-.5.64-.42,1.56-1.34,1.56-2.76,0-.85-.35-1.98-1.56-2.83-.78-.5-1.77-.5-4.1-.5h-10.19Zm0,9.2c-2.26,0-3.32,0-4.03.5-.71.5-1.56,1.41-1.56,2.83,0,.85.28,1.98,1.56,2.83.78.5,1.7.5,4.03.5h10.19c2.33,0,3.32,0,4.1-.5.71-.5,1.56-1.41,1.56-2.83,0-.78-.28-1.98-1.56-2.83-.78-.5-1.77-.5-4.1-.5h-10.19Z"/>
    <path class="cls-4" d="m495.94,150.01c-.5-.57-3.18-3.25-3.47-3.61-1.2-1.49-1.56-1.84-1.56-3.11,0-1.98,1.49-3.82,3.47-3.82s3.33,1.27,4.88,2.76c1.98,1.84,5.02,4.88,5.02,6.79,0,.42-.07.71-.14.99h2.26c2.76,0,5.66,0,5.66,3.96s-2.97,3.96-5.66,3.96h-21.86v40.95c0,1.06-.78,2.55-1.7,3.54-.85.85-2.33,1.91-6.65,1.91s-8.98-1.13-11.03-2.83c-.78-.64-1.56-1.7-1.56-3.61,0-3.54,3.04-3.68,4.1-3.68.78,0,1.7.21,2.48.5,2.19.64,3.89.85,4.6.85,1.27,0,1.27-.92,1.27-1.84v-35.79h-22.21c-2.76,0-5.66,0-5.66-3.96s2.97-3.96,5.66-3.96h22.21v-4.38c0-3.11,0-5.66,3.89-5.66,4.6,0,4.6,2.05,4.6,5.66v4.38h11.39Zm4.1,17.97c5.52-4.88,5.66-5.09,7.36-5.09,2.33,0,4.24,2.05,4.24,4.24,0,1.13-.5,2.19-1.63,3.32-3.11,3.04-6.79,5.66-10.54,7.92,1.98,3.61,4.67,6.51,7.21,8.7,5.59,4.81,6.01,6.01,6.01,7.5,0,1.98-2.12,4.1-4.1,4.1-3.68,0-8.56-5.52-11.74-9.41-3.32-3.96-10.89-16.06-10.89-20.23,0-2.62,2.76-3.89,4.24-3.89,1.2,0,2.05.5,2.69,1.2.14.21,1.84,3.33,2.76,5.02.71-.57,4.24-3.25,4.39-3.4Zm-33.6,8.98c-.5,0-1.42-.21-1.91-.5-9.69-5.87-10.75-6.58-11.25-7-.92-.92-1.06-1.77-1.06-2.4,0-1.84,1.34-4.31,3.96-4.31,1.91,0,3.18.64,7,2.97,6.37,3.82,7.5,4.53,7,7.64-.5,2.9-2.76,3.61-3.75,3.61Zm-7.36,6.08c1.34-.57,1.98-.99,7.92-4.74,1.56-.99,2.26-1.34,3.11-1.34,1.91,0,3.61,1.49,3.61,4.1s-.85,3.96-10.47,9.12c-7.92,4.24-9.62,4.95-11.53,4.95s-3.96-1.98-3.96-4.53c0-1.42.71-2.76,1.91-3.25l9.41-4.31Z"/>
    <path class="cls-4" d="m565.49,172.29c.5,0,.78.14.78.5,0,.21-.07.42-.14.5-2.97,5.52-7.99,9.12-13.65,12.52-3.25-2.55-8.28-6.86-11.74-13.51h24.76Zm-43.43,23.55c-1.06.21-2.97,1.13-2.97,3.82,0,1.7.57,4.74,3.89,4.74,5.02,0,18.04-2.9,29-8.49,8.7,5.16,22.35,8.13,27.51,8.13,2.05,0,3.68-.92,3.68-4.24,0-2.76-1.56-3.47-3.04-3.68-7-1.06-11.81-1.77-19.52-5.37,14.92-10.54,15.7-19.38,15.7-20.72,0-.85,0-5.94-5.87-5.94h-14.71v-8.2h21.5c3.39,0,5.66,0,5.66-4.24,0-3.75-2.69-3.75-5.66-3.75h-21.5v-2.69c0-3.96,0-5.66-5.02-5.66-4.03,0-4.03,2.4-4.03,5.66v2.69h-22c-3.39,0-5.66,0-5.66,4.24,0,3.75,2.76,3.75,5.66,3.75h22v8.2h-16.69c-3.47,0-5.66,0-5.66,4.38,0,3.82,2.69,3.82,5.66,3.82h1.41c1.84,6.01,6.22,12.31,12.52,17.89-1.91.85-6.93,3.11-11.25,3.82l-10.61,1.84Z"/>
    <path class="cls-4" d="m610.28,152.27c2.55,0,5.23-.07,5.23,3.89,0,3.32-1.49,4.1-5.23,4.1h-3.18v9.41c1.77-.35,4.81-.92,5.3-.92,3.54,0,3.68,3.54,3.68,4.31,0,1.56-.42,2.83-1.7,3.4-.64.21-6.15,1.41-7.29,1.7v18.6c0,7.36-5.45,7.36-7.29,7.36-2.26,0-5.73-.21-7.57-1.56-1.34-.92-1.98-2.33-1.98-3.75,0-2.19,1.56-4.17,3.11-4.17.64,0,3.54.92,4.1.92,1.06,0,1.27-.21,1.27-2.76v-12.8c-1.27.28-4.24.85-5.45.85-1.84,0-4.1-1.27-4.1-4.6,0-3.54,2.76-3.82,4.39-4.03,1.77-.21,4.03-.64,5.16-.85v-11.1h-3.32c-3.04,0-5.73,0-5.73-3.75,0-4.24,2.26-4.24,5.73-4.24h3.32v-6.51c0-3.04,0-5.66,3.89-5.66,4.46,0,4.46,2.12,4.46,5.66v6.51h3.18Zm32.4,36.21c-.5-2.12-2.55-11.81-2.97-13.79-.28-1.06-1.63-5.94-1.91-6.93-.21-.92-.42-1.91-.42-2.76,0-2.19,1.06-3.82,4.31-3.82s3.82,2.41,4.17,3.4c.92,3.04,7.99,30.13,7.99,34.52s-3.25,4.53-4.39,4.53c-1.06,0-2.69-.64-3.32-1.84-.14-.28-1.49-5.09-1.7-5.87-2.33.5-12.73,2.62-14.85,3.11-.57.14-12.1,2.9-16.48,2.9-2.62,0-3.96-2.48-3.96-4.67,0-3.32,2.48-3.82,8.13-4.74,4.17-20.79,4.6-23.13,6.79-37.49.42-2.69.85-7.07,1.27-9.83.42-2.26.85-4.88,4.38-4.88,4.24,0,4.24,4.03,4.24,5.02,0,7.57-7.29,44-7.64,45.76,4.17-.5,7-.92,16.34-2.62Z"/>
  </g>
  <g>
    <path class="cls-1" d="m551.36,101.75h16.62c.03-1.03.53-18.21.56-19.3h-17.18v-10.34h-19.94v9.35h-16.84v19.92h16.27l-.28,7.43h-20.22c0,.11-.71,20.06-.75,21.18,1.14,0,63.44,0,64.56,0v-20.25h-22.8v-7.99Z"/>
    <path class="cls-1" d="m561.24,49.36c2.04-2.63,4.13-5.7,6.21-9.12,2.04-3.35,4.14-7.17,6.25-11.32-.36-.55-9.56-14.48-9.88-14.96h-56.12v19.2h16.74s-6.8,13.96-7.25,14.88c.83.46,7.31,4.05,7.31,4.05l-1.12.45c-2.26.91-4.74,1.8-7.36,2.65l-7.71,2.46s6.47,17.98,6.81,18.93c5.71-1.69,11.08-3.57,15.96-5.6,5.01-2.09,9.62-4.46,13.7-7.04l.28-.18,21.73,12.5,9.79-17.16-15.76-9.23.42-.53Zm-18.93-9.89l-.43-.25-11.18-6.55h16.65l-5.03,6.8Z"/>
    <path class="cls-1" d="m476.64,110.76c0-6.26-5.1-11.36-11.36-11.36s-11.36,5.1-11.36,11.36,5.1,11.36,11.36,11.36,11.36-5.1,11.36-11.36Z"/>
    <path class="cls-1" d="m489.35,101.15v-14.3l2.95-1.16s1.97,9.76,2.16,10.75c1.01-.26,15.87-4.05,16.9-4.31-.2-1.07-6.26-33.35-6.46-34.43-1,.28-10.58,2.99-10.58,2.99l15.79-21.14-14.17-9.83-9.43,11.73-4.2-3.58,12.53-15.35s-12.33-9.95-13.19-10.42c-.58.96-24.67,31.88-24.67,31.88l15.71,13.65-18.22,20.44,3.18,16.1,14.78-3.39s0,3.98,0,9.38c3.41,2.3,5.65,6.19,5.65,10.6s-2.25,8.31-5.66,10.61c0,4.62,0,7.99.02,8.29,1.09-.18,16.94,0,16.94,0v-11.36c-2.3-2.14-3.75-5.19-3.75-8.57s1.45-6.43,3.75-8.58Zm-6.32-30.09l5.36-6.55,1.07,5.94-7.5,1.92,1.08-1.32Z"/>
    <path class="cls-1" d="m497.35,99.4c-5.69,0-10.33,4.63-10.33,10.33s4.63,10.33,10.33,10.33,10.33-4.63,10.33-10.33-4.63-10.33-10.33-10.33Z"/>
    <path class="cls-1" d="m669.41,108.98v-5.9h19.8v-19.42h-19.8v-6.92s24.56-.03,25.64,0c.02-.89,0-56.78,0-56.78,0-3.12-2.39-6.17-5.48-6.17h-57.3c-3.09,0-5.87,2.05-5.87,5.17v57.78h22.8l-.29,6.55h-17.89v19.3h17.11l-.29,6.4h-20.23s-5.31-16.03-5.66-17.03c-.94.33-11.08,3.23-11.08,3.23v-14.78s9.87.06,10.84,0c-.05-1.04.05-19.27,0-20.34-1,.05-10.84,0-10.84,0v-20.89s9.86.09,10.84,0c-.07-1.03.07-18.09,0-19.16-1.09.08-40.14,0-40.14,0,0,0-.07,18.08,0,19.16,1.01-.08,10.5,0,10.5,0v20.89s-9.5-.05-10.5,0c.05,1.06-.05,19.26,0,20.34,1.02-.06,10.5,0,10.5,0v21.3l-12.8,5.36,5.96,19.16,37.89-13.68v17.13s72.25-.02,73.33,0c.04-1.03.8-19.6.84-20.68-1.11-.03-27.89,0-27.89,0Zm0-71.91v-5.18h5.36v5.76h-5.36v-.58Zm-18.63,20.78h-5.54v-5.44h5.54v5.44Zm.48-20.76h-5.66v-5.82h5.66v5.82Zm17.62,20.44v-4.62h5.42v5.2h-5.42v-.58Z"/>
  </g>
  <path class="cls-3" d="m355.55,70.51l-25.98,61.43-22.26-9.59,25.78-61.89,22.46,10.04Zm-70.73-21.31l7.01,36.3-22.44,4.39-7.34-36.43,22.76-4.26Zm29.49-5.46l7.01,36.3-22.44,4.39-7.34-36.43,22.76-4.26Z"/>
  <path class="cls-3" d="m8.45,5.27c-3.12,0-5.67,2.55-5.67,5.67v97.64c0,3.12,2.29,6.79,5.1,8.15l59.93,29.15c2.8,1.36,7.4,1.38,10.21.03l60.85-29.21c2.81-1.35,5.11-5,5.11-8.12V10.94c0-3.12-2.55-5.67-5.67-5.67H8.45Zm28.4,109.31c-9.65,0-17.48-7.83-17.48-17.48s7.83-17.48,17.48-17.48,17.48,7.83,17.48,17.48-7.83,17.48-17.48,17.48Zm73.19,0c-9.65,0-17.48-7.83-17.48-17.48s7.83-17.48,17.48-17.48,17.48,7.83,17.48,17.48-7.83,17.48-17.48,17.48Zm12.21-70.21v24.32h-36.56v64.02h-25.65v-64.48H20.52l-.52-25.91h40.04V15.25h25.65v27.53h16.42c-3.83-3.2-6.27-8.02-6.27-13.41,0-9.65,7.83-17.48,17.48-17.48s17.48,7.83,17.48,17.48c0,6.38-3.43,11.95-8.54,15Z"/>
  <path class="cls-3" d="m113.32,21.95c-4.1,0-7.43,3.33-7.43,7.43s3.33,7.43,7.43,7.43,7.43-3.33,7.43-7.43-3.33-7.43-7.43-7.43Z"/>
  <path class="cls-3" d="m191.18,20.19l-4.8,21.43h68.77v25.91h-26.88l-5.5,64.71h-25.39l5.11-64.71h-21.82l-4.22,19.16-25.85-6.37,14.55-66.76,26.04,6.62Z"/>
  <g>
    <path class="cls-3" d="m364.56,132.37c-1.38,0-2.5-1.12-2.5-2.5V12.99c0-1.38,1.12-2.5,2.5-2.5h27.31c1.38,0,2.5,1.12,2.5,2.5v43.93l54.91,13.73c1.34.33,2.15,1.69,1.82,3.03l-6.55,26.22c-.28,1.13-1.3,1.89-2.42,1.89-.19,0-.39-.02-.58-.07l-47.17-11.28v39.43c0,1.38-1.12,2.5-2.5,2.5h-27.31Z"/>
    <path class="cls-2" d="m391.87,12.99v45.88l56.8,14.2-6.55,26.22-50.25-12.02v42.6h-27.31V12.99h27.31m0-5h-27.31c-2.76,0-5,2.24-5,5v116.88c0,2.76,2.24,5,5,5h27.31c2.76,0,5-2.24,5-5v-36.27l44.09,10.54c.39.09.78.14,1.17.14,2.24,0,4.28-1.52,4.85-3.79l6.55-26.22c.67-2.68-.96-5.39-3.64-6.06l-53.01-13.25V12.99c0-2.76-2.24-5-5-5h0Z"/>
  </g>
  <path class="cls-3" d="m517.2,48.37c.83.46,7.31,4.05,7.31,4.05l-1.12.45c-2.26.91-4.74,1.8-7.36,2.65l-7.71,2.46s6.47,17.98,6.81,18.93c5.71-1.69,11.08-3.57,15.96-5.6,5.01-2.09,9.62-4.46,13.7-7.04l.28-.18,21.73,12.5,9.79-17.16-15.76-9.23.42-.53c2.04-2.63,4.13-5.7,6.21-9.12,2.04-3.35,4.14-7.17,6.25-11.32-.36-.55-9.56-14.48-9.88-14.96h-56.12v19.2h16.74s-6.8,13.96-7.25,14.88Zm30.15-15.38l-5.03,6.8-.43-.25-11.18-6.55h16.65Z"/>
  <path class="cls-3" d="m551.36,101.75h16.62c.03-1.03.53-18.21.56-19.3h-17.18v-10.34h-19.94v9.35h-16.84v19.92h16.27l-.28,7.43h-20.22c0,.11-.71,20.06-.75,21.18,1.14,0,63.44,0,64.56,0v-20.25h-22.8v-7.99Z"/>
  <path class="cls-3" d="m453.92,111.09c0-6.26,5.1-11.36,11.36-11.36s11.36,5.1,11.36,11.36-5.1,11.36-11.36,11.36-11.36-5.1-11.36-11.36Z"/>
  <path class="cls-3" d="m485.61,110.06c0-3.38,1.45-6.43,3.75-8.58v-14.3l2.95-1.16s1.97,9.76,2.16,10.75c1.01-.26,15.87-4.05,16.9-4.31-.2-1.07-6.26-33.35-6.46-34.43-1,.28-10.58,2.99-10.58,2.99l15.79-21.14-14.17-9.83-9.43,11.73-4.2-3.58,12.53-15.35s-12.33-9.95-13.19-10.42c-.58.96-24.67,31.88-24.67,31.88l15.71,13.65-18.22,20.44,3.18,16.1,14.78-3.39s0,3.98,0,9.38c3.41,2.3,5.65,6.19,5.65,10.6s-2.25,8.31-5.66,10.61c0,4.62,0,7.99.02,8.29,1.09-.18,16.94,0,16.94,0v-11.36c-2.3-2.14-3.75-5.19-3.75-8.57Zm-2.58-38.67l5.36-6.55,1.07,5.94-7.5,1.92,1.08-1.32Z"/>
  <path class="cls-3" d="m487.02,110.06c0-5.69,4.63-10.33,10.33-10.33s10.33,4.63,10.33,10.33-4.63,10.33-10.33,10.33-10.33-4.63-10.33-10.33Z"/>
  <path class="cls-3" d="m669.41,109.3v-5.9h19.8v-19.42h-19.8v-6.92s24.56-.03,25.64,0c.02-.89,0-56.78,0-56.78,0-3.12-2.39-6.17-5.48-6.17h-57.3c-3.09,0-5.87,2.05-5.87,5.17v57.78h22.8l-.29,6.55h-17.89v19.3h17.11l-.29,6.4h-20.23s-5.31-16.03-5.66-17.03c-.94.33-11.08,3.23-11.08,3.23v-14.78s9.87.06,10.84,0c-.05-1.04.05-19.27,0-20.34-1,.05-10.84,0-10.84,0v-20.89s9.86.09,10.84,0c-.07-1.03.07-18.09,0-19.16-1.09.08-40.14,0-40.14,0,0,0-.07,18.08,0,19.16,1.01-.08,10.5,0,10.5,0v20.89s-9.5-.05-10.5,0c.05,1.06-.05,19.26,0,20.34,1.02-.06,10.5,0,10.5,0v21.3l-12.8,5.36,5.96,19.16,37.89-13.68v17.13s72.25-.02,73.33,0c.04-1.03.8-19.6.84-20.68-1.11-.03-27.89,0-27.89,0Zm5.36-71.33h-5.36v-5.76h5.36v5.76Zm-23.99,20.2h-5.54v-5.44h5.54v5.44Zm.48-20.76h-5.66v-5.82h5.66v5.82Zm17.62,20.44v-4.62h5.42v5.2h-5.42v-.58Z"/>
  <g>
    <path class="cls-3" d="m715.55,115.35h-4.82v-3.58h13.97v3.58h-4.85v14.31h-4.3v-14.31Z"/>
    <path class="cls-3" d="m727.45,111.78h4.63l2.83,7.73c.36,1.03.65,2.16.98,3.24h.12c.36-1.08.65-2.21.98-3.24l2.74-7.73h4.66v17.88h-3.91v-6.12c0-1.78.34-4.44.58-6.19h-.12l-1.49,4.27-2.4,6.53h-2.35l-2.42-6.53-1.44-4.27h-.1c.22,1.75.55,4.42.55,6.19v6.12h-3.84v-17.88Z"/>
  </g>
</svg>