<svg width="200" height="61" viewBox="0 0 200 61" fill="none" xmlns="http://www.w3.org/2000/svg">
<g clip-path="url(#clip0_1511_10498)">
<path d="M193.513 29.7889H98.8765V60.9022H193.513V29.7889Z" fill="#2175D6"/>
<path d="M122.487 52.1135H117.452V51.4056H122.487V52.1135ZM122.487 53.8889V54.3941C122.487 54.7167 122.487 54.8594 122.084 54.8594C121.72 54.8594 121.375 54.7795 121.194 54.7167C121.134 54.7167 120.708 54.574 120.405 54.574C119.859 54.574 119.476 55.0592 119.476 55.5416C119.476 56.1068 119.902 56.3295 120.042 56.4094C120.445 56.612 121.437 56.8119 122.327 56.8119C124.631 56.8119 124.694 55.4788 124.694 55.2562V48.554C124.694 47.8061 123.742 47.121 123.259 47.121H116.403C115.999 47.121 115.107 47.6862 115.107 48.6967V55.2191C115.107 56.2495 115.107 56.8347 116.34 56.8347C117.452 56.8347 117.452 56.1268 117.452 55.2191V53.8861H122.487V53.8889ZM122.021 49.0421C122.487 49.0421 122.487 49.2447 122.487 49.75H117.452C117.452 49.3047 117.452 49.0421 117.918 49.0421H122.024H122.021ZM109.098 49.77C108.451 49.77 107.702 50.4978 107.702 51.2429V54.9365C107.702 55.6016 108.388 56.3894 109.098 56.3894H112.414C113.06 56.3894 113.809 55.6615 113.809 54.9365V51.2429C113.809 50.5549 113.123 49.77 112.414 49.77H109.098ZM109.887 52.2533C109.887 51.9707 109.927 51.8708 110.23 51.8708H111.402C111.745 51.8708 111.745 52.0535 111.745 52.2533V53.8489C111.745 54.0716 111.745 54.2314 111.402 54.2314H110.23C109.887 54.2314 109.887 54.0687 109.887 53.8489V52.2533ZM121.071 41.552H123.782C124.448 41.552 124.731 41.552 124.954 41.4093C125.074 41.3094 125.4 41.0668 125.4 40.5616C125.4 40.2989 125.32 40.0563 125.117 39.8337C124.834 39.5511 124.611 39.5511 123.782 39.5511H121.071C121.051 38.8432 120.768 38.3608 119.816 38.3608C118.644 38.3608 118.584 39.1486 118.561 39.5511H116.154C115.325 39.5511 115.102 39.5511 114.839 39.8137C114.656 39.9964 114.536 40.219 114.536 40.5616C114.536 40.7642 114.576 41.0268 114.799 41.2495C115.082 41.552 115.305 41.552 116.154 41.552H118.561V42.0773H116.843C116.177 42.0773 115.894 42.0773 115.671 42.22C115.488 42.3627 115.225 42.6225 115.225 43.0278C115.225 43.2904 115.325 43.593 115.691 43.8356C115.894 43.9783 116.177 43.9783 116.843 43.9783H118.561V44.5435H115.911C115.245 44.5435 114.962 44.5435 114.739 44.6862C114.556 44.8289 114.293 45.0915 114.293 45.494C114.293 45.7366 114.373 46.0592 114.759 46.3018C114.962 46.4445 115.245 46.4445 115.911 46.4445H124.039C124.705 46.4445 124.988 46.4445 125.211 46.3018C125.394 46.1591 125.657 45.8993 125.657 45.494C125.657 45.2714 125.577 44.9288 125.191 44.6862C124.988 44.5435 124.705 44.5435 124.039 44.5435H121.066V43.9783H123.15C123.816 43.9783 124.099 43.9783 124.322 43.8356C124.505 43.6929 124.768 43.4303 124.768 43.0278C124.768 42.7652 124.668 42.4626 124.302 42.22C124.099 42.0773 123.816 42.0773 123.15 42.0773H121.066V41.552H121.071ZM109.504 38.866C108.917 38.866 108.654 38.866 108.491 38.926C108.248 38.9859 107.885 39.3085 107.885 39.7937C107.885 40.1163 108.048 40.3789 108.331 40.5815C108.554 40.7243 108.817 40.7243 109.484 40.7243H112.174C112.84 40.7243 113.123 40.7243 113.346 40.5815C113.629 40.3988 113.792 40.1562 113.792 39.8137C113.792 38.866 112.983 38.866 112.214 38.866H109.504ZM108.674 41.4493C107.785 41.4493 107.056 41.4493 107.056 42.5597C107.056 42.9621 107.199 43.1648 107.339 43.3075C107.622 43.5901 107.825 43.5901 108.674 43.5901H112.88C113.769 43.5901 114.498 43.5901 114.498 42.4797C114.498 42.0773 114.355 41.8746 114.215 41.7319C113.932 41.4493 113.729 41.4493 112.88 41.4493H108.674ZM109.281 44.3579C108.614 44.3579 108.331 44.3579 108.128 44.5007C107.945 44.6206 107.682 44.8832 107.682 45.2885C107.682 45.5311 107.762 45.8537 108.128 46.0963C108.351 46.239 108.614 46.239 109.281 46.239H112.194C112.86 46.239 113.143 46.239 113.366 46.0963C113.549 45.9764 113.812 45.7138 113.812 45.3085C113.812 45.0658 113.712 44.7433 113.366 44.5007C113.143 44.3579 112.86 44.3579 112.194 44.3579H109.281ZM109.281 46.984C108.634 46.984 108.331 46.984 108.128 47.1268C107.925 47.2695 107.682 47.5292 107.682 47.9346C107.682 48.1772 107.762 48.4997 108.128 48.7424C108.351 48.8851 108.614 48.8851 109.281 48.8851H112.194C112.86 48.8851 113.143 48.8851 113.366 48.7424C113.569 48.5996 113.812 48.3399 113.812 47.9346C113.812 47.7119 113.732 47.3694 113.366 47.1268C113.143 46.984 112.86 46.984 112.194 46.984H109.281Z" fill="#FDD000"/>
<path d="M141.039 41.3123C140.896 41.1496 140.13 40.3846 140.047 40.2818C139.704 39.8565 139.601 39.7566 139.601 39.3941C139.601 38.8289 140.027 38.3037 140.593 38.3037C141.16 38.3037 141.546 38.6662 141.989 39.0915C142.555 39.6168 143.424 40.4845 143.424 41.0297C143.424 41.1496 143.404 41.2324 143.384 41.3123H144.03C144.819 41.3123 145.648 41.3123 145.648 42.4426C145.648 43.573 144.799 43.573 144.03 43.573H137.78V55.2619C137.78 55.5645 137.557 55.9898 137.294 56.2724C137.051 56.515 136.628 56.8176 135.393 56.8176C134.158 56.8176 132.825 56.495 132.239 56.0098C132.016 55.8271 131.793 55.5245 131.793 54.9793C131.793 53.9689 132.662 53.9289 132.965 53.9289C133.188 53.9289 133.451 53.9888 133.674 54.0716C134.301 54.2543 134.787 54.3142 134.99 54.3142C135.353 54.3142 135.353 54.0516 135.353 53.789V43.573H129.003C128.214 43.573 127.384 43.573 127.384 42.4426C127.384 41.3123 128.234 41.3123 129.003 41.3123H135.353V40.062C135.353 39.1743 135.353 38.4464 136.465 38.4464C137.78 38.4464 137.78 39.0316 137.78 40.062V41.3123H141.037H141.039ZM142.212 46.4417C143.79 45.0487 143.83 44.9888 144.316 44.9888C144.982 44.9888 145.528 45.574 145.528 46.1991C145.528 46.5216 145.385 46.8242 145.062 47.1468C144.173 48.0145 143.121 48.7624 142.049 49.4075C142.615 50.4379 143.384 51.2657 144.11 51.8908C145.708 53.2638 145.828 53.6063 145.828 54.0317C145.828 54.5968 145.222 55.202 144.656 55.202C143.604 55.202 142.209 53.6263 141.3 52.5159C140.35 51.3856 138.186 47.9317 138.186 46.7414C138.186 45.9936 138.975 45.631 139.398 45.631C139.741 45.631 139.984 45.7738 140.167 45.9736C140.207 46.0335 140.693 46.9241 140.957 47.4065C141.16 47.2438 142.169 46.4788 142.212 46.436V46.4417ZM132.605 49.005C132.462 49.005 132.202 48.945 132.059 48.8623C129.289 47.1867 128.985 46.984 128.843 46.8642C128.579 46.6016 128.539 46.3589 128.539 46.1791C128.539 45.6539 128.923 44.9488 129.672 44.9488C130.218 44.9488 130.581 45.1315 131.673 45.7966C133.494 46.887 133.817 47.0897 133.674 47.9774C133.531 48.8052 132.885 49.0078 132.602 49.0078L132.605 49.005ZM130.501 50.7405C130.884 50.5778 131.067 50.4579 132.765 49.3875C133.211 49.1049 133.411 49.005 133.654 49.005C134.2 49.005 134.687 49.4303 134.687 50.1753C134.687 50.9203 134.443 51.3057 131.693 52.7786C129.429 53.9888 128.943 54.1915 128.396 54.1915C127.85 54.1915 127.264 53.6263 127.264 52.8984C127.264 52.4931 127.467 52.1106 127.81 51.9708L130.501 50.7405Z" fill="#FDD000"/>
<path d="M160.925 47.6719C161.068 47.6719 161.148 47.7119 161.148 47.8147C161.148 47.8746 161.128 47.9346 161.108 47.9574C160.258 49.533 158.823 50.5606 157.205 51.5311C156.276 50.8033 154.838 49.573 153.848 47.6748H160.927L160.925 47.6719ZM148.507 54.3941C148.204 54.4541 147.658 54.7167 147.658 55.4845C147.658 55.9698 147.821 56.8375 148.771 56.8375C150.206 56.8375 153.928 56.0098 157.062 54.4141C159.549 55.887 163.452 56.7348 164.927 56.7348C165.513 56.7348 165.979 56.4722 165.979 55.5245C165.979 54.7367 165.533 54.534 165.11 54.4741C163.109 54.1715 161.734 53.9688 159.529 52.9412C163.795 49.9327 164.018 47.4093 164.018 47.0268C164.018 46.7842 164.018 45.3313 162.34 45.3313H158.134V42.9878H164.281C165.25 42.9878 165.899 42.9878 165.899 41.7775C165.899 40.7071 165.13 40.7071 164.281 40.7071H158.134V39.9393C158.134 38.8089 158.134 38.3237 156.699 38.3237C155.547 38.3237 155.547 39.0087 155.547 39.9393V40.7071H149.257C148.287 40.7071 147.638 40.7071 147.638 41.9174C147.638 42.9878 148.427 42.9878 149.257 42.9878H155.547V45.3313H150.775C149.783 45.3313 149.156 45.3313 149.156 46.5816C149.156 47.672 149.926 47.6719 150.775 47.6719H151.178C151.704 49.3875 152.956 51.1858 154.757 52.7785C154.211 53.0212 152.776 53.6663 151.541 53.8689L148.507 54.3941Z" fill="#FDD000"/>
<path d="M173.73 41.9574C174.46 41.9574 175.226 41.9374 175.226 43.0678C175.226 44.0154 174.8 44.2381 173.73 44.2381H172.821V46.9241C173.327 46.8242 174.197 46.6615 174.337 46.6615C175.349 46.6615 175.389 47.672 175.389 47.8918C175.389 48.337 175.269 48.6996 174.903 48.8623C174.72 48.9222 173.144 49.2647 172.818 49.3475V54.6568C172.818 56.7576 171.26 56.7576 170.734 56.7576C170.088 56.7576 169.096 56.6977 168.57 56.3123C168.187 56.0497 168.004 55.6473 168.004 55.2419C168.004 54.6168 168.45 54.0516 168.893 54.0516C169.076 54.0516 169.905 54.3142 170.065 54.3142C170.368 54.3142 170.428 54.2543 170.428 53.5264V49.8727C170.065 49.9527 169.216 50.1154 168.87 50.1154C168.344 50.1154 167.698 49.7528 167.698 48.8023C167.698 47.7919 168.487 47.7119 168.953 47.652C169.459 47.592 170.105 47.4693 170.428 47.4094V44.2409H169.479C168.61 44.2409 167.841 44.2409 167.841 43.1705C167.841 41.9602 168.487 41.9602 169.479 41.9602H170.428V40.102C170.428 39.2343 170.428 38.4864 171.54 38.4864C172.816 38.4864 172.816 39.0915 172.816 40.102V41.9602H173.725L173.73 41.9574ZM182.994 52.2933C182.851 51.6882 182.265 48.9222 182.145 48.357C182.065 48.0545 181.679 46.6615 181.599 46.3789C181.539 46.1163 181.479 45.8337 181.479 45.5911C181.479 44.966 181.782 44.5007 182.711 44.5007C183.64 44.5007 183.803 45.1886 183.903 45.4712C184.166 46.3389 186.188 54.0716 186.188 55.3247C186.188 56.5778 185.258 56.6178 184.932 56.6178C184.629 56.6178 184.163 56.4351 183.983 56.0926C183.943 56.0126 183.557 54.6396 183.497 54.417C182.831 54.5597 179.858 55.1649 179.251 55.3047C179.088 55.3447 175.792 56.1325 174.54 56.1325C173.791 56.1325 173.407 55.4246 173.407 54.7995C173.407 53.8518 174.116 53.7091 175.732 53.4465C176.924 47.5121 177.047 46.8442 177.673 42.7452C177.793 41.9774 177.916 40.7271 178.036 39.9393C178.156 39.2942 178.279 38.5463 179.289 38.5463C180.501 38.5463 180.501 39.6967 180.501 39.9793C180.501 42.1401 178.417 52.5388 178.316 53.0412C179.509 52.8984 180.318 52.7786 182.988 52.2933H182.994Z" fill="#FDD000"/>
<path d="M122.447 52.1163H117.412V51.4084H122.447V52.1163ZM122.447 53.8917V54.397C122.447 54.7195 122.447 54.8622 122.041 54.8622C121.678 54.8622 121.332 54.7823 121.152 54.7195C121.091 54.7195 120.665 54.5768 120.362 54.5768C119.816 54.5768 119.433 55.062 119.433 55.5444C119.433 56.1096 119.859 56.3323 119.999 56.4122C120.402 56.6149 121.395 56.8147 122.284 56.8147C124.588 56.8147 124.651 55.4816 124.651 55.259V48.5568C124.651 47.8089 123.699 47.1239 123.216 47.1239H116.36C115.957 47.1239 115.064 47.689 115.064 48.6995V55.2219C115.064 56.2523 115.064 56.8375 116.297 56.8375C117.409 56.8375 117.409 56.1296 117.409 55.2219V53.8889H122.444L122.447 53.8917ZM121.981 49.0449C122.447 49.0449 122.447 49.2476 122.447 49.7528H117.412C117.412 49.3075 117.412 49.0449 117.878 49.0449H121.984H121.981ZM109.058 49.7728C108.411 49.7728 107.662 50.5007 107.662 51.2457V54.9393C107.662 55.6044 108.348 56.3922 109.058 56.3922H112.374C113.02 56.3922 113.769 55.6643 113.769 54.9393V51.2457C113.769 50.5577 113.083 49.7728 112.374 49.7728H109.058ZM109.847 52.2561C109.847 51.9735 109.887 51.8736 110.19 51.8736H111.362C111.705 51.8736 111.705 52.0563 111.705 52.2561V53.8518C111.705 54.0744 111.705 54.2343 111.362 54.2343H110.19C109.847 54.2343 109.847 54.0716 109.847 53.8518V52.2561ZM121.031 41.5548H123.742C124.408 41.5548 124.691 41.5548 124.914 41.4121C125.034 41.3122 125.36 41.0696 125.36 40.5644C125.36 40.3018 125.28 40.0591 125.077 39.8365C124.794 39.5539 124.571 39.5539 123.742 39.5539H121.031C121.011 38.846 120.728 38.3636 119.776 38.3636C118.604 38.3636 118.544 39.1514 118.521 39.5539H116.114C115.285 39.5539 115.062 39.5539 114.799 39.8165C114.616 39.9992 114.496 40.219 114.496 40.5644C114.496 40.767 114.536 41.0296 114.759 41.2523C115.042 41.5548 115.265 41.5548 116.114 41.5548H118.521V42.0801H116.803C116.137 42.0801 115.854 42.0801 115.631 42.2228C115.448 42.3655 115.185 42.6253 115.185 43.0306C115.185 43.2932 115.285 43.5958 115.651 43.8384C115.854 43.9811 116.137 43.9811 116.803 43.9811H118.521V44.5463H115.871C115.205 44.5463 114.922 44.5463 114.699 44.689C114.516 44.8317 114.253 45.0915 114.253 45.4968C114.253 45.7395 114.333 46.062 114.719 46.3046C114.922 46.4474 115.205 46.4474 115.871 46.4474H123.999C124.665 46.4474 124.948 46.4474 125.171 46.3046C125.354 46.1619 125.617 45.9022 125.617 45.4968C125.617 45.2742 125.537 44.9316 125.151 44.689C124.948 44.5463 124.665 44.5463 123.999 44.5463H121.026V43.9811H123.11C123.776 43.9811 124.059 43.9811 124.282 43.8384C124.465 43.6957 124.728 43.4331 124.728 43.0306C124.728 42.768 124.628 42.4654 124.262 42.2228C124.059 42.0801 123.776 42.0801 123.11 42.0801H121.026V41.5548H121.031ZM109.464 38.8688C108.877 38.8688 108.614 38.8688 108.451 38.9288C108.208 38.9887 107.845 39.3113 107.845 39.7965C107.845 40.1191 108.008 40.3817 108.291 40.5843C108.514 40.7271 108.777 40.7271 109.443 40.7271H112.134C112.8 40.7271 113.083 40.7271 113.306 40.5843C113.589 40.4017 113.752 40.159 113.752 39.8165C113.752 38.8688 112.943 38.8688 112.174 38.8688H109.464ZM108.634 41.4521C107.745 41.4521 107.016 41.4521 107.016 42.5625C107.016 42.9649 107.159 43.1676 107.299 43.3103C107.582 43.5929 107.785 43.5929 108.634 43.5929H112.84C113.729 43.5929 114.458 43.5929 114.458 42.4825C114.458 42.0801 114.315 41.8774 114.175 41.7347C113.892 41.4521 113.689 41.4521 112.84 41.4521H108.634ZM109.24 44.3608C108.574 44.3608 108.291 44.3608 108.088 44.5035C107.905 44.6234 107.642 44.886 107.642 45.2913C107.642 45.5339 107.722 45.8565 108.088 46.0991C108.311 46.2418 108.574 46.2418 109.24 46.2418H112.154C112.82 46.2418 113.103 46.2418 113.326 46.0991C113.509 45.9792 113.772 45.7166 113.772 45.3113C113.772 45.0687 113.672 44.7461 113.326 44.5035C113.103 44.3608 112.82 44.3608 112.154 44.3608H109.24ZM109.24 46.9868C108.594 46.9868 108.291 46.9868 108.088 47.1296C107.885 47.2723 107.642 47.532 107.642 47.9374C107.642 48.18 107.722 48.5025 108.088 48.7452C108.311 48.8879 108.574 48.8879 109.24 48.8879H112.154C112.82 48.8879 113.103 48.8879 113.326 48.7452C113.529 48.6025 113.772 48.3427 113.772 47.9374C113.772 47.7147 113.692 47.3722 113.326 47.1296C113.103 46.9868 112.82 46.9868 112.154 46.9868H109.24Z" fill="#FDD000"/>
<path d="M140.999 41.3151C140.856 41.1524 140.09 40.3874 140.007 40.2846C139.664 39.8593 139.561 39.7594 139.561 39.3969C139.561 38.8317 139.987 38.3065 140.553 38.3065C141.119 38.3065 141.505 38.669 141.949 39.0943C142.515 39.6196 143.384 40.4873 143.384 41.0325C143.384 41.1524 143.364 41.2352 143.344 41.3151H143.99C144.779 41.3151 145.608 41.3151 145.608 42.4455C145.608 43.5758 144.759 43.5758 143.99 43.5758H137.74V55.2647C137.74 55.5673 137.517 55.9926 137.254 56.2752C137.011 56.5178 136.588 56.8204 135.353 56.8204C134.118 56.8204 132.785 56.4978 132.199 56.0126C131.976 55.8299 131.753 55.5273 131.753 54.9821C131.753 53.9717 132.622 53.9317 132.925 53.9317C133.148 53.9317 133.411 53.9916 133.634 54.0744C134.26 54.2571 134.747 54.3171 134.95 54.3171C135.313 54.3171 135.313 54.0544 135.313 53.7918V43.5758H128.963C128.173 43.5758 127.344 43.5758 127.344 42.4455C127.344 41.3151 128.193 41.3151 128.963 41.3151H135.313V40.0649C135.313 39.1771 135.313 38.4492 136.425 38.4492C137.74 38.4492 137.74 39.0344 137.74 40.0649V41.3151H140.997H140.999ZM142.172 46.4445C143.75 45.0516 143.79 44.9916 144.276 44.9916C144.942 44.9916 145.488 45.5768 145.488 46.2019C145.488 46.5244 145.345 46.827 145.022 47.1496C144.133 48.0173 143.081 48.7652 142.009 49.4103C142.575 50.4407 143.344 51.2685 144.07 51.8936C145.668 53.2666 145.788 53.6092 145.788 54.0345C145.788 54.5996 145.182 55.2048 144.616 55.2048C143.564 55.2048 142.169 53.6291 141.26 52.5188C140.31 51.3884 138.146 47.9345 138.146 46.7442C138.146 45.9964 138.935 45.6339 139.358 45.6339C139.701 45.6339 139.944 45.7766 140.127 45.9764C140.167 46.0363 140.653 46.9269 140.916 47.4093C141.119 47.2466 142.129 46.4816 142.172 46.4388V46.4445ZM132.565 49.0078C132.422 49.0078 132.159 48.9479 132.019 48.8651C129.248 47.1895 128.945 46.9869 128.802 46.867C128.539 46.6044 128.499 46.3617 128.499 46.1819C128.499 45.6567 128.883 44.9516 129.632 44.9516C130.178 44.9516 130.541 45.1343 131.633 45.7994C133.454 46.8898 133.777 47.0925 133.634 47.9802C133.491 48.808 132.845 49.0107 132.562 49.0107L132.565 49.0078ZM130.461 50.7433C130.844 50.5806 131.027 50.4607 132.725 49.3903C133.171 49.1077 133.371 49.0078 133.614 49.0078C134.16 49.0078 134.646 49.4331 134.646 50.1781C134.646 50.9231 134.403 51.3085 131.653 52.7814C129.389 53.9916 128.903 54.1943 128.356 54.1943C127.81 54.1943 127.224 53.6291 127.224 52.9013C127.224 52.4959 127.427 52.1134 127.77 51.9736L130.461 50.7433Z" fill="#FDD000"/>
<path d="M160.885 47.6748C161.027 47.6748 161.108 47.7147 161.108 47.8175C161.108 47.8774 161.088 47.9374 161.067 47.9602C160.218 49.5359 158.783 50.5635 157.165 51.534C156.236 50.8061 154.797 49.5758 153.808 47.6776H160.887L160.885 47.6748ZM148.467 54.397C148.164 54.4569 147.618 54.7195 147.618 55.4874C147.618 55.9726 147.781 56.8404 148.73 56.8404C150.166 56.8404 153.888 56.0126 157.022 54.417C159.509 55.8898 163.412 56.7376 164.887 56.7376C165.473 56.7376 165.939 56.475 165.939 55.5273C165.939 54.7395 165.493 54.5368 165.07 54.4769C163.069 54.1743 161.694 53.9717 159.489 52.9441C163.755 49.9355 163.978 47.4122 163.978 47.0297C163.978 46.787 163.978 45.3341 162.3 45.3341H158.094V42.9935H164.241C165.21 42.9935 165.859 42.9935 165.859 41.7832C165.859 40.7128 165.09 40.7128 164.241 40.7128H158.094V39.945C158.094 38.8146 158.094 38.3293 156.659 38.3293C155.507 38.3293 155.507 39.0144 155.507 39.945V40.7128H149.217C148.247 40.7128 147.598 40.7128 147.598 41.9231C147.598 42.9935 148.387 42.9935 149.217 42.9935H155.507V45.3341H150.735C149.743 45.3341 149.116 45.3341 149.116 46.5844C149.116 47.6748 149.886 47.6748 150.735 47.6748H151.138C151.664 49.3903 152.916 51.1886 154.717 52.7814C154.171 53.024 152.736 53.6691 151.501 53.8718L148.467 54.397Z" fill="#FDD000"/>
<path d="M173.69 41.9602C174.419 41.9602 175.186 41.9402 175.186 43.0706C175.186 44.0182 174.76 44.2409 173.69 44.2409H172.781V46.9269C173.287 46.827 174.156 46.6643 174.297 46.6643C175.309 46.6643 175.349 47.6748 175.349 47.8946C175.349 48.3399 175.229 48.7024 174.863 48.8651C174.68 48.925 173.104 49.2675 172.778 49.3503V54.6596C172.778 56.7604 171.22 56.7604 170.694 56.7604C170.048 56.7604 169.056 56.7005 168.53 56.3152C168.147 56.0525 167.964 55.6501 167.964 55.2447C167.964 54.6196 168.41 54.0544 168.853 54.0544C169.036 54.0544 169.865 54.317 170.025 54.317C170.328 54.317 170.388 54.2571 170.388 53.5292V49.8755C170.025 49.9555 169.176 50.1182 168.83 50.1182C168.304 50.1182 167.658 49.7557 167.658 48.8051C167.658 47.7947 168.447 47.7147 168.913 47.6548C169.419 47.5948 170.065 47.4721 170.388 47.4122V44.2437H169.439C168.57 44.2437 167.801 44.2437 167.801 43.1733C167.801 41.963 168.447 41.963 169.439 41.963H170.388V40.1048C170.388 39.2371 170.388 38.4892 171.5 38.4892C172.776 38.4892 172.775 39.0943 172.775 40.1048V41.963H173.685L173.69 41.9602ZM182.954 52.2961C182.811 51.691 182.225 48.925 182.105 48.3598C182.025 48.0573 181.639 46.6643 181.559 46.3817C181.499 46.1191 181.439 45.8365 181.439 45.5939C181.439 44.9688 181.742 44.5035 182.671 44.5035C183.6 44.5035 183.763 45.1914 183.863 45.474C184.126 46.3418 186.148 54.0744 186.148 55.3275C186.148 56.5806 185.218 56.6206 184.892 56.6206C184.589 56.6206 184.123 56.4379 183.943 56.0954C183.903 56.0154 183.517 54.6425 183.457 54.4198C182.791 54.5625 179.817 55.1677 179.211 55.3075C179.048 55.3475 175.752 56.1353 174.5 56.1353C173.75 56.1353 173.367 55.4274 173.367 54.8023C173.367 53.8546 174.076 53.7119 175.692 53.4493C176.884 47.5149 177.007 46.847 177.633 42.748C177.753 41.9802 177.876 40.7299 177.996 39.9421C178.116 39.297 178.239 38.5491 179.249 38.5491C180.461 38.5491 180.461 39.6995 180.461 39.9821C180.461 42.1429 178.376 52.5416 178.276 53.044C179.469 52.9012 180.278 52.7814 182.948 52.2961H182.954Z" fill="#FDD000"/>
<path d="M156.842 27.5396H161.594C161.602 27.2456 161.745 22.3417 161.754 22.0305H156.842V19.079H151.141V21.7479H146.326V27.434H150.978L150.898 29.5548H145.117C145.117 29.5862 144.914 35.2808 144.902 35.6005C145.228 35.6005 163.04 35.6005 163.361 35.6005V29.8203H156.842V27.5396Z" fill="white"/>
<path fill-rule="evenodd" clip-rule="evenodd" d="M149.711 19.0791C149.711 18.2908 150.351 17.6519 151.141 17.6519H156.842C157.631 17.6519 158.271 18.2908 158.271 19.0791V20.6033H161.754C162.14 20.6033 162.509 20.7592 162.778 21.0353C163.048 21.3115 163.193 21.6846 163.183 22.0698C163.174 22.3825 163.031 27.2884 163.023 27.5812C163.014 27.8857 162.91 28.1657 162.74 28.3931H163.361C164.15 28.3931 164.79 29.0321 164.79 29.8203V35.6006C164.79 36.3888 164.15 37.0278 163.361 37.0278H144.902C144.514 37.0278 144.143 36.8703 143.873 36.5916C143.604 36.3128 143.46 35.9367 143.474 35.5496C143.479 35.3925 143.522 34.1854 143.568 32.8951C143.625 31.2887 143.687 29.5534 143.687 29.5549C143.687 28.78 144.306 28.1493 145.077 28.1282C144.962 27.9227 144.896 27.686 144.896 27.434V21.748C144.896 20.9597 145.537 20.3208 146.326 20.3208H149.711V19.0791ZM152.57 20.5063V21.748C152.57 22.5362 151.93 23.1752 151.141 23.1752H147.756V26.0068H150.978C151.366 26.0068 151.738 26.1646 152.008 26.444C152.277 26.7234 152.421 27.1002 152.406 27.4878L152.326 29.6086C152.297 30.3754 151.666 30.9821 150.898 30.9821H146.497C146.463 31.941 146.418 33.2019 146.384 34.1733H161.931V31.2475H156.842C156.052 31.2475 155.412 30.6086 155.412 29.8203V27.5396C155.412 26.7514 156.052 26.1124 156.842 26.1124H160.205C160.229 25.3018 160.258 24.282 160.282 23.4578H156.842C156.052 23.4578 155.412 22.8188 155.412 22.0306V20.5063H152.57Z" fill="white"/>
<path d="M159.669 12.5852C160.253 11.8345 160.85 10.9582 161.445 9.98199C162.028 9.02575 162.629 7.93536 163.232 6.75077C163.129 6.59377 160.499 2.61754 160.407 2.48053H144.362V7.96105H149.148C149.148 7.96105 147.204 11.9458 147.075 12.2085C147.312 12.3398 149.165 13.3645 149.165 13.3645L148.845 13.4929C148.199 13.7527 147.49 14.0067 146.741 14.2494L144.536 14.9516C144.536 14.9516 146.386 20.0838 146.483 20.355C148.116 19.8726 149.651 19.336 151.046 18.7565C152.479 18.16 153.797 17.4834 154.963 16.747L155.043 16.6956L161.256 20.2637L164.055 15.3655L159.549 12.7308L159.669 12.5795V12.5852ZM154.257 9.7622L154.134 9.69084L150.938 7.82118H155.698L154.26 9.7622H154.257Z" fill="white"/>
<path fill-rule="evenodd" clip-rule="evenodd" d="M142.932 2.4805C142.932 1.69227 143.572 1.05328 144.362 1.05328H160.407C160.885 1.05328 161.331 1.29177 161.597 1.68882C161.69 1.82934 164.323 5.80893 164.428 5.96911C164.708 6.39691 164.738 6.94181 164.506 7.39758C163.891 8.60598 163.273 9.72926 162.666 10.7236M145.791 3.90772V6.5338H149.148C149.441 6.5338 149.722 6.62337 149.956 6.78368C150.215 6.53964 150.563 6.39393 150.938 6.39393H155.698C156.238 6.39393 156.732 6.69746 156.975 7.17866C157.218 7.65986 157.168 8.23667 156.847 8.66991L155.409 10.6109C155.14 10.9748 154.713 11.1894 154.26 11.1894H154.257C154.005 11.1894 153.757 11.1227 153.539 10.996L153.416 10.9247L153.412 10.9222L150.215 9.05259C150.213 9.05113 150.21 9.04967 150.208 9.04819L149.445 10.6113C149.278 10.9543 149.108 11.3013 148.954 11.6164L149.858 12.1159L149.858 12.116C150.34 12.3829 150.626 12.9031 150.592 13.4528C150.558 14.0025 150.21 14.4835 149.698 14.6888L149.379 14.8168C149.379 14.8169 149.378 14.817 149.378 14.8171C149.378 14.8172 149.378 14.8171 149.378 14.8171C148.697 15.091 147.956 15.356 147.182 15.6069L147.175 15.609L146.383 15.8612L146.818 17.0684C147.008 17.5957 147.201 18.1289 147.366 18.5874C148.475 18.2274 149.524 17.8429 150.497 17.439C151.862 16.8705 153.105 16.231 154.195 15.5435L154.27 15.495C154.72 15.2066 155.293 15.1925 155.756 15.4585L160.725 18.3123L162.113 15.8839L158.827 13.9623C158.47 13.7534 158.221 13.4002 158.144 12.9939C158.068 12.5876 158.172 12.1683 158.429 11.8443L158.549 11.693C158.566 11.6716 158.584 11.6508 158.602 11.6306C159.127 10.9472 159.673 10.1441 160.224 9.24034L160.224 9.23965C160.663 8.51925 161.117 7.71306 161.577 6.83851C161.04 6.02556 160.159 4.69433 159.638 3.90772H145.791ZM161.645 12.3021L164.778 14.1339C165.454 14.529 165.685 15.3935 165.297 16.0727L162.498 20.9709C162.31 21.3004 161.998 21.5415 161.631 21.641C161.264 21.7404 160.873 21.69 160.543 21.5008L155.067 18.3554C153.999 18.9823 152.834 19.5583 151.597 20.0737L151.595 20.0742C150.147 20.6758 148.563 21.2288 146.889 21.7235C146.162 21.9384 145.393 21.5489 145.137 20.8359C145.089 20.7018 144.603 19.3529 144.128 18.0348L143.191 15.435C143.191 15.435 143.191 15.4348 144.536 14.9515L143.191 15.435C143.06 15.0703 143.082 14.6677 143.254 14.3201C143.426 13.9726 143.732 13.7097 144.102 13.5919L145.898 13.0195C145.614 12.6076 145.557 12.0596 145.791 11.5813C145.854 11.4525 146.363 10.4097 146.861 9.38824H144.362C143.572 9.38824 142.932 8.74925 142.932 7.96102V2.4805M161.645 12.3021C161.987 11.8068 162.328 11.2792 162.666 10.7243L161.645 12.3021Z" fill="white"/>
<path d="M135.481 30.1115C135.481 28.3246 134.023 26.8688 132.234 26.8688C130.444 26.8688 128.986 28.3246 128.986 30.1115C128.986 31.8984 130.444 33.3541 132.234 33.3541C134.023 33.3541 135.481 31.8984 135.481 30.1115Z" fill="white"/>
<path fill-rule="evenodd" clip-rule="evenodd" d="M127.556 30.1114C127.556 27.5363 129.654 25.4416 132.234 25.4416C134.813 25.4416 136.911 27.5363 136.911 30.1114C136.911 32.6866 134.813 34.7813 132.234 34.7813C129.654 34.7813 127.556 32.6866 127.556 30.1114ZM132.234 28.296C131.233 28.296 130.415 29.1128 130.415 30.1114C130.415 31.1101 131.233 31.9269 132.234 31.9269C133.234 31.9269 134.052 31.1101 134.052 30.1114C134.052 29.1128 133.234 28.296 132.234 28.296Z" fill="white"/>
<path d="M139.115 27.3683V23.2865L139.959 22.9554C139.959 22.9554 140.522 25.7413 140.576 26.0239C140.865 25.9497 145.114 24.8679 145.408 24.7936C145.351 24.4882 143.618 15.2741 143.561 14.9658C143.275 15.0457 140.536 15.8193 140.536 15.8193L145.051 9.78501L141 6.9791L138.303 10.3274L137.103 9.30547L140.685 4.92391C140.685 4.92391 137.16 2.08374 136.914 1.94958C136.748 2.22361 129.86 11.0495 129.86 11.0495L134.352 14.9458L129.143 20.7803L130.052 25.3759L134.278 24.4083C134.278 24.4083 134.278 25.5444 134.278 27.0858C135.253 27.7423 135.893 28.8526 135.893 30.1115C135.893 31.3703 135.25 32.4835 134.275 33.14C134.275 34.4588 134.275 35.4207 134.281 35.5063C134.592 35.455 139.124 35.5063 139.124 35.5063V32.2637C138.466 31.6529 138.052 30.7822 138.052 29.8174C138.052 28.8526 138.466 27.982 139.124 27.3683H139.115ZM137.308 18.7793L138.841 16.9097L139.147 18.6052L137.002 19.1533L137.311 18.7765L137.308 18.7793Z" fill="white"/>
<path fill-rule="evenodd" clip-rule="evenodd" d="M135.72 1.16459C136.127 0.546784 136.944 0.339624 137.599 0.697194C137.738 0.772756 137.91 0.903075 137.994 0.966537C137.999 0.970396 138.004 0.974009 138.009 0.977346C138.138 1.07494 138.303 1.20255 138.488 1.34681C138.858 1.63631 139.326 2.00736 139.783 2.37161C140.241 2.73642 140.691 3.09676 141.026 3.36573C141.194 3.50026 141.333 3.61204 141.43 3.69023L141.583 3.81308C141.583 3.8131 141.583 3.81323 140.685 4.92391L141.583 3.81308C141.879 4.05166 142.068 4.39842 142.107 4.7763C142.145 5.14456 142.039 5.5129 141.811 5.80381C141.812 5.80468 141.813 5.80556 141.814 5.80643L145.866 8.61234C146.184 8.83304 146.4 9.17352 146.462 9.55568C146.524 9.93784 146.428 10.3289 146.196 10.6391L143.98 13.6012C144.098 13.6372 144.211 13.6884 144.317 13.7546C144.658 13.9666 144.894 14.3118 144.967 14.7059C145.004 14.9032 145.73 18.7681 146.261 21.5927C146.557 23.1684 146.793 24.4203 146.813 24.5314C146.952 25.2722 146.49 25.993 145.758 26.1775C145.466 26.2511 141.22 27.3323 140.933 27.4061C140.807 27.4384 140.679 27.4532 140.551 27.4509C140.53 27.8095 140.374 28.1553 140.1 28.411C139.715 28.7704 139.481 29.2702 139.481 29.8174C139.481 30.3652 139.715 30.8636 140.098 31.2188C140.388 31.4888 140.554 31.8673 140.554 32.2637V35.5063C140.554 35.8877 140.401 36.2531 140.129 36.5213C139.857 36.7894 139.49 36.9378 139.108 36.9335L139.124 35.5063C139.108 36.9335 139.108 36.9335 139.108 36.9335L138.914 36.9314C138.79 36.9301 138.612 36.9283 138.398 36.9263C137.969 36.9223 137.395 36.9175 136.811 36.9143C136.227 36.9111 135.637 36.9095 135.176 36.9119C134.945 36.9131 134.752 36.9152 134.611 36.9184C134.497 36.921 134.454 36.924 134.454 36.9233C134.454 36.9231 134.458 36.9226 134.466 36.9215C134.084 36.9715 133.696 36.865 133.393 36.6248C133.077 36.3747 132.881 36.003 132.854 35.6013C132.845 35.4658 132.845 34.582 132.845 33.472C132.845 33.3634 132.845 33.2525 132.845 33.14C132.845 32.6655 133.082 32.2221 133.476 31.9568C134.075 31.5529 134.464 30.8736 134.464 30.1115C134.464 29.3483 134.077 28.6723 133.478 28.269C133.084 28.0037 132.848 27.5602 132.848 27.0858V26.1999L130.372 26.767C129.995 26.8533 129.599 26.7835 129.274 26.5735C128.95 26.3635 128.724 26.0312 128.65 25.6525L127.74 21.0569C127.654 20.6182 127.778 20.1644 128.076 19.8306L132.322 15.0752L128.923 12.1269C128.349 11.6293 128.266 10.7708 128.733 10.1724L129.86 11.0495C128.733 10.1724 128.733 10.1724 128.733 10.1724L129.029 9.79287C129.217 9.5511 129.487 9.20539 129.811 8.78967C130.459 7.9582 131.325 6.84684 132.196 5.72704C133.067 4.60698 133.942 3.47949 134.61 2.61538C134.944 2.18303 135.224 1.81844 135.426 1.55428C135.527 1.4218 135.606 1.31741 135.662 1.24349C135.704 1.18608 135.72 1.16394 135.72 1.16407C135.72 1.16408 135.72 1.16425 135.72 1.16459ZM131.821 10.8592L135.29 13.8685C135.578 14.1188 135.754 14.4741 135.779 14.855C135.803 15.2359 135.674 15.6106 135.419 15.8955L130.683 21.2001L131.169 23.6559L133.958 23.0172C134.382 22.92 134.828 23.0212 135.168 23.292C135.509 23.5628 135.707 23.9737 135.707 24.4083V26.4034C136.227 26.888 136.646 27.4805 136.926 28.1455C137.109 27.6616 137.367 27.2155 137.686 26.8216V23.2865C137.686 22.6999 138.045 22.173 138.592 21.9583L139.436 21.6272C139.829 21.4727 140.271 21.5 140.642 21.7018C141.014 21.9037 141.276 22.2592 141.36 22.673L139.959 22.9554C141.36 22.673 141.36 22.673 141.36 22.673L141.449 23.1129C141.503 23.3786 141.575 23.7358 141.649 24.1019C141.66 24.1574 141.671 24.2132 141.682 24.2689C142.343 24.1007 143.115 23.904 143.756 23.741C143.672 23.2949 143.572 22.7619 143.463 22.183C143.13 20.4117 142.716 18.2116 142.444 16.7638C142.406 16.7745 142.368 16.7852 142.331 16.7959L140.926 17.1926C140.926 17.1926 140.925 17.1926 140.536 15.8193L140.926 17.1926C140.735 17.2464 140.54 17.2591 140.352 17.2347L140.554 18.3522C140.687 19.0885 140.227 19.8023 139.501 19.9879L137.357 20.5359C136.759 20.6888 136.129 20.4408 135.797 19.9208C135.465 19.4009 135.505 18.7268 135.896 18.2495L136.181 17.9023C136.188 17.8933 136.195 17.8844 136.202 17.8755L137.735 16.0058C138.075 15.5908 138.618 15.4025 139.14 15.514C139.182 15.3194 139.266 15.132 139.391 14.9652L143.02 10.1152L141.279 8.90976L139.418 11.2216C139.176 11.5221 138.822 11.7121 138.437 11.7483C138.053 11.7844 137.67 11.6637 137.376 11.4135L136.175 10.3916C135.583 9.888 135.503 9.00441 135.995 8.40296L138.667 5.13526C138.455 4.96602 138.229 4.78476 138 4.60251C137.722 4.38101 137.442 4.15893 137.185 3.95562C137.087 4.08238 136.983 4.21716 136.874 4.35873C136.203 5.22655 135.326 6.35693 134.454 7.4776C133.582 8.59853 132.716 9.71078 132.067 10.5427C131.981 10.6534 131.899 10.7591 131.821 10.8592ZM137.043 31.7716C136.768 32.5623 136.303 33.2642 135.705 33.8223C135.705 33.9025 135.705 33.9805 135.705 34.0563C136.059 34.0564 136.446 34.0578 136.827 34.0599C137.125 34.0615 137.42 34.0635 137.694 34.0657V32.8223C137.435 32.504 137.215 32.1511 137.043 31.7716Z" fill="white"/>
<path d="M141.403 26.8688C139.776 26.8688 138.449 28.1904 138.449 29.8175C138.449 31.4445 139.773 32.7661 141.403 32.7661C143.032 32.7661 144.356 31.4445 144.356 29.8175C144.356 28.1904 143.032 26.8688 141.403 26.8688Z" fill="white"/>
<path fill-rule="evenodd" clip-rule="evenodd" d="M137.02 29.8174C137.02 27.4013 138.987 25.4416 141.403 25.4416C143.822 25.4416 145.786 27.4022 145.786 29.8174C145.786 32.2327 143.822 34.1933 141.403 34.1933C138.983 34.1933 137.02 32.2327 137.02 29.8174ZM141.403 28.296C140.564 28.296 139.879 28.9795 139.879 29.8174C139.879 30.6562 140.562 31.3389 141.403 31.3389C142.243 31.3389 142.927 30.6562 142.927 29.8174C142.927 28.9786 142.243 28.296 141.403 28.296Z" fill="white"/>
<path d="M190.596 29.6034V27.9193H196.257V22.376H190.596V20.4007C190.596 20.4007 197.618 20.3921 197.927 20.4007C197.933 20.1466 197.927 4.19319 197.927 4.19319C197.927 3.30261 197.244 2.43201 196.36 2.43201H179.978C179.094 2.43201 178.299 3.01717 178.299 3.90775V20.4007H184.818L184.735 22.2703H179.62V27.7794H184.512L184.429 29.6062H178.645C178.645 29.6062 177.127 25.0306 177.027 24.7451C176.758 24.8393 173.859 25.6671 173.859 25.6671V21.4483C173.859 21.4483 176.681 21.4654 176.958 21.4483C176.944 21.1514 176.973 15.9478 176.958 15.6423C176.673 15.6566 173.859 15.6423 173.859 15.6423V9.67942C173.859 9.67942 176.678 9.70511 176.958 9.67942C176.938 9.38541 176.979 4.51575 176.958 4.21032C176.647 4.23316 165.482 4.21032 165.482 4.21032C165.482 4.21032 165.462 9.37114 165.482 9.67942C165.771 9.65659 168.484 9.67942 168.484 9.67942V15.6423C168.484 15.6423 165.768 15.6281 165.482 15.6423C165.496 15.9449 165.468 21.14 165.482 21.4483C165.774 21.4311 168.484 21.4483 168.484 21.4483V27.5282L164.824 29.0582L166.528 34.5273L177.362 30.6224V35.5121C177.362 35.5121 198.019 35.5064 198.327 35.5121C198.339 35.2181 198.556 29.9174 198.568 29.6091C198.25 29.6005 190.594 29.6091 190.594 29.6091L190.596 29.6034ZM190.596 9.07713V7.59854H192.129V9.24269H190.596V9.07713ZM185.27 15.0087H183.686V13.4558H185.27V15.0087ZM185.407 9.08284H183.789V7.42156H185.407V9.08284ZM190.445 14.9173V13.5986H191.995V15.0829H190.445V14.9173Z" fill="white"/>
<path fill-rule="evenodd" clip-rule="evenodd" d="M177.091 2.78919C177.594 1.61191 178.867 1.00476 179.978 1.00476H196.36C198.237 1.00476 199.357 2.73436 199.357 4.19284C199.357 4.19295 199.357 4.19306 199.357 4.19317L199.358 6.68944C199.358 8.18907 199.359 10.1913 199.359 12.2014C199.36 16.2013 199.36 20.2842 199.356 20.4327C199.348 20.8125 199.188 21.1731 198.912 21.4349C198.637 21.6966 198.268 21.8379 197.887 21.8273L197.889 21.8274C197.889 21.8274 197.882 21.8272 197.864 21.827C197.855 21.8269 197.845 21.8269 197.833 21.8268C197.819 21.8267 197.803 21.8265 197.785 21.8264C197.731 21.8261 197.661 21.8258 197.577 21.8256C197.648 21.9949 197.687 22.1809 197.687 22.3759V27.9192C197.687 28.0078 197.679 28.0945 197.663 28.1786C198.181 28.1793 198.534 28.1804 198.606 28.1824C198.988 28.1927 199.349 28.3548 199.61 28.6327C199.871 28.9106 200.01 29.2812 199.996 29.6619C199.989 29.8431 199.91 31.7804 199.845 33.3897C199.799 34.4992 199.76 35.4527 199.756 35.5674C199.726 36.3438 199.079 36.9534 198.301 36.939C198.303 36.939 198.301 36.939 198.295 36.939C198.286 36.939 198.268 36.9389 198.235 36.9388C198.188 36.9386 198.123 36.9384 198.039 36.9383C197.871 36.938 197.634 36.9378 197.337 36.9376C196.743 36.9372 195.911 36.937 194.921 36.9369C192.941 36.9366 190.33 36.9368 187.729 36.9371C185.128 36.9375 182.536 36.938 180.594 36.9385L177.362 36.9393C177.362 36.9393 177.362 36.9393 177.362 35.512L177.362 36.9393C176.983 36.9394 176.619 36.789 176.351 36.5214C176.083 36.2537 175.932 35.8906 175.932 35.512V32.6551L167.014 35.8697C166.647 36.002 166.242 35.9787 165.892 35.8053C165.543 35.6318 165.279 35.3232 165.163 34.9512L163.459 29.4821C163.241 28.7795 163.593 28.0259 164.272 27.7417L167.055 26.5785V22.8689C166.709 22.8679 166.36 22.8675 166.078 22.8682C165.932 22.8686 165.807 22.8693 165.711 22.8704C165.624 22.8714 165.581 22.8726 165.569 22.8729C165.566 22.873 165.565 22.873 165.566 22.873C165.184 22.8954 164.81 22.7643 164.526 22.509C164.242 22.2537 164.072 21.8954 164.054 21.5142C164.045 21.324 164.049 20.0188 164.052 18.7452L164.053 18.5394C164.054 17.8514 164.056 17.1655 164.057 16.6326C164.057 16.366 164.057 16.1395 164.056 15.9711C164.055 15.8084 164.054 15.7306 164.054 15.7133C164.054 15.7106 164.054 15.7094 164.054 15.7096C164.017 14.9238 164.624 14.2562 165.411 14.2169C165.599 14.2075 166.381 14.208 167.055 14.2096V11.0979C166.709 11.0966 166.359 11.0959 166.078 11.097C165.933 11.0975 165.81 11.0984 165.716 11.0999C165.652 11.1009 165.616 11.1019 165.6 11.1024C165.588 11.1027 165.587 11.1028 165.595 11.1022C165.213 11.1323 164.836 11.0085 164.546 10.7585C164.257 10.5084 164.08 10.153 164.056 9.7717C164.041 9.55468 164.043 8.10543 164.045 6.82656C164.046 6.16134 164.048 5.50594 164.05 5.01693C164.05 4.7724 164.051 4.56941 164.052 4.42754L164.053 4.20501C164.053 4.20497 164.053 4.20477 165.482 4.21029C165.485 2.78308 165.485 2.78308 165.485 2.78308L165.965 2.78401C166.271 2.78459 166.708 2.7854 167.234 2.78629C168.285 2.78807 169.69 2.79021 171.105 2.79164C172.52 2.79307 173.943 2.79378 175.032 2.79271C175.577 2.79217 176.037 2.79119 176.369 2.78965C176.559 2.78876 176.687 2.78761 176.764 2.78691C176.84 2.78623 176.866 2.78599 176.854 2.7869C176.933 2.78108 177.012 2.78193 177.091 2.78919ZM175.534 5.64654C175.374 5.64679 175.207 5.64698 175.035 5.64714C173.943 5.64822 172.517 5.6475 171.102 5.64607C169.686 5.64465 168.281 5.6425 167.229 5.64072C167.118 5.64053 167.01 5.64035 166.907 5.64017C166.906 6.00851 166.905 6.41838 166.904 6.83192C166.903 7.3183 166.903 7.809 166.903 8.2429C166.969 8.24312 167.034 8.24337 167.097 8.24362C167.456 8.24506 167.806 8.24721 168.066 8.249C168.195 8.24989 168.303 8.2507 168.378 8.25128L168.496 8.25222C168.496 8.25222 168.496 8.25222 168.484 9.67939L168.496 8.25222C169.281 8.25883 169.914 8.89586 169.914 9.67939V15.6423C169.914 16.0221 169.762 16.3863 169.492 16.6542C169.223 16.922 168.857 17.0715 168.477 17.0695L168.476 17.0695L168.36 17.0689C168.285 17.0686 168.178 17.0681 168.049 17.0675C167.791 17.0664 167.443 17.0651 167.087 17.0642C167.03 17.064 166.972 17.0639 166.915 17.0638C166.914 17.4603 166.913 17.8992 166.912 18.3347L166.912 18.5468C166.91 19.0574 166.909 19.5671 166.908 20.0141C166.972 20.0142 167.035 20.0144 167.097 20.0146C167.455 20.0157 167.804 20.0173 168.063 20.0186C168.193 20.0193 168.3 20.0199 168.375 20.0203L168.493 20.021C168.493 20.021 168.493 20.021 168.484 21.4482L168.493 20.021C169.279 20.026 169.914 20.6635 169.914 21.4482V27.5282C169.914 28.1034 169.568 28.6224 169.036 28.8446L166.576 29.8734L167.449 32.6779L176.876 29.28C176.923 29.2633 176.97 29.249 177.017 29.2373C176.877 28.8165 176.698 28.2782 176.517 27.7322C176.376 27.3079 176.235 26.8829 176.109 26.5057C175.985 26.5418 175.86 26.5777 175.739 26.6126C175.359 26.7222 174.987 26.8289 174.711 26.9081C174.573 26.9477 174.458 26.9805 174.378 27.0034L174.252 27.0392C174.252 27.0393 174.252 27.0393 173.859 25.6671L174.252 27.0392C173.821 27.1624 173.357 27.0763 172.999 26.8066C172.64 26.5369 172.43 26.115 172.43 25.6671V21.4482C172.43 21.0682 172.582 20.7039 172.851 20.436C173.121 20.1681 173.487 20.0187 173.868 20.021L173.989 20.0217C174.067 20.0222 174.178 20.0228 174.312 20.0234C174.58 20.0248 174.94 20.0264 175.309 20.0274C175.381 20.0277 175.453 20.0278 175.525 20.028C175.526 19.6332 175.527 19.1964 175.528 18.763L175.529 18.5448C175.53 18.0334 175.532 17.5229 175.532 17.0754C175.453 17.0752 175.375 17.0751 175.298 17.0749C174.928 17.074 174.566 17.0726 174.297 17.0715C174.163 17.071 174.052 17.0705 173.974 17.0701L173.852 17.0695C173.852 17.0695 173.852 17.0695 173.859 15.6423L173.852 17.0695C173.065 17.0655 172.43 16.4277 172.43 15.6423V9.67939C172.43 9.29861 172.582 8.93362 172.853 8.6656C173.124 8.39758 173.491 8.24876 173.872 8.25223L173.993 8.25328C174.07 8.25393 174.181 8.25483 174.315 8.25583C174.583 8.25783 174.942 8.26022 175.31 8.26182C175.381 8.26213 175.453 8.26241 175.524 8.26265C175.525 7.92338 175.527 7.55725 175.528 7.19619C175.528 7.11158 175.529 7.02725 175.529 6.94361C175.531 6.49444 175.532 6.04643 175.534 5.64654ZM175.289 11.1162C175.292 11.1162 175.295 11.1162 175.298 11.1162C175.836 11.1186 176.502 11.1206 176.87 11.1109V14.2173C176.864 14.2174 176.858 14.2175 176.85 14.2177C176.82 14.2183 176.78 14.2188 176.73 14.2193C176.631 14.2202 176.501 14.2208 176.35 14.2211C176.05 14.2218 175.674 14.2213 175.305 14.2204C175.3 14.2204 175.294 14.2204 175.289 14.2204V11.1162ZM178.195 22.1655C177.962 22.5638 177.541 22.8422 177.047 22.8727C176.847 22.885 175.999 22.8839 175.301 22.8819C175.297 22.8819 175.293 22.8818 175.289 22.8818V23.7711C175.55 23.6955 175.802 23.6223 176.016 23.5596C176.169 23.5146 176.301 23.4756 176.401 23.4455C176.494 23.4172 176.539 23.403 176.551 23.3994C176.553 23.3986 176.554 23.3983 176.554 23.3985C176.912 23.273 177.305 23.2947 177.647 23.4589C177.866 23.564 178.052 23.7221 178.191 23.9161V22.2703C178.191 22.2351 178.192 22.2001 178.195 22.1655ZM179.729 18.9734H184.818C185.208 18.9734 185.581 19.1326 185.851 19.414C186.121 19.6955 186.264 20.0747 186.246 20.4638L186.163 22.3334C186.13 23.0964 185.5 23.6975 184.735 23.6975H181.05V26.3522H184.512C184.903 26.3522 185.276 26.5115 185.546 26.7933C185.815 27.075 185.958 27.4546 185.94 27.844L185.857 29.6708C185.823 30.4331 185.194 31.0334 184.429 31.0334H178.791V34.0845L180.594 34.084C182.535 34.0836 185.127 34.083 187.729 34.0827C191.354 34.0822 195.018 34.082 196.955 34.083C196.966 33.8072 196.978 33.5056 196.991 33.1933C197.021 32.4689 197.053 31.6866 197.079 31.0326C196.334 31.0323 195.394 31.0326 194.462 31.0331C193.486 31.0336 192.519 31.0344 191.796 31.0351L190.597 31.0363H190.596C190.595 31.0363 190.595 31.0363 190.594 29.6091L190.595 31.0363C190.099 31.0368 189.639 30.7809 189.378 30.3599C189.219 30.1041 189.148 29.8097 189.167 29.5187V27.9192C189.167 27.131 189.807 26.492 190.596 26.492H194.828V23.8031H190.596C189.807 23.8031 189.167 23.1642 189.167 22.3759V20.4007C189.167 19.6131 189.806 18.9744 190.595 18.9734L190.596 20.4007C190.595 18.9734 190.595 18.9734 190.595 18.9734H190.595L191.697 18.9722C192.36 18.9716 193.248 18.9708 194.145 18.9702C194.969 18.9697 195.813 18.9694 196.5 18.9697C196.5 18.617 196.5 18.2099 196.5 17.7608C196.5 16.2297 196.5 14.2119 196.5 12.2019C196.499 10.1919 196.499 8.18986 196.498 6.69029L196.498 4.1944V4.19386C196.498 4.19374 196.498 4.19368 197.927 4.19317L196.498 4.19386V4.19317C196.498 4.15156 196.489 4.09988 196.468 4.04435C196.447 3.98852 196.418 3.94063 196.388 3.9052C196.365 3.87913 196.349 3.86567 196.339 3.8592H179.978C179.849 3.8592 179.764 3.90103 179.729 3.92712V18.9734ZM196.329 3.85391C196.329 3.85368 196.331 3.85421 196.334 3.85617C196.33 3.85511 196.329 3.85413 196.329 3.85391ZM165.482 4.21029L165.485 2.78308C164.697 2.78146 164.056 3.4178 164.053 4.20501L165.482 4.21029ZM182.359 7.42153C182.359 6.6333 182.999 5.99432 183.789 5.99432H185.407C186.197 5.99432 186.837 6.6333 186.837 7.42153V9.08282C186.837 9.87105 186.197 10.51 185.407 10.51H183.789C182.999 10.51 182.359 9.87105 182.359 9.08282V7.42153ZM189.167 7.59851C189.167 6.81028 189.807 6.17129 190.596 6.17129H192.129C192.918 6.17129 193.558 6.81028 193.558 7.59851V9.24266C193.558 10.0309 192.918 10.6699 192.129 10.6699H190.596C189.807 10.6699 189.167 10.0309 189.167 9.24266V7.59851ZM182.256 13.4558C182.256 12.6676 182.896 12.0286 183.686 12.0286H185.27C186.059 12.0286 186.699 12.6676 186.699 13.4558V15.0086C186.699 15.7969 186.059 16.4358 185.27 16.4358H183.686C182.896 16.4358 182.256 15.7969 182.256 15.0086V13.4558ZM189.015 13.5985C189.015 12.8103 189.655 12.1713 190.445 12.1713H191.995C192.784 12.1713 193.424 12.8103 193.424 13.5985V15.0828C193.424 15.8711 192.784 16.5101 191.995 16.5101H190.445C189.655 16.5101 189.015 15.8711 189.015 15.0828V13.5985Z" fill="white"/>
<path d="M100.861 18.6223L93.4326 36.1571L87.0682 33.4197L94.439 15.7536L100.861 18.6195V18.6223ZM80.6381 12.5395L82.6423 22.9011L76.2265 24.1542L74.1279 13.7555L80.6353 12.5395H80.6381ZM89.0696 10.981L91.0738 21.3426L84.658 22.5957L82.5594 12.197L89.0667 10.981H89.0696Z" fill="#2175D6"/>
<path d="M1.62111 0C0.729071 0 0 0.727881 0 1.61847V29.4892C0 30.3798 0.654735 31.4273 1.45814 31.8155L18.5927 40.1362C19.3933 40.5244 20.7085 40.5301 21.5119 40.1448L38.9095 31.807C39.7129 31.4216 40.3705 30.3798 40.3705 29.4892V1.61847C40.3705 0.727881 39.6415 0 38.7494 0H1.62111ZM9.74096 31.2018C6.98193 31.2018 4.74325 28.9668 4.74325 26.2123C4.74325 23.4578 6.98193 21.2227 9.74096 21.2227C12.5 21.2227 14.7387 23.4578 14.7387 26.2123C14.7387 28.9668 12.5 31.2018 9.74096 31.2018ZM30.6667 31.2018C27.9077 31.2018 25.669 28.9668 25.669 26.2123C25.669 23.4578 27.9077 21.2227 30.6667 21.2227C33.4258 21.2227 35.6645 23.4578 35.6645 26.2123C35.6645 28.9668 33.4258 31.2018 30.6667 31.2018ZM34.1577 11.1608V18.1028H23.7048V36.3769H16.3712V17.9744H5.07205L4.92338 10.5785H16.3712V2.84873H23.7048V10.707H28.3995C27.3044 9.79357 26.6068 8.41773 26.6068 6.87919C26.6068 4.12466 28.8455 1.88964 31.6045 1.88964C34.3636 1.88964 36.6022 4.12466 36.6022 6.87919C36.6022 8.70032 35.6216 10.2902 34.1606 11.1608H34.1577Z" fill="#2175D6"/>
<path d="M31.6045 4.76123C30.4323 4.76123 29.4802 5.71176 29.4802 6.88208C29.4802 8.0524 30.4323 9.00292 31.6045 9.00292C32.7768 9.00292 33.7289 8.0524 33.7289 6.88208C33.7289 5.71176 32.7768 4.76123 31.6045 4.76123Z" fill="#2175D6"/>
<path d="M53.8654 4.25882L52.4931 10.3759H72.1551V17.7717H64.4698L62.8973 36.2428H55.6381L57.0991 17.7717H50.8605L49.654 23.2408L42.2632 21.4226L46.4232 2.36633L53.8683 4.25597L53.8654 4.25882Z" fill="#2175D6"/>
<path d="M103.437 36.2799C103.042 36.2799 102.722 35.9602 102.722 35.5663V2.20366C102.722 1.80975 103.042 1.49005 103.437 1.49005H111.245C111.639 1.49005 111.96 1.80975 111.96 2.20366V14.7432L127.659 18.6623C128.042 18.7565 128.274 19.1447 128.179 19.5272L126.307 27.0116C126.227 27.3341 125.935 27.5511 125.615 27.5511C125.56 27.5511 125.503 27.5453 125.449 27.5311L111.963 24.3113V35.5663C111.963 35.9602 111.642 36.2799 111.248 36.2799H103.44H103.437Z" fill="#2175D6"/>
<path d="M111.245 2.20365V15.2998L127.485 19.3531L125.612 26.8374L111.245 23.4064V35.5663H103.437V2.20365H111.245ZM111.245 0.776428H103.437C102.648 0.776428 102.007 1.41582 102.007 2.20365V35.5663C102.007 36.3541 102.648 36.9935 103.437 36.9935H111.245C112.034 36.9935 112.674 36.3541 112.674 35.5663V25.2133L125.28 28.2218C125.392 28.2475 125.503 28.2618 125.615 28.2618C126.255 28.2618 126.838 27.8279 127.001 27.18L128.874 19.6956C129.066 18.9306 128.6 18.1571 127.833 17.9658L112.677 14.1837V2.20365C112.677 1.41582 112.037 0.776428 111.248 0.776428H111.245Z" fill="white"/>
<path d="M147.075 12.3026C147.312 12.4339 149.165 13.4586 149.165 13.4586L148.845 13.5871C148.199 13.8468 147.49 14.1009 146.741 14.3435L144.536 15.0457C144.536 15.0457 146.386 20.178 146.483 20.4492C148.116 19.9668 149.651 19.4301 151.046 18.8507C152.479 18.2541 153.797 17.5776 154.963 16.8412L155.043 16.7898L161.256 20.3578L164.055 15.4596L159.549 12.825L159.669 12.6737C160.253 11.923 160.85 11.0466 161.445 10.0704C162.028 9.11419 162.629 8.0238 163.232 6.83921C163.129 6.68221 160.499 2.70598 160.407 2.56897H144.362V8.04949H149.148C149.148 8.04949 147.204 12.0343 147.075 12.2969V12.3026ZM155.695 7.91247L154.257 9.85349L154.134 9.78213L150.938 7.91247H155.698H155.695Z" fill="#2175D6"/>
<path d="M156.842 27.5396H161.594C161.602 27.2456 161.745 22.3417 161.754 22.0305H156.842V19.079H151.141V21.7479H146.326V27.434H150.978L150.898 29.5548H145.117C145.117 29.5862 144.914 35.2808 144.902 35.6005C145.228 35.6005 163.04 35.6005 163.361 35.6005V29.8203H156.842V27.5396Z" fill="#2175D6"/>
<path d="M128.986 30.2057C128.986 28.4188 130.444 26.963 132.234 26.963C134.023 26.963 135.481 28.4188 135.481 30.2057C135.481 31.9925 134.023 33.4483 132.234 33.4483C130.444 33.4483 128.986 31.9925 128.986 30.2057Z" fill="#2175D6"/>
<path d="M138.046 29.9116C138.046 28.9468 138.461 28.0762 139.118 27.4625V23.3807L139.962 23.0496C139.962 23.0496 140.525 25.8355 140.579 26.1181C140.868 26.0439 145.117 24.962 145.411 24.8878C145.354 24.5824 143.621 15.3683 143.564 15.06C143.278 15.1399 140.539 15.9135 140.539 15.9135L145.054 9.87919L141.002 7.07328L138.306 10.4215L137.105 9.39965L140.688 5.01809C140.688 5.01809 137.163 2.17792 136.917 2.04376C136.751 2.31779 129.863 11.1437 129.863 11.1437L134.355 15.04L129.146 20.8745L130.055 25.4701L134.281 24.5025C134.281 24.5025 134.281 25.6385 134.281 27.1799C135.256 27.8365 135.896 28.9468 135.896 30.2056C135.896 31.4644 135.253 32.5777 134.278 33.2342C134.278 34.5529 134.278 35.5149 134.284 35.6005C134.595 35.5491 139.127 35.6005 139.127 35.6005V32.3579C138.469 31.747 138.055 30.8764 138.055 29.9116H138.046ZM137.308 18.8735L138.841 17.0039L139.147 18.6994L137.003 19.2475L137.311 18.8707L137.308 18.8735Z" fill="#2175D6"/>
<path d="M138.449 29.9116C138.449 28.2875 139.773 26.963 141.403 26.963C143.032 26.963 144.356 28.2846 144.356 29.9116C144.356 31.5387 143.032 32.8603 141.403 32.8603C139.773 32.8603 138.449 31.5387 138.449 29.9116Z" fill="#2175D6"/>
<path d="M190.596 29.6976V28.0134H196.257V22.4701H190.596V20.4949C190.596 20.4949 197.618 20.4863 197.927 20.4949C197.933 20.2408 197.927 4.28737 197.927 4.28737C197.927 3.39679 197.244 2.52618 196.36 2.52618H179.978C179.094 2.52618 178.299 3.11134 178.299 4.00193V20.4949H184.818L184.735 22.3645H179.62V27.8736H184.512L184.429 29.7004H178.645C178.645 29.7004 177.127 25.1248 177.027 24.8393C176.758 24.9335 173.859 25.7613 173.859 25.7613V21.5424C173.859 21.5424 176.681 21.5596 176.958 21.5424C176.944 21.2456 176.973 16.0419 176.958 15.7365C176.673 15.7508 173.859 15.7365 173.859 15.7365V9.7736C173.859 9.7736 176.678 9.79929 176.958 9.7736C176.938 9.47959 176.979 4.60992 176.958 4.3045C176.647 4.32733 165.482 4.3045 165.482 4.3045C165.482 4.3045 165.462 9.46532 165.482 9.7736C165.771 9.75076 168.484 9.7736 168.484 9.7736V15.7365C168.484 15.7365 165.768 15.7222 165.482 15.7365C165.496 16.0391 165.468 21.2342 165.482 21.5424C165.774 21.5253 168.484 21.5424 168.484 21.5424V27.6224L164.824 29.1524L166.528 34.6215L177.362 30.7166V35.6062C177.362 35.6062 198.019 35.6005 198.327 35.6062C198.339 35.3122 198.556 30.0116 198.568 29.7033C198.25 29.6947 190.594 29.7033 190.594 29.7033L190.596 29.6976ZM192.129 9.33687H190.596V7.69271H192.129V9.33687ZM185.27 15.1028H183.686V13.55H185.27V15.1028ZM185.407 9.17702H183.789V7.51574H185.407V9.17702ZM190.445 15.0115V13.6927H191.995V15.177H190.445V15.0115Z" fill="#2175D6"/>
</g>
<defs>
<clipPath id="clip0_1511_10498">
<rect width="200" height="60.9023" fill="white"/>
</clipPath>
</defs>
</svg>
