<svg width="155" height="92" viewBox="0 0 155 92" fill="none" xmlns="http://www.w3.org/2000/svg">
<path d="M91.3146 86.6854L98.6945 58.1411L70.2848 66.0223L91.3146 86.6854Z" fill="#FEE880"/>
<path d="M0 39.3651C0 61.1058 34.6981 78.7302 77.5 78.7302C120.302 78.7302 155 61.1058 155 39.3651C155 17.6243 120.302 0 77.5 0C34.6981 0 0 17.6243 0 39.3651Z" fill="#FEE880"/>
<path d="M27.7604 33V31.9375C30.2729 29.6875 31.7604 27.95 31.7604 26.525C31.7604 25.5875 31.2604 25.025 30.3729 25.025C29.6979 25.025 29.1479 25.4625 28.6729 25.975L27.6729 24.975C28.5229 24.0625 29.3479 23.575 30.6104 23.575C32.3604 23.575 33.5229 24.7 33.5229 26.425C33.5229 28.1 32.1354 29.9 30.4479 31.55C30.9104 31.5 31.5229 31.45 31.9604 31.45H33.9604V33H27.7604ZM38.5212 33.175C36.6337 33.175 35.3837 31.525 35.3837 28.3375C35.3837 25.1375 36.6337 23.575 38.5212 23.575C40.4087 23.575 41.6462 25.15 41.6462 28.3375C41.6462 31.525 40.4087 33.175 38.5212 33.175ZM38.5212 31.7375C39.3212 31.7375 39.9087 30.9375 39.9087 28.3375C39.9087 25.75 39.3212 25 38.5212 25C37.7212 25 37.1212 25.75 37.1212 28.3375C37.1212 30.9375 37.7212 31.7375 38.5212 31.7375ZM42.9821 33V31.9375C45.4946 29.6875 46.9821 27.95 46.9821 26.525C46.9821 25.5875 46.4821 25.025 45.5946 25.025C44.9196 25.025 44.3696 25.4625 43.8946 25.975L42.8946 24.975C43.7446 24.0625 44.5696 23.575 45.8321 23.575C47.5821 23.575 48.7446 24.7 48.7446 26.425C48.7446 28.1 47.3571 29.9 45.6696 31.55C46.1321 31.5 46.7446 31.45 47.1821 31.45H49.1821V33H42.9821ZM52.1054 29.2H54.2679V27.3125C54.2679 26.775 54.3054 25.9375 54.3304 25.3875H54.2804C54.0554 25.8875 53.8054 26.4 53.5429 26.9L52.1054 29.2ZM54.2679 33V30.6H50.3179V29.35L53.7679 23.7375H55.9804V29.2H57.0679V30.6H55.9804V33H54.2679ZM61.6663 30H63.8288V28.1H61.6663V30ZM69.6413 30V31.425H65.3663V34.1H63.8288V31.425H58.2038V30H60.1788V26.7125H63.8288V25.225H61.1538C60.6413 26.1125 60.0413 26.9125 59.4538 27.5C59.1663 27.25 58.5288 26.75 58.1663 26.5375C59.2913 25.5875 60.2538 23.9875 60.7913 22.375L62.3038 22.7625C62.1913 23.1125 62.0538 23.45 61.8913 23.7875H68.9538V25.225H65.3663V26.7125H68.6663V28.1H65.3663V30H69.6413ZM73.8413 33.175C72.3788 33.175 71.3913 32.625 70.7413 31.8875L71.6038 30.725C72.1538 31.2625 72.8288 31.675 73.6663 31.675C74.6038 31.675 75.2413 31.2125 75.2413 30.375C75.2413 29.475 74.7038 28.9 72.6913 28.9V27.5875C74.3913 27.5875 74.9413 27 74.9413 26.175C74.9413 25.45 74.4913 25.025 73.7038 25.025C73.0413 25.025 72.5038 25.325 71.9538 25.8375L71.0163 24.7125C71.8163 24.0125 72.7038 23.575 73.7913 23.575C75.5788 23.575 76.7913 24.4625 76.7913 26.0375C76.7913 27.0375 76.2288 27.7625 75.2538 28.15V28.2125C76.2913 28.5 77.0913 29.275 77.0913 30.4875C77.0913 32.1875 75.6038 33.175 73.8413 33.175ZM81.8396 28.9125H86.9396V27.3875H81.9271C81.9146 27.8625 81.8896 28.3875 81.8396 28.9125ZM86.9396 24.45H81.9271V25.975H86.9396V24.45ZM88.5146 23V32.1875C88.5146 33.0875 88.3021 33.5125 87.7271 33.7625C87.1271 34.025 86.2521 34.05 84.9646 34.05C84.8771 33.6125 84.5771 32.9 84.3396 32.4875C85.2146 32.5375 86.2646 32.525 86.5396 32.525C86.8396 32.525 86.9396 32.425 86.9396 32.1625V30.35H81.5896C81.2646 31.75 80.6396 33.1125 79.4771 34.0875C79.2521 33.775 78.6521 33.225 78.3271 33.0125C80.2146 31.4 80.3896 29.0125 80.3896 27.1125V23H88.5146ZM101.977 28.9H98.6271C99.7021 30.2375 101.365 31.475 102.965 32.1625C102.59 32.475 102.102 33.0875 101.84 33.4875C100.39 32.7125 98.9396 31.425 97.8146 29.9875V34.0875H96.2271V30.0875C95.1146 31.5125 93.6646 32.775 92.2146 33.5625C91.9646 33.175 91.4771 32.5625 91.1146 32.25C92.7396 31.5375 94.4021 30.25 95.5021 28.9H92.1521V27.4375H96.2271V25.8H91.5896V24.3125H96.2271V22.4125H97.8146V24.3125H102.552V25.8H97.8146V27.4375H101.977V28.9ZM107.077 31.5875C107.077 32.0625 107.527 32.35 108.39 32.35C109.052 32.35 109.49 32.1625 109.49 31.4375C109.49 31.3 109.49 31.125 109.477 30.9C109.14 30.85 108.802 30.8125 108.452 30.8125C107.565 30.8125 107.077 31.1625 107.077 31.5875ZM110.99 22.8875C110.952 23.1375 110.927 23.45 110.915 23.775C110.902 23.9 110.902 24.0875 110.902 24.2875C111.927 24.2375 112.965 24.1375 114.065 23.95L114.052 25.3875C113.227 25.4875 112.09 25.6 110.877 25.6625C110.877 26.1 110.877 26.5625 110.877 26.95C112.14 26.8875 113.202 26.7875 114.215 26.65L114.202 28.125C113.077 28.25 112.102 28.3375 110.902 28.375C110.927 28.85 110.952 29.3625 110.99 29.8625C112.565 30.3125 113.765 31.15 114.49 31.75L113.59 33.15C112.915 32.525 112.065 31.8625 111.065 31.4125C111.077 31.5875 111.077 31.7375 111.077 31.875C111.077 32.9375 110.265 33.7625 108.615 33.7625C106.615 33.7625 105.565 33 105.565 31.675C105.565 30.4125 106.727 29.525 108.652 29.525C108.915 29.525 109.177 29.5375 109.427 29.5625C109.402 29.175 109.39 28.775 109.377 28.4C109.165 28.4 108.952 28.4 108.727 28.4C108.002 28.4 106.577 28.3375 105.752 28.2375L105.74 26.7625C106.552 26.9125 108.09 27 108.752 27C108.952 27 109.152 27 109.352 27C109.352 26.5875 109.352 26.1375 109.365 25.7125C109.202 25.7125 109.052 25.7125 108.902 25.7125C108.115 25.7125 106.665 25.6 105.84 25.4875L105.802 24.0625C106.702 24.2125 108.127 24.3375 108.89 24.3375C109.052 24.3375 109.215 24.3375 109.377 24.3375C109.377 24.1 109.377 23.9 109.377 23.75C109.377 23.5125 109.352 23.125 109.302 22.8875H110.99ZM117.14 24.425C117.64 24.4125 118.127 24.3875 118.365 24.3625C119.415 24.275 121.477 24.0875 123.765 23.9C125.052 23.7875 126.415 23.7125 127.302 23.675L127.315 25.275C126.64 25.2875 125.565 25.2875 124.902 25.45C123.39 25.85 122.252 27.4625 122.252 28.95C122.252 31.0125 124.177 31.75 126.302 31.8625L125.715 33.575C123.09 33.4 120.615 32 120.615 29.2875C120.615 27.4875 121.627 26.0625 122.477 25.425C121.302 25.55 118.752 25.825 117.302 26.1375L117.14 24.425ZM125.527 26.5C125.84 26.95 126.29 27.7125 126.527 28.2L125.577 28.625C125.265 27.9375 125.002 27.45 124.602 26.8875L125.527 26.5ZM126.927 25.925C127.24 26.3625 127.715 27.1 127.977 27.5875L127.04 28.0375C126.702 27.3625 126.415 26.9 126.015 26.35L126.927 25.925ZM24.5625 52.9125H29.6625V51.3875H24.65C24.6375 51.8625 24.6125 52.3875 24.5625 52.9125ZM29.6625 48.45H24.65V49.975H29.6625V48.45ZM31.2375 47V56.1875C31.2375 57.0875 31.025 57.5125 30.45 57.7625C29.85 58.025 28.975 58.05 27.6875 58.05C27.6 57.6125 27.3 56.9 27.0625 56.4875C27.9375 56.5375 28.9875 56.525 29.2625 56.525C29.5625 56.525 29.6625 56.425 29.6625 56.1625V54.35H24.3125C23.9875 55.75 23.3625 57.1125 22.2 58.0875C21.975 57.775 21.375 57.225 21.05 57.0125C22.9375 55.4 23.1125 53.0125 23.1125 51.1125V47H31.2375ZM43.725 50.8875V50.125H41.25V50.8875H43.725ZM43.725 52.675V51.9125H41.25V52.675H43.725ZM43.725 54.5V53.725H41.25V54.5H43.725ZM39.9125 49.0125H41.4875C41.5375 48.7375 41.5875 48.4375 41.6375 48.1625H39.5375V46.9H45.375V48.1625H43.2125C43.1125 48.4625 43.0125 48.75 42.9125 49.0125H45.125V55.6H39.9125V49.0125ZM35.275 48.6V49.4625H34.075V47.45H36.075V46.4375H37.4625V47.45H39.5V49.4625H38.2625V48.6H35.275ZM37.525 56.2125V55.0625H36.0125V56.2125H37.525ZM36.0375 53.9125H38.15C37.8375 53.6625 37.4625 53.3875 37.0875 53.1C36.75 53.4 36.4 53.675 36.0375 53.9125ZM37.5375 50.5875H36.325C36.2375 50.7 36.15 50.8 36.0625 50.9125L36.925 51.475C37.1625 51.2 37.3625 50.9 37.5375 50.5875ZM38.7875 54.4375V57.025C39.6125 56.6875 40.4875 56.1125 40.9375 55.65L42.1375 56.4C41.4875 57.0375 40.3875 57.7 39.475 58.0625C39.3125 57.8625 39.0375 57.5875 38.7875 57.35H36.0125V57.85H34.7625V54.6125L34.5 54.725C34.3375 54.4 34.0125 53.9 33.75 53.6625C34.575 53.375 35.3625 52.925 36.05 52.35L35.225 51.775C35.05 51.925 34.875 52.075 34.6875 52.2C34.4875 51.9625 34.025 51.5125 33.75 51.3375C34.725 50.725 35.5875 49.775 36.0375 48.725L37.25 49.025C37.1625 49.225 37.075 49.4125 36.9625 49.6H38.125L38.35 49.5375L39.1875 49.925C38.9 50.775 38.475 51.525 37.95 52.175C38.625 52.625 39.2375 53.075 39.65 53.425L38.8125 54.4625L38.7875 54.4375ZM42.6875 56.3875L43.7625 55.7125C44.425 56.175 45.3375 56.8625 45.7875 57.3375L44.6375 58.1C44.2375 57.625 43.3625 56.8875 42.6875 56.3875ZM50.65 51.475V52.15C51.2625 52.6125 52.5 53.675 52.8375 53.9375L51.975 55.2125C51.675 54.825 51.15 54.2625 50.65 53.75V58.0625H49.2125V53.5875C48.65 54.725 47.9875 55.8 47.3 56.525C47.15 56.0875 46.7875 55.45 46.55 55.075C47.45 54.2 48.3625 52.775 48.925 51.475H46.8375V50.1125H49.2125V48.5625C48.5 48.7 47.7875 48.8125 47.1125 48.9C47.05 48.575 46.8625 48.05 46.6875 47.7375C48.4875 47.475 50.5 47 51.7125 46.45L52.7625 47.6C52.1375 47.85 51.4125 48.0625 50.65 48.25V50.1125H52.8V51.475H50.65ZM54.8375 47.925V54.9125H53.3875V47.925H54.8375ZM56.3375 46.65H57.8125V56.275C57.8125 57.1375 57.6375 57.55 57.125 57.7875C56.6125 58.0375 55.775 58.0875 54.6375 58.075C54.575 57.65 54.35 56.9625 54.125 56.5375C54.9375 56.575 55.7375 56.575 56 56.575C56.2375 56.5625 56.3375 56.4875 56.3375 56.2625V46.65ZM66.125 53.0375H68.7625V51.5H66.125V53.0375ZM62.2375 53.0375H64.625V51.5H62.275V51.725C62.275 52.125 62.2625 52.575 62.2375 53.0375ZM64.625 48.6625H62.275V50.1125H64.625V48.6625ZM68.7625 50.1125V48.6625H66.125V50.1125H68.7625ZM70.2375 47.25V56.325C70.2375 57.125 70.0625 57.525 69.5625 57.75C69.05 58 68.2875 58.025 67.1625 58.0125C67.1125 57.6125 66.875 56.975 66.6875 56.5875C67.3875 56.625 68.2125 56.6125 68.4375 56.6125C68.675 56.6125 68.7625 56.5375 68.7625 56.3125V54.4375H66.125V57.925H64.625V54.4375H62.075C61.85 55.8 61.4 57.175 60.5 58.15C60.2625 57.875 59.6625 57.3625 59.325 57.1875C60.6875 55.6875 60.8 53.4625 60.8 51.7125V47.25H70.2375ZM80.7375 48.6L79.975 49.7125C79.5875 49.225 78.725 48.55 78.0375 48.0875L78.75 47.0875C79.45 47.5 80.3375 48.1375 80.7375 48.6ZM77.4625 51.225L78.1625 50.1625C78.8875 50.55 79.8125 51.15 80.2625 51.6L79.5125 52.7875C79.1 52.325 78.1875 51.6625 77.4625 51.225ZM76.3375 47.1L77.5875 47.375C77.2625 48.375 76.9 49.5625 76.5875 50.2875L75.65 50.025C75.9 49.2375 76.2 47.975 76.3375 47.1ZM73.9125 50.025L72.8 50.325C72.775 49.55 72.525 48.3375 72.2375 47.4375L73.275 47.1625C73.6 48.0625 73.85 49.25 73.9125 50.025ZM77.325 54.1375L76.4125 55.2875C76.225 54.8875 75.875 54.2375 75.5125 53.6625V58.05H74.1375V53.6375C73.7375 54.8 73.2375 55.9625 72.7 56.7125C72.575 56.2625 72.25 55.5875 72.025 55.175C72.65 54.4125 73.2875 53.075 73.675 51.9375H72.25V50.55H74.1375V46.4625H75.5125V50.55H77.3625V51.9375H75.5125V52.025C75.875 52.3875 77.0625 53.7875 77.325 54.1375ZM83.9375 54.425L82.4375 54.7V58.075H81.0375V54.95L77.55 55.575L77.325 54.1875L81.0375 53.525V46.4H82.4375V53.275L83.7125 53.0375L83.9375 54.425ZM90.1875 47.2125C90.1125 47.5375 90.025 47.9375 89.9625 48.25C89.8875 48.625 89.7875 49.0875 89.7 49.5375C90.125 49.5125 90.4875 49.4875 90.75 49.4875C92.075 49.4875 93.0125 50.075 93.0125 51.875C93.0125 53.35 92.8375 55.375 92.3 56.4625C91.8875 57.3375 91.2 57.6125 90.25 57.6125C89.775 57.6125 89.175 57.525 88.75 57.4375L88.4875 55.7875C88.9625 55.925 89.6875 56.05 90.0125 56.05C90.4375 56.05 90.75 55.925 90.95 55.5125C91.2875 54.8 91.4625 53.2875 91.4625 52.05C91.4625 51.05 91.025 50.9125 90.25 50.9125C90.05 50.9125 89.7375 50.9375 89.375 50.9625C88.9 52.8625 87.975 55.825 86.825 57.6625L85.2 57.0125C86.4125 55.375 87.275 52.85 87.7375 51.1375C87.2875 51.1875 86.8875 51.2375 86.6625 51.2625C86.3 51.325 85.65 51.4125 85.2625 51.475L85.1125 49.775C85.575 49.8125 85.9875 49.7875 86.45 49.775C86.8375 49.7625 87.425 49.725 88.0625 49.6625C88.2375 48.725 88.35 47.8125 88.325 47.025L90.1875 47.2125ZM95.75 46.175C96.075 46.65 96.5375 47.4375 96.75 47.875L95.7625 48.3C95.5 47.7875 95.1 47.05 94.75 46.575L95.75 46.175ZM94.2625 46.7375C94.575 47.2 95.025 47.9875 95.2625 48.45L94.65 48.7125C95.4 49.875 96.3375 51.9625 96.6875 53.075L95.1 53.8C94.775 52.4125 93.8875 50.2125 93 49.1125L94.125 48.625C93.875 48.15 93.5625 47.55 93.275 47.15L94.2625 46.7375ZM106.138 50.625V49.025H105.188V50.625H106.138ZM106.138 53.5375V51.95H105.188V53.5375H106.138ZM100.888 51.95V53.5375H101.788V51.95H100.888ZM103.95 51.95H103.025V53.5375H103.95V51.95ZM103.025 50.625H103.95V49.025H103.025V50.625ZM100.888 49.025V50.625H101.788V49.025H100.888ZM99.575 50.625V49.725C99.325 49.9625 99.0875 50.1875 98.8375 50.375C98.5625 50.1125 97.9625 49.6375 97.625 49.4C98.675 48.7125 99.6625 47.575 100.213 46.4125L101.663 46.8375C101.525 47.1375 101.363 47.425 101.175 47.7125H108.675V49.025H107.5V50.625H109.125V51.95H107.5V53.5375H108.95V54.8625H98.0875V53.5375H99.575V51.95H97.9V50.625H99.575ZM99.1875 58.1L97.775 57.525C98.325 57 98.8875 56.0375 99.175 55.125L100.613 55.475C100.338 56.425 99.8 57.45 99.1875 58.1ZM101.413 55.5625L102.788 55.4C102.938 56.1625 103.088 57.15 103.1 57.7375L101.65 57.95C101.65 57.35 101.55 56.325 101.413 55.5625ZM103.888 55.5875L105.288 55.35C105.588 56.0875 105.9 57.0625 106.013 57.675L104.525 57.9625C104.45 57.3625 104.163 56.35 103.888 55.5875ZM106.363 55.525L107.788 55.075C108.35 55.8375 109.05 56.8875 109.363 57.575L107.838 58.0875C107.575 57.425 106.913 56.325 106.363 55.525ZM118.988 48.6L118.225 49.7125C117.838 49.225 116.975 48.55 116.288 48.0875L117 47.0875C117.7 47.5 118.588 48.1375 118.988 48.6ZM115.713 51.225L116.413 50.1625C117.138 50.55 118.063 51.15 118.513 51.6L117.763 52.7875C117.35 52.325 116.438 51.6625 115.713 51.225ZM114.588 47.1L115.838 47.375C115.513 48.375 115.15 49.5625 114.838 50.2875L113.9 50.025C114.15 49.2375 114.45 47.975 114.588 47.1ZM112.163 50.025L111.05 50.325C111.025 49.55 110.775 48.3375 110.488 47.4375L111.525 47.1625C111.85 48.0625 112.1 49.25 112.163 50.025ZM115.575 54.1375L114.663 55.2875C114.475 54.8875 114.125 54.2375 113.763 53.6625V58.05H112.388V53.6375C111.988 54.8 111.488 55.9625 110.95 56.7125C110.825 56.2625 110.5 55.5875 110.275 55.175C110.9 54.4125 111.538 53.075 111.925 51.9375H110.5V50.55H112.388V46.4625H113.763V50.55H115.613V51.9375H113.763V52.025C114.125 52.3875 115.313 53.7875 115.575 54.1375ZM122.188 54.425L120.688 54.7V58.075H119.288V54.95L115.8 55.575L115.575 54.1875L119.288 53.525V46.4H120.688V53.275L121.963 53.0375L122.188 54.425ZM128.363 53.7875L128.025 49.5125L127.963 47.65H130.038L129.975 49.5125L129.637 53.7875H128.363ZM129 57.1125C128.363 57.1125 127.9 56.6625 127.9 56.0125C127.9 55.35 128.375 54.9 129 54.9C129.625 54.9 130.1 55.35 130.1 56.0125C130.1 56.6625 129.625 57.1125 129 57.1125Z" fill="#333333"/>
</svg>
