<svg width="226" height="136" viewBox="0 0 226 136" fill="none" xmlns="http://www.w3.org/2000/svg">
<path d="M185.008 127.827L182.393 95.1054L156 113.783L185.008 127.827Z" fill="#FEE880"/>
<path d="M226 63.5C226 98.5701 175.408 127 113 127C50.5918 127 0 98.5701 0 63.5C0 28.4299 50.5918 0 113 0C175.408 0 226 28.4299 226 63.5Z" fill="#FEE880"/>
<path d="M185.522 82.374L185.036 76.218L184.946 73.536H187.934L187.844 76.218L187.358 82.374H185.522ZM186.44 87.162C185.522 87.162 184.856 86.514 184.856 85.578C184.856 84.624 185.54 83.976 186.44 83.976C187.34 83.976 188.024 84.624 188.024 85.578C188.024 86.514 187.34 87.162 186.44 87.162Z" fill="#333333"/>
<path d="M172.022 74.904L170.924 76.506C170.366 75.804 169.124 74.832 168.134 74.166L169.16 72.726C170.168 73.32 171.446 74.238 172.022 74.904ZM167.306 78.684L168.314 77.154C169.358 77.712 170.69 78.576 171.338 79.224L170.258 80.934C169.664 80.268 168.35 79.314 167.306 78.684ZM165.686 72.744L167.486 73.14C167.018 74.58 166.496 76.29 166.046 77.334L164.696 76.956C165.056 75.822 165.488 74.004 165.686 72.744ZM162.194 76.956L160.592 77.388C160.556 76.272 160.196 74.526 159.782 73.23L161.276 72.834C161.744 74.13 162.104 75.84 162.194 76.956ZM167.108 82.878L165.794 84.534C165.524 83.958 165.02 83.022 164.498 82.194V88.512H162.518V82.158C161.942 83.832 161.222 85.506 160.448 86.586C160.268 85.938 159.8 84.966 159.476 84.372C160.376 83.274 161.294 81.348 161.852 79.71H159.8V77.712H162.518V71.826H164.498V77.712H167.162V79.71H164.498V79.836C165.02 80.358 166.73 82.374 167.108 82.878ZM176.63 83.292L174.47 83.688V88.548H172.454V84.048L167.432 84.948L167.108 82.95L172.454 81.996V71.736H174.47V81.636L176.306 81.294L176.63 83.292Z" fill="#333333"/>
<path d="M153.518 77.82V75.516H152.15V77.82H153.518ZM153.518 82.014V79.728H152.15V82.014H153.518ZM145.958 79.728V82.014H147.254V79.728H145.958ZM150.368 79.728H149.036V82.014H150.368V79.728ZM149.036 77.82H150.368V75.516H149.036V77.82ZM145.958 75.516V77.82H147.254V75.516H145.958ZM144.068 77.82V76.524C143.708 76.866 143.366 77.19 143.006 77.46C142.61 77.082 141.746 76.398 141.26 76.056C142.772 75.066 144.194 73.428 144.986 71.754L147.074 72.366C146.876 72.798 146.642 73.212 146.372 73.626H157.172V75.516H155.48V77.82H157.82V79.728H155.48V82.014H157.568V83.922H141.926V82.014H144.068V79.728H141.656V77.82H144.068ZM143.51 88.584L141.476 87.756C142.268 87 143.078 85.614 143.492 84.3L145.562 84.804C145.166 86.172 144.392 87.648 143.51 88.584ZM146.714 84.93L148.694 84.696C148.91 85.794 149.126 87.216 149.144 88.062L147.056 88.368C147.056 87.504 146.912 86.028 146.714 84.93ZM150.278 84.966L152.294 84.624C152.726 85.686 153.176 87.09 153.338 87.972L151.196 88.386C151.088 87.522 150.674 86.064 150.278 84.966ZM153.842 84.876L155.894 84.228C156.704 85.326 157.712 86.838 158.162 87.828L155.966 88.566C155.588 87.612 154.634 86.028 153.842 84.876Z" fill="#333333"/>
<path d="M130.55 72.906C130.442 73.374 130.316 73.95 130.226 74.4C130.118 74.94 129.974 75.606 129.848 76.254C130.46 76.218 130.982 76.182 131.36 76.182C133.268 76.182 134.618 77.028 134.618 79.62C134.618 81.744 134.366 84.66 133.592 86.226C132.998 87.486 132.008 87.882 130.64 87.882C129.956 87.882 129.092 87.756 128.48 87.63L128.102 85.254C128.786 85.452 129.83 85.632 130.298 85.632C130.91 85.632 131.36 85.452 131.648 84.858C132.134 83.832 132.386 81.654 132.386 79.872C132.386 78.432 131.756 78.234 130.64 78.234C130.352 78.234 129.902 78.27 129.38 78.306C128.696 81.042 127.364 85.308 125.708 87.954L123.368 87.018C125.114 84.66 126.356 81.024 127.022 78.558C126.374 78.63 125.798 78.702 125.474 78.738C124.952 78.828 124.016 78.954 123.458 79.044L123.242 76.596C123.908 76.65 124.502 76.614 125.168 76.596C125.726 76.578 126.572 76.524 127.49 76.434C127.742 75.084 127.904 73.77 127.868 72.636L130.55 72.906ZM138.56 71.412C139.028 72.096 139.694 73.23 140 73.86L138.578 74.472C138.2 73.734 137.624 72.672 137.12 71.988L138.56 71.412ZM136.418 72.222C136.868 72.888 137.516 74.022 137.858 74.688L136.976 75.066C138.056 76.74 139.406 79.746 139.91 81.348L137.624 82.392C137.156 80.394 135.878 77.226 134.6 75.642L136.22 74.94C135.86 74.256 135.41 73.392 134.996 72.816L136.418 72.222Z" fill="#333333"/>
<path d="M116.942 74.904L115.844 76.506C115.286 75.804 114.044 74.832 113.054 74.166L114.08 72.726C115.088 73.32 116.366 74.238 116.942 74.904ZM112.226 78.684L113.234 77.154C114.278 77.712 115.61 78.576 116.258 79.224L115.178 80.934C114.584 80.268 113.27 79.314 112.226 78.684ZM110.606 72.744L112.406 73.14C111.938 74.58 111.416 76.29 110.966 77.334L109.616 76.956C109.976 75.822 110.408 74.004 110.606 72.744ZM107.114 76.956L105.512 77.388C105.476 76.272 105.116 74.526 104.702 73.23L106.196 72.834C106.664 74.13 107.024 75.84 107.114 76.956ZM112.028 82.878L110.714 84.534C110.444 83.958 109.94 83.022 109.418 82.194V88.512H107.438V82.158C106.862 83.832 106.142 85.506 105.368 86.586C105.188 85.938 104.72 84.966 104.396 84.372C105.296 83.274 106.214 81.348 106.772 79.71H104.72V77.712H107.438V71.826H109.418V77.712H112.082V79.71H109.418V79.836C109.94 80.358 111.65 82.374 112.028 82.878ZM121.55 83.292L119.39 83.688V88.548H117.374V84.048L112.352 84.948L112.028 82.95L117.374 81.996V71.736H119.39V81.636L121.226 81.294L121.55 83.292Z" fill="#333333"/>
<path d="M95.8999 81.294H99.6979V79.08H95.8999V81.294ZM90.3019 81.294H93.7399V79.08H90.3559V79.404C90.3559 79.98 90.3379 80.628 90.3019 81.294ZM93.7399 74.994H90.3559V77.082H93.7399V74.994ZM99.6979 77.082V74.994H95.8999V77.082H99.6979ZM101.822 72.96V86.028C101.822 87.18 101.57 87.756 100.85 88.08C100.112 88.44 99.0139 88.476 97.3939 88.458C97.3219 87.882 96.9799 86.964 96.7099 86.406C97.7179 86.46 98.9059 86.442 99.2299 86.442C99.5719 86.442 99.6979 86.334 99.6979 86.01V83.31H95.8999V88.332H93.7399V83.31H90.0679C89.7439 85.272 89.0959 87.252 87.7999 88.656C87.4579 88.26 86.5939 87.522 86.1079 87.27C88.0699 85.11 88.2319 81.906 88.2319 79.386V72.96H101.822Z" fill="#333333"/>
<path d="M73.6159 79.044V80.016C74.4979 80.682 76.2799 82.212 76.7659 82.59L75.5239 84.426C75.0919 83.868 74.3359 83.058 73.6159 82.32V88.53H71.5459V82.086C70.7359 83.724 69.7819 85.272 68.7919 86.316C68.5759 85.686 68.0539 84.768 67.7119 84.228C69.0079 82.968 70.3219 80.916 71.1319 79.044H68.1259V77.082H71.5459V74.85C70.5199 75.048 69.4939 75.21 68.5219 75.336C68.4319 74.868 68.1619 74.112 67.9099 73.662C70.5019 73.284 73.3999 72.6 75.1459 71.808L76.6579 73.464C75.7579 73.824 74.7139 74.13 73.6159 74.4V77.082H76.7119V79.044H73.6159ZM79.6459 73.932V83.994H77.5579V73.932H79.6459ZM81.8059 72.096H83.9299V85.956C83.9299 87.198 83.6779 87.792 82.9399 88.134C82.2019 88.494 80.9959 88.566 79.3579 88.548C79.2679 87.936 78.9439 86.946 78.6199 86.334C79.7899 86.388 80.9419 86.388 81.3199 86.388C81.6619 86.37 81.8059 86.262 81.8059 85.938V72.096Z" fill="#333333"/>
<path d="M63.6438 78.198V77.1H60.0798V78.198H63.6438ZM63.6438 80.772V79.674H60.0798V80.772H63.6438ZM63.6438 83.4V82.284H60.0798V83.4H63.6438ZM58.1538 75.498H60.4218C60.4938 75.102 60.5658 74.67 60.6378 74.274H57.6138V72.456H66.0198V74.274H62.9058C62.7618 74.706 62.6178 75.12 62.4738 75.498H65.6598V84.984H58.1538V75.498ZM51.4758 74.904V76.146H49.7478V73.248H52.6278V71.79H54.6258V73.248H57.5598V76.146H55.7778V74.904H51.4758ZM54.7158 85.866V84.21H52.5378V85.866H54.7158ZM52.5738 82.554H55.6158C55.1658 82.194 54.6258 81.798 54.0858 81.384C53.5998 81.816 53.0958 82.212 52.5738 82.554ZM54.7338 77.766H52.9878C52.8618 77.928 52.7358 78.072 52.6098 78.234L53.8518 79.044C54.1938 78.648 54.4818 78.216 54.7338 77.766ZM56.5338 83.31V87.036C57.7218 86.55 58.9818 85.722 59.6298 85.056L61.3578 86.136C60.4218 87.054 58.8378 88.008 57.5238 88.53C57.2898 88.242 56.8938 87.846 56.5338 87.504H52.5378V88.224H50.7378V83.562L50.3598 83.724C50.1258 83.256 49.6578 82.536 49.2798 82.194C50.4678 81.78 51.6018 81.132 52.5918 80.304L51.4038 79.476C51.1518 79.692 50.8998 79.908 50.6298 80.088C50.3418 79.746 49.6758 79.098 49.2798 78.846C50.6838 77.964 51.9258 76.596 52.5738 75.084L54.3198 75.516C54.1938 75.804 54.0678 76.074 53.9058 76.344H55.5798L55.9038 76.254L57.1098 76.812C56.6958 78.036 56.0838 79.116 55.3278 80.052C56.2998 80.7 57.1818 81.348 57.7758 81.852L56.5698 83.346L56.5338 83.31ZM62.1498 86.118L63.6978 85.146C64.6518 85.812 65.9658 86.802 66.6138 87.486L64.9578 88.584C64.3818 87.9 63.1218 86.838 62.1498 86.118Z" fill="#333333"/>
<path d="M36.0502 81.114H43.3942V78.918H36.1762C36.1582 79.602 36.1222 80.358 36.0502 81.114ZM43.3942 74.688H36.1762V76.884H43.3942V74.688ZM45.6622 72.6V85.83C45.6622 87.126 45.3562 87.738 44.5282 88.098C43.6642 88.476 42.4042 88.512 40.5502 88.512C40.4242 87.882 39.9922 86.856 39.6502 86.262C40.9102 86.334 42.4222 86.316 42.8182 86.316C43.2502 86.316 43.3942 86.172 43.3942 85.794V83.184H35.6902C35.2222 85.2 34.3222 87.162 32.6482 88.566C32.3242 88.116 31.4602 87.324 30.9922 87.018C33.7102 84.696 33.9622 81.258 33.9622 78.522V72.6H45.6622Z" fill="#333333"/>
<path d="M169.361 42.652C170.081 42.634 170.783 42.598 171.125 42.562C172.637 42.436 175.607 42.166 178.901 41.896C180.755 41.734 182.717 41.626 183.995 41.572L184.013 43.876C183.041 43.894 181.493 43.894 180.539 44.128C178.361 44.704 176.723 47.026 176.723 49.168C176.723 52.138 179.495 53.2 182.555 53.362L181.709 55.828C177.929 55.576 174.365 53.56 174.365 49.654C174.365 47.062 175.823 45.01 177.047 44.092C175.355 44.272 171.683 44.668 169.595 45.118L169.361 42.652ZM181.439 45.64C181.889 46.288 182.537 47.386 182.879 48.088L181.511 48.7C181.061 47.71 180.683 47.008 180.107 46.198L181.439 45.64ZM183.455 44.812C183.905 45.442 184.589 46.504 184.967 47.206L183.617 47.854C183.131 46.882 182.717 46.216 182.141 45.424L183.455 44.812Z" fill="#333333"/>
<path d="M154.871 52.966C154.871 53.65 155.519 54.064 156.761 54.064C157.715 54.064 158.345 53.794 158.345 52.75C158.345 52.552 158.345 52.3 158.327 51.976C157.841 51.904 157.355 51.85 156.851 51.85C155.573 51.85 154.871 52.354 154.871 52.966ZM160.505 40.438C160.451 40.798 160.415 41.248 160.397 41.716C160.379 41.896 160.379 42.166 160.379 42.454C161.855 42.382 163.349 42.238 164.933 41.968L164.915 44.038C163.727 44.182 162.089 44.344 160.343 44.434C160.343 45.064 160.343 45.73 160.343 46.288C162.161 46.198 163.691 46.054 165.149 45.856L165.131 47.98C163.511 48.16 162.107 48.286 160.379 48.34C160.415 49.024 160.451 49.762 160.505 50.482C162.773 51.13 164.501 52.336 165.545 53.2L164.249 55.216C163.277 54.316 162.053 53.362 160.613 52.714C160.631 52.966 160.631 53.182 160.631 53.38C160.631 54.91 159.461 56.098 157.085 56.098C154.205 56.098 152.693 55 152.693 53.092C152.693 51.274 154.367 49.996 157.139 49.996C157.517 49.996 157.895 50.014 158.255 50.05C158.219 49.492 158.201 48.916 158.183 48.376C157.877 48.376 157.571 48.376 157.247 48.376C156.203 48.376 154.151 48.286 152.963 48.142L152.945 46.018C154.115 46.234 156.329 46.36 157.283 46.36C157.571 46.36 157.859 46.36 158.147 46.36C158.147 45.766 158.147 45.118 158.165 44.506C157.931 44.506 157.715 44.506 157.499 44.506C156.365 44.506 154.277 44.344 153.089 44.182L153.035 42.13C154.331 42.346 156.383 42.526 157.481 42.526C157.715 42.526 157.949 42.526 158.183 42.526C158.183 42.184 158.183 41.896 158.183 41.68C158.183 41.338 158.147 40.78 158.075 40.438H160.505Z" fill="#333333"/>
<path d="M147.527 49.096H142.703C144.251 51.022 146.645 52.804 148.949 53.794C148.409 54.244 147.707 55.126 147.329 55.702C145.241 54.586 143.153 52.732 141.533 50.662V56.566H139.247V50.806C137.645 52.858 135.557 54.676 133.469 55.81C133.109 55.252 132.407 54.37 131.885 53.92C134.225 52.894 136.619 51.04 138.203 49.096H133.379V46.99H139.247V44.632H132.569V42.49H139.247V39.754H141.533V42.49H148.355V44.632H141.533V46.99H147.527V49.096Z" fill="#333333"/>
<path d="M118.529 49.114H125.873V46.918H118.655C118.637 47.602 118.601 48.358 118.529 49.114ZM125.873 42.688H118.655V44.884H125.873V42.688ZM128.141 40.6V53.83C128.141 55.126 127.835 55.738 127.007 56.098C126.143 56.476 124.883 56.512 123.029 56.512C122.903 55.882 122.471 54.856 122.129 54.262C123.389 54.334 124.901 54.316 125.297 54.316C125.729 54.316 125.873 54.172 125.873 53.794V51.184H118.169C117.701 53.2 116.801 55.162 115.127 56.566C114.803 56.116 113.939 55.324 113.471 55.018C116.189 52.696 116.441 49.258 116.441 46.522V40.6H128.141Z" fill="#333333"/>
<path d="M107.011 55.252C104.905 55.252 103.483 54.46 102.547 53.398L103.789 51.724C104.581 52.498 105.553 53.092 106.759 53.092C108.109 53.092 109.027 52.426 109.027 51.22C109.027 49.924 108.253 49.096 105.355 49.096V47.206C107.803 47.206 108.595 46.36 108.595 45.172C108.595 44.128 107.947 43.516 106.813 43.516C105.859 43.516 105.085 43.948 104.293 44.686L102.943 43.066C104.095 42.058 105.373 41.428 106.939 41.428C109.513 41.428 111.259 42.706 111.259 44.974C111.259 46.414 110.449 47.458 109.045 48.016V48.106C110.539 48.52 111.691 49.636 111.691 51.382C111.691 53.83 109.549 55.252 107.011 55.252Z" fill="#333333"/>
<path d="M89.4795 50.68H92.5935V47.944H89.4795V50.68ZM100.963 50.68V52.732H94.8075V56.584H92.5935V52.732H84.4935V50.68H87.3375V45.946H92.5935V43.804H88.7415C88.0035 45.082 87.1395 46.234 86.2935 47.08C85.8795 46.72 84.9615 46 84.4395 45.694C86.0595 44.326 87.4454 42.022 88.2194 39.7L90.3974 40.258C90.2354 40.762 90.0375 41.248 89.8035 41.734H99.9735V43.804H94.8075V45.946H99.5595V47.944H94.8075V50.68H100.963Z" fill="#333333"/>
<path d="M75.7117 49.528H78.8257V46.81C78.8257 46.036 78.8797 44.83 78.9157 44.038H78.8437C78.5197 44.758 78.1597 45.496 77.7817 46.216L75.7117 49.528ZM78.8257 55V51.544H73.1377V49.744L78.1057 41.662H81.2917V49.528H82.8577V51.544H81.2917V55H78.8257Z" fill="#333333"/>
<path d="M62.5742 55V53.47C66.1922 50.23 68.3342 47.728 68.3342 45.676C68.3342 44.326 67.6142 43.516 66.3362 43.516C65.3642 43.516 64.5722 44.146 63.8882 44.884L62.4482 43.444C63.6722 42.13 64.8602 41.428 66.6782 41.428C69.1982 41.428 70.8722 43.048 70.8722 45.532C70.8722 47.944 68.8742 50.536 66.4442 52.912C67.1102 52.84 67.9922 52.768 68.6222 52.768H71.5022V55H62.5742Z" fill="#333333"/>
<path d="M56.1508 55.252C53.4328 55.252 51.6328 52.876 51.6328 48.286C51.6328 43.678 53.4328 41.428 56.1508 41.428C58.8688 41.428 60.6508 43.696 60.6508 48.286C60.6508 52.876 58.8688 55.252 56.1508 55.252ZM56.1508 53.182C57.3028 53.182 58.1488 52.03 58.1488 48.286C58.1488 44.56 57.3028 43.48 56.1508 43.48C54.9988 43.48 54.1348 44.56 54.1348 48.286C54.1348 52.03 54.9988 53.182 56.1508 53.182Z" fill="#333333"/>
<path d="M40.6548 55V53.47C44.2728 50.23 46.4148 47.728 46.4148 45.676C46.4148 44.326 45.6948 43.516 44.4168 43.516C43.4448 43.516 42.6528 44.146 41.9688 44.884L40.5288 43.444C41.7528 42.13 42.9408 41.428 44.7588 41.428C47.2788 41.428 48.9528 43.048 48.9528 45.532C48.9528 47.944 46.9548 50.536 44.5248 52.912C45.1908 52.84 46.0728 52.768 46.7028 52.768H49.5828V55H40.6548Z" fill="#333333"/>
</svg>
