<svg width="536" height="58" viewBox="0 0 536 58" fill="none" xmlns="http://www.w3.org/2000/svg">
<path d="M513.374 2.73828L486.657 55.4722" stroke="white" stroke-width="5" stroke-linecap="round"/>
<path d="M533.412 2.73828L506.695 55.4722" stroke="white" stroke-width="5" stroke-linecap="round"/>
<path d="M23.0381 2.73828L49.7555 55.4722" stroke="white" stroke-width="5" stroke-linecap="round"/>
<path d="M3 2.73828L29.7174 55.4722" stroke="white" stroke-width="5" stroke-linecap="round"/>
<g clip-path="url(#clip0_18_19897)">
<path d="M98.8137 49.2114C93.5538 49.2114 89.0966 48.57 85.9189 47.3539C81.7628 45.6213 79.6638 42.7059 79.6638 38.6826C79.6638 36.1503 80.5335 32.352 84.6562 28.6619C85.3084 28.0705 86.1196 27.7539 86.9224 27.7539C87.6499 27.7539 88.2938 27.9955 88.829 28.462C89.4729 28.9784 89.8158 29.6448 89.8158 30.4361C89.8158 31.1691 89.4729 31.8855 88.8792 32.4103C86.705 34.4344 85.5509 36.4002 85.5509 38.0828C85.5509 40.0403 86.5962 41.2315 89.0464 42.0395C91.3879 42.8141 94.5489 43.1973 98.7134 43.1973C105.571 43.1973 110.973 42.2061 113.582 41.6147C113.975 41.548 114.309 41.498 114.619 41.498C116.082 41.498 117.127 42.3477 117.395 43.7721C117.453 44.0553 117.512 44.3468 117.512 44.63C117.512 46.0711 116.559 47.1706 114.895 47.6288C110.981 48.6783 105.579 49.2114 98.8137 49.2114ZM98.4123 23.6224C97.6095 23.6224 96.8569 23.2475 96.3468 22.5978C96.0039 22.1897 95.82 21.6565 95.82 21.0401C95.82 20.0822 96.3384 19.2243 97.2165 18.7578C98.4709 18.1081 99.9594 17.3834 101.657 16.6004C99.7419 16.717 97.8186 16.7753 96.0541 16.7753C91.2625 16.7753 87.4743 16.642 84.7816 16.3671C83.2513 16.1589 82.3231 15.101 82.3231 13.5933V13.2435C82.3231 13.2435 82.3231 13.1685 82.3231 13.1352C82.5238 11.5859 83.5858 10.6613 85.1579 10.6613H85.4088C88.6701 10.9195 93.144 11.0611 97.7517 11.0611C103.346 11.0611 108.071 10.8112 110.396 10.6613H110.697C112.118 10.6613 113.356 11.5442 113.707 12.8187C113.707 12.8437 113.724 12.877 113.724 12.902C113.782 13.2352 113.833 13.5683 113.833 13.9349C113.833 15.126 113.23 16.0423 112.035 16.6753C109.835 17.7999 107.444 19.141 105.127 20.4321C103.513 21.3317 101.908 22.2313 100.352 23.0643C99.7001 23.4141 99.006 23.614 98.404 23.614L98.4123 23.6224Z" fill="white"/>
<path d="M85.2164 29.2866C85.7181 28.8368 86.3202 28.5869 86.9223 28.5869C87.4241 28.5869 87.8756 28.7369 88.277 29.0867C88.7788 29.4865 88.9795 29.9363 88.9795 30.4361C88.9795 30.8859 88.7788 31.3857 88.3272 31.7855C86.0694 33.8846 84.7146 36.0337 84.7146 38.0828C84.7146 40.4818 86.0694 41.9312 88.7788 42.8308C91.1871 43.6305 94.3983 44.0303 98.7133 44.0303C104.734 44.0303 110.003 43.2806 113.766 42.431C114.067 42.381 114.368 42.331 114.619 42.331C115.672 42.331 116.375 42.8808 116.575 43.9303C116.626 44.1802 116.676 44.4301 116.676 44.63C116.676 45.7296 115.923 46.4793 114.669 46.8291C110.755 47.8787 105.286 48.3784 98.8137 48.3784C93.4952 48.3784 89.2303 47.7287 86.2199 46.5792C82.507 45.0299 80.5 42.481 80.5 38.6826C80.5 35.6339 81.8547 32.2853 85.2164 29.2866ZM105.637 15.4425C102.727 15.7424 99.215 15.9423 96.0541 15.9423C91.9899 15.9423 87.8756 15.8424 84.8652 15.5425C83.7613 15.3926 83.1592 14.6429 83.1592 13.5933V13.2435C83.3098 12.094 84.0122 11.4942 85.1662 11.4942H85.4171C88.5781 11.7441 93.0436 11.8941 97.76 11.8941C102.727 11.8941 107.343 11.6941 110.454 11.4942H110.705C111.759 11.4942 112.662 12.144 112.913 13.0436C112.963 13.3434 113.013 13.6433 113.013 13.9432C113.013 14.7928 112.612 15.4425 111.658 15.9423C107.945 17.8415 103.781 20.2905 99.9677 22.3396C99.4157 22.6395 98.8638 22.7894 98.4123 22.7894C97.8603 22.7894 97.3586 22.5395 97.0074 22.0897C96.7565 21.7898 96.6562 21.44 96.6562 21.0401C96.6562 20.4404 96.9572 19.8407 97.6095 19.4908C99.8171 18.3413 102.627 17.0419 105.738 15.6924L105.637 15.4425Z" fill="white"/>
<path d="M137.147 52.3601C135.525 52.3601 134.304 51.2522 134.304 49.7778C134.304 48.3035 134.287 46.8208 134.279 45.3297C134.27 43.897 134.254 42.481 134.254 41.1815V38.2328C134.254 37.7163 134.262 37.1999 134.279 36.6751C133.442 37.833 132.556 38.9658 131.703 40.0653C131.118 40.815 130.549 41.5397 130.039 42.2227C129.403 43.0474 128.626 43.4555 127.714 43.4555C127.054 43.4555 126.359 43.1807 125.808 42.6975C125.18 42.1394 124.821 41.3648 124.821 40.5734C124.821 39.8904 125.088 39.1574 125.548 38.566C128.3 35.0841 131.243 31.419 134.362 28.0538C134.404 25.7631 134.454 23.6307 134.521 21.3567C134.028 21.3983 133.518 21.4483 132.999 21.49C131.494 21.6232 129.914 21.7565 128.35 21.9231C128.325 21.9231 128.291 21.9231 128.266 21.9231H128.065C126.635 21.9231 125.498 20.8736 125.423 19.4825V19.1909C125.423 17.6749 126.385 16.4588 127.723 16.3172C129.353 16.1589 131.009 16.0423 132.615 15.9257C133.309 15.8757 133.994 15.8257 134.672 15.7757C134.722 13.8349 134.797 11.8191 134.881 9.68667L134.906 9.06194C134.906 7.42931 136.001 6.3631 137.699 6.3631H137.849C139.539 6.3631 140.592 7.38766 140.592 9.04528V9.14524C140.45 11.3859 140.358 13.5184 140.275 15.5342C141.454 15.7924 142.248 16.6837 142.248 17.8415C142.248 18.6412 141.88 19.4158 141.219 20.0073L140.074 21.0235C140.049 21.6399 140.04 22.2396 140.04 22.7228C141.194 21.5816 142.858 19.9906 144.406 18.7828C149.072 15.1177 152.634 13.56 156.314 13.56C161.331 13.56 164.576 16.617 164.576 21.34C164.576 24.0805 164.233 26.3879 163.555 29.9447C162.493 35.5589 162.017 38.8658 162.017 40.6817C162.017 42.9558 162.903 43.1473 163.89 43.1473C165.044 43.1473 166.407 42.7725 167.912 38.3161C168.322 37.0833 169.275 36.3503 170.463 36.3503C170.839 36.3503 171.24 36.4252 171.575 36.5585C172.704 36.9583 173.406 37.8996 173.406 39.0824C173.406 39.4323 173.339 39.8154 173.214 40.1986C171.249 46.3293 168.28 49.0615 163.589 49.0615C158.898 49.0615 156.13 46.1377 156.13 41.2315C156.13 38.5743 156.623 34.7343 157.601 29.8281C158.337 26.0547 158.638 23.8223 158.638 22.148C158.638 20.0822 157.677 19.0827 155.711 19.0827C153.169 19.0827 150.46 20.4571 146.362 23.8389C144.698 25.2383 142.323 27.5873 139.982 30.1696C139.94 32.0021 139.94 33.768 139.94 35.6422C139.94 38.6909 139.982 41.6813 140.024 44.8383C140.049 46.4543 140.074 48.0786 140.091 49.7279C140.091 51.3105 138.945 52.3684 137.247 52.3684H137.147V52.3601Z" fill="white"/>
<path d="M139.254 20.6403C139.204 21.5399 139.204 22.4395 139.204 23.0393C139.154 23.8389 139.104 24.4387 138.953 25.2883C139.405 24.6886 140.007 23.9389 140.559 23.3891C141.913 22.0397 143.519 20.5404 144.924 19.4408C149.189 16.0923 152.651 14.393 156.314 14.393C160.98 14.393 163.739 17.2418 163.739 21.34C163.739 23.9389 163.438 26.088 162.736 29.7864C161.682 35.334 161.18 38.7326 161.18 40.6817C161.18 43.1307 162.184 43.9803 163.89 43.9803C165.847 43.9803 167.302 42.7309 168.707 38.5826C169.008 37.683 169.66 37.1832 170.463 37.1832C170.714 37.1832 171.015 37.2332 171.266 37.3332C172.118 37.633 172.57 38.2828 172.57 39.0824C172.57 39.3323 172.52 39.6322 172.42 39.9321C170.463 46.0294 167.603 48.2285 163.589 48.2285C159.575 48.2285 156.966 46.0294 156.966 41.2315C156.966 38.8825 157.367 35.284 158.421 29.9863C159.123 26.3879 159.475 23.9889 159.475 22.1397C159.475 19.6407 158.17 18.2413 155.711 18.2413C152.801 18.2413 149.891 19.8407 145.827 23.1892C143.92 24.7885 141.362 27.3874 139.154 29.8364C139.104 31.7855 139.104 33.6847 139.104 35.6339C139.104 40.2819 139.204 44.9299 139.254 49.7279C139.254 50.8274 138.502 51.5271 137.247 51.5271H137.147C136.093 51.5271 135.14 50.8774 135.14 49.7778C135.14 46.9291 135.09 43.8304 135.09 41.1815V38.2328C135.09 36.9833 135.14 35.484 135.341 33.4848C134.789 34.5843 134.287 35.2341 133.785 35.9338C132.33 37.9829 130.674 39.982 129.37 41.7313C128.868 42.381 128.316 42.6309 127.714 42.6309C127.263 42.6309 126.761 42.431 126.359 42.0811C125.908 41.6813 125.657 41.1315 125.657 40.5818C125.657 40.082 125.858 39.5322 126.209 39.0824C128.818 35.7838 131.929 31.8855 135.19 28.387C135.24 25.7381 135.29 23.2392 135.391 20.4404C133.233 20.6403 130.725 20.8402 128.266 21.0901H128.065C127.062 21.0901 126.309 20.3904 126.259 19.4408V19.1909C126.259 18.0914 126.911 17.2418 127.814 17.1418C130.373 16.8919 133.033 16.742 135.491 16.5421C135.541 14.1931 135.642 11.6941 135.742 9.09526C135.742 7.8458 136.495 7.19608 137.699 7.19608H137.849C139.003 7.19608 139.756 7.79582 139.756 9.04528V9.14524C139.605 11.5442 139.505 13.8432 139.405 16.2922H139.555C140.709 16.2922 141.412 16.9919 141.412 17.8415C141.412 18.3913 141.161 18.941 140.659 19.3909L139.254 20.6403Z" fill="white"/>
<path d="M199.815 51.5104C193.175 51.5104 188.542 47.8787 188.542 42.6809C188.542 37.4831 193.2 33.6014 199.865 33.6014C201.613 33.6014 203.344 33.793 205.133 34.1929C204.866 31.2774 204.698 27.9039 204.698 25.2883C204.698 23.5141 205.769 22.4062 207.491 22.4062C209.214 22.4062 210.385 23.5391 210.385 25.2883C210.385 29.2533 210.552 32.6019 210.928 36.0837C214.457 37.8163 217.811 40.132 220.169 42.4893C220.813 43.1307 221.164 43.922 221.164 44.73C221.164 45.4297 220.896 46.1211 220.403 46.6792C219.742 47.3372 219.04 47.6621 218.321 47.6621C217.602 47.6621 216.874 47.3456 216.264 46.8041C214.599 45.1465 212.81 43.6471 211.229 42.5643V42.6892C210.962 48.5617 207.115 51.5188 199.806 51.5188L199.815 51.5104ZM199.965 38.8159C196.453 38.8159 194.178 40.3152 194.178 42.6309C194.178 45.7546 198.192 46.0961 199.915 46.0961C205.058 46.0961 205.652 43.6305 205.652 41.7813C205.652 41.1399 205.652 40.5651 205.602 39.8488C203.912 39.1657 201.981 38.8075 199.965 38.8075V38.8159ZM179.745 44.0636C179.151 44.0636 178.549 43.8804 177.914 43.4972C177.044 42.9641 176.559 42.1061 176.559 41.1315C176.559 40.5068 176.768 39.8071 177.128 39.2074C180.615 33.3182 183.659 26.6711 185.565 20.7819C184.068 20.8402 182.53 20.8736 180.949 20.8736H179.043C177.47 20.8736 176.45 19.7824 176.45 18.0914C176.45 16.4005 177.529 15.3093 179.143 15.3093H181.3C183.266 15.3093 185.306 15.2676 187.229 15.1843C187.848 12.9603 188.392 10.6696 188.852 8.37057C189.002 6.93785 190.056 6.01324 191.536 6.01324C191.703 6.01324 191.937 6.01324 192.238 6.08821C193.735 6.35477 194.63 7.29603 194.63 8.64545C194.63 8.86203 194.63 9.12858 194.563 9.46177C194.145 11.3526 193.744 13.0852 193.334 14.7179C195.391 14.5429 197.264 14.368 198.978 14.1264C199.221 14.0598 199.447 14.0598 199.614 14.0598C201.002 14.0598 201.956 14.9094 202.24 16.3838C202.248 16.4338 202.257 16.4838 202.257 16.5421V16.8419C202.257 18.2663 201.295 19.3076 199.748 19.5658C197.222 19.9489 194.304 20.2072 191.661 20.4237C189.136 28.5286 185.908 36.1004 182.321 42.3477C181.668 43.4556 180.748 44.0636 179.737 44.0636H179.745ZM217.878 24.422C217.301 24.422 216.749 24.2471 216.18 23.8973C213.303 21.9064 209.632 19.9823 205.827 18.4662C204.916 18.1164 204.347 17.2501 204.347 16.1922C204.347 15.6341 204.489 15.101 204.757 14.6262C205.376 13.6683 206.287 13.1602 207.341 13.1602C207.734 13.1602 208.127 13.2268 208.512 13.3518C212.133 14.7262 216.272 16.8669 219.349 18.9494C220.202 19.4908 220.721 20.4487 220.721 21.49C220.721 22.0397 220.579 22.5812 220.311 23.056C219.726 23.9306 218.831 24.422 217.878 24.422Z" fill="white"/>
<path d="M181.601 41.9312C181.1 42.7808 180.447 43.2306 179.745 43.2306C179.293 43.2306 178.842 43.0807 178.34 42.7808C177.688 42.381 177.387 41.7813 177.387 41.1315C177.387 40.6817 177.537 40.132 177.838 39.6322C181.3 33.7847 184.662 26.6378 186.719 19.8906C184.863 19.9906 182.906 20.0406 180.949 20.0406H179.042C177.888 20.0406 177.286 19.2909 177.286 18.0914C177.286 16.8919 177.989 16.1422 179.143 16.1422H181.3C183.458 16.1422 185.716 16.0923 187.873 15.9923C188.576 13.5434 189.178 11.0444 189.679 8.49552C189.78 7.39599 190.532 6.84622 191.536 6.84622C191.686 6.84622 191.837 6.84622 192.038 6.8962C193.141 7.09611 193.794 7.64588 193.794 8.64545C193.794 8.84537 193.794 9.04528 193.744 9.29517C193.292 11.3443 192.79 13.4934 192.238 15.6425C194.697 15.4425 197.055 15.2426 199.162 14.9428C199.313 14.8928 199.463 14.8928 199.614 14.8928C200.617 14.8928 201.22 15.4925 201.42 16.5421V16.8419C201.42 17.7915 200.818 18.5412 199.614 18.7411C197.005 19.141 194.045 19.3909 191.034 19.6407C188.626 27.4874 185.364 35.384 181.601 41.9312ZM219.583 43.0807C220.085 43.5805 220.336 44.1802 220.336 44.73C220.336 45.2298 220.135 45.7296 219.784 46.1294C219.333 46.5792 218.831 46.8291 218.329 46.8291C217.827 46.8291 217.275 46.5792 216.824 46.1794C214.867 44.2302 212.408 42.1811 210.301 40.9816C210.401 41.5814 210.401 42.2311 210.401 42.6809C210.151 48.1286 206.638 50.6775 199.815 50.6775C193.543 50.6775 189.378 47.3789 189.378 42.6809C189.378 37.9829 193.643 34.4344 199.865 34.4344C201.972 34.4344 204.029 34.7343 206.086 35.284C205.785 32.4852 205.535 28.5369 205.535 25.2883C205.535 23.8389 206.388 23.2392 207.491 23.2392C208.696 23.2392 209.549 23.8889 209.549 25.2883C209.549 29.5865 209.749 33.085 210.151 36.6335C213.512 38.2328 217.075 40.5818 219.583 43.0807ZM199.965 37.9829C195.901 37.9829 193.342 39.8821 193.342 42.6309C193.342 45.3797 195.801 46.9291 199.915 46.9291C204.029 46.9291 206.488 45.3298 206.488 41.7813C206.488 40.9816 206.488 40.2819 206.388 39.2823C204.381 38.3827 202.123 37.9829 199.965 37.9829ZM218.881 19.6407C219.583 20.0906 219.884 20.8402 219.884 21.49C219.884 21.8898 219.784 22.2896 219.583 22.6395C219.182 23.2392 218.53 23.5891 217.877 23.5891C217.426 23.5891 217.024 23.4391 216.623 23.1892C213.663 21.1401 209.9 19.1909 206.137 17.6916C205.484 17.4417 205.183 16.8419 205.183 16.1922C205.183 15.7924 205.284 15.3926 205.484 15.0427C205.936 14.343 206.588 13.9932 207.341 13.9932C207.642 13.9932 207.943 14.0431 208.244 14.1431C212.057 15.5925 216.071 17.7416 218.881 19.6407Z" fill="white"/>
<path d="M248.383 50.9607C244.102 50.9607 239.662 50.3859 236.785 49.4697C235.422 49.0365 234.602 47.9786 234.602 46.6292C234.602 46.4043 234.602 46.1294 234.678 45.8295C235.079 44.4801 236.074 43.6971 237.345 43.6971C237.646 43.6971 237.889 43.7471 238.114 43.7971L238.215 43.8137C240.916 44.5884 244.955 45.0965 248.333 45.0965C257.105 45.0965 262.549 41.9895 262.549 36.9833C262.549 32.5769 257.933 30.5694 253.652 30.5694C247.213 30.5694 241.576 32.8518 237.345 37.1666C236.551 37.9579 235.556 38.7659 234.192 38.7659C233.858 38.7659 233.549 38.7076 233.273 38.6493C231.684 38.3744 230.797 37.2332 230.797 35.434C230.797 35.2591 230.797 34.9759 230.856 34.701C231.491 28.7785 232.712 22.956 233.624 19.1076C233.9 17.6749 234.945 16.767 236.342 16.767C236.509 16.767 236.726 16.767 236.977 16.8336C238.432 17.0669 239.335 18.0248 239.335 19.3492C239.335 19.5741 239.335 19.849 239.26 20.1489C238.282 24.2554 237.504 27.9955 237.32 29.4449C237.261 29.878 237.195 30.2862 237.128 30.6777C241.852 26.9959 247.589 25.0551 253.852 25.0551C262.633 25.0551 268.537 29.953 268.537 37.2332C268.537 45.8295 261.002 50.9607 248.383 50.9607ZM259.372 16.8253C253.342 16.4338 245.03 15.0677 239.085 13.5017C237.847 13.1769 237.011 12.0857 237.011 10.7945C237.011 10.4947 237.061 10.2614 237.103 10.0282L237.119 9.92824C237.471 8.57882 238.541 7.71252 239.795 7.71252C240.021 7.71252 240.247 7.71252 240.548 7.78749C246.009 9.30351 254.187 10.453 259.882 10.9112C261.437 11.0528 262.658 12.3189 262.658 13.7933V14.0431C262.658 14.0431 262.658 14.1098 262.658 14.1431C262.457 15.7424 261.22 16.8253 259.572 16.8253H259.372Z" fill="white"/>
<path d="M236.041 32.6852C240.406 28.6869 246.377 25.8881 253.852 25.8881C262.432 25.8881 267.701 30.686 267.701 37.2332C267.701 45.1798 260.576 50.1277 248.383 50.1277C244.219 50.1277 239.854 49.5779 237.044 48.6783C236.091 48.3784 235.438 47.6787 235.438 46.6292C235.438 46.4293 235.438 46.2294 235.489 46.0295C235.79 45.0299 236.492 44.5301 237.345 44.5301C237.596 44.5301 237.797 44.5801 238.048 44.63C240.657 45.3797 244.771 45.9295 248.333 45.9295C257.565 45.9295 263.386 42.5309 263.386 36.9833C263.386 33.185 260.024 29.7364 253.652 29.7364C246.728 29.7364 241.008 32.2354 236.743 36.5835C235.84 37.4831 235.087 37.9329 234.184 37.9329C233.933 37.9329 233.682 37.8829 233.432 37.833C232.278 37.633 231.625 36.8834 231.625 35.434C231.625 35.2841 231.625 35.0342 231.675 34.8342C232.227 29.6365 233.281 24.1388 234.435 19.2909C234.636 18.2413 235.338 17.5916 236.342 17.5916C236.492 17.5916 236.643 17.5916 236.793 17.6416C237.847 17.7915 238.499 18.3913 238.499 19.3409C238.499 19.5408 238.499 19.7407 238.449 19.9406C237.546 23.739 236.693 27.7373 236.492 29.3366C236.342 30.4861 236.141 31.4357 235.79 32.5352L236.041 32.6852ZM259.823 11.7441C260.927 11.8441 261.83 12.7437 261.83 13.7933V14.0431C261.68 15.2426 260.777 15.9923 259.572 15.9923H259.372C253.2 15.5925 244.972 14.1931 239.302 12.6937C238.349 12.4438 237.847 11.6442 237.847 10.7945C237.847 10.5446 237.897 10.3447 237.947 10.0948C238.198 9.14524 238.951 8.5455 239.804 8.5455C240.004 8.5455 240.155 8.5455 240.356 8.59548C245.574 10.0449 253.702 11.2443 259.823 11.7441Z" fill="white"/>
<path d="M283.104 53.5096C281.44 53.5096 280.361 52.61 280.361 51.2272V31.1858C280.361 30.3528 280.395 29.4782 280.453 28.5703C280.127 29.0784 279.793 29.5615 279.442 30.003C278.923 30.7776 278.062 31.2691 277.175 31.2691C276.531 31.2691 275.888 31.0192 275.369 30.5611C274.742 30.0779 274.382 29.3866 274.382 28.6369C274.382 27.9372 274.7 27.3208 275.001 26.8043C275.018 26.771 275.043 26.746 275.068 26.7127C279.04 21.7565 282.686 14.0015 284.133 7.41265C284.392 6.17984 285.396 5.4135 286.759 5.4135C287.01 5.4135 287.244 5.46348 287.461 5.50513L287.57 5.53012C288.908 5.89663 289.644 6.77125 289.644 7.94575C289.644 8.17066 289.644 8.39556 289.568 8.69543C288.59 12.119 287.369 15.4675 285.83 18.966V51.2272C285.83 52.3351 285.111 53.5096 283.088 53.5096H283.104ZM289.175 53.2597C288.097 53.2597 287.152 52.6349 286.658 51.5771C286.642 51.5521 286.633 51.5188 286.625 51.4854C286.499 51.1106 286.433 50.7191 286.433 50.3693C286.433 49.2697 287.102 48.3618 288.23 47.937C292.077 46.5709 294.979 44.9549 297.078 43.0057C295.798 41.8562 294.536 40.5235 293.248 38.9491C292.905 38.5327 292.704 38.0079 292.704 37.4748C292.704 36.6418 293.156 35.8755 293.942 35.3757C294.118 35.2674 294.285 35.1758 294.46 35.1091C292.311 35.0675 289.644 34.4511 289.644 30.4278V23.4808C289.644 19.2826 292.554 18.7994 294.745 18.7994H302.513C302.53 17.8915 302.539 16.9752 302.539 16.0673H290.63C289.259 16.0673 288.339 15.051 288.339 13.535C288.339 12.019 289.242 10.9528 290.63 10.9528H302.589V7.68753C302.589 6.27147 303.609 5.35519 305.181 5.35519C306.753 5.35519 307.874 6.27147 307.874 7.68753V10.9528H321.287C322.625 10.9528 323.528 11.994 323.528 13.535C323.528 15.076 322.625 16.0673 321.287 16.0673H307.849C307.84 16.5171 307.807 18.3413 307.798 18.7994H315.517C317.775 18.7994 320.769 19.2826 320.769 23.4808V30.4278C320.769 34.626 317.775 35.1091 315.517 35.1091H306.736C306.26 37.6997 305.474 39.9987 304.336 42.0978C308.978 45.0132 314.547 46.7625 321.32 47.4372C322.717 47.5705 323.628 48.5784 323.628 50.0111C323.628 50.186 323.628 50.4442 323.562 50.7024C323.277 52.2018 322.249 53.0931 320.794 53.0931H320.543C320.543 53.0931 320.476 53.0931 320.442 53.0931C313.293 52.2101 306.695 49.8528 301.301 46.2627C298.633 49.0198 295.129 51.1856 290.346 53.0431C289.895 53.193 289.56 53.2514 289.192 53.2514L289.175 53.2597ZM296.534 35.1175C296.886 35.284 297.203 35.5339 297.463 35.8755C298.29 36.925 299.219 37.9412 300.239 38.8992C300.59 38.2078 300.841 37.5914 301.008 37C301.234 36.3752 301.376 35.7505 301.485 35.1175H296.526H296.534ZM314.815 30.053C315.316 30.053 315.425 29.978 315.433 29.9697C315.433 29.9697 315.484 29.878 315.484 29.5865V24.3387C315.484 24.0389 315.425 23.9472 315.425 23.9472C315.425 23.9472 315.316 23.8723 314.815 23.8723H307.706C307.656 25.7881 307.548 27.8206 307.389 30.053H314.815ZM294.987 29.9946C294.987 29.9946 295.121 30.053 295.548 30.053H302.112C302.263 28.2454 302.363 26.2879 302.421 23.8723H295.548C295.113 23.8723 294.987 23.9306 294.971 23.9389C294.971 23.9389 294.929 24.0389 294.929 24.3387V29.5865C294.929 29.903 294.987 29.9946 294.987 29.9946Z" fill="white"/>
<path d="M285.011 51.2272C285.011 52.1768 284.308 52.6766 283.104 52.6766C281.9 52.6766 281.198 52.1768 281.198 51.2272V31.1858C281.198 29.0867 281.398 26.7877 281.749 24.4887C280.897 26.1879 279.893 28.0871 278.789 29.4865C278.388 30.0863 277.786 30.4361 277.184 30.4361C276.782 30.4361 276.331 30.2862 275.929 29.9363C275.478 29.5865 275.227 29.1367 275.227 28.6369C275.227 28.1871 275.428 27.7373 275.729 27.2375C279.893 22.0397 283.506 14.1931 284.961 7.5959C285.161 6.64631 285.914 6.24648 286.767 6.24648C286.968 6.24648 287.168 6.29646 287.419 6.34644C288.322 6.59633 288.824 7.1461 288.824 7.94575C288.824 8.14567 288.824 8.2956 288.774 8.49552C287.871 11.6442 286.667 15.0427 285.011 18.7911V51.2272ZM290.63 15.2426C289.677 15.2426 289.175 14.5429 289.175 13.5434C289.175 12.4938 289.677 11.7941 290.63 11.7941H303.425V7.69586C303.425 6.74627 304.077 6.1965 305.181 6.1965C306.285 6.1965 307.037 6.74627 307.037 7.69586V11.7941H321.287C322.19 11.7941 322.692 12.4938 322.692 13.5434C322.692 14.5929 322.19 15.2426 321.287 15.2426H307.037C306.987 16.692 306.987 18.1914 306.937 19.6407H315.517C318.527 19.6407 319.932 20.6403 319.932 23.4891V30.4361C319.932 33.2849 318.527 34.2845 315.517 34.2845H306.034C305.582 37.1333 304.729 39.8321 303.224 42.381C308.191 45.6796 314.212 47.5788 321.237 48.2785C322.29 48.3784 322.792 49.1281 322.792 50.0277C322.792 50.1777 322.792 50.3776 322.742 50.5275C322.541 51.677 321.839 52.2768 320.785 52.2768H320.534C313.259 51.3772 306.636 48.9782 301.167 45.1798C298.458 48.1785 294.795 50.4276 290.028 52.2768C289.727 52.3767 289.476 52.4267 289.175 52.4267C288.423 52.4267 287.77 51.9769 287.419 51.2272C287.319 50.9274 287.269 50.6275 287.269 50.3776C287.269 49.6279 287.72 49.0282 288.523 48.7283C292.888 47.179 296.099 45.2798 298.307 42.9808C296.701 41.6313 295.246 40.082 293.892 38.4327C293.641 38.1328 293.54 37.783 293.54 37.4831C293.54 36.9333 293.842 36.4336 294.393 36.0837C294.795 35.8338 295.146 35.7339 295.547 35.7339C295.999 35.7339 296.451 35.9338 296.802 36.3836C297.906 37.783 299.16 39.0824 300.465 40.2319C301.016 39.2823 301.518 38.2828 301.819 37.2332C302.17 36.2836 302.321 35.2841 302.471 34.2845H294.745C291.835 34.2845 290.48 33.2849 290.48 30.4361V23.4891C290.48 20.6403 291.835 19.6407 294.745 19.6407H303.324C303.375 18.1914 303.375 16.692 303.375 15.2426H290.63ZM302.873 30.8859C303.124 28.287 303.224 25.6382 303.274 23.0393H295.547C294.544 23.0393 294.092 23.2892 294.092 24.3387V29.5865C294.092 30.636 294.544 30.8859 295.547 30.8859H302.873ZM314.814 30.8859C315.818 30.8859 316.32 30.636 316.32 29.5865V24.3387C316.32 23.2892 315.818 23.0393 314.814 23.0393H306.887C306.837 25.6382 306.686 28.287 306.485 30.8859H314.814Z" fill="white"/>
<path d="M361.276 50.6108C354.72 50.6108 352.487 48.2785 352.111 41.0233C351.91 37.3165 351.024 37.3165 350.087 37.3165C347.628 37.3165 344.242 39.0991 341.022 42.0895C339.835 43.1973 338.564 44.4135 337.276 45.638C336.013 46.8458 334.742 48.0619 333.546 49.1781C332.802 49.8611 331.999 50.2027 331.171 50.2027C330.343 50.2027 329.574 49.8695 329.039 49.2697C328.504 48.7366 328.177 47.9786 328.177 47.2206C328.177 46.2793 328.562 45.4297 329.298 44.755C333.304 41.0316 338.58 36.192 343.397 31.8105L345.772 29.6948C348.18 27.5457 350.497 25.4883 352.487 23.7723C347.026 24.4887 339.718 25.0718 334.198 25.2134C332.534 25.1467 331.405 24.0056 331.338 22.3646V22.2313C331.338 20.6153 332.451 19.3492 333.881 19.3492C340.052 19.2493 350.246 18.6079 357.58 17.8582C357.605 17.8582 357.638 17.8582 357.663 17.8582H358.165C359.143 17.8582 360.54 18.0248 361.393 19.4658C361.702 20.0156 361.861 20.607 361.861 21.1901C361.861 22.1813 361.418 23.0893 360.54 23.8973C357.622 26.6044 354.452 29.3116 351.182 32.0688C350.982 32.2354 350.789 32.3936 350.597 32.5436C351.049 32.4769 351.5 32.4436 351.952 32.4436C355.698 32.4436 357.438 34.6093 357.755 39.6738C358.056 44.7134 358.851 44.9383 361.585 44.9383C363.743 44.9383 366.285 44.2885 368.752 43.1224C369.287 42.8975 369.739 42.7892 370.165 42.7892C371.277 42.7892 372.222 43.4222 372.691 44.4884C372.875 44.9216 372.958 45.3298 372.958 45.7712C372.958 47.0207 372.306 48.0119 371.127 48.57C368.593 49.7862 364.629 50.6025 361.284 50.6025L361.276 50.6108ZM359.068 15.276C352.93 14.9761 344.066 13.7849 338.413 12.5105C337.192 12.2273 336.406 11.236 336.406 9.99489C336.406 9.6617 336.465 9.3285 336.598 8.92868C337.025 7.66255 338.012 6.91287 339.249 6.91287C339.433 6.91287 339.701 6.91287 340.002 6.98784C345.287 8.179 353.449 9.26187 359.411 9.56174C361.142 9.68668 362.212 10.7529 362.212 12.3439V12.5938C362.07 14.3014 360.958 15.276 359.219 15.276H359.068Z" fill="white"/>
<path d="M346.775 34.8343C348.732 33.6348 350.538 33.2849 351.943 33.2849C355.104 33.2849 356.61 34.9342 356.911 39.7322C357.212 44.83 358.115 45.7796 361.577 45.7796C364.186 45.7796 366.895 44.9299 369.103 43.8804C369.454 43.7304 369.805 43.6305 370.157 43.6305C370.909 43.6305 371.562 44.0303 371.913 44.83C372.063 45.1798 372.113 45.4797 372.113 45.7796C372.113 46.6292 371.712 47.3789 370.759 47.8287C368.25 49.0282 364.437 49.7779 361.276 49.7779C355.104 49.7779 353.298 47.7287 352.947 40.9816C352.746 37.2332 351.793 36.4835 350.087 36.4835C347.679 36.4835 344.166 38.0329 340.453 41.4814C338.095 43.6805 335.386 46.3293 332.977 48.5784C332.375 49.1281 331.773 49.378 331.171 49.378C330.619 49.378 330.067 49.1781 329.666 48.7283C329.265 48.3285 329.014 47.7787 329.014 47.2289C329.014 46.5792 329.265 45.9295 329.867 45.3797C333.529 41.9812 338.748 37.1832 343.966 32.4353C348.13 28.7369 352.345 24.9385 355.255 22.5395C349.435 23.4891 340.253 24.2388 334.182 24.3887C332.977 24.3387 332.225 23.4891 332.175 22.3396V22.2396C332.175 21.1401 332.877 20.1905 333.881 20.1905C340.253 20.0906 350.388 19.4408 357.663 18.6912H358.165C359.419 18.6912 360.172 19.041 360.674 19.8907C360.925 20.3405 361.025 20.7903 361.025 21.1901C361.025 21.9398 360.674 22.6395 359.971 23.2892C356.961 26.088 353.599 28.9368 350.639 31.4357C349.184 32.6352 347.879 33.5848 346.525 34.4844L346.775 34.8343ZM359.369 10.3947C360.774 10.4947 361.376 11.2943 361.376 12.3439V12.5938C361.276 13.7933 360.523 14.443 359.219 14.443H359.068C352.947 14.1431 344.116 12.9436 338.597 11.6942C337.744 11.4942 337.242 10.8445 337.242 9.99489C337.242 9.74499 337.292 9.4951 337.393 9.19523C337.694 8.29561 338.346 7.74585 339.249 7.74585C339.4 7.74585 339.6 7.74585 339.801 7.79583C345.12 8.99531 353.398 10.0948 359.369 10.3947Z" fill="white"/>
<path d="M399.158 51.0107C391.339 51.0107 386.079 47.5621 386.079 42.431C386.079 37.9662 389.783 34.8509 395.094 34.8509C401.081 34.8509 405.379 38.516 406.508 44.4885C411.166 43.1474 413.917 40.2153 413.917 36.5335C413.917 31.9938 410.012 29.17 403.715 29.17C397.418 29.17 391.406 31.2441 383.185 36.3419C382.6 36.6668 382.015 36.8167 381.388 36.8167C380.334 36.8167 379.389 36.317 378.87 35.4673C378.561 35.0425 378.394 34.5261 378.394 33.9346C378.394 32.8351 379.004 31.8272 379.991 31.3024C387.342 26.821 397.084 19.8074 403.648 14.318C398.597 14.6512 392.183 14.8928 386.564 14.9344C385 14.9344 383.863 13.7683 383.863 12.1523C383.863 10.428 384.908 9.2702 386.455 9.2702C393.622 9.2702 402.043 9.00364 408.423 8.5705H408.933C410.79 8.5705 411.718 9.47011 412.161 10.2281C412.521 10.8612 412.68 11.4526 412.68 12.1023C412.68 13.0436 412.261 13.9599 411.484 14.7429C407.645 18.2997 403.155 21.8481 398.756 24.8135C400.713 24.3471 402.62 24.1138 404.518 24.1138C413.717 24.1138 419.905 29.0867 419.905 36.4919C419.905 45.4547 411.952 51.019 399.149 51.019L399.158 51.0107ZM394.893 39.9154C392.869 39.9154 391.615 40.8234 391.615 42.2811C391.615 43.922 394.098 45.6463 398.263 45.6963C399.158 45.6963 400.077 45.6963 400.981 45.6546C400.404 42.1395 398.079 39.9154 394.893 39.9154Z" fill="white"/>
<path d="M393.387 27.5374C397.301 25.7881 400.964 24.9385 404.526 24.9385C413.558 24.9385 419.077 29.6865 419.077 36.4835C419.077 44.8799 411.4 50.1777 399.158 50.1777C391.732 50.1777 386.915 47.079 386.915 42.431C386.915 38.5327 390.176 35.6839 395.093 35.6839C400.512 35.6839 404.978 38.9325 405.831 45.5297C410.949 44.3302 414.762 41.1815 414.762 36.5335C414.762 31.8855 410.848 28.337 403.723 28.337C397.05 28.337 390.979 30.5361 382.75 35.6339C382.299 35.8838 381.847 35.9838 381.396 35.9838C380.693 35.9838 379.991 35.6839 379.59 35.0342C379.339 34.6843 379.238 34.3345 379.238 33.9346C379.238 33.185 379.64 32.4353 380.392 32.0354C388.671 26.9876 399.81 18.8411 406.132 13.2935C400.663 13.7433 392.986 14.0432 386.564 14.0931C385.51 14.0931 384.707 13.3435 384.707 12.144C384.707 10.9445 385.309 10.0948 386.463 10.0948C393.237 10.0948 401.817 9.84495 408.49 9.39514H408.942C410.096 9.39514 410.949 9.79497 411.45 10.6446C411.701 11.0944 411.852 11.5442 411.852 12.094C411.852 12.7937 411.551 13.4934 410.898 14.1431C406.583 18.1414 401.867 21.7399 397.803 24.4387C396.398 25.3883 394.692 26.5378 393.287 27.3375L393.387 27.5374ZM394.893 39.0824C392.284 39.0824 390.778 40.4319 390.778 42.2811C390.778 44.5801 393.789 46.4793 398.254 46.5292C399.459 46.5292 400.713 46.5292 401.917 46.4293C401.516 41.5314 398.355 39.0824 394.893 39.0824Z" fill="white"/>
<path d="M449.633 49.9111C447.141 49.9111 445.335 48.1119 445.335 45.6296C445.335 43.1474 447.141 41.3481 449.633 41.3481C452.125 41.3481 453.931 43.189 453.931 45.6296C453.931 48.0702 452.083 49.9111 449.633 49.9111ZM449.633 39.9654C447.961 39.9654 446.79 38.9242 446.79 37.4331L446.087 11.8691C446.087 10.0032 447.567 8.7121 449.683 8.7121C450.787 8.7121 451.749 9.07028 452.384 9.72833C452.936 10.2948 453.212 11.0361 453.179 11.8691L452.476 37.4498C452.409 38.9325 451.247 39.9571 449.633 39.9571V39.9654Z" fill="white"/>
<path d="M453.095 45.6296C453.095 47.7287 451.49 49.0781 449.633 49.0781C447.676 49.0781 446.171 47.7287 446.171 45.6296C446.171 43.5305 447.676 42.1811 449.633 42.1811C451.49 42.1811 453.095 43.5305 453.095 45.6296ZM446.924 11.8441C446.924 10.4447 448.027 9.54507 449.683 9.54507C451.339 9.54507 452.393 10.4447 452.342 11.8441L451.64 37.4331C451.59 38.5826 450.637 39.1324 449.633 39.1324C448.579 39.1324 447.626 38.5826 447.626 37.4331L446.924 11.8441Z" fill="white"/>
</g>
<defs>
<clipPath id="clip0_18_19897">
<rect width="374.267" height="48.1461" fill="white" transform="translate(79.6638 5.36353)"/>
</clipPath>
</defs>
</svg>
