<svg width="511" height="158" viewBox="0 0 511 158" fill="none" xmlns="http://www.w3.org/2000/svg">
<g clip-path="url(#clip0_18_19815)">
<path d="M499 0H12C5.37258 0 0 5.37258 0 12V146C0 152.627 5.37258 158 12 158H499C505.627 158 511 152.627 511 146V12C511 5.37258 505.627 0 499 0Z" fill="white"/>
<path d="M236.16 132.8L237.015 132.215H235.665V131.03H241.5V136.295C241.5 136.925 241.395 137.285 240.975 137.495C240.525 137.69 239.88 137.705 238.95 137.705C238.905 137.345 238.755 136.835 238.59 136.49C239.22 136.52 239.805 136.52 239.985 136.505C240.165 136.505 240.225 136.46 240.225 136.295V132.215H237.18C237.795 132.725 238.44 133.37 238.785 133.865L237.795 134.615C237.465 134.105 236.775 133.325 236.16 132.8ZM239.505 134.33L239.73 135.335C238.47 135.935 237.135 136.565 236.055 137.03L235.425 135.875C236.445 135.53 238.005 134.915 239.505 134.33ZM233.505 136.295V132.215H229.095V131.03H234.78V136.31C234.78 136.925 234.675 137.285 234.255 137.495C233.82 137.69 233.175 137.705 232.29 137.705C232.245 137.345 232.095 136.835 231.915 136.49C232.515 136.52 233.085 136.52 233.265 136.505C233.445 136.505 233.505 136.46 233.505 136.295ZM229.725 132.845L230.67 132.23C231.27 132.77 231.93 133.49 232.23 134L231.24 134.705C230.955 134.18 230.295 133.385 229.725 132.845ZM232.815 134.555L233.025 135.56C231.765 136.145 230.415 136.73 229.335 137.21L228.765 136.04C229.785 135.725 231.315 135.14 232.815 134.555ZM238.125 142.625H242.28V143.87H228.765V142.625H232.695C232.56 141.875 232.17 140.825 231.78 140.015L233.07 139.67C233.55 140.51 233.955 141.635 234.09 142.37L233.235 142.625H237.765L236.82 142.4C237.255 141.65 237.765 140.48 238.05 139.655H229.98V138.44H234.81V137.12H236.175V138.44H241.125V139.655H238.26L239.535 139.94C239.07 140.9 238.575 141.92 238.125 142.625ZM247.32 138.29H253.905V136.07H247.455C247.455 136.76 247.41 137.51 247.32 138.29ZM253.905 132.515H247.455V134.735H253.905V132.515ZM255.375 131.165V142.295C255.375 143.195 255.135 143.63 254.535 143.855C253.905 144.11 252.885 144.14 251.325 144.14C251.235 143.735 250.965 143.06 250.725 142.67C251.895 142.73 253.095 142.715 253.455 142.7C253.785 142.7 253.905 142.58 253.905 142.265V139.64H247.095C246.705 141.32 245.955 142.985 244.53 144.2C244.32 143.9 243.78 143.39 243.465 143.18C245.805 141.17 246.03 138.23 246.03 135.875V131.165H255.375Z" fill="#333333"/>
<path d="M57.775 130.895L59.29 131.39C58.66 132.68 57.85 134.12 57.205 135.065L55.975 134.615C56.59 133.625 57.355 132.065 57.775 130.895ZM50.95 134.405L49.615 134.99C49.33 134.03 48.55 132.59 47.785 131.54L49.045 131.03C49.855 132.08 50.635 133.46 50.95 134.405ZM54.25 130.415V135.62H59.08V144.185H57.595V143.555H47.74V142.16H57.595V140.18H48.55V138.845H57.595V137.015H48.04V135.62H52.735V130.415H54.25ZM65.32 138.29H71.905V136.07H65.455C65.455 136.76 65.41 137.51 65.32 138.29ZM71.905 132.515H65.455V134.735H71.905V132.515ZM73.375 131.165V142.295C73.375 143.195 73.135 143.63 72.535 143.855C71.905 144.11 70.885 144.14 69.325 144.14C69.235 143.735 68.965 143.06 68.725 142.67C69.895 142.73 71.095 142.715 71.455 142.7C71.785 142.7 71.905 142.58 71.905 142.265V139.64H65.095C64.705 141.32 63.955 142.985 62.53 144.2C62.32 143.9 61.78 143.39 61.465 143.18C63.805 141.17 64.03 138.23 64.03 135.875V131.165H73.375Z" fill="black"/>
<path d="M408.16 131.8L409.015 131.215H407.665V130.03H413.5V135.295C413.5 135.925 413.395 136.285 412.975 136.495C412.525 136.69 411.88 136.705 410.95 136.705C410.905 136.345 410.755 135.835 410.59 135.49C411.22 135.52 411.805 135.52 411.985 135.505C412.165 135.505 412.225 135.46 412.225 135.295V131.215H409.18C409.795 131.725 410.44 132.37 410.785 132.865L409.795 133.615C409.465 133.105 408.775 132.325 408.16 131.8ZM411.505 133.33L411.73 134.335C410.47 134.935 409.135 135.565 408.055 136.03L407.425 134.875C408.445 134.53 410.005 133.915 411.505 133.33ZM405.505 135.295V131.215H401.095V130.03H406.78V135.31C406.78 135.925 406.675 136.285 406.255 136.495C405.82 136.69 405.175 136.705 404.29 136.705C404.245 136.345 404.095 135.835 403.915 135.49C404.515 135.52 405.085 135.52 405.265 135.505C405.445 135.505 405.505 135.46 405.505 135.295ZM401.725 131.845L402.67 131.23C403.27 131.77 403.93 132.49 404.23 133L403.24 133.705C402.955 133.18 402.295 132.385 401.725 131.845ZM404.815 133.555L405.025 134.56C403.765 135.145 402.415 135.73 401.335 136.21L400.765 135.04C401.785 134.725 403.315 134.14 404.815 133.555ZM410.125 141.625H414.28V142.87H400.765V141.625H404.695C404.56 140.875 404.17 139.825 403.78 139.015L405.07 138.67C405.55 139.51 405.955 140.635 406.09 141.37L405.235 141.625H409.765L408.82 141.4C409.255 140.65 409.765 139.48 410.05 138.655H401.98V137.44H406.81V136.12H408.175V137.44H413.125V138.655H410.26L411.535 138.94C411.07 139.9 410.575 140.92 410.125 141.625ZM426.715 133L427.78 133.585C427.12 135.475 425.875 137.74 424.615 139.45C425.41 139.975 426.115 140.515 426.595 141.01L425.605 142.345C424.48 141.115 422.005 139.495 419.92 138.52L420.805 137.35C421.6 137.71 422.485 138.16 423.325 138.655C424.255 137.425 425.125 135.835 425.695 134.485H420.97C420.085 136.21 419.005 137.83 417.745 139.045C417.43 138.79 416.8 138.43 416.41 138.235C418.645 136.21 420.28 132.85 421.09 130.105L422.65 130.465C422.365 131.305 422.035 132.19 421.645 133.06H426.445L426.715 133ZM434.32 137.29H440.905V135.07H434.455C434.455 135.76 434.41 136.51 434.32 137.29ZM440.905 131.515H434.455V133.735H440.905V131.515ZM442.375 130.165V141.295C442.375 142.195 442.135 142.63 441.535 142.855C440.905 143.11 439.885 143.14 438.325 143.14C438.235 142.735 437.965 142.06 437.725 141.67C438.895 141.73 440.095 141.715 440.455 141.7C440.785 141.7 440.905 141.58 440.905 141.265V138.64H434.095C433.705 140.32 432.955 141.985 431.53 143.2C431.32 142.9 430.78 142.39 430.465 142.18C432.805 140.17 433.03 137.23 433.03 134.875V130.165H442.375Z" fill="#333333"/>
<path d="M44.6551 64.7602V66.1102H40.2451V64.7602H44.6551ZM45.1951 66.7702V68.1802H39.4951V66.7702H45.1951ZM44.7001 68.8552V70.2202H40.2001V68.8552H44.7001ZM40.2001 72.2452V70.9102H44.7001V72.2452H40.2001ZM43.2001 74.3902H41.6551V76.1152H43.2001V74.3902ZM44.7151 72.9802V77.5102H41.6551V78.0952H40.1551V72.9802H44.7151ZM47.8501 74.3602H50.9551V73.6552H47.8501V74.3602ZM50.9551 71.8252H47.8501V72.5002H50.9551V71.8252ZM52.6201 70.5652V76.6402C52.6201 77.3902 52.4851 77.7802 51.9751 78.0052C51.4801 78.2452 50.7751 78.2602 49.8151 78.2602C49.7551 77.8252 49.5451 77.2252 49.3501 76.8352C49.9051 76.8502 50.5201 76.8502 50.7151 76.8352C50.9101 76.8352 50.9551 76.7752 50.9551 76.6102V75.5302H47.8501V78.2752H46.2151V70.5652H52.6201ZM50.1451 68.7202H53.4301V70.0102H45.1951V68.7202H48.4501V68.1202H45.9301V66.9202H48.4501V66.3802H45.5551V65.1052H48.4501V64.2952H50.1451V65.1052H53.1601V66.3802H50.1451V66.9202H52.9351V68.1202H50.1451V68.7202ZM59.4001 72.5302L60.0001 74.1652C58.5151 75.1252 56.8501 76.1602 55.5451 76.9102L54.4351 75.2602C55.6801 74.6452 57.6151 73.5652 59.4001 72.5302ZM59.1901 71.3902L57.7351 72.4402C57.3151 71.6902 56.3101 70.5202 55.4851 69.7252L56.8501 68.7652C57.6901 69.5302 58.7251 70.6102 59.1901 71.3902ZM66.1201 68.5702L67.6951 69.6652C66.7951 70.7002 65.6551 71.8252 64.7401 72.6352C65.8051 73.9402 67.1101 75.0052 68.6251 75.6952C68.1901 76.0552 67.6051 76.7752 67.3051 77.2852C65.2051 76.1602 63.5851 74.3302 62.3701 72.0952V76.1152C62.3701 77.1652 62.1751 77.6602 61.5451 77.9452C60.9151 78.2602 59.9551 78.3202 58.6201 78.3052C58.5451 77.7952 58.2751 76.9702 58.0051 76.4302C58.9201 76.4752 59.8651 76.4602 60.1651 76.4602C60.4501 76.4602 60.5551 76.3702 60.5551 76.1002V68.2852H54.9001V66.5602H60.5551V64.3102H62.3701V66.5602H65.4301C64.8151 66.1402 64.0051 65.6752 63.3601 65.3452L64.3951 64.2202C65.2951 64.6402 66.5551 65.3002 67.1851 65.7802L66.4951 66.5602H68.1601V68.2852H62.3701V68.4352C62.7301 69.4402 63.2101 70.4002 63.7651 71.3002C64.6051 70.4902 65.5351 69.4402 66.1201 68.5702ZM73.1701 75.3502H79.8301V71.9902H73.1701V75.3502ZM79.8301 66.9952H73.1701V70.2202H79.8301V66.9952ZM71.3251 65.1952H81.7501V78.0952H79.8301V77.1502H73.1701V78.1252H71.3251V65.1952Z" fill="#333333"/>
<path d="M59 84V122" stroke="#333333" stroke-width="2"/>
<path d="M205.98 64.9699C205.935 65.3149 205.905 65.9449 205.89 66.3049C205.875 66.7699 205.86 67.2199 205.83 67.6549H208.65C209.025 67.6549 209.415 67.6099 209.775 67.5499L211.08 68.1799C211.035 68.4199 210.975 68.8099 210.975 68.9749C210.915 70.5949 210.735 74.7799 210.09 76.3099C209.76 77.0749 209.19 77.4649 208.155 77.4649C207.3 77.4649 206.4 77.4049 205.68 77.3449L205.44 75.3349C206.175 75.4699 206.955 75.5449 207.54 75.5449C208.02 75.5449 208.23 75.3799 208.395 75.0199C208.83 74.0749 209.025 71.0749 209.025 69.4549H205.65C205.095 73.4149 203.67 75.7699 200.985 77.6749L199.245 76.2649C199.86 75.9199 200.61 75.4099 201.21 74.7949C202.605 73.4149 203.355 71.7349 203.685 69.4549H201.705C201.195 69.4549 200.37 69.4549 199.725 69.5149V67.5499C200.355 67.6099 201.135 67.6549 201.705 67.6549H203.85C203.865 67.2349 203.88 66.7999 203.88 66.3499C203.88 66.0199 203.835 65.3299 203.775 64.9699H205.98ZM214.38 70.0549C214.92 70.0999 216.015 70.1449 216.795 70.1449H224.85C225.555 70.1449 226.215 70.0849 226.605 70.0549V72.4099C226.245 72.3949 225.48 72.3349 224.85 72.3349H216.795C215.94 72.3349 214.935 72.3649 214.38 72.4099V70.0549ZM238.23 65.8399C238.65 66.4699 239.25 67.4299 239.595 68.1049L238.29 68.6899C237.855 67.7449 237.525 67.1449 236.97 66.3649L238.23 65.8399ZM240.195 65.0149C240.63 65.6149 241.26 66.5599 241.605 67.2349L240.345 67.8499C239.865 66.9049 239.505 66.3499 238.95 65.5999L240.195 65.0149ZM232.245 75.7849V67.1599C232.245 66.6199 232.2 65.8849 232.095 65.3449H234.435C234.375 65.8699 234.3 66.5299 234.3 67.1599V69.3499C236.295 69.9499 239.19 71.0149 240.57 71.6899L239.73 73.7749C238.17 72.9499 235.92 72.0799 234.3 71.5399V75.7849C234.3 76.2049 234.375 77.2549 234.45 77.8699H232.095C232.185 77.2849 232.245 76.3699 232.245 75.7849ZM253.17 71.5249H248.01C248.61 72.6199 249.45 73.5349 250.53 74.2849C251.625 73.5649 252.525 72.6649 253.17 71.5249ZM254.49 69.7099L255.735 70.4149C254.985 72.4699 253.755 74.0449 252.21 75.2449C253.695 75.9199 255.465 76.3699 257.535 76.5949C257.16 77.0149 256.65 77.8099 256.395 78.3349C254.01 77.9899 252.03 77.3599 250.425 76.3999C248.67 77.3299 246.63 77.9299 244.44 78.3049C244.275 77.8249 243.81 76.9849 243.465 76.5799C245.43 76.3249 247.245 75.8899 248.79 75.2149C247.785 74.3299 246.96 73.2499 246.27 71.9749L247.59 71.5249H244.815V69.7699H249.525V68.0299H244.065V66.2599H249.525V64.3099H251.37V66.2599H256.86V68.0299H251.37V69.7699H254.175L254.49 69.7099ZM264.6 72.2749L262.5 72.7549V76.3399C262.5 77.2549 262.32 77.6899 261.795 77.9749C261.27 78.2449 260.475 78.3049 259.335 78.3049C259.275 77.8399 259.05 77.1049 258.825 76.6249C259.5 76.6549 260.235 76.6549 260.445 76.6549C260.67 76.6399 260.76 76.5649 260.76 76.3249V73.1449C260.055 73.2949 259.395 73.4449 258.795 73.5649L258.42 71.8099C259.08 71.7199 259.875 71.5699 260.76 71.4199V68.7949H258.645V67.1449H260.76V64.2949H262.5V67.1449H264.42V68.7949H262.5V71.0899C263.16 70.9549 263.82 70.8349 264.48 70.6999L264.6 72.2749ZM272.67 77.6299L270.9 78.2899C270.825 77.8999 270.705 77.4499 270.57 76.9699C267.975 77.3599 265.26 77.7049 263.28 77.9899L262.89 76.1299C263.355 76.0849 263.88 76.0399 264.465 75.9799C265.35 72.8599 266.265 68.3149 266.67 64.6849L268.62 64.9999C268.065 68.5999 267.18 72.7399 266.31 75.7699C267.495 75.6499 268.755 75.4999 270.015 75.3499C269.535 74.0749 268.935 72.7399 268.35 71.5849L269.925 71.0299C271.065 73.1299 272.25 75.8449 272.67 77.6299ZM277.17 75.3499H283.83V71.9899H277.17V75.3499ZM283.83 66.9949H277.17V70.2199H283.83V66.9949ZM275.325 65.1949H285.75V78.0949H283.83V77.1499H277.17V78.1249H275.325V65.1949Z" fill="#333333"/>
<path d="M241 84V122" stroke="#333333" stroke-width="2"/>
<path d="M384.98 64.9701C384.935 65.3151 384.905 65.9451 384.89 66.3051C384.875 66.7701 384.86 67.2201 384.83 67.6551H387.65C388.025 67.6551 388.415 67.6101 388.775 67.5501L390.08 68.1801C390.035 68.4201 389.975 68.8101 389.975 68.9751C389.915 70.5951 389.735 74.7801 389.09 76.3101C388.76 77.0751 388.19 77.4651 387.155 77.4651C386.3 77.4651 385.4 77.4051 384.68 77.3451L384.44 75.3351C385.175 75.4701 385.955 75.5451 386.54 75.5451C387.02 75.5451 387.23 75.3801 387.395 75.0201C387.83 74.0751 388.025 71.0751 388.025 69.4551H384.65C384.095 73.4151 382.67 75.7701 379.985 77.6751L378.245 76.2651C378.86 75.9201 379.61 75.4101 380.21 74.7951C381.605 73.4151 382.355 71.7351 382.685 69.4551H380.705C380.195 69.4551 379.37 69.4551 378.725 69.5151V67.5501C379.355 67.6101 380.135 67.6551 380.705 67.6551H382.85C382.865 67.2351 382.88 66.8001 382.88 66.3501C382.88 66.0201 382.835 65.3301 382.775 64.9701H384.98ZM393.38 70.0551C393.92 70.1001 395.015 70.1451 395.795 70.1451H403.85C404.555 70.1451 405.215 70.0851 405.605 70.0551V72.4101C405.245 72.3951 404.48 72.3351 403.85 72.3351H395.795C394.94 72.3351 393.935 72.3651 393.38 72.4101V70.0551ZM417.23 65.8401C417.65 66.4701 418.25 67.4301 418.595 68.1051L417.29 68.6901C416.855 67.7451 416.525 67.1451 415.97 66.3651L417.23 65.8401ZM419.195 65.0151C419.63 65.6151 420.26 66.5601 420.605 67.2351L419.345 67.8501C418.865 66.9051 418.505 66.3501 417.95 65.6001L419.195 65.0151ZM411.245 75.7851V67.1601C411.245 66.6201 411.2 65.8851 411.095 65.3451H413.435C413.375 65.8701 413.3 66.5301 413.3 67.1601V69.3501C415.295 69.9501 418.19 71.0151 419.57 71.6901L418.73 73.7751C417.17 72.9501 414.92 72.0801 413.3 71.5401V75.7851C413.3 76.2051 413.375 77.2551 413.45 77.8701H411.095C411.185 77.2851 411.245 76.3701 411.245 75.7851ZM425.09 71.4801H429.815C429.815 71.4801 429.8 71.9751 429.755 72.2151C429.515 75.5301 429.245 76.9851 428.72 77.5701C428.3 78.0201 427.88 78.1551 427.235 78.2151C426.71 78.2751 425.795 78.2751 424.88 78.2451C424.835 77.6751 424.565 76.8951 424.22 76.3701C425.12 76.4601 426.08 76.4751 426.485 76.4751C426.785 76.4751 426.965 76.4451 427.16 76.2951C427.475 76.0401 427.67 75.0951 427.835 73.1301H424.79C424.745 73.3701 424.7 73.5951 424.655 73.8051L422.855 73.5201C423.2 72.1101 423.575 69.9651 423.77 68.2401H427.925V66.5301H423.41V64.8651H429.695V69.9051H425.345C425.27 70.4301 425.18 70.9701 425.09 71.4801ZM433.07 64.5201H434.855V78.3051H433.07V64.5201ZM440.99 67.6851V66.6951H437.855V65.1351H440.99V64.3101H442.73V65.1351H446.18V64.3101H447.92V65.1351H451.145V66.6951H447.92V67.6851H446.18V66.6951H442.73V67.6851H440.99ZM438.425 68.6301L439.445 67.4151C440.24 67.8201 441.425 68.4651 442.025 68.8701L440.96 70.2051C440.39 69.8001 439.22 69.0801 438.425 68.6301ZM441.095 71.8701L440.015 73.2051C439.46 72.7551 438.32 72.0351 437.48 71.5551L438.53 70.3551C439.325 70.7601 440.495 71.4201 441.095 71.8701ZM439.025 78.2901L437.75 76.9101C438.575 76.1151 439.76 74.7801 440.765 73.5201L441.815 74.8101C440.96 75.9651 439.97 77.1951 439.025 78.2901ZM443.765 73.6101H449.69C448.655 73.2951 447.605 72.9051 446.63 72.4101C445.715 72.8901 444.755 73.2801 443.765 73.6101ZM444.275 76.3251H448.265V74.9601H444.275V76.3251ZM448.01 69.6351H444.905C445.355 70.0101 445.925 70.3551 446.57 70.6851C447.11 70.3551 447.605 70.0101 448.01 69.6351ZM449.51 68.2701L450.65 68.9601C450.035 69.9051 449.195 70.7151 448.22 71.4351C449.345 71.8551 450.575 72.2151 451.745 72.4551C451.37 72.8001 450.905 73.4601 450.665 73.8801C450.455 73.8351 450.23 73.7751 450.02 73.7151V78.2901H448.265V77.6901H444.275V78.2901H442.595V73.9701C442.4 74.0151 442.19 74.0751 441.995 74.1201C441.83 73.7151 441.44 73.0401 441.125 72.7101C442.43 72.4551 443.765 72.0351 444.98 71.5101C444.545 71.2251 444.11 70.9101 443.705 70.5951C443.3 71.0001 442.85 71.4051 442.355 71.7651C442.07 71.4201 441.515 70.9251 441.125 70.7001C442.61 69.7101 443.765 68.3901 444.44 67.3251L446.15 67.6701C446 67.8951 445.835 68.1201 445.67 68.3451H449.225L449.51 68.2701ZM456.17 75.3501H462.83V71.9901H456.17V75.3501ZM462.83 66.9951H456.17V70.2201H462.83V66.9951ZM454.325 65.1951H464.75V78.0951H462.83V77.1501H456.17V78.1251H454.325V65.1951Z" fill="#333333"/>
<path d="M423 84V122" stroke="#333333" stroke-width="2"/>
<path fill-rule="evenodd" clip-rule="evenodd" d="M225.905 101H64V105H225.905V101Z" fill="#2175D6"/>
<path d="M225.905 98L234 103L225.905 108V98Z" fill="#2175D6"/>
<path fill-rule="evenodd" clip-rule="evenodd" d="M407.905 101H246V105H407.905V101Z" fill="#2175D6"/>
<path d="M407.905 98L416 103L407.905 108V98Z" fill="#2175D6"/>
<path d="M422 19H58V46H422V19Z" fill="#2175D6"/>
<path d="M198.17 33.5249H193.01C193.61 34.6199 194.45 35.5349 195.53 36.2849C196.625 35.5649 197.525 34.6649 198.17 33.5249ZM199.49 31.7099L200.735 32.4149C199.985 34.4699 198.755 36.0449 197.21 37.2449C198.695 37.9199 200.465 38.3699 202.535 38.5949C202.16 39.0149 201.65 39.8099 201.395 40.3349C199.01 39.9899 197.03 39.3599 195.425 38.3999C193.67 39.3299 191.63 39.9299 189.44 40.3049C189.275 39.8249 188.81 38.9849 188.465 38.5799C190.43 38.3249 192.245 37.8899 193.79 37.2149C192.785 36.3299 191.96 35.2499 191.27 33.9749L192.59 33.5249H189.815V31.7699H194.525V30.0299H189.065V28.2599H194.525V26.3099H196.37V28.2599H201.86V30.0299H196.37V31.7699H199.175L199.49 31.7099ZM209.6 34.2749L207.5 34.7549V38.3399C207.5 39.2549 207.32 39.6899 206.795 39.9749C206.27 40.2449 205.475 40.3049 204.335 40.3049C204.275 39.8399 204.05 39.1049 203.825 38.6249C204.5 38.6549 205.235 38.6549 205.445 38.6549C205.67 38.6399 205.76 38.5649 205.76 38.3249V35.1449C205.055 35.2949 204.395 35.4449 203.795 35.5649L203.42 33.8099C204.08 33.7199 204.875 33.5699 205.76 33.4199V30.7949H203.645V29.1449H205.76V26.2949H207.5V29.1449H209.42V30.7949H207.5V33.0899C208.16 32.9549 208.82 32.8349 209.48 32.6999L209.6 34.2749ZM217.67 39.6299L215.9 40.2899C215.825 39.8999 215.705 39.4499 215.57 38.9699C212.975 39.3599 210.26 39.7049 208.28 39.9899L207.89 38.1299C208.355 38.0849 208.88 38.0399 209.465 37.9799C210.35 34.8599 211.265 30.3149 211.67 26.6849L213.62 26.9999C213.065 30.5999 212.18 34.7399 211.31 37.7699C212.495 37.6499 213.755 37.4999 215.015 37.3499C214.535 36.0749 213.935 34.7399 213.35 33.5849L214.925 33.0299C216.065 35.1299 217.25 37.8449 217.67 39.6299ZM221.9 28.2749C221.795 28.8149 221.72 29.6849 221.72 30.1049C221.705 31.0799 221.72 32.2049 221.81 33.2849C222.02 35.4449 222.47 36.9299 223.415 36.9299C224.12 36.9299 224.72 35.1749 225.005 33.9749L226.505 35.8049C225.515 38.4149 224.57 39.3299 223.37 39.3299C221.72 39.3299 220.295 37.8449 219.875 33.8249C219.725 32.4449 219.71 30.6899 219.71 29.7749C219.71 29.3549 219.68 28.7099 219.59 28.2449L221.9 28.2749ZM229.4 28.6199C230.825 30.3449 231.965 34.0949 232.13 36.3899L230.165 37.1549C229.925 34.7399 229.13 31.0949 227.495 29.2349L229.4 28.6199ZM244.22 32.3699C244.22 36.0899 243.32 38.3549 239.705 39.9449L238.1 38.4299C240.995 37.4249 242.27 36.1349 242.27 32.4449V31.8749H238.715V33.9149C238.715 34.5749 238.76 35.1899 238.775 35.4899H236.675C236.72 35.1899 236.765 34.5899 236.765 33.9149V31.8749H235.49C234.74 31.8749 234.2 31.9049 233.87 31.9349V29.8949C234.125 29.9399 234.74 30.0299 235.49 30.0299H236.765V28.5449C236.765 28.1099 236.72 27.6449 236.675 27.1949H238.805C238.76 27.4799 238.715 27.9599 238.715 28.5449V30.0299H242.27V28.4549C242.27 27.8549 242.225 27.3599 242.18 27.0599H244.325C244.28 27.3599 244.22 27.8549 244.22 28.4549V30.0299H245.33C246.125 30.0299 246.575 29.9999 246.98 29.9249V31.9199C246.65 31.8899 246.125 31.8749 245.33 31.8749H244.22V32.3699ZM248.93 33.1649C251.615 32.4749 253.82 31.4999 255.485 30.4799C257.03 29.5199 258.74 28.0199 259.715 26.8349L261.335 28.3799C260.195 29.5049 258.755 30.6749 257.3 31.6349V37.6949C257.3 38.3549 257.33 39.2849 257.435 39.6599H255.065C255.125 39.2999 255.17 38.3549 255.17 37.6949V32.8949C253.625 33.7049 251.72 34.5149 249.875 35.0549L248.93 33.1649ZM271.302 27.2999C270.957 27.8249 270.567 28.4999 270.387 28.8299C270.372 28.8599 270.357 28.8749 270.342 28.9049H273.357C273.822 28.9049 274.317 28.8299 274.662 28.7249L276.192 29.6699C276.027 29.9549 275.817 30.3749 275.697 30.7499C275.292 32.0849 274.437 34.0799 273.087 35.7599C271.662 37.4999 269.847 38.8799 267.027 39.9899L265.257 38.3999C268.332 37.4849 269.997 36.1799 271.302 34.6949C272.322 33.5249 273.192 31.7249 273.432 30.5999H269.217C268.212 31.9049 266.907 33.2249 265.437 34.2299L263.757 32.9849C266.382 31.3799 267.687 29.4449 268.437 28.1549C268.662 27.7799 268.977 27.0899 269.112 26.5799L271.302 27.2999ZM284.798 38.6699C284.858 38.3849 284.918 37.9649 284.918 37.5599V28.8149C284.918 28.1399 284.813 27.5699 284.798 27.5249H287.033C287.018 27.5699 286.928 28.1549 286.928 28.8299V36.6749C288.143 36.1499 289.628 34.9649 290.633 33.5099L291.788 35.1599C290.543 36.7799 288.383 38.3999 286.703 39.2549C286.373 39.4349 286.193 39.5849 286.058 39.7049L284.798 38.6699ZM277.853 38.4449C279.173 37.5149 279.983 36.1349 280.403 34.8599C280.823 33.5699 280.838 30.7349 280.838 28.9199C280.838 28.3199 280.793 27.9149 280.703 27.5399H282.908C282.893 27.6149 282.803 28.2749 282.803 28.9049C282.803 30.6749 282.758 33.8399 282.353 35.3549C281.903 37.0499 280.958 38.5199 279.683 39.6599L277.853 38.4449Z" fill="white"/>
</g>
<defs>
<clipPath id="clip0_18_19815">
<rect width="511" height="158" fill="white"/>
</clipPath>
</defs>
</svg>
