<svg width="1023" height="317" viewBox="0 0 1023 317" fill="none" xmlns="http://www.w3.org/2000/svg">
<g clip-path="url(#clip0_479_1926)">
<path d="M998.977 0H24.0235C10.7557 0 0 10.7792 0 24.0759V292.924C0 306.221 10.7557 317 24.0235 317H998.977C1012.24 317 1023 306.221 1023 292.924V24.0759C1023 10.7792 1012.24 0 998.977 0Z" fill="white"/>
<path d="M472.782 266.441L474.494 265.267H471.791V262.889H483.472V273.453C483.472 274.717 483.262 275.439 482.421 275.86C481.521 276.252 480.229 276.282 478.367 276.282C478.277 275.559 477.977 274.536 477.647 273.844C478.908 273.904 480.079 273.904 480.439 273.874C480.8 273.874 480.92 273.784 480.92 273.453V265.267H474.824C476.055 266.29 477.346 267.584 478.037 268.577L476.055 270.082C475.395 269.059 474.013 267.494 472.782 266.441ZM479.479 269.51L479.929 271.527C477.407 272.73 474.734 273.994 472.572 274.927L471.311 272.61C473.353 271.918 476.476 270.684 479.479 269.51ZM467.467 273.453V265.267H458.638V262.889H470.019V273.483C470.019 274.717 469.809 275.439 468.968 275.86C468.097 276.252 466.806 276.282 465.034 276.282C464.944 275.559 464.644 274.536 464.284 273.844C465.485 273.904 466.626 273.904 466.986 273.874C467.347 273.874 467.467 273.784 467.467 273.453ZM459.899 266.531L461.791 265.297C462.992 266.38 464.314 267.825 464.914 268.848L462.932 270.263C462.362 269.209 461.041 267.614 459.899 266.531ZM466.085 269.962L466.506 271.978C463.983 273.152 461.281 274.325 459.119 275.289L457.978 272.941C460.02 272.309 463.083 271.135 466.085 269.962ZM476.716 286.153H485.034V288.651H457.978V286.153H465.845C465.575 284.648 464.794 282.541 464.013 280.916L466.596 280.224C467.557 281.909 468.368 284.167 468.638 285.641L466.926 286.153H475.995L474.103 285.701C474.974 284.197 475.995 281.849 476.566 280.194H460.41V277.756H470.079V275.108H472.812V277.756H482.722V280.194H476.986L479.539 280.766C478.608 282.692 477.617 284.738 476.716 286.153ZM495.124 277.455H508.307V273.001H495.394C495.394 274.386 495.304 275.89 495.124 277.455ZM508.307 265.869H495.394V270.323H508.307V265.869ZM511.25 263.16V285.491C511.25 287.296 510.769 288.169 509.568 288.621C508.307 289.132 506.265 289.192 503.142 289.192C502.962 288.38 502.421 287.026 501.941 286.243C504.283 286.363 506.685 286.333 507.406 286.303C508.067 286.303 508.307 286.063 508.307 285.431V280.164H494.673C493.893 283.535 492.391 286.875 489.538 289.313C489.118 288.711 488.037 287.688 487.406 287.266C492.091 283.234 492.541 277.335 492.541 272.61V263.16H511.25Z" fill="#333333"/>
<path d="M115.663 262.619L118.696 263.612C117.435 266.2 115.813 269.089 114.522 270.985L112.059 270.082C113.291 268.096 114.822 264.966 115.663 262.619ZM102 269.661L99.3269 270.834C98.7564 268.908 97.1948 266.019 95.6633 263.913L98.1858 262.889C99.8074 264.996 101.369 267.765 102 269.661ZM108.606 261.656V272.098H118.275V289.283H115.303V288.019H95.5732V285.22H115.303V281.247H97.1948V278.569H115.303V274.897H96.1738V272.098H105.573V261.656H108.606ZM130.768 277.455H143.951V273.001H131.038C131.038 274.386 130.948 275.89 130.768 277.455ZM143.951 265.869H131.038V270.323H143.951V265.869ZM146.893 263.16V285.491C146.893 287.296 146.413 288.169 145.212 288.621C143.951 289.132 141.909 289.192 138.785 289.192C138.605 288.38 138.065 287.026 137.584 286.243C139.927 286.363 142.329 286.333 143.05 286.303C143.71 286.303 143.951 286.063 143.951 285.431V280.164H130.317C129.536 283.535 128.035 286.875 125.182 289.313C124.762 288.711 123.681 287.688 123.05 287.266C127.735 283.234 128.185 277.335 128.185 272.61V263.16H146.893Z" fill="black"/>
<path d="M89.3975 129.93V132.638H80.5689V129.93H89.3975ZM90.4785 133.963V136.791H79.0674V133.963H90.4785ZM89.4876 138.146V140.884H80.4788V138.146H89.4876ZM80.4788 144.947V142.269H89.4876V144.947H80.4788ZM86.4846 149.251H83.3916V152.712H86.4846V149.251ZM89.5176 146.422V155.511H83.3916V156.684H80.3887V146.422H89.5176ZM95.7937 149.191H102.01V147.776H95.7937V149.191ZM102.01 144.105H95.7937V145.459H102.01V144.105ZM105.343 141.577V153.765C105.343 155.27 105.073 156.052 104.052 156.504C103.061 156.985 101.649 157.015 99.7276 157.015C99.6075 156.143 99.187 154.939 98.7967 154.156C99.9078 154.186 101.139 154.186 101.529 154.156C101.92 154.156 102.01 154.036 102.01 153.705V151.538H95.7937V157.045H92.5205V141.577H105.343ZM100.388 137.875H106.965V140.463H90.4785V137.875H96.9949V136.671H91.95V134.264H96.9949V133.18H91.1992V130.622H96.9949V128.997H100.388V130.622H106.424V133.18H100.388V134.264H105.974V136.671H100.388V137.875ZM118.916 145.519L120.118 148.799C117.145 150.725 113.811 152.802 111.199 154.307L108.977 150.996C111.469 149.762 115.343 147.596 118.916 145.519ZM118.496 143.232L115.583 145.338C114.742 143.834 112.73 141.486 111.079 139.891L113.811 137.965C115.493 139.5 117.565 141.667 118.496 143.232ZM132.369 137.574L135.523 139.771C133.721 141.847 131.439 144.105 129.607 145.73C131.739 148.348 134.351 150.485 137.384 151.869C136.514 152.591 135.342 154.036 134.742 155.059C130.538 152.802 127.295 149.13 124.862 144.646V152.712C124.862 154.818 124.472 155.811 123.211 156.383C121.949 157.015 120.027 157.136 117.355 157.106C117.205 156.082 116.664 154.427 116.124 153.344C117.955 153.434 119.847 153.404 120.448 153.404C121.018 153.404 121.229 153.223 121.229 152.682V137.002H109.908V133.541H121.229V129.027H124.862V133.541H130.988C129.757 132.699 128.135 131.766 126.844 131.104L128.916 128.846C130.718 129.689 133.24 131.013 134.502 131.976L133.12 133.541H136.453V137.002H124.862V137.303C125.583 139.319 126.544 141.246 127.655 143.051C129.337 141.426 131.198 139.319 132.369 137.574ZM146.483 151.177H159.816V144.436H146.483V151.177ZM159.816 134.414H146.483V140.884H159.816V134.414ZM142.79 130.803H163.66V156.684H159.816V154.788H146.483V156.744H142.79V130.803Z" fill="#333333"/>
<path d="M118.115 168.532V244.772" stroke="#333333" stroke-width="2"/>
<path d="M412.363 130.351C412.273 131.043 412.213 132.307 412.183 133.03C412.153 133.962 412.123 134.865 412.063 135.738H417.708C418.459 135.738 419.24 135.648 419.96 135.527L422.573 136.791C422.483 137.273 422.363 138.055 422.363 138.386C422.243 141.637 421.882 150.033 420.591 153.103C419.93 154.638 418.789 155.42 416.717 155.42C415.006 155.42 413.204 155.3 411.762 155.179L411.282 151.147C412.753 151.418 414.315 151.568 415.486 151.568C416.447 151.568 416.867 151.237 417.198 150.515C418.069 148.619 418.459 142.6 418.459 139.349H411.702C410.591 147.295 407.739 152.019 402.363 155.842L398.88 153.013C400.111 152.32 401.613 151.297 402.814 150.063C405.606 147.295 407.108 143.924 407.769 139.349H403.805C402.784 139.349 401.132 139.349 399.841 139.47V135.527C401.102 135.648 402.664 135.738 403.805 135.738H408.099C408.129 134.895 408.159 134.023 408.159 133.12C408.159 132.458 408.069 131.073 407.949 130.351H412.363ZM429.18 140.553C430.261 140.644 432.453 140.734 434.014 140.734H450.14C451.551 140.734 452.873 140.613 453.653 140.553V145.278C452.933 145.248 451.401 145.128 450.14 145.128H434.014C432.303 145.128 430.291 145.188 429.18 145.278V140.553ZM476.926 132.097C477.767 133.361 478.968 135.287 479.659 136.641L477.046 137.815C476.175 135.919 475.515 134.715 474.404 133.15L476.926 132.097ZM480.86 130.441C481.731 131.645 482.992 133.541 483.683 134.895L481.16 136.129C480.199 134.233 479.479 133.12 478.368 131.615L480.86 130.441ZM464.944 152.05V134.745C464.944 133.662 464.854 132.187 464.644 131.103H469.329C469.209 132.157 469.059 133.481 469.059 134.745V139.139C473.052 140.343 478.848 142.479 481.611 143.834L479.929 148.017C476.806 146.362 472.302 144.616 469.059 143.533V152.05C469.059 152.892 469.209 154.999 469.359 156.233H464.644C464.824 155.059 464.944 153.223 464.944 152.05ZM506.835 143.503H496.505C497.706 145.7 499.388 147.535 501.55 149.04C503.742 147.596 505.544 145.79 506.835 143.503ZM509.478 139.861L511.97 141.276C510.469 145.399 508.007 148.559 504.914 150.966C507.886 152.32 511.43 153.223 515.574 153.675C514.823 154.517 513.802 156.112 513.292 157.166C508.517 156.474 504.553 155.21 501.34 153.283C497.827 155.149 493.743 156.353 489.358 157.106C489.028 156.142 488.097 154.457 487.406 153.645C491.34 153.133 494.974 152.26 498.067 150.906C496.055 149.13 494.403 146.964 493.022 144.405L495.665 143.503H490.109V139.981H499.538V136.49H488.608V132.939H499.538V129.027H503.232V132.939H514.223V136.49H503.232V139.981H508.847L509.478 139.861ZM529.718 145.007L525.514 145.97V153.163C525.514 154.999 525.153 155.872 524.102 156.443C523.051 156.985 521.46 157.106 519.177 157.106C519.057 156.173 518.607 154.698 518.157 153.735C519.508 153.795 520.979 153.795 521.4 153.795C521.85 153.765 522.03 153.614 522.03 153.133V146.753C520.619 147.054 519.298 147.355 518.096 147.596L517.346 144.074C518.667 143.894 520.259 143.593 522.03 143.292V138.025H517.796V134.715H522.03V128.997H525.514V134.715H529.357V138.025H525.514V142.63C526.835 142.359 528.156 142.118 529.478 141.847L529.718 145.007ZM545.874 155.751L542.33 157.075C542.18 156.293 541.94 155.39 541.67 154.427C536.474 155.21 531.039 155.902 527.075 156.474L526.294 152.742C527.225 152.651 528.276 152.561 529.448 152.441C531.219 146.181 533.051 137.062 533.862 129.779L537.766 130.411C536.655 137.634 534.883 145.94 533.141 152.019C535.513 151.779 538.036 151.478 540.558 151.177C539.597 148.619 538.396 145.94 537.225 143.623L540.378 142.509C542.66 146.723 545.033 152.17 545.874 155.751ZM554.882 151.177H568.215V144.436H554.882V151.177ZM568.215 134.414H554.882V140.884H568.215V134.414ZM551.189 130.803H572.059V156.684H568.215V154.788H554.882V156.744H551.189V130.803Z" fill="#333333"/>
<path d="M482.472 168.532V244.772" stroke="#333333" stroke-width="2"/>
<path d="M846.828 168.532V244.772" stroke="#333333" stroke-width="2"/>
<path fill-rule="evenodd" clip-rule="evenodd" d="M452.252 202.639H128.125V210.664H452.252V202.639Z" fill="#2175D6"/>
<path d="M452.252 196.62L468.458 206.652L452.252 216.684V196.62Z" fill="#2175D6"/>
<path fill-rule="evenodd" clip-rule="evenodd" d="M816.608 202.639H492.481V210.664H816.608V202.639Z" fill="#2175D6"/>
<path d="M816.608 196.62L832.814 206.652L816.608 216.684V196.62Z" fill="#2175D6"/>
<path d="M844.826 8.36938H116.113V62.5403H844.826V8.36938Z" fill="#2175D6"/>
<path d="M396.728 37.5111H386.398C387.599 39.7081 389.281 41.5439 391.443 43.0486C393.635 41.604 395.437 39.7983 396.728 37.5111ZM399.37 33.8696L401.863 35.2841C400.361 39.4071 397.899 42.5671 394.806 44.9747C397.779 46.3289 401.322 47.2318 405.466 47.6832C404.716 48.5259 403.695 50.1209 403.184 51.1742C398.409 50.482 394.446 49.2181 391.232 47.292C387.719 49.1579 383.635 50.3617 379.251 51.114C378.92 50.151 377.99 48.4657 377.299 47.6531C381.233 47.1415 384.866 46.2688 387.959 44.9145C385.947 43.1389 384.296 40.972 382.914 38.414L385.557 37.5111H380.001V33.99H389.431V30.499H378.5V26.9478H389.431V23.0355H393.124V26.9478H404.115V30.499H393.124V33.99H398.74L399.37 33.8696ZM419.61 39.0159L415.406 39.9789V47.1716C415.406 49.0074 415.046 49.8801 413.995 50.452C412.944 50.9937 411.352 51.114 409.07 51.114C408.95 50.1811 408.499 48.7064 408.049 47.7434C409.4 47.8036 410.872 47.8036 411.292 47.8036C411.743 47.7735 411.923 47.623 411.923 47.1415V40.7614C410.511 41.0623 409.19 41.3633 407.989 41.604L407.238 38.0829C408.559 37.9024 410.151 37.6014 411.923 37.3005V32.0339H407.689V28.7234H411.923V23.0054H415.406V28.7234H419.25V32.0339H415.406V36.6384C416.727 36.3675 418.049 36.1268 419.37 35.8559L419.61 39.0159ZM435.766 49.7598L432.223 51.0839C432.072 50.3015 431.832 49.3986 431.562 48.4356C426.367 49.2181 420.931 49.9102 416.968 50.482L416.187 46.7503C417.118 46.66 418.169 46.5697 419.34 46.4493C421.112 40.1896 422.943 31.0708 423.754 23.7878L427.658 24.4198C426.547 31.6426 424.775 39.9488 423.034 46.028C425.406 45.7872 427.928 45.4863 430.451 45.1853C429.49 42.6273 428.289 39.9488 427.118 37.6315L430.271 36.518C432.553 40.7313 434.925 46.1785 435.766 49.7598ZM444.234 26.9779C444.024 28.0613 443.874 29.8068 443.874 30.6495C443.844 32.6057 443.874 34.8628 444.054 37.0296C444.474 41.3633 445.375 44.3427 447.267 44.3427C448.679 44.3427 449.88 40.8216 450.45 38.414L453.453 42.0856C451.471 47.3221 449.579 49.1579 447.177 49.1579C443.874 49.1579 441.021 46.1785 440.18 38.113C439.88 35.3443 439.85 31.8232 439.85 29.9874C439.85 29.1447 439.79 27.8507 439.61 26.9177L444.234 26.9779ZM459.249 27.6701C462.102 31.131 464.384 38.6547 464.714 43.2593L460.78 44.7941C460.3 39.9488 458.708 32.6358 455.435 28.904L459.249 27.6701ZM488.918 35.1938C488.918 42.6574 487.116 47.2017 479.879 50.3918L476.666 47.3522C482.462 45.3358 485.014 42.7476 485.014 35.3443V34.2007H477.897V38.2936C477.897 39.6178 477.987 40.8517 478.017 41.4536H473.813C473.903 40.8517 473.993 39.6479 473.993 38.2936V34.2007H471.441C469.939 34.2007 468.858 34.2609 468.198 34.3211V30.2282C468.708 30.3184 469.939 30.499 471.441 30.499H473.993V27.5196C473.993 26.6469 473.903 25.7139 473.813 24.8111H478.077C477.987 25.3829 477.897 26.3459 477.897 27.5196V30.499H485.014V27.339C485.014 26.1352 484.924 25.1421 484.834 24.5402H489.128C489.038 25.1421 488.918 26.1352 488.918 27.339V30.499H491.14C492.732 30.499 493.633 30.4388 494.443 30.2883V34.291C493.783 34.2308 492.732 34.2007 491.14 34.2007H488.918V35.1938ZM498.347 36.7889C503.722 35.4045 508.137 33.4483 511.47 31.4019C514.563 29.4758 517.986 26.4663 519.938 24.0888L523.181 27.1886C520.899 29.4457 518.016 31.7931 515.104 33.7192V45.8775C515.104 47.2017 515.164 49.0676 515.374 49.82H510.629C510.749 49.0977 510.839 47.2017 510.839 45.8775V36.2471C507.746 37.8723 503.933 39.4974 500.239 40.5808L498.347 36.7889ZM543.135 25.0217C542.444 26.0751 541.663 27.4293 541.303 28.0914C541.273 28.1516 541.243 28.1817 541.213 28.2419H547.249C548.18 28.2419 549.171 28.0914 549.861 27.8808L552.924 29.7767C552.594 30.3485 552.174 31.1912 551.934 31.9436C551.123 34.622 549.411 38.6246 546.708 41.9953C543.856 45.4863 540.222 48.255 534.577 50.482L531.033 47.292C537.189 45.4562 540.522 42.8379 543.135 39.8585C545.177 37.5111 546.919 33.8997 547.399 31.6426H538.961C536.949 34.2609 534.336 36.9092 531.393 38.9256L528.03 36.4277C533.285 33.2076 535.898 29.3253 537.399 26.7371C537.85 25.9848 538.48 24.6004 538.751 23.5772L543.135 25.0217ZM570.153 47.8337C570.273 47.2619 570.394 46.4192 570.394 45.6067V28.0613C570.394 26.707 570.183 25.5634 570.153 25.4732H574.628C574.598 25.5634 574.418 26.7371 574.418 28.0914V43.8311C576.85 42.7777 579.823 40.4002 581.835 37.481L584.147 40.7915C581.655 44.0417 577.33 47.292 573.967 49.0074C573.306 49.3685 572.946 49.6695 572.676 49.9102L570.153 47.8337ZM556.25 47.3823C558.892 45.5164 560.514 42.7477 561.355 40.1896C562.196 37.6014 562.226 31.9135 562.226 28.272C562.226 27.0682 562.136 26.2556 561.955 25.5033H566.37C566.34 25.6537 566.159 26.9779 566.159 28.2419C566.159 31.7931 566.069 38.1431 565.259 41.1827C564.358 44.5834 562.466 47.5327 559.913 49.82L556.25 47.3823Z" fill="white"/>
<path d="M770.714 130.351C770.624 131.043 770.564 132.307 770.534 133.03C770.503 133.963 770.473 134.866 770.413 135.738H776.059C776.81 135.738 777.59 135.648 778.311 135.528L780.924 136.792C780.834 137.273 780.713 138.056 780.713 138.387C780.593 141.637 780.233 150.033 778.942 153.103C778.281 154.638 777.14 155.42 775.068 155.42C773.356 155.42 771.554 155.3 770.113 155.18L769.633 151.147C771.104 151.418 772.666 151.568 773.837 151.568C774.798 151.568 775.218 151.237 775.548 150.515C776.419 148.619 776.81 142.6 776.81 139.35H770.053C768.942 147.295 766.089 152.02 760.714 155.842L757.23 153.013C758.462 152.321 759.963 151.297 761.164 150.063C763.957 147.295 765.459 143.924 766.119 139.35H762.155C761.134 139.35 759.483 139.35 758.191 139.47V135.528C759.453 135.648 761.014 135.738 762.155 135.738H766.45C766.48 134.896 766.51 134.023 766.51 133.12C766.51 132.458 766.419 131.074 766.299 130.351H770.714ZM787.53 140.553C788.611 140.644 790.803 140.734 792.365 140.734H808.491C809.902 140.734 811.223 140.614 812.004 140.553V145.278C811.283 145.248 809.752 145.128 808.491 145.128H792.365C790.653 145.128 788.641 145.188 787.53 145.278V140.553ZM835.277 132.097C836.118 133.361 837.319 135.287 838.009 136.641L835.397 137.815C834.526 135.919 833.865 134.715 832.754 133.15L835.277 132.097ZM839.211 130.442C840.081 131.645 841.343 133.541 842.033 134.896L839.511 136.13C838.55 134.234 837.829 133.12 836.718 131.615L839.211 130.442ZM823.295 152.05V134.745C823.295 133.662 823.205 132.187 822.995 131.104H827.679C827.559 132.157 827.409 133.481 827.409 134.745V139.139C831.403 140.343 837.199 142.48 839.961 143.834L838.28 148.017C835.157 146.362 830.652 144.616 827.409 143.533V152.05C827.409 152.892 827.559 154.999 827.709 156.233H822.995C823.175 155.059 823.295 153.223 823.295 152.05ZM851.012 143.412H860.471C860.471 143.412 860.441 144.406 860.351 144.887C859.871 151.538 859.33 154.457 858.279 155.631C857.438 156.534 856.598 156.805 855.306 156.925C854.255 157.045 852.424 157.045 850.592 156.985C850.502 155.842 849.961 154.277 849.27 153.223C851.072 153.404 852.994 153.434 853.805 153.434C854.405 153.434 854.766 153.374 855.156 153.073C855.787 152.561 856.177 150.665 856.508 146.723H850.412C850.322 147.204 850.231 147.656 850.141 148.077L846.538 147.505C847.228 144.676 847.979 140.373 848.37 136.912H856.688V133.481H847.649V130.141H860.231V140.253H851.523C851.373 141.306 851.192 142.389 851.012 143.412ZM866.988 129.448H870.561V157.106H866.988V129.448ZM882.843 135.798V133.812H876.567V130.682H882.843V129.027H886.327V130.682H893.233V129.027H896.717V130.682H903.173V133.812H896.717V135.798H893.233V133.812H886.327V135.798H882.843ZM877.708 137.694L879.75 135.257C881.342 136.069 883.714 137.363 884.915 138.176L882.783 140.854C881.642 140.042 879.3 138.597 877.708 137.694ZM883.053 144.195L880.891 146.873C879.78 145.971 877.498 144.526 875.816 143.563L877.918 141.155C879.51 141.968 881.852 143.292 883.053 144.195ZM878.909 157.076L876.357 154.307C878.009 152.712 880.381 150.033 882.393 147.505L884.495 150.094C882.783 152.411 880.801 154.879 878.909 157.076ZM888.399 147.686H900.26C898.188 147.054 896.086 146.272 894.134 145.278C892.303 146.241 890.381 147.024 888.399 147.686ZM889.42 153.133H897.408V150.395H889.42V153.133ZM896.897 139.711H890.681C891.582 140.463 892.723 141.155 894.014 141.817C895.095 141.155 896.086 140.463 896.897 139.711ZM899.9 136.972L902.182 138.357C900.951 140.253 899.269 141.878 897.317 143.322C899.57 144.165 902.032 144.887 904.374 145.369C903.624 146.061 902.693 147.385 902.212 148.228C901.792 148.137 901.341 148.017 900.921 147.897V157.076H897.408V155.872H889.42V157.076H886.056V148.408C885.666 148.499 885.246 148.619 884.855 148.709C884.525 147.897 883.744 146.542 883.114 145.88C885.726 145.369 888.399 144.526 890.831 143.473C889.96 142.901 889.089 142.269 888.279 141.637C887.468 142.449 886.567 143.262 885.576 143.984C885.005 143.292 883.894 142.299 883.114 141.848C886.086 139.861 888.399 137.213 889.75 135.076L893.173 135.768C892.873 136.22 892.543 136.671 892.212 137.123H899.329L899.9 136.972ZM913.233 151.177H926.566V144.436H913.233V151.177ZM926.566 134.414H913.233V140.885H926.566V134.414ZM909.539 130.803H930.41V156.684H926.566V154.788H913.233V156.745H909.539V130.803Z" fill="#333333"/>
<path d="M817.119 264.434L818.831 263.261H816.128V260.883H827.809V271.446C827.809 272.71 827.599 273.433 826.758 273.854C825.857 274.245 824.566 274.275 822.704 274.275C822.614 273.553 822.314 272.53 821.984 271.838C823.245 271.898 824.416 271.898 824.776 271.868C825.137 271.868 825.257 271.777 825.257 271.446V263.261H819.161C820.392 264.284 821.683 265.578 822.374 266.571L820.392 268.076C819.731 267.053 818.35 265.488 817.119 264.434ZM823.815 267.504L824.266 269.52C821.743 270.724 819.071 271.988 816.909 272.921L815.647 270.604C817.689 269.912 820.813 268.678 823.815 267.504ZM811.804 271.446V263.261H802.975V260.883H814.356V271.476C814.356 272.71 814.146 273.433 813.305 273.854C812.434 274.245 811.143 274.275 809.371 274.275C809.281 273.553 808.981 272.53 808.621 271.838C809.822 271.898 810.963 271.898 811.323 271.868C811.684 271.868 811.804 271.777 811.804 271.446ZM804.236 264.525L806.128 263.291C807.329 264.374 808.651 265.819 809.251 266.842L807.269 268.256C806.699 267.203 805.377 265.608 804.236 264.525ZM810.422 267.955L810.843 269.972C808.32 271.145 805.618 272.319 803.456 273.282L802.314 270.935C804.356 270.303 807.419 269.129 810.422 267.955ZM821.053 284.146H829.371V286.644H802.314V284.146H810.182C809.912 282.642 809.131 280.535 808.35 278.91L810.933 278.218C811.894 279.903 812.705 282.16 812.975 283.635L811.263 284.146H820.332L818.44 283.695C819.311 282.19 820.332 279.843 820.903 278.188H804.747V275.75H814.416V273.102H817.149V275.75H827.059V278.188H821.323L823.876 278.759C822.945 280.686 821.954 282.732 821.053 284.146ZM854.265 266.842L856.397 268.016C855.076 271.808 852.584 276.352 850.061 279.783C851.653 280.836 853.064 281.919 854.025 282.913L852.043 285.591C849.791 283.123 844.836 279.873 840.662 277.917L842.434 275.569C844.025 276.292 845.797 277.195 847.479 278.188C849.34 275.72 851.082 272.53 852.223 269.821H842.764C840.992 273.282 838.83 276.532 836.308 278.97C835.677 278.458 834.416 277.736 833.635 277.345C838.109 273.282 841.383 266.541 843.004 261.034L846.127 261.756C845.557 263.441 844.896 265.217 844.115 266.962H853.725L854.265 266.842ZM869.49 275.449H882.673V270.995H869.76C869.76 272.379 869.67 273.884 869.49 275.449ZM882.673 263.862H869.76V268.317H882.673V263.862ZM885.616 261.154V283.484C885.616 285.29 885.135 286.163 883.934 286.614C882.673 287.126 880.631 287.186 877.508 287.186C877.328 286.373 876.787 285.019 876.307 284.237C878.649 284.357 881.051 284.327 881.772 284.297C882.433 284.297 882.673 284.056 882.673 283.424V278.158H869.04C868.259 281.528 866.757 284.869 863.905 287.306C863.484 286.705 862.403 285.681 861.773 285.26C866.457 281.227 866.908 275.329 866.908 270.604V261.154H885.616Z" fill="#333333"/>
</g>
<defs>
<clipPath id="clip0_479_1926">
<rect width="1023" height="317" fill="white"/>
</clipPath>
</defs>
</svg>
