<svg width="725" height="231" viewBox="0 0 725 231" fill="none" xmlns="http://www.w3.org/2000/svg">
<path d="M415.382 198.898H398.423V196.485H415.382V198.898ZM415.382 204.948V206.67C415.382 207.769 415.382 208.256 414.015 208.256C412.792 208.256 411.626 207.984 411.02 207.77C410.817 207.77 409.382 207.283 408.361 207.283C406.522 207.283 405.231 208.937 405.231 210.581C405.231 212.507 406.666 213.266 407.138 213.538C408.496 214.229 411.838 214.91 414.833 214.91C422.596 214.91 422.807 210.367 422.807 209.608V186.767C422.807 184.218 419.6 181.883 417.973 181.883H394.878C393.521 181.883 390.516 183.81 390.516 187.253V209.482C390.516 212.993 390.516 214.988 394.667 214.988C398.413 214.988 398.413 212.575 398.413 209.482V204.939H415.373L415.382 204.948ZM413.812 188.43C415.382 188.43 415.382 189.121 415.382 190.843H398.423C398.423 189.325 398.423 188.43 399.992 188.43H413.822H413.812ZM370.282 190.911C368.105 190.911 365.582 193.392 365.582 195.931V208.519C365.582 210.785 367.893 213.47 370.282 213.47H381.453C383.63 213.47 386.153 210.989 386.153 208.519V195.931C386.153 193.586 383.842 190.911 381.453 190.911H370.282ZM372.94 199.374C372.94 198.411 373.075 198.071 374.095 198.071H378.044C379.2 198.071 379.2 198.693 379.2 199.374V204.812C379.2 205.571 379.2 206.116 378.044 206.116H374.095C372.94 206.116 372.94 205.561 372.94 204.812V199.374ZM410.615 162.904H419.745C421.989 162.904 422.942 162.904 423.694 162.418C424.098 162.077 425.196 161.25 425.196 159.529C425.196 158.634 424.926 157.807 424.242 157.048C423.289 156.085 422.538 156.085 419.745 156.085H410.615C410.548 153.672 409.594 152.028 406.387 152.028C402.439 152.028 402.236 154.713 402.159 156.085H394.05C391.257 156.085 390.506 156.085 389.62 156.98C389.004 157.602 388.599 158.351 388.599 159.529C388.599 160.219 388.734 161.114 389.485 161.873C390.439 162.904 391.19 162.904 394.05 162.904H402.159V164.694H396.371C394.127 164.694 393.174 164.694 392.423 165.181C391.806 165.667 390.92 166.552 390.92 167.934C390.92 168.829 391.257 169.86 392.49 170.687C393.174 171.173 394.127 171.173 396.371 171.173H402.159V173.099H393.232C390.988 173.099 390.034 173.099 389.283 173.585C388.667 174.072 387.781 174.957 387.781 176.338C387.781 177.165 388.05 178.265 389.35 179.091C390.034 179.578 390.988 179.578 393.232 179.578H420.612C422.856 179.578 423.809 179.578 424.56 179.091C425.177 178.605 426.063 177.72 426.063 176.338C426.063 175.58 425.793 174.412 424.493 173.585C423.809 173.099 422.856 173.099 420.612 173.099H410.596V171.173H417.617C419.861 171.173 420.814 171.173 421.565 170.687C422.182 170.2 423.068 169.305 423.068 167.934C423.068 167.039 422.73 166.007 421.498 165.181C420.814 164.694 419.861 164.694 417.617 164.694H410.596V162.904H410.615ZM371.649 153.75C369.675 153.75 368.789 153.75 368.24 153.954C367.421 154.159 366.198 155.258 366.198 156.912C366.198 158.011 366.747 158.906 367.701 159.597C368.452 160.083 369.338 160.083 371.582 160.083H380.644C382.888 160.083 383.842 160.083 384.593 159.597C385.546 158.974 386.095 158.147 386.095 156.98C386.095 153.75 383.37 153.75 380.779 153.75H371.649ZM368.856 162.554C365.861 162.554 363.405 162.554 363.405 166.338C363.405 167.71 363.887 168.4 364.359 168.887C365.312 169.85 365.996 169.85 368.856 169.85H383.023C386.018 169.85 388.474 169.85 388.474 166.066C388.474 164.694 387.992 164.003 387.521 163.517C386.567 162.554 385.883 162.554 383.023 162.554H368.856ZM370.898 172.467C368.654 172.467 367.701 172.467 367.017 172.953C366.4 173.362 365.514 174.257 365.514 175.638C365.514 176.465 365.784 177.564 367.017 178.391C367.768 178.877 368.654 178.877 370.898 178.877H380.712C382.956 178.877 383.909 178.877 384.66 178.391C385.277 177.983 386.163 177.088 386.163 175.706C386.163 174.879 385.826 173.78 384.66 172.953C383.909 172.467 382.956 172.467 380.712 172.467H370.898ZM370.898 181.416C368.721 181.416 367.701 181.416 367.017 181.903C366.333 182.389 365.514 183.275 365.514 184.656C365.514 185.483 365.784 186.582 367.017 187.409C367.768 187.895 368.654 187.895 370.898 187.895H380.712C382.956 187.895 383.909 187.895 384.66 187.409C385.344 186.922 386.163 186.037 386.163 184.656C386.163 183.897 385.893 182.73 384.66 181.903C383.909 181.416 382.956 181.416 380.712 181.416H370.898Z" fill="#FDD000"/>
<path d="M477.866 162.087C477.385 161.533 474.804 158.926 474.524 158.575C473.369 157.126 473.022 156.786 473.022 155.55C473.022 153.624 474.457 151.834 476.364 151.834C478.271 151.834 479.571 153.069 481.064 154.519C482.971 156.309 485.898 159.266 485.898 161.124C485.898 161.533 485.831 161.815 485.764 162.087H487.94C490.598 162.087 493.391 162.087 493.391 165.94C493.391 169.792 490.531 169.792 487.94 169.792H466.887V209.628C466.887 210.659 466.136 212.108 465.25 213.071C464.431 213.898 463.006 214.93 458.846 214.93C454.685 214.93 450.197 213.83 448.223 212.176C447.472 211.554 446.721 210.523 446.721 208.665C446.721 205.221 449.648 205.085 450.669 205.085C451.42 205.085 452.306 205.289 453.058 205.571C455.167 206.194 456.804 206.398 457.488 206.398C458.711 206.398 458.711 205.503 458.711 204.608V169.792H437.321C434.663 169.792 431.87 169.792 431.87 165.94C431.87 162.087 434.73 162.087 437.321 162.087H458.711V157.826C458.711 154.801 458.711 152.32 462.457 152.32C466.887 152.32 466.887 154.315 466.887 157.826V162.087H477.857H477.866ZM481.815 179.568C487.131 174.821 487.266 174.617 488.903 174.617C491.147 174.617 492.987 176.611 492.987 178.742C492.987 179.841 492.505 180.872 491.417 181.971C488.422 184.928 484.877 187.477 481.266 189.676C483.173 193.188 485.764 196.009 488.21 198.139C493.593 202.818 493.998 203.986 493.998 205.435C493.998 207.361 491.956 209.423 490.049 209.423C486.505 209.423 481.805 204.054 478.743 200.269C475.545 196.417 468.255 184.646 468.255 180.59C468.255 178.041 470.913 176.806 472.338 176.806C473.494 176.806 474.313 177.292 474.929 177.973C475.064 178.177 476.701 181.212 477.587 182.856C478.271 182.302 481.67 179.695 481.815 179.549V179.568ZM449.456 188.304C448.974 188.304 448.088 188.1 447.616 187.818C438.284 182.107 437.263 181.417 436.782 181.008C435.896 180.113 435.761 179.286 435.761 178.673C435.761 176.883 437.051 174.481 439.575 174.481C441.414 174.481 442.637 175.103 446.316 177.37C452.451 181.086 453.539 181.777 453.058 184.802C452.576 187.623 450.4 188.314 449.446 188.314L449.456 188.304ZM442.368 194.219C443.658 193.664 444.274 193.256 449.995 189.608C451.497 188.645 452.172 188.304 452.99 188.304C454.83 188.304 456.467 189.754 456.467 192.293C456.467 194.832 455.648 196.145 446.384 201.164C438.756 205.289 437.119 205.98 435.279 205.98C433.44 205.98 431.466 204.054 431.466 201.573C431.466 200.192 432.149 198.888 433.305 198.411L442.368 194.219Z" fill="#FDD000"/>
<path d="M544.848 183.761C545.329 183.761 545.599 183.898 545.599 184.248C545.599 184.452 545.532 184.656 545.464 184.734C542.604 190.104 537.769 193.606 532.318 196.914C529.188 194.433 524.344 190.24 521.012 183.771H544.858L544.848 183.761ZM503.022 206.671C502.001 206.875 500.161 207.77 500.161 210.387C500.161 212.041 500.71 214.998 503.908 214.998C508.742 214.998 521.282 212.177 531.837 206.739C540.216 211.758 553.361 214.648 558.331 214.648C560.305 214.648 561.875 213.753 561.875 210.523C561.875 207.838 560.373 207.147 558.947 206.943C552.206 205.912 547.573 205.221 540.148 201.719C554.517 191.466 555.268 182.866 555.268 181.563C555.268 180.736 555.268 175.785 549.615 175.785H535.448V167.808H556.154C559.419 167.808 561.605 167.808 561.605 163.683C561.605 160.035 559.015 160.035 556.154 160.035H535.448V157.418C535.448 153.566 535.448 151.912 530.614 151.912C526.733 151.912 526.733 154.247 526.733 157.418V160.035H505.545C502.28 160.035 500.094 160.035 500.094 164.16C500.094 167.808 502.752 167.808 505.545 167.808H526.733V175.785H510.659C507.317 175.785 505.208 175.785 505.208 180.045C505.208 183.761 507.799 183.761 510.659 183.761H512.017C513.789 189.608 518.007 195.737 524.074 201.165C522.235 201.992 517.4 204.19 513.24 204.881L503.022 206.671Z" fill="#FDD000"/>
<path d="M587.984 164.286C590.44 164.286 593.021 164.218 593.021 168.07C593.021 171.3 591.586 172.059 587.984 172.059H584.921V181.213C586.626 180.872 589.554 180.318 590.026 180.318C593.435 180.318 593.57 183.762 593.57 184.511C593.57 186.028 593.165 187.264 591.932 187.818C591.316 188.022 586.01 189.19 584.912 189.472V207.566C584.912 214.726 579.663 214.726 577.891 214.726C575.714 214.726 572.372 214.521 570.6 213.208C569.31 212.313 568.693 210.941 568.693 209.56C568.693 207.43 570.196 205.504 571.689 205.504C572.305 205.504 575.098 206.399 575.637 206.399C576.658 206.399 576.86 206.194 576.86 203.714V191.262C575.637 191.534 572.777 192.089 571.612 192.089C569.84 192.089 567.663 190.853 567.663 187.614C567.663 184.17 570.321 183.898 571.891 183.693C573.595 183.489 575.772 183.071 576.86 182.867V172.069H573.663C570.735 172.069 568.144 172.069 568.144 168.421C568.144 164.296 570.321 164.296 573.663 164.296H576.86V157.963C576.86 155.006 576.86 152.457 580.607 152.457C584.902 152.457 584.902 154.519 584.902 157.963V164.296H587.965L587.984 164.286ZM619.187 199.511C618.706 197.449 616.731 188.022 616.327 186.096C616.057 185.065 614.757 180.318 614.487 179.355C614.285 178.46 614.083 177.497 614.083 176.67C614.083 174.539 615.104 172.954 618.234 172.954C621.364 172.954 621.913 175.298 622.25 176.261C623.136 179.219 629.945 205.572 629.945 209.842C629.945 214.113 626.815 214.249 625.717 214.249C624.696 214.249 623.126 213.626 622.52 212.459C622.385 212.187 621.085 207.508 620.882 206.749C618.638 207.235 608.622 209.297 606.581 209.774C606.032 209.91 594.928 212.595 590.709 212.595C588.186 212.595 586.896 210.183 586.896 208.052C586.896 204.823 589.284 204.336 594.725 203.441C598.741 183.217 599.155 180.94 601.265 166.971C601.669 164.354 602.083 160.093 602.488 157.409C602.892 155.21 603.306 152.661 606.706 152.661C610.789 152.661 610.789 156.582 610.789 157.545C610.789 164.909 603.769 200.348 603.431 202.06C607.447 201.573 610.173 201.165 619.168 199.511H619.187Z" fill="#FDD000"/>
<path d="M342.661 84.7507L317.64 144.51L296.202 135.18L321.03 74.9741L342.661 84.741V84.7507ZM274.543 64.0204L281.294 99.3329L259.682 103.603L252.614 68.1646L274.533 64.0204H274.543ZM302.944 58.709L309.695 94.0215L288.083 98.292L281.015 62.8531L302.934 58.709H302.944Z" fill="white"/>
<path d="M8.3787 21.2852C5.37392 21.2852 2.91809 23.7658 2.91809 26.8009V121.785C2.91809 124.82 5.12352 128.39 7.82975 129.713L65.5466 158.07C68.2432 159.393 72.6733 159.412 75.3796 158.099L133.982 129.684C136.689 128.37 138.904 124.82 138.904 121.785V26.8009C138.904 23.7658 136.448 21.2852 133.443 21.2852H8.3787ZM35.7299 127.621C26.4363 127.621 18.8954 120.004 18.8954 110.617C18.8954 101.229 26.4363 93.6125 35.7299 93.6125C45.0236 93.6125 52.5644 101.229 52.5644 110.617C52.5644 120.004 45.0236 127.621 35.7299 127.621ZM106.217 127.621C96.9235 127.621 89.3826 120.004 89.3826 110.617C89.3826 101.229 96.9235 93.6125 106.217 93.6125C115.511 93.6125 123.052 101.229 123.052 110.617C123.052 120.004 115.511 127.621 106.217 127.621ZM117.976 59.3215V82.9799H82.7663V145.258H58.0636V82.5324H20.003L19.5022 57.3272H58.0636V30.9839H82.7663V57.765H98.58C94.8914 54.6423 92.5415 49.9632 92.5415 44.7198C92.5415 35.3323 100.082 27.7153 109.376 27.7153C118.67 27.7153 126.21 35.3323 126.21 44.7198C126.21 50.9262 122.907 56.3447 117.986 59.3117L117.976 59.3215Z" fill="white"/>
<path d="M109.376 37.5117C105.427 37.5117 102.22 40.7511 102.22 44.7396C102.22 48.728 105.427 51.9675 109.376 51.9675C113.325 51.9675 116.532 48.728 116.532 44.7396C116.532 40.7511 113.325 37.5117 109.376 37.5117Z" fill="white"/>
<path d="M184.361 35.7895L179.738 56.6365H245.968V81.8416H220.081L214.784 144.791H190.332L195.253 81.8416H174.239L170.175 100.48L145.279 94.2837L159.292 29.3398L184.37 35.7797L184.361 35.7895Z" fill="white"/>
<path d="M377.639 73.4268V28.7949H351.338V142.495H377.639V101.054L426.034 112.737L432.342 87.2405L377.639 73.4268Z" fill="white"/>
<path d="M498.341 63.2124C499.141 63.6599 505.381 67.1522 505.381 67.1522L504.303 67.5899C502.126 68.4752 499.738 69.341 497.214 70.1678L489.789 72.5609C489.789 72.5609 496.02 90.0518 496.348 90.9759C501.847 89.3319 507.019 87.5031 511.718 85.5283C516.543 83.4951 520.983 81.1896 524.912 78.6798L525.182 78.5047L546.11 90.6646L555.538 73.9715L540.36 64.9926L540.765 64.477C542.729 61.9185 544.742 58.9321 546.745 55.6051C548.71 52.3462 550.732 48.6302 552.764 44.5931C552.418 44.058 543.557 30.507 543.249 30.04H489.202V48.7177H505.323C505.323 48.7177 498.775 62.2979 498.341 63.1929V63.2124ZM527.378 48.2508L522.534 54.8658L522.119 54.6226L511.352 48.2508H527.387H527.378Z" fill="white"/>
<path d="M531.24 115.131H547.246C547.275 114.129 547.756 97.4159 547.785 96.3556H531.24V86.2969H512.036V95.3925H495.818V114.771H511.487L511.217 121.998H491.744C491.744 122.105 491.06 141.513 491.022 142.602C492.12 142.602 552.119 142.602 553.198 142.602V122.903H531.24V115.131Z" fill="white"/>
<path d="M437.398 124.227C437.398 118.137 442.31 113.176 448.339 113.176C454.367 113.176 459.279 118.137 459.279 124.227C459.279 130.316 454.367 135.278 448.339 135.278C442.31 135.278 437.398 130.316 437.398 124.227Z" fill="white"/>
<path d="M467.918 123.214C467.918 119.926 469.314 116.959 471.529 114.868V100.957L474.37 99.8283C474.37 99.8283 476.268 109.323 476.451 110.286C477.423 110.033 491.735 106.346 492.726 106.093C492.534 105.052 486.698 73.6503 486.505 72.5997C485.542 72.8721 476.316 75.5084 476.316 75.5084L491.523 54.9435L477.876 45.3809L468.794 56.7918L464.749 53.3092L476.817 38.3768C476.817 38.3768 464.942 28.6974 464.114 28.2402C463.555 29.1741 440.355 59.253 440.355 59.253L455.485 72.5316L437.937 92.4156L441 108.078L455.234 104.78C455.234 104.78 455.234 108.652 455.234 113.905C458.518 116.142 460.675 119.926 460.675 124.216C460.675 128.506 458.509 132.3 455.224 134.538C455.224 139.032 455.225 142.31 455.244 142.602C456.294 142.427 471.558 142.602 471.558 142.602V131.551C469.343 129.469 467.947 126.502 467.947 123.214H467.918ZM465.433 85.5963L470.595 79.2244L471.626 85.0028L464.403 86.8706L465.443 85.5865L465.433 85.5963Z" fill="white"/>
<path d="M469.285 123.215C469.285 117.68 473.744 113.166 479.234 113.166C484.723 113.166 489.182 117.67 489.182 123.215C489.182 128.76 484.723 133.264 479.234 133.264C473.744 133.264 469.285 128.76 469.285 123.215Z" fill="white"/>
<path d="M644.93 122.485V116.746H663.999V97.854H644.93V91.1222C644.93 91.1222 668.583 91.093 669.623 91.1222C669.643 90.2564 669.623 35.8869 669.623 35.8869C669.623 32.8518 667.322 29.8848 664.346 29.8848H609.162C606.186 29.8848 603.508 31.879 603.508 34.9141V91.1222H625.466L625.187 97.494H607.958V116.269H624.436L624.157 122.495H604.674C604.674 122.495 599.56 106.901 599.223 105.928C598.317 106.249 588.552 109.07 588.552 109.07V94.6924C588.552 94.6924 598.057 94.7507 598.992 94.6924C598.943 93.6807 599.04 75.9466 598.992 74.9057C598.029 74.9544 588.552 74.9057 588.552 74.9057V54.584C588.552 54.584 598.048 54.6716 598.992 54.584C598.924 53.5821 599.059 36.9862 598.992 35.9453C597.942 36.0231 560.334 35.9453 560.334 35.9453C560.334 35.9453 560.267 53.5334 560.334 54.584C561.307 54.5062 570.446 54.584 570.446 54.584V74.9057C570.446 74.9057 561.297 74.8571 560.334 74.9057C560.382 75.9369 560.286 93.6418 560.334 94.6924C561.316 94.634 570.446 94.6924 570.446 94.6924V115.413L558.119 120.627L563.859 139.266L600.35 125.958V142.622C600.35 142.622 669.931 142.603 670.972 142.622C671.01 141.62 671.742 123.555 671.781 122.505C670.711 122.475 644.921 122.505 644.921 122.505L644.93 122.485ZM650.092 53.0957H644.93V47.4924H650.092V53.0957ZM626.988 72.7461H621.653V67.4541H626.988V72.7461ZM627.45 52.5509H621.999V46.8892H627.45V52.5509ZM644.42 72.4348V67.9405H649.64V72.9991H644.42V72.4348Z" fill="white"/>
<path d="M689.366 128.574H684.724V125.092H698.179V128.574H693.508V142.495H689.366V128.574Z" fill="white"/>
<path d="M700.827 125.102H705.286L708.011 132.621C708.358 133.623 708.637 134.723 708.955 135.773H709.071C709.417 134.723 709.697 133.623 710.015 132.621L712.653 125.102H717.141V142.495H713.376V136.542C713.376 134.81 713.703 132.222 713.934 130.52H713.819L712.384 134.674L710.072 141.026H707.809L705.479 134.674L704.092 130.52H703.995C704.207 132.222 704.525 134.82 704.525 136.542V142.495H700.827V125.102Z" fill="white"/>
</svg>
