<svg width="746" height="143" viewBox="0 0 746 143" fill="none" xmlns="http://www.w3.org/2000/svg">
<g clip-path="url(#clip0_156_126)">
<path d="M551.81 97.4061H568.528C568.558 96.3662 569.061 79.0212 569.091 77.9207H551.81V67.4814H531.752V76.9212H514.813V97.0325H531.179L530.897 104.534H510.558C510.558 104.645 509.843 124.786 509.803 125.917C510.95 125.917 573.618 125.917 574.745 125.917V105.473H551.81V97.4061Z" fill="white" stroke="#F4F4F4" stroke-width="10" stroke-linecap="round" stroke-linejoin="round"/>
<path d="M561.758 44.5133C563.81 41.8581 565.913 38.7586 568.005 35.3058C570.057 31.9236 572.169 28.0669 574.292 23.8771C573.93 23.3218 564.675 9.25805 564.354 8.77344H507.902V28.1578H524.741C524.741 28.1578 517.901 42.2518 517.448 43.1807C518.283 43.6451 524.801 47.2696 524.801 47.2696L523.675 47.7239C521.401 48.6426 518.907 49.5412 516.271 50.3993L508.516 52.8829C508.516 52.8829 515.024 71.0356 515.366 71.9947C521.11 70.2885 526.511 68.3904 531.42 66.3409C536.46 64.2309 541.097 61.8381 545.201 59.2333L545.483 59.0516L567.341 71.6716L577.189 54.3469L561.336 45.0282L561.758 44.4932V44.5133ZM542.717 34.5284L542.284 34.276L531.038 27.6631H547.786L542.727 34.5284H542.717Z" fill="white" stroke="#F4F4F4" stroke-width="10" stroke-linecap="round" stroke-linejoin="round"/>
<path d="M476.659 106.503C476.659 100.183 471.528 95.0342 465.232 95.0342C458.935 95.0342 453.804 100.183 453.804 106.503C453.804 112.823 458.935 117.972 465.232 117.972C471.528 117.972 476.659 112.823 476.659 106.503Z" fill="white" stroke="#F4F4F4" stroke-width="10" stroke-linecap="round" stroke-linejoin="round"/>
<path d="M489.444 96.8005V82.3632L492.411 81.1921C492.411 81.1921 494.393 91.0458 494.584 92.0453C495.6 91.7828 510.548 87.9564 511.584 87.6939C511.382 86.6137 505.287 54.0237 505.085 52.9333C504.08 53.216 494.443 55.9521 494.443 55.9521L510.326 34.6091L496.073 24.6847L486.587 36.5273L482.362 32.9129L494.966 17.4156C494.966 17.4156 482.563 7.37002 481.698 6.89551C481.115 7.86473 456.882 39.0816 456.882 39.0816L472.685 52.8627L454.358 73.4989L457.556 89.7535L472.424 86.331C472.424 86.331 472.424 90.3492 472.424 95.801C475.854 98.1231 478.107 102.05 478.107 106.503C478.107 110.955 475.844 114.893 472.414 117.215C472.414 121.879 472.414 125.281 472.434 125.584C473.53 125.403 489.474 125.584 489.474 125.584V114.115C487.16 111.955 485.702 108.875 485.702 105.463C485.702 102.05 487.16 98.9712 489.474 96.8005H489.444ZM483.086 66.4216L488.478 59.8087L489.554 65.8058L482.01 67.7442L483.096 66.4115L483.086 66.4216Z" fill="white" stroke="#F4F4F4" stroke-width="10" stroke-linecap="round" stroke-linejoin="round"/>
<path d="M497.491 95.0342C491.767 95.0342 487.1 99.7086 487.1 105.463C487.1 111.218 491.757 115.893 497.491 115.893C503.225 115.893 507.882 111.218 507.882 105.463C507.882 99.7086 503.225 95.0342 497.491 95.0342Z" fill="white" stroke="#F4F4F4" stroke-width="10" stroke-linecap="round" stroke-linejoin="round"/>
<path d="M670.567 104.706V98.7489H690.484V79.1424H670.567V72.156C670.567 72.156 695.272 72.1257 696.359 72.156C696.379 71.2574 696.359 14.8308 696.359 14.8308C696.359 11.6808 693.954 8.60156 690.846 8.60156H633.208C630.099 8.60156 627.303 10.6712 627.303 13.8212V72.156H650.238L649.946 78.7689H631.95V98.2542H649.161L648.87 104.716H628.52C628.52 104.716 623.179 88.5317 622.827 87.5221C621.881 87.8553 611.681 90.7831 611.681 90.7831V75.8612C611.681 75.8612 621.61 75.9218 622.585 75.8612C622.535 74.8112 622.636 56.4062 622.585 55.3259C621.579 55.3764 611.681 55.3259 611.681 55.3259V34.2353C611.681 34.2353 621.6 34.3262 622.585 34.2353C622.515 33.1955 622.656 15.9717 622.585 14.8914C621.489 14.9721 582.208 14.8914 582.208 14.8914C582.208 14.8914 582.138 33.145 582.208 34.2353C583.224 34.1546 592.77 34.2353 592.77 34.2353V55.3259C592.77 55.3259 583.214 55.2754 582.208 55.3259C582.259 56.3961 582.158 74.7709 582.208 75.8612C583.234 75.8006 592.77 75.8612 592.77 75.8612V97.3657L579.895 102.777L585.89 122.121L624.004 108.31V125.604C624.004 125.604 696.68 125.584 697.767 125.604C697.807 124.564 698.572 105.816 698.612 104.726C697.495 104.695 670.557 104.726 670.557 104.726L670.567 104.706ZM670.567 32.1051V26.8754H675.959V32.6907H670.567V32.1051ZM651.827 53.0846H646.254V47.5924H651.827V53.0846ZM652.31 32.1253H646.616V26.2494H652.31V32.1253ZM670.034 52.7615V48.0972H675.486V53.3471H670.034V52.7615Z" fill="white" stroke="#F4F4F4" stroke-width="10" stroke-linecap="round" stroke-linejoin="round"/>
<path d="M354.853 65.8669L328.72 127.887L306.329 118.205L332.261 55.7204L354.853 65.8568V65.8669ZM283.706 44.3523L290.757 81.0008L268.185 85.433L260.801 48.6532L283.696 44.3523H283.706ZM313.37 38.8398L320.421 75.4884L297.849 79.9205L290.465 43.1407L313.36 38.8398H313.37Z" fill="#2175D6"/>
<path d="M5.70349 0C2.56506 0 0 2.57448 0 5.72444V104.302C0 107.452 2.30352 111.157 5.13012 112.53L65.4141 141.96C68.2306 143.333 72.8578 143.353 75.6844 141.99L136.894 112.5C139.72 111.137 142.034 107.452 142.034 104.302V5.72444C142.034 2.57448 139.469 0 136.33 0H5.70349ZM34.2712 110.36C24.5642 110.36 16.688 102.454 16.688 92.7117C16.688 82.9691 24.5642 75.0639 34.2712 75.0639C43.9782 75.0639 51.8545 82.9691 51.8545 92.7117C51.8545 102.454 43.9782 110.36 34.2712 110.36ZM107.893 110.36C98.1865 110.36 90.3102 102.454 90.3102 92.7117C90.3102 82.9691 98.1865 75.0639 107.893 75.0639C117.6 75.0639 125.477 82.9691 125.477 92.7117C125.477 102.454 117.6 110.36 107.893 110.36ZM120.176 39.4754V64.0289H83.3997V128.664H57.5982V63.5746H17.8448L17.3217 37.4158H57.5982V10.0758H83.3997V37.8702H99.9166C96.064 34.6394 93.6096 29.7732 93.6096 24.3314C93.6096 14.5887 101.486 6.68356 111.193 6.68356C120.9 6.68356 128.776 14.5887 128.776 24.3314C128.776 30.7727 125.326 36.3961 120.186 39.4754H120.176Z" fill="#2175D6"/>
<path d="M111.193 16.8398C107.069 16.8398 103.719 20.2018 103.719 24.3412C103.719 28.4806 107.069 31.8425 111.193 31.8425C115.317 31.8425 118.667 28.4806 118.667 24.3412C118.667 20.2018 115.317 16.8398 111.193 16.8398Z" fill="#2175D6"/>
<path d="M189.513 15.0628L184.684 36.6986H253.86V62.8573H226.822L221.289 128.189H195.749L200.889 62.8573H178.941L174.696 82.2013L148.693 75.7702L163.329 8.36914L189.523 15.0527L189.513 15.0628Z" fill="#2175D6"/>
<path d="M363.917 128.321C362.529 128.321 361.402 127.19 361.402 125.797V7.79451C361.402 6.40126 362.529 5.27051 363.917 5.27051H391.388C392.776 5.27051 393.903 6.40126 393.903 7.79451V52.1463L449.137 66.0081C450.485 66.3413 451.3 67.7144 450.968 69.0673L444.379 95.539C444.097 96.6799 443.071 97.4472 441.945 97.4472C441.754 97.4472 441.552 97.427 441.361 97.3765L393.913 85.9882V125.797C393.913 127.19 392.786 128.321 391.398 128.321H363.927H363.917Z" fill="#2175D6"/>
<path d="M391.388 7.7941V54.1146L448.523 68.451L441.935 94.9227L391.388 82.7873V125.796H363.917V7.7941H391.388ZM391.388 2.74609H363.917C361.14 2.74609 358.887 5.0076 358.887 7.7941V125.796C358.887 128.583 361.14 130.844 363.917 130.844H391.388C394.164 130.844 396.417 128.583 396.417 125.796V89.1781L440.768 99.8193C441.16 99.9102 441.553 99.9607 441.945 99.9607C444.198 99.9607 446.25 98.4261 446.823 96.1343L453.412 69.6625C454.086 66.9568 452.446 64.2207 449.751 63.5443L396.428 50.1671V7.7941C396.428 5.0076 394.174 2.74609 391.398 2.74609H391.388Z" fill="#F4F4F4"/>
<path d="M517.448 43.5134C518.283 43.9778 524.801 47.6022 524.801 47.6022L523.675 48.0566C521.401 48.9753 518.907 49.8739 516.271 50.732L508.516 53.2156C508.516 53.2156 515.024 71.3683 515.366 72.3274C521.11 70.6212 526.511 68.7231 531.42 66.6736C536.46 64.5636 541.097 62.1708 545.201 59.566L545.483 59.3843L567.341 72.0043L577.189 54.6796L561.336 45.3609L561.758 44.8258C563.81 42.1706 565.913 39.0711 568.005 35.6183C570.057 32.2361 572.169 28.3794 574.292 24.1896C573.93 23.6343 564.675 9.57055 564.354 9.08594H507.902V28.4703H524.741C524.741 28.4703 517.901 42.5643 517.448 43.4932V43.5134ZM547.776 27.9857L542.717 34.851L542.284 34.5986L531.038 27.9857H547.786H547.776Z" fill="#2175D6"/>
<path d="M551.81 97.4061H568.528C568.558 96.3662 569.061 79.0212 569.091 77.9207H551.81V67.4814H531.752V76.9212H514.813V97.0325H531.179L530.897 104.534H510.558C510.558 104.645 509.843 124.786 509.803 125.917C510.95 125.917 573.618 125.917 574.745 125.917V105.473H551.81V97.4061Z" fill="#2175D6"/>
<path d="M453.804 106.836C453.804 100.516 458.935 95.3672 465.232 95.3672C471.528 95.3672 476.659 100.516 476.659 106.836C476.659 113.156 471.528 118.305 465.232 118.305C458.935 118.305 453.804 113.156 453.804 106.836Z" fill="#2175D6"/>
<path d="M485.682 105.796C485.682 102.383 487.14 99.3042 489.454 97.1336V82.6963L492.421 81.5251C492.421 81.5251 494.403 91.3788 494.594 92.3783C495.61 92.1158 510.558 88.2894 511.594 88.0269C511.393 86.9467 505.297 54.3567 505.096 53.2664C504.09 53.549 494.453 56.2851 494.453 56.2851L510.336 34.9421L496.083 25.0177L486.597 36.8603L482.372 33.246L494.976 17.7486C494.976 17.7486 482.573 7.70303 481.708 7.22852C481.125 8.19773 456.893 39.4146 456.893 39.4146L472.695 53.1957L454.368 73.8319L457.567 90.0865L472.434 86.664C472.434 86.664 472.434 90.6822 472.434 96.1341C475.864 98.4561 478.117 102.383 478.117 106.836C478.117 111.288 475.854 115.226 472.424 117.548C472.424 122.212 472.424 125.614 472.444 125.917C473.54 125.736 489.484 125.917 489.484 125.917V114.448C487.17 112.288 485.712 109.208 485.712 105.796H485.682ZM483.086 66.7546L488.478 60.1417L489.554 66.1388L482.01 68.0772L483.096 66.7445L483.086 66.7546Z" fill="#2175D6"/>
<path d="M487.1 105.796C487.1 100.052 491.757 95.3672 497.491 95.3672C503.225 95.3672 507.882 100.042 507.882 105.796C507.882 111.551 503.225 116.226 497.491 116.226C491.757 116.226 487.1 111.551 487.1 105.796Z" fill="#2175D6"/>
<path d="M670.567 105.039V99.0819H690.484V79.4754H670.567V72.489C670.567 72.489 695.272 72.4587 696.359 72.489C696.379 71.5905 696.359 15.1638 696.359 15.1638C696.359 12.0139 693.954 8.93457 690.846 8.93457H633.208C630.099 8.93457 627.303 11.0043 627.303 14.1542V72.489H650.238L649.946 79.1019H631.95V98.5872H649.161L648.87 105.049H628.52C628.52 105.049 623.179 88.8647 622.827 87.8551C621.881 88.1883 611.681 91.1162 611.681 91.1162V76.1942C611.681 76.1942 621.61 76.2548 622.585 76.1942C622.535 75.1443 622.636 56.7392 622.585 55.6589C621.579 55.7094 611.681 55.6589 611.681 55.6589V34.5684C611.681 34.5684 621.6 34.6592 622.585 34.5684C622.515 33.5285 622.656 16.3047 622.585 15.2244C621.489 15.3052 582.208 15.2244 582.208 15.2244C582.208 15.2244 582.138 33.478 582.208 34.5684C583.224 34.4876 592.77 34.5684 592.77 34.5684V55.6589C592.77 55.6589 583.214 55.6085 582.208 55.6589C582.259 56.7291 582.158 75.1039 582.208 76.1942C583.234 76.1337 592.77 76.1942 592.77 76.1942V97.6988L579.895 103.11L585.89 122.454L624.004 108.643V125.937C624.004 125.937 696.68 125.917 697.767 125.937C697.807 124.897 698.572 106.149 698.612 105.059C697.495 105.028 670.557 105.059 670.557 105.059L670.567 105.039ZM675.959 33.0237H670.567V27.2084H675.959V33.0237ZM651.827 53.4176H646.254V47.9254H651.827V53.4176ZM652.31 32.4583H646.616V26.5824H652.31V32.4583ZM670.034 53.0945V48.4302H675.486V53.6801H670.034V53.0945Z" fill="#2175D6"/>
<path d="M716.98 111.137H712.131V107.522H726.184V111.137H721.305V125.584H716.98V111.137Z" fill="#2175D6"/>
<path d="M728.95 107.532H733.607L736.454 115.336C736.816 116.376 737.108 117.517 737.44 118.608H737.56C737.923 117.517 738.214 116.376 738.546 115.336L741.302 107.532H745.99V125.584H742.057V119.405C742.057 117.608 742.399 114.923 742.64 113.156H742.52L741.021 117.467L738.607 124.059H736.243L733.808 117.467L732.36 113.156H732.259C732.481 114.923 732.813 117.618 732.813 119.405V125.584H728.95V107.532Z" fill="#2175D6"/>
</g>
<defs>
<clipPath id="clip0_156_126">
<rect width="746" height="143" fill="white"/>
</clipPath>
</defs>
</svg>
