<?xml version="1.0" encoding="UTF-8"?>
<svg id="_レイヤー_1" data-name="レイヤー 1" xmlns="http://www.w3.org/2000/svg" viewBox="0 0 800 206">
  <defs>
    <style>
      .cls-1 {
        fill: #2175d6;
      }

      .cls-1, .cls-2 {
        stroke-width: 0px;
      }

      .cls-2 {
        fill: #fff;
      }
    </style>
  </defs>
  <g id="_レイヤー_2" data-name=" レイヤー 2">
    <rect class="cls-1" width="800" height="43"/>
    <path class="cls-1" d="m427.3,199.47L799.85,43H-.15l372.55,156.47c17.56,7.38,37.35,7.38,54.91,0h-.01Z"/>
    <g>
      <rect class="cls-2" x=".79" y="8.98" width="3" height="5" transform="translate(-9.15 9.03) rotate(-66.66)"/>
      <path class="cls-2" d="m405.15,178.45l-.23-2.99c3.27-.25,6.54-.75,9.74-1.49l.68,2.92c-3.35.77-6.78,1.3-10.19,1.56h0Zm-10.31,0c-3.42-.26-6.85-.79-10.19-1.56l.68-2.92c3.2.74,6.47,1.24,9.74,1.49l-.23,2.99h0Zm30.35-4.64l-1.11-2.79c.58-.23,1.16-.47,1.74-.72l7.5-3.24,1.19,2.75-7.5,3.24c-.6.26-1.21.51-1.82.75h0Zm-50.38,0c-.61-.24-1.21-.49-1.81-.75l-7.51-3.24,1.19-2.75,7.51,3.24c.57.25,1.15.49,1.73.72l-1.11,2.79h0Zm68.97-7.99l-1.19-2.75,9.27-4,1.19,2.75-9.27,4Zm-87.56,0l-9.27-4,1.19-2.75,9.27,4-1.19,2.75Zm106.1-8l-1.19-2.75,9.27-4,1.19,2.75-9.27,4Zm-124.63,0l-9.27-4,1.19-2.75,9.27,4-1.19,2.75Zm143.17-8l-1.19-2.75,9.27-4,1.19,2.75-9.27,4Zm-161.71,0l-9.27-4,1.19-2.75,9.27,4-1.19,2.75Zm180.25-8l-1.19-2.75,9.27-4,1.19,2.75-9.27,4Zm-198.78,0l-9.27-4,1.19-2.75,9.27,4-1.19,2.75Zm217.32-8l-1.19-2.75,9.27-4,1.19,2.75-9.27,4Zm-235.86,0l-9.27-4,1.19-2.75,9.27,4-1.19,2.75Zm254.4-8l-1.19-2.75,9.27-4,1.19,2.75-9.27,4Zm-272.94,0l-9.27-4,1.19-2.75,9.27,4-1.19,2.75Zm291.48-8l-1.19-2.75,9.27-4,1.19,2.75-9.27,4Zm-310.01,0l-9.27-4,1.19-2.75,9.27,4-1.19,2.75Zm328.55-8l-1.19-2.75,9.27-4,1.19,2.75-9.27,4Zm-347.09,0l-9.27-4,1.19-2.75,9.27,4-1.19,2.75Zm365.63-8l-1.19-2.75,9.27-4,1.19,2.75-9.27,4Zm-384.17,0l-9.27-4,1.19-2.75,9.27,4-1.19,2.75Zm402.7-8l-1.19-2.75,9.27-4,1.19,2.75-9.27,4Zm-421.24,0l-9.27-4,1.19-2.75,9.27,4-1.19,2.75Zm439.78-8l-1.19-2.75,9.27-4,1.19,2.75-9.27,4Zm-458.32,0l-9.27-4,1.19-2.75,9.27,4-1.19,2.75Zm476.85-8l-1.19-2.75,9.27-4,1.19,2.75-9.27,4Zm-495.39,0l-9.27-4,1.19-2.75,9.27,4-1.19,2.75Zm513.93-8l-1.19-2.75,9.27-4,1.19,2.75-9.27,4Zm-532.47,0l-9.27-4,1.19-2.75,9.27,4-1.19,2.75Zm551.01-8l-1.19-2.75,9.27-4,1.19,2.75-9.27,4Zm-569.54,0l-9.27-4,1.19-2.75,9.27,4-1.19,2.75Zm588.08-8l-1.19-2.75,9.27-4,1.19,2.75-9.27,4Zm-606.62,0l-9.27-4,1.19-2.75,9.27,4-1.19,2.75Zm625.16-8l-1.19-2.75,9.27-4,1.19,2.75-9.27,4Zm-643.7,0l-9.27-4,1.19-2.75,9.27,4-1.19,2.75Zm662.23-8l-1.19-2.75,9.27-4,1.19,2.75-9.27,4Zm-680.77,0l-9.27-4,1.19-2.75,9.27,4-1.19,2.75Zm699.31-8l-1.19-2.75,9.27-4,1.19,2.75-9.27,4Zm-717.85,0l-9.27-4,1.19-2.75,9.27,4-1.19,2.75Zm736.39-8l-1.19-2.75,9.27-4,1.19,2.75-9.27,4Zm-754.92,0l-9.27-4,1.19-2.75,9.27,4-1.19,2.75Z"/>
      <rect class="cls-2" x="795.22" y="10.01" width="5" height="3" transform="translate(60.77 317.12) rotate(-23.35)"/>
    </g>
  </g>
</svg>