<svg width="375" height="97" viewBox="0 0 375 97" fill="none" xmlns="http://www.w3.org/2000/svg">
<g clip-path="url(#clip0_205_851)">
<path d="M519.516 3.97031L694.148 -69.375H319.148L493.777 3.97031C502.008 7.4297 511.284 7.4297 519.516 3.97031Z" fill="#2175D6"/>
<path d="M375 0H0V20.1562H375V0Z" fill="#2175D6"/>
<path d="M200.297 93.0455L374.93 19.7002H-0.0703125L174.562 93.0455C182.794 96.5049 192.07 96.5049 200.302 93.0455H200.297Z" fill="#2175D6"/>
<path d="M0.276879 4.26937L-0.280258 5.56055L1.8717 6.48911L2.42884 5.19793L0.276879 4.26937Z" fill="white"/>
<path d="M189.914 83.6483L189.806 82.2468C191.339 82.1296 192.872 81.8952 194.372 81.5483L194.691 82.9171C193.12 83.278 191.512 83.5265 189.914 83.6483ZM185.081 83.6483C183.478 83.5265 181.87 83.278 180.305 82.9171L180.623 81.5483C182.123 81.8952 183.656 82.1296 185.189 82.2468L185.081 83.6483ZM199.308 81.4733L198.788 80.1655C199.059 80.0577 199.331 79.9452 199.603 79.828L203.119 78.3093L203.677 79.5983L200.161 81.1171C199.88 81.239 199.594 81.3562 199.308 81.4687V81.4733ZM175.692 81.4733C175.406 81.3608 175.125 81.2437 174.844 81.1218L171.323 79.603L171.881 78.314L175.402 79.8327C175.669 79.9499 175.941 80.0624 176.213 80.1702L175.692 81.478V81.4733ZM208.022 77.728L207.464 76.439L211.809 74.564L212.367 75.853L208.022 77.728ZM166.978 77.728L162.633 75.853L163.191 74.564L167.536 76.439L166.978 77.728ZM216.713 73.978L216.155 72.689L220.5 70.814L221.058 72.103L216.713 73.978ZM158.292 73.978L153.947 72.103L154.505 70.814L158.85 72.689L158.292 73.978ZM225.403 70.228L224.845 68.939L229.191 67.064L229.748 68.353L225.403 70.228ZM149.602 70.228L145.256 68.353L145.814 67.064L150.159 68.939L149.602 70.228ZM234.094 66.478L233.536 65.189L237.881 63.314L238.439 64.603L234.094 66.478ZM140.916 66.478L136.57 64.603L137.128 63.314L141.473 65.189L140.916 66.478ZM242.784 62.728L242.227 61.439L246.572 59.564L247.13 60.853L242.784 62.728ZM132.225 62.728L127.88 60.853L128.438 59.564L132.783 61.439L132.225 62.728ZM251.475 58.978L250.917 57.689L255.262 55.814L255.82 57.103L251.475 58.978ZM123.534 58.978L119.189 57.103L119.747 55.814L124.092 57.689L123.534 58.978ZM260.166 55.228L259.608 53.939L263.953 52.064L264.511 53.353L260.166 55.228ZM114.848 55.228L110.503 53.353L111.061 52.064L115.406 53.939L114.848 55.228ZM268.856 51.478L268.298 50.189L272.644 48.314L273.202 49.603L268.856 51.478ZM106.158 51.478L101.813 49.603L102.37 48.314L106.716 50.189L106.158 51.478ZM277.547 47.728L276.989 46.439L281.334 44.564L281.892 45.853L277.547 47.728ZM97.4672 47.728L93.1219 45.853L93.6797 44.564L98.025 46.439L97.4672 47.728ZM286.233 43.978L285.675 42.689L290.02 40.814L290.578 42.103L286.233 43.978ZM88.7766 43.978L84.4313 42.103L84.9891 40.814L89.3344 42.689L88.7766 43.978ZM294.923 40.228L294.366 38.939L298.711 37.064L299.269 38.353L294.923 40.228ZM80.0859 40.228L75.7406 38.353L76.2984 37.064L80.6438 38.939L80.0859 40.228ZM303.609 36.478L303.052 35.189L307.397 33.314L307.955 34.603L303.609 36.478ZM71.3953 36.478L67.05 34.603L67.6078 33.314L71.9531 35.189L71.3953 36.478ZM312.3 32.728L311.742 31.439L316.087 29.564L316.645 30.853L312.3 32.728ZM62.7047 32.728L58.3594 30.853L58.9172 29.564L63.2625 31.439L62.7047 32.728ZM320.991 28.978L320.433 27.689L324.778 25.814L325.336 27.103L320.991 28.978ZM54.0188 28.978L49.6734 27.103L50.2313 25.814L54.5766 27.689L54.0188 28.978ZM329.681 25.228L329.123 23.939L333.469 22.064L334.027 23.353L329.681 25.228ZM45.3281 25.228L40.9828 23.353L41.5406 22.064L45.8859 23.939L45.3281 25.228ZM338.372 21.478L337.814 20.189L342.159 18.314L342.717 19.603L338.372 21.478ZM36.6375 21.478L32.2922 19.603L32.85 18.314L37.1953 20.189L36.6375 21.478ZM347.058 17.728L346.5 16.439L350.845 14.564L351.403 15.853L347.058 17.728ZM27.9469 17.728L23.6016 15.853L24.1594 14.564L28.5047 16.439L27.9469 17.728ZM355.748 13.978L355.191 12.689L359.536 10.814L360.094 12.103L355.748 13.978ZM19.2563 13.978L14.9109 12.103L15.4688 10.814L19.8141 12.689L19.2563 13.978ZM364.439 10.228L363.881 8.93896L368.227 7.06396L368.784 8.35303L364.439 10.228ZM10.5703 10.228L6.22501 8.35303L6.78282 7.06396L11.1281 8.93896L10.5703 10.228Z" fill="white"/>
<path d="M374.728 4.28688L372.576 5.21582L373.134 6.5069L375.285 5.57796L374.728 4.28688Z" fill="white"/>
</g>
<defs>
<clipPath id="clip0_205_851">
<rect width="375" height="96.5625" fill="white"/>
</clipPath>
</defs>
</svg>
