<svg width="272" height="115" viewBox="0 0 272 115" fill="none" xmlns="http://www.w3.org/2000/svg">
<g clip-path="url(#clip0_499_3)">
<path d="M5.0621 80.3071C5.34489 80.1566 6.34408 80.2695 5.90104 79.6254C5.32132 78.9908 5.3496 78.0083 5.47214 77.2092C5.74079 76.4523 6.60801 77.0352 7.1783 76.9694C8.46971 77.4442 9.5773 78.3891 10.7367 79.2917C15.3745 76.2549 20.2055 73.3027 24.7961 69.9885C23.6319 68.7146 21.4262 67.5205 20.9124 65.6214C19.9321 63.9243 18.8999 62.1803 18.3391 60.2811C15.6855 58.0247 12.1601 57.3853 11.0007 53.8737C10.765 51.4528 9.74697 48.0728 12.3816 46.733C14.0784 46.0279 16.2228 46.4745 17.6227 47.692C19.2911 43.1086 20.9549 38.4829 24.3955 34.6892C26.8416 31.0648 30.6074 27.0737 34.9529 26.0536C35.3771 25.9455 35.6646 26.1241 35.8154 26.4015C36.2113 27.1348 35.5091 27.7648 35.7589 28.4605C38.172 25.6305 41.2827 24.554 44.4876 23.2425C45.6235 23.1155 46.8584 23.172 47.3532 24.1827C47.4664 25.0664 46.6274 25.9784 46.552 26.8246C48.0508 25.6587 49.6957 24.9066 51.4395 24.2485C52.1041 24.3237 52.8629 24.3472 53.1646 25.0382C53.5605 25.9126 52.9619 26.7259 52.9289 27.5673C54.6209 26.6271 56.2564 25.3156 58.3962 25.6258C59.697 26.613 59.2492 28.075 59.1361 29.5276C59.1503 30.181 57.9296 30.8721 58.8863 31.4033C64.0755 34.7456 66.5075 40.0906 67.0448 45.821C67.2899 46.1407 66.9694 46.7565 67.3512 47.0245C68.4587 45.4027 70.344 44.7868 72.2481 45.0078C73.2992 45.445 73.7469 46.5027 73.7233 47.5792C73.959 52.2895 70.5278 56.4593 66.6395 59.1905C66.1163 59.2046 66.418 59.9003 66.088 60.1401C65.8524 62.5752 63.8446 64.4132 62.8925 66.5898C62.473 67.0222 61.9546 67.0834 61.5823 67.6569C66.6018 69.5607 71.6684 71.3659 75.9668 75.1596V75.4416C77.2016 75.216 78.2338 74.5766 79.6619 74.7694C80.4961 73.8574 80.7978 72.2591 82.3673 72.3531C86.1661 72.3766 89.338 74.5202 92.5995 76.2455C93.3678 76.6874 92.8163 77.5946 92.7315 78.2058C89.8423 83.2922 86.7599 88.3363 84.0122 93.512C81.9148 95.4911 80.105 92.6517 77.9228 92.7645C76.0045 91.6551 73.4924 91.9184 72.0737 89.8594C72.611 88.2564 73.6291 86.8696 74.2606 85.3089C73.3981 84.82 73.7988 83.499 72.611 83.3956C70.1225 82.352 67.3135 81.9712 64.5987 81.4917C64.5892 83.3157 64.0048 85.0597 64.1321 86.832C63.656 89.0884 63.7456 91.4671 63.1282 93.7752C62.7181 94.7671 62.8878 96.027 62.3364 96.9766C61.9829 100.864 59.7253 104.296 58.6601 108.019C59.1408 108.376 59.9421 108.028 60.4652 108.245C63.2177 108.301 65.6544 109.114 68.0016 110.163C68.6237 110.515 68.8264 111.211 68.6049 111.827C66.4227 114.182 63.4204 113.759 60.3898 114.041C57.3546 114.229 54.4984 113.754 51.4537 113.378C50.8928 113.862 50.8221 115.08 49.7758 114.925C47.9188 114.699 46.1655 114.85 44.0729 114.633C43.4366 113.623 43.2198 112.278 43.4319 111.009C45.0626 109.509 44.2096 107.154 43.8938 105.391C44.0587 104.216 44.0305 102.773 43.069 102.054C41.3581 104.395 39.7132 107.572 41.047 110.431C41.4147 112.193 40.1091 113.543 39.1429 114.878L31.7386 115.009C30.7912 115.132 31.5359 114.22 31.4322 113.806C31.041 113.115 30.4849 113.975 29.9146 113.853C29.2076 114.06 28.2602 114.276 27.459 114.488C24.0514 114.967 20.0735 115.508 17.6509 113.011C17.5472 112.452 17.3446 111.991 17.7169 111.517C20.2385 109.523 23.2643 108.734 26.3844 108.075L26.7568 107.784C24.4426 103.464 23.2077 98.5514 22.4018 93.7188C21.5251 90.2448 21.4073 86.6486 21.5299 83.1888C19.9227 83.6588 18.0845 84.1336 16.5339 84.9281C16.4962 85.3512 16.4019 85.3982 16.171 85.779C15.9306 85.6473 15.497 85.1913 15.12 85.5298C14.4648 86.0657 14.479 86.8085 14.1114 87.429C12.4995 89.8594 10.5105 92.6752 7.77687 93.6953C6.92851 94.0009 6.39592 93.3663 5.9576 92.8163C5.90104 92.3979 6.03301 91.9278 5.83977 91.6034C5.23177 92.0406 4.62849 92.6658 3.76598 92.318C2.85634 92.0171 3.07786 90.9829 3.15798 90.2825C3.34179 90.0427 3.43134 89.7136 3.52089 89.4316C2.80921 89.4551 1.67805 89.8594 1.14075 88.9427C1.36227 88.0965 1.58379 87.2927 2.13994 86.5781C1.5178 86.3149 0.528041 86.6721 0.226399 85.7978C-0.409877 84.8811 0.429065 84.0631 0.744847 83.2593C2.09281 81.9101 3.50676 81.2614 5.05267 80.3259L5.0621 80.3071Z" fill="black"/>
<path d="M3.10609 82.2341C4.3268 81.6371 5.4014 80.7157 6.8719 80.6264C7.4799 80.1892 6.61739 79.7003 6.46657 79.2396C6.31104 78.6849 5.97169 78.1819 6.15079 77.6601C7.52703 77.6178 8.78073 78.5626 9.88832 79.6015C11.4484 81.6559 12.9566 83.7102 13.9982 86.0136C13.098 88.6085 10.8215 90.9684 8.52622 92.7218C8.05491 92.971 7.53646 93.0791 7.00859 92.8629C6.13665 92.0026 7.30551 91.0295 7.52703 90.1363C6.99445 89.685 6.5844 90.5829 6.01882 90.6487C5.41083 91.0859 4.85939 91.9462 4.04401 91.6453C3.40773 90.6816 4.29381 89.8167 4.65672 89.0128C4.9348 88.632 5.50038 88.3782 5.39197 87.8705C4.25139 87.9034 3.33232 89.2432 1.99379 88.8154C2.05977 87.2735 3.6104 86.479 4.10528 85.2004C3.05896 85.1392 1.85239 86.4367 0.881483 85.4824C0.659965 83.9499 2.11633 83.1555 3.09667 82.2388L3.10609 82.2341Z" fill="#FFE3CA"/>
<path d="M5.5332 31.5255C6.47583 31.1683 7.15924 32.0849 8.01232 32.1978C8.59676 33.0204 10.581 32.4939 10.0437 34.0029C8.55434 33.2085 7.02727 32.602 5.54263 31.8969L5.5332 31.5208V31.5255Z" fill="black"/>
<path d="M12.443 79.146C13.1688 79.8699 13.3338 81.0358 14.2057 81.802L15.4971 84.6602C15.1672 84.8106 14.9834 85.1914 14.5545 85.0645C13.7109 83.2687 12.3063 81.7221 11.3213 80.0251C11.4061 79.508 12.0707 79.4422 12.443 79.1507V79.146Z" fill="white"/>
<path d="M12.5844 47.5649C13.8522 46.7799 15.5678 47.1936 16.7649 47.8094C17.9668 48.5192 17.0477 50.1833 17.2127 51.2505C17.5473 53.8078 16.6942 56.2664 17.7358 58.7061C15.2944 57.6578 12.2214 55.9326 11.6464 53.1026C11.6559 51.1423 10.8546 48.9235 12.5844 47.5602V47.5649Z" fill="#FFE3CA"/>
<path d="M13.3763 49.2244C14.6018 48.8577 15.6622 49.6663 16.4399 50.5313C16.4917 50.8086 16.4022 50.9073 16.1665 51.006C15.4878 50.2774 14.8139 49.7415 13.8665 49.7697C12.8343 50.456 13.8524 51.4056 13.8194 52.2001C13.7911 53.1356 15.0354 53.6104 14.8139 54.5035C13.235 53.8501 13.103 51.9415 12.6458 50.4607C12.5893 49.9483 13.0559 49.6099 13.3811 49.2244H13.3763Z" fill="black"/>
<path d="M13.3809 78.5583C17.5567 76.001 21.4309 72.7527 25.7576 70.6138C27.0584 71.5069 29.6177 71.4317 29.5187 73.5801C30.7111 76.2972 32.2853 79.146 35.1698 80.8806C36.9136 80.3118 37.1069 78.0647 38.6104 77.2233C38.8837 79.1742 39.6803 81.0216 39.8594 82.8832C38.7518 86.8884 37.4981 90.8513 36.103 94.7672L36.3056 95.4159C31.5124 95.4676 27.558 94.6073 23.1654 93.3898C22.4725 89.582 21.7938 86.3337 22.383 82.3896C22.185 82.0699 21.6666 82.2251 21.4309 82.3238C19.786 83.123 17.9903 83.5977 16.2465 84.2559C15.6479 82.8268 15.1436 81.299 13.9841 80.1191C13.7862 79.6114 13.6778 79.0096 13.3856 78.5489L13.3809 78.5583Z" fill="white"/>
<path d="M13.6823 21.0938C15.0256 21.8459 15.8598 23.3173 16.8826 24.4549C16.8402 24.784 17.0381 25.2447 16.7129 25.4891C16.0201 23.9237 14.2856 22.8049 13.4985 21.2912L13.6871 21.0985L13.6823 21.0938Z" fill="black"/>
<path d="M19.3335 111.164C21.8315 110.153 24.2776 109.1 26.9688 108.503C31.1918 108.423 35.5656 108.846 39.699 109.048C40.2835 109.871 40.6417 111.074 40.2316 112.113C39.8169 112.781 39.2607 113.401 38.9402 114.116C36.5224 114.144 34.3873 114.398 32.1061 114.14C32.0496 113.627 32.6057 112.955 31.9789 112.555C31.4086 112.574 31.0881 113.049 30.5649 113.157C26.9311 114.248 21.921 115.291 18.5087 113.152C17.4954 112.391 18.6171 111.469 19.3241 111.164H19.3335Z" fill="#231815"/>
<path d="M18.6595 47.3815C22.7882 47.4426 26.3089 47.7999 30.3575 48.4251C30.4848 50.1503 30.7581 51.8239 32.5303 52.7499C34.2129 53.7747 36.4092 54.5457 38.4312 53.5961C40.9244 52.4444 41.49 49.7648 41.6314 47.3345C42.6589 46.6011 44.4546 46.1733 45.7036 46.8362C46.3823 47.4708 45.6894 48.4721 45.6564 49.2665C46.3163 51.4901 47.881 53.7747 50.2188 54.4517C52.302 54.2965 54.3805 53.6243 55.3844 51.6781C55.9735 50.3525 56.4731 49.0315 56.3459 47.4473C59.8949 46.7798 62.9301 46.7798 66.2906 46.2109C67.0589 51.4666 66.4226 57.7893 64.3347 62.8052C63.1328 64.5211 62.4117 66.3215 60.5359 67.4968C56.5957 69.8143 52.8016 72.4985 48.0177 72.9216C40.2127 74.4212 32.0354 73.5516 25.8329 69.49L25.5501 69.4994C23.7638 68.0139 21.7419 66.5801 21.2753 64.3988C19.6634 62.0202 18.848 59.2889 18.0845 56.5577C18.4003 53.4175 17.9148 50.2114 18.6642 47.3862L18.6595 47.3815Z" fill="#FFE3CA"/>
<path d="M31.4842 28.4931C32.6106 27.8068 33.6852 27.0264 35.0615 26.8901C34.8541 28.3897 34.6043 30.2654 33.4449 31.6099C33.4496 31.9859 33.6947 32.3009 34.0293 32.4325C34.642 32.1317 34.4818 31.3889 34.8541 30.9141C37.0693 27.5765 40.5382 25.367 44.2144 24.0884C45.0204 24.0649 46.1044 23.7499 46.6935 24.5726C46.2034 26.3166 44.9073 27.8021 44.3228 29.5038C44.6622 30.0068 44.8884 29.2547 45.2655 29.2876C46.9763 27.0876 49.3659 25.3341 52.0194 25.0662C52.4012 25.0568 52.552 25.5174 52.6981 25.7948C52.4436 27.4354 51.4727 28.7282 50.3085 29.8846C50.1718 30.1667 50.5065 30.3453 50.6997 30.4346C51.7366 29.9833 52.3729 28.7 53.504 28.1077C54.8661 27.3649 56.4592 26.1944 58.1229 26.4717C59.141 27.6564 58.368 29.3581 57.9203 30.5897C57.2133 30.8436 57.3264 31.7274 57.1002 32.2962C57.4395 32.7052 57.5197 31.8637 57.859 32.2727L58.2313 31.8872C62.9869 34.8723 65.6498 39.9728 66.1824 45.3742C63.0623 45.8913 59.5463 45.8114 56.3367 46.6105C55.8229 44.5233 53.8481 43.1835 51.8026 42.8263C49.4272 42.7135 47.4618 44.2225 46.5521 46.258C45.1571 45.2708 42.9277 45.4823 41.5232 46.3191C40.8775 44.7019 39.1384 43.1694 37.3709 42.7088C35.0002 42.7793 32.4033 43.6066 31.1684 45.8866C30.5133 46.3285 31.0694 48.1759 29.6791 47.4285C26.1583 47.0665 22.4019 46.6669 19.1216 46.352C21.1247 39.5168 25.6493 33.0718 31.4936 28.5072L31.4842 28.4931Z" fill="#FFE3CA"/>
<path d="M23.2739 94.3206C25.5645 94.9975 28.1803 95.336 30.6123 95.8719C32.7474 95.9471 34.939 96.2057 36.9798 96.1446C38.8132 97.7241 40.6466 99.1626 42.5696 100.549C42.81 100.728 43.1399 100.578 43.4274 100.615C44.6764 98.9416 46.0196 97.1741 47.2215 95.5475C51.9158 95.3595 57.3218 95.0539 62.2894 94.1514C61.5778 98.9839 59.815 103.473 57.7177 107.836C56.7845 108.611 55.5355 108.043 54.4986 108.306C51.3266 108.682 48.3762 108.353 45.2844 108.029C44.2993 106.096 45.6991 102.599 43.1587 101.273C41.5515 101.649 41.3065 103.525 40.5665 104.714L39.6851 108.104C35.6083 108.32 31.6115 107.836 27.6195 107.54C26.0547 105.25 25.0508 102.434 24.6219 99.8771C23.8772 98.1237 23.7877 96.1211 23.2786 94.3112L23.2739 94.3206Z" fill="#175296"/>
<path d="M26.3469 13.3281L26.6344 13.4127C27.2377 15.0769 27.8881 16.8773 27.973 18.6966C26.757 17.2863 26.7193 15.232 26.0688 13.5256L26.3516 13.3281H26.3469Z" fill="black"/>
<path d="M30.3529 72.7148C33.1714 73.702 36.1737 74.2661 39.3079 74.4025C38.0165 76.264 36.7204 78.0786 35.2404 79.9449L34.8587 79.865C32.6388 77.9235 31.3568 75.6294 30.2681 73.1849L30.3529 72.7148Z" fill="white"/>
<path d="M33.4116 44.6878C35.0612 44.0297 36.9323 42.8075 38.6243 44.1566C39.6848 44.8712 40.4625 45.8772 40.7688 46.9866C40.9008 48.8952 40.5615 50.9636 38.9731 52.2751C37.003 53.5491 34.5239 53.0179 32.6999 51.9038C31.3991 50.8696 31.1304 49.243 31.3849 47.6447C31.696 46.4695 32.6716 45.5481 33.4163 44.6878H33.4116Z" fill="white"/>
<path d="M34.9484 35.6718C36.1266 35.2158 37.5972 35.0747 38.4691 36.0337C39.3882 36.894 40.0244 37.994 40.048 39.1599C39.8689 39.677 39.2939 39.4184 39.0064 39.2868C38.4172 38.3701 38.2523 37.162 37.1494 36.5414C35.7637 36.0243 34.9342 37.4487 34.0481 38.1303C33.8219 38.6992 33.6947 39.3573 33.2281 39.8368C32.8463 39.7992 32.4174 39.6299 32.3608 39.2069C32.7615 37.7919 33.5391 36.4615 34.9484 35.6718Z" fill="black"/>
<path d="M36.0415 62.6364C36.2771 62.4436 36.6589 62.5705 36.9888 62.5141C37.6675 63.1488 38.662 63.1158 39.5669 63.1817C43.0358 63.4496 46.0663 63.0782 49.4315 62.7868C49.9076 62.7727 50.5533 61.9124 50.8549 62.7445C50.3412 65.6543 48.3475 68.0988 45.6752 69.6266C44.5487 70.1766 43.0311 70.313 41.7915 70.0262C39.0626 68.8933 37.2527 66.0539 36.5363 63.365C36.296 63.1864 35.6738 63.0641 36.0462 62.6316L36.0415 62.6364Z" fill="black"/>
<path d="M36.6923 47.3911C37.0741 47.518 37.5925 47.4099 37.748 47.9176C37.8093 48.571 37.5831 49.0881 36.9185 49.2527C36.4896 49.2198 36.0607 49.0458 35.8628 48.6322C35.613 48.0774 36.221 47.5933 36.6923 47.3911Z" fill="black"/>
<path d="M39.3503 91.1238C41.4429 88.9567 43.6298 86.6015 45.6801 84.6694C46.0807 85.8259 46.109 87.2267 46.5096 88.3785C44.0964 91.2084 41.7729 93.8033 39.1712 96.544C38.4029 96.1491 37.4933 95.5662 37.1445 94.7388C37.2105 93.2909 38.1814 91.9982 39.3503 91.1238Z" fill="#FDD000"/>
<path d="M37.4888 63.7127C40.821 64.1734 44.2804 64.0183 47.6456 63.7785C48.3526 63.5247 49.1633 63.8255 49.9174 63.4307C49.2669 66.4863 46.2741 68.959 43.2011 69.429C40.9718 69.5889 39.5107 67.4876 38.389 65.9316C38.2287 65.1418 37.5076 64.5589 37.4935 63.7174L37.4888 63.7127Z" fill="#B44E26"/>
<path d="M39.8124 85.5954C40.477 85.4826 39.7087 85.0407 40.0811 84.7446C40.6372 84.0253 40.477 83.0522 40.887 82.2907C42.5083 82.615 43.7667 81.5009 45.2467 81.971C46.0856 83.4847 44.6764 84.4625 43.7997 85.5625C41.8909 87.4429 40.1188 89.1775 38.3042 90.9639C38.8368 89.0788 39.4259 87.5651 39.8124 85.5907V85.5954Z" fill="white"/>
<path d="M44.2096 92.0027H44.3982C45.3314 91.2224 45.8781 90.0847 46.8113 89.3091C48.5175 91.7301 45.567 93.5493 44.6527 95.5425C43.6252 96.5062 42.8475 97.9306 41.6787 98.8097L39.6567 97.2819C41.1932 95.787 42.7627 93.5446 44.2049 92.0027H44.2096Z" fill="white"/>
<path d="M40.5427 74.3647C42.5599 75.5165 44.3981 77.4251 45.8591 79.155C45.4491 80.0999 45.2888 81.6465 43.8089 81.1811C42.8663 81.5384 41.7257 81.3832 40.6841 81.4632C40.0808 79.752 39.7697 78.3135 39.355 76.5507C39.6236 75.7938 39.798 74.9947 40.5474 74.3647H40.5427Z" fill="#FDD000"/>
<path d="M44.6808 96.7507C45.5528 95.3216 46.5708 93.9395 47.5417 92.5527C48.31 93.0886 47.372 93.681 47.2919 94.2404C45.9534 96.1019 44.4169 97.7849 43.2245 99.7828C42.9888 99.8815 42.7013 99.6605 42.4609 99.5242C43.0595 98.4806 43.7476 97.4323 44.6855 96.746L44.6808 96.7507Z" fill="#FDD000"/>
<path d="M44.9026 74.0454C45.4021 75.2912 47.9425 76.5228 46.2175 78.1164C44.7706 77.0399 43.5593 75.5826 42.1548 74.224C43.055 74.1488 44.0542 74.257 44.9026 74.0454Z" fill="white"/>
<path d="M45.4916 108.964C49.625 109.302 53.617 109.368 57.8353 109.147L58.0191 108.86C61.0167 109.189 64.6223 109.124 67.3559 110.633C67.6905 110.811 68.0299 111.126 68.0393 111.545C66.5971 113.035 64.4055 112.729 62.4684 113.115C58.2972 113.477 54.8283 113.068 51.0625 112.438C50.6478 113.058 50.4734 113.904 49.7711 114.252C48.0649 114.304 46.1561 113.989 44.45 114.041C43.4649 112.297 44.4264 110.398 45.4916 108.964Z" fill="#231815"/>
<path d="M42.8946 10.0233L43.0878 10.2019C43.0737 11.9319 42.871 13.5725 42.9936 15.0627C42.7155 15.3071 42.2819 14.9922 42.3243 14.7101L42.4374 10.6908L42.1499 10.5122C42.3856 10.3665 42.5175 9.89167 42.8993 10.0233H42.8946Z" fill="black"/>
<path d="M47.2498 77.6134C48.0228 78.3843 48.4422 80.2412 49.7666 80.1519C51.3125 79.1694 51.8923 77.2843 53.1035 75.9398C54.2158 74.5531 54.9935 73.0817 55.9644 71.6479L55.955 71.1825C57.2653 70.2094 58.7735 69.7863 59.9847 68.6299C62.1009 67.6803 63.9014 69.7722 65.994 70.0355C68.8172 71.1637 71.5461 72.4799 74.0535 74.459C73.2193 75.512 73.1957 76.8189 72.6019 77.9612C72.1541 79.2822 71.1785 80.3869 70.7779 81.7549C70.0191 81.7314 69.0104 81.1532 68.1102 81.2754C66.5832 80.857 64.877 80.9087 63.529 80.0155C63.1473 79.8886 62.8221 80.1754 62.6854 80.5091C62.7419 81.0685 63.3594 80.9557 63.6516 81.3224C63.8024 84.3075 63.3405 87.3114 62.7796 90.1319C62.9399 91.1567 62.5817 92.1909 62.4592 93.2251C58.9573 93.8457 55.0265 94.3393 51.3832 94.6824C50.4312 94.5273 48.9183 94.7577 47.9662 94.6025C49.366 93.3944 47.9568 91.8008 47.9803 90.3999C47.0189 87.4383 46.5334 84.3263 45.9961 81.2143C46.0668 79.9027 46.9482 78.8497 47.2545 77.6275L47.2498 77.6134Z" fill="white"/>
<path d="M46.1372 74.0078C49.2149 73.6317 52.0899 72.6586 54.9178 71.6855C53.8291 74.1958 51.6846 76.316 50.3083 78.7369L49.6579 79.4092C48.2487 77.7685 47.405 75.7424 46.1372 74.0031V74.0078Z" fill="white"/>
<path d="M49.2575 44.2036C50.7186 43.5972 52.5662 43.4937 53.9141 44.4339C55.4553 45.5057 55.823 47.3626 55.526 49.243C55.0312 50.5639 54.6824 52.1623 53.127 52.8674C52.0383 53.0883 51.1051 53.77 49.908 53.4315C49.7571 52.8768 48.9512 53.0413 48.5647 52.6323C47.4524 51.5464 46.1421 50.0891 46.6747 48.2088C47.311 46.6951 47.8059 45.3271 49.2528 44.2083L49.2575 44.2036Z" fill="white"/>
<path d="M49.6534 35.225C50.7374 34.7737 51.9675 34.6891 52.8866 35.4977C54.2817 36.5742 54.9321 38.2383 54.6776 39.8319C54.3524 40.0764 54.0649 39.9447 53.7302 39.8601C53.094 38.9011 53.4475 37.4862 52.3399 36.7246C51.9015 36.1793 51.2323 35.916 50.6196 36.1229C49.6298 36.5742 48.6495 37.4438 48.673 38.6097C48.673 38.7977 48.395 38.9905 48.2064 39.0892C47.8765 39.1456 47.5419 39.061 47.4429 38.7366C47.3675 37.2417 48.3855 35.9537 49.6534 35.2109V35.225Z" fill="black"/>
<path d="M50.1625 46.8878C50.681 46.7327 51.1146 47.0006 51.3125 47.4143C51.322 47.9267 51.3785 48.3921 50.9591 48.7353C50.4406 48.8434 49.9127 48.6742 49.7148 48.2135C49.2812 47.8045 49.5498 47.0053 50.1625 46.8925V46.8878Z" fill="black"/>
<path d="M60.2059 11.8283C60.2954 11.6403 60.5358 11.7719 60.6772 11.7202C60.5641 13.3138 59.5508 14.7899 59.4424 16.5246L58.8721 16.5434C59.0276 14.8557 59.9514 13.4737 60.2059 11.833V11.8283Z" fill="black"/>
<path d="M67.6526 48.1242C68.2936 46.9819 69.2739 46.0182 70.5512 45.7926C71.2629 45.8631 72.5826 45.4024 72.8418 46.5635C73.5488 51.1187 70.7444 55.829 66.71 58.2406C67.3085 54.8607 67.6243 51.5794 67.6526 48.1242Z" fill="#FFE3CA"/>
<path d="M67.3748 24.1259C68.5861 23.0635 69.3685 21.7285 70.6316 20.7554C71.2679 21.6721 69.7031 21.8554 69.623 22.6545L67.389 24.9627L66.7244 24.8922C66.6207 24.5208 67.191 24.4597 67.3748 24.1259Z" fill="black"/>
<path d="M70.4994 47.9456C70.9754 48.0725 71.5033 48.3358 71.6541 48.8435C71.6918 50.8038 70.3438 52.247 69.4766 53.8594C69.1891 53.7748 69.01 54.3389 68.8121 53.8782C68.6565 53.2295 69.5567 53.0132 69.6369 52.4538C70.1836 51.2692 71.3949 50.1127 70.8953 48.773C70.4617 48.364 69.8961 48.7589 69.4719 48.9093C69.2881 49.1961 68.8639 49.4875 68.6235 49.1209C68.8922 48.364 69.8395 48.2418 70.4994 47.9409V47.9456Z" fill="black"/>
<path d="M74.5387 75.0088C74.9676 75.0887 75.0666 75.3661 75.406 75.634C74.5482 77.8105 73.5443 79.9401 73.0682 82.2435C72.7949 82.7653 72.1162 82.1307 71.6401 82.1025C72.6393 79.7379 73.9213 77.5003 74.5387 75.0088Z" fill="white"/>
<path d="M77.7813 80.7016C77.7388 80.9837 77.8378 81.167 78.0782 81.3456C78.7899 81.2281 79.4073 81.3974 79.8927 81.8486C79.6665 82.5068 79.0161 83.0427 78.8841 83.7478C79.4591 83.9641 79.7372 83.7666 80.0153 83.2448C80.3829 82.7653 80.9909 82.0931 80.7411 81.4491C79.8739 80.9132 79.0114 80.2409 77.9698 80.5042C77.9179 80.1798 78.3845 79.8837 78.8134 79.9166C79.9493 79.6486 81.1559 78.3512 82.3106 79.155C82.9799 79.3666 83.602 79.7238 84.2241 80.0294C85.5627 80.5982 86.9106 81.5337 88.5178 81.1153C89.2059 79.879 90.9922 78.9388 90.5351 77.411L90.0496 76.7716C87.5045 75.3567 84.8746 74.172 81.9194 73.7489C81.6885 74.0827 81.269 74.3742 81.1794 74.7972C81.0381 74.7549 80.8919 74.6656 80.7034 74.7173C81.071 74.1438 81.4387 73.434 82.1928 73.0814C86.034 72.9639 88.8807 75.3049 92.1375 76.7011C92.623 77.1524 92.1093 77.7306 91.9773 78.2007C90.2334 81.3362 88.5414 84.5188 86.5619 87.612C85.6994 89.6475 84.309 91.462 83.1637 93.4129C81.5047 93.5587 80.1048 92.4304 78.4882 92.2471C76.8575 91.2693 74.8167 91.3304 73.3179 89.9766C73.3132 89.6945 73.3085 89.4171 73.1152 89.2338C74.6234 86.338 76.0374 83.447 77.7907 80.6828L77.7813 80.7016Z" fill="#D1D1D2"/>
<path d="M75.9952 76.5509C77.0274 75.8646 78.6299 75.3475 79.8741 75.7799C80.6707 75.3804 81.7217 75.6765 82.4428 76.0761C82.5135 77.2419 81.4389 78.0693 80.4963 78.5629C79.5489 78.6381 78.611 79.3197 77.7532 79.1129C76.7446 80.824 75.7313 82.5399 74.7227 84.251C74.1524 84.0818 74.0393 83.386 73.8413 82.8783C74.5577 80.7535 74.8452 78.5018 75.9952 76.5556V76.5509Z" fill="#FFE3CA"/>
<path d="M75.8206 33.6782C76.9424 32.8979 78.0688 32.1128 79.1906 31.3325L79.6666 31.3184C80.0154 32.1974 78.3563 32.3385 77.8049 33.1517C76.5889 34.0308 75.2692 34.6325 73.7563 34.8629C73.563 34.7735 73.5159 34.5902 73.5583 34.4022C74.2606 34.0073 75.0665 33.9368 75.8206 33.6782Z" fill="black"/>
<path d="M76.9991 84.2744C77.6212 84.5377 78.3847 84.8385 79.1954 84.956C79.6714 85.083 79.3509 85.5578 79.3085 85.8868C79.0823 86.4086 78.7147 87.1185 78.1962 87.3206C77.2347 86.6954 78.6958 86.277 78.7335 85.7176C78.2009 85.1723 77.0179 85.3979 76.8105 84.4672L76.9991 84.2744Z" fill="black"/>
<path d="M78.6061 88.8957C79.1339 89.206 79.7985 89.2812 80.2368 89.8735C79.7702 90.4 79.7466 91.5235 78.8464 91.5047C78.4081 90.9594 79.3507 90.5081 79.577 89.9863C79.0491 89.629 78.5212 89.4598 77.8567 89.2906C77.8001 88.8252 78.2761 88.7641 78.6061 88.8957Z" fill="black"/>
<path d="M81.4155 86.8462C81.0337 86.6252 80.5577 86.5923 80.2607 86.1363C80.6284 85.4735 81.1657 86.1551 81.5899 86.188C82.3534 86.3996 82.179 87.1517 81.8067 87.5842C81.2411 87.8804 81.128 89.2389 80.3079 88.562C80.4351 87.8568 81.2364 87.4573 81.4155 86.8462Z" fill="black"/>
<path d="M81.5049 81.7078C82.2166 81.7783 82.7963 82.1826 83.4185 82.5822C83.7201 83.4143 82.8293 84.1429 82.5136 84.7587L82.0375 84.7728C81.8773 83.9831 83.0131 83.6681 82.8529 82.8784C82.4617 82.3283 81.7547 82.4929 81.3164 82.0839L81.5002 81.7031L81.5049 81.7078Z" fill="black"/>
<path d="M82.3155 74.5811C84.8936 75.2956 87.5188 76.0571 89.7764 77.6226C89.8 78.9294 88.485 79.4841 87.9336 80.5747C85.8409 80.4055 84.1536 79.0563 82.2872 78.3183C82.702 77.6978 83.211 76.9832 83.3854 76.2311C83.1874 75.6764 82.6501 74.9947 82.0327 74.8725L82.3108 74.5811H82.3155Z" fill="white"/>
<path d="M84.0027 88.1714C83.7576 87.8517 83.1449 88.1056 83.1355 87.5462C83.4654 87.3017 84.0828 87.5179 84.4693 87.6919C84.7097 87.8705 84.8086 88.1009 84.7662 88.4299C83.9179 88.7825 83.6162 90.3808 82.6123 89.8966C82.8857 89.3278 83.5361 88.6556 84.0027 88.1714Z" fill="black"/>
<path d="M84.4365 86.1031C85.1435 85.8023 85.1718 84.9138 85.7326 84.3826C85.5771 83.7809 84.6816 83.9924 84.7617 83.292C85.4216 82.9911 85.8646 83.8185 86.3925 84.0817C86.3171 84.9702 85.6148 85.6472 85.2048 86.451C84.9173 86.3194 84.4931 86.4745 84.4365 86.0985V86.1031Z" fill="black"/>
<path d="M49.0078 81.5291C48.7627 81.5291 48.5601 81.7313 48.5601 81.9804V89.704C48.5601 89.9532 48.7439 90.2399 48.9654 90.3481L53.721 92.6562C53.9425 92.7643 54.3101 92.7643 54.5316 92.6562L59.3579 90.3434C59.5794 90.2352 59.7632 89.9485 59.7632 89.6993V81.9757C59.7632 81.7266 59.5606 81.5244 59.3108 81.5244H49.0078V81.5291ZM51.2607 90.1788C50.4972 90.1788 49.875 89.5583 49.875 88.7968C49.875 88.0352 50.4972 87.4147 51.2607 87.4147C52.0242 87.4147 52.6464 88.0352 52.6464 88.7968C52.6464 89.5583 52.0242 90.1788 51.2607 90.1788ZM57.0673 90.1788C56.3038 90.1788 55.6816 89.5583 55.6816 88.7968C55.6816 88.0352 56.3038 87.4147 57.0673 87.4147C57.8308 87.4147 58.453 88.0352 58.453 88.7968C58.453 89.5583 57.8308 90.1788 57.0673 90.1788ZM58.0335 84.6223V86.545H55.1349V91.6126H53.0988V86.5121H49.9646L49.9222 84.4625H53.0988V82.3189H55.1349V84.4954H56.4357C56.1341 84.2416 55.9409 83.8608 55.9409 83.433C55.9409 82.6714 56.563 82.0509 57.3265 82.0509C58.0901 82.0509 58.7122 82.6714 58.7122 83.433C58.7122 83.936 58.4388 84.3779 58.0335 84.6176V84.6223Z" fill="#2175D6"/>
<path d="M57.3264 82.8501C57.0012 82.8501 56.7373 83.1133 56.7373 83.4377C56.7373 83.7621 57.0012 84.0253 57.3264 84.0253C57.6517 84.0253 57.9156 83.7621 57.9156 83.4377C57.9156 83.1133 57.6517 82.8501 57.3264 82.8501Z" fill="#2175D6"/>
<path d="M40.3069 54.3769C42.1591 52.7927 44.6524 52.5671 46.6555 53.6577C47.287 54.156 48.1213 54.7859 48.0977 55.7308C48.7434 58.0765 45.1567 61.2262 41.0798 59.6043C39.878 59.233 39.2087 58.0671 39.1474 56.9389C38.8835 56.4359 39.7743 55.0774 40.3021 54.3816L40.3069 54.3769Z" fill="black"/>
<path d="M44.0164 53.7235C45.0297 53.9209 46.5238 54.1042 47.1789 55.1666C47.6031 56.0363 47.5465 57.0658 46.9008 57.8697C46.1797 58.7393 40.095 60.0697 39.9018 57.1269C39.7698 55.1102 42.1311 53.9867 44.0164 53.7188V53.7235Z" fill="#FFE3CA"/>
</g>
<path d="M113.853 95.1923L121.317 60.7876L147.38 84.4547L113.853 95.1923Z" fill="#FEE880"/>
<path d="M272 49.5C272 76.8381 231.482 99 181.5 99C131.518 99 91 76.8381 91 49.5C91 22.1619 131.518 0 181.5 0C231.482 0 272 22.1619 272 49.5Z" fill="#FEE880"/>
<path d="M126.732 42V40.81C129.546 38.29 131.212 36.344 131.212 34.748C131.212 33.698 130.652 33.068 129.658 33.068C128.902 33.068 128.286 33.558 127.754 34.132L126.634 33.012C127.586 31.99 128.51 31.444 129.924 31.444C131.884 31.444 133.186 32.704 133.186 34.636C133.186 36.512 131.632 38.528 129.742 40.376C130.26 40.32 130.946 40.264 131.436 40.264H133.676V42H126.732ZM138.784 42.196C136.67 42.196 135.27 40.348 135.27 36.778C135.27 33.194 136.67 31.444 138.784 31.444C140.898 31.444 142.284 33.208 142.284 36.778C142.284 40.348 140.898 42.196 138.784 42.196ZM138.784 40.586C139.68 40.586 140.338 39.69 140.338 36.778C140.338 33.88 139.68 33.04 138.784 33.04C137.888 33.04 137.216 33.88 137.216 36.778C137.216 39.69 137.888 40.586 138.784 40.586ZM143.78 42V40.81C146.594 38.29 148.26 36.344 148.26 34.748C148.26 33.698 147.7 33.068 146.706 33.068C145.95 33.068 145.334 33.558 144.802 34.132L143.682 33.012C144.634 31.99 145.558 31.444 146.972 31.444C148.932 31.444 150.234 32.704 150.234 34.636C150.234 36.512 148.68 38.528 146.79 40.376C147.308 40.32 147.994 40.264 148.484 40.264H150.724V42H143.78ZM153.998 37.744H156.42V35.63C156.42 35.028 156.462 34.09 156.49 33.474H156.434C156.182 34.034 155.902 34.608 155.608 35.168L153.998 37.744ZM156.42 42V39.312H151.996V37.912L155.86 31.626H158.338V37.744H159.556V39.312H158.338V42H156.42ZM164.706 38.64H167.128V36.512H164.706V38.64ZM173.638 38.64V40.236H168.85V43.232H167.128V40.236H160.828V38.64H163.04V34.958H167.128V33.292H164.132C163.558 34.286 162.886 35.182 162.228 35.84C161.906 35.56 161.192 35 160.786 34.762C162.046 33.698 163.124 31.906 163.726 30.1L165.42 30.534C165.294 30.926 165.14 31.304 164.958 31.682H172.868V33.292H168.85V34.958H172.546V36.512H168.85V38.64H173.638ZM178.342 42.196C176.704 42.196 175.598 41.58 174.87 40.754L175.836 39.452C176.452 40.054 177.208 40.516 178.146 40.516C179.196 40.516 179.91 39.998 179.91 39.06C179.91 38.052 179.308 37.408 177.054 37.408V35.938C178.958 35.938 179.574 35.28 179.574 34.356C179.574 33.544 179.07 33.068 178.188 33.068C177.446 33.068 176.844 33.404 176.228 33.978L175.178 32.718C176.074 31.934 177.068 31.444 178.286 31.444C180.288 31.444 181.646 32.438 181.646 34.202C181.646 35.322 181.016 36.134 179.924 36.568V36.638C181.086 36.96 181.982 37.828 181.982 39.186C181.982 41.09 180.316 42.196 178.342 42.196ZM187.3 37.422H193.012V35.714H187.398C187.384 36.246 187.356 36.834 187.3 37.422ZM193.012 32.424H187.398V34.132H193.012V32.424ZM194.776 30.8V41.09C194.776 42.098 194.538 42.574 193.894 42.854C193.222 43.148 192.242 43.176 190.8 43.176C190.702 42.686 190.366 41.888 190.1 41.426C191.08 41.482 192.256 41.468 192.564 41.468C192.9 41.468 193.012 41.356 193.012 41.062V39.032H187.02C186.656 40.6 185.956 42.126 184.654 43.218C184.402 42.868 183.73 42.252 183.366 42.014C185.48 40.208 185.676 37.534 185.676 35.406V30.8H194.776ZM209.854 37.408H206.102C207.306 38.906 209.168 40.292 210.96 41.062C210.54 41.412 209.994 42.098 209.7 42.546C208.076 41.678 206.452 40.236 205.192 38.626V43.218H203.414V38.738C202.168 40.334 200.544 41.748 198.92 42.63C198.64 42.196 198.094 41.51 197.688 41.16C199.508 40.362 201.37 38.92 202.602 37.408H198.85V35.77H203.414V33.936H198.22V32.27H203.414V30.142H205.192V32.27H210.498V33.936H205.192V35.77H209.854V37.408ZM215.566 40.418C215.566 40.95 216.07 41.272 217.036 41.272C217.778 41.272 218.268 41.062 218.268 40.25C218.268 40.096 218.268 39.9 218.254 39.648C217.876 39.592 217.498 39.55 217.106 39.55C216.112 39.55 215.566 39.942 215.566 40.418ZM219.948 30.674C219.906 30.954 219.878 31.304 219.864 31.668C219.85 31.808 219.85 32.018 219.85 32.242C220.998 32.186 222.16 32.074 223.392 31.864L223.378 33.474C222.454 33.586 221.18 33.712 219.822 33.782C219.822 34.272 219.822 34.79 219.822 35.224C221.236 35.154 222.426 35.042 223.56 34.888L223.546 36.54C222.286 36.68 221.194 36.778 219.85 36.82C219.878 37.352 219.906 37.926 219.948 38.486C221.712 38.99 223.056 39.928 223.868 40.6L222.86 42.168C222.104 41.468 221.152 40.726 220.032 40.222C220.046 40.418 220.046 40.586 220.046 40.74C220.046 41.93 219.136 42.854 217.288 42.854C215.048 42.854 213.872 42 213.872 40.516C213.872 39.102 215.174 38.108 217.33 38.108C217.624 38.108 217.918 38.122 218.198 38.15C218.17 37.716 218.156 37.268 218.142 36.848C217.904 36.848 217.666 36.848 217.414 36.848C216.602 36.848 215.006 36.778 214.082 36.666L214.068 35.014C214.978 35.182 216.7 35.28 217.442 35.28C217.666 35.28 217.89 35.28 218.114 35.28C218.114 34.818 218.114 34.314 218.128 33.838C217.946 33.838 217.778 33.838 217.61 33.838C216.728 33.838 215.104 33.712 214.18 33.586L214.138 31.99C215.146 32.158 216.742 32.298 217.596 32.298C217.778 32.298 217.96 32.298 218.142 32.298C218.142 32.032 218.142 31.808 218.142 31.64C218.142 31.374 218.114 30.94 218.058 30.674H219.948ZM226.836 32.396C227.396 32.382 227.942 32.354 228.208 32.326C229.384 32.228 231.694 32.018 234.256 31.808C235.698 31.682 237.224 31.598 238.218 31.556L238.232 33.348C237.476 33.362 236.272 33.362 235.53 33.544C233.836 33.992 232.562 35.798 232.562 37.464C232.562 39.774 234.718 40.6 237.098 40.726L236.44 42.644C233.5 42.448 230.728 40.88 230.728 37.842C230.728 35.826 231.862 34.23 232.814 33.516C231.498 33.656 228.642 33.964 227.018 34.314L226.836 32.396ZM236.23 34.72C236.58 35.224 237.084 36.078 237.35 36.624L236.286 37.1C235.936 36.33 235.642 35.784 235.194 35.154L236.23 34.72ZM237.798 34.076C238.148 34.566 238.68 35.392 238.974 35.938L237.924 36.442C237.546 35.686 237.224 35.168 236.776 34.552L237.798 34.076ZM123.15 63.422H128.862V61.714H123.248C123.234 62.246 123.206 62.834 123.15 63.422ZM128.862 58.424H123.248V60.132H128.862V58.424ZM130.626 56.8V67.09C130.626 68.098 130.388 68.574 129.744 68.854C129.072 69.148 128.092 69.176 126.65 69.176C126.552 68.686 126.216 67.888 125.95 67.426C126.93 67.482 128.106 67.468 128.414 67.468C128.75 67.468 128.862 67.356 128.862 67.062V65.032H122.87C122.506 66.6 121.806 68.126 120.504 69.218C120.252 68.868 119.58 68.252 119.216 68.014C121.33 66.208 121.526 63.534 121.526 61.406V56.8H130.626ZM144.612 61.154V60.3H141.84V61.154H144.612ZM144.612 63.156V62.302H141.84V63.156H144.612ZM144.612 65.2V64.332H141.84V65.2H144.612ZM140.342 59.054H142.106C142.162 58.746 142.218 58.41 142.274 58.102H139.922V56.688H146.46V58.102H144.038C143.926 58.438 143.814 58.76 143.702 59.054H146.18V66.432H140.342V59.054ZM135.148 58.592V59.558H133.804V57.304H136.044V56.17H137.598V57.304H139.88V59.558H138.494V58.592H135.148ZM137.668 67.118V65.83H135.974V67.118H137.668ZM136.002 64.542H138.368C138.018 64.262 137.598 63.954 137.178 63.632C136.8 63.968 136.408 64.276 136.002 64.542ZM137.682 60.818H136.324C136.226 60.944 136.128 61.056 136.03 61.182L136.996 61.812C137.262 61.504 137.486 61.168 137.682 60.818ZM139.082 65.13V68.028C140.006 67.65 140.986 67.006 141.49 66.488L142.834 67.328C142.106 68.042 140.874 68.784 139.852 69.19C139.67 68.966 139.362 68.658 139.082 68.392H135.974V68.952H134.574V65.326L134.28 65.452C134.098 65.088 133.734 64.528 133.44 64.262C134.364 63.94 135.246 63.436 136.016 62.792L135.092 62.148C134.896 62.316 134.7 62.484 134.49 62.624C134.266 62.358 133.748 61.854 133.44 61.658C134.532 60.972 135.498 59.908 136.002 58.732L137.36 59.068C137.262 59.292 137.164 59.502 137.038 59.712H138.34L138.592 59.642L139.53 60.076C139.208 61.028 138.732 61.868 138.144 62.596C138.9 63.1 139.586 63.604 140.048 63.996L139.11 65.158L139.082 65.13ZM143.45 67.314L144.654 66.558C145.396 67.076 146.418 67.846 146.922 68.378L145.634 69.232C145.186 68.7 144.206 67.874 143.45 67.314ZM152.368 61.812V62.568C153.054 63.086 154.44 64.276 154.818 64.57L153.852 65.998C153.516 65.564 152.928 64.934 152.368 64.36V69.19H150.758V64.178C150.128 65.452 149.386 66.656 148.616 67.468C148.448 66.978 148.042 66.264 147.776 65.844C148.784 64.864 149.806 63.268 150.436 61.812H148.098V60.286H150.758V58.55C149.96 58.704 149.162 58.83 148.406 58.928C148.336 58.564 148.126 57.976 147.93 57.626C149.946 57.332 152.2 56.8 153.558 56.184L154.734 57.472C154.034 57.752 153.222 57.99 152.368 58.2V60.286H154.776V61.812H152.368ZM157.058 57.836V65.662H155.434V57.836H157.058ZM158.738 56.408H160.39V67.188C160.39 68.154 160.194 68.616 159.62 68.882C159.046 69.162 158.108 69.218 156.834 69.204C156.764 68.728 156.512 67.958 156.26 67.482C157.17 67.524 158.066 67.524 158.36 67.524C158.626 67.51 158.738 67.426 158.738 67.174V56.408ZM169.7 63.562H172.654V61.84H169.7V63.562ZM165.346 63.562H168.02V61.84H165.388V62.092C165.388 62.54 165.374 63.044 165.346 63.562ZM168.02 58.662H165.388V60.286H168.02V58.662ZM172.654 60.286V58.662H169.7V60.286H172.654ZM174.306 57.08V67.244C174.306 68.14 174.11 68.588 173.55 68.84C172.976 69.12 172.122 69.148 170.862 69.134C170.806 68.686 170.54 67.972 170.33 67.538C171.114 67.58 172.038 67.566 172.29 67.566C172.556 67.566 172.654 67.482 172.654 67.23V65.13H169.7V69.036H168.02V65.13H165.164C164.912 66.656 164.408 68.196 163.4 69.288C163.134 68.98 162.462 68.406 162.084 68.21C163.61 66.53 163.736 64.038 163.736 62.078V57.08H174.306ZM186.066 58.592L185.212 59.838C184.778 59.292 183.812 58.536 183.042 58.018L183.84 56.898C184.624 57.36 185.618 58.074 186.066 58.592ZM182.398 61.532L183.182 60.342C183.994 60.776 185.03 61.448 185.534 61.952L184.694 63.282C184.232 62.764 183.21 62.022 182.398 61.532ZM181.138 56.912L182.538 57.22C182.174 58.34 181.768 59.67 181.418 60.482L180.368 60.188C180.648 59.306 180.984 57.892 181.138 56.912ZM178.422 60.188L177.176 60.524C177.148 59.656 176.868 58.298 176.546 57.29L177.708 56.982C178.072 57.99 178.352 59.32 178.422 60.188ZM182.244 64.794L181.222 66.082C181.012 65.634 180.62 64.906 180.214 64.262V69.176H178.674V64.234C178.226 65.536 177.666 66.838 177.064 67.678C176.924 67.174 176.56 66.418 176.308 65.956C177.008 65.102 177.722 63.604 178.156 62.33H176.56V60.776H178.674V56.198H180.214V60.776H182.286V62.33H180.214V62.428C180.62 62.834 181.95 64.402 182.244 64.794ZM189.65 65.116L187.97 65.424V69.204H186.402V65.704L182.496 66.404L182.244 64.85L186.402 64.108V56.128H187.97V63.828L189.398 63.562L189.65 65.116ZM196.65 57.038C196.566 57.402 196.468 57.85 196.398 58.2C196.314 58.62 196.202 59.138 196.104 59.642C196.58 59.614 196.986 59.586 197.28 59.586C198.764 59.586 199.814 60.244 199.814 62.26C199.814 63.912 199.618 66.18 199.016 67.398C198.554 68.378 197.784 68.686 196.72 68.686C196.188 68.686 195.516 68.588 195.04 68.49L194.746 66.642C195.278 66.796 196.09 66.936 196.454 66.936C196.93 66.936 197.28 66.796 197.504 66.334C197.882 65.536 198.078 63.842 198.078 62.456C198.078 61.336 197.588 61.182 196.72 61.182C196.496 61.182 196.146 61.21 195.74 61.238C195.208 63.366 194.172 66.684 192.884 68.742L191.064 68.014C192.422 66.18 193.388 63.352 193.906 61.434C193.402 61.49 192.954 61.546 192.702 61.574C192.296 61.644 191.568 61.742 191.134 61.812L190.966 59.908C191.484 59.95 191.946 59.922 192.464 59.908C192.898 59.894 193.556 59.852 194.27 59.782C194.466 58.732 194.592 57.71 194.564 56.828L196.65 57.038ZM202.88 55.876C203.244 56.408 203.762 57.29 204 57.78L202.894 58.256C202.6 57.682 202.152 56.856 201.76 56.324L202.88 55.876ZM201.214 56.506C201.564 57.024 202.068 57.906 202.334 58.424L201.648 58.718C202.488 60.02 203.538 62.358 203.93 63.604L202.152 64.416C201.788 62.862 200.794 60.398 199.8 59.166L201.06 58.62C200.78 58.088 200.43 57.416 200.108 56.968L201.214 56.506ZM214.514 60.86V59.068H213.45V60.86H214.514ZM214.514 64.122V62.344H213.45V64.122H214.514ZM208.634 62.344V64.122H209.642V62.344H208.634ZM212.064 62.344H211.028V64.122H212.064V62.344ZM211.028 60.86H212.064V59.068H211.028V60.86ZM208.634 59.068V60.86H209.642V59.068H208.634ZM207.164 60.86V59.852C206.884 60.118 206.618 60.37 206.338 60.58C206.03 60.286 205.358 59.754 204.98 59.488C206.156 58.718 207.262 57.444 207.878 56.142L209.502 56.618C209.348 56.954 209.166 57.276 208.956 57.598H217.356V59.068H216.04V60.86H217.86V62.344H216.04V64.122H217.664V65.606H205.498V64.122H207.164V62.344H205.288V60.86H207.164ZM206.73 69.232L205.148 68.588C205.764 68 206.394 66.922 206.716 65.9L208.326 66.292C208.018 67.356 207.416 68.504 206.73 69.232ZM209.222 66.39L210.762 66.208C210.93 67.062 211.098 68.168 211.112 68.826L209.488 69.064C209.488 68.392 209.376 67.244 209.222 66.39ZM211.994 66.418L213.562 66.152C213.898 66.978 214.248 68.07 214.374 68.756L212.708 69.078C212.624 68.406 212.302 67.272 211.994 66.418ZM214.766 66.348L216.362 65.844C216.992 66.698 217.776 67.874 218.126 68.644L216.418 69.218C216.124 68.476 215.382 67.244 214.766 66.348ZM228.906 58.592L228.052 59.838C227.618 59.292 226.652 58.536 225.882 58.018L226.68 56.898C227.464 57.36 228.458 58.074 228.906 58.592ZM225.238 61.532L226.022 60.342C226.834 60.776 227.87 61.448 228.374 61.952L227.534 63.282C227.072 62.764 226.05 62.022 225.238 61.532ZM223.978 56.912L225.378 57.22C225.014 58.34 224.608 59.67 224.258 60.482L223.208 60.188C223.488 59.306 223.824 57.892 223.978 56.912ZM221.262 60.188L220.016 60.524C219.988 59.656 219.708 58.298 219.386 57.29L220.548 56.982C220.912 57.99 221.192 59.32 221.262 60.188ZM225.084 64.794L224.062 66.082C223.852 65.634 223.46 64.906 223.054 64.262V69.176H221.514V64.234C221.066 65.536 220.506 66.838 219.904 67.678C219.764 67.174 219.4 66.418 219.148 65.956C219.848 65.102 220.562 63.604 220.996 62.33H219.4V60.776H221.514V56.198H223.054V60.776H225.126V62.33H223.054V62.428C223.46 62.834 224.79 64.402 225.084 64.794ZM232.49 65.116L230.81 65.424V69.204H229.242V65.704L225.336 66.404L225.084 64.85L229.242 64.108V56.128H230.81V63.828L232.238 63.562L232.49 65.116ZM239.406 64.402L239.028 59.614L238.958 57.528H241.282L241.212 59.614L240.834 64.402H239.406ZM240.12 68.126C239.406 68.126 238.888 67.622 238.888 66.894C238.888 66.152 239.42 65.648 240.12 65.648C240.82 65.648 241.352 66.152 241.352 66.894C241.352 67.622 240.82 68.126 240.12 68.126Z" fill="#333333"/>
<defs>
<clipPath id="clip0_499_3">
<rect width="93" height="105" fill="white" transform="translate(0 10)"/>
</clipPath>
</defs>
</svg>
