<svg width="144" height="40" viewBox="0 0 144 40" fill="none" xmlns="http://www.w3.org/2000/svg">
<path d="M122.826 0V14.7568H111.579V25.0045H122.826V39.7613H133.073V25.0045H144V14.7568H133.073V0H122.826Z" fill="black"/>
<path d="M19.1047 24.3947H29.5219V27.8939H21.2841L29.5219 37.2818V39.7513H27.0326L19.1047 30.7233V39.7513H15.6057V30.7833L7.73787 39.7513H5.24856V37.2718L13.4863 27.8839H5.24856V24.3847H15.6057V19.3058H10.847V3.84916H13.6862L15.6657 0H19.6046L17.6251 3.84916H23.9334V19.3058H19.1147V24.3847L19.1047 24.3947ZM14.3461 9.83785H20.4244V7.36839H14.3461V9.83785ZM20.4244 13.3371H14.3461V15.8165H20.4244V13.3371ZM6.93809 6.18865L3.19912 3.84916L1.34963 6.81851L5.0986 9.158L6.94809 6.18865H6.93809ZM5.0986 12.9772L0 16.9063L2.13941 19.6757L7.23801 15.7466L5.0986 12.9772ZM33.3708 6.82851L31.5213 3.85916L27.7724 6.19864L29.6218 9.16799L33.3708 6.82851ZM27.4724 15.7566L32.571 19.6857L34.7105 16.9163L29.6119 12.9872L27.4724 15.7566ZM63.9424 30.4633H60.4434V35.8722H68.0513V32.3729H63.9524V30.4633H63.9424ZM62.1929 6.90849H55.8446V3.83916H52.3456V6.90849H48.8965V10.4077H52.3456V39.7613H55.8446V10.4077H62.1929V6.90849ZM62.1929 21.8852H68.0413V18.386H62.1929V21.8852ZM93.7942 6.90849H97.2432V10.4077H93.7942V33.6326L92.4546 39.7613H88.8655L90.2852 33.2627V28.3738C89.9952 28.4338 89.6953 28.4638 89.3954 28.4638H89.0555C86.6462 28.4638 84.6967 26.5142 84.6967 24.1047V20.8854C84.6967 18.476 86.6462 16.5264 89.0555 16.5264H89.3954C89.6953 16.5264 89.9952 16.5564 90.2852 16.6164V10.4077H82.6772V6.90849H90.2852V3.83916H93.7842V6.90849H93.7942ZM90.2652 20.8854C90.2652 20.4155 89.8853 20.0356 89.4054 20.0356H89.0655C88.5956 20.0356 88.2157 20.4155 88.2057 20.8854V24.1047C88.2057 24.5746 88.5856 24.9645 89.0655 24.9645H89.4054C89.8753 24.9645 90.2652 24.5846 90.2652 24.1047V20.8854Z" fill="black"/>
<path d="M129.885 3.1897V17.9465H140.812V21.8256H129.885V36.5824H126.006V21.8256H114.759V17.9465H126.006V3.1897H129.885Z" fill="#FFFE3B"/>
</svg>
